<svg width="73" height="86" viewBox="0 0 73 86" fill="none" xmlns="http://www.w3.org/2000/svg">
<path d="M5.50489 27.9133C2.51995 27.9133 0.28125 30.334 0.28125 33.1279V55.3056C0.28125 58.2905 2.71106 60.5292 5.50489 60.5292C8.29872 60.5292 10.7194 58.0994 10.7194 55.3056V33.319C10.9105 30.334 8.48982 27.9133 5.50489 27.9133ZM67.5697 27.9133C64.5848 27.9133 62.3461 30.334 62.3461 33.1279V55.3056C62.3461 58.2905 64.7759 60.5292 67.5697 60.5292C70.3636 60.5292 72.7843 58.0994 72.7843 55.3056V33.319C72.7843 30.334 70.3636 27.9133 67.5697 27.9133Z" fill="#A4C639"/>
<path d="M27.6755 53.2583C24.6905 53.2583 22.4609 55.679 22.4609 58.4728V80.6506C22.4609 83.6355 24.8817 85.8742 27.6755 85.8742C30.6604 85.8742 32.89 83.4535 32.89 80.6506V58.4728C32.89 55.679 30.6604 53.2583 27.6755 53.2583ZM45.3849 53.2583C42.4 53.2583 40.1613 55.679 40.1613 58.4728V80.6506C40.1613 83.6355 42.582 85.8742 45.3849 85.8742C48.1787 85.8742 50.5994 83.4535 50.5994 80.6506V58.4728C50.5994 55.679 48.3607 53.2583 45.3849 53.2583Z" fill="#A4C639"/>
<path d="M21.7228 0.13916C21.5316 0.13916 21.5316 0.13916 21.3496 0.330268C20.9765 0.512277 20.7854 0.885393 20.9765 1.25851L24.6986 7.96552C17.4365 11.6967 12.5859 18.7768 12.5859 26.9763H59.9263C59.9263 18.7768 55.0849 11.6967 47.8137 7.96552L51.5357 1.25851C51.7268 0.885393 51.5357 0.512277 51.1717 0.330268C50.9806 0.330268 50.9806 0.13916 50.7986 0.13916C50.6075 0.13916 50.2344 0.330268 50.0524 0.512277L46.6943 7.41039C43.5274 6.09993 40.1693 5.17169 36.4472 5.17169C32.7161 5.17169 29.358 5.91792 26.1911 7.41039L22.469 0.512277C22.2779 0.330268 22.0959 0.13916 21.7228 0.13916ZM12.777 28.8419V63.3234C12.777 66.4903 15.3798 69.1021 18.5558 69.1021H54.5207C57.6876 69.1021 60.2994 66.4903 60.2994 63.3234V28.8419H12.777Z" fill="#A4C639"/>
<path d="M25.6348 14.4902C24.5155 14.4902 23.5781 15.4185 23.5781 16.5378C23.5781 17.6572 24.5155 18.5945 25.6348 18.5945C26.7542 18.5945 27.6824 17.6572 27.6824 16.5378C27.5004 15.2365 26.7542 14.4902 25.6348 14.4902ZM47.4394 14.4902C46.3201 14.4902 45.3918 15.4185 45.3918 16.5378C45.3918 17.6572 46.3201 18.5945 47.4394 18.5945C48.5588 18.5945 49.487 17.6572 49.487 16.5378C49.487 15.2365 48.5588 14.4902 47.4394 14.4902Z" fill="white"/>
</svg>
