<svg width="78" height="95" viewBox="0 0 78 95" fill="none" xmlns="http://www.w3.org/2000/svg">
<mask id="mask0_0_7747" style="mask-type:luminance" maskUnits="userSpaceOnUse" x="0" y="0" width="78" height="95">
<path d="M0.710938 0.20166H77.4339V94.4193H0.710938V0.20166Z" fill="white"/>
</mask>
<g mask="url(#mask0_0_7747)">
<path d="M64.7786 50.2608C64.6704 38.3415 74.5219 32.6147 74.9658 32.3332C69.4229 24.2246 60.8055 23.1204 57.731 22.9905C50.4019 22.2435 43.4192 27.31 39.6951 27.31C35.971 27.31 30.2332 23.0987 24.1491 23.2178C16.1488 23.3369 8.77635 27.8621 4.65169 35.0288C-3.65175 49.4272 2.52982 70.7867 10.6276 82.4895C14.5898 88.2055 19.2991 94.6469 25.5023 94.4088C31.4782 94.1706 33.73 90.5439 40.94 90.5439C48.1501 90.5439 50.1853 94.4088 56.486 94.2897C62.9058 94.1598 66.9763 88.4437 70.9061 82.706C75.4421 76.0697 77.315 69.6392 77.4232 69.3036C77.2825 69.2494 64.9085 64.5077 64.7786 50.2608Z" fill="black"/>
</g>
<path d="M52.9175 15.2491C56.2085 11.2652 58.4278 5.72237 57.8216 0.201172C53.0798 0.396038 47.3421 3.36233 43.9428 7.34625C40.9007 10.8647 38.2267 16.5049 38.9521 21.9179C44.2243 22.3293 49.6264 19.2222 52.9175 15.2491Z" fill="black"/>
</svg>
