<svg width="91" height="81" viewBox="0 0 91 81" fill="none" xmlns="http://www.w3.org/2000/svg">
<path d="M90.1207 40.1536C90.1207 34.1536 82.6662 28.5172 71.2117 25.0627C73.7571 13.4263 72.6662 4.15356 67.5753 1.24447C66.3026 0.517201 65.0298 0.153564 63.3935 0.153564V4.15356C64.3026 4.15356 64.848 4.33538 65.3935 4.69902C67.9389 6.15356 69.0298 11.6081 68.1207 18.5172C67.9389 20.1536 67.5753 21.9717 67.2117 23.9717C63.5753 23.0627 59.7571 22.3354 55.5753 21.9717C53.0298 18.5172 50.4844 15.4263 47.9389 12.8808C53.9389 7.42629 59.5753 4.33538 63.3935 4.33538V0.153564C58.3026 0.153564 51.7571 3.78993 45.0298 9.97175C38.4844 3.78993 31.9389 0.153564 26.848 0.153564V4.15356C30.6662 4.15356 36.3026 7.24447 42.3026 12.699C39.7571 15.4263 37.2116 18.5172 34.6662 21.7899C30.4844 22.1536 26.6662 22.8808 23.0298 23.7899C22.6662 21.9717 22.3026 20.1536 22.1207 18.5172C21.2116 11.6081 22.3026 6.15356 24.848 4.69902C25.3935 4.33538 26.1207 4.15356 27.0298 4.15356V0.153564C25.5753 0.153564 24.1207 0.517201 22.848 1.24447C17.7571 4.15356 16.4844 13.4263 19.2116 25.0627C7.7571 28.5172 0.484375 34.1536 0.484375 40.1536C0.484375 46.1536 7.93892 51.7899 19.3935 55.2445C16.848 66.8808 17.9389 76.1536 23.0298 79.0627C24.3026 79.7899 25.5753 80.1536 27.2116 80.1536C32.3026 80.1536 38.848 76.5172 45.5753 70.3354C52.3026 76.5172 58.848 80.1536 63.9389 80.1536C65.3935 80.1536 66.848 79.7899 68.1207 79.0627C73.2117 76.1536 74.4844 66.8808 71.7571 55.2445C82.6662 51.6081 90.1207 45.9717 90.1207 40.1536ZM66.3026 27.9717C65.5753 30.3354 64.848 32.699 63.7571 35.2445C63.0298 33.7899 62.3026 32.3354 61.3935 30.8808C60.4844 29.4263 59.5753 27.9717 58.848 26.5172C61.3935 26.8808 63.9389 27.2445 66.3026 27.9717ZM57.9389 47.4263C56.4844 49.9717 55.0298 52.1536 53.5753 54.3354C50.848 54.5172 48.1207 54.699 45.3935 54.699C42.6662 54.699 39.9389 54.5172 37.2117 54.3354C35.7571 52.1536 34.1207 49.7899 32.848 47.4263C31.3935 45.0627 30.1207 42.5172 29.0298 40.1536C30.1207 37.7899 31.3935 35.2445 32.848 32.8808C34.3026 30.3354 35.7571 28.1536 37.2117 25.9717C39.9389 25.7899 42.6662 25.6081 45.3935 25.6081C48.1207 25.6081 50.848 25.7899 53.5753 25.9717C55.0298 28.1536 56.6662 30.5172 57.9389 32.8808C59.3935 35.2445 60.6662 37.7899 61.7571 40.1536C60.4844 42.5172 59.2116 45.0627 57.9389 47.4263ZM63.7571 45.0627C64.6662 47.4263 65.5753 49.9717 66.3026 52.3354C63.9389 52.8808 61.3935 53.4263 58.848 53.7899C59.7571 52.3354 60.6662 50.8808 61.3935 49.4263C62.3026 47.9717 63.0298 46.5172 63.7571 45.0627ZM45.2117 64.5172C43.5753 62.699 41.7571 60.8808 40.1207 58.699C41.7571 58.699 43.3935 58.8808 45.2117 58.8808C46.848 58.8808 48.6662 58.8808 50.3026 58.699C48.6662 60.8808 46.848 62.699 45.2117 64.5172ZM31.5753 53.7899C29.0298 53.4263 26.4844 52.8808 24.1207 52.3354C24.848 49.9717 25.5753 47.6081 26.6662 45.0627C27.3935 46.5172 28.1207 47.9717 29.0298 49.4263C29.9389 50.8808 30.6662 52.3354 31.5753 53.7899ZM45.2117 15.6081C46.848 17.4263 48.6662 19.2445 50.3026 21.4263C48.6662 21.4263 46.848 21.4263 45.2117 21.4263C43.5753 21.4263 41.7571 21.4263 40.1207 21.6081C41.7571 19.4263 43.3935 17.4263 45.2117 15.6081ZM31.5753 26.5172C30.6662 27.9717 29.7571 29.4263 29.0298 30.8808C28.1207 32.3354 27.3935 33.7899 26.6662 35.2445C25.7571 32.8808 24.848 30.3354 24.1207 27.9717C26.4844 27.4263 29.0298 26.8808 31.5753 26.5172ZM15.0298 49.4263C8.48438 46.699 4.30256 43.0627 4.30256 40.1536C4.30256 37.2445 8.48438 33.6081 15.0298 30.8808C16.6662 30.1536 18.3026 29.6081 20.1207 29.0627C21.2116 32.699 22.4844 36.3354 24.3026 40.1536C22.6662 43.9717 21.2116 47.6081 20.3026 51.2445C18.3026 50.699 16.6662 49.9717 15.0298 49.4263ZM24.848 75.4263C22.3026 73.9717 21.2116 68.5172 22.1207 61.6081C22.3026 59.9717 22.6662 58.1536 23.0298 56.1536C26.6662 57.0627 30.4844 57.7899 34.6662 58.1536C37.2116 61.6081 39.7571 64.699 42.3026 67.2445C36.3026 72.699 30.6662 75.7899 26.848 75.7899C26.1207 75.9718 25.3935 75.7899 24.848 75.4263ZM68.3026 61.6081C69.2116 68.5172 68.1207 73.9717 65.5753 75.4263C65.0298 75.7899 64.3026 75.9717 63.5753 75.9717C59.7571 75.9717 54.1207 72.8808 48.1207 67.4263C50.6662 64.699 53.2116 61.6081 55.7571 58.3354C59.9389 57.9717 63.7571 57.2445 67.3935 56.3354C67.7571 58.1536 68.1207 59.7899 68.3026 61.6081ZM75.3935 49.4263C73.7571 50.1536 72.1207 50.699 70.3026 51.2445C69.2117 47.6081 67.9389 43.9717 66.1207 40.1536C67.7571 36.3354 69.2116 32.699 70.1207 29.0627C71.9389 29.6081 73.5753 30.3354 75.2116 30.8808C81.7571 33.6081 85.9389 37.2445 85.9389 40.1536C85.9389 43.0627 81.7571 46.699 75.3935 49.4263Z" fill="#61DAFB"/>
</svg>
