<svg width="25" height="25" viewBox="0 0 25 25" fill="none" xmlns="http://www.w3.org/2000/svg">
<circle cx="12.322" cy="12.4744" r="12.322" fill="#F0F8FF"/>
<g clip-path="url(#clip0_58_9130)">
<path d="M17.3216 12.0374C17.3216 12.1611 17.3216 12.2848 17.3216 12.4085C17.3085 12.475 17.2946 12.5416 17.2824 12.6083C17.1266 13.461 16.3644 14.1811 15.5041 14.2618C15.1652 14.2935 14.8215 14.2778 14.4802 14.2837C14.446 14.2843 14.4115 14.2837 14.3771 14.2837C14.3771 14.8757 14.3771 15.4538 14.3771 16.0414C14.5532 16.0414 14.725 16.0365 14.8963 16.0436C14.9785 16.0469 15.0192 16.024 15.0564 15.9465C15.263 15.5179 15.7675 15.3389 16.2098 15.5297C16.6259 15.7091 16.8237 16.2017 16.6578 16.6458C16.4963 17.0779 16.0166 17.3131 15.5755 17.1722C15.3008 17.0845 15.1182 16.8955 15.0078 16.6234C14.6025 16.6234 14.1972 16.6234 13.7814 16.6234C13.7814 15.8387 13.7814 15.0629 13.7814 14.2892C13.3878 14.2892 13.005 14.2892 12.6193 14.2892C12.6174 14.3068 12.6146 14.3191 12.6146 14.3314C12.6144 14.7025 12.616 15.0735 12.6125 15.4446C12.6119 15.5046 12.6434 15.5187 12.6861 15.5397C12.9945 15.6907 13.1731 15.9375 13.197 16.2808C13.2276 16.7201 12.9185 17.1145 12.4947 17.1947C12.0512 17.2786 11.6228 17.0289 11.4852 16.606C11.3485 16.1853 11.5436 15.7342 11.9496 15.544C12.0074 15.517 12.031 15.4902 12.0303 15.4234C12.0262 15.0753 12.0283 14.7269 12.0283 14.3786C12.0283 14.3479 12.0283 14.3171 12.0283 14.2894C11.6293 14.2894 11.2465 14.2894 10.8531 14.2894C10.8531 15.0708 10.8531 15.8467 10.8531 16.6278C10.4394 16.6278 10.0365 16.6278 9.6357 16.6278C9.42571 17.1299 8.96445 17.2755 8.603 17.1898C8.21258 17.0972 7.92842 16.7411 7.92686 16.3389C7.92529 15.9348 8.20221 15.5794 8.5938 15.4812C8.9576 15.39 9.42434 15.535 9.63335 16.0352C9.84353 16.0352 10.0535 16.0352 10.2631 16.0352C10.2631 15.4487 10.2631 14.8682 10.2631 14.2835C9.98267 14.2835 9.70948 14.2876 9.43648 14.2817C9.29401 14.2788 9.14998 14.2686 9.00985 14.2439C8.16913 14.097 7.48419 13.3884 7.34466 12.5281C7.20982 11.6958 7.64505 10.8267 8.40378 10.4274C8.48597 10.3842 8.51943 10.3351 8.53118 10.2458C8.62374 9.54601 9.23863 9.00216 9.94745 8.99238C10.0155 8.9914 10.048 8.96929 10.0811 8.91038C10.549 8.08062 11.2394 7.53658 12.1669 7.30389C12.3266 7.26377 12.4909 7.24264 12.6532 7.21289C12.816 7.21289 12.9786 7.21289 13.1414 7.21289C13.2821 7.23579 13.4244 7.25183 13.5634 7.28256C15.0086 7.60272 16.0343 8.80451 16.1241 10.2834C16.128 10.3472 16.1491 10.3791 16.2049 10.4086C16.6497 10.6435 16.9789 10.9899 17.1642 11.4582C17.2378 11.6431 17.2705 11.8439 17.3216 12.0374ZM15.0663 11.6991C14.5624 10.8384 13.5522 10.1341 12.2994 10.1544C11.1197 10.1736 10.2193 10.7061 9.56681 11.6924C9.74098 11.7989 9.90322 11.8983 10.0672 11.9987C10.6058 11.1858 11.3514 10.7419 12.324 10.7425C13.2966 10.7431 14.0413 11.1893 14.5757 11.9989C14.7401 11.8985 14.9008 11.8005 15.0663 11.6991ZM14.0681 12.3095C13.7176 11.703 13.0144 11.3096 12.3093 11.3251C11.5606 11.3415 10.9878 11.675 10.5686 12.305C10.739 12.4093 10.9011 12.5087 11.068 12.6108C11.3686 12.1609 11.7811 11.9132 12.3193 11.9124C12.8612 11.9116 13.2759 12.1613 13.5755 12.6108C13.743 12.5083 13.9031 12.4104 14.0681 12.3095ZM12.0586 13.2167C12.2669 13.0447 12.3496 13.0449 12.5876 13.2154C12.7457 13.1185 12.9052 13.0204 13.0728 12.9177C12.8724 12.6273 12.5997 12.5087 12.2653 12.5255C11.9731 12.5402 11.7395 12.6645 11.571 12.9179C11.7412 13.0222 11.9009 13.1201 12.0586 13.2167Z" fill="#238FFF"/>
</g>
<defs>
<clipPath id="clip0_58_9130">
<rect width="10.001" height="10" fill="white" transform="translate(7.32031 7.47461)"/>
</clipPath>
</defs>
</svg>
