<svg width="88" height="89" viewBox="0 0 88 89" fill="none" xmlns="http://www.w3.org/2000/svg">
<g clip-path="url(#clip0_0_8242)">
<path d="M42.7479 55.2961C41.9039 55.2961 41.0987 55.2961 40.2357 55.2961C40.2357 55.4754 40.2357 55.6557 40.2357 55.835C40.2357 56.5641 40.2431 57.2933 40.2337 58.0224C40.2232 58.7208 39.6832 59.2271 38.9723 59.2241C38.2667 59.2211 37.7319 58.7089 37.7257 58.0085C37.7173 57.11 37.7236 56.2115 37.7236 55.2812C36.2924 55.3278 35.0572 54.9454 34.057 54.0042C33.0546 53.0611 32.6457 51.8961 32.6981 50.5319C31.9317 50.5319 31.1904 50.5319 30.4502 50.5319C30.2279 50.5319 30.0056 50.5369 29.7833 50.5309C29.0483 50.5111 28.5146 50.0009 28.522 49.3282C28.5293 48.6724 29.0578 48.1701 29.7781 48.1622C30.7322 48.1513 31.6863 48.1592 32.6698 48.1592C32.6698 47.3726 32.6698 46.6029 32.6698 45.7856C32.5335 45.7856 32.3951 45.7856 32.2567 45.7856C30.5949 45.7856 28.933 45.7895 27.2722 45.7826C26.685 45.7806 26.1859 45.4131 26.0444 44.9138C25.9049 44.4194 26.0979 43.8726 26.5686 43.6229C26.8067 43.4971 27.1086 43.4248 27.3833 43.4208C28.9928 43.403 30.6022 43.4119 32.2106 43.4119C32.3532 43.4119 32.4968 43.4119 32.6698 43.4119C32.6698 42.6263 32.6698 41.8566 32.6698 41.0383C31.9862 41.0383 31.2973 41.0383 30.6095 41.0383C30.3348 41.0383 30.0601 41.0432 29.7854 41.0373C29.0494 41.0194 28.5157 40.5092 28.523 39.8366C28.5293 39.1807 29.0578 38.6775 29.777 38.6686C30.7312 38.6577 31.6853 38.6656 32.6908 38.6656C32.6468 37.3292 33.0399 36.1453 34.0517 35.1962C35.053 34.2561 36.2829 33.8618 37.7236 33.9193C37.7236 32.99 37.7183 32.0925 37.7257 31.1939C37.7309 30.5321 38.2027 30.0279 38.8444 29.9764C39.615 29.915 40.2221 30.4232 40.2326 31.1632C40.2452 32.0637 40.2357 32.9652 40.2357 33.8915C41.0724 33.8915 41.8882 33.8915 42.7479 33.8915C42.7479 33.7568 42.7479 33.625 42.7479 33.4933C42.7479 31.924 42.7427 30.3538 42.7511 28.7846C42.7542 28.1654 43.2219 27.6721 43.8289 27.6067C44.4937 27.5354 45.0609 27.892 45.2182 28.4973C45.258 28.6509 45.258 28.8153 45.2591 28.9748C45.2622 30.6055 45.2612 32.2351 45.2612 33.8915C46.0968 33.8915 46.9125 33.8915 47.7734 33.8915C47.7734 33.0653 47.7723 32.2421 47.7744 31.4178C47.7755 31.2454 47.766 31.0681 47.8038 30.9017C47.9369 30.3013 48.5063 29.9229 49.1679 29.9774C49.7781 30.0279 50.2688 30.5173 50.2814 31.1246C50.2971 31.9032 50.2856 32.6819 50.2866 33.4606C50.2866 33.5953 50.2866 33.73 50.2866 33.9094C51.7052 33.8707 52.9571 34.2402 53.9626 35.1982C54.9576 36.1463 55.3634 37.3113 55.3141 38.6646C56.2976 38.6646 57.2486 38.6587 58.1996 38.6666C58.9094 38.6725 59.4494 39.1431 59.485 39.7682C59.5259 40.4785 58.9891 41.0264 58.2174 41.0353C57.2643 41.0462 56.3112 41.0383 55.3351 41.0383C55.3351 41.8348 55.3351 42.6045 55.3351 43.4119C55.4871 43.4119 55.6276 43.4119 55.7681 43.4119C57.3776 43.4119 58.987 43.4109 60.5964 43.4129C61.4373 43.4139 61.9972 43.8865 62.0004 44.5918C62.0035 45.2992 61.4426 45.7846 60.6111 45.7856C59.0017 45.7876 57.3922 45.7866 55.7828 45.7866C55.6413 45.7866 55.4997 45.7866 55.334 45.7866C55.334 46.5831 55.334 47.3538 55.334 48.1602C56.2987 48.1602 57.2507 48.1543 58.2017 48.1622C58.9094 48.1682 59.4494 48.6417 59.484 49.2668C59.5238 49.9771 58.9859 50.521 58.2132 50.5309C57.3891 50.5408 56.565 50.5339 55.7409 50.5339C55.6119 50.5339 55.484 50.5339 55.3152 50.5339C55.3613 51.8723 54.965 53.0423 53.971 53.9894C52.9728 54.9394 51.7409 55.3298 50.2845 55.2802C50.2845 55.4149 50.2845 55.5319 50.2845 55.6497C50.2845 56.4403 50.2918 57.2318 50.2824 58.0224C50.273 58.7208 49.734 59.2281 49.0242 59.2261C48.3175 59.2241 47.7817 58.7129 47.7744 58.0135C47.766 57.115 47.7723 56.2154 47.7723 55.298C46.9293 55.298 46.123 55.298 45.2601 55.298C45.2601 55.4268 45.2601 55.5576 45.2601 55.6874C45.2601 57.22 45.2622 58.7525 45.2591 60.2851C45.258 61.0727 44.7464 61.6017 43.9977 61.5988C43.2512 61.5958 42.749 61.0658 42.7479 60.2732C42.7458 58.7525 42.7469 57.2328 42.7469 55.7122C42.7479 55.5794 42.7479 55.4467 42.7479 55.2961ZM43.1642 46.6019C43.1642 47.0259 43.1453 47.4093 43.1684 47.7897C43.2093 48.4594 43.7797 48.9666 44.4444 48.9528C45.1291 48.9379 45.6648 48.4317 45.668 47.7511C45.6774 46.1214 45.6921 44.4908 45.6575 42.8611C45.6302 41.5554 44.5555 40.4359 43.1841 40.2982C42.4082 40.221 41.6145 40.2101 40.8365 40.2705C39.2722 40.3914 38.1755 41.5118 38.1451 43.0028C38.1136 44.571 38.1283 46.1393 38.1409 47.7085C38.1461 48.4238 38.7175 48.9627 39.4116 48.9528C40.1215 48.9429 40.6352 48.4188 40.6478 47.6847C40.653 47.33 40.6489 46.9754 40.6489 46.6019C41.5013 46.6019 42.3055 46.6019 43.1642 46.6019ZM47.3613 44.5789C47.3613 45.6033 47.3571 46.6277 47.3624 47.652C47.3665 48.4109 47.8814 48.9458 48.6006 48.9528C49.3115 48.9597 49.8662 48.4148 49.8693 47.6698C49.8777 45.6211 49.8777 43.5734 49.8693 41.5247C49.8662 40.7807 49.3105 40.2348 48.5996 40.2428C47.8761 40.2507 47.3655 40.7797 47.3624 41.5435C47.3571 42.555 47.3613 43.5665 47.3613 44.5789Z" fill="#238FFF"/>
<path d="M43.1523 44.1924C42.2956 44.1924 41.504 44.1924 40.6673 44.1924C40.6673 43.7654 40.6317 43.3484 40.6883 42.9422C40.7061 42.8164 40.9682 42.642 41.1318 42.6291C41.6498 42.5885 42.174 42.6083 42.6962 42.6172C42.9426 42.6212 43.1386 42.7262 43.1491 42.9838C43.1627 43.3761 43.1523 43.7694 43.1523 44.1924Z" fill="#238FFF"/>
</g>
<circle opacity="0.8" cx="44.1005" cy="44.5585" r="34.0735" stroke="#238FFF" stroke-width="2.72588"/>
<circle cx="44.1023" cy="44.5584" r="41.3425" stroke="#238FFF" stroke-width="4.54313"/>
<defs>
<clipPath id="clip0_0_8242">
<rect width="36" height="34" fill="white" transform="translate(26 27.5977)"/>
</clipPath>
</defs>
</svg>
