<svg width="142" height="117" viewBox="0 0 142 117" fill="none" xmlns="http://www.w3.org/2000/svg">
<path d="M29.5638 29.4721L0.707031 58.329L29.7141 87.3361L58.7212 116.193H72.0976H85.4739L113.73 88.0875C129.21 72.6071 141.985 59.2307 141.985 58.329C141.985 57.5775 129.36 44.0508 113.73 28.5704L85.6242 0.465042H72.0976H58.5709L29.5638 29.4721ZM86.2254 32.1775L112.076 57.1266L86.3757 82.5266C72.2479 96.5041 60.2242 108.077 59.623 108.377C59.0218 108.528 46.9982 97.2556 33.0206 83.1278L7.47035 57.5775L33.0206 32.0272C46.9982 17.8994 59.0218 6.62717 59.4727 6.77747C59.9236 7.07806 72.0976 18.5005 86.2254 32.1775Z" fill="#BB0239"/>
</svg>
