<svg width="25" height="26" viewBox="0 0 25 26" fill="none" xmlns="http://www.w3.org/2000/svg">
<circle cx="12.322" cy="13.1863" r="12.322" fill="#F0F8FF"/>
<g clip-path="url(#clip0_58_9109)">
<path d="M11.916 16.5905C11.6428 16.5905 11.3822 16.5905 11.103 16.5905C11.103 16.6519 11.103 16.7137 11.103 16.7752C11.103 17.025 11.1054 17.2749 11.1023 17.5247C11.0989 17.764 10.9242 17.9375 10.6941 17.9365C10.4658 17.9354 10.2927 17.7599 10.2907 17.5199C10.288 17.2121 10.29 16.9042 10.29 16.5854C9.82686 16.6014 9.42715 16.4703 9.10345 16.1479C8.77908 15.8247 8.64675 15.4255 8.66371 14.9581C8.41568 14.9581 8.17579 14.9581 7.93623 14.9581C7.8643 14.9581 7.79237 14.9598 7.72043 14.9577C7.48258 14.9509 7.30987 14.7761 7.31225 14.5456C7.31462 14.3209 7.48563 14.1488 7.71874 14.1461C8.02751 14.1423 8.33628 14.1451 8.65455 14.1451C8.65455 13.8755 8.65455 13.6118 8.65455 13.3317C8.61044 13.3317 8.56565 13.3317 8.52086 13.3317C7.98306 13.3317 7.44526 13.3331 6.90779 13.3307C6.71778 13.33 6.55627 13.2041 6.51046 13.033C6.46533 12.8636 6.52777 12.6762 6.68012 12.5907C6.75714 12.5476 6.85486 12.5228 6.94376 12.5214C7.4646 12.5153 7.98543 12.5184 8.50593 12.5184C8.55208 12.5184 8.59856 12.5184 8.65455 12.5184C8.65455 12.2492 8.65455 11.9854 8.65455 11.7051C8.43332 11.7051 8.2104 11.7051 7.98781 11.7051C7.89891 11.7051 7.81001 11.7067 7.72111 11.7047C7.48292 11.6986 7.31021 11.5238 7.31259 11.2933C7.31462 11.0686 7.48563 10.8961 7.7184 10.8931C8.02717 10.8893 8.33594 10.8921 8.66134 10.8921C8.64708 10.4341 8.77433 10.0285 9.10176 9.70328C9.4258 9.38113 9.82381 9.24603 10.29 9.26572C10.29 8.94731 10.2883 8.63976 10.2907 8.33187C10.2924 8.10512 10.4451 7.93233 10.6527 7.91468C10.9021 7.89363 11.0986 8.06778 11.102 8.32135C11.1061 8.62992 11.103 8.93882 11.103 9.25621C11.3738 9.25621 11.6377 9.25621 11.916 9.25621C11.916 9.21005 11.916 9.1649 11.916 9.11975C11.916 8.58205 11.9143 8.04401 11.917 7.50631C11.918 7.29415 12.0693 7.12511 12.2658 7.1027C12.4809 7.07826 12.6645 7.20046 12.7154 7.40787C12.7283 7.46049 12.7283 7.51684 12.7286 7.57149C12.7296 8.13024 12.7293 8.68864 12.7293 9.25621C12.9997 9.25621 13.2637 9.25621 13.5423 9.25621C13.5423 8.97311 13.5419 8.69102 13.5426 8.40859C13.543 8.34952 13.5399 8.28876 13.5521 8.23173C13.5952 8.02602 13.7795 7.89635 13.9936 7.91502C14.191 7.93233 14.3498 8.10002 14.3539 8.30811C14.359 8.57492 14.3553 8.84174 14.3556 9.10855C14.3556 9.15472 14.3556 9.20088 14.3556 9.26232C14.8147 9.24908 15.2198 9.3757 15.5452 9.70396C15.8672 10.0288 15.9985 10.428 15.9826 10.8917C16.3009 10.8917 16.6086 10.8897 16.9164 10.8924C17.1461 10.8944 17.3208 11.0557 17.3324 11.2699C17.3456 11.5133 17.1719 11.701 16.9221 11.704C16.6137 11.7078 16.3053 11.7051 15.9894 11.7051C15.9894 11.978 15.9894 12.2417 15.9894 12.5184C16.0386 12.5184 16.084 12.5184 16.1295 12.5184C16.6503 12.5184 17.1712 12.5181 17.692 12.5187C17.9641 12.5191 18.1453 12.681 18.1464 12.9227C18.1474 13.1651 17.9658 13.3314 17.6968 13.3317C17.1759 13.3324 16.6551 13.3321 16.1343 13.3321C16.0885 13.3321 16.0426 13.3321 15.989 13.3321C15.989 13.605 15.989 13.8691 15.989 14.1454C16.3012 14.1454 16.6093 14.1434 16.917 14.1461C17.1461 14.1481 17.3208 14.3104 17.332 14.5246C17.3449 14.768 17.1708 14.9543 16.9208 14.9577C16.6541 14.9611 16.3874 14.9587 16.1207 14.9587C16.079 14.9587 16.0376 14.9587 15.9829 14.9587C15.9979 15.4173 15.8696 15.8182 15.5479 16.1428C15.2249 16.4683 14.8262 16.602 14.3549 16.5851C14.3549 16.6312 14.3549 16.6713 14.3549 16.7117C14.3549 16.9826 14.3573 17.2538 14.3542 17.5247C14.3512 17.764 14.1768 17.9378 13.9471 17.9371C13.7184 17.9365 13.545 17.7613 13.5426 17.5216C13.5399 17.2138 13.5419 16.9055 13.5419 16.5912C13.2691 16.5912 13.0082 16.5912 12.729 16.5912C12.729 16.6353 12.729 16.6801 12.729 16.7246C12.729 17.2497 12.7296 17.7749 12.7286 18.3C12.7283 18.5699 12.5627 18.7511 12.3204 18.7501C12.0788 18.7491 11.9163 18.5675 11.916 18.2959C11.9153 17.7749 11.9156 17.2541 11.9156 16.7331C11.916 16.6876 11.916 16.6421 11.916 16.5905ZM12.0507 13.6114C12.0507 13.7567 12.0446 13.8881 12.052 14.0184C12.0653 14.2479 12.2499 14.4217 12.465 14.417C12.6865 14.4119 12.8599 14.2384 12.861 14.0052C12.864 13.4468 12.8688 12.8881 12.8576 12.3297C12.8487 11.8822 12.5009 11.4987 12.0571 11.4515C11.806 11.425 11.5492 11.4213 11.2974 11.442C10.7912 11.4834 10.4363 11.8673 10.4264 12.3782C10.4162 12.9156 10.421 13.4529 10.4251 13.9906C10.4268 14.2357 10.6117 14.4204 10.8363 14.417C11.066 14.4136 11.2323 14.234 11.2363 13.9825C11.238 13.8609 11.2367 13.7394 11.2367 13.6114C11.5125 13.6114 11.7728 13.6114 12.0507 13.6114ZM13.4089 12.9183C13.4089 13.2693 13.4076 13.6203 13.4093 13.9713C13.4106 14.2313 13.5772 14.4146 13.81 14.417C14.04 14.4193 14.2195 14.2326 14.2206 13.9774C14.2233 13.2754 14.2233 12.5737 14.2206 11.8717C14.2195 11.6168 14.0397 11.4298 13.8097 11.4325C13.5755 11.4352 13.4103 11.6165 13.4093 11.8782C13.4076 12.2248 13.4089 12.5713 13.4089 12.9183Z" fill="#238FFF"/>
<path d="M12.046 12.7853C11.7688 12.7853 11.5126 12.7853 11.2419 12.7853C11.2419 12.639 11.2303 12.4961 11.2487 12.3569C11.2544 12.3138 11.3392 12.2541 11.3922 12.2497C11.5598 12.2357 11.7295 12.2425 11.8984 12.2456C11.9782 12.2469 12.0416 12.2829 12.045 12.3712C12.0494 12.5056 12.046 12.6404 12.046 12.7853Z" fill="#238FFF"/>
</g>
<defs>
<clipPath id="clip0_58_9109">
<rect width="11.6501" height="11.6501" fill="white" transform="translate(6.49609 7.36133)"/>
</clipPath>
</defs>
</svg>
