<svg xmlns="http://www.w3.org/2000/svg" fill="none" viewBox="0.48 0.19 20.12 13.25">
<g id="Frame 1000002623">
<g clip-path="url(#clip0_0_8115)">
<g id="Group">
<path id="Vector" d="M0.484375 0.188965H20.6059V13.4376H0.484375V0.188965Z" fill="white"/>
<path id="Vector_2" d="M0.484375 0.188965H20.6059V1.20811H0.484375V0.188965ZM0.484375 2.22726H20.6059V3.24641H0.484375V2.22726ZM0.484375 4.26547H20.6059V5.28462H0.484375V4.26547ZM0.484375 6.30377H20.6059V7.32292H0.484375V6.30377ZM0.484375 8.34198H20.6059V9.36113H0.484375V8.34198ZM0.484375 10.3803H20.6059V11.3994H0.484375V10.3803ZM0.484375 12.4185H20.6059V13.4376H0.484375V12.4185Z" fill="#B22234"/>
<path id="Vector_3" d="M0.484375 0.188965H10.1796V7.32283H0.484375V0.188965Z" fill="#3C3B6E"/>
<path id="Vector_4" d="M0.867188 0.768259L1.09449 0.942537L1.00767 1.22455L1.23489 1.05027L1.46219 1.22455L1.37537 0.942537L1.60259 0.768259H1.32171L1.23489 0.486328L1.14807 0.768259H0.867188ZM2.4489 0.768259L2.67612 0.942537L2.58931 1.22455L2.8166 1.05027L3.0439 1.22455L2.95709 0.942537L3.18431 0.768259H2.90342L2.8166 0.486328L2.72979 0.768259H2.4489ZM4.03062 0.768259L4.25784 0.942537L4.17102 1.22455L4.39832 1.05027L4.62554 1.22455L4.53872 0.942537L4.76602 0.768259H4.48514L4.39832 0.486328L4.3115 0.768259H4.03062ZM5.61233 0.768259L5.83955 0.942537L5.75274 1.22455L5.98004 1.05027L6.20726 1.22455L6.12044 0.942537L6.34774 0.768259H6.06677L5.98004 0.486328L5.89322 0.768259H5.61233ZM7.19397 0.768259L7.42127 0.942537L7.33445 1.22455L7.56167 1.05027L7.78897 1.22455L7.70215 0.942537L7.92937 0.768259H7.64849L7.56167 0.486328L7.47485 0.768259H7.19397ZM8.77568 0.768259L9.0029 0.942537L8.91609 1.22455L9.14339 1.05027L9.37061 1.22455L9.28379 0.942537L9.51109 0.768259H9.2302L9.14339 0.486328L9.05657 0.768259H8.77568ZM1.65801 1.48374L1.8853 1.65802L1.79849 1.93995L2.02579 1.76568L2.25301 1.93995L2.16619 1.65802L2.39349 1.48374H2.11252L2.02579 1.20173L1.93897 1.48374H1.65801ZM3.23972 1.48374L3.46702 1.65802L3.3802 1.93995L3.60742 1.76568L3.83472 1.93995L3.74791 1.65802L3.97512 1.48374H3.69424L3.60742 1.20173L3.52061 1.48374H3.23972ZM4.82144 1.48374L5.04874 1.65802L4.96192 1.93995L5.18914 1.76568L5.41644 1.93995L5.32962 1.65802L5.55684 1.48374H5.27596L5.18914 1.20173L5.10232 1.48374H4.82144ZM6.40315 1.48374L6.63037 1.65802L6.54355 1.93995L6.77085 1.76568L6.99807 1.93995L6.91126 1.65802L7.13856 1.48374H6.85767L6.77085 1.20173L6.68404 1.48374H6.40315ZM7.98479 1.48374L8.21209 1.65802L8.12527 1.93995L8.35249 1.76568L8.57979 1.93995L8.49297 1.65802L8.72019 1.48374H8.43931L8.35249 1.20173L8.26575 1.48374H7.98479ZM0.867188 2.19914L1.09449 2.37342L1.00767 2.65544L1.23489 2.48116L1.46219 2.65544L1.37537 2.37342L1.60259 2.19914H1.32171L1.23489 1.91721L1.14807 2.19914H0.867188ZM2.4489 2.19914L2.67612 2.37342L2.58931 2.65544L2.8166 2.48116L3.0439 2.65544L2.95709 2.37342L3.18431 2.19914H2.90342L2.8166 1.91721L2.72979 2.19914H2.4489ZM4.03062 2.19914L4.25784 2.37342L4.17102 2.65544L4.39832 2.48116L4.62554 2.65544L4.53872 2.37342L4.76602 2.19914H4.48514L4.39832 1.91721L4.3115 2.19914H4.03062ZM5.61233 2.19914L5.83955 2.37342L5.75274 2.65544L5.98004 2.48116L6.20726 2.65544L6.12044 2.37342L6.34774 2.19914H6.06677L5.98004 1.91721L5.89322 2.19914H5.61233ZM7.19397 2.19914L7.42127 2.37342L7.33445 2.65544L7.56167 2.48116L7.78897 2.65544L7.70215 2.37342L7.92937 2.19914H7.64849L7.56167 1.91721L7.47485 2.19914H7.19397ZM8.77568 2.19914L9.0029 2.37342L8.91609 2.65544L9.14339 2.48116L9.37061 2.65544L9.28379 2.37342L9.51109 2.19914H9.2302L9.14339 1.91721L9.05657 2.19914H8.77568ZM1.67756 2.91698L1.90478 3.09126L1.81805 3.37319L2.04527 3.19891L2.27256 3.37319L2.18575 3.09117L2.41297 2.91698H2.13208L2.04527 2.63496L1.95845 2.91698H1.67756ZM3.25928 2.91698L3.4865 3.09126L3.39968 3.37319L3.62698 3.19891L3.8542 3.37319L3.76738 3.09117L3.99468 2.91698H3.7138L3.62698 2.63496L3.54016 2.91698H3.25928ZM4.84099 2.91698L5.06821 3.09126L4.9814 3.37319L5.2087 3.19891L5.43592 3.37319L5.3491 3.09117L5.5764 2.91698H5.29543L5.2087 2.63496L5.12188 2.91698H4.84099ZM6.42263 2.91698L6.64993 3.09126L6.56311 3.37319L6.79033 3.19891L7.01763 3.37319L6.93081 3.09117L7.15803 2.91698H6.87715L6.79033 2.63496L6.70351 2.91698H6.42263ZM8.00434 2.91698L8.23156 3.09126L8.14475 3.37319L8.37205 3.19891L8.59927 3.37319L8.51245 3.09117L8.73975 2.91698H8.45886L8.37205 2.63496L8.28523 2.91698H8.00434ZM0.891197 3.62642L1.1185 3.80061L1.03168 4.08263L1.2589 3.90835L1.4862 4.08263L1.39938 3.80061L1.6266 3.62642H1.34572L1.2589 3.34441L1.17208 3.62642H0.891197ZM2.47291 3.62642L2.70013 3.80061L2.61332 4.08263L2.84061 3.90835L3.06783 4.08263L2.9811 3.80061L3.20832 3.62642H2.92743L2.84061 3.34441L2.7538 3.62642H2.47291ZM4.05463 3.62642L4.28185 3.80061L4.19503 4.08263L4.42233 3.90835L4.64955 4.08263L4.56273 3.80061L4.79003 3.62642H4.50915L4.42233 3.34441L4.33551 3.62642H4.05463ZM5.63626 3.62642L5.86356 3.80061L5.77675 4.08263L6.00397 3.90835L6.23127 4.08263L6.14445 3.80061L6.37175 3.62642H6.09078L6.00397 3.34441L5.91723 3.62642H5.63626ZM7.21798 3.62642L7.4452 3.80061L7.35846 4.08263L7.58568 3.90835L7.81298 4.08263L7.72616 3.80061L7.95338 3.62642H7.6725L7.58568 3.34441L7.49886 3.62642H7.21798ZM8.79969 3.62642L9.02691 3.80061L8.9401 4.08263L9.1674 3.90835L9.39462 4.08263L9.3078 3.80061L9.5351 3.62642H9.25421L9.1674 3.34441L9.08058 3.62642H8.79969ZM0.906065 5.03457L1.13328 5.20884L1.04647 5.49086L1.27377 5.31658L1.50099 5.49086L1.41417 5.20884L1.64147 5.03457H1.36058L1.27377 4.75264L1.18695 5.03457H0.906065ZM2.4877 5.03457L2.715 5.20884L2.62818 5.49086L2.8554 5.31658L3.0827 5.49086L2.99588 5.20884L3.2231 5.03457H2.94222L2.8554 4.75264L2.76858 5.03457H2.4877ZM4.06942 5.03457L4.29664 5.20884L4.2099 5.49086L4.43712 5.31658L4.66442 5.49086L4.5776 5.20884L4.80482 5.03457H4.52394L4.43712 4.75264L4.3503 5.03457H4.06942ZM5.65113 5.03457L5.87835 5.20884L5.79153 5.49086L6.01883 5.31658L6.24605 5.49086L6.15932 5.20884L6.38653 5.03457H6.10565L6.01883 4.75264L5.93202 5.03457H5.65113ZM7.23277 5.03457L7.46007 5.20884L7.37325 5.49086L7.60047 5.31658L7.82777 5.49086L7.74095 5.20884L7.96825 5.03457H7.68729L7.60047 4.75264L7.51373 5.03457H7.23277ZM8.81448 5.03457L9.0417 5.20884L8.95496 5.49086L9.18218 5.31658L9.40948 5.49086L9.32267 5.20884L9.54989 5.03457H9.269L9.18218 4.75264L9.09537 5.03457H8.81448ZM0.886745 6.45933L1.11397 6.63361L1.02715 6.91562L1.25445 6.74134L1.48167 6.91562L1.39485 6.63361L1.62215 6.45933H1.34119L1.25445 6.1774L1.16763 6.45933H0.886745ZM2.46838 6.45933L2.69568 6.63361L2.60886 6.91562L2.83608 6.74134L3.06338 6.91562L2.97657 6.63361L3.20379 6.45933H2.9229L2.83608 6.1774L2.74927 6.45933H2.46838ZM4.0501 6.45933L4.27732 6.63361L4.19058 6.91562L4.4178 6.74134L4.6451 6.91562L4.55828 6.63361L4.7855 6.45933H4.50462L4.4178 6.1774L4.33098 6.45933H4.0501ZM5.63181 6.45933L5.85903 6.63361L5.77221 6.91562L5.99951 6.74134L6.22673 6.91562L6.14 6.63361L6.36722 6.45933H6.08633L5.99951 6.1774L5.9127 6.45933H5.63181ZM7.21345 6.45933L7.44075 6.63361L7.35393 6.91562L7.58115 6.74134L7.80845 6.91562L7.72163 6.63361L7.94893 6.45933H7.66797L7.58115 6.1774L7.49441 6.45933H7.21345ZM8.79516 6.45933L9.02238 6.63361L8.93565 6.91562L9.16286 6.74134L9.39016 6.91562L9.30335 6.63361L9.53057 6.45933H9.24968L9.16286 6.1774L9.07605 6.45933H8.79516ZM1.68225 4.32345L1.90947 4.49772L1.82274 4.77965L2.04996 4.60538L2.27726 4.77965L2.19044 4.49772L2.41766 4.32345H2.13677L2.04996 4.04143L1.96314 4.32345H1.68225ZM3.26397 4.32345L3.49119 4.49772L3.40437 4.77965L3.63167 4.60538L3.85889 4.77965L3.77215 4.49772L3.99937 4.32345H3.71849L3.63167 4.04143L3.54485 4.32345H3.26397ZM4.84568 4.32345L5.0729 4.49772L4.98609 4.77965L5.21339 4.60538L5.44061 4.77965L5.35379 4.49772L5.58109 4.32345H5.3002L5.21339 4.04143L5.12657 4.32345H4.84568ZM6.42732 4.32345L6.65462 4.49772L6.5678 4.77965L6.79502 4.60538L7.02232 4.77965L6.9355 4.49772L7.16272 4.32345H6.88184L6.79502 4.04143L6.70821 4.32345H6.42732ZM8.00904 4.32345L8.23626 4.49772L8.14944 4.77965L8.37674 4.60538L8.60396 4.77965L8.51722 4.49772L8.74444 4.32345H8.46355L8.37674 4.04143L8.28992 4.32345H8.00904ZM1.67756 5.74594L1.90486 5.92022L1.81805 6.20223L2.04527 6.02796L2.27256 6.20223L2.18575 5.92022L2.41297 5.74594H2.13208L2.04527 5.46401L1.95845 5.74594H1.67756ZM3.25928 5.74594L3.4865 5.92022L3.39968 6.20223L3.62698 6.02796L3.85428 6.20223L3.76746 5.92022L3.99468 5.74594H3.7138L3.62698 5.46401L3.54016 5.74594H3.25928ZM4.84099 5.74594L5.06821 5.92022L4.9814 6.20223L5.2087 6.02796L5.43592 6.20223L5.3491 5.92022L5.5764 5.74594H5.29551L5.2087 5.46401L5.12188 5.74594H4.84099ZM6.42263 5.74594L6.64993 5.92022L6.56311 6.20223L6.79033 6.02796L7.01763 6.20223L6.93081 5.92022L7.15803 5.74594H6.87715L6.79033 5.46401L6.70351 5.74594H6.42263ZM8.00434 5.74594L8.23156 5.92022L8.14475 6.20223L8.37205 6.02796L8.59927 6.20223L8.51253 5.92022L8.73975 5.74594H8.45886L8.37205 5.46401L8.28523 5.74594H8.00434Z" fill="white"/>
</g>
</g>
</g>
<defs>
<clipPath id="clip0_0_8115">
<rect x="0.484375" y="0.188965" width="20.1215" height="13.2487" rx="1.99866" fill="white"/>
</clipPath>
</defs>
</svg>