<svg width="89" height="89" viewBox="0 0 89 89" fill="none" xmlns="http://www.w3.org/2000/svg">
<circle opacity="0.8" cx="44.4794" cy="44.518" r="34.0735" stroke="#238FFF" stroke-width="2.72588"/>
<path d="M37.2227 39.6975C38.1832 39.1445 39.1226 38.6035 40.062 38.0625C41.428 37.2776 42.794 36.4938 44.158 35.7049C44.3316 35.6045 44.4701 35.5624 44.6698 35.6778C46.9421 36.9936 49.2205 38.2974 51.4968 39.6051C51.5399 39.6292 51.5761 39.6644 51.6433 39.7155C50.9397 40.1281 50.2522 40.5325 49.5637 40.935C47.9458 41.8825 46.3259 42.8279 44.709 43.7794C44.5364 43.8808 44.4009 43.9229 44.2001 43.8045C41.9399 42.4696 39.6716 41.1468 37.4063 39.8199C37.3531 39.7908 37.3029 39.7527 37.2227 39.6975Z" fill="#238FFF"/>
<path d="M57.4538 38.2329C57.9406 38.2329 58.4264 38.2329 58.9433 38.2329C58.9433 37.4812 58.9433 36.7395 58.9433 35.9536C58.8148 35.9446 58.6833 35.9325 58.5519 35.9255C57.3906 35.8683 56.4793 34.956 56.4462 33.7947C56.4281 33.1695 56.4291 32.5432 56.4462 31.9179C56.4753 30.8309 57.2832 29.9216 58.3732 29.8222C59.0928 29.756 59.8255 29.754 60.5461 29.8062C61.7375 29.8925 62.5555 30.7326 62.6518 31.958C62.705 32.6415 62.701 33.3361 62.6498 34.0206C62.5605 35.2029 61.7044 35.9988 60.51 36.0821C60.4247 36.0881 60.3394 36.0961 60.2059 36.1072C60.2059 36.7555 60.2059 37.3889 60.2059 38.0222C60.2059 38.3223 60.2109 38.6224 60.2049 38.9225C60.1949 39.3952 59.9871 39.615 59.5174 39.624C58.9292 39.6351 58.3411 39.6381 57.7539 39.622C57.5241 39.616 57.4017 39.6953 57.2852 39.895C56.7031 40.8987 55.7837 41.3343 54.7791 41.1074C53.7533 40.8756 53.0447 39.9643 53.0588 38.8944C53.0729 37.8385 53.8356 36.9302 54.8614 36.7465C55.9724 36.5478 56.961 37.0637 57.3705 38.0543C57.3946 38.1125 57.4237 38.1677 57.4538 38.2329Z" fill="#238FFF"/>
<path d="M58.8779 53.2369C58.8779 52.458 58.8779 51.7123 58.8779 50.9385C58.4192 50.9385 57.9816 50.9214 57.547 50.9505C57.4356 50.9575 57.2991 51.087 57.2318 51.1954C56.72 52.0224 56.0345 52.5373 55.0158 52.461C53.7371 52.3657 52.8448 51.2305 53.0024 49.9157C53.1429 48.7465 54.3333 47.8572 55.5276 48.0349C56.3526 48.1573 56.9739 48.5528 57.3051 49.3537C57.3453 49.452 57.5189 49.5484 57.6333 49.5524C58.2215 49.5725 58.8096 49.5574 59.3988 49.5635C59.9177 49.5695 60.1294 49.7782 60.1324 50.2941C60.1375 51.2075 60.1334 52.1208 60.1334 53.0693C60.2559 53.0823 60.3623 53.0984 60.4697 53.1044C61.5777 53.1686 62.4298 53.9133 62.5372 55.0154C62.6125 55.7962 62.6235 56.5931 62.5673 57.376C62.488 58.469 61.7042 59.2699 60.6132 59.3673C59.8574 59.4345 59.0836 59.4285 58.3289 59.3552C57.279 59.2518 56.4871 58.3395 56.453 57.2877C56.4339 56.6875 56.4379 56.0853 56.448 55.4851C56.4681 54.2285 57.3553 53.3212 58.6159 53.2569C58.6882 53.2529 58.7624 53.2459 58.8779 53.2369Z" fill="#238FFF"/>
<path d="M29.918 35.7963C29.918 36.551 29.918 37.2958 29.918 38.0897C30.3807 38.0897 30.8394 38.1047 31.2951 38.0776C31.3924 38.0716 31.5048 37.9311 31.5691 37.8267C32.106 36.9565 32.8347 36.4517 33.8996 36.5842C34.9203 36.7116 35.8347 37.7093 35.8808 38.736C35.927 39.7568 35.2144 40.6952 34.2037 40.9441C33.0967 41.2161 32.0277 40.7193 31.5932 39.7136C31.5159 39.5349 31.4296 39.4687 31.2369 39.4717C30.6738 39.4828 30.1107 39.4787 29.5477 39.4747C28.9345 39.4697 28.7377 39.272 28.7357 38.6648C28.7337 37.8889 28.7347 37.1131 28.7347 36.3373C28.7347 36.2158 28.7347 36.0944 28.7347 35.9579C28.4748 35.9318 28.249 35.9298 28.0332 35.8846C27.1409 35.6979 26.4072 34.9723 26.3289 34.062C26.2587 33.244 26.2597 32.4099 26.335 31.5929C26.4213 30.6525 27.2071 29.9058 28.1566 29.8285C28.9134 29.7673 29.6842 29.7623 30.441 29.8255C31.4838 29.9128 32.2987 30.8271 32.3389 31.872C32.361 32.434 32.3549 32.9981 32.3449 33.5611C32.3228 34.7956 31.4316 35.71 30.2011 35.7742C30.1158 35.7782 30.0295 35.7873 29.918 35.7963Z" fill="#238FFF"/>
<path d="M28.735 53.0815C28.735 52.1572 28.734 51.2699 28.735 50.3827C28.736 49.7484 28.9237 49.5637 29.568 49.5617C30.106 49.5597 30.6449 49.5727 31.1829 49.5516C31.3023 49.5466 31.4398 49.4463 31.5272 49.3509C31.6687 49.1953 31.762 48.9966 31.8995 48.836C32.9303 47.6296 34.7048 47.7782 35.5308 49.1361C36.2946 50.3917 35.3973 52.119 33.8908 52.2957C32.7296 52.4312 31.9557 51.9675 31.4037 50.7982C30.9209 50.7982 30.4342 50.7982 29.9193 50.7982C29.9193 51.5509 29.9193 52.2947 29.9193 53.0775C30.0548 53.0865 30.1863 53.0976 30.3187 53.1046C31.48 53.1658 32.3843 54.0772 32.4184 55.2444C32.4355 55.8326 32.4315 56.4207 32.4224 57.0089C32.4024 58.2072 31.5984 59.1176 30.4041 59.2209C29.7206 59.2802 29.026 59.2772 28.3415 59.227C27.2034 59.1447 26.3914 58.3407 26.2961 57.1955C26.2399 56.5121 26.2399 55.8165 26.2961 55.133C26.3914 53.9668 27.2586 53.1709 28.4238 53.1016C28.5101 53.0986 28.5965 53.0916 28.735 53.0815Z" fill="#238FFF"/>
<path d="M36.0673 41.7954C36.9997 42.3314 37.8759 42.8342 38.7511 43.337C40.1713 44.152 41.5904 44.969 43.0126 45.781C43.1873 45.8803 43.2917 45.9817 43.2907 46.2125C43.2796 48.2901 43.2846 50.3667 43.2836 52.4443C43.2836 52.5045 43.2746 52.5637 43.2666 52.6631C43.1562 52.6149 43.0668 52.5848 42.9865 52.5386C40.7644 51.263 38.5433 49.9843 36.3192 48.7127C36.1426 48.6123 36.0342 48.518 36.0352 48.2871C36.0452 46.2095 36.0412 44.1329 36.0422 42.0554C36.0432 41.9951 36.0542 41.9349 36.0673 41.7954Z" fill="#238FFF"/>
<path d="M45.5794 52.6959C45.5794 51.633 45.5794 50.6464 45.5794 49.6588C45.5794 48.5196 45.5734 47.3815 45.5874 46.2423C45.5894 46.1058 45.6637 45.9061 45.7681 45.8459C48.0595 44.514 50.3589 43.1982 52.6583 41.8804C52.6884 41.8633 52.7265 41.8623 52.8018 41.8442C52.8098 41.9767 52.8219 42.0952 52.8219 42.2126C52.8229 44.2018 52.8168 46.1921 52.8289 48.1814C52.8309 48.4544 52.7466 48.6059 52.5087 48.7414C50.3247 49.984 48.1488 51.2385 45.9698 52.4891C45.8634 52.5503 45.754 52.6035 45.5794 52.6959Z" fill="#238FFF"/>
<path d="M43.8237 57.2274C43.8237 56.5239 43.8217 55.8394 43.8247 55.1539C43.8267 54.651 44.0144 54.4122 44.4058 54.4021C44.8063 54.3921 45.0401 54.6621 45.0431 55.1519C45.0471 55.8374 45.0441 56.5229 45.0441 57.2154C45.2981 57.2465 45.5219 57.2576 45.7377 57.3037C46.7724 57.5265 47.4861 58.3847 47.5091 59.4395C47.5222 60.0277 47.5222 60.6158 47.5091 61.204C47.483 62.3993 46.5697 63.3448 45.3723 63.397C44.7481 63.4241 44.1208 63.4221 43.4955 63.397C42.3041 63.3488 41.3858 62.3983 41.3587 61.205C41.3466 60.655 41.3527 60.1039 41.3567 59.5529C41.3667 58.2401 42.264 57.3097 43.5748 57.2485C43.646 57.2455 43.7173 57.2365 43.8237 57.2274Z" fill="#238FFF"/>
<path d="M43.8175 31.7434C43.5154 31.7002 43.2525 31.6862 43.0005 31.623C42.0461 31.3841 41.3666 30.5249 41.3505 29.5454C41.3415 28.9823 41.3415 28.4193 41.3505 27.8562C41.3706 26.6097 42.3211 25.6552 43.5706 25.6281C44.1457 25.616 44.7218 25.615 45.2979 25.6281C46.5264 25.6562 47.4749 26.6046 47.503 27.8331C47.515 28.346 47.508 28.8599 47.505 29.3727C47.497 30.7297 46.6017 31.648 45.2377 31.7053C45.1885 31.7073 45.1384 31.7143 45.037 31.7243C45.037 32.1439 45.037 32.5654 45.037 32.9859C45.037 33.274 45.04 33.562 45.036 33.8491C45.029 34.3138 44.8282 34.5486 44.4418 34.5517C44.0534 34.5547 43.8226 34.2907 43.8185 33.826C43.8135 33.2629 43.8175 32.6999 43.8175 32.1358C43.8175 32.0134 43.8175 31.8889 43.8175 31.7434Z" fill="#238FFF"/>
<circle cx="44.4734" cy="44.5178" r="41.3425" stroke="#238FFF" stroke-width="4.54313"/>
</svg>
