<svg width="25" height="26" viewBox="0 0 25 26" fill="none" xmlns="http://www.w3.org/2000/svg">
<circle cx="12.322" cy="13.2542" r="12.322" fill="#F0F8FF"/>
<g clip-path="url(#clip0_58_9074)">
<path d="M9.625 11.2002C9.98228 10.9945 10.3317 10.7933 10.6812 10.5921C11.1893 10.3001 11.6974 10.0085 12.2047 9.7151C12.2693 9.67776 12.3208 9.66208 12.3951 9.70502C13.2403 10.1945 14.0878 10.6794 14.9345 11.1659C14.9506 11.1748 14.964 11.1879 14.989 11.2069C14.7273 11.3604 14.4716 11.5108 14.2155 11.6605C13.6137 12.013 13.0111 12.3646 12.4097 12.7185C12.3455 12.7563 12.2951 12.7719 12.2204 12.7279C11.3797 12.2313 10.5359 11.7393 9.69332 11.2458C9.67353 11.2349 9.65487 11.2207 9.625 11.2002Z" fill="#238FFF"/>
<path d="M17.1505 10.6554C17.3316 10.6554 17.5123 10.6554 17.7045 10.6554C17.7045 10.3758 17.7045 10.0999 17.7045 9.80761C17.6568 9.80425 17.6078 9.79977 17.5589 9.79716C17.127 9.77588 16.788 9.43652 16.7757 9.00457C16.769 8.77199 16.7693 8.53903 16.7757 8.30644C16.7865 7.90213 17.0871 7.56389 17.4925 7.52693C17.7602 7.50229 18.0327 7.50154 18.3008 7.52095C18.7439 7.55306 19.0482 7.86554 19.084 8.32138C19.1038 8.57561 19.1023 8.83396 19.0833 9.08857C19.05 9.52836 18.7316 9.82441 18.2873 9.85539C18.2556 9.85763 18.2238 9.86062 18.1742 9.86473C18.1742 10.1059 18.1742 10.3415 18.1742 10.577C18.1742 10.6887 18.1761 10.8003 18.1738 10.9119C18.1701 11.0878 18.0928 11.1695 17.9181 11.1729C17.6993 11.177 17.4805 11.1781 17.2621 11.1721C17.1767 11.1699 17.1311 11.1994 17.0878 11.2737C16.8713 11.647 16.5293 11.809 16.1556 11.7247C15.774 11.6384 15.5105 11.2994 15.5157 10.9015C15.5209 10.5087 15.8047 10.1709 16.1862 10.1025C16.5995 10.0286 16.9672 10.2205 17.1195 10.589C17.1285 10.6106 17.1393 10.6312 17.1505 10.6554Z" fill="#238FFF"/>
<path d="M17.6844 16.2369C17.6844 15.9472 17.6844 15.6698 17.6844 15.3819C17.5138 15.3819 17.351 15.3756 17.1893 15.3864C17.1479 15.389 17.0971 15.4372 17.0721 15.4775C16.8817 15.7851 16.6267 15.9767 16.2478 15.9483C15.7722 15.9128 15.4403 15.4906 15.4989 15.0015C15.5512 14.5666 15.9939 14.2358 16.4382 14.3019C16.7451 14.3474 16.9762 14.4945 17.0994 14.7924C17.1143 14.829 17.1789 14.8649 17.2214 14.8664C17.4402 14.8738 17.659 14.8682 17.8781 14.8705C18.0711 14.8727 18.1499 14.9504 18.151 15.1423C18.1529 15.482 18.1514 15.8217 18.1514 16.1745C18.197 16.1794 18.2365 16.1853 18.2765 16.1876C18.6886 16.2115 19.0056 16.4885 19.0455 16.8984C19.0735 17.1889 19.0776 17.4853 19.0567 17.7765C19.0272 18.183 18.7357 18.481 18.3299 18.5172C18.0487 18.5422 17.7609 18.5399 17.4802 18.5127C17.0897 18.4742 16.7951 18.1349 16.7824 17.7436C16.7753 17.5204 16.7768 17.2964 16.7805 17.0731C16.788 16.6057 17.118 16.2682 17.5869 16.2443C17.6138 16.2428 17.6414 16.2402 17.6844 16.2369Z" fill="#238FFF"/>
<path d="M6.90891 9.749C6.90891 10.0297 6.90891 10.3068 6.90891 10.6021C7.08102 10.6021 7.25163 10.6077 7.42112 10.5976C7.45734 10.5953 7.49915 10.5431 7.52304 10.5042C7.72277 10.1806 7.99381 9.99278 8.38992 10.0421C8.7696 10.0895 9.1097 10.4606 9.12687 10.8425C9.14405 11.2222 8.87898 11.5712 8.50304 11.6638C8.09125 11.765 7.69365 11.5802 7.532 11.2061C7.50326 11.1397 7.47115 11.115 7.39947 11.1161C7.19003 11.1202 6.98059 11.1187 6.77115 11.1173C6.54305 11.1154 6.46987 11.0418 6.46913 10.816C6.46838 10.5274 6.46875 10.2388 6.46875 9.95022C6.46875 9.90505 6.46875 9.85988 6.46875 9.8091C6.37206 9.7994 6.28806 9.79865 6.2078 9.78185C5.8759 9.71241 5.603 9.44249 5.57388 9.10388C5.54775 8.79962 5.54812 8.48938 5.57612 8.18549C5.60823 7.83567 5.90054 7.55791 6.25372 7.52917C6.53521 7.5064 6.82193 7.50453 7.10342 7.52805C7.49131 7.56053 7.79445 7.90063 7.80939 8.28927C7.8176 8.49834 7.81536 8.70815 7.81163 8.91759C7.80341 9.37679 7.4719 9.71689 7.01419 9.74078C6.98246 9.74228 6.95035 9.74564 6.90891 9.749Z" fill="#238FFF"/>
<path d="M6.46975 16.1782C6.46975 15.8344 6.46938 15.5044 6.46975 15.1744C6.47012 14.9384 6.53994 14.8697 6.77962 14.869C6.97972 14.8682 7.1802 14.8731 7.38031 14.8652C7.42473 14.8634 7.47588 14.826 7.50836 14.7906C7.561 14.7327 7.59572 14.6588 7.64686 14.5991C8.03028 14.1503 8.69033 14.2056 8.99758 14.7107C9.28168 15.1777 8.94792 15.8202 8.38755 15.8859C7.95561 15.9363 7.66777 15.7638 7.46244 15.3289C7.28287 15.3289 7.1018 15.3289 6.91028 15.3289C6.91028 15.6089 6.91028 15.8856 6.91028 16.1767C6.96068 16.1801 7.00959 16.1842 7.05887 16.1868C7.49081 16.2096 7.82718 16.5486 7.83988 16.9828C7.84622 17.2015 7.84473 17.4203 7.84137 17.6391C7.8339 18.0848 7.53486 18.4235 7.0906 18.4619C6.83636 18.4839 6.57802 18.4828 6.3234 18.4642C5.90005 18.4335 5.59802 18.1345 5.56255 17.7085C5.54165 17.4543 5.54165 17.1956 5.56255 16.9413C5.59802 16.5075 5.92058 16.2115 6.35402 16.1857C6.38612 16.1846 6.41823 16.182 6.46975 16.1782Z" fill="#238FFF"/>
<path d="M9.19945 11.981C9.54627 12.1803 9.87219 12.3674 10.1977 12.5544C10.726 12.8575 11.2539 13.1614 11.7829 13.4635C11.8479 13.5004 11.8867 13.5381 11.8863 13.624C11.8822 14.3968 11.8841 15.1692 11.8837 15.942C11.8837 15.9644 11.8803 15.9864 11.8774 16.0234C11.8363 16.0055 11.8031 15.9943 11.7732 15.9771C10.9466 15.5026 10.1205 15.027 9.29316 14.554C9.22745 14.5166 9.18713 14.4815 9.1875 14.3957C9.19124 13.6229 9.18974 12.8504 9.19012 12.0776C9.19049 12.0552 9.1946 12.0329 9.19945 11.981Z" fill="#238FFF"/>
<path d="M12.7349 16.035C12.7349 15.6396 12.7349 15.2727 12.7349 14.9053C12.7349 14.4816 12.7326 14.0582 12.7378 13.6345C12.7386 13.5837 12.7662 13.5094 12.805 13.487C13.6574 12.9916 14.5127 12.5022 15.368 12.012C15.3792 12.0056 15.3933 12.0053 15.4213 11.9985C15.4243 12.0478 15.4288 12.0919 15.4288 12.1355C15.4292 12.8755 15.4269 13.6158 15.4314 14.3557C15.4322 14.4573 15.4008 14.5137 15.3123 14.5641C14.5 15.0263 13.6906 15.4929 12.8801 15.9581C12.8405 15.9809 12.7998 16.0006 12.7349 16.035Z" fill="#238FFF"/>
<path d="M12.0836 17.7214C12.0836 17.4597 12.0829 17.2051 12.084 16.9501C12.0847 16.7631 12.1545 16.6742 12.3001 16.6705C12.4491 16.6668 12.5361 16.7672 12.5372 16.9494C12.5387 17.2044 12.5376 17.4594 12.5376 17.717C12.632 17.7285 12.7153 17.7326 12.7956 17.7498C13.1805 17.8327 13.4459 18.1519 13.4545 18.5443C13.4593 18.763 13.4593 18.9818 13.4545 19.2006C13.4448 19.6452 13.105 19.9969 12.6597 20.0163C12.4274 20.0264 12.1941 20.0256 11.9615 20.0163C11.5184 19.9984 11.1768 19.6448 11.1667 19.201C11.1622 18.9964 11.1645 18.7914 11.166 18.5864C11.1697 18.0981 11.5035 17.7521 11.991 17.7293C12.0175 17.7282 12.044 17.7248 12.0836 17.7214Z" fill="#238FFF"/>
<path d="M12.0803 8.24159C11.968 8.22554 11.8701 8.22031 11.7764 8.19679C11.4214 8.10794 11.1686 7.78836 11.1627 7.42399C11.1593 7.21455 11.1593 7.00511 11.1627 6.79568C11.1701 6.332 11.5237 5.97696 11.9885 5.96688C12.2024 5.9624 12.4167 5.96203 12.631 5.96688C13.0879 5.97733 13.4407 6.33013 13.4512 6.78709C13.4557 6.97786 13.4531 7.16901 13.4519 7.35978C13.449 7.86452 13.1159 8.20612 12.6086 8.2274C12.5903 8.22815 12.5716 8.23076 12.5339 8.2345C12.5339 8.39055 12.5339 8.54735 12.5339 8.70377C12.5339 8.81092 12.535 8.91806 12.5335 9.02484C12.5309 9.19769 12.4563 9.28505 12.3125 9.28617C12.1681 9.28729 12.0822 9.1891 12.0807 9.01625C12.0788 8.80681 12.0803 8.59737 12.0803 8.38756C12.0803 8.34201 12.0803 8.29572 12.0803 8.24159Z" fill="#238FFF"/>
</g>
<defs>
<clipPath id="clip0_58_9074">
<rect width="13.5534" height="14.0597" fill="white" transform="translate(5.54688 6.2251)"/>
</clipPath>
</defs>
</svg>
