<svg width="107" height="108" viewBox="0 0 107 108" fill="none" xmlns="http://www.w3.org/2000/svg">
<path d="M99.3003 46.6939C103.407 71.997 86.2236 95.8381 60.9206 99.9446C35.6176 104.051 11.7764 86.868 7.66989 61.565C3.56337 36.2619 20.7465 12.4208 46.0496 8.31424C71.3526 4.20772 95.1938 21.3909 99.3003 46.6939Z" fill="#5EC0DF"/>
<g filter="url(#filter0_d_3258_41409)">
<path d="M91.1923 48.0098C94.5721 68.8349 80.4298 88.4569 59.6047 91.8367C38.7796 95.2164 19.1576 81.0742 15.7778 60.2491C12.3981 39.424 26.5403 19.802 47.3654 16.4222C68.1905 13.0424 87.8125 27.1847 91.1923 48.0098Z" fill="white"/>
</g>
<g clip-path="url(#clip0_3258_41409)">
<path d="M50.971 72.1292C50.1863 71.9231 49.4747 71.5892 48.9788 70.917C48.7684 70.6316 48.6019 70.3135 48.3853 69.962C51.8252 69.962 55.178 69.962 58.5687 69.962C58.16 70.9752 57.4872 71.6641 56.4621 71.9927C56.3194 72.0385 56.1758 72.0843 56.0332 72.1292C54.3458 72.1292 52.6584 72.1292 50.971 72.1292Z" fill="#5CBAD8"/>
<path d="M35.5 49.6202C35.7792 49.0124 36.2574 48.7956 36.9126 48.8388C37.4719 48.8758 38.0346 48.8414 38.5965 48.8476C39.2509 48.8547 39.7159 49.2969 39.7159 49.8995C39.7167 50.5012 39.2509 50.9461 38.5974 50.954C38.0364 50.9611 37.4727 50.9276 36.9135 50.9628C36.26 51.0051 35.7809 50.7884 35.5 50.1832C35.5 49.9955 35.5 49.8079 35.5 49.6202Z" fill="#5CBAD8"/>
<path d="M60.9637 61.4925C59.898 61.4925 58.835 61.4925 57.7201 61.4925C57.7201 61.356 57.7201 61.2212 57.7201 61.0855C57.7201 58.1907 57.7254 55.2949 57.7121 52.4C57.7104 52.1058 57.6575 51.7842 57.5316 51.5217C56.5267 49.4338 55.5007 47.3565 54.4765 45.2783C54.2766 44.8721 53.9366 44.6783 53.4822 44.6836C53.0418 44.6889 52.7169 44.8889 52.524 45.28C51.505 47.3477 50.4834 49.4144 49.4847 51.4918C49.3535 51.7649 49.2919 52.097 49.291 52.4027C49.2769 55.2976 49.2822 58.1933 49.2822 61.0882C49.2822 61.215 49.2822 61.3419 49.2822 61.4873C48.1831 61.4873 47.1122 61.4873 46.0659 61.4873C45.8862 60.875 45.7436 60.2724 45.5331 59.6927C45.1773 58.7122 44.5793 57.8753 43.9082 57.0824C40.0296 52.5005 39.7822 46.0333 43.3639 41.2329C45.6159 38.2146 48.6428 36.48 52.4262 36.1726C58.8007 35.6545 64.4679 39.7951 65.8392 46.0412C66.6996 49.9624 65.8665 53.555 63.3768 56.7221C62.5251 57.8057 61.6911 58.8849 61.2948 60.2301C61.175 60.6345 61.0799 61.0441 60.9637 61.4925Z" fill="#5CBAD8"/>
<path d="M60.8748 63.6421C60.8941 64.4632 60.947 65.2666 60.5771 66.0075C59.9835 67.1959 58.998 67.8197 57.6805 67.8311C54.8931 67.8549 52.1048 67.8558 49.3166 67.832C47.542 67.817 46.2465 66.5563 46.1267 64.7856C46.102 64.4138 46.1232 64.0394 46.1232 63.6421C51.0392 63.6421 55.9394 63.6421 60.8748 63.6421Z" fill="#5CBAD8"/>
<path d="M51.418 53.6845C52.8165 54.1329 54.1992 54.1355 55.5951 53.6801C55.5951 56.3036 55.5951 58.8884 55.5951 61.4907C54.2001 61.4907 52.8218 61.4907 51.418 61.4907C51.418 58.906 51.418 56.3221 51.418 53.6845Z" fill="#5CBAD8"/>
<path d="M38.2789 45.3751C38.1468 45.3047 37.8694 45.2157 37.6739 45.0377C37.171 44.5823 36.6972 44.0942 36.2269 43.6044C35.7716 43.1304 35.7725 42.4838 36.2075 42.0662C36.632 41.6583 37.2564 41.6715 37.7197 42.12C38.2164 42.6001 38.7061 43.0881 39.1816 43.5885C39.5022 43.9251 39.5691 44.3312 39.3745 44.7585C39.1896 45.1593 38.8558 45.347 38.2789 45.3751Z" fill="#5CBAD8"/>
<path d="M71.1295 42.9615C71.0538 43.1024 70.9604 43.3905 70.7755 43.5949C70.3202 44.0979 69.8305 44.571 69.3391 45.0397C68.8803 45.4775 68.24 45.4731 67.8278 45.0538C67.4236 44.6424 67.4157 44.016 67.8419 43.5676C68.3254 43.0584 68.8257 42.5642 69.3321 42.077C69.6676 41.7545 70.0718 41.6814 70.4998 41.8717C70.9023 42.0497 71.0934 42.3818 71.1295 42.9615Z" fill="#5CBAD8"/>
<path d="M37.0358 58.0341C36.5118 58.0103 36.1868 57.828 35.9983 57.4474C35.8107 57.0695 35.8151 56.6677 36.0987 56.3594C36.6447 55.7656 37.2137 55.1886 37.8108 54.6468C38.1895 54.3041 38.7928 54.3772 39.1574 54.7314C39.5211 55.0846 39.618 55.6943 39.2789 56.074C38.7267 56.6924 38.1243 57.2686 37.5184 57.8359C37.3792 57.9672 37.1406 57.9936 37.0358 58.0341Z" fill="#5CBAD8"/>
<path d="M71.1274 56.8718C71.0939 57.4127 70.9081 57.7369 70.525 57.9193C70.1454 58.0999 69.7474 58.0902 69.4382 57.8048C68.8543 57.2647 68.2854 56.7053 67.7517 56.1159C67.395 55.7213 67.4646 55.1125 67.8336 54.7425C68.2123 54.3628 68.8306 54.3082 69.2348 54.68C69.8028 55.2024 70.3471 55.7539 70.8702 56.3212C71.0244 56.4877 71.0737 56.752 71.1274 56.8718Z" fill="#5CBAD8"/>
<path d="M69.3901 48.848C69.7415 48.848 70.0938 48.8392 70.4452 48.8498C71.0493 48.8683 71.4985 49.3202 71.4994 49.899C71.5002 50.4761 71.0529 50.9395 70.4496 50.9527C69.7468 50.9677 69.0431 50.9668 68.3403 50.9527C67.7353 50.9404 67.287 50.4796 67.2861 49.9034C67.2853 49.3255 67.7335 48.8692 68.3359 48.8507C68.6873 48.8392 69.0387 48.848 69.3901 48.848Z" fill="#5CBAD8"/>
<path d="M55.2417 51.5187C54.0722 51.9847 52.9466 51.9847 51.7656 51.5204C52.339 50.3716 52.8991 49.2493 53.5015 48.0424C54.0968 49.2326 54.6605 50.3584 55.2417 51.5187Z" fill="#5CBAD8"/>
</g>
<defs>
<filter id="filter0_d_3258_41409" x="7.37881" y="12.0231" width="92.2126" height="92.2127" filterUnits="userSpaceOnUse" color-interpolation-filters="sRGB">
<feFlood flood-opacity="0" result="BackgroundImageFix"/>
<feColorMatrix in="SourceAlpha" type="matrix" values="0 0 0 0 0 0 0 0 0 0 0 0 0 0 0 0 0 0 127 0" result="hardAlpha"/>
<feOffset dy="4"/>
<feGaussianBlur stdDeviation="3.95"/>
<feComposite in2="hardAlpha" operator="out"/>
<feColorMatrix type="matrix" values="0 0 0 0 0 0 0 0 0 0 0 0 0 0 0 0 0 0 0.25 0"/>
<feBlend mode="normal" in2="BackgroundImageFix" result="effect1_dropShadow_3258_41409"/>
<feBlend mode="normal" in="SourceGraphic" in2="effect1_dropShadow_3258_41409" result="shape"/>
</filter>
<clipPath id="clip0_3258_41409">
<rect width="36" height="36" fill="white" transform="translate(35.5 36.1295)"/>
</clipPath>
</defs>
</svg>
