<svg width="75" height="76" viewBox="0 0 75 76" fill="none" xmlns="http://www.w3.org/2000/svg">
<path d="M23.6273 12.042H14.2942C13.0056 12.042 11.9609 13.0866 11.9609 14.3753V61.0406C11.9609 62.3292 13.0056 63.3738 14.2942 63.3738H23.6273C24.9159 63.3738 25.9605 62.3292 25.9605 61.0406V14.3753C25.9605 13.0866 24.9159 12.042 23.6273 12.042Z" stroke="#238FFF" stroke-width="2.43475" stroke-linecap="round" stroke-linejoin="round"/>
<path d="M11.9609 23.7085H25.9605" stroke="#238FFF" stroke-width="2.43475" stroke-linecap="round" stroke-linejoin="round"/>
<path d="M37.6253 12.042H28.2923C27.0036 12.042 25.959 13.0866 25.959 14.3753V61.0406C25.959 62.3292 27.0036 63.3738 28.2923 63.3738H37.6253C38.9139 63.3738 39.9586 62.3292 39.9586 61.0406V14.3753C39.9586 13.0866 38.9139 12.042 37.6253 12.042Z" stroke="#238FFF" stroke-width="2.43475" stroke-linecap="round" stroke-linejoin="round"/>
<path d="M25.959 51.708H39.9586" stroke="#238FFF" stroke-width="2.43475" stroke-linecap="round" stroke-linejoin="round"/>
<path d="M51.4941 11.2788L42.441 13.7054C41.191 14.0404 40.4493 15.3253 40.7844 16.5753L52.9174 61.8406C53.2524 63.0906 54.5373 63.8323 55.7873 63.4973L64.8404 61.0707C66.0903 60.7356 66.832 59.4507 66.497 58.2007L54.364 12.9354C54.0289 11.6854 52.744 10.9437 51.4941 11.2788Z" stroke="#238FFF" stroke-width="2.43475" stroke-linecap="round" stroke-linejoin="round"/>
<path d="M50.2227 52.6418L63.7556 48.9961" stroke="#238FFF" stroke-width="2.43475" stroke-linecap="round" stroke-linejoin="round"/>
<path d="M42.9961 25.5751L56.529 21.9585" stroke="#238FFF" stroke-width="2.43475" stroke-linecap="round" stroke-linejoin="round"/>
</svg>
