<svg width="107" height="108" viewBox="0 0 107 108" fill="none" xmlns="http://www.w3.org/2000/svg">
<path d="M99.1157 46.5111C103.222 71.8141 86.0391 95.6553 60.736 99.7618C35.433 103.868 11.5918 86.6851 7.48532 61.3821C3.3788 36.0791 20.562 12.2379 45.865 8.13138C71.1681 4.02486 95.0092 21.208 99.1157 46.5111Z" fill="#9E4848"/>
<g filter="url(#filter0_d_2085_7651)">
<path d="M91.3285 47.8269C94.7083 68.6521 80.5661 88.274 59.7409 91.6538C38.9158 95.0336 19.2939 80.8913 15.9141 60.0662C12.5343 39.2411 26.6765 19.6192 47.5017 16.2394C68.3268 12.8596 87.9487 27.0018 91.3285 47.8269Z" fill="white"/>
</g>
<g clip-path="url(#clip0_2085_7651)">
<path d="M57.532 65.96C55.1542 65.1435 52.8369 65.142 50.4746 65.9571C50.4746 65.8561 50.4746 65.7061 50.4746 65.5575C50.4746 63.4254 50.4296 61.2933 50.4872 59.1626C50.5392 57.2267 49.8197 55.7625 48.2795 54.6633C47.1047 53.8251 46.0816 52.8096 45.4661 51.4565C43.9217 48.0635 44.5892 42.9049 49.304 41.1133C49.9813 40.8551 50.3678 41.1392 50.3692 41.8894C50.372 43.4704 50.379 45.0515 50.3621 46.6325C50.3593 46.9311 50.4591 47.0768 50.7079 47.2153C52.917 48.4429 55.1149 48.4343 57.3198 47.2067C57.5573 47.0739 57.643 46.9297 57.6402 46.6484C57.6247 45.0673 57.6317 43.4863 57.6331 41.9052C57.6345 41.1291 58.0126 40.8594 58.7222 41.1234C61.4822 42.1476 63.1911 44.7269 63.2613 47.7447C63.326 50.5491 62.2285 52.7057 60.1051 54.3805C59.8647 54.5695 59.6216 54.7542 59.3813 54.9417C58.1643 55.8923 57.5277 57.1402 57.5292 58.7226C57.532 60.9961 57.5292 63.2682 57.5292 65.5416C57.532 65.6917 57.532 65.846 57.532 65.96Z" fill="#9F4848"/>
<path d="M40.8121 50.4641C41.7775 50.6891 42.1162 51.1233 42.1162 52.123C42.1162 54.6792 42.1176 57.2355 42.1162 59.7917C42.1162 60.8072 41.6019 61.3468 40.6224 61.3395C40.0181 61.3352 39.4068 61.3583 38.8137 61.2645C36.9447 60.9688 35.5507 59.3214 35.5211 57.3869C35.5043 56.2444 35.4621 55.0918 35.5816 53.9608C35.7333 52.5226 36.5653 51.5056 37.8343 50.8925C38.0914 50.7684 38.1575 50.63 38.1603 50.3573C38.2629 43.2613 42.6151 37.2083 49.1961 34.9926C57.8794 32.0699 67.4396 37.6368 69.4182 46.8014C69.6726 47.9771 69.7218 49.2018 69.8412 50.4064C69.8651 50.6444 69.9171 50.7656 70.1392 50.8752C71.6695 51.6325 72.4734 52.8905 72.486 54.6388C72.4944 55.7525 72.538 56.8791 72.4017 57.9769C72.1684 59.8537 70.5397 61.2674 68.6959 61.3338C68.2013 61.3511 67.7052 61.3496 67.2105 61.3381C66.4643 61.3208 65.8966 60.7568 65.8938 59.9951C65.8839 57.2831 65.8853 54.5725 65.8924 51.8605C65.8952 51.1089 66.3125 50.6747 67.1782 50.4626C67.3201 43.9769 62.226 37.2819 54.5559 36.9559C46.696 36.6227 40.7643 43.1935 40.8121 50.4641Z" fill="#9F4848"/>
<path d="M57.9904 69.4406C62.8737 70.0104 65.867 66.4703 65.9176 62.7225C66.7748 62.7225 67.6321 62.7225 68.5258 62.7225C68.5272 64.054 68.2926 65.3235 67.7431 66.5049C66.061 70.1186 63.2574 72.0516 59.3507 72.1757C57.1528 72.2449 54.9507 72.1944 52.7514 72.1872C51.221 72.1829 50.0462 71.0043 50.042 69.4896C50.0378 67.9533 51.2154 66.7761 52.7697 66.7675C53.5665 66.7632 54.3647 66.7646 55.1615 66.7675C56.7312 66.7704 57.7683 67.721 57.9636 69.3295C57.9665 69.367 57.9819 69.4045 57.9904 69.4406Z" fill="#9F4848"/>
</g>
<defs>
<filter id="filter0_d_2085_7651" x="7.51504" y="11.8402" width="92.2126" height="92.2127" filterUnits="userSpaceOnUse" color-interpolation-filters="sRGB">
<feFlood flood-opacity="0" result="BackgroundImageFix"/>
<feColorMatrix in="SourceAlpha" type="matrix" values="0 0 0 0 0 0 0 0 0 0 0 0 0 0 0 0 0 0 127 0" result="hardAlpha"/>
<feOffset dy="4"/>
<feGaussianBlur stdDeviation="3.95"/>
<feComposite in2="hardAlpha" operator="out"/>
<feColorMatrix type="matrix" values="0 0 0 0 0 0 0 0 0 0 0 0 0 0 0 0 0 0 0.25 0"/>
<feBlend mode="normal" in2="BackgroundImageFix" result="effect1_dropShadow_2085_7651"/>
<feBlend mode="normal" in="SourceGraphic" in2="effect1_dropShadow_2085_7651" result="shape"/>
</filter>
<clipPath id="clip0_2085_7651">
<rect width="37" height="38" fill="white" transform="translate(35.5 34.2109)"/>
</clipPath>
</defs>
</svg>
