<svg width="55" height="55" viewBox="0 0 55 55" fill="none" xmlns="http://www.w3.org/2000/svg">
<path d="M24.4091 54.7881C24.4369 54.1689 24.4839 53.5968 24.4839 53.0247C24.4887 44.1645 24.4503 35.3043 24.5136 26.4441C24.529 24.2948 23.3671 22.6341 21.0605 22.5198C21.0769 22.4738 21.0817 22.4229 21.1085 22.3922C22.6887 20.5923 24.4359 18.9834 26.4844 17.7278C26.7089 17.5906 27.0188 17.5214 27.2846 17.5339C31.1991 17.7153 35.1128 17.7297 39.0274 17.5205C39.2893 17.5061 39.5954 17.6011 39.8218 17.7413C42.5764 19.4528 44.8091 21.7298 46.7481 24.2986C50.1974 28.8689 52.7083 33.9008 54.0103 39.4992C54.6445 42.2235 54.8373 44.9689 54.1225 47.7143C53.4538 50.2822 51.8659 52.0753 49.4548 53.1524C47.5032 54.024 45.4289 54.4128 43.3209 54.5779C37.0969 55.0655 30.8624 54.9052 24.6307 54.8083C24.553 54.8073 24.4743 54.7939 24.4091 54.7881ZM36.0674 33.0955C36.7055 33.0955 37.3253 33.0955 37.9461 33.0955C39.3785 33.0955 39.4313 33.0513 39.0638 31.6296C38.4987 29.441 36.9933 28.1681 34.9046 27.5182C34.5505 27.4078 34.4248 27.2619 34.445 26.8914C34.4776 26.2943 34.4536 25.6934 34.4536 25.0857C33.5575 25.0857 32.7496 25.0857 31.9466 25.0857C31.9235 25.1616 31.8986 25.2057 31.8976 25.2499C31.8928 25.6819 31.89 26.1138 31.889 26.5458C31.888 27.3195 31.889 27.3195 31.1358 27.5432C28.7189 28.2603 27.1924 30.1878 27.1406 32.5876C27.0888 34.975 28.5501 36.9486 30.965 37.7502C31.2653 37.85 31.5705 37.9326 31.8487 38.0161C31.8487 39.48 31.8487 40.9074 31.8487 42.3838C30.8125 41.9019 30.2406 41.1762 30.2905 40.054C29.2188 40.054 28.2047 40.054 27.1051 40.054C27.1598 40.5503 27.1569 41.0178 27.2682 41.4565C27.8305 43.6692 29.3464 44.9459 31.4544 45.5977C31.7854 45.6994 31.9168 45.829 31.8967 46.1851C31.864 46.7678 31.888 47.3534 31.888 47.9514C32.7765 47.9514 33.5834 47.9514 34.4546 47.9514C34.4546 47.5598 34.4546 47.1969 34.4546 46.8341C34.4546 45.8184 34.4546 45.8184 35.4083 45.4988C37.7666 44.7068 39.2154 42.7572 39.1982 40.4006C39.1799 38.0257 37.7273 36.1068 35.3603 35.3388C35.0734 35.2457 34.7798 35.1728 34.4862 35.0892C34.4862 33.6397 34.4862 32.2085 34.4862 30.7676C35.4822 31.1151 35.9139 31.7391 36.0674 33.0955Z" fill="#238FFF"/>
<path d="M22.2421 39.7956C22.2421 44.1777 22.2421 48.5608 22.2421 52.9429C22.2421 54.1188 21.7586 54.6103 20.5928 54.6103C14.4705 54.6113 8.34727 54.6113 2.22497 54.6103C1.12447 54.6103 0.616913 54.1044 0.615954 52.9938C0.614995 44.1979 0.614995 35.401 0.615954 26.6032C0.615954 25.4638 1.12351 24.955 2.24607 24.955C8.35303 24.9541 14.46 24.955 20.566 24.955C21.7595 24.955 22.2402 25.4427 22.2402 26.6483C22.2421 31.0314 22.2412 35.4135 22.2421 39.7956ZM11.4291 28.1996C9.01697 28.1996 6.60489 28.2073 4.19282 28.1929C3.7553 28.19 3.59795 28.3426 3.60371 28.7794C3.62194 30.106 3.62098 31.4327 3.60563 32.7583C3.60083 33.1778 3.76586 33.317 4.17459 33.3161C9.01505 33.3074 13.8546 33.3074 18.695 33.3161C19.1076 33.317 19.2649 33.1673 19.2602 32.7526C19.2448 31.4423 19.2563 30.132 19.2544 28.8207C19.2534 28.2457 19.2055 28.1996 18.6173 28.1996C16.2215 28.1986 13.8248 28.1996 11.4291 28.1996ZM17.4592 45.608C17.8574 45.608 18.2566 45.6052 18.6547 45.609C18.933 45.6119 19.0654 45.4785 19.0654 45.202C19.0644 44.4206 19.0635 43.6392 19.0663 42.8569C19.0673 42.5583 18.9234 42.4182 18.6279 42.4182C17.8469 42.4201 17.0659 42.4182 16.2839 42.4191C16.0095 42.4191 15.8771 42.5574 15.8771 42.8338C15.879 43.6152 15.88 44.3976 15.8752 45.179C15.8733 45.4794 16.0066 45.6167 16.3098 45.609C16.6936 45.6013 17.0764 45.608 17.4592 45.608ZM5.35856 39.8494C5.75673 39.8494 6.15587 39.8436 6.55404 39.8513C6.85531 39.8571 6.99251 39.7208 6.9906 39.4213C6.9858 38.6399 7.00787 37.8566 6.96853 37.0771C6.96085 36.9321 6.72099 36.6864 6.57803 36.6787C5.79895 36.6394 5.01699 36.6614 4.23503 36.6605C3.93952 36.6605 3.79848 36.8006 3.79944 37.1001C3.80328 37.8815 3.80136 38.6629 3.8004 39.4453C3.79944 39.7227 3.93184 39.8542 4.21009 39.8503C4.59291 39.8455 4.97573 39.8494 5.35856 39.8494ZM9.83923 38.2357C9.83923 38.6024 9.8517 38.9701 9.83539 39.3358C9.81908 39.6968 9.95148 39.8628 10.3324 39.8542C11.0654 39.8379 11.7994 39.8407 12.5324 39.8532C12.8711 39.859 13.0342 39.74 13.0294 39.3838C13.0179 38.6341 13.0208 37.8844 13.0285 37.1347C13.0313 36.8189 12.9066 36.6566 12.5794 36.6586C11.8138 36.6624 11.0491 36.6614 10.2835 36.6586C9.9582 36.6576 9.82676 36.817 9.83635 37.1347C9.84786 37.5014 9.83923 37.869 9.83923 38.2357ZM17.4602 39.8494C17.8584 39.8494 18.2575 39.8465 18.6557 39.8503C18.9349 39.8532 19.0654 39.7179 19.0644 39.4424C19.0635 38.661 19.0625 37.8796 19.0654 37.0973C19.0663 36.7978 18.9224 36.6595 18.6269 36.6605C17.8459 36.6624 17.0649 36.6605 16.283 36.6624C16.0105 36.6634 15.8761 36.7997 15.8771 37.0781C15.88 37.8594 15.8809 38.6408 15.8752 39.4232C15.8733 39.7246 16.0105 39.859 16.3108 39.8523C16.6946 39.8427 17.0774 39.8494 17.4602 39.8494ZM6.98772 44.0405C6.98772 43.6738 6.97524 43.3061 6.99156 42.9394C7.00787 42.5756 6.86395 42.4086 6.49168 42.4143C5.75865 42.4249 5.02467 42.4239 4.29164 42.4153C3.95391 42.4115 3.79272 42.5449 3.79752 42.8962C3.80807 43.6459 3.80519 44.3956 3.79848 45.1454C3.7956 45.4621 3.91841 45.6157 4.25038 45.6109C5.01603 45.6013 5.78168 45.6004 6.54637 45.6109C6.8841 45.6157 6.99827 45.4516 6.9906 45.1396C6.981 44.7748 6.98772 44.4072 6.98772 44.0405ZM6.98868 49.7915C6.98772 49.7915 6.98772 49.7915 6.98676 49.7915C6.98676 49.3921 7.02418 48.988 6.96853 48.5973C6.94646 48.4418 6.72195 48.2037 6.57899 48.196C5.79991 48.1567 5.01699 48.1788 4.23599 48.1768C3.94048 48.1759 3.79848 48.3151 3.8004 48.6155C3.80519 49.3969 3.80328 50.1793 3.80136 50.9607C3.8004 51.2381 3.9328 51.3705 4.21009 51.3705C4.99109 51.3686 5.77304 51.3667 6.55404 51.3715C6.85435 51.3734 6.99443 51.239 6.9906 50.9395C6.98484 50.5575 6.98868 50.1745 6.98868 49.7915ZM13.0256 49.8097C13.0256 49.4104 13.0227 49.012 13.0265 48.6126C13.0294 48.3122 12.8846 48.1759 12.5881 48.1768C11.8224 48.1788 11.0568 48.1797 10.2911 48.1759C9.96875 48.174 9.83251 48.3227 9.83635 48.6453C9.84499 49.4113 9.84019 50.1773 9.83827 50.9434C9.83731 51.2083 9.93901 51.3715 10.2278 51.3715C11.0251 51.3705 11.8224 51.3705 12.6197 51.3725C12.8989 51.3734 13.0275 51.2362 13.0256 50.9597C13.0237 50.5757 13.0256 50.1927 13.0256 49.8097ZM15.8781 49.7425C15.8781 50.1409 15.8819 50.5402 15.8771 50.9386C15.8733 51.239 16.0105 51.3744 16.3108 51.3725C17.0918 51.3667 17.8737 51.3686 18.6547 51.3715C18.933 51.3725 19.0654 51.2352 19.0654 50.9616C19.0654 50.1802 19.0635 49.3979 19.0663 48.6165C19.0673 48.3179 18.9253 48.1768 18.6298 48.1778C17.8488 48.1797 17.0659 48.1576 16.2868 48.197C16.1448 48.2037 15.9222 48.4408 15.8982 48.5963C15.8406 48.9707 15.879 49.3595 15.8781 49.7425ZM11.4022 45.608C11.8004 45.608 12.1995 45.6023 12.5977 45.61C12.9028 45.6157 13.0294 45.4717 13.0265 45.1732C13.0208 44.4072 13.0198 43.6421 13.0265 42.8761C13.0294 42.5506 12.8788 42.4134 12.5622 42.4153C11.8128 42.4201 11.0635 42.4201 10.3142 42.4163C10.0052 42.4143 9.83443 42.5315 9.83731 42.8645C9.84403 43.6306 9.84499 44.3956 9.83731 45.1617C9.83443 45.489 9.98027 45.6224 10.3026 45.6109C10.6682 45.5994 11.0357 45.609 11.4022 45.608Z" fill="#238FFF"/>
<path d="M28.0801 15.2146C27.7145 15.2166 27.4689 15.0889 27.2482 14.7817C25.2228 11.9643 23.1878 9.15072 21.7102 5.99253C21.3408 5.20346 21.0885 4.35104 20.8611 3.50725C20.7565 3.12232 20.793 2.67787 20.8534 2.27469C20.9292 1.77361 21.2583 1.51058 21.763 1.5413C22.1871 1.56722 22.6217 1.64786 23.0237 1.78513C23.7788 2.04239 24.509 2.37165 25.2583 2.64619C25.8119 2.84874 26.378 3.02152 26.9431 3.19143C27.9294 3.48901 28.8352 3.31335 29.6661 2.70763C30.1563 2.34957 30.6581 2.00783 31.1561 1.65842C32.4907 0.721517 33.8215 0.708078 35.1542 1.66609C35.6473 2.02031 36.1558 2.35341 36.6442 2.71435C37.4607 3.31911 38.3635 3.50149 39.3201 3.19527C40.4744 2.82666 41.6027 2.37837 42.7502 1.98863C43.2913 1.80529 43.844 1.61618 44.4062 1.54322C45.121 1.45011 45.5547 1.80433 45.5134 2.51852C45.4674 3.31911 45.3426 4.14369 45.0807 4.8982C44.4331 6.76624 43.4026 8.45093 42.3194 10.0934C41.264 11.6936 40.1376 13.2477 39.0534 14.8297C38.8836 15.0774 38.6917 15.1897 38.3875 15.1974C36.6461 15.2367 34.9047 15.2943 33.1633 15.3461C33.1623 15.3001 29.7745 15.206 28.0801 15.2146Z" fill="#238FFF"/>
<path d="M34.5178 42.6683C34.5178 41.3868 34.5169 40.112 34.5188 38.8381C34.5188 38.7316 34.5313 38.6241 34.538 38.5137C35.7498 38.7642 36.1882 39.7865 36.1796 40.5919C36.17 41.6267 35.5185 42.4686 34.5178 42.6683Z" fill="#238FFF"/>
<path d="M31.81 30.4316C31.81 31.8379 31.81 33.2078 31.81 34.5814C30.8189 34.3539 30.1914 33.563 30.1818 32.5473C30.1712 31.4857 30.7613 30.7004 31.81 30.4316Z" fill="#238FFF"/>
</svg>
