<svg width="50" height="48" viewBox="0 0 50 48" fill="none" xmlns="http://www.w3.org/2000/svg">
<g clip-path="url(#clip0_1322_7010)">
<path d="M42.2949 29.1666C39.9412 26.8369 37.641 24.5606 35.2583 22.2026C36.2032 22.2026 37.035 22.2026 37.8666 22.2026C38.0179 22.2026 38.1692 22.2038 38.3207 22.2042C39.1591 22.2058 39.1631 22.2052 39.0707 21.3478C38.8135 18.9652 38.0735 16.7544 36.7217 14.7702C34.9212 12.1276 32.4997 10.2932 29.4597 9.36852C28.1628 8.97412 26.7954 8.81487 25.3747 8.53176C25.3747 8.51837 25.3747 8.3867 25.3747 8.25503C25.3739 6.1767 25.383 4.09837 25.3634 2.02003C25.3598 1.63801 25.4817 1.56329 25.8349 1.57308C29.3357 1.66898 32.6085 2.57188 35.6553 4.31655C37.154 5.17469 38.5147 6.20727 39.7639 7.40448C42.2346 9.77232 44.0161 12.5771 45.116 15.8233C45.6833 17.4978 46.0618 19.2119 46.1409 20.986C46.1477 21.136 46.1965 21.2843 46.2042 21.4343C46.2441 22.2006 46.2415 22.2014 47.0188 22.2022C47.8964 22.203 48.7743 22.2024 49.7514 22.2024C47.229 24.558 44.7735 26.8515 42.2949 29.1666Z" fill="#238FFF"/>
<path d="M25.9516 32.3659C25.9516 33.503 25.9516 34.7385 25.9516 35.9711C29.3987 36.0758 35.6426 33.6788 38.103 26.999C39.4926 28.3751 40.8693 29.7387 42.2647 31.1203C43.4299 30.034 44.5637 28.9769 45.6975 27.9199C44.5328 32.4868 42.1051 36.2173 38.4601 39.1278C34.8173 42.0367 30.6375 43.5206 25.9604 43.7268C25.9604 45.1126 25.9604 46.4776 25.9604 47.8427C25.93 47.8569 25.8997 47.8711 25.8694 47.8852C23.3818 45.2075 20.8942 42.5298 18.4062 39.8516C20.937 37.3409 23.4546 34.8432 25.9516 32.3659Z" fill="#238FFF"/>
<path d="M0.785156 22.9825C3.30663 20.6284 5.76466 18.3335 8.26036 16.0034C10.6058 18.3269 12.9224 20.6218 15.3059 22.9829C14.1808 22.9829 13.1411 23.0007 12.1025 22.9739C11.7027 22.9637 11.5698 23.0786 11.6043 23.4858C11.7342 25.0202 12.0695 26.5024 12.6803 27.915C14.08 31.1517 16.3949 33.5004 19.5358 35.0401C19.7077 35.1244 19.887 35.1935 20.0641 35.2669C20.2368 35.3384 20.4109 35.4061 20.6272 35.4928C19.2259 36.9362 17.8561 38.3474 16.448 39.7977C17.241 40.6597 18.026 41.5134 18.8803 42.4421C15.9622 41.4275 13.4389 39.9646 11.2314 37.932C9.29365 36.148 7.75471 34.0758 6.58658 31.7196C5.56438 29.6578 4.91855 27.4764 4.63757 25.1891C4.5638 24.5881 4.50907 23.9833 4.48409 23.3785C4.4716 23.0752 4.38237 22.9713 4.07442 22.9771C3.13908 22.9947 2.20314 22.9829 1.2674 22.9827C1.13494 22.9825 1.00189 22.9825 0.785156 22.9825Z" fill="#238FFF"/>
<path d="M22.2787 4.04368C21.4193 7.5394 20.5672 11.0054 19.6973 14.5436C19.0382 13.4453 18.4118 12.4012 17.7634 11.3206C15.254 13.0489 13.532 15.337 12.4846 18.3209C11.0671 16.8429 9.71351 15.432 8.34431 14.0046C7.18133 15.0855 6.08676 16.1027 4.99219 17.1199C6.38102 11.8551 9.33616 7.73581 13.8324 4.70143C13.0985 3.46346 12.372 2.23748 11.5894 0.916992C15.2058 1.97494 18.7279 3.00512 22.2787 4.04368Z" fill="#238FFF"/>
</g>
<defs>
<clipPath id="clip0_1322_7010">
<rect width="48.9671" height="46.9685" fill="white" transform="translate(0.785156 0.916992)"/>
</clipPath>
</defs>
</svg>
