<svg width="111" height="84" viewBox="0 0 111 84" fill="none" xmlns="http://www.w3.org/2000/svg">
<g clip-path="url(#clip0_0_7869)">
<path d="M0.939383 45.9999C0.939383 43.4507 0.924869 40.9015 0.941802 38.3522C0.98776 31.3369 6.65507 25.8687 13.6479 26.1557C14.451 26.1873 14.584 25.73 14.8331 25.2411C18.355 18.3376 23.2724 12.6602 29.6291 8.2574C52.1992 -7.37133 83.3707 0.468578 95.9341 24.9443C96.3622 25.7762 96.742 26.1606 97.8063 26.1314C104.207 25.9441 109.905 31.4439 109.997 37.89C110.075 43.312 110.065 48.7365 110.002 54.1585C109.925 60.8187 104.028 66.3599 97.4144 66.0047C96.6331 65.9634 96.3937 66.2844 96.0599 66.8488C94.3764 69.6875 92.9106 72.7111 90.8715 75.2676C86.745 80.4391 81.2808 83.0394 74.5613 82.9494C66.6759 82.8424 58.7857 82.9227 50.9003 82.9202C50.6584 82.9202 50.4166 82.9129 50.1771 82.9202C45.9175 83.0127 45.1362 79.7312 46.5174 76.8414C47.5768 74.6255 49.4418 73.5479 51.8412 73.4846C54.2552 73.4214 56.6692 73.4457 59.0832 73.4798C60.7691 73.5016 62.1938 74.173 63.367 75.4063C63.6524 75.7055 64.0467 76.0971 64.3974 76.1044C68.4175 76.1774 72.4448 76.316 76.4625 76.1701C79.7908 76.0485 82.5096 74.336 84.7954 71.9886C88.5397 68.1429 90.8014 63.3922 92.451 58.3837C100.003 35.4794 85.4315 11.315 61.7512 7.34522C40.6275 3.80109 20.3674 18.4811 17.0173 39.7728C15.5902 48.8411 17.1093 57.3913 21.5817 65.399C22.2541 66.6055 22.5081 67.8339 21.7341 69.0672C20.9842 70.2591 19.8643 70.7894 18.4517 70.7043C17.2858 70.6337 16.3691 70.0256 15.9918 69.0137C15.1597 66.7904 13.7664 66.0485 11.3476 65.7785C5.1554 65.0852 0.968409 59.9284 0.941802 53.6477C0.932126 51.0984 0.941802 48.5492 0.941802 45.9999H0.939383Z" fill="black"/>
<path d="M77.3805 24.4694C75.7962 22.7496 73.7644 21.7694 71.4544 21.9883C68.8324 22.2364 66.2249 22.7618 63.644 23.3164C60.1439 24.0681 56.6632 25.0606 53.0495 24.394C49.7357 23.7835 46.4533 23.0026 43.1565 22.3021C39.221 21.4653 35.7016 21.891 32.8523 25.209C27.376 31.5845 24.4831 38.9087 24.3477 47.763C24.4226 48.7141 24.4662 50.0933 24.6476 51.4531C25.066 54.591 25.7216 57.6681 27.4825 60.3779C28.4718 61.9006 29.7949 62.9076 31.6961 62.6522C34.6349 62.2557 37.6101 61.9614 40.4885 61.2754C49.8663 59.0424 59.2151 58.624 68.6582 60.9081C72.0034 61.7182 75.4358 62.2849 78.8608 62.606C82.1093 62.9125 83.1784 62.0392 84.4846 58.9962C85.6602 56.2597 86.1826 53.3699 86.4342 50.4144C87.288 40.3998 84.1339 31.7961 77.3853 24.4718L77.3805 24.4694ZM39.3638 48.1497C36.229 48.1497 33.6118 45.53 33.5803 42.3629C33.5489 39.1787 36.2677 36.4519 39.4194 36.5054C42.5711 36.5589 45.1544 39.2031 45.1399 42.358C45.1254 45.5081 42.4937 48.1497 39.3638 48.1497ZM71.5148 48.1497C68.3704 48.0914 65.8161 45.4424 65.8403 42.268C65.8645 39.1106 68.5131 36.4787 71.6382 36.5054C74.7996 36.5322 77.3587 39.1398 77.3587 42.3288C77.3587 45.5713 74.7101 48.2081 71.5173 48.1473L71.5148 48.1497Z" fill="black"/>
</g>
<defs>
<clipPath id="clip0_0_7869">
<rect width="109.573" height="82.9478" fill="white" transform="translate(0.699219 0.178955)"/>
</clipPath>
</defs>
</svg>
