<svg width="75" height="76" viewBox="0 0 75 76" fill="none" xmlns="http://www.w3.org/2000/svg">
<path d="M20.8739 42.5551L9.32422 51.8882V14.5559C9.32422 13.9371 9.57004 13.3436 10.0076 12.9061C10.4452 12.4685 11.0387 12.2227 11.6575 12.2227H48.9897C49.6086 12.2227 50.202 12.4685 50.6396 12.9061C51.0772 13.3436 51.323 13.9371 51.323 14.5559V40.2218C51.323 40.8407 51.0772 41.4341 50.6396 41.8717C50.202 42.3093 49.6086 42.5551 48.9897 42.5551H20.8739Z" stroke="#238FFF" stroke-width="2.43475" stroke-linecap="round" stroke-linejoin="round"/>
<path d="M23.3301 42.5553V54.2216C23.3301 54.8404 23.5759 55.4339 24.0135 55.8715C24.451 56.309 25.0445 56.5549 25.6633 56.5549H53.7792L65.3289 65.8879V28.5557C65.3289 27.9369 65.083 27.3434 64.6455 26.9058C64.2079 26.4682 63.6144 26.2224 62.9956 26.2224H51.3293" stroke="#238FFF" stroke-width="2.43475" stroke-linecap="round" stroke-linejoin="round"/>
</svg>
