<svg width="72" height="72" viewBox="0 0 72 72" fill="none" xmlns="http://www.w3.org/2000/svg">
<circle cx="35.9935" cy="35.9705" r="35.6077" fill="#238FFF"/>
<path d="M32.0228 43.9835C31.1137 43.9835 30.2941 43.7976 29.5641 43.4257C28.8341 43.04 28.2073 42.5166 27.6839 41.8554C27.1743 41.1942 26.7817 40.416 26.5062 39.5207C26.2307 38.6116 26.093 37.6336 26.093 36.5867C26.093 35.5399 26.2307 34.5688 26.5062 33.6735C26.7817 32.7644 27.1743 31.9792 27.6839 31.3181C28.2073 30.6569 28.8341 30.1404 29.5641 29.7684C30.2941 29.3828 31.1137 29.1899 32.0228 29.1899C32.9319 29.1899 33.7515 29.3828 34.4815 29.7684C35.2116 30.1404 35.8314 30.6569 36.3411 31.3181C36.8645 31.9792 37.2639 32.7644 37.5394 33.6735C37.8149 34.5688 37.9527 35.5399 37.9527 36.5867C37.9527 37.6336 37.8149 38.6116 37.5394 39.5207C37.2639 40.416 36.8645 41.1942 36.3411 41.8554C35.8314 42.5166 35.2116 43.04 34.4815 43.4257C33.7515 43.7976 32.9319 43.9835 32.0228 43.9835ZM32.0228 41.4215C32.5187 41.4215 32.9664 41.3044 33.3658 41.0703C33.7653 40.8223 34.1027 40.4849 34.3782 40.0579C34.6675 39.6171 34.881 39.1005 35.0187 38.5082C35.1702 37.916 35.246 37.2754 35.246 36.5867C35.246 35.8842 35.1702 35.2437 35.0187 34.6652C34.881 34.0729 34.6675 33.5633 34.3782 33.1363C34.1027 32.6955 33.7653 32.358 33.3658 32.1239C32.9664 31.8759 32.5187 31.7519 32.0228 31.7519C31.5132 31.7519 31.0586 31.8759 30.6592 32.1239C30.2597 32.358 29.9222 32.6955 29.6467 33.1363C29.3713 33.5633 29.1578 34.0729 29.0062 34.6652C28.8685 35.2437 28.7996 35.8842 28.7996 36.5867C28.7996 37.2754 28.8685 37.916 29.0062 38.5082C29.1578 39.1005 29.3713 39.6171 29.6467 40.0579C29.9222 40.4849 30.2597 40.8223 30.6592 41.0703C31.0586 41.3044 31.5132 41.4215 32.0228 41.4215ZM42.9805 43.653V32.7024L40.4805 33.7561L39.4887 31.4627L43.6417 29.5205H45.6871V43.653H42.9805Z" fill="white"/>
</svg>
