<svg width="72" height="72" viewBox="0 0 72 72" fill="none" xmlns="http://www.w3.org/2000/svg">
<circle cx="36.1136" cy="36.2718" r="35.6077" fill="#238FFF"/>
<path d="M30.0548 44.2849C29.1457 44.2849 28.3262 44.099 27.5961 43.7271C26.8661 43.3414 26.2394 42.818 25.7159 42.1568C25.2063 41.4956 24.8137 40.7174 24.5382 39.8221C24.2627 38.9129 24.125 37.935 24.125 36.8881C24.125 35.8413 24.2627 34.8702 24.5382 33.9749C24.8137 33.0658 25.2063 32.2806 25.7159 31.6195C26.2394 30.9583 26.8661 30.4417 27.5961 30.0698C28.3262 29.6842 29.1457 29.4913 30.0548 29.4913C30.9639 29.4913 31.7835 29.6842 32.5135 30.0698C33.2436 30.4417 33.8634 30.9583 34.3731 31.6195C34.8965 32.2806 35.296 33.0658 35.5714 33.9749C35.8469 34.8702 35.9847 35.8413 35.9847 36.8881C35.9847 37.935 35.8469 38.9129 35.5714 39.8221C35.296 40.7174 34.8965 41.4956 34.3731 42.1568C33.8634 42.818 33.2436 43.3414 32.5135 43.7271C31.7835 44.099 30.9639 44.2849 30.0548 44.2849ZM30.0548 41.7229C30.5507 41.7229 30.9984 41.6058 31.3978 41.3717C31.7973 41.1237 32.1348 40.7863 32.4102 40.3593C32.6995 39.9185 32.913 39.4019 33.0507 38.8096C33.2023 38.2173 33.278 37.5768 33.278 36.8881C33.278 36.1856 33.2023 35.5451 33.0507 34.9666C32.913 34.3743 32.6995 33.8647 32.4102 33.4377C32.1348 32.9969 31.7973 32.6594 31.3978 32.4252C30.9984 32.1773 30.5507 32.0533 30.0548 32.0533C29.5452 32.0533 29.0906 32.1773 28.6912 32.4252C28.2917 32.6594 27.9543 32.9969 27.6788 33.4377C27.4033 33.8647 27.1898 34.3743 27.0383 34.9666C26.9005 35.5451 26.8316 36.1856 26.8316 36.8881C26.8316 37.5768 26.9005 38.2173 27.0383 38.8096C27.1898 39.4019 27.4033 39.9185 27.6788 40.3593C27.9543 40.7863 28.2917 41.1237 28.6912 41.3717C29.0906 41.6058 29.5452 41.7229 30.0548 41.7229ZM44.2515 43.9543V41.351H37.7225V39.1609L44.0036 29.8219H46.9375V38.8303H48.7144V41.351H46.9375V43.9543H44.2515ZM44.2515 33.8509H44.0862L40.7184 38.8303H44.2515V33.8509Z" fill="white"/>
</svg>
