<svg width="72" height="72" viewBox="0 0 72 72" fill="none" xmlns="http://www.w3.org/2000/svg">
<circle cx="36.1136" cy="36.0457" r="35.6077" fill="#238FFF"/>
<path d="M30.0492 44.0589C29.1401 44.0589 28.3205 43.8729 27.5905 43.501C26.8604 43.1153 26.2337 42.5919 25.7103 41.9307C25.2006 41.2696 24.8081 40.4913 24.5326 39.596C24.2571 38.6869 24.1193 37.7089 24.1193 36.662C24.1193 35.6152 24.2571 34.6441 24.5326 33.7488C24.8081 32.8397 25.2006 32.0545 25.7103 31.3934C26.2337 30.7322 26.8604 30.2157 27.5905 29.8438C28.3205 29.4581 29.1401 29.2652 30.0492 29.2652C30.9583 29.2652 31.7779 29.4581 32.5079 29.8438C33.2379 30.2157 33.8578 30.7322 34.3674 31.3934C34.8908 32.0545 35.2903 32.8397 35.5658 33.7488C35.8413 34.6441 35.979 35.6152 35.979 36.662C35.979 37.7089 35.8413 38.6869 35.5658 39.596C35.2903 40.4913 34.8908 41.2696 34.3674 41.9307C33.8578 42.5919 33.2379 43.1153 32.5079 43.501C31.7779 43.8729 30.9583 44.0589 30.0492 44.0589ZM30.0492 41.4968C30.5451 41.4968 30.9927 41.3798 31.3922 41.1456C31.7916 40.8977 32.1291 40.5602 32.4046 40.1332C32.6938 39.6924 32.9073 39.1759 33.0451 38.5836C33.1966 37.9913 33.2724 37.3508 33.2724 36.662C33.2724 35.9596 33.1966 35.3191 33.0451 34.7405C32.9073 34.1482 32.6938 33.6386 32.4046 33.2116C32.1291 32.7708 31.7916 32.4333 31.3922 32.1992C30.9927 31.9512 30.5451 31.8273 30.0492 31.8273C29.5395 31.8273 29.085 31.9512 28.6855 32.1992C28.2861 32.4333 27.9486 32.7708 27.6731 33.2116C27.3976 33.6386 27.1841 34.1482 27.0326 34.7405C26.8949 35.3191 26.826 35.9596 26.826 36.662C26.826 37.3508 26.8949 37.9913 27.0326 38.5836C27.1841 39.1759 27.3976 39.6924 27.6731 40.1332C27.9486 40.5602 28.2861 40.8977 28.6855 41.1456C29.085 41.3798 29.5395 41.4968 30.0492 41.4968ZM43.5434 34.6372C44.0806 34.6372 44.604 34.7543 45.1136 34.9885C45.6233 35.2089 46.0778 35.5188 46.4773 35.9182C46.8768 36.3177 47.1936 36.7998 47.4277 37.3645C47.6757 37.9293 47.7996 38.5491 47.7996 39.2241C47.7996 39.9266 47.6619 40.574 47.3864 41.1662C47.1109 41.7585 46.739 42.2682 46.2707 42.6952C45.8161 43.1222 45.2858 43.4597 44.6798 43.7076C44.0875 43.9418 43.4607 44.0589 42.7996 44.0589C42.0282 44.0589 41.3326 43.928 40.7128 43.6663C40.0929 43.3908 39.5557 43.0327 39.1012 42.5919C38.6604 42.1373 38.316 41.6139 38.0681 41.0216C37.8339 40.4155 37.7168 39.7819 37.7168 39.1208C37.7168 38.1703 37.9028 37.3026 38.2747 36.5174C38.6604 35.7185 39.1425 34.9058 39.721 34.0794L43.1508 29.1826L45.2376 30.6289L42.345 34.7199L42.4483 34.8438C42.7651 34.7061 43.1301 34.6372 43.5434 34.6372ZM42.7582 41.5588C43.0613 41.5588 43.3574 41.5037 43.6467 41.3935C43.9359 41.2833 44.1908 41.1249 44.4112 40.9183C44.6315 40.7117 44.8037 40.4706 44.9277 40.1952C45.0654 39.9059 45.1343 39.5891 45.1343 39.2447C45.1343 38.9004 45.0654 38.5836 44.9277 38.2943C44.8037 38.005 44.6315 37.7571 44.4112 37.5505C44.1908 37.3439 43.9359 37.1855 43.6467 37.0753C43.3574 36.9651 43.0613 36.91 42.7582 36.91C42.4414 36.91 42.1384 36.9651 41.8491 37.0753C41.5736 37.1855 41.3188 37.3439 41.0847 37.5505C40.8643 37.7571 40.6852 38.005 40.5475 38.2943C40.4235 38.5836 40.3615 38.9004 40.3615 39.2447C40.3615 39.5891 40.4235 39.9059 40.5475 40.1952C40.6852 40.4706 40.8643 40.7117 41.0847 40.9183C41.3188 41.1249 41.5736 41.2833 41.8491 41.3935C42.1384 41.5037 42.4414 41.5588 42.7582 41.5588Z" fill="white"/>
</svg>
