<svg width="21" height="22" viewBox="0 0 21 22" fill="none" xmlns="http://www.w3.org/2000/svg">
<path d="M0.199219 11.8125C0.199219 11.5391 0.199219 11.2661 0.199219 10.9927C0.210539 10.962 0.228106 10.9325 0.2324 10.9005C0.429533 9.44749 1.15951 8.37606 2.36339 7.65631C2.52305 7.56081 2.5941 7.46203 2.61752 7.2743C2.80255 5.80529 4.03141 4.66418 5.44765 4.64369C5.58389 4.64164 5.64869 4.59573 5.71505 4.47195C6.64997 2.73077 8.0299 1.58884 9.88374 1.10067C10.2031 1.01665 10.5317 0.97238 10.8557 0.909668C11.1809 0.909668 11.5065 0.909668 11.8316 0.909668C12.1127 0.957624 12.3969 0.991234 12.6748 1.056C15.5631 1.72779 17.6129 4.24979 17.7929 7.35341C17.8007 7.48744 17.8428 7.55425 17.9545 7.61614C18.8433 8.10882 19.5011 8.83595 19.8716 9.81884C20.018 10.2066 20.0831 10.628 20.1854 11.0341C20.1854 11.2936 20.1854 11.5535 20.1854 11.8129C20.1593 11.9527 20.1315 12.092 20.107 12.2322C19.7954 14.0218 18.2722 15.5326 16.5527 15.7019C15.875 15.7687 15.1888 15.7355 14.506 15.7478C14.4373 15.749 14.369 15.7478 14.2999 15.7478C14.2999 16.9901 14.2999 18.2034 14.2999 19.4367C14.652 19.4367 14.9955 19.4265 15.3379 19.4412C15.5022 19.4482 15.5838 19.4002 15.658 19.2375C15.9875 18.512 16.7381 18.103 17.4759 18.2251C18.3082 18.3628 18.8223 18.903 18.9562 19.7794C19.0741 20.5524 18.6845 21.3459 18.0006 21.6952C17.8276 21.7833 17.6356 21.83 17.4525 21.896C17.2835 21.896 17.114 21.896 16.945 21.896C16.9356 21.887 16.9274 21.8722 16.9169 21.8698C16.3001 21.7341 15.8649 21.3652 15.6014 20.7635C15.5791 20.7127 15.4831 20.6709 15.421 20.6704C14.725 20.6639 14.029 20.6664 13.333 20.6664C13.2647 20.6664 13.1964 20.6664 13.114 20.6664C13.114 19.0125 13.114 17.3898 13.114 15.7609C12.3298 15.7609 11.5603 15.7609 10.7839 15.7609C10.7839 16.6192 10.7839 17.4648 10.7839 18.314C10.8429 18.3444 10.9018 18.3722 10.9588 18.4038C11.6123 18.7641 11.9628 19.3322 11.9409 20.1065C11.9195 20.8697 11.5486 21.4197 10.8866 21.7398C10.741 21.8103 10.5801 21.8452 10.4263 21.8964C10.2702 21.8964 10.114 21.8964 9.9579 21.8964C9.90872 21.8816 9.85992 21.864 9.80996 21.8525C8.79423 21.6124 8.19073 20.4905 8.52957 19.4629C8.71304 18.9063 9.08505 18.5358 9.5933 18.3214C9.5933 17.4607 9.5933 16.6106 9.5933 15.765C8.81024 15.765 8.04044 15.765 7.25659 15.765C7.25659 17.4045 7.25659 19.0276 7.25659 20.6672C7.17227 20.6672 7.10201 20.6672 7.03174 20.6672C6.34861 20.6672 5.66586 20.67 4.98273 20.6643C4.86367 20.6635 4.80394 20.6955 4.75124 20.8164C4.51781 21.3504 4.1212 21.6894 3.58132 21.8452C3.53292 21.8591 3.48647 21.8792 3.43884 21.8964C3.26981 21.8964 3.1004 21.8964 2.93137 21.8964C2.88218 21.8816 2.833 21.8657 2.78342 21.8521C2.13503 21.6759 1.68689 21.2623 1.49054 20.5889C1.29145 19.9064 1.43862 19.2871 1.90784 18.7719C2.75922 17.8365 4.2141 18.0984 4.75202 19.2723C4.7813 19.3359 4.84298 19.4281 4.89177 19.4297C5.28604 19.4424 5.68109 19.4371 6.08082 19.4371C6.08082 18.198 6.08082 16.9803 6.08082 15.7486C5.49059 15.7486 4.91285 15.7523 4.33511 15.7478C2.48089 15.7347 0.850344 14.4263 0.353022 12.5503C0.289002 12.3072 0.249966 12.0584 0.199219 11.8125ZM5.68694 10.9534C6.762 9.24829 8.25202 8.31581 10.1956 8.31622C12.14 8.31663 13.6281 9.25239 14.6981 10.953C15.0291 10.7398 15.3535 10.5316 15.6986 10.3095C14.3737 8.21498 12.5523 7.0792 10.1699 7.0874C7.80466 7.09559 5.99689 8.23179 4.68722 10.3091C5.02996 10.53 5.35006 10.7366 5.68694 10.9534ZM13.6976 11.5965C12.8442 10.2541 11.6814 9.53275 10.1601 9.54504C8.66541 9.55693 7.52321 10.2767 6.69057 11.5965C7.03565 11.8182 7.35926 12.0261 7.68248 12.2335C8.88089 10.2648 11.5736 10.3046 12.7072 12.2314C13.0312 12.0236 13.3556 11.8158 13.6976 11.5965ZM11.6938 12.8815C11.2996 12.2785 10.7621 12.0293 10.1008 12.0572C9.5086 12.0822 9.03509 12.3429 8.69235 12.8819C9.03626 13.1028 9.35987 13.3106 9.67918 13.5156C10.0145 13.1381 10.3768 13.1635 10.7226 13.507C11.0396 13.3028 11.3585 13.0971 11.6938 12.8815Z" fill="#EEB764"/>
</svg>
