<svg width="24" height="22" viewBox="0 0 24 22" fill="none" xmlns="http://www.w3.org/2000/svg">
<path d="M23.9633 9.22786C24.0214 9.87278 23.9565 10.5249 23.7828 11.1584C23.6336 11.7023 23.4112 12.2295 23.1114 12.7137C22.7236 13.34 22.2027 13.8834 21.5894 14.3137C21.0135 14.7178 20.3658 15.0214 19.6932 15.2473C19.349 15.3627 18.9793 15.4105 18.6433 15.4846C18.7601 15.0871 18.925 14.7303 18.9618 14.3621C19.1223 12.7549 17.8782 11.4698 16.185 11.4645C14.889 11.4603 13.5931 11.4603 12.2971 11.4674C12.1203 11.4686 12.0279 11.4274 11.9461 11.2636C11.1972 9.76938 9.14615 9.29002 7.8227 10.3581C7.01014 11.0138 6.26441 11.7603 5.57115 12.5337C4.82542 13.3657 4.83791 14.331 5.31133 15.3023C5.34318 15.3675 5.37816 15.4308 5.43437 15.5384C5.06837 15.5049 4.74172 15.496 4.42257 15.4428C3.29898 15.2545 2.21661 14.8098 1.41654 14.0137C0.453463 13.0555 -0.0849115 11.697 0.0112714 10.3671C0.0737279 9.5028 0.386635 8.66004 0.884413 7.93802C1.07865 7.6565 1.30412 7.39471 1.55832 7.16101C2.23909 6.53282 3.10349 6.10606 4.02785 5.92018C4.47004 5.83172 4.6318 5.66197 4.77795 5.26509C5.84595 2.36086 8.01194 0.638282 11.1985 0.312535C14.3575 -0.0102243 16.8283 1.23539 18.5415 3.8067C18.6214 3.92684 18.6957 4.00574 18.8538 4.03383C19.6238 4.17249 20.3777 4.41277 21.0572 4.78932C21.6912 5.14077 22.2489 5.60997 22.6936 6.16703C23.1645 6.75696 23.5168 7.44073 23.7447 8.1496C23.8584 8.50344 23.9302 8.86446 23.9633 9.22786Z" fill="#7C57E6"/>
<path d="M10.2464 14.8086C10.2464 15.1116 10.2432 15.3854 10.247 15.6597C10.2514 16.0028 10.1283 16.2784 9.78293 16.4164C9.43817 16.5545 9.14963 16.4493 8.8948 16.2024C8.3583 15.6824 7.81306 15.1708 7.27468 14.652C6.89432 14.2856 6.89932 13.8869 7.28405 13.5182C7.81243 13.0113 8.34706 12.5104 8.87044 11.9988C9.12777 11.7472 9.41257 11.6205 9.77232 11.7609C10.1421 11.9056 10.2551 12.1978 10.247 12.5553C10.2407 12.8212 10.2457 13.0872 10.2457 13.3771C10.3669 13.3771 10.4587 13.3771 10.5505 13.3771C12.4148 13.3771 14.2792 13.3795 16.1435 13.3747C16.4776 13.3741 16.7393 13.4757 16.9005 13.7626C17.1241 14.1613 16.8936 14.664 16.4339 14.7751C16.3221 14.802 16.2028 14.8074 16.0867 14.8074C14.2461 14.8092 12.4049 14.8086 10.5643 14.8086C10.4712 14.8086 10.3781 14.8086 10.2464 14.8086Z" fill="#7C57E6"/>
<path d="M13.7385 19.5735C13.6135 19.5735 13.5217 19.5735 13.4293 19.5735C11.5712 19.5735 9.71314 19.5724 7.85506 19.5753C7.62897 19.5759 7.41911 19.5449 7.24798 19.3913C7.03063 19.1964 6.94756 18.9591 7.02439 18.6812C7.09871 18.4146 7.27921 18.2395 7.56026 18.1737C7.67206 18.1474 7.79198 18.1432 7.90815 18.1432C9.75061 18.1415 11.5931 18.1421 13.4355 18.1421C13.5274 18.1421 13.6185 18.1421 13.7378 18.1421C13.7378 17.845 13.7416 17.5718 13.7372 17.2981C13.7316 16.955 13.854 16.6837 14.1963 16.5366C14.5117 16.4009 14.7965 16.4739 15.1013 16.7632C15.6434 17.2784 16.1855 17.7948 16.7239 18.3136C17.0824 18.6591 17.0799 19.0673 16.717 19.417C16.1724 19.9411 15.6228 20.4599 15.0788 20.9841C14.8296 21.2244 14.5454 21.32 14.2088 21.1891C13.8709 21.0576 13.7372 20.7959 13.7372 20.4599C13.7391 20.1766 13.7385 19.8939 13.7385 19.5735Z" fill="#7C57E6"/>
</svg>
