<svg width="38" height="26" viewBox="0 0 38 26" fill="none" xmlns="http://www.w3.org/2000/svg">
<g clip-path="url(#clip0_344_227)">
<rect width="38" height="25" transform="translate(0 0.297119)" fill="white"/>
<path d="M0 20.3772C0.0981374 20.3713 0.197266 20.3595 0.295404 20.3595C4.02958 20.3595 7.76376 20.3615 11.4979 20.3536C11.7428 20.3536 11.8717 20.4115 11.9599 20.6538C12.1552 21.1934 12.398 21.7173 12.6042 22.2539C12.8094 22.7866 13.1821 23.0476 13.761 23.0476C17.2474 23.0437 20.7348 23.0437 24.2211 23.0476C24.7852 23.0476 25.1549 22.7906 25.3611 22.2804C25.5861 21.7242 25.8022 21.165 26.0481 20.6185C26.0986 20.5067 26.2622 20.3713 26.3742 20.3713C30.1946 20.3595 34.015 20.3625 37.8364 20.3634C37.8721 20.3634 37.9078 20.3752 37.9921 20.3899V20.8108C37.9921 21.9733 37.9752 23.1359 38 24.2984C38.0099 24.7517 37.8652 25.0774 37.4726 25.2981H0C0 23.6578 0 22.0185 0 20.3782V20.3772Z" fill="#7881CD"/>
<path d="M35.0767 18.1983C34.8834 18.1983 34.7357 18.1983 34.5879 18.1983C31.62 18.1983 28.6531 18.1983 25.6852 18.1983C24.8743 18.1983 24.6106 18.3739 24.3083 19.1097C24.0991 19.6188 23.883 20.126 23.6868 20.6401C23.6164 20.8245 23.5301 20.903 23.316 20.902C20.4353 20.8942 17.5537 20.8942 14.673 20.902C14.444 20.902 14.3478 20.8206 14.2725 20.6224C14.0772 20.1084 13.8631 19.6002 13.6539 19.091C13.3655 18.3847 13.084 18.1983 12.3008 18.1983C9.33293 18.1983 6.366 18.1983 3.39809 18.1983C3.25039 18.1983 3.10269 18.1983 2.89551 18.1983C2.89551 18.0482 2.89551 17.9197 2.89551 17.7911C2.89551 12.2718 2.89551 6.75339 2.89551 1.23402C2.89749 0.541403 3.13441 0.297123 3.82434 0.297123C13.9394 0.296141 24.0535 0.296141 34.1686 0.297123C34.8328 0.297123 35.0925 0.540422 35.0935 1.16241C35.0955 6.73082 35.0945 12.2983 35.0935 17.8667C35.0935 17.9618 35.0846 18.057 35.0767 18.1973V18.1983ZM22.8174 5.95776C22.8174 6.5768 22.8263 7.14679 22.8124 7.71481C22.8075 7.93064 22.8898 8.03758 23.0821 8.13078C24.2121 8.6782 25.3353 9.2374 26.4604 9.79463C26.5496 9.83878 26.6339 9.8947 26.7617 9.96926C25.4988 10.5922 24.2944 11.1828 23.095 11.7832C22.9879 11.8372 22.8372 11.949 22.8343 12.0393C22.8115 12.6573 22.8224 13.2764 22.8224 13.9543C23.0137 13.865 23.1455 13.8071 23.2734 13.7424C25.0191 12.8565 26.7449 11.9323 28.5173 11.1033C29.2162 10.7767 29.5552 10.399 29.4253 9.62393C29.3847 9.38357 29.3391 9.24034 29.1051 9.12261C27.1355 8.13568 25.1737 7.13305 23.209 6.13631C23.1019 6.08235 22.9909 6.03624 22.8194 5.95776H22.8174ZM15.1696 5.96168C14.9971 6.04115 14.8752 6.09118 14.7572 6.15102C12.9918 7.05064 11.2451 7.99049 9.45089 8.83124C8.75699 9.15695 8.44275 9.53465 8.56666 10.2901C8.60433 10.5206 8.65191 10.655 8.87 10.7649C10.8595 11.7675 12.8431 12.7829 14.8286 13.7934C14.9228 13.8414 15.0229 13.8787 15.1706 13.9435C15.1706 13.2823 15.1815 12.673 15.1597 12.0648C15.1567 11.9696 15.0239 11.845 14.9208 11.792C14.1754 11.4104 13.422 11.0455 12.6726 10.6727C12.2156 10.446 11.7616 10.2155 11.256 9.96141C11.4275 9.86919 11.5415 9.80248 11.6605 9.74362C12.741 9.206 13.8235 8.67329 14.9 8.12979C15.0071 8.07584 15.1557 7.96105 15.1587 7.86982C15.1815 7.25078 15.1706 6.63076 15.1706 5.96168H15.1696ZM22.0511 4.50973C21.4891 4.50973 20.9716 4.52837 20.4562 4.50287C20.1518 4.48815 20.0081 4.58331 19.8971 4.87272C18.9326 7.39499 17.9492 9.91039 16.9718 12.4278C16.7646 12.9605 16.5574 13.4942 16.3294 14.0798C16.8984 14.0798 17.4149 14.0612 17.9294 14.0867C18.2228 14.1014 18.3606 14.0082 18.4666 13.7325C19.3697 11.3829 20.2906 9.04021 21.2046 6.69452C21.4831 5.98032 21.7587 5.26416 22.0511 4.50973Z" fill="#7881CD"/>
</g>
<defs>
<clipPath id="clip0_344_227">
<rect width="38" height="25" fill="white" transform="translate(0 0.297119)"/>
</clipPath>
</defs>
</svg>
