<svg width="24" height="20" viewBox="0 0 24 20" fill="none" xmlns="http://www.w3.org/2000/svg">
<path d="M6.71544 7.30045L3.25464 10.1841L6.71544 13.0678C6.83022 13.1619 6.92524 13.2777 6.99502 13.4087C7.0648 13.5397 7.10796 13.6832 7.12202 13.8309C7.13608 13.9786 7.12075 14.1277 7.07692 14.2694C7.03309 14.4112 6.96163 14.5429 6.86666 14.6569C6.77168 14.7709 6.65507 14.865 6.52355 14.9338C6.39204 15.0025 6.24821 15.0445 6.10038 15.0574C5.95255 15.0703 5.80362 15.0537 5.66221 15.0088C5.52079 14.9638 5.38967 14.8913 5.27641 14.7954L0.779428 11.0479C0.652774 10.9424 0.55087 10.8104 0.480938 10.6611C0.411006 10.5118 0.374756 10.349 0.374756 10.1841C0.374756 10.0193 0.411006 9.85647 0.480938 9.7072C0.55087 9.55792 0.652774 9.42585 0.779428 9.32034L5.27641 5.57286C5.50582 5.38485 5.80024 5.29512 6.09552 5.32322C6.3908 5.35131 6.66301 5.49496 6.85285 5.72287C7.04268 5.95077 7.13477 6.24446 7.10903 6.53995C7.08329 6.83545 6.94182 7.1088 6.71544 7.30045ZM23.2044 9.32034L18.7074 5.57286C18.5941 5.47698 18.463 5.40446 18.3216 5.3595C18.1802 5.31454 18.0313 5.29802 17.8834 5.3109C17.7356 5.32377 17.5918 5.36579 17.4603 5.43452C17.3287 5.50325 17.2121 5.59734 17.1172 5.71136C17.0222 5.82538 16.9507 5.95708 16.9069 6.09885C16.8631 6.24063 16.8477 6.38967 16.8618 6.5374C16.8758 6.68513 16.919 6.82861 16.9888 6.95957C17.0586 7.09054 17.1536 7.20639 17.2684 7.30045L20.7292 10.1841L17.2684 13.0678C17.1536 13.1619 17.0586 13.2777 16.9888 13.4087C16.919 13.5397 16.8758 13.6832 16.8618 13.8309C16.8477 13.9786 16.8631 14.1277 16.9069 14.2694C16.9507 14.4112 17.0222 14.5429 17.1172 14.6569C17.2121 14.7709 17.3287 14.865 17.4603 14.9338C17.5918 15.0025 17.7356 15.0445 17.8834 15.0574C18.0313 15.0703 18.1802 15.0537 18.3216 15.0088C18.463 14.9638 18.5941 14.8913 18.7074 14.7954L23.2044 11.0479C23.331 10.9424 23.4329 10.8104 23.5029 10.6611C23.5728 10.5118 23.6091 10.349 23.6091 10.1841C23.6091 10.0193 23.5728 9.85647 23.5029 9.7072C23.4329 9.55792 23.331 9.42585 23.2044 9.32034ZM15.374 0.882882C15.2352 0.832414 15.0879 0.80978 14.9403 0.816273C14.7928 0.822766 14.648 0.85826 14.5142 0.920727C14.3804 0.983193 14.2602 1.07141 14.1605 1.18033C14.0608 1.28926 13.9835 1.41676 13.9331 1.55556L7.93713 18.0445C7.83549 18.3246 7.84925 18.6337 7.97539 18.9037C8.10153 19.1737 8.32971 19.3826 8.6098 19.4845C8.73277 19.5299 8.86283 19.553 8.99392 19.5529C9.22474 19.5529 9.44998 19.4819 9.63905 19.3495C9.82812 19.2171 9.97184 19.0297 10.0507 18.8127L16.0467 2.32379C16.0972 2.18501 16.1198 2.03765 16.1133 1.89012C16.1068 1.7426 16.0713 1.5978 16.0088 1.46399C15.9464 1.33018 15.8582 1.20999 15.7492 1.11028C15.6403 1.01058 15.5128 0.933305 15.374 0.882882Z" fill="#FF6D6D"/>
</svg>
