<svg width="61" height="60" viewBox="0 0 61 60" fill="none" xmlns="http://www.w3.org/2000/svg">
<rect x="0.820312" width="60" height="60" rx="30" fill="white"/>
<path d="M30.8279 43.5089C30.8026 43.5174 30.7773 43.5259 30.7604 43.5259C27.4014 43.5259 24.0424 43.5428 20.6833 43.5174C19.0882 43.5005 17.7885 42.1372 17.7801 40.5114C17.7632 38.4285 17.7716 36.3539 17.7716 34.2709C17.7716 29.6138 17.7716 24.9567 17.7716 20.2996C17.7716 18.6739 18.8097 17.4546 20.3964 17.1921C20.5821 17.1582 20.7762 17.1582 20.9619 17.1582C26.2451 17.1582 31.5284 17.1582 36.8116 17.1582C38.7106 17.1582 40.0019 18.4537 40.0103 20.3589C40.0103 22.1201 40.0103 23.8898 40.0103 25.6511C40.0103 25.7442 40.0103 25.8373 40.0103 25.9474C39.7149 25.9898 39.4364 26.0067 39.1663 26.066C37.8835 26.3539 36.9467 27.099 36.3728 28.276C34.9549 31.1803 33.537 34.0931 32.1276 37.0059C31.7731 37.7257 31.4355 38.4539 31.0726 39.1651C30.3975 40.503 30.2877 41.8832 30.7857 43.3057C30.8026 43.3565 30.8194 43.4073 30.8363 43.4581C30.8363 43.4666 30.8363 43.4751 30.8279 43.5089ZM27.874 25.2785C29.8742 25.2785 31.8744 25.2785 33.8746 25.2785C34.3641 25.2785 34.7355 25.0329 34.8958 24.6265C35.1575 23.9322 34.6511 23.2548 33.8493 23.2548C30.4819 23.2548 27.1144 23.2548 23.747 23.2548C23.114 23.2548 22.481 23.2548 21.848 23.2548C21.3923 23.2548 21.0378 23.5003 20.8859 23.8898C20.6158 24.5757 21.1138 25.2785 21.8818 25.2785C23.8736 25.2785 25.8738 25.2785 27.874 25.2785ZM27.376 27.3022C25.5531 27.3022 23.7301 27.3022 21.9155 27.3022C21.4514 27.3022 21.0969 27.48 20.8943 27.9119C20.5821 28.5977 21.0885 29.3259 21.8649 29.3344C23.3925 29.3429 24.9201 29.3344 26.4477 29.3344C28.5829 29.3344 30.7182 29.3344 32.8619 29.3344C33.3345 29.3344 33.6805 29.1397 33.8662 28.7078C34.17 28.0219 33.6552 27.3022 32.8703 27.3022C31.0389 27.3022 29.2075 27.3022 27.376 27.3022ZM26.3717 31.3581C24.8948 31.3581 23.4263 31.3581 21.9493 31.3581C21.2741 31.3581 20.8184 31.7646 20.8099 32.3658C20.8015 32.9669 21.2657 33.3903 21.9324 33.3903C24.8948 33.3903 27.8487 33.3903 30.811 33.3903C31.4777 33.3903 31.9335 32.9669 31.9335 32.3658C31.925 31.773 31.4693 31.3581 30.7941 31.3581C29.3172 31.3581 27.8402 31.3581 26.3717 31.3581ZM25.3505 37.4462C26.4983 37.4462 27.6461 37.4462 28.7939 37.4462C29.4522 37.4462 29.9164 37.0144 29.908 36.4132C29.8995 35.8289 29.4438 35.414 28.7939 35.414C26.5068 35.414 24.228 35.414 21.9409 35.414C21.2657 35.414 20.8099 35.8289 20.8099 36.4301C20.8099 37.0313 21.2657 37.4462 21.9409 37.4462C23.0718 37.4462 24.2111 37.4462 25.3505 37.4462Z" fill="#238FFF"/>
<path d="M32.4297 41.5106C32.5647 41.0618 32.6491 40.5876 32.8517 40.1642C34.6156 36.4978 36.3964 32.8399 38.1856 29.1904C38.7173 28.0981 39.8566 27.7001 40.9538 28.2251C41.5446 28.5045 42.1269 28.7924 42.7093 29.0888C43.7558 29.6223 44.1609 30.7654 43.6461 31.8238C41.8569 35.5156 40.0676 39.1989 38.27 42.8823C37.8986 43.6528 37.2994 44.1693 36.4976 44.4488C35.8984 44.652 35.3076 44.8637 34.7084 45.0584C34.0417 45.2786 33.5353 45.0415 33.3074 44.381C33.0373 43.5851 32.7926 42.7807 32.5478 41.9763C32.5056 41.8408 32.5141 41.6799 32.4972 41.536C32.4719 41.5275 32.4466 41.519 32.4297 41.5106Z" fill="#238FFF"/>
</svg>
