<svg width="57" height="57" viewBox="0 0 57 57" fill="none" xmlns="http://www.w3.org/2000/svg">
<path d="M34.2891 44.4157C34.2891 39.1393 38.5518 34.8716 43.8259 34.8716C49.0688 34.8716 53.3471 39.1238 53.3627 44.3692C53.3782 49.6146 49.0688 53.9133 43.8103 53.9133C38.5674 53.8978 34.3046 49.6456 34.2891 44.4157ZM42.4568 45.1606C41.85 44.5399 41.2277 43.8881 40.5743 43.2518C39.8898 42.569 39.0652 42.5224 38.4585 43.0966C37.8362 43.6863 37.8829 44.5399 38.583 45.2382C39.5164 46.1694 40.4499 47.1005 41.3833 48.0316C42.2079 48.8542 42.9546 48.8542 43.7947 48.0161C45.3349 46.4642 46.8751 44.9123 48.4153 43.3604C48.6798 43.0966 48.9443 42.8483 49.1932 42.569C49.7689 41.9327 49.7689 41.0947 49.1932 40.536C48.6332 40.0084 47.8242 40.0239 47.2019 40.5826C47.0307 40.7377 46.8751 40.9085 46.704 41.0792C45.3038 42.4138 43.9192 43.7639 42.4568 45.1606Z" fill="#238FFF"/>
<path d="M28.1145 38.3326C22.7938 38.3326 18.4532 33.9873 18.4688 28.6643C18.4843 23.3568 22.8405 19.027 28.1612 19.0425C33.4663 19.058 37.7758 23.3878 37.7913 28.6798C37.7913 34.0028 33.4507 38.3481 28.1145 38.3326ZM29.0791 34.3132C29.4213 34.2045 29.7636 34.1114 30.0903 33.9873C31.615 33.382 32.3462 32.1871 32.1128 30.6662C31.8639 29.1764 30.8215 28.4315 29.4836 28.028C28.7524 27.7952 27.9745 27.6711 27.2433 27.4538C26.7143 27.2986 26.3254 26.9572 26.2943 26.3364C26.2787 25.7933 26.6365 25.3277 27.2433 25.0794C28.3479 24.6138 29.4991 25.0018 30.0903 26.0571C30.4326 26.6623 30.9149 26.8641 31.4127 26.6002C31.9105 26.3364 32.0817 25.7622 31.7083 25.2035C31.3194 24.6449 30.8526 24.1172 30.3237 23.6827C29.9814 23.4033 29.4991 23.2792 29.0635 23.0774C29.0635 22.9067 29.0791 22.736 29.0635 22.5653C29.0013 22.0532 28.6279 21.7118 28.13 21.7118C27.6322 21.7118 27.1966 22.0687 27.2277 22.5808C27.2588 23.093 27.0255 23.2171 26.6054 23.3723C25.2363 23.8689 24.4118 25.0328 24.4118 26.3519C24.4118 27.6866 25.1897 28.7263 26.621 29.2385C27.1499 29.4247 27.71 29.4868 28.2545 29.6575C28.7835 29.8282 29.3435 29.9834 29.7947 30.2782C30.3859 30.6507 30.4637 31.4422 30.0125 31.8922C29.1257 32.8078 26.4498 32.8544 25.9209 31.1473C25.7186 30.4955 25.2675 30.2782 24.7229 30.4489C24.1784 30.6352 23.9606 31.1318 24.1784 31.7836C24.5207 32.8078 25.2052 33.5372 26.2009 33.9717C26.5121 34.1114 26.8388 34.2201 27.1499 34.3287C27.2122 35.3529 27.4922 35.7409 28.1145 35.7409C28.7524 35.6944 29.0324 35.2909 29.0791 34.3132Z" fill="#238FFF"/>
<path d="M24.1632 3.83398C24.1632 6.89122 24.1632 9.91741 24.1632 12.9436C18.0801 14.7283 14.1441 18.6546 12.3394 24.7225C9.30567 24.7225 6.27194 24.7225 3.22266 24.7225C4.60728 14.4334 13.3662 5.37036 24.1632 3.83398Z" fill="#238FFF"/>
<path d="M32.0938 12.9438C32.0938 9.90206 32.0938 6.89139 32.0938 3.7876C37.1966 4.62562 41.615 6.78275 45.3799 10.2745C49.9694 14.5267 52.5209 20.2998 53.0187 24.7227C50.0005 24.7227 46.9668 24.7227 43.9175 24.7227C42.1284 18.6858 38.2079 14.744 32.0938 12.9438Z" fill="#238FFF"/>
<path d="M3.17578 32.668C6.25618 32.668 9.27435 32.668 12.3548 32.668C12.4014 32.8076 12.4637 32.9628 12.5259 33.118C14.2839 38.7669 17.9866 42.4759 23.6496 44.2606C24.0696 44.4003 24.2252 44.54 24.2252 44.99C24.1941 47.6593 24.2096 50.3285 24.2096 52.9978C24.2096 53.1685 24.2096 53.3392 24.2096 53.603C19.1223 52.765 14.7195 50.6544 11.0012 47.1937C6.72291 43.2519 4.15591 38.41 3.17578 32.668Z" fill="#238FFF"/>
<path d="M26.043 7.94652C26.043 6.31703 26.043 4.70306 26.043 3.07357C26.043 1.75446 26.8986 0.823327 28.0966 0.807808C29.3256 0.792289 30.2124 1.72343 30.2124 3.07357C30.2124 6.34807 30.2124 9.60705 30.2124 12.8815C30.2124 14.2317 29.3412 15.1939 28.1277 15.1939C26.9142 15.1939 26.043 14.2472 26.043 12.8815C26.043 11.2365 26.043 9.59153 26.043 7.94652Z" fill="#238FFF"/>
<path d="M48.8673 30.7753C47.2337 30.7753 45.6158 30.7753 43.9822 30.7753C42.6287 30.7753 41.6797 29.9062 41.6797 28.6957C41.6797 27.4853 42.6287 26.6162 43.9822 26.6162C47.2649 26.6162 50.532 26.6162 53.8146 26.6162C55.1681 26.6162 56.1016 27.5008 56.086 28.7268C56.0704 29.9217 55.137 30.7753 53.8146 30.7753C52.1655 30.7753 50.5164 30.7753 48.8673 30.7753Z" fill="#238FFF"/>
<path d="M30.2125 49.4441C30.2125 51.1202 30.228 52.8117 30.2125 54.4878C30.1969 55.5275 29.5435 56.319 28.5634 56.5363C27.6921 56.738 26.712 56.3035 26.3231 55.481C26.1675 55.1396 26.0741 54.7361 26.0741 54.3636C26.0586 51.0581 26.0586 47.7526 26.0586 44.447C26.0586 43.1434 26.9454 42.1968 28.1433 42.1968C29.3412 42.1968 30.2125 43.1434 30.228 44.447C30.2125 46.1231 30.2125 47.7836 30.2125 49.4441Z" fill="#238FFF"/>
<path d="M7.32856 30.7753C5.69501 30.7753 4.07703 30.7753 2.44348 30.7753C1.08997 30.7753 0.156509 29.8907 0.172067 28.6647C0.187624 27.4698 1.12108 26.6162 2.44348 26.6162C5.74169 26.6162 9.0399 26.6162 12.3225 26.6162C13.6294 26.6162 14.5784 27.5008 14.5784 28.6957C14.5784 29.8907 13.6294 30.7598 12.3225 30.7753C10.6579 30.7753 8.99322 30.7753 7.32856 30.7753Z" fill="#238FFF"/>
<path d="M43.8125 32.8079C43.937 32.7458 44.0614 32.6372 44.2014 32.6372C47.1107 32.6372 50.02 32.6372 52.9292 32.6372C52.9604 32.6372 52.9915 32.6682 53.1315 32.7303C52.8359 33.9718 52.5248 35.2289 52.1825 36.6256C49.8177 34.2357 47.064 33.0873 43.8592 32.9941C43.8281 32.9321 43.8281 32.87 43.8125 32.8079Z" fill="#238FFF"/>
<path d="M32.405 44.3384C32.4828 47.5818 33.6185 50.3287 36.0299 52.6876C34.6764 53.0135 33.4318 53.3238 32.1094 53.6342C32.1094 50.5149 32.1094 47.4887 32.1249 44.4625C32.1249 44.4315 32.2649 44.4005 32.405 44.3384Z" fill="#238FFF"/>
</svg>
