<svg width="57" height="56" viewBox="0 0 57 56" fill="none" xmlns="http://www.w3.org/2000/svg">
<path d="M29.324 0.766113C30.6246 1.00433 31.9471 1.16091 33.2203 1.49815C36.2911 2.31183 38.921 3.90839 41.1443 6.12324C43.5593 8.52947 45.183 11.388 45.925 14.6882C46.8861 18.9627 46.3015 23.0485 44.1932 26.9121C43.4525 28.2704 42.5284 29.503 41.3976 30.6673C39.7233 29.6114 37.8285 29.78 35.9598 29.78C34.2841 29.78 32.6083 29.7572 30.9326 29.792C30.333 29.8041 29.8798 29.6462 29.413 29.2674C26.5476 26.9469 23.2345 25.8428 19.5203 25.9539C17.3996 26.0181 15.3912 26.5561 13.4978 27.4969C13.3062 27.5919 13.109 27.6789 12.8886 27.7806C11.7181 25.9579 10.9418 24.0107 10.5407 21.9283C9.76173 17.8827 10.3176 14.0057 12.2657 10.3576C14.3426 6.46584 17.479 3.68088 21.6437 2.02543C23.3249 1.35763 25.0704 0.958825 26.883 0.839719C26.9706 0.834366 27.0541 0.791541 27.1404 0.766113C27.866 0.766113 28.5957 0.766113 29.324 0.766113ZM29.8716 23.0993C30.0428 23.0204 30.1906 22.9548 30.3357 22.8852C32.9533 21.6138 33.9144 18.6709 32.4879 16.1751C31.5651 14.5624 30.0838 13.8157 28.2247 13.7166C27.4334 13.6738 26.8967 13.2576 26.679 12.5764C26.4873 11.9755 26.6941 11.301 27.1979 10.8875C27.7414 10.4419 28.4875 10.3602 29.1323 10.759C29.5882 11.0414 29.9989 11.4028 30.3973 11.7614C31.1394 12.4306 32.0717 12.4747 32.7439 11.8404C33.4311 11.194 33.4202 10.2518 32.7233 9.5024C32.0046 8.72887 31.19 8.09185 30.1947 7.67966C30.0469 7.6181 29.8976 7.38524 29.8853 7.22197C29.8456 6.68934 29.8812 6.15269 29.8675 5.61871C29.8442 4.68995 29.1652 4.00073 28.2698 3.98066C27.3526 3.95925 26.6311 4.65114 26.5969 5.59864C26.5804 6.06168 26.5585 6.52874 26.6023 6.98911C26.6434 7.43074 26.4627 7.63282 26.0643 7.8175C22.9087 9.27087 22.3802 13.5935 25.0635 15.7749C26.0178 16.5511 27.1157 16.8669 28.3287 16.9446C29.3322 17.0088 30.0085 17.868 29.8415 18.7887C29.6704 19.7335 28.775 20.3371 27.8167 20.048C27.3143 19.8968 26.8529 19.5716 26.4175 19.2625C25.6084 18.687 24.6747 18.7338 24.0724 19.4298C23.4768 20.119 23.5398 21.0919 24.3174 21.7075C24.9047 22.1719 25.5715 22.5493 26.2354 22.9093C26.4983 23.0511 26.6147 23.1702 26.5982 23.4633C26.5736 23.9264 26.5845 24.3907 26.5941 24.8538C26.6133 25.8562 27.2937 26.5628 28.2315 26.5641C29.1679 26.5655 29.8552 25.8548 29.8703 24.8578C29.8785 24.2703 29.8716 23.6828 29.8716 23.0993Z" fill="#238FFF"/>
<path d="M0.247422 30.9576C0.685516 30.0355 1.43165 29.7063 2.44748 29.7692C3.31819 29.8227 4.19438 29.7745 5.06783 29.7812C8.07151 29.8026 10.1867 31.8636 10.1922 34.8051C10.2031 39.6537 10.1976 44.5036 10.1922 49.3522C10.1922 50.0106 10.2113 50.6758 10.1292 51.3275C9.9649 52.631 9.24752 53.8368 8.1783 54.6304C7.29253 55.2875 6.17675 55.5471 5.08426 55.6234C3.66045 55.7224 1.3098 56.0597 0.458255 54.6264C0.185815 54.1687 0.244684 53.7659 0.247422 53.2546C0.25016 52.7929 0.251529 52.3299 0.251529 51.8682C0.252898 50.9434 0.252898 50.0187 0.252898 49.0939C0.251529 47.2444 0.246053 45.3949 0.244684 43.5454C0.244684 43.4343 0.244684 43.3233 0.244684 43.2122C0.244684 39.4985 0.244684 35.7847 0.244684 32.0724C0.247422 31.7003 0.247422 31.3283 0.247422 30.9576Z" fill="#238FFF"/>
<path d="M13.4764 52.3515C13.4764 52.1293 13.4764 51.954 13.4764 51.7787C13.4764 45.0873 13.4805 38.3959 13.4668 31.7058C13.4654 31.3191 13.5832 31.1076 13.9241 30.9056C18.4611 28.217 23.7524 28.6318 27.7418 32.0672C28.5236 32.7403 29.3203 33.0307 30.3526 33.0093C32.9196 32.9585 35.4893 32.9772 38.0576 32.9973C40.4657 33.016 42.0182 35.1225 41.2502 37.2905C40.7861 38.6007 39.5512 39.4117 37.9768 39.4143C34.8622 39.421 31.7463 39.4157 28.6317 39.417C28.4318 39.417 28.2292 39.409 28.0307 39.4331C27.1874 39.5401 26.5809 40.2334 26.5987 41.0564C26.6165 41.858 27.2216 42.5138 28.0471 42.6128C28.2087 42.6329 28.3743 42.6275 28.5386 42.6275C31.9996 42.6289 35.4619 42.6316 38.9228 42.6262C40.1974 42.6249 41.242 42.1632 42.0538 41.1675C44.8262 37.7656 47.6135 34.3757 50.4036 30.9885C51.3017 29.8978 52.7255 29.5137 54.0398 29.9768C55.3527 30.4398 56.2125 31.6403 56.2084 33.016C56.2057 33.7949 55.8921 34.464 55.4458 35.0944C53.9495 37.2035 52.4627 39.318 50.9732 41.4311C49.4015 43.662 47.86 45.9144 46.25 48.1185C44.2717 50.8285 41.5665 52.3394 38.1438 52.3568C30.0377 52.3997 21.9302 52.3702 13.8241 52.3702C13.7324 52.3689 13.6434 52.3595 13.4764 52.3515Z" fill="#238FFF"/>
</svg>
