<svg width="61" height="60" viewBox="0 0 61 60" fill="none" xmlns="http://www.w3.org/2000/svg">
<rect x="0.820312" width="60" height="60" rx="30" fill="white"/>
<path d="M43.2774 27.6726C35.6985 27.6726 28.1534 27.6726 20.5914 27.6726C20.5914 26.9444 20.5746 26.2416 20.5999 25.5303C20.6168 25.1577 20.9459 24.8529 21.3173 24.7852C21.4607 24.7598 21.6127 24.7598 21.7561 24.7598C28.5417 24.7598 35.3188 24.7598 42.1043 24.7598C42.9736 24.7598 43.2774 25.0646 43.2774 25.9452C43.2774 26.521 43.2774 27.0883 43.2774 27.6726Z" fill="#238FFF"/>
<path d="M28.1129 23.5234C26.4418 23.5234 24.7876 23.5234 23.1419 23.5234C23.0912 23.1254 23.2516 22.9137 23.6567 22.846C24.104 22.7698 24.5513 22.6936 24.9986 22.6258C25.1674 22.6004 25.2602 22.5327 25.3193 22.3549C25.4881 21.8807 25.7075 21.4234 25.8848 20.9493C25.927 20.8392 25.9185 20.6614 25.8595 20.5598C25.6147 20.1703 25.3362 19.7977 25.0746 19.4082C24.8551 19.0864 24.872 18.8409 25.1505 18.5614C25.4544 18.2481 25.7582 17.9433 26.062 17.6385C26.3405 17.3675 26.5853 17.3421 26.906 17.5707C27.2773 17.8248 27.6487 18.0873 28.0116 18.3582C28.1551 18.4683 28.2648 18.4768 28.4336 18.3921C28.8893 18.1804 29.3535 17.9941 29.8261 17.8163C29.978 17.757 30.0624 17.6978 30.0878 17.5199C30.1468 17.0712 30.2397 16.6224 30.3156 16.1736C30.3916 15.7502 30.5604 15.5978 30.9992 15.5894C31.4212 15.5894 31.8432 15.5894 32.2652 15.5894C32.6703 15.5894 32.8391 15.7333 32.9151 16.1313C32.9995 16.5885 33.0923 17.0458 33.1514 17.503C33.1767 17.6808 33.2527 17.7486 33.4046 17.8078C33.8856 17.9857 34.3498 18.2058 34.8309 18.3836C34.9322 18.426 35.101 18.426 35.1854 18.3667C35.5736 18.1127 35.9449 17.8332 36.3247 17.5707C36.6623 17.3337 36.8986 17.3591 37.194 17.647C37.4978 17.9433 37.7932 18.2397 38.0886 18.5445C38.384 18.8493 38.4093 19.0695 38.173 19.4167C37.9114 19.7977 37.6329 20.1703 37.3797 20.5682C37.3206 20.6614 37.3206 20.8222 37.3544 20.9239C37.54 21.4065 37.7595 21.8722 37.9283 22.3633C37.9873 22.5327 38.0633 22.6004 38.2236 22.6258C38.6794 22.6936 39.1351 22.7698 39.5909 22.8544C39.9791 22.9222 40.1141 23.1169 40.1057 23.5234C38.4431 23.5234 36.7889 23.5234 35.1263 23.5234C34.4849 21.5843 33.3877 20.6529 31.6913 20.5936C30.8136 20.5598 30.0371 20.8392 29.3535 21.3896C28.6952 21.9399 28.2901 22.6597 28.1129 23.5234Z" fill="#238FFF"/>
<path d="M29.1328 37.884C29.3354 37.4522 29.4957 37.0965 29.6645 36.7324C29.6898 36.6732 29.7067 36.6054 29.7489 36.5631C30.2047 36.0974 30.6604 35.6317 31.133 35.149C31.631 35.8095 32.2386 36.1736 33.0404 36.1736C34.011 36.1736 34.8212 35.5639 35.1419 34.641C35.2179 34.4293 35.3613 34.243 35.4964 34.0652C35.5976 33.9297 35.7327 33.8281 35.8508 33.7011C36.1125 33.4301 36.391 33.2184 36.7708 33.0745C37.5641 32.7866 38.0367 32.1685 38.1464 31.3217C38.2646 30.4327 37.9354 29.7044 37.2096 29.171C37.1083 29.0948 36.9986 29.0355 36.8383 28.9424C38.6191 28.9424 40.3576 28.9424 42.1384 28.9424C42.0625 29.0355 41.9949 29.1202 41.9274 29.2049C39.3533 32.0753 36.7792 34.9458 34.2051 37.8078C33.8844 38.1634 33.724 38.5529 33.7325 39.0356C33.7493 40.6613 33.7409 42.2956 33.7409 43.9213C33.7409 44.404 33.5637 44.514 33.1332 44.3193C32.0867 43.8451 31.0486 43.3625 30.0021 42.8883C29.6645 42.7359 29.5126 42.4903 29.5126 42.1177C29.521 41.1525 29.5042 40.1956 29.521 39.2303C29.521 38.7138 29.5126 38.2142 29.1328 37.884Z" fill="#238FFF"/>
<path d="M18.3633 37.9602C18.3633 37.4437 18.7431 37.0288 19.2748 36.9441C19.4351 36.9187 19.5955 36.8256 19.7305 36.724C19.8993 36.5969 20.0343 36.4276 20.1778 36.2836C20.3888 36.0804 20.5576 35.8857 20.5914 35.547C20.642 35.0559 21.1146 34.7341 21.621 34.7595C22.1021 34.7849 22.4903 35.1829 22.5578 35.674C22.5747 35.8179 22.6675 36.0296 22.7773 36.072C22.887 36.1143 23.0895 36.0127 23.1992 35.9195C23.5453 35.6062 23.8575 35.2675 24.1867 34.9373C24.423 34.7002 24.634 34.4885 24.6846 34.1075C24.7437 33.6164 25.2501 33.3031 25.7312 33.3454C26.2207 33.3962 26.6004 33.7773 26.6426 34.2853C26.6595 34.5055 27.2165 35.1913 27.4191 35.1998C27.5288 35.2083 27.6723 35.1659 27.7482 35.0897C28.5922 34.2599 29.4193 33.4216 30.2464 32.5749C30.3139 32.4987 30.3646 32.3801 30.373 32.2785C30.4405 31.6858 30.8709 31.2709 31.4111 31.2878C31.9428 31.3048 32.2973 31.7197 32.4154 32.287C32.4661 32.5326 32.7446 32.7358 32.9471 32.9221C32.9893 32.9644 33.1919 32.8882 33.2678 32.812C33.7911 32.3039 34.3059 31.7874 34.8123 31.2709C34.8798 31.2032 34.9136 31.0931 34.922 30.9915C34.9895 30.3903 35.4284 29.9754 35.9854 30.0093C36.4918 30.0347 36.9138 30.4665 36.9391 30.9745C36.9644 31.5419 36.5509 31.9737 35.9432 32.033C35.8419 32.0414 35.7238 32.0922 35.6478 32.1685C35.1499 32.6511 34.6604 33.1507 34.1709 33.6503C34.0949 33.7349 34.0358 33.862 34.0274 33.972C33.9599 34.5478 33.5548 34.9543 33.0146 34.9543C32.4661 34.9543 32.0947 34.5393 31.985 33.9551C31.9428 33.718 31.698 33.4809 31.487 33.3285C31.3098 33.2015 31.1495 33.4047 31.0144 33.5402C30.2295 34.3277 29.4446 35.1067 28.6766 35.9026C28.5753 36.0042 28.5078 36.1651 28.4909 36.309C28.4234 36.8256 28.0099 37.232 27.4951 37.2405C26.9887 37.2489 26.5414 36.8425 26.4907 36.326C26.4485 35.8349 26.0097 35.6655 25.7312 35.3776C25.689 35.3353 25.4611 35.3946 25.3767 35.4792C24.9041 35.928 24.4399 36.3937 23.9926 36.8679C23.9166 36.9441 23.8829 37.088 23.866 37.2066C23.8069 37.7231 23.3849 38.1295 22.8785 38.138C22.3722 38.1465 21.9417 37.7485 21.8658 37.232C21.8404 37.0881 21.756 36.8594 21.6548 36.834C21.5197 36.8002 21.3256 36.9018 21.199 36.9949C21.0218 37.1219 20.8868 37.3082 20.7264 37.4606C20.507 37.6638 20.3551 37.8671 20.3129 38.1973C20.2538 38.7138 19.7558 39.0356 19.2241 38.9763C18.7431 38.917 18.3633 38.4767 18.3633 37.9602Z" fill="#238FFF"/>
<path d="M27.6893 33.4301C27.0647 32.2532 25.8156 31.762 24.5159 32.3886C23.5622 31.254 22.6085 30.1194 21.6211 28.9424C26.111 28.9424 30.5503 28.9424 35.0318 28.9424C34.9137 29.0186 34.8208 29.0779 34.728 29.1371C34.2976 29.4166 34.019 29.8061 33.8249 30.2887C33.7068 30.5766 33.5127 30.8306 33.3185 31.1524C32.8037 30.4581 32.2129 30.094 31.4449 30.077C30.4237 30.0516 29.5375 30.7121 29.2422 31.6943C29.2 31.8383 29.1156 31.9822 29.0143 32.0923C28.5923 32.541 28.145 32.9729 27.6893 33.4301Z" fill="#238FFF"/>
</svg>
