<svg width="66" height="54" viewBox="0 0 66 54" fill="none" xmlns="http://www.w3.org/2000/svg">
<path d="M65.5743 27.4656C65.4799 28.9472 65.5481 30.4599 65.2616 31.9034C64.3008 36.7318 59.703 39.8678 54.796 39.1418C54.3138 39.0709 54.0588 39.2092 53.7863 39.5964C49.8627 45.1579 44.5242 48.6033 37.8109 49.9552C37.3498 50.0486 37.1122 50.2232 36.9165 50.6416C35.823 52.9737 33.2201 54.1907 30.7186 53.5805C28.2467 52.9771 26.4841 50.6934 26.5697 48.2023C26.657 45.6195 28.5681 43.4602 31.1378 43.0332C33.3284 42.6702 35.5679 43.6936 36.6894 45.6385C36.9515 46.0932 37.2013 46.1537 37.6694 46.0482C46.4476 44.0774 52.9215 37.0914 54.1147 28.2816C55.6013 17.2987 47.8835 6.83788 36.8956 4.93796C25.4796 2.9637 14.8079 10.0188 12.3465 21.2438C11.2687 26.1604 11.9884 30.8869 14.3449 35.3557C15.2463 37.0655 14.7991 38.1719 12.9422 38.7874C7.0936 40.7271 0.918336 36.5486 0.682506 30.4253C0.593414 28.1243 0.565464 25.7991 0.796054 23.5136C1.21356 19.3698 4.98685 15.9364 9.19162 15.6979C9.85543 15.6598 10.1402 15.4161 10.4389 14.8508C15.3948 5.44795 23.2541 0.460437 33.9678 0.785446C44.0107 1.08971 51.2812 6.16885 55.8179 15.034C56.0467 15.4818 56.2826 15.6512 56.7857 15.6806C61.635 15.9641 65.4433 19.9316 65.5096 24.7428C65.5219 25.6487 65.5114 26.5546 65.5114 27.4604C65.5324 27.4622 65.5533 27.4639 65.5743 27.4656Z" fill="#238FFF"/>
<path d="M32.8538 9.26318C41.5847 9.27183 48.7557 15.7737 49.4562 24.103C50.2091 33.0442 43.7701 40.7736 34.7823 41.7399C32.9621 41.9353 31.1768 41.7901 29.3914 41.4391C29.07 41.3752 28.6525 41.4339 28.3678 41.593C26.3344 42.7184 24.3324 43.8957 22.3043 45.0333C20.9627 45.7853 19.4656 45.1041 19.2769 43.6589C19.2315 43.3097 19.3189 42.9311 19.4114 42.5819C19.8901 40.7701 20.3845 38.9618 20.8893 37.157C20.9924 36.7905 20.9277 36.5346 20.6744 36.2303C16.5902 31.3154 15.4408 25.7816 17.7187 19.8329C20.0351 13.7891 24.6643 10.3558 31.1313 9.38765C31.7759 9.28911 32.4363 9.29084 32.8538 9.26318ZM33.0721 27.4827C34.1587 27.4793 35.0286 26.6356 35.0409 25.5759C35.0531 24.4989 34.136 23.593 33.0547 23.6103C31.9925 23.6276 31.1174 24.5127 31.1209 25.5638C31.1261 26.6287 31.9978 27.4879 33.0721 27.4827ZM26.5405 27.4827C27.6236 27.4845 28.49 26.6408 28.5005 25.5742C28.511 24.5317 27.6306 23.631 26.5772 23.6103C25.5011 23.5878 24.5753 24.4989 24.584 25.569C24.591 26.6339 25.4574 27.481 26.5405 27.4827ZM39.595 27.4827C40.6798 27.4948 41.555 26.6633 41.5812 25.5984C41.6057 24.5317 40.6903 23.6051 39.616 23.6103C38.5574 23.6155 37.6699 24.4954 37.663 25.5448C37.6577 26.6114 38.5137 27.4706 39.595 27.4827Z" fill="#238FFF"/>
</svg>
