<svg width="107" height="108" viewBox="0 0 107 108" fill="none" xmlns="http://www.w3.org/2000/svg">
<path d="M99.4634 46.5111C103.57 71.8141 86.3867 95.6553 61.0837 99.7618C35.7807 103.868 11.9395 86.6851 7.83297 61.3821C3.72645 36.0791 20.9096 12.2379 46.2127 8.13138C71.5157 4.02486 95.3569 21.208 99.4634 46.5111Z" fill="#9E53C1"/>
<g filter="url(#filter0_d_2085_7637)">
<path d="M91.3554 47.8269C94.7352 68.6521 80.5929 88.274 59.7678 91.6538C38.9427 95.0336 19.3207 80.8913 15.9409 60.0662C12.5611 39.2411 26.7034 19.6192 47.5285 16.2394C68.3536 12.8596 87.9756 27.0018 91.3554 47.8269Z" fill="white"/>
</g>
<path fill-rule="evenodd" clip-rule="evenodd" d="M49.8557 51.0953L52.4654 53.6261L56.9613 48.9749C57.4069 48.5148 57.6847 48.1448 58.2341 48.72L60.0135 50.5761C60.5996 51.1637 60.569 51.5088 60.0166 52.056L53.4817 58.5913C52.3188 59.751 52.5233 59.8225 51.3421 58.6317L46.8614 54.0894C46.6173 53.8189 46.6417 53.5453 46.9103 53.2748L48.9766 51.0922C49.2849 50.7596 49.5352 50.7813 49.8557 51.0953ZM63.1146 37.6517C62.7026 37.3594 62.2356 37.232 61.7594 37.3284C61.2833 37.4247 60.8804 37.6859 60.5935 38.0932L58.9849 40.4032C58.4142 40.1452 57.819 39.9493 57.1841 39.7876C56.5492 39.626 55.9541 39.4954 55.3192 39.399L54.8095 36.377C54.7149 35.8578 54.4585 35.4816 54.0891 35.1893C53.6771 34.8971 53.2406 34.8007 52.734 34.8971L49.0163 35.5779C48.5402 35.6743 48.1678 35.9013 47.8504 36.321C47.5635 36.7407 47.4383 37.1853 47.5329 37.7014L48.0091 40.4623C47.4047 40.7204 46.8431 41.0126 46.3029 41.3577C45.7626 41.6811 45.2346 42.0697 44.7554 42.4459L42.2343 40.6768C41.8222 40.3846 41.3857 40.2571 40.9096 40.3535C40.4334 40.4499 40.0305 40.711 39.7436 41.1308L37.5979 44.2554C37.311 44.6751 37.1859 45.1508 37.2805 45.6358C37.3751 46.155 37.6315 46.5312 38.0435 46.8235L40.3113 48.462C40.058 49.0433 39.8657 49.6496 39.707 50.2963C39.5483 50.943 39.4201 51.5493 39.3255 52.196L36.3587 52.7152C33.8437 53.1971 35.266 56.8689 35.5743 58.6162C35.6689 59.1012 35.8917 59.4805 36.2946 59.8039C36.7066 60.0961 37.1431 60.2236 37.6498 60.1272L40.3602 59.6422C40.6135 60.2578 40.9004 60.8299 41.2392 61.3802C41.5567 61.9305 41.9382 62.4683 42.3075 62.9876L40.5708 65.5246C40.2839 65.9443 40.1587 66.3889 40.2534 66.8739C40.348 67.3589 40.6013 67.7693 41.0042 68.0616L44.0961 70.2721C44.5082 70.5644 44.9752 70.6607 45.4513 70.5644C45.9275 70.468 46.3304 70.241 46.6478 69.8306L48.2594 67.4895C48.8301 67.7475 49.4253 67.9434 50.0602 68.1051C50.6951 68.2668 51.2872 68.3973 51.9251 68.4937L52.4348 71.5157C52.5295 72.035 52.7858 72.4112 53.1552 72.7034C53.5672 72.9957 54.0037 73.092 54.5104 72.9957L58.228 72.3148C58.7041 72.2184 59.0765 71.9914 59.3939 71.581C59.6808 71.1613 59.806 70.7167 59.7114 70.2006L59.2352 67.4397C59.8396 67.1817 60.4012 66.8894 60.9414 66.5443C61.4817 66.221 62.0128 65.8417 62.5194 65.4562L65.0101 67.2252C65.4221 67.5175 65.8586 67.6449 66.3652 67.5486C66.875 67.4522 67.2443 67.191 67.5312 66.7837L69.7013 63.6311C69.9883 63.2114 70.0829 62.7357 69.9883 62.2507C69.8936 61.7657 69.6708 61.3553 69.2588 61.0319L66.9604 59.4246C67.2138 58.8432 67.4061 58.2369 67.5648 57.5902C67.7235 56.9435 67.8517 56.3372 67.9463 55.6905L70.9131 55.1713C71.4228 55.075 71.7921 54.8138 72.079 54.4283C72.3659 54.0085 72.4606 53.5639 72.3659 53.0478L71.6975 49.261C71.6029 48.776 71.3801 48.3967 70.9772 48.0733C70.5651 47.7811 70.1287 47.6536 69.622 47.75L66.9116 48.235C66.6583 47.6536 66.3713 47.0815 66.0326 46.497C65.7151 45.9156 65.3336 45.4088 64.9643 44.9207L66.701 42.3526C66.9879 41.9329 67.113 41.4883 67.0184 41.0033C66.9238 40.5183 66.6674 40.1079 66.2676 39.8156L63.2001 37.6175L63.1146 37.6517ZM51.8091 43.8108C53.1491 43.5869 54.5073 43.5869 55.8472 43.9009C57.1444 44.2118 58.3257 44.7466 59.4031 45.4897C60.4378 46.2483 61.3565 47.2121 62.1013 48.3687C62.846 49.5128 63.313 50.8062 63.5297 52.1711C63.7495 53.536 63.7495 54.9195 63.4412 56.2844C63.136 57.6057 62.611 58.809 61.8815 59.9065C61.1368 60.9604 60.1906 61.8963 59.0521 62.6549C57.9289 63.4135 56.6591 63.8892 55.3192 64.1099C53.9793 64.3338 52.621 64.3338 51.2811 64.0198C49.9839 63.7089 48.8027 63.1741 47.7252 62.431C46.6905 61.6724 45.7718 60.7086 45.0271 59.552C44.2823 58.4079 43.8153 57.1145 43.5986 55.7496C43.3788 54.3847 43.3788 53.0012 43.6871 51.6363C43.9923 50.315 44.5173 49.1117 45.2468 48.0142C45.9916 46.9603 46.9378 46.0244 48.0762 45.2658C49.2147 44.5228 50.4661 44.0315 51.8091 43.8108Z" fill="#9850BA"/>
<defs>
<filter id="filter0_d_2085_7637" x="7.54189" y="11.8402" width="92.2126" height="92.2127" filterUnits="userSpaceOnUse" color-interpolation-filters="sRGB">
<feFlood flood-opacity="0" result="BackgroundImageFix"/>
<feColorMatrix in="SourceAlpha" type="matrix" values="0 0 0 0 0 0 0 0 0 0 0 0 0 0 0 0 0 0 127 0" result="hardAlpha"/>
<feOffset dy="4"/>
<feGaussianBlur stdDeviation="3.95"/>
<feComposite in2="hardAlpha" operator="out"/>
<feColorMatrix type="matrix" values="0 0 0 0 0 0 0 0 0 0 0 0 0 0 0 0 0 0 0.25 0"/>
<feBlend mode="normal" in2="BackgroundImageFix" result="effect1_dropShadow_2085_7637"/>
<feBlend mode="normal" in="SourceGraphic" in2="effect1_dropShadow_2085_7637" result="shape"/>
</filter>
</defs>
</svg>
