<svg width="107" height="108" viewBox="0 0 107 108" fill="none" xmlns="http://www.w3.org/2000/svg">
<path d="M99.3003 61.5651C103.407 36.2621 86.2236 12.4209 60.9206 8.3144C35.6176 4.20788 11.7764 21.391 7.66989 46.6941C3.56337 71.9971 20.7465 95.8383 46.0496 99.9448C71.3526 104.051 95.1938 86.8681 99.3003 61.5651Z" fill="#5B85D7"/>
<g filter="url(#filter0_d_3258_41411)">
<path d="M91.1923 60.2492C94.5721 39.4241 80.4298 19.8022 59.6047 16.4224C38.7796 13.0426 19.1576 27.1848 15.7778 48.0099C12.3981 68.8351 26.5403 88.457 47.3654 91.8368C68.1905 95.2166 87.8125 81.0743 91.1923 60.2492Z" fill="white"/>
</g>
<g clip-path="url(#clip0_3258_41411)">
<path d="M49.9293 61.8694C49.9293 62.0546 49.9293 62.214 49.9293 62.3745C49.9293 65.1828 49.9363 67.9899 49.9269 70.7982C49.9187 73.2198 48.1304 75.0013 45.7033 75.006C42.3833 75.013 39.0644 75.013 35.7444 75.006C33.2951 75.0013 31.5056 73.2174 31.5044 70.7701C31.4985 63.6486 31.4985 56.5259 31.5044 49.4043C31.5067 46.957 33.2963 45.179 35.7503 45.1755C39.0551 45.1696 42.361 45.1708 45.6658 45.1755C48.1456 45.179 49.9234 46.9535 49.9281 49.4336C49.934 52.7975 49.9293 56.1602 49.9293 59.524C49.9293 59.6834 49.9293 59.844 49.9293 60.0034C50.8797 60.0034 51.6778 59.1033 51.6813 58.0191C51.6895 55.6058 51.6825 53.1936 51.6848 50.7803C51.686 49.654 52.0915 48.6976 52.92 47.9322C53.6138 47.2911 54.4412 46.9664 55.3834 46.9348C55.5978 46.9277 55.8135 46.9336 56.0713 46.9336C56.0713 46.732 56.0713 46.5749 56.0713 46.4179C56.0713 43.0692 56.0701 39.7194 56.0713 36.3708C56.0725 33.7723 57.8233 32.0154 60.4121 32.0142C63.6583 32.0119 66.9057 32.0119 70.1519 32.0142C72.7465 32.0154 74.4974 33.7676 74.4974 36.3661C74.4985 43.415 74.4997 50.4639 74.4974 57.5128C74.4962 60.0819 72.7371 61.8459 70.1788 61.8483C66.9174 61.8506 63.656 61.8506 60.3957 61.8483C57.8339 61.8459 56.0748 60.0843 56.0725 57.5174C56.0701 54.7537 56.0713 51.9899 56.0713 49.225C56.0713 49.0656 56.0713 48.9062 56.0713 48.7538C54.6591 48.4245 53.4462 49.3668 53.4415 50.7932C53.4333 53.0893 53.4392 55.3854 53.4392 57.6815C53.4392 59.9847 52.3446 61.3408 50.098 61.8248C50.0547 61.8295 50.0137 61.8447 49.9293 61.8694ZM72.7231 39.0631C67.7424 39.0631 62.7958 39.0631 57.8468 39.0631C57.8468 41.6909 57.8468 44.2882 57.8468 46.9031C60.0336 46.9031 62.1981 46.9031 64.42 46.9031C64.3415 46.807 64.2982 46.7554 64.256 46.7027C63.8798 46.2397 63.8786 45.7627 64.2536 45.4146C64.6263 45.0688 65.1185 45.0969 65.5416 45.5095C66.0959 46.0498 66.6455 46.5972 67.1846 47.1539C67.5385 47.5196 67.6147 47.9638 67.3065 48.2991C66.6736 48.9859 66.0092 49.6458 65.3201 50.2763C65.0072 50.5623 64.5443 50.4803 64.2419 50.1884C63.9278 49.8849 63.8821 49.4407 64.1306 49.0703C64.2079 48.9554 64.2993 48.8499 64.4048 48.714C62.1887 48.714 60.0218 48.714 57.8596 48.714C57.8596 50.7651 57.8596 52.7869 57.8596 54.8053C62.8298 54.8053 67.7659 54.8053 72.7231 54.8053C72.7231 49.552 72.7231 44.3234 72.7231 39.0631ZM33.2881 52.2126C33.2881 57.487 33.2881 62.7262 33.2881 67.9513C38.2664 67.9513 43.213 67.9513 48.148 67.9513C48.148 65.9037 48.148 63.8912 48.148 61.8447C46.7956 61.8447 45.4678 61.8588 44.1412 61.8354C43.7896 61.8295 43.6466 61.9397 43.5212 62.2655C42.9118 63.8467 41.2641 64.7281 39.593 64.4022C37.9581 64.0846 36.7686 62.6359 36.7686 60.9657C36.7686 59.2779 37.9663 57.8433 39.6387 57.5245C41.3005 57.208 42.9318 58.1093 43.5365 59.7139C43.6525 60.0198 43.7955 60.1007 44.1002 60.0972C45.3131 60.0819 46.5272 60.0901 47.7401 60.0901C47.8784 60.0901 48.0179 60.0901 48.1503 60.0901C48.1503 57.426 48.1503 54.8287 48.1503 52.2126C43.1908 52.2126 38.2546 52.2126 33.2881 52.2126Z" fill="#577ECA"/>
<path d="M45.9791 35.5223C46.6904 35.5223 47.2881 36.1142 47.2951 36.8245C47.3022 37.5535 46.6881 38.163 45.9603 38.1513C45.2501 38.1396 44.6618 37.5371 44.6665 36.8269C44.6712 36.1166 45.2689 35.5235 45.9791 35.5223Z" fill="#577ECA"/>
<path d="M35.8855 37.2556C35.8972 37.7397 35.494 38.1511 35.01 38.1511C34.5436 38.1499 34.1487 37.7643 34.137 37.2966C34.1252 36.8126 34.5272 36.4012 35.0124 36.4023C35.4788 36.4023 35.8738 36.788 35.8855 37.2556Z" fill="#577ECA"/>
<path d="M52.5424 41.6606C52.0584 41.65 51.6647 41.2293 51.6869 40.7452C51.7092 40.2787 52.1123 39.9013 52.5788 39.9118C53.0628 39.9224 53.4577 40.3443 53.4343 40.8261C53.412 41.2937 53.0077 41.6711 52.5424 41.6606Z" fill="#577ECA"/>
<path d="M53.4436 66.1979C53.4623 65.7303 53.8631 65.3517 54.3296 65.3587C54.8136 65.3658 55.2108 65.7854 55.1909 66.2671C55.1722 66.7336 54.7702 67.1145 54.3038 67.1075C53.8198 67.1004 53.4237 66.682 53.4436 66.1979Z" fill="#577ECA"/>
<path d="M64.8435 73.2591C64.84 73.7431 64.4252 74.144 63.9423 74.1276C63.4747 74.1123 63.0927 73.715 63.0962 73.2474C63.0997 72.7621 63.5134 72.3636 63.9974 72.3788C64.4627 72.3941 64.8459 72.7926 64.8435 73.2591Z" fill="#577ECA"/>
</g>
<defs>
<filter id="filter0_d_3258_41411" x="7.37881" y="12.0232" width="92.2126" height="92.2127" filterUnits="userSpaceOnUse" color-interpolation-filters="sRGB">
<feFlood flood-opacity="0" result="BackgroundImageFix"/>
<feColorMatrix in="SourceAlpha" type="matrix" values="0 0 0 0 0 0 0 0 0 0 0 0 0 0 0 0 0 0 127 0" result="hardAlpha"/>
<feOffset dy="4"/>
<feGaussianBlur stdDeviation="3.95"/>
<feComposite in2="hardAlpha" operator="out"/>
<feColorMatrix type="matrix" values="0 0 0 0 0 0 0 0 0 0 0 0 0 0 0 0 0 0 0.25 0"/>
<feBlend mode="normal" in2="BackgroundImageFix" result="effect1_dropShadow_3258_41411"/>
<feBlend mode="normal" in="SourceGraphic" in2="effect1_dropShadow_3258_41411" result="shape"/>
</filter>
<clipPath id="clip0_3258_41411">
<rect width="43" height="43" fill="white" transform="translate(31.5 32.0107)"/>
</clipPath>
</defs>
</svg>
