<svg width="78" height="78" viewBox="0 0 78 78" fill="none" xmlns="http://www.w3.org/2000/svg">
<g clip-path="url(#clip0_0_7872)">
<path fill-rule="evenodd" clip-rule="evenodd" d="M6.40036 0.499666C3.67766 1.23297 1.60606 3.32583 0.892969 6.06366C0.55671 7.3548 0.556411 61.0033 0.892669 62.2942C1.1671 63.3475 1.62298 64.0856 2.49521 64.8882C3.3682 65.6916 4.50932 66.1061 6.19855 66.2337L7.55691 66.3362V70.1237V73.9112L4.55004 73.9575L1.54318 74.0036L1.10661 74.4925C0.534403 75.1335 0.534403 75.7185 1.10691 76.3592L1.54378 76.8481L38.9064 76.8865L76.269 76.9249L76.7556 76.49C77.1583 76.1301 77.2422 75.947 77.2422 75.4258C77.2422 74.9048 77.1585 74.7216 76.7567 74.3626L76.271 73.9287H73.3541H70.437V70.1324V66.3362L71.7954 66.2337C73.4846 66.1061 74.6256 65.6916 75.4986 64.8882C76.3708 64.0856 76.8269 63.3475 77.1013 62.2942C77.4376 61.0033 77.4371 7.3548 77.1008 6.06366C76.3794 3.29364 74.2995 1.21365 71.5294 0.49218C70.2775 0.166101 7.612 0.173288 6.40036 0.499666ZM71.6569 3.66014C72.5483 4.07231 73.5233 5.048 73.9305 5.9361C74.1995 6.52298 74.2581 6.97827 74.3033 8.84041L74.357 11.0487H39.0108H3.66433V9.12622C3.66433 7.88973 3.74084 6.94967 3.87857 6.49169C4.30197 5.08498 5.3308 4.01781 6.73228 3.53184C7.43609 3.2878 9.42474 3.27388 39.2216 3.30517L70.9611 3.33841L71.6569 3.66014ZM9.72777 5.79492C8.77364 6.20334 8.52137 7.44014 9.24464 8.16326C10.1537 9.07247 11.6673 8.44322 11.6673 7.15613C11.6673 6.17026 10.6002 5.42124 9.72777 5.79492ZM15.7164 5.79492C14.7622 6.20334 14.5099 7.44014 15.2332 8.16326C16.1424 9.07247 17.656 8.44322 17.656 7.15613C17.656 6.17026 16.5888 5.42124 15.7164 5.79492ZM21.705 5.79492C20.7509 6.20334 20.4984 7.44014 21.2217 8.16326C22.1308 9.07247 23.6445 8.44322 23.6445 7.15613C23.6445 6.17026 22.5774 5.42124 21.705 5.79492ZM33.3827 5.80046C32.4296 6.19062 32.1763 7.43999 32.9029 8.1667L33.3146 8.57841L50.7486 8.61764L68.1825 8.65701L68.6701 8.22135C69.0741 7.86038 69.1576 7.67758 69.1576 7.15613C69.1576 6.63512 69.0739 6.45187 68.6721 6.09285L68.1864 5.65898L50.9344 5.66841C41.4456 5.67365 33.5474 5.73309 33.3827 5.80046ZM74.3292 37.7352C74.329 59.9925 74.3132 61.4591 74.0672 61.9486C73.623 62.8329 72.9761 63.1493 71.6125 63.1493H70.437L70.4365 51.509C70.436 40.244 70.4266 39.8532 70.1448 39.3912C69.9493 39.0705 69.6671 38.862 69.2846 38.7558C68.5234 38.5444 59.7747 38.5444 59.0135 38.7558C58.631 38.862 58.3487 39.0705 58.1531 39.3912C57.8834 39.8338 57.8621 40.1724 57.8616 44.0208L57.861 48.173L58.2728 48.6298C58.5315 48.9167 58.8855 49.1185 59.2254 49.1724C59.6817 49.245 59.8454 49.1876 60.2734 48.8054L60.7805 48.3527L60.8258 45.0464L60.8715 41.7401H64.157H67.4428V57.8344V73.9287H64.1525H60.8627L60.8213 65.548L60.7805 57.1673L60.3824 56.7693C60.0783 56.4653 59.8364 56.3712 59.3582 56.3712C58.88 56.3712 58.6379 56.4653 58.3338 56.7693L57.9359 57.1673L57.8949 65.548L57.8536 73.9287H55.7646H53.6755L53.6346 64.185L53.5942 54.4411L53.0992 53.9989L52.604 53.5566L47.2852 53.5996L41.9665 53.6424L41.5296 54.1314L41.093 54.6203V64.2745V73.9287H38.997H36.901V58.0687C36.901 48.3516 36.8456 42.063 36.758 41.8325C36.6793 41.6256 36.4296 41.335 36.2032 41.1865C35.8264 40.9397 35.3498 40.9167 30.613 40.9167C25.8762 40.9167 25.3995 40.9397 25.0227 41.1865C24.7963 41.335 24.5467 41.6256 24.468 41.8325C24.3804 42.063 24.325 48.3516 24.325 58.0687V73.9287H22.2329H20.1408L20.0995 66.1311L20.0581 58.3337L19.5632 57.8914L19.0681 57.4492L13.7648 57.4922L8.46163 57.535L8.04677 57.9497C7.63266 58.3635 7.63162 58.3695 7.58401 60.7568L7.53625 63.1493H6.37102C5.0185 63.1493 4.36964 62.8305 3.92663 61.9486C3.68065 61.4591 3.66478 59.9925 3.66463 37.7352L3.66433 14.043H38.997H74.3296L74.3292 37.7352ZM8.53005 19.2712C8.05171 19.4726 7.70063 19.9523 7.60646 20.5329C7.52966 21.006 7.58326 21.1358 8.04692 21.5995L8.57497 22.1275H12.6472H16.7194L17.2476 21.5995C17.7145 21.1325 17.765 21.0081 17.6862 20.5221C17.6371 20.22 17.4253 19.8006 17.2151 19.5904L16.833 19.2081L12.8312 19.1766C10.6302 19.1593 8.69474 19.2018 8.53005 19.2712ZM21.2559 19.2747C20.3636 19.64 20.0801 20.9097 20.7354 21.6072C21.649 22.5796 23.2703 21.9549 23.2703 20.6304C23.2703 19.5825 22.2241 18.8784 21.2559 19.2747ZM28.477 20.7932C27.08 21.1223 25.6046 22.3233 24.9495 23.6645C24.2837 25.0273 24.2599 26.9934 24.8933 28.2736L25.174 28.841L20.7446 33.2481L16.3153 37.6554L15.5746 37.3689C15.0886 37.1808 14.4598 37.0823 13.7464 37.0823C10.7297 37.0823 8.41792 39.3933 8.4242 42.4029C8.42735 43.9702 8.875 45.0307 10.014 46.1698C11.2296 47.3852 12.2237 47.7754 13.9234 47.7041C16.8126 47.583 18.9161 45.5074 19.0579 42.6376C19.1006 41.7729 19.0408 41.3076 18.7986 40.6184L18.4839 39.723L22.8641 35.334C26.9977 31.1918 27.2697 30.9496 27.6936 31.0289C30.0369 31.468 30.2035 31.4724 31.3526 31.1234L32.46 30.787L37.549 35.8762L42.6382 40.9653L42.324 41.6956C41.1622 44.3965 42.38 47.4804 45.1091 48.7494C45.8185 49.0792 46.1688 49.1442 47.2313 49.1432C48.3045 49.142 48.6472 49.0763 49.4185 48.7235C51.9044 47.5872 53.1813 44.7233 52.327 42.2005L52.0012 41.2385L57.0644 36.1655L62.1279 31.0924L62.7268 31.2131C65.4165 31.7546 67.8254 30.6271 68.9773 28.2874C69.4129 27.4027 69.4633 27.1649 69.4591 26.0232C69.4554 24.951 69.3879 24.6017 69.0363 23.8327C68.5132 22.6883 67.4941 21.6722 66.3199 21.1244C65.5576 20.7687 65.2291 20.7052 64.149 20.7052C63.069 20.7052 62.7405 20.7687 61.9782 21.1244C60.8028 21.6728 59.7843 22.6885 59.2627 23.8327C58.9128 24.5999 58.8445 24.9535 58.8397 26.0252C58.8346 27.1549 58.887 27.4096 59.2914 28.226L59.7488 29.1493L54.7889 34.1077L49.8289 39.066L48.8668 38.74C47.7947 38.3766 46.3764 38.4055 45.4073 38.8105L44.8904 39.0265L39.7047 33.8332L34.5192 28.6401L34.8071 27.8166C35.3917 26.1425 35.0818 24.0997 34.0424 22.7771C32.7255 21.1014 30.5143 20.3133 28.477 20.7932ZM30.8376 23.9241C32.0254 24.4991 32.4963 26.1571 31.7733 27.2193C31.0012 28.3538 29.9092 28.6812 28.7574 28.1239C27.8783 27.6982 27.4343 26.9925 27.4343 26.0201C27.4343 24.2021 29.1849 23.124 30.8376 23.9241ZM65.0966 23.8289C66.1142 24.254 66.6945 25.3982 66.478 26.5525C66.3452 27.2597 65.3887 28.2162 64.6814 28.349C63.8081 28.5128 63.1385 28.3032 62.5022 27.6669C60.642 25.8067 62.6657 22.8132 65.0966 23.8289ZM8.53005 26.4575C8.05171 26.6589 7.70063 27.1386 7.60646 27.7192C7.52966 28.1923 7.58326 28.3221 8.04692 28.7858L8.57497 29.3138H12.6472H16.7194L17.2476 28.7858C17.7145 28.3188 17.765 28.1944 17.6862 27.7084C17.6371 27.4063 17.4253 26.9869 17.2151 26.7767L16.833 26.3944L12.8312 26.3629C10.6302 26.3456 8.69474 26.3881 8.53005 26.4575ZM15.1808 40.5057C16.427 41.4184 16.3632 43.4846 15.0613 44.3692C13.5395 45.4035 11.3996 44.2607 11.3996 42.4138C11.3996 40.5037 13.6367 39.3749 15.1808 40.5057ZM48.5433 41.8407C49.3062 42.4104 49.5519 42.8965 49.5519 43.8361C49.5519 44.7829 49.3065 45.2614 48.521 45.848C47.9164 46.2994 46.5784 46.2784 45.9177 45.8072C45.3368 45.3928 44.8359 44.48 44.8359 43.8361C44.8359 42.957 45.5877 41.909 46.4827 41.5407C46.9088 41.3654 48.1482 41.5458 48.5433 41.8407ZM33.9067 58.8824V73.9287H30.613H27.3193V58.8824V43.8361H30.613H33.9067V58.8824ZM58.4129 51.9828C57.6908 52.652 57.7297 53.6439 58.5009 54.2197C59.559 55.0096 61.1083 53.9974 60.789 52.7249C60.6361 52.1156 59.9952 51.6213 59.3582 51.6213C58.9788 51.6213 58.6795 51.7356 58.4129 51.9828ZM50.6747 65.2453V73.9287H47.381H44.0873V65.2453V56.5618H47.381H50.6747V65.2453ZM17.1387 67.1916V73.9287H13.8449H10.5512V67.1916V60.4544H13.8449H17.1387V67.1916Z" fill="black"/>
</g>
<defs>
<clipPath id="clip0_0_7872">
<rect width="76.8035" height="76.8035" fill="white" transform="translate(0.640625 0.251221)"/>
</clipPath>
</defs>
</svg>
