<svg width="178" height="178" viewBox="0 0 178 178" fill="none" xmlns="http://www.w3.org/2000/svg">
<circle cx="89.3145" cy="88.6155" r="88.6192" fill="#F6FAFE"/>
<path d="M103.119 111.483C103.03 112.463 103.044 113.365 102.852 114.223C102.211 117.095 99.6956 119.045 96.6765 119.054C91.6077 119.068 86.5405 119.058 81.4716 119.058C76.9466 119.058 72.4233 119.059 67.8983 119.058C63.9362 119.056 61.2728 116.386 61.2728 112.414C61.271 97.315 61.271 82.2181 61.2728 67.1194C61.2728 63.1592 63.9467 60.4928 67.9139 60.4928C74.5045 60.4911 81.0951 60.4928 87.6857 60.4928C87.9001 60.4928 88.1163 60.4928 88.4196 60.4928C88.4196 60.7583 88.4196 60.9887 88.4196 61.2192C88.4196 64.378 88.4161 67.5367 88.4213 70.6954C88.4248 73.353 90.1888 75.1288 92.8313 75.1323C96.2007 75.1376 99.5718 75.1341 102.99 75.1341C102.99 76.0578 102.99 76.9535 102.99 77.8266C101.745 77.4372 100.525 76.9815 99.2685 76.6759C96.0682 75.9006 92.8888 76.0682 89.7426 77.0303C89.3556 77.1491 88.9373 77.2154 88.5329 77.2172C82.9864 77.2294 77.4399 77.2224 71.8934 77.2277C70.2532 77.2294 69.2091 78.6455 69.7721 80.0826C70.0998 80.919 70.8685 81.4061 71.8969 81.4079C75.1599 81.4114 78.423 81.4096 81.686 81.4096C81.8795 81.4096 82.073 81.4096 82.3693 81.4096C82.2159 81.6017 82.1148 81.7239 82.019 81.8496C81.2015 82.92 80.3491 83.9659 79.5874 85.0747C79.3137 85.4728 79.0662 85.609 78.6043 85.6038C76.3853 85.5811 74.1664 85.5916 71.9474 85.5951C70.5652 85.5968 69.6204 86.4559 69.6274 87.6956C69.6326 88.9267 70.5826 89.7735 71.9718 89.777C73.7968 89.7805 75.6236 89.777 77.4782 89.777C77.2813 91.1739 77.0878 92.5341 76.8873 93.9607C75.2872 93.9607 73.6591 93.959 72.0311 93.9625C71.7714 93.9625 71.5047 93.9607 71.2537 94.0166C70.2253 94.2506 69.542 95.2022 69.6326 96.2394C69.725 97.2906 70.5983 98.1235 71.6929 98.1357C73.5406 98.1567 75.3883 98.1409 77.2272 98.1409C77.6909 99.5378 78.1458 100.905 78.6165 102.325C76.7984 102.325 74.9996 102.325 73.199 102.325C72.7196 102.325 72.242 102.316 71.7627 102.326C70.5373 102.353 69.6274 103.247 69.6274 104.415C69.6274 105.576 70.546 106.496 71.7644 106.503C74.766 106.517 77.7676 106.517 80.7692 106.498C81.2433 106.494 81.5623 106.629 81.89 106.982C87.0565 112.541 95.2629 114.289 102.253 111.338C102.43 111.263 102.601 111.172 102.852 111.052C102.078 109.885 101.325 108.754 100.543 107.577C96.0996 109.241 91.7994 108.951 87.7328 106.468C84.8201 104.689 82.8382 102.119 81.7732 98.8743C79.5996 92.2513 82.5558 85.0852 88.7438 81.9003C94.869 78.7485 102.385 80.5121 106.499 86.0298C110.745 91.7257 110.262 100.214 104.158 105.433C104.276 105.621 104.395 105.822 104.524 106.016C106.657 109.224 108.8 112.424 110.923 115.637C111.861 117.057 111.182 118.761 109.586 118.998C108.681 119.133 107.982 118.752 107.477 117.994C106.128 115.965 104.775 113.936 103.424 111.909C103.344 111.782 103.251 111.663 103.119 111.483ZM95.1967 84.5474C89.7861 84.5229 85.3169 88.9808 85.2907 94.4252C85.2646 99.9063 89.692 104.387 95.1566 104.411C100.609 104.434 105.096 100.02 105.127 94.5998C105.158 89.0314 100.754 84.5718 95.1967 84.5474Z" fill="#238FFF"/>
</svg>
