<svg width="178" height="178" viewBox="0 0 178 178" fill="none" xmlns="http://www.w3.org/2000/svg">
<circle cx="89.0157" cy="89.1495" r="88.6192" fill="#F6FAFE"/>
<g clip-path="url(#clip0_2398_2292)">
<path d="M61.4785 106.459C61.4785 106.055 61.4785 105.649 61.4785 105.245C61.7558 104.109 62.4933 103.291 63.2972 102.487C76.5768 89.2195 89.846 75.9447 103.108 62.6595C103.91 61.8553 104.727 61.1175 105.863 60.8401C106.267 60.8401 106.673 60.8401 107.077 60.8401C107.723 61.1706 108.496 61.3698 108.995 61.8524C111.706 64.4746 114.37 67.1469 117.008 69.8414C118.281 71.1415 118.405 73.1985 117.234 74.5856C116.423 75.5448 115.402 76.3283 114.446 77.2152C114.408 77.1783 114.261 77.0455 114.12 76.9053C112.429 75.2142 110.744 73.5143 109.037 71.838C108.772 71.5783 108.427 71.3451 108.076 71.2389C107.362 71.022 106.641 71.3584 106.276 71.9796C105.882 72.6511 105.984 73.4479 106.582 74.0514C107.992 75.4769 109.412 76.895 110.837 78.3057C111.291 78.7557 111.775 79.1778 112.179 79.5526C111.259 80.4749 110.425 81.3115 109.536 82.2028C109.448 82.0951 109.332 81.9254 109.189 81.7823C108.269 80.8541 107.352 79.9244 106.416 79.0125C105.912 78.5196 105.301 78.3765 104.636 78.6392C104.019 78.8841 103.67 79.3593 103.604 80.0218C103.546 80.5929 103.775 81.0548 104.177 81.4517C105.222 82.4847 106.257 83.5265 107.231 84.5004C106.365 85.371 105.531 86.2077 104.667 87.0768C102.879 85.281 101.053 83.4409 99.2183 81.6081C98.4115 80.801 97.4291 80.7479 96.727 81.4503C96.0367 82.1423 96.0942 83.1576 96.8789 83.9455C98.5678 85.6396 100.258 87.3321 101.956 89.0188C102.109 89.1708 102.317 89.2696 102.44 89.3523C101.499 90.2952 100.67 91.1245 99.8201 91.9759C99.7228 91.8845 99.5871 91.7634 99.4587 91.6365C98.5604 90.7394 97.6666 89.8377 96.7639 88.945C95.9777 88.1673 94.954 88.1172 94.2681 88.8137C93.5882 89.5043 93.656 90.5195 94.4422 91.3104C95.1428 92.0158 95.8435 92.7197 96.55 93.4176C96.8716 93.7364 97.2093 94.0389 97.4645 94.2779C96.5721 95.1707 95.7594 95.9852 94.9231 96.8204C93.7224 95.6163 92.476 94.365 91.2281 93.1151C90.5909 92.4762 89.964 91.8284 89.3106 91.2071C88.7486 90.673 87.9565 90.5859 87.3223 90.9445C86.7131 91.2898 86.3576 91.97 86.5479 92.6783C86.6512 93.0635 86.899 93.4501 87.1807 93.7393C88.8519 95.4496 90.5541 97.1318 92.2444 98.8258C92.3816 98.9631 92.5084 99.1106 92.591 99.2006C91.7252 100.067 90.8992 100.893 90.0466 101.746C89.0171 100.713 87.9624 99.6345 86.8857 98.5794C86.1806 97.8888 85.1688 97.9021 84.5153 98.5705C83.8825 99.2169 83.884 100.216 84.5463 100.905C85.2086 101.596 85.8871 102.27 86.5759 102.934C86.983 103.327 87.4226 103.685 87.7869 104.004C86.8385 104.953 86.0095 105.78 85.1643 106.626C85.0699 106.536 84.9357 106.414 84.8074 106.285C83.0624 104.542 81.3249 102.794 79.5725 101.058C78.8557 100.349 77.8689 100.335 77.1992 100.986C76.5237 101.643 76.534 102.677 77.245 103.402C78.0946 104.269 78.9589 105.122 79.8189 105.981C80.8337 106.995 81.8485 108.007 82.8043 108.96C81.9326 109.821 81.0889 110.653 80.1891 111.541C80.108 111.44 79.9929 111.27 79.8499 111.127C78.9294 110.2 78.012 109.269 77.0753 108.358C76.5178 107.817 75.7906 107.727 75.1416 108.062C74.5088 108.388 74.1327 109.039 74.2964 109.759C74.3834 110.145 74.6194 110.544 74.8953 110.835C75.8924 111.885 76.9337 112.892 78.0061 113.961C77.2597 114.699 76.5532 115.393 75.8511 116.091C74.0884 117.842 71.9039 117.845 70.1516 116.094C67.8476 113.792 65.5569 111.475 63.2353 109.191C62.4388 108.404 61.7307 107.585 61.4785 106.459Z" fill="#238FFF"/>
<path d="M62.3621 60.8401C63.5952 61.1721 64.8268 61.5145 66.0643 61.8361C68.2134 62.3939 70.3788 62.8956 72.5146 63.5021C74.9823 64.2031 76.6358 65.4957 78.4796 67.5793C75.0634 70.9983 71.6502 74.4144 68.2282 77.8394C66.1145 76.0553 64.5672 73.8699 63.9034 71.0898C63.1925 68.1253 62.4211 65.1755 61.6717 62.2198C61.629 62.0501 61.5434 61.8893 61.4785 61.724C61.4785 61.4289 61.4785 61.1352 61.4785 60.8401C61.7735 60.8401 62.067 60.8401 62.3621 60.8401Z" fill="#238FFF"/>
<path d="M102.266 111.864C105.676 108.453 109.08 105.047 112.592 101.533C113.001 101.982 113.42 102.464 113.864 102.922C114.529 103.608 115.219 104.271 115.887 104.955C118.671 107.808 118.721 112.264 116.007 115.124C113.308 117.969 108.86 118.189 105.907 115.544C104.624 114.398 103.477 113.098 102.266 111.864Z" fill="#238FFF"/>
<path d="M99.8168 109.356C97.8418 107.38 95.8048 105.344 93.8105 103.349C97.1765 99.9815 100.59 96.5669 103.963 93.1921C105.94 95.1695 107.977 97.2073 109.971 99.2024C106.608 102.567 103.193 105.98 99.8168 109.356Z" fill="#238FFF"/>
<path d="M81.0307 70.0026C82.5898 71.6302 84.1873 73.3006 85.7464 74.9282C82.4202 78.2558 79.007 81.6704 75.5673 85.1116C74.0052 83.4869 72.3916 81.8091 70.8398 80.1962C74.1542 76.882 77.5689 73.4659 81.0307 70.0026Z" fill="#238FFF"/>
</g>
<defs>
<clipPath id="clip0_2398_2292">
<rect width="56.5654" height="56.5654" fill="white" transform="translate(61.4785 60.8401)"/>
</clipPath>
</defs>
</svg>
