<svg width="56" height="61" viewBox="0 0 56 61" fill="none" xmlns="http://www.w3.org/2000/svg">
<g clip-path="url(#clip0_2398_2322)">
<g clip-path="url(#clip1_2398_2322)">
<path d="M1.375 42.9638C1.375 34.1215 1.375 25.2792 1.375 16.4369C1.56371 15.7483 1.69283 15.0353 1.95248 14.374C3.00813 11.683 5.72387 9.47749 9.40445 9.49189C20.642 9.53655 31.8809 9.50774 43.1199 9.50918C44.8183 9.50918 46.5181 9.48469 48.2165 9.52214C52.4093 9.6129 55.738 13.0256 55.7479 17.2739C55.7664 25.5573 55.7565 33.842 55.7508 42.1254C55.7494 43.831 55.2442 45.3854 54.2241 46.7396C52.5824 48.9177 50.386 49.9031 47.6887 49.9002C34.9457 49.8829 22.2028 49.8916 9.45978 49.8916C9.24695 49.8916 9.03554 49.8887 8.82271 49.8815C5.50111 49.7792 2.61085 47.5074 1.68999 44.2661C1.56655 43.8368 1.47858 43.3974 1.375 42.9638ZM24.297 43.409C25.0788 43.4176 25.5981 43.0013 25.9089 42.111C27.8215 36.6166 29.7328 31.1222 31.6426 25.6264C32.501 23.1573 33.3665 20.6924 34.2093 18.2175C34.6407 16.9512 33.7368 15.806 32.4797 16.0076C31.722 16.1301 31.3659 16.6746 31.1275 17.3632C29.1127 23.1817 27.088 28.9974 25.0646 34.813C24.3297 36.9263 23.5847 39.0368 22.8597 41.153C22.4638 42.3156 23.1648 43.3974 24.297 43.409ZM13.0354 30.1542C13.1886 29.9899 13.3163 29.8459 13.4525 29.709C15.9781 27.1433 18.5094 24.5805 21.0308 22.0091C21.726 21.3003 21.7459 20.3006 21.1074 19.6523C20.4788 19.0141 19.4941 19.0141 18.8244 19.6912C15.7667 22.7841 12.7133 25.8828 9.66836 28.9887C8.99723 29.673 8.98446 30.6223 9.64991 31.3023C12.4054 34.1186 15.1736 36.922 17.939 39.7268C18.2966 40.0884 18.7322 40.2627 19.2387 40.2065C19.8971 40.1331 20.361 39.7772 20.581 39.1434C20.8179 38.462 20.6193 37.8742 20.1283 37.3758C17.9021 35.1155 15.6745 32.8552 13.4483 30.5935C13.3135 30.4552 13.1843 30.3126 13.0354 30.1542ZM44.2451 29.2207C43.9272 29.4958 43.7414 29.6341 43.5782 29.7983C41.0739 32.3366 38.5695 34.8749 36.0737 37.4205C35.404 38.1033 35.3898 39.0915 36.0113 39.7369C36.6314 40.3823 37.626 40.3953 38.2943 39.7196C41.3548 36.6281 44.4068 33.5294 47.4517 30.4235C48.1271 29.7349 48.1541 28.7899 47.4886 28.1085C44.7232 25.2763 41.9507 22.4528 39.1442 19.6624C38.8547 19.3757 38.3255 19.2288 37.9013 19.2144C37.2457 19.1928 36.7761 19.612 36.5505 20.243C36.3078 20.9215 36.4994 21.5121 36.9917 22.0134C39.218 24.2751 41.4442 26.5369 43.6747 28.7943C43.8123 28.9325 43.9868 29.0305 44.2451 29.2207Z" fill="#238FFF"/>
</g>
</g>
<defs>
<clipPath id="clip0_2398_2322">
<rect width="55" height="60" fill="white" transform="translate(0.816406 0.122803)"/>
</clipPath>
<clipPath id="clip1_2398_2322">
<rect width="54.3843" height="40.4083" fill="white" transform="translate(1.375 9.49194)"/>
</clipPath>
</defs>
</svg>
