<svg width="88" height="89" viewBox="0 0 88 89" fill="none" xmlns="http://www.w3.org/2000/svg">
<circle opacity="0.8" cx="44.1317" cy="44.5585" r="34.0735" stroke="#238FFF" stroke-width="2.72588"/>
<g clip-path="url(#clip0_0_8231)">
<path d="M58.1258 44.0839C58.1258 44.4179 58.1258 44.7518 58.1258 45.0857C58.0891 45.2654 58.0502 45.445 58.0162 45.6252C57.5801 47.9274 55.446 49.8719 53.0374 50.0896C52.0884 50.1752 51.1263 50.1329 50.1708 50.1487C50.0749 50.1503 49.9785 50.1487 49.882 50.1487C49.882 51.7471 49.882 53.308 49.882 54.8947C50.3751 54.8947 50.8562 54.8815 51.3356 54.9005C51.5657 54.9095 51.6797 54.8477 51.7838 54.6384C52.3624 53.4813 53.7749 52.9978 55.0131 53.513C56.178 53.9975 56.7319 55.3274 56.2673 56.5264C55.8153 57.693 54.4724 58.3281 53.2374 57.9477C52.4681 57.711 51.9569 57.2006 51.6479 56.4661C50.5132 56.4661 49.3785 56.4661 48.2142 56.4661C48.2142 54.3473 48.2142 52.2528 48.2142 50.1635C47.1124 50.1635 46.0407 50.1635 44.9608 50.1635C44.9553 50.2111 44.9476 50.2444 44.9476 50.2777C44.9471 51.2795 44.9515 52.2813 44.9416 53.2831C44.9399 53.4453 45.0282 53.4834 45.1476 53.5399C46.0111 53.9478 46.5113 54.6141 46.5782 55.5409C46.6636 56.7271 45.7985 57.7918 44.6118 58.0085C43.3702 58.2352 42.1708 57.5609 41.7857 56.4191C41.4027 55.2831 41.9489 54.0651 43.0858 53.5515C43.2475 53.4786 43.3138 53.4062 43.3116 53.2261C43.3001 52.2861 43.3061 51.3455 43.3061 50.405C43.3061 50.322 43.3061 50.2391 43.3061 50.1641C42.1889 50.1641 41.1172 50.1641 40.0159 50.1641C40.0159 52.2739 40.0159 54.369 40.0159 56.4777C38.8577 56.4777 37.7296 56.4777 36.6074 56.4777C36.0195 57.8336 34.7281 58.2267 33.7162 57.9953C32.6231 57.7453 31.8275 56.7837 31.8232 55.6978C31.8188 54.6067 32.5941 53.6472 33.6904 53.3819C34.709 53.1357 36.0157 53.5272 36.6009 54.8778C37.1893 54.8778 37.7772 54.8778 38.364 54.8778C38.364 53.2942 38.364 51.727 38.364 50.1482C37.5789 50.1482 36.814 50.1593 36.0497 50.1435C35.6508 50.1355 35.2476 50.108 34.8553 50.0415C32.5015 49.6447 30.5838 47.7314 30.1932 45.4086C29.8157 43.1614 31.0342 40.8148 33.1584 39.7369C33.3885 39.6201 33.4822 39.4875 33.5151 39.2465C33.7742 37.357 35.4958 35.8887 37.4803 35.8622C37.6709 35.8596 37.7619 35.7999 37.8545 35.6408C39.1645 33.4005 41.0975 31.9316 43.694 31.3033C44.1411 31.195 44.6013 31.1379 45.0556 31.0576C45.5114 31.0576 45.9667 31.0576 46.4226 31.0576C46.8165 31.1194 47.2148 31.1628 47.6038 31.2457C51.6501 32.1102 54.5217 35.355 54.7731 39.348C54.7841 39.5202 54.8433 39.6064 54.9994 39.6862C56.2448 40.3202 57.1664 41.2555 57.6852 42.5199C57.8913 43.0192 57.9828 43.5613 58.1258 44.0839ZM51.8117 43.1703C50.4009 40.8465 47.5726 38.9448 44.0649 38.9998C40.7622 39.0516 38.2413 40.4893 36.4146 43.1524C36.9022 43.4398 37.3564 43.7082 37.8156 43.9793C39.3234 41.7844 41.4109 40.586 44.134 40.5876C46.8571 40.5892 48.9418 41.7939 50.4381 43.9798C50.8984 43.7088 51.3482 43.444 51.8117 43.1703ZM49.0169 44.8184C48.0356 43.1809 46.067 42.1188 44.0929 42.1606C41.9966 42.205 40.3929 43.1053 39.2193 44.8062C39.6965 45.0879 40.1502 45.3563 40.6175 45.6321C41.4591 44.4173 42.6141 43.7484 44.1208 43.7463C45.638 43.7442 46.799 44.4184 47.6378 45.6321C48.1068 45.3552 48.555 45.091 49.0169 44.8184ZM43.391 47.268C43.974 46.8035 44.2058 46.804 44.872 47.2643C45.3147 47.0027 45.7613 46.738 46.2303 46.4606C45.6692 45.6765 44.906 45.3563 43.9696 45.4017C43.1516 45.4413 42.4974 45.7769 42.0257 46.4611C42.5023 46.7428 42.9494 47.007 43.391 47.268Z" fill="#238FFF"/>
</g>
<circle cx="44.1258" cy="44.5584" r="41.3425" stroke="#238FFF" stroke-width="4.54313"/>
<defs>
<clipPath id="clip0_0_8231">
<rect width="28" height="27" fill="white" transform="translate(30.125 31.0581)"/>
</clipPath>
</defs>
</svg>
