<svg width="25" height="26" viewBox="0 0 25 26" fill="none" xmlns="http://www.w3.org/2000/svg">
<circle cx="12.322" cy="12.8982" r="12.322" fill="#F0F8FF"/>
<g clip-path="url(#clip0_58_9089)">
<path d="M9.71294 14.3815C9.44014 13.4124 9.16733 12.455 8.89453 11.4898C10.6843 10.8881 12.2508 10.0049 13.3627 8.48096C13.9662 10.6145 14.5655 12.7325 15.1731 14.8699C13.4082 14.0767 11.5812 14.0532 9.71294 14.3815Z" fill="#238FFF"/>
<path d="M8.60228 11.5874C8.87095 12.5409 9.13962 13.4826 9.40829 14.4361C9.04455 14.5299 8.68908 14.6158 8.33361 14.7096C7.88721 14.8268 7.4408 14.948 6.9944 15.0652C6.22559 15.2606 5.48159 14.9362 5.15505 14.2641C4.82438 13.5803 5.03518 12.791 5.66759 12.3963C5.81226 12.3064 5.97759 12.2361 6.14293 12.1931C6.93653 11.986 7.73427 11.7906 8.53201 11.5952C8.55268 11.5913 8.56508 11.5913 8.60228 11.5874Z" fill="#238FFF"/>
<path d="M16.2447 15.9208C15.9554 15.9013 15.7363 15.7411 15.6578 15.4636C15.4966 14.9009 15.3395 14.3343 15.1783 13.7716C14.612 11.767 14.0458 9.76631 13.4754 7.76169C13.3927 7.47643 13.4836 7.23416 13.711 7.09348C13.9259 6.96062 14.2111 6.96453 14.3971 7.13647C14.5004 7.23025 14.5831 7.36311 14.6203 7.49206C15.0006 8.81284 15.3726 10.1336 15.7487 11.4544C16.0959 12.6775 16.4431 13.9006 16.7903 15.1237C16.8813 15.4363 16.7945 15.6942 16.5465 15.8271C16.4555 15.87 16.3439 15.8896 16.2447 15.9208Z" fill="#238FFF"/>
<path d="M7.39453 15.2644C7.80787 15.155 8.20881 15.0455 8.60974 14.9479C8.65108 14.9361 8.72961 14.9713 8.75028 15.0065C9.17188 15.6864 9.58935 16.3702 10.0027 17.0541C10.1887 17.3628 10.0771 17.734 9.76709 17.9098C9.45295 18.0857 9.05201 18.0036 8.86188 17.7027C8.37001 16.9134 7.89054 16.1201 7.40693 15.3269C7.39866 15.3113 7.4028 15.2956 7.39453 15.2644Z" fill="#238FFF"/>
<path d="M15.7617 10.3643C16.0428 10.3643 16.3073 10.3564 16.5677 10.3721C16.6173 10.376 16.6876 10.4502 16.7041 10.5049C16.8116 10.8527 16.9108 11.2044 17.0059 11.56C17.0183 11.6108 16.9976 11.7007 16.9563 11.7241C16.7331 11.8609 16.5016 11.9859 16.2619 12.1227C16.0924 11.5248 15.9312 10.9504 15.7617 10.3643Z" fill="#238FFF"/>
<path d="M19.5787 13.3067C19.5704 13.4591 19.4505 13.5138 19.3224 13.4474C19.0992 13.3302 18.876 13.2051 18.6528 13.084C18.4254 12.9589 18.1981 12.8339 17.9708 12.7128C17.8716 12.662 17.8137 12.5916 17.8798 12.49C17.9418 12.3962 18.0286 12.408 18.1196 12.4588C18.566 12.7049 19.0124 12.9433 19.4547 13.1895C19.5125 13.2207 19.5497 13.2794 19.5787 13.3067Z" fill="#238FFF"/>
<path d="M16.8711 9.14532C16.8959 9.09061 16.9083 9.05935 16.929 9.02809C17.1852 8.60606 17.4415 8.18404 17.706 7.76592C17.7391 7.71512 17.8383 7.66041 17.8962 7.66823C18.0078 7.68386 18.045 7.77374 17.9871 7.86752C17.7184 8.3169 17.4456 8.76237 17.1687 9.20393C17.1439 9.24692 17.0447 9.27427 16.9868 9.26255C16.9372 9.26255 16.9042 9.1883 16.8711 9.14532Z" fill="#238FFF"/>
<path d="M18.2597 10.8294C18.2142 10.7825 18.144 10.7395 18.1274 10.6848C18.0985 10.5871 18.1729 10.5363 18.268 10.5129C18.6193 10.423 18.9748 10.3331 19.3261 10.2471C19.4832 10.2081 19.6444 10.1651 19.8056 10.1299C19.8965 10.1104 19.975 10.1338 19.9998 10.2276C20.0246 10.3175 19.9792 10.38 19.8882 10.4073C19.3674 10.5402 18.8466 10.6731 18.3258 10.8059C18.3176 10.8098 18.3052 10.8098 18.2969 10.8098C18.2762 10.8137 18.268 10.8216 18.2597 10.8294Z" fill="#238FFF"/>
</g>
<defs>
<clipPath id="clip0_58_9089">
<rect width="15" height="11" fill="white" transform="translate(5 7.26172)"/>
</clipPath>
</defs>
</svg>
