<svg width="179" height="178" viewBox="0 0 179 178" fill="none" xmlns="http://www.w3.org/2000/svg">
<circle cx="89.4883" cy="88.6155" r="88.6192" fill="#188AEC" fill-opacity="0.04"/>
<g clip-path="url(#clip0_2398_2259)">
<path d="M56.2953 88.0765C56.3916 69.4622 71.3994 54.6214 89.8408 54.6764C108.51 54.7315 123.502 69.7786 123.386 88.1492C123.268 106.769 108.241 121.708 89.7307 121.61C71.2088 121.514 56.2088 106.469 56.2953 88.0765ZM78.0523 97.2648C78.0209 99.2223 79.66 100.329 81.3935 99.6743C85.5444 98.1099 89.6836 96.5081 93.8266 94.922C95.1631 94.411 96.0967 93.4833 96.6116 92.1586C98.2154 88.0274 99.8113 83.8961 101.386 79.753C101.545 79.3344 101.627 78.8312 101.562 78.3949C101.325 76.801 99.8074 75.9932 98.2193 76.5966C94.1175 78.1551 90.0236 79.7314 85.9238 81.2978C84.4595 81.858 83.4827 82.8819 82.9265 84.3403C81.3994 88.3418 79.8585 92.3395 78.3294 96.341C78.1919 96.7027 78.1054 97.0839 78.0523 97.2648Z" fill="#238FFF"/>
</g>
<defs>
<clipPath id="clip0_2398_2259">
<rect width="67.091" height="66.9358" fill="white" transform="translate(56.2949 54.6763)"/>
</clipPath>
</defs>
</svg>
