<svg width="24" height="24" viewBox="0 0 24 24" fill="none" xmlns="http://www.w3.org/2000/svg">
<g clip-path="url(#clip0_493_8764)">
<path d="M11.7646 1.68457V22.8803" stroke="#020202" stroke-width="1.92688" stroke-linecap="round" stroke-linejoin="round"/>
<path d="M16.5815 5.54102H9.35569C8.46137 5.54102 7.60367 5.89628 6.97129 6.52867C6.33891 7.16105 5.98364 8.01874 5.98364 8.91306C5.98364 9.80738 6.33891 10.6651 6.97129 11.2975C7.60367 11.9298 8.46137 12.2851 9.35569 12.2851H14.1729C15.0672 12.2851 15.9249 12.6404 16.5573 13.2728C17.1897 13.9051 17.5449 14.7628 17.5449 15.6572C17.5449 16.5515 17.1897 17.4092 16.5573 18.0416C15.9249 18.6739 15.0672 19.0292 14.1729 19.0292H5.98364" stroke="#020202" stroke-width="1.92688" stroke-linecap="round" stroke-linejoin="round"/>
</g>
<defs>
<clipPath id="clip0_493_8764">
<rect width="23.1226" height="23.1226" fill="white" transform="translate(0.204346 0.723633)"/>
</clipPath>
</defs>
</svg>
