<svg width="1442" height="539" viewBox="0 0 1442 539" fill="none" xmlns="http://www.w3.org/2000/svg">
<g clip-path="url(#clip0_567_6532)">
<path opacity="0.75" d="M-345.397 -0.383789H1598.58V475.777C1598.58 475.777 1304.86 372.174 1112.59 372.174C920.306 372.174 818.87 475.777 626.591 475.777C434.312 475.777 332.876 372.174 140.597 372.174C-51.6824 372.174 -345.397 475.777 -345.397 475.777V-0.383789Z" fill="#238FFF"/>
</g>
<g clip-path="url(#clip1_567_6532)">
<path d="M0.40918 -0.383789H1944.39V475.777C1944.39 475.777 1650.67 372.174 1458.39 372.174C1266.11 372.174 1164.68 475.777 972.398 475.777C780.119 475.777 678.683 372.174 486.403 372.174C294.124 372.174 0.40918 475.777 0.40918 475.777V-0.383789Z" fill="#238FFF"/>
</g>
<defs>
<clipPath id="clip0_567_6532">
<rect width="1441" height="539" fill="white" transform="translate(0.40918)"/>
</clipPath>
<clipPath id="clip1_567_6532">
<rect width="1441" height="539" fill="white" transform="translate(0.40918)"/>
</clipPath>
</defs>
</svg>
