<svg width="1442" height="268" viewBox="0 0 1442 268" fill="none" xmlns="http://www.w3.org/2000/svg">
<g clip-path="url(#clip0_556_5748)">
<path d="M0.889648 -0.383789H1944.87V268.324C1944.87 268.324 1651.15 209.859 1458.87 209.859C1266.59 209.859 1165.16 268.324 972.878 268.324C780.599 268.324 679.163 209.859 486.884 209.859C294.605 209.859 0.889648 268.324 0.889648 268.324V-0.383789Z" fill="#238FFF"/>
<path opacity="0.75" d="M-344.917 -0.383789H1599.06V268.324C1599.06 268.324 1305.34 209.859 1113.07 209.859C920.787 209.859 819.351 268.324 627.072 268.324C434.792 268.324 333.356 209.859 141.077 209.859C-51.2019 209.859 -344.917 268.324 -344.917 268.324V-0.383789Z" fill="#238FFF"/>
</g>
<defs>
<clipPath id="clip0_556_5748">
<rect width="1441" height="268" fill="white" transform="translate(0.889648)"/>
</clipPath>
</defs>
</svg>
