<svg width="55" height="81" viewBox="0 0 55 81" fill="none" xmlns="http://www.w3.org/2000/svg">
<path d="M53.0541 17.8092C50.6902 11.6016 46.0024 6.38271 40.074 3.33558C36.2283 1.35876 31.9239 0.329102 27.596 0.329102C23.2678 0.329102 18.9635 1.35876 15.1175 3.33528C9.18903 6.38241 4.50126 11.6016 2.13739 17.8092C-1.02558 26.1153 1.13061 33.8431 4.53289 41.6901C6.45873 46.1322 8.78321 50.4146 11.1784 54.6213C16.1899 63.4242 21.6846 72.0172 27.5957 80.2532V80.2535C27.5957 80.2535 27.5957 80.2535 27.5957 80.2532C27.5957 80.2532 27.5957 80.2532 27.5957 80.2535V80.2532C33.5066 72.0172 39.0012 63.4242 44.0131 54.6213C46.408 50.4146 48.7324 46.1322 50.6586 41.6901C54.0609 33.8431 56.2171 26.1153 53.0541 17.8092Z" fill="#238FFF"/>
</svg>
