<svg width="55" height="81" viewBox="0 0 55 81" fill="none" xmlns="http://www.w3.org/2000/svg">
<path d="M2.13732 62.5677C4.5012 68.7753 9.18896 73.9942 15.1174 77.0414C18.9631 79.0182 23.2675 80.0478 27.5954 80.0478C31.9236 80.0478 36.2279 79.0182 40.0739 77.0417C46.0024 73.9945 50.6901 68.7753 53.054 62.5677C56.217 54.2616 54.0608 46.5339 50.6585 38.6868C48.7327 34.2448 46.4082 29.9624 44.013 25.7556C39.0015 16.9528 33.5069 8.35977 27.5957 0.123708L27.5957 0.123411C27.5957 0.123411 27.5957 0.123411 27.5957 0.123708C27.5957 0.123708 27.5957 0.123708 27.5957 0.123411L27.5957 0.123708C21.6848 8.35977 16.1902 16.9528 11.1784 25.7556C8.78345 29.9624 6.45896 34.2448 4.53283 38.6868C1.13055 46.5339 -1.02565 54.2616 2.13732 62.5677Z" fill="#238FFF"/>
</svg>
