<svg width="95" height="122" viewBox="0 0 95 122" fill="none" xmlns="http://www.w3.org/2000/svg">
<g filter="url(#filter0_d_0_4254)">
<path d="M73.0541 34.8092C70.6902 28.6016 66.0024 23.3827 60.074 20.3356C56.2283 18.3588 51.9239 17.3291 47.596 17.3291C43.2678 17.3291 38.9635 18.3588 35.1175 20.3353C29.189 23.3824 24.5013 28.6016 22.1374 34.8092C18.9744 43.1153 21.1306 50.8431 24.5329 58.6901C26.4587 63.1322 28.7832 67.4146 31.1784 71.6213C36.1899 80.4242 41.6846 89.0172 47.5957 97.2532V97.2535C47.5957 97.2535 47.5957 97.2535 47.5957 97.2532C47.5957 97.2532 47.5957 97.2532 47.5957 97.2535V97.2532C53.5066 89.0172 59.0012 80.4242 64.0131 71.6213C66.408 67.4146 68.7324 63.1322 70.6586 58.6901C74.0609 50.8431 76.2171 43.1153 73.0541 34.8092Z" fill="white"/>
</g>
<defs>
<filter id="filter0_d_0_4254" x="0.209385" y="0.940101" width="94.7726" height="120.697" filterUnits="userSpaceOnUse" color-interpolation-filters="sRGB">
<feFlood flood-opacity="0" result="BackgroundImageFix"/>
<feColorMatrix in="SourceAlpha" type="matrix" values="0 0 0 0 0 0 0 0 0 0 0 0 0 0 0 0 0 0 127 0" result="hardAlpha"/>
<feOffset dy="3.99732"/>
<feGaussianBlur stdDeviation="10.1932"/>
<feComposite in2="hardAlpha" operator="out"/>
<feColorMatrix type="matrix" values="0 0 0 0 0 0 0 0 0 0 0 0 0 0 0 0 0 0 0.15 0"/>
<feBlend mode="normal" in2="BackgroundImageFix" result="effect1_dropShadow_0_4254"/>
<feBlend mode="normal" in="SourceGraphic" in2="effect1_dropShadow_0_4254" result="shape"/>
</filter>
</defs>
</svg>
