<svg width="69" height="57" viewBox="0 0 69 57" fill="none" xmlns="http://www.w3.org/2000/svg">
<g clip-path="url(#clip0_1322_7065)">
<path fill-rule="evenodd" clip-rule="evenodd" d="M40.4383 16.2677L40.4542 16.1702L54.56 10.3349L41.6049 18.1371C43.755 20.3116 46.2728 21.4552 49.125 21.6531C55.0086 22.0598 60.433 19.3128 64.063 14.5348C64.7505 13.6308 65.3478 12.6222 65.8734 11.5663C66.5104 10.2876 68.792 5.98039 68.4641 4.95375C67.981 3.4507 61.2639 2.41431 59.7296 2.19421C51.7476 1.04638 41.9885 2.43659 39.8224 12.2893C39.7176 12.7699 39.695 13.2616 39.7322 13.7561L39.2822 14.0598L38.8562 13.7338C38.9358 13.3898 38.9783 13.0415 38.9703 12.6891C38.7726 4.19456 30.9618 1.3208 24.2062 0.851358C22.9055 0.762205 17.2103 0.422313 16.5719 1.57433C16.1353 2.36137 17.3218 6.31192 17.639 7.47787C17.9018 8.43904 18.231 9.37653 18.6517 10.243C20.8708 14.819 24.8977 18.0452 29.8058 18.75C32.1855 19.0927 34.4418 18.5968 36.5641 17.1885L27.1513 8.46968L37.3139 15.4235L37.3126 15.4988C38.0798 18.3098 37.9948 21.2909 37.3232 24.648C38.5748 24.0532 40.1131 24.0434 40.7103 24.8124L40.7926 24.7901C40.1091 21.9734 39.5902 18.9799 40.4383 16.2677Z" fill="#238FFF"/>
<path fill-rule="evenodd" clip-rule="evenodd" d="M53.483 31.8152C51.7059 28.472 47.4056 27.4356 44.3888 29.1211C45.7824 25.0661 42.824 24.2066 40.7124 24.8126C39.6546 23.446 35.6224 24.5367 35.5056 26.9996C31.5691 24.2108 27.7267 25.6094 26.5508 28.7854C27.3498 29.1169 28.1448 29.4958 28.9345 29.9123C30.6042 30.7913 32.2194 31.8138 33.8094 32.8989L39.6758 33.048C41.1145 33.165 42.3781 33.7473 43.3151 34.5956C44.6211 34.7461 45.9005 34.8631 47.1242 34.9327L53.483 31.8152Z" fill="#238FFF"/>
<path fill-rule="evenodd" clip-rule="evenodd" d="M0.542969 28.0537H11.7316L11.2153 51.4575H0.542969V28.0537ZM13.7635 49.5672L14.1949 30.1418L22.5193 30.3452C26.0338 31.096 29.5191 33.1897 32.9965 35.608L39.4628 35.7668C42.3854 36.0231 43.8493 39.174 40.9599 41.1507C38.6532 42.839 35.6642 42.6677 32.605 42.3041C30.4933 42.1439 30.3354 45.1236 32.5413 45.1876C33.3057 45.2684 34.1432 45.1013 34.8706 45.118C38.697 45.2085 41.8664 44.5176 43.8666 41.3917L44.8885 39.0403L54.6185 34.2693C59.4682 32.7244 62.7703 38.0917 59.143 41.6801C52.0596 46.83 44.8168 51.0327 37.4321 54.3898C32.0489 57.648 26.7452 57.4029 21.5093 53.9998L13.7635 49.5672Z" fill="#238FFF"/>
</g>
<defs>
<clipPath id="clip0_1322_7065">
<rect width="67.9544" height="55.9624" fill="white" transform="translate(0.542969 0.73584)"/>
</clipPath>
</defs>
</svg>
