<svg width="25" height="25" viewBox="0 0 25 25" fill="none" xmlns="http://www.w3.org/2000/svg">
<circle cx="12.322" cy="12.6101" r="12.322" fill="#F0F8FF"/>
<g clip-path="url(#clip0_75_5147)">
<path d="M14.9289 16.9756C14.7319 16.9237 14.5271 16.8916 14.3396 16.8167C13.4544 16.463 12.948 15.5794 13.0229 14.6866C13.1074 13.6789 13.8791 12.9197 14.782 12.7734C16.0674 12.5652 17.2304 13.5336 17.2505 14.8304C17.2669 15.8987 16.4584 16.8298 15.4032 16.9576C15.3815 16.9602 15.3604 16.9696 15.3393 16.9759C15.2023 16.9756 15.0656 16.9756 14.9289 16.9756ZM13.8648 14.8197C14.1823 15.1789 14.4958 15.5335 14.8159 15.8953C15.3338 15.3592 15.8446 14.8301 16.3324 14.3248C16.1975 14.173 16.0723 14.0321 15.9427 13.8857C15.5675 14.2737 15.2031 14.6506 14.835 15.0315C14.6518 14.8252 14.4781 14.6295 14.3025 14.4318C14.1525 14.5648 14.0119 14.6895 13.8648 14.8197Z" fill="#238FFF"/>
<path d="M13.1324 9.26235C13.5876 9.26235 14.0431 9.26235 14.5101 9.26235C14.5174 9.36853 14.5254 9.47419 14.5314 9.57984C14.58 10.418 14.6277 11.2562 14.6781 12.0945C14.6825 12.1688 14.6679 12.1991 14.5862 12.2152C13.2886 12.4748 12.3602 13.6777 12.434 15.0012C12.4533 15.3487 12.5344 15.6821 12.6834 15.9977C12.6956 16.0235 12.7058 16.0502 12.7212 16.0867C12.6891 16.0888 12.6649 16.0919 12.6406 16.0919C11.5987 16.0922 10.557 16.0942 9.51501 16.0914C8.79786 16.0893 8.21923 15.6461 8.04314 14.9785C7.97166 14.7072 8.00714 14.4348 8.02227 14.163C8.06296 13.432 8.10757 12.701 8.15062 11.97C8.20332 11.0705 8.25575 10.171 8.30819 9.2754C8.31862 9.26809 8.32358 9.26105 8.3288 9.26105C8.78429 9.26105 9.23979 9.26183 9.69554 9.26235L9.69293 9.25948C9.69293 9.69593 9.69293 10.1324 9.69293 10.5681C9.89851 10.5681 10.0856 10.5681 10.2817 10.5681C10.2817 10.128 10.2817 9.69359 10.2817 9.25922L10.2789 9.26209C10.3177 9.26027 10.3566 9.25714 10.3952 9.25714C10.9898 9.25688 11.584 9.25662 12.1786 9.25714C12.302 9.25714 12.4251 9.26053 12.5485 9.26235L12.5454 9.25922C12.5454 9.69411 12.5454 10.129 12.5454 10.5688C12.74 10.5688 12.927 10.5688 13.1269 10.5688C13.1269 10.4415 13.1261 10.3187 13.1271 10.196C13.1292 9.88403 13.1318 9.57176 13.1344 9.25975L13.1324 9.26235Z" fill="#238FFF"/>
<path d="M9.69375 9.26228C9.70628 8.95444 9.68541 8.6406 9.73732 8.33955C9.87533 7.54204 10.6107 6.96733 11.4382 6.97568C12.2449 6.98402 12.9571 7.58561 13.0922 8.37712C13.1128 8.49816 13.1194 8.62234 13.1238 8.74548C13.1303 8.9174 13.1287 9.08958 13.1306 9.26175L13.1324 9.25915C12.9362 9.25915 12.7398 9.25889 12.5436 9.25889L12.5467 9.26202C12.5441 9.21688 12.5402 9.17149 12.5392 9.12636C12.5347 8.93461 12.5433 8.74182 12.5248 8.55164C12.4708 8.00328 11.99 7.57231 11.4338 7.56161C10.8701 7.55091 10.3671 7.9631 10.3006 8.51251C10.2708 8.75956 10.2836 9.01183 10.2773 9.26202L10.2802 9.25915C10.084 9.25915 9.88759 9.25915 9.69141 9.25915L9.69375 9.26228Z" fill="#238FFF"/>
</g>
<defs>
<clipPath id="clip0_75_5147">
<rect width="9.25154" height="10" fill="white" transform="translate(8 7.2373)"/>
</clipPath>
</defs>
</svg>
