<svg width="61" height="57" viewBox="0 0 61 57" fill="none" xmlns="http://www.w3.org/2000/svg">
<path d="M41.8792 45.6735C40.579 44.4841 39.3854 43.3933 38.1302 42.245C37.7523 42.8801 37.476 43.3604 37.1847 43.8293C36.8118 44.4298 36.294 44.6025 35.773 44.3195C35.232 44.0251 35.1138 43.4657 35.47 42.8291C35.7297 42.3651 36.0011 41.9078 36.364 41.2777C34.6976 40.8598 33.1211 40.465 31.4014 40.034C31.4014 40.7611 31.4064 41.2843 31.3998 41.8058C31.3898 42.5477 31.0335 42.9672 30.4143 42.9738C29.7833 42.9821 29.4154 42.5708 29.4038 41.8321C29.3955 41.3221 29.4021 40.8105 29.4021 40.2232C27.6775 40.2742 26.1093 40.7332 24.5178 41.4175C24.8092 41.9177 25.0922 42.3849 25.3552 42.8636C25.6848 43.4624 25.5583 44.0168 25.0422 44.308C24.5262 44.5992 23.9935 44.4298 23.6255 43.8375C23.3342 43.3687 23.0595 42.8883 22.7549 42.3766C21.3016 43.2864 20.1147 44.4018 19.0742 45.7492C19.5869 46.0469 20.0581 46.3052 20.5142 46.5849C21.1052 46.9452 21.28 47.4864 20.987 47.9882C20.6956 48.485 20.123 48.6084 19.522 48.2893C19.0459 48.0375 18.5798 47.7677 18.107 47.5095C18.0754 47.4914 18.0271 47.5029 17.8124 47.4453C17.2996 48.9638 16.7869 50.4806 16.2242 52.1454C16.96 52.1454 17.4711 52.1372 17.9805 52.1471C18.728 52.1619 19.1624 52.5288 19.1591 53.1276C19.1558 53.7215 18.723 54.1015 17.9705 54.1081C16.389 54.1229 14.8075 54.1147 13.2244 54.113C9.20744 54.1081 5.19048 54.1031 1.17352 54.0982C0.94878 54.0982 0.722378 54.0982 0.426059 54.0982C0.426059 52.8002 0.414406 51.5532 0.44437 50.3078C0.4477 50.1828 0.694078 50.0166 0.86055 49.9508C2.19232 49.426 3.52743 48.9095 4.87085 48.4209C5.23709 48.2876 5.43852 48.105 5.53507 47.7167C6.09775 45.4514 7.00668 43.3209 8.21194 41.3188C8.43168 40.9553 8.44333 40.6723 8.26687 40.2988C7.67257 39.0354 7.12321 37.7505 6.53057 36.4854C6.37576 36.1531 6.40739 35.9458 6.6754 35.6859C8.38007 34.0292 10.0714 32.3594 11.7511 30.6781C12.0008 30.4297 12.1923 30.4083 12.5036 30.5498C13.8254 31.1503 15.1605 31.7178 16.4839 32.3101C16.7869 32.4466 17.0249 32.473 17.3412 32.2838C19.3822 31.068 21.563 30.1681 23.8753 29.5973C24.2881 29.4953 24.5029 29.3028 24.6477 28.9129C25.1238 27.6231 25.6532 26.3531 26.1293 25.0633C26.2708 24.68 26.4472 24.522 26.8834 24.527C29.2356 24.55 31.5879 24.5467 33.9385 24.5286C34.343 24.5253 34.5178 24.6717 34.6526 25.0304C35.1471 26.358 35.6565 27.679 36.2041 28.9853C36.3024 29.2189 36.587 29.4689 36.8334 29.5364C39.1707 30.1731 41.3931 31.068 43.4906 32.2706C43.6954 32.3874 44.0516 32.4022 44.273 32.3117C45.6148 31.759 46.9416 31.1717 48.2634 30.5712C48.588 30.4231 48.7944 30.4231 49.0657 30.6962C50.7288 32.366 52.4068 34.0194 54.0982 35.6612C54.3845 35.9392 54.4178 36.1613 54.253 36.5134C53.652 37.7966 53.0644 39.0864 52.515 40.3926C52.4152 40.6295 52.4268 41.0079 52.5533 41.2251C53.7552 43.2798 54.6875 45.4399 55.2685 47.7431C55.3584 48.0968 55.5382 48.281 55.8927 48.4077C57.2395 48.8897 58.568 49.4227 59.913 49.913C60.2576 50.038 60.3891 50.2058 60.3808 50.5776C60.3542 51.7226 60.3708 52.8677 60.3708 54.062C60.0978 54.0735 59.8764 54.0933 59.655 54.0933C54.1814 54.0999 48.7078 54.1048 43.2326 54.1097C43.0045 54.1097 42.7731 54.1147 42.5467 54.0834C41.979 54.0077 41.6228 53.6129 41.6345 53.0963C41.6461 52.5798 42.019 52.1833 42.5883 52.1537C43.166 52.1241 43.747 52.1471 44.323 52.1471C44.3546 50.9889 43.4956 48.434 42.7548 47.4552C42.2571 47.7332 41.7593 48.026 41.2482 48.2942C40.6789 48.592 40.1212 48.4653 39.8299 47.9948C39.5219 47.4979 39.6901 46.9337 40.2677 46.5849C40.7372 46.3134 41.2083 46.0568 41.8792 45.6735Z" fill="#238FFF"/>
<path d="M53.0061 31.8165C51.7809 30.6024 50.6672 29.5264 49.5901 28.416C49.2755 28.0902 49.0291 28.0656 48.6346 28.2548C47.719 28.6924 46.7784 29.0773 45.8462 29.482C45.6814 29.5528 45.5116 29.6087 45.2802 29.6959C45.2802 23.0463 45.2802 16.469 45.2802 9.78815C44.4378 9.78815 43.6388 9.78815 42.838 9.78815C42.61 9.78815 42.3719 9.82434 42.1538 9.77828C41.9075 9.72564 41.5346 9.64503 41.4796 9.48709C41.4064 9.28145 41.5213 8.92939 41.6794 8.74185C43.2226 6.91246 44.7908 5.10446 46.3523 3.28988C47.1064 2.41467 47.8555 1.53453 48.6179 0.665896C49.0275 0.200324 49.2822 0.193744 49.6834 0.656026C52.0173 3.35733 54.3479 6.06028 56.6619 8.77804C56.8083 8.95078 56.9165 9.31106 56.83 9.47722C56.7401 9.64832 56.3955 9.76676 56.1574 9.77334C55.142 9.8046 54.1248 9.78651 53.0095 9.78651C53.0061 17.1123 53.0061 24.3903 53.0061 31.8165Z" fill="#238FFF"/>
<path d="M7.81797 22.3817C6.71759 22.3817 5.72209 22.4015 4.72825 22.3686C4.46856 22.3603 4.05071 22.2435 3.99744 22.0823C3.92419 21.8602 4.05404 21.4868 4.22551 21.2861C6.48453 18.6292 8.76353 15.9887 11.0425 13.3483C11.5586 12.7495 11.7683 12.7478 12.2727 13.3319C14.5634 15.9887 16.8557 18.6456 19.1281 21.3173C19.2879 21.5065 19.4277 21.8849 19.3395 22.0593C19.2479 22.2402 18.8717 22.3587 18.6153 22.3669C17.6198 22.4015 16.6243 22.3801 15.5706 22.3801C15.5706 24.8083 15.5706 27.1987 15.5706 29.6878C15.3275 29.6071 15.161 29.566 15.0045 29.4986C14.1306 29.1169 13.2416 28.7648 12.3926 28.3322C11.8499 28.0558 11.5053 28.092 11.0708 28.5575C10.062 29.64 8.97827 30.6551 7.81963 31.8017C7.81797 28.5987 7.81797 25.5387 7.81797 22.3817Z" fill="#238FFF"/>
<path d="M34.289 16.0873C34.289 18.2588 34.289 20.363 34.289 22.5181C31.6953 22.5181 29.1517 22.5181 26.5381 22.5181C26.5381 20.3942 26.5381 18.272 26.5381 16.0873C25.4976 16.0873 24.5237 16.1119 23.5549 16.0725C23.2602 16.0609 22.8773 15.9425 22.7159 15.7352C22.621 15.6135 22.8207 15.1676 22.9972 14.9587C25.2296 12.3347 27.4803 9.72554 29.731 7.11636C30.3269 6.42541 30.4884 6.42541 31.0827 7.11636C33.3334 9.72554 35.5841 12.3347 37.8165 14.9587C37.993 15.1676 38.1894 15.6135 38.0929 15.7369C37.933 15.9441 37.5485 16.0609 37.2538 16.0725C36.2833 16.1119 35.3111 16.0873 34.289 16.0873Z" fill="#238FFF"/>
<path d="M30.3546 51.9215C30.5777 51.9412 30.7558 51.905 30.8607 51.9758C31.5665 52.4512 32.1042 52.0103 32.6702 51.6862C33.9803 50.9361 35.2921 50.1892 36.6039 49.4423C37.4047 48.9866 37.9474 49.0392 38.2853 49.5986C38.6316 50.1711 38.3952 50.6909 37.5678 51.1614C36.1478 51.9692 34.7345 52.7885 33.3028 53.5748C32.88 53.8068 32.6253 54.0585 32.5337 54.5685C32.3423 55.651 31.4 56.3173 30.2797 56.2712C29.2093 56.2284 28.3469 55.4256 28.1988 54.3349C28.0639 53.3379 28.7381 52.3278 29.7569 52.0251C29.9734 51.961 30.2048 51.9462 30.3546 51.9215Z" fill="#238FFF"/>
</svg>
