<svg width="61" height="60" viewBox="0 0 61 60" fill="none" xmlns="http://www.w3.org/2000/svg">
<rect x="0.820312" width="60" height="60" rx="30" fill="white"/>
<path d="M44.9079 37.9461C44.5257 38.595 44.217 38.6909 43.504 38.3738C43.2982 38.2779 43.085 38.1968 42.8792 38.1009C42.4529 37.8945 42.2691 37.4299 42.4455 37.0169C42.622 36.5965 43.0997 36.4048 43.5481 36.5892C43.8348 36.7072 44.1361 36.803 44.3934 36.9726C44.5992 37.1054 44.7389 37.3266 44.9079 37.5036C44.9079 37.6511 44.9079 37.7986 44.9079 37.9461Z" fill="#238FFF"/>
<path d="M44.9086 30.5494C44.5558 31.2205 43.8796 31.3532 43.2474 31.5229C42.8946 31.6187 42.5271 31.3237 42.4168 30.955C42.3066 30.5937 42.4389 30.1881 42.7844 30.0037C43.1298 29.8193 43.4974 29.6645 43.8649 29.5317C44.2765 29.3842 44.6073 29.5834 44.9086 30.0996C44.9086 30.2544 44.9086 30.4019 44.9086 30.5494Z" fill="#238FFF"/>
<path d="M44.9074 34.2442C44.6869 34.7235 44.3121 34.9005 43.8049 34.8563C43.5991 34.8341 43.3859 34.8636 43.1727 34.8489C42.7244 34.8268 42.3789 34.4654 42.3789 34.0229C42.3789 33.5878 42.7244 33.2191 43.1727 33.197C43.4815 33.1822 43.7975 33.1896 44.1062 33.197C44.5179 33.2044 44.7384 33.4699 44.9074 33.8017C44.9074 33.9492 44.9074 34.0967 44.9074 34.2442Z" fill="#238FFF"/>
<path d="M25.0403 34.2444C24.9153 34.2444 24.8271 34.2444 24.7316 34.2444C22.3942 34.2444 20.0567 34.2444 17.7193 34.2444C17.0431 34.2444 16.7344 33.9347 16.7344 33.2489C16.7344 28.5955 16.7344 23.9348 16.7344 19.2815C16.7344 19.193 16.7344 19.0971 16.7344 18.957C16.852 19.0308 16.9328 19.075 17.0137 19.134C20.292 21.3243 23.5702 23.5219 26.8485 25.7121C27.3557 26.0513 27.5835 26.0513 28.0981 25.7047C31.391 23.5145 34.684 21.3243 37.9696 19.134C38.0431 19.0824 38.124 19.0381 38.2269 18.9718C38.2342 19.0603 38.2489 19.1266 38.2489 19.193C38.2489 21.4717 38.2489 23.7579 38.2563 26.0366C38.2563 26.2062 38.2122 26.2947 38.0505 26.3684C36.3084 27.2239 34.5737 28.0941 32.8317 28.9569C32.7141 29.0159 32.5671 29.038 32.4348 29.038C31.1852 29.0454 29.943 29.038 28.6934 29.0454C26.6133 29.0528 25.0403 30.6235 25.0403 32.7105C25.0403 33.2194 25.0403 33.7135 25.0403 34.2444Z" fill="#238FFF"/>
<path d="M33.2941 30.6528C33.2941 31.1838 33.2941 31.7369 33.2941 32.2826C33.2941 33.8534 33.3088 35.4315 33.2868 37.0023C33.2794 37.4079 33.1398 37.8061 33.0663 38.2117C32.8678 39.3179 32.6693 40.4167 32.4709 41.5229C32.3753 42.0465 32.0813 42.3046 31.5447 42.3046C30.5083 42.3046 29.4719 42.3046 28.4355 42.3046C27.7813 42.3046 27.4359 41.8769 27.5535 41.2132C27.7666 39.9742 27.9651 38.7279 28.1709 37.489C28.1783 37.4374 28.1783 37.3784 28.1856 37.3047C28.1047 37.2752 28.0239 37.2383 27.943 37.2088C27.2007 36.9212 26.7008 36.2206 26.7008 35.4242C26.6935 34.495 26.6935 33.5658 26.7008 32.6366C26.7082 31.5599 27.5535 30.7192 28.634 30.7118C30.0085 30.7045 31.383 30.7118 32.7575 30.7045C32.9192 30.7118 33.0883 30.675 33.2941 30.6528Z" fill="#238FFF"/>
<path d="M40.7266 34.0302C40.7266 35.9033 40.7046 37.7838 40.7413 39.6569C40.756 40.3944 40.1092 40.8811 39.3815 40.4976C37.9923 39.7602 36.5663 39.0817 35.155 38.3885C35.0007 38.3148 34.9492 38.2263 34.9492 38.0493C34.9566 35.365 34.9566 32.6733 34.9492 29.9889C34.9492 29.8119 35.008 29.7308 35.1624 29.6571C36.581 28.9565 37.9996 28.2485 39.4182 27.5406C40.1459 27.1792 40.7266 27.548 40.734 28.3665C40.7266 30.2544 40.7266 32.1423 40.7266 34.0302Z" fill="#238FFF"/>
<path d="M17.8516 17.6958C24.2978 17.6958 30.6927 17.6958 37.1537 17.6958C36.5803 18.0793 36.0658 18.4185 35.5513 18.7651C32.9272 20.5129 30.2958 22.2606 27.6717 24.0084C27.5394 24.0969 27.4438 24.1338 27.2894 24.0305C24.1949 21.9509 21.1004 19.886 18.0059 17.8138C17.9692 17.7843 17.9324 17.7548 17.8516 17.6958Z" fill="#238FFF"/>
</svg>
