<svg width="48" height="48" viewBox="0 0 48 48" fill="none" xmlns="http://www.w3.org/2000/svg">
<path d="M12.3438 37.3961C12.5302 35.3696 12.6757 33.3935 12.9105 31.4278C13.0038 30.6454 13.5591 30.0844 14.3 29.7939C16.4651 28.9449 18.6375 28.1128 20.8199 27.3084C21.196 27.1698 21.3638 27.0096 21.2951 26.6257C21.2894 26.5944 21.2907 26.5609 21.2948 26.5292C21.377 25.8863 21.2167 25.3912 20.6625 24.943C19.9665 24.3798 19.6104 23.558 19.4328 22.6838C19.3807 22.4269 19.2777 22.3175 19.002 22.2682C17.6694 22.0297 16.9371 20.6477 17.4817 19.4236C17.5448 19.282 17.6473 19.1146 17.7771 19.0532C18.2028 18.8516 18.1564 18.5611 18.0769 18.1758C17.3788 14.7882 19.8893 11.6645 23.3993 11.496C25.4488 11.3977 27.2516 11.9123 28.6473 13.4665C29.9105 14.8733 30.2643 16.524 29.852 18.3385C29.783 18.6419 29.8657 18.7674 30.0856 18.9744C30.3484 19.2217 30.5854 19.5842 30.6514 19.9308C30.8686 21.0718 30.1553 22.0531 28.9998 22.2669C28.7222 22.3182 28.6334 22.4271 28.581 22.6877C28.3736 23.7187 27.8447 24.5668 27.0487 25.2682C26.8921 25.4061 26.7691 25.6644 26.7623 25.8714C26.7197 27.1572 26.7402 27.1367 27.9494 27.5863C29.8099 28.2782 31.6571 29.0048 33.5121 29.7116C34.5392 30.1029 35.1246 30.8133 35.2188 31.9145C35.3741 33.727 35.5449 35.5382 35.7134 37.3964C27.9139 37.3961 20.2176 37.3961 12.3438 37.3961Z" fill="#238FFF"/>
<path d="M40.6598 16.9997C41.318 16.6248 41.8408 16.2952 42.3929 16.0238C42.7807 15.8332 42.8123 15.6329 42.6318 15.2653C40.4635 10.8484 37.1445 7.57104 32.6641 5.46263C30.1071 4.25946 27.407 3.61434 24.5641 3.49283C15.9536 3.1247 8.05311 8.0186 4.46658 15.524C4.39759 15.6685 4.32132 15.8096 4.21658 16.0153C3.71908 15.8006 3.22523 15.6062 2.75619 15.3652C2.68447 15.3283 2.6699 15.0513 2.72455 14.9259C3.67719 12.7311 4.93926 10.7229 6.53763 8.93172C10.0283 5.01934 14.3494 2.45685 19.5242 1.42987C26.5395 0.0376928 32.9594 1.4859 38.7108 5.69935C41.588 7.80708 43.8221 10.4769 45.4997 13.6024C45.5742 13.741 45.6559 13.8756 45.762 14.0605C46.5059 13.646 47.2087 13.2543 48.0059 12.8101C47.7486 15.1465 47.5011 17.3946 47.244 19.7283C45.0254 18.8088 42.9007 17.9283 40.6598 16.9997Z" fill="#238FFF"/>
<path d="M2.28702 34.6667C1.52313 35.096 0.832098 35.4844 0.0390625 35.9299C0.296805 33.5886 0.544301 31.3409 0.801815 29.001C3.02564 29.9222 5.15201 30.8029 7.40133 31.7347C6.77884 32.097 6.26608 32.4233 5.72715 32.7003C5.31845 32.9102 5.21485 33.1028 5.44413 33.5578C8.46646 39.5552 13.2759 43.4099 19.8781 44.7913C27.755 46.4393 34.495 44.123 40.0371 38.3894C41.5358 36.8388 42.699 35.0474 43.6084 33.0983C43.6551 32.9984 43.7172 32.9055 43.7992 32.7624C44.3416 32.9948 44.8705 33.2214 45.4855 33.4851C42.2143 40.7208 36.7823 45.371 29.0508 47.2346C23.7085 48.5221 18.4954 47.87 13.5216 45.5388C8.54045 43.2041 4.83461 39.5565 2.28702 34.6667Z" fill="#238FFF"/>
</svg>
