<svg width="88" height="88" viewBox="0 0 88 88" fill="none" xmlns="http://www.w3.org/2000/svg">
<path d="M42.5761 28.4746C42.3815 28.4727 42.1929 28.5418 42.0455 28.6691C41.898 28.7964 41.8016 28.9731 41.7744 29.1664L41.1571 33.5339C40.1666 33.9467 39.2341 34.4875 38.3833 35.1426L34.2786 33.5018C34.0973 33.4279 33.8954 33.4231 33.7108 33.4883C33.5262 33.5534 33.3717 33.6841 33.2765 33.8557L29.9896 39.5745C29.888 39.7441 29.8522 39.9453 29.8892 40.1397C29.9262 40.3341 30.0333 40.508 30.1901 40.6282L33.6533 43.3549C33.5838 43.8883 33.5463 44.4255 33.5411 44.9635C33.546 45.5016 33.5835 46.0388 33.6533 46.5722L30.1901 49.2989C30.0333 49.419 29.9262 49.5929 29.8892 49.7873C29.8522 49.9817 29.888 50.183 29.9896 50.3526L33.2765 56.0714C33.3717 56.243 33.5262 56.3736 33.7108 56.4388C33.8954 56.504 34.0973 56.4992 34.2786 56.4253L38.1428 54.8167L43.009 46.717L36.2508 41.8427L51.4828 33.9763C51.1781 33.8154 50.8735 33.6707 50.5528 33.5339L49.9355 29.1664C49.9008 28.9765 49.8023 28.8043 49.6564 28.6785C49.5106 28.5526 49.3261 28.4807 49.1338 28.4746H42.5761ZM57.7439 33.4454C57.6478 33.4472 57.5527 33.4663 57.4633 33.5018L53.5992 35.0702L48.733 43.1699L55.4912 48.0844L40.2592 55.9508C40.5638 56.1116 40.8685 56.2564 41.1892 56.3932L41.8065 60.7607C41.8337 60.954 41.93 61.1307 42.0775 61.258C42.225 61.3852 42.4136 61.4544 42.6081 61.4524H49.1819C49.3765 61.4544 49.5651 61.3852 49.7126 61.258C49.8601 61.1307 49.9564 60.954 49.9836 60.7607L50.6009 56.3932C51.5914 55.9804 52.5239 55.4396 53.3747 54.7845L57.4714 56.4414C57.6527 56.5153 57.8546 56.5201 58.0392 56.4549C58.2238 56.3897 58.3783 56.2591 58.4735 56.0875L61.7604 50.3687C61.862 50.1991 61.8978 49.9978 61.8608 49.8034C61.8238 49.609 61.7167 49.4351 61.5599 49.315L58.0806 46.5722C58.1505 46.0388 58.1879 45.5016 58.1929 44.9635C58.1879 44.4255 58.1505 43.8883 58.0806 43.3549L61.5519 40.6282C61.7087 40.508 61.8158 40.3341 61.8528 40.1397C61.8897 39.9453 61.854 39.7441 61.7523 39.5745L58.4654 33.8557C58.3939 33.7278 58.2888 33.622 58.1617 33.5497C58.0345 33.4774 57.89 33.4413 57.7439 33.4454Z" fill="#238FFF"/>
<circle opacity="0.8" cx="44.3856" cy="44.1073" r="34.0735" stroke="#238FFF" stroke-width="2.72588"/>
<circle cx="44.3875" cy="44.1072" r="41.3425" stroke="#238FFF" stroke-width="4.54313"/>
</svg>
