<svg width="32" height="33" viewBox="0 0 32 33" fill="none" xmlns="http://www.w3.org/2000/svg">
<g clip-path="url(#clip0_0_7897)">
<path d="M31.1172 16.5801C31.1172 7.74358 24.1775 0.580078 15.6172 0.580078C7.05683 0.580078 0.117188 7.74358 0.117188 16.5801C0.117188 24.5661 5.78534 31.1855 13.1953 32.3857V21.2051H9.25977V16.5801H13.1953V13.0551C13.1953 9.04508 15.5094 6.83008 19.05 6.83008C20.7458 6.83008 22.5195 7.14258 22.5195 7.14258V11.0801H20.5651C18.6396 11.0801 18.0391 12.3135 18.0391 13.5788V16.5801H22.3379L21.6507 21.2051H18.0391V32.3857C25.449 31.1855 31.1172 24.5662 31.1172 16.5801Z" fill="#1877F2"/>
<path d="M21.6487 21.2051L22.3359 16.5801H18.0371V13.5788C18.0371 12.3133 18.6376 11.0801 20.5631 11.0801H22.5176V7.14258C22.5176 7.14258 20.7438 6.83008 19.0479 6.83008C15.5075 6.83008 13.1934 9.04508 13.1934 13.0551V16.5801H9.25781V21.2051H13.1934V32.3857C13.9945 32.5153 14.8043 32.5803 15.6152 32.5801C16.4262 32.5803 17.2359 32.5153 18.0371 32.3857V21.2051H21.6487Z" fill="white"/>
</g>
<defs>
<clipPath id="clip0_0_7897">
<rect width="31" height="32" fill="white" transform="translate(0.117188 0.580078)"/>
</clipPath>
</defs>
</svg>
