<svg width="31" height="33" viewBox="0 0 31 33" fill="none" xmlns="http://www.w3.org/2000/svg">
<g clip-path="url(#clip0_298_2197)">
<path d="M31 16.7129C31 7.87639 24.0604 0.712891 15.5 0.712891C6.93964 0.712891 0 7.87639 0 16.7129C0 24.6989 5.66816 31.3183 13.0781 32.5185V21.3379H9.14258V16.7129H13.0781V13.1879C13.0781 9.17789 15.3922 6.96289 18.9328 6.96289C20.6286 6.96289 22.4023 7.27539 22.4023 7.27539V11.2129H20.4479C18.5224 11.2129 17.9219 12.4463 17.9219 13.7116V16.7129H22.2207L21.5335 21.3379H17.9219V32.5185C25.3318 31.3183 31 24.699 31 16.7129Z" fill="#1877F2"/>
<path d="M21.5315 21.3379L22.2188 16.7129H17.9199V13.7116C17.9199 12.4461 18.5204 11.2129 20.4459 11.2129H22.4004V7.27539C22.4004 7.27539 20.6266 6.96289 18.9307 6.96289C15.3903 6.96289 13.0762 9.17789 13.0762 13.1879V16.7129H9.14062V21.3379H13.0762V32.5185C13.8773 32.6481 14.6871 32.7131 15.498 32.7129C16.309 32.7131 17.1187 32.6482 17.9199 32.5185V21.3379H21.5315Z" fill="white"/>
</g>
<defs>
<clipPath id="clip0_298_2197">
<rect width="31" height="32" fill="white" transform="translate(0 0.712891)"/>
</clipPath>
</defs>
</svg>
