<svg width="49" height="49" viewBox="0 0 49 49" fill="none" xmlns="http://www.w3.org/2000/svg">
<circle cx="24.2979" cy="24.2754" r="23.9854" fill="#F0F8FF"/>
<g clip-path="url(#clip0_48_5113)">
<path fill-rule="evenodd" clip-rule="evenodd" d="M32.3124 34.7301C32.3124 35.3075 31.8443 35.7756 31.2669 35.7756H17.3268C16.7494 35.7756 16.2812 35.3075 16.2812 34.7301V22.881C16.2812 22.3036 16.7494 21.8355 17.3268 21.8355H18.3723V18.699C18.3723 15.4322 21.03 12.7744 24.2968 12.7744C27.5636 12.7744 30.2214 15.4322 30.2214 18.699V21.8355H31.2669C31.8443 21.8355 32.3124 22.3036 32.3124 22.881V34.7301ZM24.2968 14.8654C22.183 14.8654 20.4633 16.5852 20.4633 18.699V21.8355H28.1304V18.699C28.1304 16.5852 26.4106 14.8654 24.2968 14.8654ZM22.6485 31.409C23.0115 31.6981 23.4237 31.8765 23.8851 31.9442V32.747H24.7064V31.935C24.9341 31.898 25.1525 31.8334 25.3616 31.7412C25.5769 31.6489 25.7646 31.5258 25.9245 31.372C26.0845 31.2182 26.2106 31.0337 26.3029 30.8183C26.4013 30.603 26.4505 30.3569 26.4505 30.0801C26.4505 29.834 26.4106 29.6187 26.3306 29.4341C26.2506 29.2434 26.1337 29.0742 25.9799 28.9266C25.8261 28.7789 25.6415 28.6467 25.4262 28.5298C25.2109 28.4129 24.971 28.2991 24.7064 28.1883V26.5365C24.8664 26.6042 24.9925 26.6934 25.0848 26.8041C25.1771 26.9148 25.2447 27.0317 25.2878 27.1548L26.3214 26.6934C26.2783 26.5642 26.2168 26.4319 26.1368 26.2966C26.0568 26.1612 25.9491 26.0351 25.8138 25.9182C25.6846 25.7952 25.5277 25.6875 25.3432 25.5952C25.1648 25.5029 24.9525 25.4383 24.7064 25.4014V24.5893H23.8851V25.383C23.6144 25.4137 23.3714 25.4814 23.1561 25.586C22.9408 25.6844 22.7562 25.8105 22.6024 25.9643C22.4548 26.1181 22.3409 26.2935 22.261 26.4903C22.181 26.6872 22.141 26.8964 22.141 27.1179C22.141 27.3578 22.1841 27.5762 22.2702 27.7731C22.3625 27.9638 22.4824 28.136 22.6301 28.2898C22.7839 28.4436 22.9592 28.579 23.1561 28.6959C23.3591 28.8128 23.5744 28.9143 23.8021 29.0004L23.8851 29.0373V30.7907C23.6513 30.7168 23.4514 30.5846 23.2853 30.3939C23.1192 30.197 23.0054 29.9755 22.9438 29.7294L21.8826 30.1632C22.0364 30.7045 22.2917 31.1198 22.6485 31.409ZM23.4145 27.5054C23.3222 27.3947 23.2761 27.2655 23.2761 27.1179C23.2761 26.9641 23.3314 26.8318 23.4422 26.721C23.5529 26.6103 23.7006 26.5303 23.8851 26.4811V27.8284C23.6698 27.7177 23.5129 27.61 23.4145 27.5054ZM25.1401 29.6925C25.2263 29.7971 25.2693 29.9294 25.2693 30.0893C25.2693 30.2616 25.217 30.4092 25.1125 30.5323C25.0079 30.6492 24.8725 30.7353 24.7064 30.7907V29.3788C24.9094 29.4833 25.054 29.5879 25.1401 29.6925Z" fill="#238FFF"/>
</g>
<defs>
<clipPath id="clip0_48_5113">
<rect width="23.0012" height="23.0012" fill="white" transform="translate(12.7969 12.7744)"/>
</clipPath>
</defs>
</svg>
