<svg width="60" height="60" viewBox="0 0 60 60" fill="none" xmlns="http://www.w3.org/2000/svg">
<g clip-path="url(#clip0_1322_7159)">
<path d="M18.8038 35.3567C18.885 34.9934 18.944 34.6231 19.0547 34.2598C19.8297 31.6957 22.2799 29.9211 25.1138 29.8792C25.564 29.8722 26.0142 29.8792 26.4865 29.8792C26.4422 30.4101 26.398 30.9132 26.3537 31.4092C26.2356 32.7437 26.1027 34.0851 25.9994 35.4196C25.9847 35.5873 26.0363 35.7899 26.1175 35.9366C26.5456 36.6842 26.9957 37.4248 27.4385 38.1723C27.5492 38.354 27.6673 38.5147 27.9183 38.5077C28.1544 38.5007 28.2725 38.354 28.3758 38.1793C28.8186 37.4317 29.2688 36.6981 29.6969 35.9436C29.7928 35.7829 29.8371 35.5663 29.8149 35.3777C29.6747 33.638 29.5124 31.9053 29.3574 30.1656C29.35 30.0818 29.3574 29.9909 29.3574 29.9071C31.4681 29.7254 33.4017 30.0957 34.9884 31.514C36.3316 32.7088 37.0032 34.1969 37.0179 35.9366C37.0327 37.5994 37.0253 39.2692 37.0179 40.9321C37.0179 41.5678 36.6194 41.9451 35.9552 41.9451C34.9884 41.9451 34.0216 41.9451 33.0179 41.9451C33.0179 41.8264 33.0179 41.7285 33.0179 41.6237C33.0179 40.5618 33.0179 39.4998 33.0179 38.4308C33.0179 38.1304 32.8924 37.9557 32.6637 37.9138C32.3463 37.8509 32.1102 38.0536 32.1102 38.3959C32.1102 39.4649 32.1102 40.5408 32.1102 41.6098C32.1102 41.7076 32.1102 41.7984 32.1102 41.9172C29.3131 41.9172 26.5308 41.9172 23.7116 41.9172C23.7116 41.8264 23.7116 41.7355 23.7116 41.6447C23.7116 40.5897 23.7116 39.5347 23.7116 38.4797C23.7116 38.3749 23.7042 38.2701 23.6673 38.1723C23.6009 37.9907 23.4459 37.8998 23.2393 37.9068C23.0326 37.9138 22.885 38.0116 22.826 38.2003C22.7965 38.3051 22.7891 38.4238 22.7891 38.5356C22.7891 39.6605 22.7891 40.7853 22.7891 41.9451C22.6784 41.9451 22.5824 41.9451 22.4791 41.9451C21.6747 41.9451 20.8776 41.9172 20.0732 41.9521C19.468 41.9801 19.04 41.7914 18.7891 41.2674C18.8038 39.2972 18.8038 37.3269 18.8038 35.3567Z" fill="#238FFF"/>
<path d="M23.4102 24.0314C23.4028 21.7049 25.4249 19.7765 27.8751 19.7696C30.377 19.7626 32.3991 21.656 32.3991 24.0174C32.3991 26.365 30.3844 28.2863 27.912 28.2863C25.4471 28.2933 23.4176 26.3789 23.4102 24.0314Z" fill="#238FFF"/>
<path d="M27.4115 29.8862C27.7583 29.8862 28.0683 29.8862 28.4152 29.8862C28.4521 30.2356 28.489 30.5779 28.5185 30.9203C28.6513 32.3665 28.7842 33.8197 28.9022 35.266C28.917 35.4127 28.8727 35.5804 28.8063 35.7061C28.5332 36.1952 28.238 36.6773 27.9207 37.2013C27.6698 36.7821 27.4705 36.3908 27.2122 36.0275C26.9539 35.6642 26.917 35.2939 26.9613 34.8677C27.1163 33.3237 27.2417 31.7796 27.3819 30.2356C27.3819 30.1308 27.3967 30.019 27.4115 29.8862Z" fill="#238FFF"/>
</g>
<path d="M34.1695 8.6141C34.0578 10.3275 33.9478 12.0278 33.8361 13.7429C26.9272 11.9145 20.6492 13.2205 15.3813 18.2902C11.4571 22.067 9.67157 26.7834 9.80626 32.2392C10.0625 42.6331 19.5552 51.013 29.9891 49.9731C35.84 49.39 40.4771 46.6301 43.7492 41.7526C47.0164 36.8817 47.6291 31.5541 46.067 25.9949C47.7868 25.8865 49.5017 25.7797 51.2248 25.6713C51.4662 25.8323 51.7537 26.0967 52.0937 26.238C53.2419 26.7128 54.4049 27.1547 55.5728 27.5818C55.9128 27.7067 56.0294 27.8775 56.0261 28.2406C56.0081 30.4255 56.0064 32.6088 56.0278 34.7937C56.0311 35.1715 55.8881 35.3194 55.5596 35.441C54.3178 35.901 53.0793 36.3741 51.8572 36.8817C51.6404 36.9721 51.4055 37.2267 51.343 37.4518C50.7517 39.5857 49.9222 41.6146 48.82 43.5367C48.6968 43.7535 48.6787 44.1231 48.774 44.3564C49.2766 45.582 49.817 46.7927 50.3755 47.9936C50.5332 48.332 50.4741 48.5341 50.2195 48.7854C48.6639 50.3198 47.1182 51.8624 45.5857 53.4197C45.3426 53.6678 45.1504 53.6974 44.8449 53.5577C43.6408 53.0057 42.422 52.4866 41.218 51.933C40.9124 51.7934 40.6775 51.7802 40.3769 51.9626C38.4814 53.1092 36.4396 53.9159 34.3091 54.5138C34.0677 54.5812 33.7934 54.8276 33.6964 55.0576C33.1905 56.2601 32.724 57.4774 32.2772 58.703C32.1475 59.0578 31.998 59.2122 31.5922 59.2073C29.4076 59.186 27.2229 59.1892 25.0382 59.2057C24.6949 59.209 24.5339 59.0972 24.4173 58.7802C23.959 57.5366 23.4925 56.2963 22.985 55.074C22.8864 54.8375 22.6203 54.5746 22.3821 54.5089C20.2237 53.9224 18.1819 53.0731 16.2453 51.9593C16.0581 51.8509 15.7345 51.8377 15.5341 51.9215C14.2939 52.439 13.0619 52.9844 11.8431 53.5528C11.5014 53.7122 11.3043 53.6497 11.053 53.3951C9.5188 51.8394 7.97475 50.2935 6.41755 48.7624C6.17116 48.5209 6.13502 48.3303 6.27629 48.0231C6.83806 46.8009 7.39326 45.5754 7.90904 44.3334C7.99774 44.1182 7.97968 43.7732 7.86305 43.5712C6.77235 41.6672 5.91162 39.6712 5.37449 37.5421C5.28086 37.1708 5.11167 36.9556 4.74044 36.8209C3.51341 36.3774 2.30609 35.8845 1.0807 35.4377C0.739034 35.3128 0.625694 35.1387 0.628979 34.7756C0.645405 32.6121 0.647048 30.4469 0.628979 28.2833C0.625694 27.8989 0.732464 27.7133 1.10534 27.5785C2.35044 27.1284 3.58733 26.6504 4.80943 26.1427C5.02626 26.0524 5.25951 25.7945 5.32028 25.5694C5.91327 23.4141 6.75429 21.3688 7.87126 19.4303C7.98625 19.2315 7.99282 18.8849 7.90247 18.6664C7.38505 17.4244 6.81013 16.2071 6.29435 14.9652C6.21879 14.7844 6.27464 14.4378 6.40769 14.3031C7.96161 12.7112 9.53523 11.1374 11.1269 9.58335C11.2633 9.45028 11.6115 9.39936 11.7922 9.47493C13.034 9.99077 14.2512 10.5657 15.493 11.0816C15.7098 11.1719 16.0581 11.1621 16.2568 11.0471C18.177 9.94312 20.1958 9.08066 22.3443 8.54346C22.7123 8.45146 22.8831 8.26583 23.0079 7.9307C23.4679 6.68874 23.9607 5.45829 24.4239 4.21798C24.5307 3.93377 24.667 3.80892 24.9922 3.81056C27.218 3.82535 29.4437 3.82535 31.6678 3.81056C31.9898 3.80892 32.131 3.92227 32.2378 4.21141C32.6895 5.43529 33.1494 6.65589 33.6406 7.86334C33.7572 8.15083 34.002 8.38411 34.1695 8.6141Z" fill="#238FFF"/>
<path d="M47.7798 23.9746C41.2209 23.9861 35.8512 18.6207 35.8594 12.061C35.866 5.51776 41.1962 0.17046 47.7289 0.152389C54.2912 0.134319 59.6724 5.48655 59.6839 12.0397C59.6937 18.6059 54.3503 23.9631 47.7798 23.9746ZM46.1339 13.0861C45.3044 12.2417 44.4979 11.4039 43.6717 10.5841C42.8569 9.77589 41.7876 9.72989 41.0566 10.4511C40.3339 11.1641 40.3733 12.268 41.165 13.0664C42.3855 14.2985 43.6109 15.529 44.8445 16.7479C45.72 17.612 46.7154 17.6071 47.5876 16.7298C49.8479 14.4579 52.1032 12.1809 54.3519 9.8991C55.1962 9.0432 55.2291 7.98689 54.4636 7.23941C53.7409 6.53465 52.6715 6.60037 51.8519 7.41684C50.8975 8.36802 49.9596 9.33562 49.0036 10.2835C48.0804 11.2018 47.1409 12.1054 46.1339 13.0861Z" fill="#238FFF"/>
<defs>
<clipPath id="clip0_1322_7159">
<rect width="18.2215" height="22.1827" fill="white" transform="translate(18.8086 19.7695)"/>
</clipPath>
</defs>
</svg>
