<svg width="53" height="48" viewBox="0 0 53 48" fill="none" xmlns="http://www.w3.org/2000/svg">
<g clip-path="url(#clip0_1322_6991)">
<path d="M48.9151 43.0239C49.5256 43.0239 50.0819 42.9757 50.6272 43.0336C51.909 43.1698 52.8311 44.2932 52.7581 45.5652C52.6834 46.8659 51.6476 47.8715 50.3495 47.8802C48.8632 47.8903 47.3767 47.8827 45.8902 47.8827C31.7204 47.8827 17.5505 47.8827 3.38065 47.8825C2.12332 47.8825 1.16225 47.1809 0.877304 46.0579C0.479453 44.489 1.60311 43.0325 3.24346 42.9948C3.57679 42.9872 3.9105 42.9937 4.2848 42.9937C4.2848 42.8316 4.2848 42.7045 4.2848 42.5773C4.2848 40.9433 4.28054 39.3093 4.2861 37.6754C4.29148 36.0462 5.12315 34.7724 6.56772 34.2516C6.96724 34.1075 7.41514 34.0392 7.84117 34.0377C12.1376 34.0224 16.4343 34.0245 20.7307 34.0301C22.7975 34.0329 24.271 35.5285 24.271 37.6031C24.271 39.2699 24.271 40.9364 24.271 42.6032C24.271 42.7197 24.271 42.8364 24.271 42.9731C25.8344 42.9731 27.3592 42.9731 28.9326 42.9731C28.9326 42.8376 28.9326 42.711 28.9326 42.5842C28.9326 40.9067 28.9315 39.2291 28.933 37.5516C28.9347 35.5611 30.4137 34.0388 32.3991 34.0327C36.7499 34.0195 41.1006 34.0185 45.4514 34.033C47.4266 34.0396 48.9099 35.5732 48.9143 37.5637C48.9181 39.2302 48.9151 40.897 48.9151 42.5637C48.9151 42.692 48.9151 42.8201 48.9151 43.0239Z" fill="#238FFF"/>
<path d="M21.9715 19.7111C22.1471 19.5728 22.3342 19.4467 22.496 19.2937C22.9521 18.8622 23.4534 18.4633 23.8357 17.9721C24.6182 16.9669 24.4519 15.9491 23.4741 15.1408C22.0058 13.9271 20.9599 12.4361 20.6182 10.5253C20.2446 8.43697 20.7995 6.57197 22.0982 4.93054C23.6323 2.99165 25.6829 1.85671 28.0494 1.31168C31.5548 0.504366 34.9104 0.899739 38.004 2.8297C39.7512 3.91958 41.0791 5.39795 41.6535 7.42322C42.4127 10.0998 41.6666 12.4184 39.7868 14.3826C37.9614 16.2899 35.6564 17.2694 33.0802 17.6005C32.1082 17.7255 31.1136 17.6761 30.1293 17.7007C29.4517 17.7176 28.8177 17.7971 28.2256 18.2213C26.9762 19.1167 25.5989 19.7613 24.052 19.9225C23.4654 19.9836 22.8648 19.9147 22.2708 19.8961C22.181 19.8933 22.093 19.8423 22.0042 19.8136C21.9932 19.7796 21.9823 19.7453 21.9715 19.7111ZM36.4455 7.79737C35.6019 7.80333 34.9314 8.49225 34.9364 9.34778C34.9414 10.197 35.6266 10.8794 36.4705 10.8758C37.3259 10.8723 38.0148 10.1668 38.0024 9.30701C37.9903 8.46377 37.2968 7.79123 36.4455 7.79737ZM31.3687 10.8757C32.2252 10.893 32.9382 10.205 32.9482 9.35131C32.958 8.52576 32.2856 7.82157 31.4649 7.79774C30.6013 7.77261 29.8915 8.44236 29.8696 9.3031C29.8487 10.1357 30.5378 10.8587 31.3687 10.8757ZM26.3648 10.8757C27.1987 10.8718 27.8982 10.1655 27.893 9.3327C27.8876 8.47624 27.1837 7.78676 26.3253 7.79718C25.4795 7.80761 24.814 8.49765 24.8229 9.35485C24.8314 10.2029 25.5177 10.8798 26.3648 10.8757Z" fill="#238FFF"/>
<path d="M38.8968 32.4136C35.4522 32.4117 32.6786 29.618 32.6797 26.1514C32.6808 22.7083 35.4839 19.9055 38.9255 19.9063C42.3768 19.907 45.1617 22.7174 45.1593 26.197C45.1569 29.6406 42.3616 32.4154 38.8968 32.4136Z" fill="#238FFF"/>
<path d="M14.2807 32.4136C10.8313 32.414 8.04688 29.6233 8.04688 26.1656C8.04688 22.7044 10.8548 19.9003 14.3148 19.9063C17.7325 19.912 20.4952 22.6862 20.5341 26.1511C20.5727 29.5896 17.7532 32.4132 14.2807 32.4136Z" fill="#238FFF"/>
</g>
<defs>
<clipPath id="clip0_1322_6991">
<rect width="51.9651" height="46.9685" fill="white" transform="translate(0.796875 0.916992)"/>
</clipPath>
</defs>
</svg>
