<svg width="58" height="61" viewBox="0 0 58 61" fill="none" xmlns="http://www.w3.org/2000/svg">
<g clip-path="url(#clip0_1322_7583)">
<path d="M54.4451 31.0814C57.1627 33.7956 56.6483 38.0564 53.1892 39.9816C54.7178 41.4884 55.4038 43.283 54.8779 45.4167C54.3585 47.5239 52.9524 48.7909 50.8717 49.4112C51.6279 50.3937 52.028 51.4539 51.9659 52.653C51.8304 55.2681 49.8673 57.1454 47.2281 57.1619C44.0892 57.1818 40.9518 57.1669 37.8129 57.1669C33.0652 57.1669 28.316 57.147 23.5684 57.1768C21.6788 57.1884 19.8382 56.9171 18.009 56.4771C17.5338 56.363 17.3656 56.1877 17.3672 55.6634C17.3884 49.4939 17.3819 43.3227 17.3819 37.1533C17.3819 34.0586 17.3705 30.9623 17.3982 27.8676C17.4015 27.5352 17.5795 27.1828 17.7461 26.8785C18.2295 26.0019 18.8632 25.1931 19.2355 24.2734C20.8214 20.3451 22.3353 16.3887 23.864 12.4373C23.9799 12.1396 24.0387 11.8005 24.042 11.4796C24.0567 9.33436 24.0501 7.18744 24.0501 5.04053C24.0501 1.91113 26.6142 -0.0521888 29.6013 0.786398C30.7331 1.10397 31.6836 1.7143 32.4512 2.60912C36.1029 6.86987 37.1025 11.7641 35.711 17.1628C35.3713 18.4811 34.7327 19.7199 34.2052 21.0597C34.362 21.0597 34.5923 21.0597 34.8225 21.0597C40.5893 21.0597 46.3576 21.0564 52.1244 21.0613C54.5366 21.063 56.4359 22.3597 57.2035 24.5017C58.0462 26.8504 57.1398 29.4455 55.0265 30.739C54.8518 30.8482 54.6754 30.9474 54.4451 31.0814Z" fill="#238FFF"/>
<path d="M0.55549 42.6874C0.55549 37.9023 0.553857 33.1156 0.55549 28.3305C0.55549 26.129 1.79343 24.8654 3.95085 24.8637C6.76154 24.8621 9.57387 24.8604 12.3846 24.8637C14.3868 24.867 15.6852 26.1572 15.6868 28.1817C15.6934 37.856 15.6934 47.5304 15.6868 57.2064C15.6852 59.264 14.3885 60.5491 12.3454 60.5508C9.51344 60.5541 6.68152 60.5541 3.8496 60.5508C1.8506 60.5491 0.557124 59.2507 0.553857 57.2312C0.550591 52.3816 0.55549 47.5337 0.55549 42.6874Z" fill="#238FFF"/>
</g>
<defs>
<clipPath id="clip0_1322_7583">
<rect width="56.9618" height="59.9598" fill="white" transform="translate(0.554688 0.592773)"/>
</clipPath>
</defs>
</svg>
