<svg width="25" height="25" viewBox="0 0 25 25" fill="none" xmlns="http://www.w3.org/2000/svg">
<circle cx="12.322" cy="12.5422" r="12.322" fill="#F0F8FF"/>
<g clip-path="url(#clip0_58_9102)">
<path d="M11.8464 9.97036C11.8464 9.73142 11.8316 9.52972 11.849 9.33065C11.9334 8.36995 12.7616 7.57799 13.7253 7.54536C14.2305 7.52822 14.7368 7.5358 15.2423 7.54009C15.5343 7.54272 15.738 7.75299 15.734 8.02917C15.7304 8.30338 15.5178 8.50672 15.2291 8.50771C14.7852 8.50936 14.3409 8.50738 13.897 8.50837C13.2514 8.51002 12.8117 8.94604 12.8071 9.58871C12.8061 9.70307 12.8071 9.81743 12.8071 9.96277C12.9805 9.90642 13.1347 9.85731 13.2883 9.80656C13.603 9.70241 13.9102 9.55641 14.2332 9.49973C15.5221 9.27364 16.7455 9.87939 17.3717 11.028C17.6515 11.5414 17.8018 12.1004 17.931 12.6656C18.078 13.3089 18.164 13.9592 18.1426 14.621C18.13 15.0089 18.077 15.3902 17.9474 15.758C17.5411 16.9121 16.438 17.3485 15.3534 16.7773C15.1695 16.6805 15.0027 16.5499 14.8304 16.4313C14.4217 16.1495 14.0278 15.8427 13.6037 15.5869C12.7372 15.0642 11.8523 15.0764 10.9921 15.6051C10.5838 15.8559 10.1952 16.1419 9.81294 16.4316C9.46096 16.6982 9.09612 16.9247 8.6535 16.9998C7.87439 17.132 7.17175 16.7734 6.81713 16.0622C6.61345 15.6542 6.51985 15.2162 6.50271 14.7663C6.45525 13.5192 6.66058 12.3074 7.19712 11.1832C7.75641 10.0122 8.72832 9.42722 10.04 9.44897C10.4961 9.45655 10.9154 9.61508 11.3286 9.79436C11.4835 9.8616 11.6493 9.90444 11.8464 9.97036ZM10.0703 13.1748C10.1722 13.1748 10.2579 13.1758 10.3432 13.1745C10.6211 13.1702 10.834 12.9635 10.8369 12.6966C10.8399 12.4247 10.6247 12.2118 10.3416 12.2078C10.2532 12.2065 10.1649 12.2075 10.0707 12.2075C10.0707 12.1136 10.0713 12.0397 10.0707 11.9659C10.068 11.6578 9.86897 11.4419 9.58619 11.4406C9.30177 11.4389 9.10238 11.6499 9.09612 11.9597C9.09447 12.0397 9.09579 12.1198 9.09579 12.2075C8.98835 12.2075 8.90266 12.2065 8.81664 12.2078C8.5398 12.2121 8.32624 12.4197 8.32327 12.6867C8.32031 12.9583 8.53585 13.1705 8.81961 13.1745C8.90826 13.1758 8.99692 13.1748 9.09744 13.1748C9.09744 13.2875 9.09216 13.3821 9.09843 13.4757C9.11787 13.7601 9.32484 13.9499 9.60069 13.9417C9.86468 13.9338 10.0614 13.7295 10.0697 13.452C10.0723 13.3659 10.0703 13.2799 10.0703 13.1748ZM14.188 13.8649C14.188 14.1325 14.4082 14.354 14.6718 14.3524C14.9348 14.3507 15.1563 14.1269 15.1566 13.8629C15.157 13.598 14.9348 13.3758 14.6702 13.3765C14.4039 13.3771 14.1877 13.596 14.188 13.8649ZM13.4587 13.1758C13.7266 13.1731 13.9454 12.9517 13.9425 12.6857C13.9395 12.4234 13.7115 12.2055 13.4445 12.2098C13.1808 12.2141 12.9653 12.4333 12.9696 12.693C12.9742 12.9675 13.1874 13.1781 13.4587 13.1758ZM14.6666 11.0395C14.393 11.0421 14.185 11.2557 14.1897 11.5292C14.1939 11.7965 14.4059 12.0078 14.6695 12.0074C14.9361 12.0071 15.155 11.7876 15.1556 11.5197C15.1563 11.2517 14.9375 11.0372 14.6666 11.0395ZM16.3681 12.692C16.3695 12.4263 16.1618 12.2164 15.8932 12.2121C15.6207 12.2075 15.4041 12.4181 15.4022 12.6893C15.3999 12.9622 15.6098 13.1741 15.8837 13.1748C16.1572 13.1758 16.3665 12.9672 16.3681 12.692Z" fill="#238FFF"/>
</g>
<defs>
<clipPath id="clip0_58_9102">
<rect width="11.6501" height="9.49235" fill="white" transform="translate(6.49609 7.79639)"/>
</clipPath>
</defs>
</svg>
