<svg width="49" height="54" viewBox="0 0 49 54" fill="none" xmlns="http://www.w3.org/2000/svg">
<path d="M12.2188 27.921C12.6066 26.531 12.8939 25.184 13.3392 23.8943C14.2874 21.1287 15.7957 18.6784 18.0798 16.8012C22.2745 13.3477 27.5465 13.491 31.5688 17.1451C34.212 19.5525 35.7204 22.619 36.5536 26.0438C36.6972 26.6456 36.7978 27.2618 36.9414 27.921C28.7245 27.921 20.5794 27.921 12.2188 27.921ZM20.2202 20.4696C20.9241 21.0571 21.5131 21.6016 22.1452 22.0601C22.6192 22.3897 22.7054 22.7193 22.5187 23.2638C22.2601 24.009 22.1308 24.7828 21.901 25.6569C22.7485 25.1124 23.5099 24.6681 24.2281 24.1809C24.5298 23.966 24.7453 23.9947 25.0326 24.1953C25.7509 24.6825 26.5122 25.141 27.3454 25.6569C27.1012 24.7111 26.9001 23.8657 26.6703 23.0202C26.5697 22.662 26.6128 22.447 26.9288 22.2034C27.4603 21.8165 27.9488 21.3723 28.4659 20.9424C28.6239 20.7991 28.782 20.6702 29.0262 20.4696C28.3797 20.4266 27.8482 20.2976 27.3454 20.3549C26.1675 20.4982 25.521 20.0397 25.2768 18.879C25.1619 18.3631 24.889 17.8759 24.6447 17.2597C24.2569 18.2341 23.9265 19.0366 23.6104 19.8534C23.4955 20.1543 23.3375 20.2689 23.0358 20.2833C22.1308 20.3263 21.2402 20.3979 20.2202 20.4696Z" fill="#238FFF"/>
<path d="M10.8236 30.4712C10.9098 34.7271 11.5131 38.897 12.8347 42.8663C11.154 44.0987 9.48763 45.3024 7.82126 46.5204C3.79897 42.7947 0.969004 36.5756 0.882812 30.4712C4.18683 30.4712 7.47649 30.4712 10.8236 30.4712Z" fill="#238FFF"/>
<path d="M41.4667 46.5492C39.7716 45.3025 38.1196 44.1132 36.4102 42.8522C37.7174 38.9115 38.3351 34.7416 38.4213 30.457C41.7541 30.457 45.0437 30.457 48.3908 30.457C48.1179 36.7477 45.7907 42.1214 41.4667 46.5492Z" fill="#238FFF"/>
<path d="M32.3281 16.0125C34.3967 13.4045 38.1604 11.8426 41.8092 13.5048C43.648 14.336 45.0271 15.6973 46.1045 17.3595C47.3255 19.2367 48.0294 21.3002 48.3742 23.5356C48.1874 23.5499 48.0294 23.5642 47.8714 23.5642C44.4668 23.5642 41.0622 23.5642 37.6577 23.5786C37.3273 23.5786 37.1405 23.5212 37.0256 23.1773C36.0487 20.469 34.5547 18.1046 32.4143 16.1558C32.3712 16.1128 32.3569 16.0555 32.3281 16.0125Z" fill="#238FFF"/>
<path d="M0.855469 23.5647C1.41572 20.2402 2.60804 17.317 5.09323 15.0672C8.71329 11.7857 13.5113 12.144 16.8441 15.8697C16.8728 15.9127 16.9015 15.9557 16.9733 16.1133C16.5424 16.5145 16.0396 16.9157 15.623 17.3743C14.129 19.0365 13.0372 20.928 12.2759 23.0058C12.1179 23.4644 11.9024 23.579 11.4283 23.579C8.12431 23.5647 4.82029 23.5647 1.50191 23.5647C1.31516 23.5647 1.11404 23.5647 0.855469 23.5647Z" fill="#238FFF"/>
<path d="M14.0434 42.3793C12.7649 38.4816 12.1903 34.5266 12.1328 30.457C16.0976 30.457 20.0194 30.457 23.9555 30.457C23.9555 33.6239 23.9555 36.7764 23.9555 39.9719C20.4934 40.0722 17.2038 40.8747 14.0434 42.3793Z" fill="#238FFF"/>
<path d="M25.2891 30.4429C29.2395 30.4429 33.1325 30.4429 37.1117 30.4429C37.0542 34.5125 36.4796 38.4675 35.2011 42.3795C32.0551 40.8892 28.7655 40.0724 25.2891 39.9721C25.2891 36.7766 25.2891 33.6384 25.2891 30.4429Z" fill="#238FFF"/>
<path d="M24.6142 0.723145C27.7171 0.723145 30.2167 3.2165 30.2167 6.32603C30.2167 9.42123 27.7171 11.9432 24.6142 11.9432C21.5256 11.9432 19.0117 9.43556 19.0117 6.34036C19.0117 3.2165 21.5113 0.723145 24.6142 0.723145Z" fill="#238FFF"/>
<path d="M34.7727 43.6405C33.5516 46.6784 32.0433 49.5013 29.5006 51.6364C28.2939 52.6395 26.9436 53.3273 25.3203 53.4706C25.3203 49.401 25.3203 45.36 25.3203 41.3334C27.3315 41.0468 32.4886 42.2935 34.7727 43.6405Z" fill="#238FFF"/>
<path d="M23.9577 41.2617C23.9577 45.3743 23.9577 49.4009 23.9577 53.5852C23.1388 53.3129 22.3488 53.1266 21.6305 52.8114C20.0934 52.1236 18.9011 50.9915 17.8524 49.6875C16.3871 47.8677 15.3385 45.8329 14.4766 43.5974C17.4789 42.1358 20.6105 41.362 23.9577 41.2617Z" fill="#238FFF"/>
<path d="M10.5651 2.12744C13.0072 2.12744 14.9753 4.07627 14.9753 6.52664C14.9753 8.96267 13.0216 10.9545 10.5939 10.9688C8.15177 10.9832 6.14062 8.96267 6.14062 6.52664C6.14062 4.0906 8.12304 2.12744 10.5651 2.12744Z" fill="#238FFF"/>
<path d="M38.6653 2.12752C41.1074 2.11319 43.0898 4.07635 43.1186 6.49806C43.1329 8.9341 41.1218 10.9689 38.6797 10.9546C36.2519 10.9546 34.2839 8.97709 34.2695 6.54105C34.2695 4.09068 36.2232 2.14185 38.6653 2.12752Z" fill="#238FFF"/>
<path d="M30.1016 52.8539C32.8884 50.5611 34.5835 47.5232 35.977 44.1128C37.4997 45.2305 38.965 46.3052 40.5164 47.4373C37.4135 50.1742 33.9802 51.9511 30.1016 52.8539Z" fill="#238FFF"/>
<path d="M19.2863 52.9255C15.264 51.9654 11.8595 50.1742 8.74219 47.4516C10.2793 46.3196 11.7445 45.2448 13.2816 44.1128C14.6607 47.5232 16.3558 50.5611 19.2863 52.9255Z" fill="#238FFF"/>
</svg>
