<svg width="9" height="15" viewBox="0 0 9 15" fill="none" xmlns="http://www.w3.org/2000/svg">
<path d="M1.25081 14.1173C1.06765 13.9197 0.964756 13.6517 0.964756 13.3723C0.964756 13.0929 1.06765 12.8249 1.25081 12.6273L6.08702 7.4115L1.25081 2.19567C1.07284 1.99694 0.974365 1.73077 0.976591 1.45449C0.978817 1.17821 1.08157 0.913932 1.26271 0.718567C1.44386 0.523202 1.68891 0.412386 1.94508 0.409985C2.20124 0.407584 2.44804 0.513792 2.63231 0.705732L8.15926 6.66653C8.34242 6.86413 8.44531 7.1321 8.44531 7.4115C8.44531 7.69091 8.34242 7.95887 8.15926 8.15647L2.63231 14.1173C2.44909 14.3148 2.20063 14.4258 1.94156 14.4258C1.68249 14.4258 1.43403 14.3148 1.25081 14.1173Z" fill="white"/>
</svg>
