<svg width="107" height="108" viewBox="0 0 107 108" fill="none" xmlns="http://www.w3.org/2000/svg">
<path d="M99.3003 61.5651C103.407 36.2621 86.2236 12.4209 60.9206 8.3144C35.6176 4.20788 11.7764 21.391 7.66989 46.6941C3.56337 71.9971 20.7465 95.8383 46.0496 99.9448C71.3526 104.051 95.1938 86.8681 99.3003 61.5651Z" fill="#66F3C0"/>
<g filter="url(#filter0_d_3258_41407)">
<path d="M91.1923 60.2492C94.5721 39.4241 80.4298 19.8022 59.6047 16.4224C38.7796 13.0426 19.1576 27.1848 15.7778 48.0099C12.3981 68.8351 26.5403 88.457 47.3654 91.8368C68.1905 95.2166 87.8125 81.0743 91.1923 60.2492Z" fill="white"/>
</g>
<g clip-path="url(#clip0_3258_41407)">
<path d="M63.5485 65.4784C63.3108 65.2227 63.1589 65.061 62.9915 64.8804C60.5709 66.6253 57.9421 67.2175 55.0756 66.4462C52.842 65.8453 51.0754 64.5352 49.7828 62.578C47.2033 58.6766 47.8404 53.3496 51.2386 50.244C54.738 47.0446 59.8648 46.9551 63.3994 50.0115C66.9002 53.039 67.9495 58.5538 64.8453 62.9781C65.0211 63.1139 65.2068 63.2554 65.391 63.3984C65.4234 63.4649 65.4557 63.5313 65.4881 63.5978C65.5851 63.4273 65.6512 63.2222 65.7863 63.0908C66.3193 62.5679 67.0789 62.5563 67.6063 63.0893C68.8033 64.2969 70.0072 65.5015 71.1592 66.7538C72.3196 68.0134 72.2408 70.011 71.0467 71.2402C69.8638 72.4564 67.9326 72.559 66.7104 71.3876C65.4642 70.193 64.2757 68.932 63.0829 67.6797C62.5836 67.1554 62.6132 66.3826 63.1026 65.841C63.2222 65.7081 63.3811 65.6127 63.5485 65.4784ZM64.052 57.2885C64.0562 53.5576 61.104 50.504 57.4808 50.4925C53.8266 50.4809 50.8462 53.5186 50.842 57.2625C50.8377 60.9935 53.79 64.047 57.4132 64.06C61.0646 64.073 64.0464 61.031 64.052 57.2885ZM65.9283 66.7712C66.7821 67.6523 67.6035 68.5016 68.4291 69.3466C68.6457 69.569 68.8848 69.5994 69.1197 69.3726C69.3476 69.1545 69.4165 68.9003 69.2365 68.6172C69.1774 68.5247 69.0958 68.4453 69.0185 68.3658C68.3208 67.6465 67.6218 66.9286 66.9213 66.2136C66.8482 66.1385 66.7624 66.0764 66.6879 66.0143C66.4291 66.27 66.1942 66.5054 65.9283 66.7712Z" fill="#5CD8AB"/>
<path d="M42.9264 47.7799C42.9264 52.3183 42.9264 56.8061 42.9264 61.3474C43.0839 61.3474 43.2302 61.3474 43.3765 61.3474C44.6831 61.3474 45.9898 61.3546 47.2979 61.3416C47.5496 61.3388 47.672 61.4124 47.7944 61.6536C48.1966 62.4539 48.6425 63.2295 49.0813 64.0326C49.0363 64.0384 48.9393 64.0601 48.8408 64.0601C46.461 64.0615 44.0812 64.0644 41.7013 64.0601C40.811 64.0586 40.2723 63.4967 40.2723 62.5709C40.2709 56.7787 40.2737 50.9851 40.2681 45.1929C40.2681 44.7249 40.42 44.348 40.7421 44.0201C42.0107 42.7259 43.2766 41.4273 44.5355 40.1244C44.8547 39.7937 45.2218 39.6362 45.6776 39.6362C49.5567 39.642 53.4373 39.6377 57.3165 39.6406C58.2167 39.6406 58.7638 40.1938 58.7667 41.1081C58.7709 42.8587 58.7681 44.6094 58.7681 46.3918C57.8932 46.3918 57.0352 46.3918 56.1322 46.3918C56.1322 45.0615 56.1322 43.7283 56.1322 42.3749C53.4781 42.3749 50.8704 42.3749 48.1995 42.3749C48.1995 42.5063 48.1995 42.6406 48.1995 42.7735C48.1995 43.9031 48.1995 45.0341 48.1995 46.1636C48.198 47.2671 47.7072 47.7785 46.6438 47.7785C45.4173 47.7799 44.1937 47.7799 42.9264 47.7799ZM45.5313 45.0456C45.5313 44.3566 45.5313 43.6922 45.5313 43.0812C44.8983 43.7297 44.2499 44.3956 43.617 45.0456C44.2077 45.0456 44.8463 45.0456 45.5313 45.0456Z" fill="#5CD8AB"/>
<path d="M62.6692 36.4512C63.281 35.8156 63.8535 35.1887 64.4583 34.5994C65.2093 33.8671 66.3965 34.221 66.6482 35.2379C66.7748 35.7463 66.6327 36.1868 66.2755 36.5552C65.703 37.1431 65.125 37.7266 64.5258 38.3362C64.6425 38.4199 64.7283 38.4806 64.8127 38.5441C65.2755 38.8908 65.471 39.4585 65.3162 40.0001C65.1573 40.5548 64.7086 40.9679 64.153 40.9823C63.2051 41.0069 62.2556 41.0127 61.3076 40.9823C60.617 40.9607 60.0994 40.3627 60.0896 39.6304C60.0783 38.7406 60.0812 37.8508 60.0882 36.9625C60.0938 36.301 60.4483 35.8127 61.0348 35.6293C61.6072 35.4502 62.1586 35.6726 62.5271 36.2316C62.5651 36.288 62.6002 36.3443 62.6692 36.4512Z" fill="#5CD8AB"/>
<path d="M37.1597 38.3406C36.545 37.718 35.9374 37.1302 35.3635 36.5091C34.6504 35.7377 34.9936 34.5172 35.9824 34.2586C36.4761 34.1286 36.9079 34.2716 37.2651 34.64C37.8376 35.2293 38.403 35.8258 38.9966 36.4441C39.0894 36.3097 39.1555 36.2086 39.2272 36.1118C39.5606 35.6612 40.1077 35.4705 40.6197 35.6222C41.157 35.7825 41.5663 36.2491 41.5789 36.8153C41.6029 37.7888 41.6085 38.7638 41.5789 39.7374C41.5578 40.448 40.9798 40.981 40.2667 40.9926C39.4143 41.0056 38.5605 40.9998 37.7082 40.994C37.0373 40.9897 36.5464 40.63 36.365 40.0234C36.1849 39.4225 36.4086 38.862 36.9838 38.4663C37.0274 38.4374 37.0696 38.4056 37.1597 38.3406Z" fill="#5CD8AB"/>
<path d="M37.1764 68.0714C36.5209 67.6843 36.1918 67.1845 36.3437 66.4638C36.4717 65.8556 36.9766 65.4324 37.5899 65.4223C38.483 65.4064 39.3776 65.4079 40.2707 65.4209C41.0162 65.4324 41.5717 66.0001 41.5858 66.7656C41.6013 67.6554 41.5957 68.5452 41.5886 69.4349C41.583 70.1124 41.2131 70.6165 40.6139 70.7927C40.0583 70.9559 39.5126 70.732 39.1553 70.1918C39.1188 70.1355 39.0836 70.0777 39.0077 69.9535C38.3986 70.589 37.8304 71.2159 37.2284 71.8052C36.4759 72.5419 35.293 72.1996 35.0328 71.1856C34.9034 70.6786 35.0399 70.2366 35.3943 69.8668C35.684 69.5649 35.9752 69.2645 36.2692 68.9684C36.5533 68.681 36.843 68.3993 37.1764 68.0714Z" fill="#5CD8AB"/>
<path d="M50.3094 49.1376C49.6666 49.997 49.0308 50.855 48.3824 51.7029C48.3205 51.7837 48.1813 51.843 48.0772 51.843C47.2249 51.8531 46.3725 51.8632 45.5216 51.843C44.786 51.8256 44.2248 51.2074 44.236 50.4679C44.2473 49.7442 44.8014 49.1477 45.5244 49.1404C47.1306 49.126 48.7383 49.1376 50.3094 49.1376Z" fill="#5CD8AB"/>
<path d="M46.9082 55.9135C46.4342 55.9135 45.9251 55.9424 45.4215 55.9063C44.7506 55.8586 44.2358 55.2491 44.2358 54.5644C44.2358 53.874 44.745 53.2572 45.4187 53.2225C46.1431 53.1835 46.8689 53.2139 47.5932 53.2139C47.3625 54.1181 47.1389 54.9992 46.9082 55.9135Z" fill="#5CD8AB"/>
<path d="M47.167 59.9823C46.5861 59.9823 45.9953 60.0141 45.4074 59.9737C44.7379 59.9289 44.2273 59.3078 44.233 58.6217C44.2372 57.9312 44.752 57.3347 45.4271 57.287C45.8898 57.2553 46.3568 57.2813 46.8153 57.2813C46.9321 58.1782 47.046 59.0521 47.167 59.9823Z" fill="#5CD8AB"/>
</g>
<defs>
<filter id="filter0_d_3258_41407" x="7.37881" y="12.0232" width="92.2126" height="92.2127" filterUnits="userSpaceOnUse" color-interpolation-filters="sRGB">
<feFlood flood-opacity="0" result="BackgroundImageFix"/>
<feColorMatrix in="SourceAlpha" type="matrix" values="0 0 0 0 0 0 0 0 0 0 0 0 0 0 0 0 0 0 127 0" result="hardAlpha"/>
<feOffset dy="4"/>
<feGaussianBlur stdDeviation="3.95"/>
<feComposite in2="hardAlpha" operator="out"/>
<feColorMatrix type="matrix" values="0 0 0 0 0 0 0 0 0 0 0 0 0 0 0 0 0 0 0.25 0"/>
<feBlend mode="normal" in2="BackgroundImageFix" result="effect1_dropShadow_3258_41407"/>
<feBlend mode="normal" in="SourceGraphic" in2="effect1_dropShadow_3258_41407" result="shape"/>
</filter>
<clipPath id="clip0_3258_41407">
<rect width="37" height="38" fill="white" transform="translate(34.9849 34.2109)"/>
</clipPath>
</defs>
</svg>
