<svg width="17" height="22" viewBox="0 0 17 22" fill="none" xmlns="http://www.w3.org/2000/svg">
<path d="M4.30057 18.844C3.51868 19.1825 2.7563 19.5097 1.99769 19.8437C1.79389 19.9336 1.60329 19.953 1.42779 19.7994C1.24223 19.6377 1.25104 19.4372 1.31897 19.2206C1.82282 17.6171 2.3229 16.0123 2.82424 14.4082C2.95822 13.9786 3.0922 13.5484 3.23248 13.0976C3.1073 13.0688 2.99533 13.0445 2.88399 13.017C2.07066 12.8159 1.70457 12.2827 1.83037 11.4622C1.88321 11.1163 1.95366 10.7729 2.02726 10.4307C2.10085 10.0879 2.02223 9.80939 1.74986 9.57212C1.45547 9.31548 1.16109 9.05385 0.903184 8.76225C0.372284 8.16344 0.370397 7.56463 0.900039 6.95957C1.15605 6.66672 1.44981 6.40447 1.74482 6.14846C2.026 5.90494 2.10274 5.6202 2.02348 5.26866C1.95177 4.95021 1.89265 4.62801 1.84044 4.30581C1.69387 3.39604 2.09834 2.83095 3.01546 2.67235C3.36268 2.6124 3.71368 2.56994 4.06468 2.53622C4.40373 2.50438 4.62514 2.34016 4.76668 2.0342C4.94595 1.64581 5.11956 1.25118 5.34224 0.887147C5.65927 0.36826 6.13104 0.168447 6.65942 0.301447C6.88461 0.358269 7.101 0.459424 7.3111 0.561828C7.57088 0.688584 7.82187 0.834697 8.07348 0.977687C8.35717 1.13941 8.63709 1.14066 8.92141 0.98081C9.15981 0.846561 9.39632 0.707316 9.64165 0.585556C9.84419 0.485025 10.0518 0.387617 10.2675 0.323926C10.7695 0.17594 11.2186 0.297701 11.525 0.717931C11.752 1.02951 11.9514 1.37731 12.0823 1.7376C12.2961 2.32767 12.6874 2.5843 13.3032 2.58618C13.5668 2.5868 13.8354 2.63613 14.0939 2.69545C14.9337 2.88964 15.2972 3.43226 15.1626 4.27834C15.1085 4.61615 15.0412 4.95208 14.9714 5.28739C14.9022 5.61895 14.9676 5.89432 15.235 6.12848C15.535 6.39073 15.8338 6.6586 16.0967 6.95582C16.6264 7.55464 16.6264 8.16406 16.098 8.75913C15.8344 9.05573 15.535 9.3236 15.2356 9.58648C14.9689 9.82001 14.901 10.0954 14.9708 10.4269C15.0381 10.7466 15.1029 11.0676 15.1538 11.3898C15.3029 12.3351 14.906 12.8821 13.9574 13.0513C13.9039 13.0607 13.8511 13.0745 13.7693 13.0919C13.8429 13.3342 13.9127 13.569 13.9857 13.8031C14.5468 15.6008 15.1066 17.3985 15.6715 19.195C15.742 19.4179 15.7646 19.6252 15.5728 19.7969C15.3796 19.9699 15.1739 19.9211 14.9595 19.8262C14.2153 19.4972 13.4687 19.175 12.7025 18.8415C12.6088 18.987 12.5157 19.1281 12.4251 19.2718C12.0766 19.8262 11.7256 20.3801 11.3822 20.9383C11.2576 21.1406 11.1073 21.278 10.8506 21.2399C10.6015 21.2031 10.5091 21.0214 10.443 20.8103C9.8291 18.8415 9.21328 16.8734 8.59809 14.9052C8.57355 14.8272 8.54588 14.7504 8.50185 14.6217C8.45719 14.7416 8.42888 14.8097 8.40686 14.8796C7.79356 16.8403 7.18089 18.8009 6.56758 20.7616C6.55375 20.8059 6.53802 20.8503 6.52418 20.8946C6.46317 21.0907 6.33925 21.2181 6.12726 21.2424C5.91654 21.2668 5.76557 21.1737 5.65612 20.9995C5.2548 20.3582 4.85285 19.717 4.4509 19.0763C4.40498 19.0051 4.35844 18.9339 4.30057 18.844ZM14.2486 4.12661C14.2619 3.73884 14.2159 3.66142 13.914 3.60272C13.5989 3.54153 13.2793 3.4972 12.9598 3.4716C12.203 3.4104 11.6583 3.06635 11.3595 2.35889C11.2476 2.09351 11.1243 1.83251 10.9934 1.57588C10.7708 1.13816 10.6544 1.09945 10.2235 1.32111C9.95176 1.46036 9.68568 1.61022 9.42086 1.76133C8.80063 2.11474 8.18482 2.10912 7.56648 1.75571C7.29474 1.60023 7.02174 1.44662 6.74182 1.30738C6.34302 1.10819 6.22225 1.1469 6.01907 1.54465C5.84546 1.88434 5.69575 2.23588 5.52214 2.57619C5.2743 3.06198 4.87047 3.34422 4.32761 3.42289C3.95523 3.47659 3.58033 3.51343 3.20857 3.57088C2.78146 3.63706 2.69969 3.74072 2.75693 4.16345C2.7953 4.44818 2.85443 4.73104 2.92111 5.0114C3.09598 5.74633 2.92048 6.3645 2.33422 6.86216C2.11406 7.04949 1.90082 7.24618 1.69576 7.44973C1.36112 7.78255 1.36049 7.93553 1.69513 8.26647C1.97253 8.54121 2.27006 8.79722 2.54495 9.07446C2.91796 9.45036 3.04943 9.9093 2.96011 10.4269C2.89909 10.7797 2.82235 11.1294 2.76322 11.4828C2.68271 11.9642 2.77266 12.0841 3.2526 12.1553C3.41552 12.1797 3.5797 12.2071 3.74325 12.2103C4.74843 12.2309 5.44288 12.6755 5.76935 13.6427C5.82596 13.8113 5.91465 13.9699 5.99643 14.1291C6.23105 14.5855 6.3405 14.6205 6.8041 14.3807C7.08213 14.2365 7.35387 14.081 7.62813 13.9305C8.21186 13.6102 8.79497 13.6133 9.37745 13.9349C9.64479 14.0823 9.91024 14.2327 10.1814 14.3732C10.6651 14.6242 10.7676 14.5912 11.0148 14.0985C11.1721 13.785 11.3111 13.4628 11.4696 13.1506C11.7162 12.6648 12.115 12.3776 12.6585 12.2964C13.0849 12.2327 13.5127 12.1784 13.9379 12.1122C14.1662 12.0766 14.2889 11.9418 14.2512 11.7039C14.199 11.3735 14.1537 11.0414 14.0769 10.7167C13.8995 9.97112 14.0788 9.34858 14.672 8.84655C14.8928 8.65985 15.106 8.46316 15.3098 8.25835C15.6331 7.93366 15.6338 7.7813 15.3098 7.45785C15.0387 7.18748 14.7475 6.93709 14.4751 6.66797C14.0857 6.28271 13.9442 5.8144 14.0379 5.2774C14.1103 4.86341 14.1889 4.45068 14.2486 4.12661Z" fill="#53CB50"/>
<path d="M8.62414 12.9434C5.8734 12.9909 3.51454 10.9266 3.37678 8.05614C3.24343 5.27875 5.47145 2.89411 8.29641 2.77485C11.1126 2.65621 13.4941 4.85352 13.618 7.68461C13.74 10.4745 11.5076 12.8254 8.62414 12.9434ZM7.28305 9.1932C7.05534 8.94218 6.84336 8.70428 6.62634 8.47137C6.40807 8.23722 6.12375 8.21162 5.92183 8.40082C5.7218 8.58814 5.72557 8.8479 5.93819 9.0858C6.25081 9.43485 6.56596 9.78202 6.88236 10.1273C7.16794 10.4389 7.43527 10.4364 7.71267 10.1136C8.14545 9.61031 8.57318 9.10266 9.00281 8.59688C9.68531 7.79326 10.3684 6.99027 11.0497 6.18602C11.2692 5.92689 11.2711 5.66776 11.0622 5.48106C10.8528 5.29373 10.5622 5.3337 10.3439 5.58908C9.80608 6.21849 9.27203 6.85102 8.7361 7.48168C8.25804 8.04677 7.77809 8.61062 7.28305 9.1932Z" fill="#53CB50"/>
</svg>
