<svg width="92" height="92" viewBox="0 0 92 92" fill="none" xmlns="http://www.w3.org/2000/svg">
<g clip-path="url(#clip0_0_7787)">
<path d="M91.3823 57.6642V53.2405C91.3823 52.4181 89.9989 51.6341 87.516 50.9271L87.5758 45.4216C87.573 36.9299 84.9392 28.6476 80.0368 21.7137C75.1117 14.7495 68.1695 9.46284 60.1463 6.56665L59.9683 5.463C59.8765 4.87187 59.6182 4.31905 59.2235 3.86947C58.8265 3.41826 58.3102 3.0883 57.734 2.91748C50.0216 0.675292 41.8303 0.675292 34.118 2.91748C33.5384 3.08766 33.0214 3.4159 32.6227 3.86805C32.2261 4.31656 31.9664 4.86931 31.8744 5.46086L31.7035 6.48975C23.6313 9.35853 16.6381 14.6429 11.674 21.6247C6.7344 28.5764 4.07908 36.8923 4.07586 45.4201V50.9491C1.62718 51.654 0.262212 52.4295 0.262212 53.2462V57.6693C0.222801 57.9289 0.279515 58.194 0.421707 58.4147C1.64303 57.5122 3.04262 56.8801 4.52729 56.5607C8.31491 55.6465 12.1638 55.0078 16.0437 54.6495C17.1302 54.5279 18.23 54.637 19.2714 54.9698C20.3128 55.3026 21.2721 55.8515 22.0868 56.5806C25.0958 59.3017 29.0091 60.8077 33.0663 60.8048H58.5812C62.6384 60.8069 66.5513 59.3003 69.5586 56.577C70.3718 55.8441 71.3306 55.2913 72.3725 54.9547C73.4142 54.6181 74.515 54.5054 75.603 54.6239C79.4821 54.9817 83.33 55.618 87.1173 56.5278C88.5243 56.7941 89.8543 57.3714 91.0092 58.2175C91.0733 58.2816 91.1516 58.3386 91.2065 58.3984C91.3503 58.1821 91.413 57.922 91.3823 57.6642Z" fill="#FFF100"/>
<path d="M22.137 48.3551C22.1027 47.3365 22.0844 46.3175 22.0822 45.2984C22.095 29.9206 25.7221 16.1292 31.6968 6.49756C23.625 9.36577 16.6318 14.6493 11.6673 21.6304C6.72777 28.5804 4.0715 36.8943 4.06641 45.4208V50.9498C10.0007 49.5472 16.0479 48.6789 22.137 48.3551Z" fill="url(#paint0_linear_0_7787)"/>
<path d="M87.5799 45.4206C87.5877 35.8059 84.2148 26.4946 78.0508 19.116C80.7252 27.5811 82.0581 36.4128 82.0011 45.2903C82.0011 46.7891 81.9613 48.2687 81.8922 49.7405C83.7848 50.0314 85.6596 50.4265 87.5087 50.9239L87.5778 45.4199L87.5799 45.4206Z" fill="url(#paint1_linear_0_7787)"/>
<path d="M87.1205 56.5445C83.3325 55.6304 79.4833 54.9915 75.6034 54.6327C74.5161 54.5126 73.4153 54.6233 72.3743 54.9578C71.3326 55.2923 70.3734 55.8429 69.5595 56.5737C66.5513 59.2966 62.6375 60.8032 58.58 60.7997H33.075C29.0199 60.8011 25.1091 59.2951 22.1018 56.5751C21.2892 55.8411 20.3304 55.2873 19.2885 54.9501C18.2467 54.6129 17.1453 54.4998 16.0567 54.6184C12.177 54.9773 8.32813 55.6155 4.54024 56.5281C3.05796 56.8519 1.66021 57.4833 0.4375 58.3815C2.37423 61.3202 21.9651 64.4025 45.8353 64.4025C69.7076 64.4025 89.2901 61.3088 91.2304 58.3837C91.1627 58.3253 91.088 58.2683 91.031 58.2042C89.8618 57.3768 88.5275 56.8108 87.1205 56.5445Z" fill="url(#paint2_radial_0_7787)"/>
<path d="M45.8238 14.2229L36.0547 30.7078L45.8238 36.7195V14.2214V14.2229Z" fill="#0A0A0A"/>
<path d="M45.8203 14.2283V36.7136L55.5866 30.7133L45.8203 14.2283ZM45.8203 39.9789V47.8192C46.0026 47.56 55.5866 33.9694 55.5866 33.963L45.8203 39.9804V39.9789Z" fill="#4B4D4D"/>
<path d="M45.8238 39.9827L36.0547 33.9746L45.8238 47.8251V39.9785V39.9827Z" fill="#0A0A0A"/>
</g>
<defs>
<linearGradient id="paint0_linear_0_7787" x1="17.8815" y1="50.9498" x2="17.8815" y2="6.49784" gradientUnits="userSpaceOnUse">
<stop stop-color="#EDCF00"/>
<stop offset="0.33" stop-color="#F0D500"/>
<stop offset="0.77" stop-color="#F9E500"/>
<stop offset="1" stop-color="#FFF100"/>
</linearGradient>
<linearGradient id="paint1_linear_0_7787" x1="82.8143" y1="51.2748" x2="82.8143" y2="19.1162" gradientUnits="userSpaceOnUse">
<stop stop-color="#EDCF00"/>
<stop offset="0.59" stop-color="#F7E100"/>
<stop offset="1" stop-color="#FFF100"/>
</linearGradient>
<radialGradient id="paint2_radial_0_7787" cx="0" cy="0" r="1" gradientUnits="userSpaceOnUse" gradientTransform="translate(5.35907 81.319) scale(33.8758 33.6453)">
<stop stop-color="#FFF100"/>
<stop offset="0.23" stop-color="#F9E500"/>
<stop offset="0.67" stop-color="#F0D500"/>
<stop offset="1" stop-color="#EDCF00"/>
</radialGradient>
<clipPath id="clip0_0_7787">
<rect width="91.1402" height="91.1402" fill="white" transform="translate(0.25 0.597168)"/>
</clipPath>
</defs>
</svg>
