<svg width="31" height="28" viewBox="0 0 31 28" fill="none" xmlns="http://www.w3.org/2000/svg">
<g clip-path="url(#clip0_344_221)">
<path d="M0.0595703 8.087C0.153523 7.60002 0.220856 7.10598 0.346127 6.6276C1.38196 2.65965 5.08919 -0.126059 9.18241 0.00938969C11.3018 0.0798545 13.1331 0.916037 14.7601 2.24156C14.8509 2.31515 14.941 2.38953 15.049 2.47879C15.2714 2.30341 15.4882 2.12568 15.7122 1.95735C17.4448 0.656883 19.3724 -0.0602922 21.5623 0.0039091C25.6281 0.122916 29.344 3.42302 29.9578 7.44499C30.2866 9.59808 29.8082 11.5719 28.6879 13.4094C28.6323 13.501 28.4812 13.588 28.3739 13.588C26.0595 13.5981 23.7444 13.5934 21.43 13.6005C21.2389 13.6005 21.1606 13.5198 21.08 13.368C20.1319 11.5962 19.1782 9.82749 18.2238 8.0596C17.9584 7.5687 17.4886 7.35339 17.0619 7.58514C16.849 7.70101 16.6532 7.92494 16.5468 8.14651C15.435 10.4578 14.3428 12.7784 13.2451 15.0959C13.1958 15.2 13.1425 15.3034 13.0697 15.4514C12.993 15.3417 12.9327 15.2619 12.8795 15.1773C12.1607 14.0499 11.4436 12.9217 10.724 11.795C10.2503 11.0536 9.51673 11.0645 9.06106 11.8193C8.7377 12.354 8.42374 12.8935 8.09021 13.4212C8.03619 13.5065 7.89839 13.5887 7.79974 13.5887C5.77818 13.5981 3.75662 13.5997 1.73428 13.5872C1.62154 13.5872 1.46652 13.483 1.40388 13.3828C0.697668 12.2382 0.245911 11.0019 0.109679 9.65759C0.103415 9.602 0.076795 9.54798 0.0595703 9.49395C0.0595703 9.02497 0.0595703 8.55599 0.0595703 8.087Z" fill="#89CD78"/>
<path d="M2.93359 15.3543H3.29766C4.97707 15.3543 6.65648 15.3472 8.3359 15.359C8.78374 15.3621 9.10161 15.1977 9.32005 14.8078C9.50405 14.4782 9.70839 14.1587 9.91979 13.8072C10.6706 14.9855 11.398 16.1278 12.1261 17.2701C12.2209 17.4181 12.3117 17.5684 12.4088 17.7149C12.8441 18.3655 13.6552 18.3138 13.9997 17.606C14.3622 16.8607 14.7098 16.109 15.0645 15.3598C15.849 13.7038 16.6335 12.0479 17.4407 10.3442C17.5104 10.4625 17.5637 10.547 17.6114 10.6347C18.3466 11.9994 19.0888 13.3609 19.8123 14.7326C20.044 15.1719 20.3674 15.3645 20.8669 15.3606C22.8391 15.3465 24.8113 15.3551 26.7836 15.3551C26.8901 15.3551 26.9958 15.3551 27.1578 15.3551C27.078 15.4522 27.0326 15.5179 26.9762 15.5735C23.24 19.2933 19.503 23.013 15.7645 26.7312C15.2923 27.201 14.8085 27.1932 14.3348 26.7218C10.6033 23.0107 6.87258 19.2988 3.14264 15.586C3.08314 15.5273 3.0299 15.4623 2.93359 15.3551V15.3543Z" fill="#89CD78"/>
</g>
<defs>
<clipPath id="clip0_344_221">
<rect width="30" height="27.0788" fill="white" transform="translate(0.0595703)"/>
</clipPath>
</defs>
</svg>
