<svg width="33" height="33" viewBox="0 0 33 33" fill="none" xmlns="http://www.w3.org/2000/svg">
<g clip-path="url(#clip0_0_7905)">
<path d="M24.5312 0.580078H7.53125C3.38911 0.580078 0.03125 3.93794 0.03125 8.08008V25.0801C0.03125 29.2222 3.38911 32.5801 7.53125 32.5801H24.5312C28.6734 32.5801 32.0312 29.2222 32.0312 25.0801V8.08008C32.0312 3.93794 28.6734 0.580078 24.5312 0.580078Z" fill="url(#paint0_radial_0_7905)"/>
<path d="M24.5312 0.580078H7.53125C3.38911 0.580078 0.03125 3.93794 0.03125 8.08008V25.0801C0.03125 29.2222 3.38911 32.5801 7.53125 32.5801H24.5312C28.6734 32.5801 32.0312 29.2222 32.0312 25.0801V8.08008C32.0312 3.93794 28.6734 0.580078 24.5312 0.580078Z" fill="url(#paint1_radial_0_7905)"/>
<path d="M16.0324 4.08008C12.6376 4.08008 12.2115 4.09495 10.8783 4.15558C9.5475 4.21658 8.63912 4.4272 7.84438 4.73633C7.02213 5.05558 6.32475 5.4827 5.63 6.1777C4.93463 6.87258 4.5075 7.56995 4.18725 8.39183C3.87725 9.18683 3.66637 10.0956 3.6065 11.4257C3.54687 12.7591 3.53125 13.1853 3.53125 16.5802C3.53125 19.9751 3.54625 20.3998 3.60675 21.7331C3.668 23.0638 3.87863 23.9722 4.1875 24.767C4.507 25.5892 4.93413 26.2866 5.62913 26.9813C6.32375 27.6767 7.02113 28.1048 7.84275 28.4241C8.63812 28.7332 9.54662 28.9438 10.8771 29.0048C12.2105 29.0655 12.6363 29.0803 16.0309 29.0803C19.426 29.0803 19.8507 29.0655 21.184 29.0048C22.5147 28.9438 23.4241 28.7332 24.2195 28.4241C25.0414 28.1048 25.7377 27.6767 26.4322 26.9813C27.1276 26.2866 27.5546 25.5892 27.875 24.7673C28.1822 23.9722 28.3932 23.0636 28.4557 21.7333C28.5156 20.4001 28.5312 19.9751 28.5312 16.5802C28.5312 13.1853 28.5156 12.7593 28.4557 11.426C28.3932 10.0952 28.1822 9.18695 27.875 8.3922C27.5546 7.56995 27.1276 6.87258 26.4322 6.1777C25.737 5.48245 25.0416 5.05533 24.2188 4.73645C23.4219 4.4272 22.513 4.21645 21.1822 4.15558C19.8489 4.09495 19.4244 4.08008 16.0285 4.08008H16.0324ZM14.911 6.3327C15.2439 6.3322 15.6153 6.3327 16.0324 6.3327C19.37 6.3327 19.7655 6.3447 21.0835 6.40458C22.3022 6.46033 22.9638 6.66395 23.4044 6.83508C23.9878 7.06158 24.4036 7.33245 24.8409 7.77008C25.2784 8.20758 25.5491 8.6242 25.7763 9.20758C25.9474 9.64758 26.1513 10.3091 26.2068 11.5278C26.2666 12.8456 26.2796 13.2413 26.2796 16.5773C26.2796 19.9133 26.2666 20.3092 26.2068 21.6268C26.151 22.8456 25.9474 23.5071 25.7763 23.9472C25.5498 24.5306 25.2784 24.946 24.8409 25.3832C24.4034 25.8207 23.988 26.0915 23.4044 26.3181C22.9643 26.49 22.3022 26.6931 21.0835 26.7488C19.7658 26.8087 19.37 26.8217 16.0324 26.8217C12.6946 26.8217 12.299 26.8087 10.9814 26.7488C9.76262 26.6926 9.10112 26.489 8.66012 26.3178C8.07687 26.0912 7.66012 25.8205 7.22262 25.383C6.78512 24.9455 6.51437 24.5298 6.28725 23.9462C6.11613 23.5061 5.91225 22.8446 5.85675 21.6258C5.79688 20.3081 5.78487 19.9123 5.78487 16.5742C5.78487 13.2362 5.79688 12.8425 5.85675 11.5247C5.9125 10.306 6.11613 9.64445 6.28725 9.20383C6.51388 8.62045 6.78513 8.20383 7.22275 7.76633C7.66025 7.32883 8.07687 7.05795 8.66025 6.83095C9.10087 6.65908 9.76262 6.45595 10.9814 6.39995C12.1345 6.34783 12.5814 6.3322 14.911 6.32958V6.3327ZM22.7049 8.4082C21.8768 8.4082 21.2049 9.07945 21.2049 9.9077C21.2049 10.7358 21.8768 11.4077 22.7049 11.4077C23.533 11.4077 24.2049 10.7358 24.2049 9.9077C24.2049 9.07958 23.533 8.4077 22.7049 8.4077V8.4082ZM16.0324 10.1608C12.4874 10.1608 9.61312 13.0351 9.61312 16.5802C9.61312 20.1253 12.4874 22.9982 16.0324 22.9982C19.5775 22.9982 22.4508 20.1253 22.4508 16.5802C22.4508 13.0352 19.5773 10.1608 16.0321 10.1608H16.0324ZM16.0324 12.4135C18.3335 12.4135 20.1991 14.2788 20.1991 16.5802C20.1991 18.8813 18.3335 20.747 16.0324 20.747C13.7311 20.747 11.8658 18.8813 11.8658 16.5802C11.8658 14.2788 13.7311 12.4135 16.0324 12.4135Z" fill="white"/>
</g>
<defs>
<radialGradient id="paint0_radial_0_7905" cx="0" cy="0" r="1" gradientUnits="userSpaceOnUse" gradientTransform="translate(8.53125 35.0447) rotate(-90) scale(31.7144 29.4969)">
<stop stop-color="#FFDD55"/>
<stop offset="0.1" stop-color="#FFDD55"/>
<stop offset="0.5" stop-color="#FF543E"/>
<stop offset="1" stop-color="#C837AB"/>
</radialGradient>
<radialGradient id="paint1_radial_0_7905" cx="0" cy="0" r="1" gradientUnits="userSpaceOnUse" gradientTransform="translate(-5.32887 2.8852) rotate(78.681) scale(14.1765 58.436)">
<stop stop-color="#3771C8"/>
<stop offset="0.128" stop-color="#3771C8"/>
<stop offset="1" stop-color="#6600FF" stop-opacity="0"/>
</radialGradient>
<clipPath id="clip0_0_7905">
<rect width="32" height="32" fill="white" transform="translate(0.03125 0.580078)"/>
</clipPath>
</defs>
</svg>
