<svg width="32" height="33" viewBox="0 0 32 33" fill="none" xmlns="http://www.w3.org/2000/svg">
<g clip-path="url(#clip0_298_2205)">
<path d="M24.5 0.712891H7.5C3.35786 0.712891 0 4.07076 0 8.21289V25.2129C0 29.355 3.35786 32.7129 7.5 32.7129H24.5C28.6421 32.7129 32 29.355 32 25.2129V8.21289C32 4.07076 28.6421 0.712891 24.5 0.712891Z" fill="url(#paint0_radial_298_2205)"/>
<path d="M24.5 0.712891H7.5C3.35786 0.712891 0 4.07076 0 8.21289V25.2129C0 29.355 3.35786 32.7129 7.5 32.7129H24.5C28.6421 32.7129 32 29.355 32 25.2129V8.21289C32 4.07076 28.6421 0.712891 24.5 0.712891Z" fill="url(#paint1_radial_298_2205)"/>
<path d="M16.0011 4.21289C12.6064 4.21289 12.1803 4.22777 10.847 4.28839C9.51625 4.34939 8.60787 4.56002 7.81313 4.86914C6.99088 5.18839 6.2935 5.61552 5.59875 6.31052C4.90338 7.00539 4.47625 7.70277 4.156 8.52464C3.846 9.31964 3.63512 10.2284 3.57525 11.5585C3.51562 12.8919 3.5 13.3181 3.5 16.713C3.5 20.1079 3.515 20.5326 3.5755 21.8659C3.63675 23.1966 3.84738 24.105 4.15625 24.8998C4.47575 25.722 4.90288 26.4194 5.59788 27.1141C6.2925 27.8095 6.98988 28.2376 7.8115 28.5569C8.60687 28.866 9.51537 29.0766 10.8459 29.1376C12.1792 29.1983 12.605 29.2131 15.9996 29.2131C19.3948 29.2131 19.8195 29.1983 21.1528 29.1376C22.4835 29.0766 23.3929 28.866 24.1882 28.5569C25.0101 28.2376 25.7065 27.8095 26.401 27.1141C27.0964 26.4194 27.5234 25.722 27.8438 24.9001C28.151 24.105 28.362 23.1964 28.4245 21.8661C28.4844 20.5329 28.5 20.1079 28.5 16.713C28.5 13.3181 28.4844 12.8921 28.4245 11.5588C28.362 10.228 28.151 9.31977 27.8438 8.52502C27.5234 7.70277 27.0964 7.00539 26.401 6.31052C25.7057 5.61527 25.0104 5.18814 24.1875 4.86927C23.3906 4.56002 22.4817 4.34927 21.151 4.28839C19.8176 4.22777 19.3931 4.21289 15.9972 4.21289H16.0011ZM14.8798 6.46552C15.2126 6.46502 15.584 6.46552 16.0011 6.46552C19.3388 6.46552 19.7342 6.47752 21.0522 6.53739C22.271 6.59314 22.9325 6.79677 23.3731 6.96789C23.9565 7.19439 24.3724 7.46527 24.8096 7.90289C25.2471 8.34039 25.5179 8.75702 25.745 9.34039C25.9161 9.78039 26.12 10.4419 26.1755 11.6606C26.2354 12.9784 26.2484 13.3741 26.2484 16.7101C26.2484 20.0461 26.2354 20.442 26.1755 21.7596C26.1198 22.9784 25.9161 23.6399 25.745 24.08C25.5185 24.6634 25.2471 25.0788 24.8096 25.516C24.3721 25.9535 23.9568 26.2243 23.3731 26.4509C22.933 26.6228 22.271 26.8259 21.0522 26.8816C19.7345 26.9415 19.3388 26.9545 16.0011 26.9545C12.6634 26.9545 12.2677 26.9415 10.9501 26.8816C9.73137 26.8254 9.06987 26.6218 8.62887 26.4506C8.04562 26.224 7.62887 25.9533 7.19137 25.5158C6.75387 25.0783 6.48312 24.6626 6.256 24.079C6.08488 23.6389 5.881 22.9774 5.8255 21.7586C5.76562 20.4409 5.75362 20.0451 5.75362 16.707C5.75362 13.369 5.76562 12.9753 5.8255 11.6575C5.88125 10.4388 6.08488 9.77727 6.256 9.33664C6.48263 8.75327 6.75388 8.33664 7.1915 7.89914C7.629 7.46164 8.04562 7.19077 8.629 6.96377C9.06962 6.79189 9.73137 6.58877 10.9501 6.53277C12.1032 6.48064 12.5501 6.46502 14.8798 6.46239V6.46552ZM22.6736 8.54102C21.8455 8.54102 21.1736 9.21227 21.1736 10.0405C21.1736 10.8686 21.8455 11.5405 22.6736 11.5405C23.5018 11.5405 24.1736 10.8686 24.1736 10.0405C24.1736 9.21239 23.5018 8.54052 22.6736 8.54052V8.54102ZM16.0011 10.2936C12.4561 10.2936 9.58187 13.1679 9.58187 16.713C9.58187 20.2581 12.4561 23.131 16.0011 23.131C19.5462 23.131 22.4195 20.2581 22.4195 16.713C22.4195 13.168 19.546 10.2936 16.0009 10.2936H16.0011ZM16.0011 12.5463C18.3022 12.5463 20.1679 14.4116 20.1679 16.713C20.1679 19.0141 18.3022 20.8798 16.0011 20.8798C13.6999 20.8798 11.8345 19.0141 11.8345 16.713C11.8345 14.4116 13.6999 12.5463 16.0011 12.5463Z" fill="white"/>
</g>
<defs>
<radialGradient id="paint0_radial_298_2205" cx="0" cy="0" r="1" gradientUnits="userSpaceOnUse" gradientTransform="translate(8.5 35.1775) rotate(-90) scale(31.7144 29.4969)">
<stop stop-color="#FFDD55"/>
<stop offset="0.1" stop-color="#FFDD55"/>
<stop offset="0.5" stop-color="#FF543E"/>
<stop offset="1" stop-color="#C837AB"/>
</radialGradient>
<radialGradient id="paint1_radial_298_2205" cx="0" cy="0" r="1" gradientUnits="userSpaceOnUse" gradientTransform="translate(-5.36012 3.01802) rotate(78.681) scale(14.1765 58.436)">
<stop stop-color="#3771C8"/>
<stop offset="0.128" stop-color="#3771C8"/>
<stop offset="1" stop-color="#6600FF" stop-opacity="0"/>
</radialGradient>
<clipPath id="clip0_298_2205">
<rect width="32" height="32" fill="white" transform="translate(0 0.712891)"/>
</clipPath>
</defs>
</svg>
