<svg width="88" height="89" viewBox="0 0 88 89" fill="none" xmlns="http://www.w3.org/2000/svg">
<rect width="88" height="89" fill="#1E1E1E"/>
<g id="Main Pages">
<path d="M-2931 -3778.79C-2931 -3779.89 -2930.11 -3780.79 -2929 -3780.79H23042C23043.1 -3780.79 23044 -3779.89 23044 -3778.79V17369.2C23044 17370.3 23043.1 17371.2 23042 17371.2H-2929C-2930.11 17371.2 -2931 17370.3 -2931 17369.2V-3778.79Z" fill="#6B6B6B"/>
<path d="M-2929 -3779.79H23042V-3781.79H-2929V-3779.79ZM23043 -3778.79V17369.2H23045V-3778.79H23043ZM23042 17370.2H-2929V17372.2H23042V17370.2ZM-2930 17369.2V-3778.79H-2932V17369.2H-2930ZM-2929 17370.2C-2929.55 17370.2 -2930 17369.8 -2930 17369.2H-2932C-2932 17370.9 -2930.66 17372.2 -2929 17372.2V17370.2ZM23043 17369.2C23043 17369.8 23042.6 17370.2 23042 17370.2V17372.2C23043.7 17372.2 23045 17370.9 23045 17369.2H23043ZM23042 -3779.79C23042.6 -3779.79 23043 -3779.34 23043 -3778.79H23045C23045 -3780.45 23043.7 -3781.79 23042 -3781.79V-3779.79ZM-2929 -3781.79C-2930.66 -3781.79 -2932 -3780.45 -2932 -3778.79H-2930C-2930 -3779.34 -2929.55 -3779.79 -2929 -3779.79V-3781.79Z" fill="white" fill-opacity="0.1"/>
<g id="Cloud Stafing " clip-path="url(#clip0_0_1)">
<rect width="1440" height="7224" transform="translate(-1105 -3345)" fill="white"/>
<g id="teams We Offer">
<g id="Frame 1000002632">
<g id="Group 1000003002">
<g id="Group 1000003098">
<g id="Group 1000002997">
<g id="Group 1000002990">
<circle id="Ellipse 2753" opacity="0.8" cx="43.87" cy="44.518" r="34.0735" stroke="#238FFF" stroke-width="2.72588"/>
<circle id="Ellipse 2755" cx="43.864" cy="44.5178" r="41.3425" stroke="#238FFF" stroke-width="4.54313"/>
</g>
</g>
<g id="Group">
<path id="Vector" d="M58.6661 41.6108C57.8951 41.6108 57.1242 41.6108 56.3234 41.6108C56.3234 44.7666 56.3234 47.8824 56.3234 51.0142C55.0604 51.0142 53.8264 51.0142 52.5612 51.0142C52.5612 47.8911 52.5612 44.7761 52.5612 41.6356C51.7699 41.6356 51.0084 41.6356 50.2266 41.6356C50.2266 40.3783 50.2266 39.1459 50.2266 37.8697C50.3343 37.8697 50.4486 37.8697 50.5629 37.8697C53.1472 37.8697 55.7316 37.8697 58.3152 37.8683C58.4324 37.8683 58.5489 37.8515 58.6661 37.8428C58.6661 39.0993 58.6661 40.355 58.6661 41.6108Z" fill="#238FFF"/>
<path id="Vector_2" d="M30.7109 37.8433C30.8915 37.852 31.072 37.8687 31.2526 37.8687C32.2164 37.8717 33.181 37.8702 34.1448 37.8702C34.2431 37.8702 34.3414 37.8702 34.4564 37.8702C34.4564 42.2599 34.4564 46.622 34.4564 51.0299C34.3538 51.0299 34.2489 51.0299 34.1448 51.0299C33.1082 51.0299 32.0708 51.0292 31.0342 51.0314C30.9264 51.0314 30.8187 51.0481 30.7109 51.0569C30.7109 46.6526 30.7109 42.2483 30.7109 37.8433Z" fill="#238FFF"/>
<path id="Vector_3" d="M42.5716 38.8164C45.6896 38.8099 48.2179 41.3236 48.2266 44.4379C48.2353 47.5486 45.7136 50.0776 42.5964 50.0841C39.4806 50.0907 36.9487 47.5741 36.9414 44.4627C36.9341 41.352 39.4559 38.823 42.5716 38.8164ZM42.5731 46.3234C43.6112 46.3292 44.4557 45.5015 44.4651 44.4678C44.4739 43.4318 43.6469 42.5896 42.6095 42.5765C41.5597 42.5633 40.7066 43.4005 40.7044 44.4452C40.7022 45.4804 41.535 46.3176 42.5731 46.3234Z" fill="#238FFF"/>
<path id="Vector_4" d="M36.3057 35.8006C36.0094 35.3944 35.7 34.97 35.3906 34.5463C38.8274 31.7719 45.0917 31.0207 49.7981 34.5223C49.4866 34.951 49.175 35.3813 48.8707 35.8013C44.679 33.1165 40.5076 33.1158 36.3057 35.8006Z" fill="#238FFF"/>
<path id="Vector_5" d="M35.3633 54.394C35.6931 53.9404 36.0017 53.5153 36.3038 53.0996C40.4919 55.7815 44.664 55.7873 48.8674 53.1011C49.1629 53.5066 49.4723 53.9302 49.805 54.3867C48.0302 55.6781 46.0661 56.444 43.9011 56.6645C40.7911 56.9812 37.9556 56.2205 35.3633 54.394Z" fill="#238FFF"/>
<path id="Vector_6" d="M47.8658 37.1844C47.5571 37.6081 47.2485 38.0325 46.9376 38.4606C44.041 36.6057 41.156 36.6035 38.2382 38.462C37.9354 38.0456 37.6216 37.6154 37.3086 37.1851C40.2657 34.8636 44.9211 34.8687 47.8658 37.1844Z" fill="#238FFF"/>
<path id="Vector_7" d="M46.9202 50.417C47.2412 50.8574 47.5499 51.2818 47.8593 51.7055C45.141 53.9273 40.4149 54.1399 37.3086 51.7172C37.6173 51.2928 37.9267 50.8683 38.2528 50.4184C39.5602 51.3415 41.0024 51.8227 42.5938 51.8198C44.1764 51.8184 45.6134 51.3466 46.9202 50.417Z" fill="#238FFF"/>
</g>
</g>
</g>
</g>
</g>
</g>
</g>
<defs>
<clipPath id="clip0_0_1">
<rect width="1440" height="7224" fill="white" transform="translate(-1105 -3345)"/>
</clipPath>
</defs>
</svg>
