<svg width="25" height="26" viewBox="0 0 25 26" fill="none" xmlns="http://www.w3.org/2000/svg">
<circle cx="12.322" cy="12.8303" r="12.322" fill="#F0F8FF"/>
<g clip-path="url(#clip0_58_9117)">
<path d="M18.3812 11.5677C18.0673 11.5677 17.7535 11.5677 17.4275 11.5677C17.4275 12.8525 17.4275 14.121 17.4275 15.396C16.9132 15.396 16.4109 15.396 15.8958 15.396C15.8958 14.1246 15.8958 12.8564 15.8958 11.5778C15.5736 11.5778 15.2636 11.5778 14.9453 11.5778C14.9453 11.066 14.9453 10.5642 14.9453 10.0447C14.9892 10.0447 15.0357 10.0447 15.0822 10.0447C16.1344 10.0447 17.1865 10.0447 18.2383 10.0441C18.2861 10.0441 18.3335 10.0372 18.3812 10.0337C18.3812 10.5452 18.3812 11.0565 18.3812 11.5677Z" fill="#238FFF"/>
<path d="M7 10.0337C7.0735 10.0372 7.147 10.0441 7.2205 10.0441C7.6129 10.0452 8.0056 10.0447 8.398 10.0447C8.43801 10.0447 8.47802 10.0447 8.52485 10.0447C8.52485 11.8318 8.52485 13.6077 8.52485 15.4022C8.48306 15.4022 8.44038 15.4022 8.398 15.4022C7.97596 15.4022 7.55363 15.4019 7.13159 15.4028C7.08773 15.4028 7.04386 15.4096 7 15.4132C7 13.6201 7 11.8271 7 10.0337Z" fill="#238FFF"/>
<path d="M11.8312 10.4302C13.1006 10.4275 14.1299 11.4509 14.1335 12.7188C14.137 13.9852 13.1104 15.0148 11.8413 15.0175C10.5728 15.0201 9.54203 13.9956 9.53907 12.7289C9.53611 11.4625 10.5627 10.4328 11.8312 10.4302ZM11.8318 13.4864C12.2545 13.4888 12.5983 13.1518 12.6021 12.7309C12.6057 12.3092 12.269 11.9663 11.8466 11.961C11.4193 11.9556 11.0719 12.2965 11.071 12.7218C11.0701 13.1432 11.4092 13.484 11.8318 13.4864Z" fill="#238FFF"/>
<path d="M9.27879 9.20242C9.15817 9.03704 9.03221 8.86425 8.90625 8.69176C10.3054 7.56228 12.8557 7.25642 14.7718 8.68198C14.645 8.85655 14.5181 9.0317 14.3942 9.20271C12.6877 8.10968 10.9895 8.10938 9.27879 9.20242Z" fill="#238FFF"/>
<path d="M8.89453 16.7716C9.02879 16.5869 9.15445 16.4139 9.27745 16.2446C10.9825 17.3365 12.681 17.3388 14.3923 16.2452C14.5126 16.4103 14.6386 16.5828 14.774 16.7686C14.0515 17.2944 13.2518 17.6062 12.3704 17.696C11.1043 17.8249 9.94992 17.5152 8.89453 16.7716Z" fill="#238FFF"/>
<path d="M13.9855 9.76592C13.8599 9.93841 13.7342 10.1112 13.6077 10.2855C12.4284 9.53031 11.2538 9.52942 10.066 10.2861C9.94268 10.1165 9.81494 9.94138 9.6875 9.76622C10.8914 8.82108 12.7867 8.82315 13.9855 9.76592Z" fill="#238FFF"/>
<path d="M13.6005 15.1531C13.7312 15.3324 13.8569 15.5052 13.9829 15.6777C12.8762 16.5822 10.9521 16.6687 9.6875 15.6824C9.81316 15.5096 9.93912 15.3368 10.0719 15.1537C10.6042 15.5295 11.1913 15.7254 11.8392 15.7242C12.4835 15.7236 13.0685 15.5315 13.6005 15.1531Z" fill="#238FFF"/>
</g>
<defs>
<clipPath id="clip0_58_9117">
<rect width="11.3808" height="10" fill="white" transform="translate(7 7.98682)"/>
</clipPath>
</defs>
</svg>
