<svg width="63" height="59" viewBox="0 0 63 59" fill="none" xmlns="http://www.w3.org/2000/svg">
<g clip-path="url(#clip0_717_3106)">
<path d="M11.4469 28.8329C8.71733 28.8347 6.02612 28.1898 3.59375 26.9512V47.2612H19.2974V26.9512C16.866 28.1898 14.1757 28.8347 11.4469 28.8329Z" fill="black"/>
<path d="M62.008 18.326C62.008 12.03 60.4961 7.72091 57.4723 5.39867C54.4485 3.07643 49.4397 1.91441 42.4458 1.9126H25.8828C28.1466 5.31428 29.135 9.40673 28.6732 13.4666C28.2114 17.5266 26.3293 21.2925 23.3594 24.0989V47.2751H39.063V35.5524H42.9216L45.494 47.2615H61.4669L56.9992 31.8297C60.3384 29.1214 62.008 24.6201 62.008 18.326ZM42.8536 23.1662H39.0005V14.3096H42.4512C44.9348 14.3096 46.1757 15.7871 46.1738 18.742C46.172 21.6969 45.0653 23.1717 42.8536 23.1662Z" fill="black"/>
<path d="M11.4477 22.0214C17.2567 22.0214 21.9658 17.3123 21.9658 11.5034C21.9658 5.69444 17.2567 0.985352 11.4477 0.985352C5.63877 0.985352 0.929688 5.69444 0.929688 11.5034C0.929688 17.3123 5.63877 22.0214 11.4477 22.0214Z" fill="#238FFF"/>
<path d="M6.00895 50.9116C5.37668 50.9116 5.06054 51.1331 5.06054 51.5762C5.06054 51.8052 5.13522 51.9695 5.28457 52.0691C5.43393 52.1637 5.76251 52.2831 6.27032 52.4275C6.78311 52.5669 7.14405 52.7362 7.35315 52.9353C7.56225 53.1295 7.6668 53.4382 7.6668 53.8613C7.6668 54.399 7.51246 54.8023 7.2038 55.0711C6.90011 55.335 6.4844 55.4669 5.95667 55.4669C5.5335 55.4669 5.06552 55.4171 4.55273 55.3176L4.28389 55.2653L4.36604 54.6006C5.03814 54.6903 5.55092 54.7351 5.9044 54.7351C6.52174 54.7351 6.83041 54.4612 6.83041 53.9136C6.83041 53.6995 6.76071 53.5427 6.62131 53.4431C6.48191 53.3386 6.16826 53.2266 5.68037 53.1071C5.19247 52.9826 4.82904 52.8134 4.59007 52.5993C4.3511 52.3852 4.23162 52.0467 4.23162 51.5837C4.23162 51.1207 4.38097 50.7722 4.67968 50.5382C4.98337 50.2992 5.40157 50.1797 5.93427 50.1797C6.31762 50.1797 6.77066 50.2245 7.29341 50.3141L7.55478 50.3589L7.48757 51.031C6.79058 50.9514 6.2977 50.9116 6.00895 50.9116ZM12.0278 54.3019C12.197 54.5957 12.5206 54.7425 12.9986 54.7425C13.4765 54.7425 13.7976 54.5982 13.9619 54.3094C14.1312 54.0206 14.2158 53.5377 14.2158 52.8607C14.2158 52.1786 14.1287 51.6832 13.9544 51.3746C13.7852 51.0659 13.4665 50.9116 12.9986 50.9116C12.5306 50.9116 12.2095 51.0659 12.0352 51.3746C11.861 51.6832 11.7738 52.1761 11.7738 52.8532C11.7738 53.5253 11.8585 54.0082 12.0278 54.3019ZM14.6116 54.8396C14.3079 55.2578 13.7702 55.4669 12.9986 55.4669C12.2269 55.4669 11.6867 55.2578 11.3781 54.8396C11.0694 54.4164 10.9151 53.7543 10.9151 52.8532C10.9151 51.9521 11.0694 51.2825 11.3781 50.8444C11.6917 50.4062 12.2319 50.1872 12.9986 50.1872C13.7653 50.1872 14.3029 50.4062 14.6116 50.8444C14.9203 51.2775 15.0746 51.9471 15.0746 52.8532C15.0746 53.7593 14.9203 54.4214 14.6116 54.8396ZM21.4838 55.3848H18.6162V50.2693H19.4451V54.6455H21.4838V55.3848ZM25.4628 53.7493C25.4628 54.4115 25.8113 54.7425 26.5083 54.7425C27.2053 54.7425 27.5538 54.4115 27.5538 53.7493V50.2693H28.3902V53.7344C28.3902 54.3368 28.2309 54.7774 27.9123 55.0562C27.5986 55.33 27.1281 55.4669 26.5009 55.4669C25.8785 55.4669 25.4106 55.33 25.0969 55.0562C24.7833 54.7774 24.6264 54.3368 24.6264 53.7344V50.2693H25.4628V53.7493ZM31.6117 51.0086V50.2693H35.3456V51.0086H33.9043V55.3848H33.068V51.0086H31.6117ZM38.6118 55.3848V50.2693H39.4407V55.3848H38.6118ZM44.0824 54.3019C44.2516 54.5957 44.5752 54.7425 45.0532 54.7425C45.5311 54.7425 45.8522 54.5982 46.0165 54.3094C46.1858 54.0206 46.2704 53.5377 46.2704 52.8607C46.2704 52.1786 46.1833 51.6832 46.009 51.3746C45.8398 51.0659 45.5211 50.9116 45.0532 50.9116C44.5852 50.9116 44.2641 51.0659 44.0898 51.3746C43.9156 51.6832 43.8285 52.1761 43.8285 52.8532C43.8285 53.5253 43.9131 54.0082 44.0824 54.3019ZM46.6662 54.8396C46.3625 55.2578 45.8248 55.4669 45.0532 55.4669C44.2815 55.4669 43.7413 55.2578 43.4327 54.8396C43.124 54.4164 42.9697 53.7543 42.9697 52.8532C42.9697 51.9521 43.124 51.2825 43.4327 50.8444C43.7463 50.4062 44.2865 50.1872 45.0532 50.1872C45.8199 50.1872 46.3575 50.4062 46.6662 50.8444C46.9749 51.2775 47.1292 51.9471 47.1292 52.8532C47.1292 53.7593 46.9749 54.4214 46.6662 54.8396ZM50.6708 55.3848V50.2693H52.1196L53.6729 54.6529H53.7849V50.2693H54.6138V55.3848H53.1949L51.6043 50.9937H51.4997V55.3848H50.6708ZM59.8677 50.9116C59.2355 50.9116 58.9193 51.1331 58.9193 51.5762C58.9193 51.8052 58.994 51.9695 59.1434 52.0691C59.2927 52.1637 59.6213 52.2831 60.1291 52.4275C60.6419 52.5669 61.0028 52.7362 61.2119 52.9353C61.421 53.1295 61.5256 53.4382 61.5256 53.8613C61.5256 54.399 61.3713 54.8023 61.0626 55.0711C60.7589 55.335 60.3432 55.4669 59.8155 55.4669C59.3923 55.4669 58.9243 55.4171 58.4115 55.3176L58.1427 55.2653L58.2248 54.6006C58.8969 54.6903 59.4097 54.7351 59.7632 54.7351C60.3805 54.7351 60.6892 54.4612 60.6892 53.9136C60.6892 53.6995 60.6195 53.5427 60.4801 53.4431C60.3407 53.3386 60.0271 53.2266 59.5392 53.1071C59.0513 52.9826 58.6878 52.8134 58.4489 52.5993C58.2099 52.3852 58.0904 52.0467 58.0904 51.5837C58.0904 51.1207 58.2398 50.7722 58.5385 50.5382C58.8422 50.2992 59.2604 50.1797 59.7931 50.1797C60.1764 50.1797 60.6295 50.2245 61.1522 50.3141L61.4136 50.3589L61.3464 51.031C60.6494 50.9514 60.1565 50.9116 59.8677 50.9116Z" fill="black"/>
</g>
<defs>
<clipPath id="clip0_717_3106">
<rect width="61.3407" height="58.0042" fill="white" transform="translate(0.929688 0.985352)"/>
</clipPath>
</defs>
</svg>
