<svg width="178" height="178" viewBox="0 0 178 178" fill="none" xmlns="http://www.w3.org/2000/svg">
<circle cx="88.8887" cy="89.1495" r="88.6192" fill="#F6FAFE"/>
<g clip-path="url(#clip0_2398_2309)">
<path d="M86.7061 96.5552C86.5071 96.5552 86.345 96.5552 86.1829 96.5552C82.0652 96.5552 77.9475 96.5567 73.8298 96.5536C72.4135 96.5521 71.7046 95.8143 71.7046 94.337C71.7031 86.8427 71.7031 79.3483 71.7031 71.8555C71.7031 71.6695 71.7031 71.4835 71.7031 71.2625C84.8904 71.2625 98.0246 71.2625 111.231 71.2625C111.231 71.4835 111.231 71.6863 111.231 71.8875C111.231 79.362 111.231 86.8366 111.231 94.3111C111.231 95.8249 110.53 96.5536 109.073 96.5536C104.973 96.5552 100.875 96.5552 96.7749 96.5536C96.5965 96.5536 96.4167 96.5369 96.2178 96.5277C96.2178 93.6114 96.2178 90.7316 96.2178 87.7879C96.5774 87.7879 96.9046 87.7894 97.2303 87.7879C97.9362 87.7848 98.48 87.4769 98.7969 86.8213C99.1167 86.1567 99.071 85.4889 98.6539 84.8791C98.2722 84.3197 97.8655 83.78 97.469 83.2327C95.9923 81.1945 94.5171 79.1547 93.0374 77.118C92.0839 75.8039 90.8592 75.7947 89.913 77.0967C88.09 79.6044 86.2566 82.1031 84.4689 84.6368C84.1859 85.0377 83.9988 85.5941 83.9722 86.0896C83.9251 86.9951 84.6354 87.7071 85.5138 87.7741C85.894 87.8031 86.2787 87.7787 86.7046 87.7787C86.7061 90.7164 86.7061 93.5946 86.7061 96.5552Z" fill="#238FFF"/>
<path d="M91.4585 117.997C88.4254 117.997 85.3939 117.999 82.3609 117.997C80.9019 117.997 80.1768 117.264 80.1738 115.776C80.1694 112.696 80.1679 109.615 80.1738 106.536C80.1768 105.111 80.9033 104.357 82.2887 104.356C88.4078 104.351 94.5283 104.35 100.647 104.356C102.03 104.357 102.749 105.114 102.752 106.548C102.758 109.628 102.758 112.709 102.752 115.788C102.749 117.25 102.021 117.996 100.608 117.997C97.5598 117.999 94.5092 117.997 91.4585 117.997ZM97.2975 111.175C96.7478 111.555 96.288 111.866 95.8341 112.186C95.2136 112.622 95.0618 113.158 95.4052 113.671C95.7324 114.158 96.2644 114.219 96.8583 113.817C97.6881 113.256 98.5134 112.687 99.3343 112.111C100.137 111.547 100.146 110.808 99.3549 110.25C98.5207 109.661 97.6778 109.086 96.8318 108.515C96.2541 108.124 95.6926 108.207 95.386 108.708C95.0839 109.199 95.2254 109.727 95.7751 110.119C96.2526 110.462 96.7404 110.791 97.2975 111.175ZM85.7181 111.231C85.7358 111.163 85.7343 111.135 85.7447 111.128C86.2118 110.794 86.6834 110.466 87.1477 110.128C87.7195 109.713 87.8551 109.167 87.5176 108.672C87.2007 108.205 86.6628 108.135 86.1057 108.512C85.245 109.094 84.3873 109.679 83.5384 110.28C82.7956 110.805 82.7956 111.548 83.534 112.07C84.3829 112.669 85.2392 113.259 86.0984 113.843C86.6554 114.222 87.1875 114.155 87.5102 113.686C87.8507 113.192 87.718 112.638 87.1477 112.228C86.6731 111.885 86.1853 111.556 85.7181 111.231ZM92.2027 107.35C91.6751 107.542 91.3715 108.394 91.2064 108.911C90.6965 110.497 90.1807 112.079 89.6781 113.667C89.4762 114.306 89.7091 114.849 90.2293 115.017C90.7673 115.192 91.2374 114.911 91.4614 114.277C91.5248 114.099 91.5778 113.918 91.6368 113.738C92.1806 112.044 92.7333 110.353 93.2653 108.657C93.4141 108.182 93.2712 107.669 92.8305 107.428C92.5918 107.295 92.384 107.283 92.2027 107.35Z" fill="#238FFF"/>
<path d="M71.7207 69.2364C71.7207 67.8415 71.6824 66.4755 71.734 65.1126C71.7664 64.2345 72.546 63.5302 73.4288 63.4479C73.6116 63.4311 73.7958 63.4387 73.98 63.4387C85.6346 63.4387 97.2891 63.4387 108.944 63.4387C110.555 63.4387 111.232 64.1324 111.234 65.7819C111.235 66.9207 111.234 68.0579 111.234 69.2364C98.0599 69.2364 84.9257 69.2364 71.7207 69.2364ZM106.51 67.3292C107.115 67.3292 107.72 67.3384 108.325 67.3262C108.951 67.314 109.336 66.9512 109.347 66.3856C109.359 65.8246 108.97 65.3992 108.369 65.3901C107.141 65.3718 105.914 65.3703 104.686 65.3901C104.091 65.3992 103.699 65.8383 103.716 66.3947C103.734 66.9344 104.114 67.3079 104.696 67.3231C105.302 67.3399 105.906 67.3292 106.51 67.3292ZM84.3745 67.3277C84.5396 67.3277 84.7046 67.3353 84.8697 67.3262C85.4061 67.2942 85.7908 66.9191 85.8188 66.41C85.8468 65.8901 85.4562 65.448 84.9065 65.3916C84.7253 65.3733 84.5396 65.384 84.3568 65.384C83.4681 65.384 83.0083 65.7087 82.9936 66.3444C82.9788 66.9984 83.4431 67.3292 84.3745 67.3277ZM79.7012 67.3262C79.7012 67.3277 79.7012 67.3292 79.7012 67.3292C79.8294 67.3292 79.9576 67.3338 80.0858 67.3292C80.7107 67.3064 81.0939 66.9466 81.1013 66.3779C81.1086 65.8185 80.7166 65.4175 80.1138 65.3886C79.8029 65.3733 79.489 65.3672 79.1795 65.3962C78.6415 65.448 78.2981 65.8505 78.304 66.3764C78.3114 66.9085 78.6636 67.2835 79.206 67.3231C79.3696 67.3368 79.5361 67.3262 79.7012 67.3262ZM74.9586 67.3277C75.1237 67.3277 75.2887 67.3353 75.4538 67.3262C76.0064 67.2926 76.3631 66.939 76.3867 66.41C76.4103 65.8596 76.0536 65.4495 75.4891 65.3916C75.3256 65.3748 75.159 65.384 74.994 65.384C74.0375 65.384 73.6012 65.6828 73.5895 66.3444C73.5791 67.0182 74.011 67.3292 74.9586 67.3277Z" fill="#238FFF"/>
<path d="M85.9316 85.8382C87.8092 83.2465 89.6116 80.7601 91.4701 78.1959C93.3241 80.7327 95.1456 83.2237 97.0571 85.8382C96.4809 85.8382 96.0181 85.8351 95.5568 85.8382C94.6033 85.8443 94.3041 86.1492 94.3041 87.1401C94.3012 91.9727 94.3026 96.8053 94.3026 101.638C94.3026 101.862 94.3026 102.088 94.3026 102.356C92.4044 102.356 90.5578 102.356 88.639 102.356C88.639 102.123 88.639 101.9 88.639 101.678C88.639 97.0919 88.639 92.5063 88.639 87.9221C88.639 85.8626 88.6183 85.8412 86.6494 85.8382C86.4519 85.8382 86.2559 85.8382 85.9316 85.8382Z" fill="#238FFF"/>
</g>
<defs>
<clipPath id="clip0_2398_2309">
<rect width="39.5294" height="54.5613" fill="white" transform="translate(71.7031 63.4369)"/>
</clipPath>
</defs>
</svg>
