<svg width="32" height="33" viewBox="0 0 32 33" fill="none" xmlns="http://www.w3.org/2000/svg">
<g clip-path="url(#clip0_0_7900)">
<path d="M24.3086 0.580078H7.83984C3.82715 0.580078 0.574219 3.93794 0.574219 8.08008V25.0801C0.574219 29.2222 3.82715 32.5801 7.83984 32.5801H24.3086C28.3213 32.5801 31.5742 29.2222 31.5742 25.0801V8.08008C31.5742 3.93794 28.3213 0.580078 24.3086 0.580078Z" fill="white"/>
<path d="M24.3086 0.580078H7.83984C3.82715 0.580078 0.574219 3.93794 0.574219 8.08008V25.0801C0.574219 29.2222 3.82715 32.5801 7.83984 32.5801H24.3086C28.3213 32.5801 31.5742 29.2222 31.5742 25.0801V8.08008C31.5742 3.93794 28.3213 0.580078 24.3086 0.580078Z" fill="#0A66C2"/>
<path d="M22.9421 27.7907H26.4865C26.6149 27.7907 26.7381 27.738 26.8289 27.6443C26.9198 27.5506 26.9708 27.4234 26.9708 27.2908L26.9727 19.5606C26.9727 15.5202 26.1292 12.4146 21.5552 12.4146C19.8164 12.3478 18.1766 13.2731 17.2918 14.8181C17.2875 14.8256 17.2809 14.8314 17.2731 14.8347C17.2652 14.838 17.2566 14.8385 17.2484 14.8362C17.2402 14.834 17.233 14.829 17.2278 14.8221C17.2227 14.8152 17.2198 14.8067 17.2198 14.798V13.2876C17.2198 13.155 17.1687 13.0278 17.0779 12.934C16.9871 12.8403 16.8639 12.7876 16.7354 12.7876H13.3718C13.2433 12.7876 13.1201 12.8403 13.0293 12.934C12.9384 13.0278 12.8874 13.155 12.8874 13.2876V27.2901C12.8874 27.4227 12.9384 27.5499 13.0293 27.6436C13.1201 27.7374 13.2433 27.7901 13.3718 27.7901H16.9159C17.0444 27.7901 17.1676 27.7374 17.2584 27.6436C17.3493 27.5499 17.4003 27.4227 17.4003 27.2901V20.3685C17.4003 18.4113 17.76 16.516 20.1105 16.516C22.4276 16.516 22.4577 18.7555 22.4577 20.4952V27.2907C22.4577 27.4233 22.5087 27.5505 22.5995 27.6443C22.6904 27.738 22.8136 27.7907 22.9421 27.7907ZM5.17578 8.03358C5.17578 9.51658 6.3585 10.7368 7.79528 10.7368C9.2317 10.7367 10.4137 9.5157 10.4137 8.03295C10.4134 6.5502 9.23133 5.33008 7.7948 5.33008C6.3579 5.33008 5.17578 6.55058 5.17578 8.03358ZM6.01847 27.7907H9.56737C9.69583 27.7907 9.81903 27.738 9.90987 27.6443C10.0007 27.5505 10.0517 27.4233 10.0517 27.2907V13.2876C10.0517 13.155 10.0007 13.0278 9.90987 12.934C9.81903 12.8403 9.69583 12.7876 9.56737 12.7876H6.01847C5.89001 12.7876 5.76681 12.8403 5.67597 12.934C5.58513 13.0278 5.5341 13.155 5.5341 13.2876V27.2907C5.5341 27.4233 5.58513 27.5505 5.67597 27.6443C5.76681 27.738 5.89001 27.7907 6.01847 27.7907Z" fill="white"/>
</g>
<defs>
<clipPath id="clip0_0_7900">
<rect width="31" height="32" fill="white" transform="translate(0.574219 0.580078)"/>
</clipPath>
</defs>
</svg>
