<svg width="31" height="33" viewBox="0 0 31 33" fill="none" xmlns="http://www.w3.org/2000/svg">
<path d="M23.7344 0.712891H7.26562C3.25293 0.712891 0 4.07076 0 8.21289V25.2129C0 29.355 3.25293 32.7129 7.26562 32.7129H23.7344C27.7471 32.7129 31 29.355 31 25.2129V8.21289C31 4.07076 27.7471 0.712891 23.7344 0.712891Z" fill="white"/>
<path d="M23.7344 0.712891H7.26562C3.25293 0.712891 0 4.07076 0 8.21289V25.2129C0 29.355 3.25293 32.7129 7.26562 32.7129H23.7344C27.7471 32.7129 31 29.355 31 25.2129V8.21289C31 4.07076 27.7471 0.712891 23.7344 0.712891Z" fill="#0A66C2"/>
<path d="M22.3678 27.9235H25.9122C26.0407 27.9235 26.1639 27.8709 26.2547 27.7771C26.3455 27.6834 26.3966 27.5562 26.3966 27.4236L26.3984 19.6934C26.3984 15.653 25.555 12.5474 20.9809 12.5474C19.2422 12.4806 17.6024 13.4059 16.7176 14.9509C16.7133 14.9584 16.7067 14.9642 16.6988 14.9675C16.691 14.9708 16.6823 14.9713 16.6742 14.9691C16.666 14.9668 16.6588 14.9618 16.6536 14.9549C16.6485 14.948 16.6456 14.9395 16.6455 14.9308V13.4204C16.6455 13.2878 16.5945 13.1606 16.5037 13.0668C16.4128 12.9731 16.2896 12.9204 16.1612 12.9204H12.7976C12.6691 12.9204 12.5459 12.9731 12.455 13.0668C12.3642 13.1606 12.3132 13.2878 12.3132 13.4204V27.4229C12.3132 27.5555 12.3642 27.6827 12.455 27.7764C12.5459 27.8702 12.6691 27.9229 12.7976 27.9229H16.3417C16.4702 27.9229 16.5934 27.8702 16.6842 27.7764C16.7751 27.6827 16.8261 27.5555 16.8261 27.4229V20.5013C16.8261 18.5441 17.1857 16.6488 19.5363 16.6488C21.8534 16.6488 21.8835 18.8883 21.8835 20.628V27.4235C21.8835 27.5561 21.9345 27.6833 22.0253 27.7771C22.1162 27.8708 22.2394 27.9235 22.3678 27.9235ZM4.60156 8.16639C4.60156 9.64939 5.78429 10.8696 7.22106 10.8696C8.65748 10.8695 9.83947 9.64852 9.83947 8.16577C9.83923 6.68302 8.65711 5.46289 7.22058 5.46289C5.78368 5.46289 4.60156 6.68339 4.60156 8.16639ZM5.44425 27.9235H8.99315C9.12161 27.9235 9.24482 27.8708 9.33565 27.7771C9.42649 27.6833 9.47752 27.5561 9.47752 27.4235V13.4204C9.47752 13.2878 9.42649 13.1606 9.33565 13.0668C9.24482 12.9731 9.12161 12.9204 8.99315 12.9204H5.44425C5.31579 12.9204 5.19259 12.9731 5.10175 13.0668C5.01091 13.1606 4.95988 13.2878 4.95988 13.4204V27.4235C4.95988 27.5561 5.01091 27.6833 5.10175 27.7771C5.19259 27.8708 5.31579 27.9235 5.44425 27.9235Z" fill="white"/>
</svg>
