<svg width="122" height="40" viewBox="0 0 122 40" fill="none" xmlns="http://www.w3.org/2000/svg">
<path d="M27.1895 1.73193H30.3878L32.1544 10.6672L34.3418 1.73193H37.63L39.7275 10.6672L41.5125 1.73193H44.7272L41.5288 14.0085H37.9098L35.945 5.92285L33.9149 14.0024H30.302L27.1895 1.73193Z" fill="white"/>
<path d="M45.9526 1.63389C45.9526 0.725037 46.6695 0 47.7377 0C48.8058 0 49.5043 0.716868 49.5043 1.63389C49.5043 2.5509 48.7854 3.24326 47.7377 3.24326C46.6899 3.24326 45.9526 2.51823 45.9526 1.63389ZM46.2324 4.25832H49.2204V14.0085H46.2284L46.2324 4.25832Z" fill="white"/>
<path d="M55.0943 4.10928C56.3891 4.10928 57.5083 4.7036 58.1027 5.59611V1.06616H61.0927V14.0086H58.1027V12.6096C57.5594 13.5021 56.528 14.1495 55.0943 14.1495C52.6986 14.1495 50.791 12.1909 50.791 9.11101C50.791 6.03113 52.6925 4.10928 55.0943 4.10928ZM55.9602 6.71532C54.841 6.71532 53.828 7.55473 53.828 9.11101C53.828 10.6673 54.8492 11.5435 55.9602 11.5435C57.0713 11.5435 58.0945 10.6857 58.0945 9.12939C58.0945 7.57311 57.1039 6.71532 55.9602 6.71532Z" fill="white"/>
<path d="M67.6017 14.1495C64.7424 14.1495 62.6694 12.2256 62.6694 9.12937C62.6694 6.03315 64.6934 4.10925 67.6017 4.10925C70.461 4.10925 72.4646 5.99843 72.4646 8.97211C72.4636 9.26426 72.4459 9.55612 72.4115 9.84623H65.637C65.7411 11.1227 66.5295 11.717 67.4914 11.717C67.8163 11.7381 68.1397 11.6589 68.4181 11.4901C68.6964 11.3214 68.9162 11.0712 69.0477 10.7735H72.2297C71.7579 12.679 70.026 14.1495 67.6017 14.1495ZM65.6594 8.18376H69.4031C69.4031 7.11765 68.5637 6.50494 67.565 6.50494C66.5663 6.50494 65.829 7.10131 65.6533 8.18376H65.6594Z" fill="white"/>
<path d="M77.0889 1.73193H80.2872L82.0538 10.6672L84.2412 1.73193H87.5294L89.6269 10.6672L91.4119 1.73193H94.6286L91.4283 14.0085H87.8092L85.8506 5.92285L83.8205 14.0024H80.2014L77.0889 1.73193Z" fill="white"/>
<path d="M99.8361 4.10925C101.286 4.10925 102.32 4.77506 102.845 5.63081V4.25018H105.835V14.0086H102.845V12.6279C102.301 13.4837 101.27 14.1495 99.8178 14.1495C97.4405 14.1495 95.5288 12.1909 95.5288 9.11099C95.5288 6.03111 97.4405 4.10925 99.8361 4.10925ZM100.71 6.7153C99.5911 6.7153 98.576 7.55471 98.576 9.11099C98.576 10.6673 99.5972 11.5434 100.71 11.5434C101.823 11.5434 102.845 10.6856 102.845 9.12937C102.845 7.57309 101.846 6.7153 100.71 6.7153Z" fill="white"/>
<path d="M114.733 4.25012H117.969L111.841 18.6426H108.629L110.875 13.6776L106.899 4.25012H110.238L112.485 10.3527L114.733 4.25012Z" fill="white"/>
<path d="M35.4492 39.681C31.293 39.681 28.0436 37.6162 27.9067 33.7071H32.9166C33.0555 35.1939 33.9909 35.9108 35.3123 35.9108C36.6889 35.9108 37.5589 35.2225 37.5589 34.0931C37.5589 30.5149 27.8965 32.4408 27.9598 25.5867C27.9598 21.9247 30.9601 19.8865 35.008 19.8865C39.2194 19.8865 42.0562 21.9799 42.2482 25.6684H37.1566C37.0749 24.4307 36.1926 23.6873 34.9263 23.6587C33.7969 23.6322 32.9452 24.2101 32.9452 25.4213C32.9452 28.7789 42.4973 27.2594 42.4973 33.7357C42.4973 36.9851 39.9648 39.681 35.4492 39.681Z" fill="#F44336"/>
<path d="M46.1281 28.0355H44.2573V24.1265H46.1281V20.3828H50.8255V24.1265H53.9177V28.0355H50.8337V34.2034C50.8337 35.1123 51.2197 35.4983 52.2634 35.4983H53.9442V39.4891H51.5526C48.3584 39.4891 46.1281 38.1411 46.1281 34.1483V28.0355Z" fill="#F44336"/>
<path d="M71.7313 39.489H67.0237V37.3976C66.0883 38.719 64.436 39.6442 62.3712 39.6442C58.8195 39.6442 56.4238 37.1934 56.4238 33.0923V24.106H61.1049V32.4735C61.1049 34.5649 62.2874 35.7208 64.05 35.7208C65.8656 35.7208 67.0237 34.5649 67.0237 32.4735V24.1264H71.7313V39.489Z" fill="#F44336"/>
<path d="M80.9507 23.9058C82.993 23.9058 84.7495 24.8432 85.6869 26.2463V19.1165H90.3945V39.489H85.6869V37.2873C84.8312 38.6904 83.2075 39.7095 80.9507 39.7095C77.1784 39.7095 74.1782 36.6256 74.1782 31.7811C74.1782 26.9366 77.1784 23.9058 80.9507 23.9058ZM82.3272 28.0089C80.5647 28.0089 78.9696 29.3303 78.9696 31.7811C78.9696 34.2319 80.5647 35.6065 82.3272 35.6065C84.0898 35.6065 85.6869 34.2585 85.6869 31.8077C85.6869 29.3568 84.1163 28.0089 82.3272 28.0089Z" fill="#F44336"/>
<path d="M93.3643 19.9967C93.3643 18.567 94.4937 17.4376 96.1725 17.4376C97.8513 17.4376 98.9542 18.565 98.9542 19.9967C98.9542 21.4284 97.8248 22.5292 96.1725 22.5292C94.5202 22.5292 93.3643 21.4018 93.3643 19.9967ZM93.8054 24.1263H98.513V39.489H93.8054V24.1263Z" fill="#F44336"/>
<path d="M109.36 23.8955C109.552 23.9159 109.744 23.9302 109.934 23.9547C111.646 24.1593 113.243 24.9223 114.478 26.1258C114.478 26.1258 114.492 26.1462 114.506 26.1605L111.453 31.3644C110.048 28.934 108.649 26.5199 107.24 24.0854C107.372 24.0589 107.491 24.0283 107.613 24.014C107.916 23.9752 108.226 23.9445 108.522 23.9098C108.545 23.907 108.566 23.9022 108.588 23.8955H109.36Z" fill="#F44336"/>
<path d="M101.063 31.4217C101.082 31.2338 101.094 31.0459 101.121 30.858C101.164 30.5803 101.219 30.3025 101.266 30.0227C101.276 29.9553 101.307 29.939 101.374 29.939H107.321L103.185 37.1975C103.116 37.1199 103.053 37.0545 102.994 36.9933C102.059 35.9207 101.435 34.6137 101.188 33.2129C101.135 32.9167 101.115 32.6145 101.08 32.3142C101.08 32.2775 101.07 32.2387 101.063 32.2019V31.4217Z" fill="#F44336"/>
<path d="M116.884 32.1937C116.866 32.3775 116.856 32.5654 116.827 32.7472C116.776 33.0617 116.713 33.3721 116.66 33.6846C116.647 33.752 116.621 33.7725 116.551 33.7725C115.379 33.7725 114.205 33.7725 113.032 33.7725H110.594L114.85 26.5139C114.924 26.5997 114.995 26.6773 115.054 26.757C116.002 27.8903 116.608 29.2692 116.803 30.7334C116.829 30.9377 116.841 31.1235 116.862 31.3196C116.865 31.3478 116.871 31.3758 116.878 31.4033L116.884 32.1937Z" fill="#F44336"/>
<path d="M108.567 39.7177C108.388 39.6993 108.206 39.683 108.024 39.6605C106.365 39.4642 104.811 38.7429 103.59 37.6018C103.569 37.5863 103.547 37.572 103.525 37.5589L106.511 32.3182L110.63 39.5482C110.436 39.5809 110.257 39.6156 110.077 39.6401C109.838 39.6707 109.599 39.6911 109.36 39.7177H108.567Z" fill="#F44336"/>
<path d="M109.805 29.463H101.417C101.741 28.4081 102.285 27.4337 103.012 26.6037C104.007 25.4606 105.309 24.6275 106.764 24.204L109.805 29.463Z" fill="#F44336"/>
<path d="M111.104 39.4176L108.157 34.2443H116.502C116.162 35.2957 115.606 36.2641 114.868 37.0872C113.865 38.2107 112.557 39.02 111.104 39.4176Z" fill="#F44336"/>
<path d="M119.753 26.857C119.309 26.857 118.875 26.7252 118.505 26.4783C118.136 26.2315 117.848 25.8806 117.678 25.4701C117.508 25.0596 117.463 24.6079 117.55 24.1721C117.637 23.7363 117.851 23.336 118.165 23.0218C118.479 22.7076 118.879 22.4936 119.315 22.4069C119.751 22.3203 120.203 22.3647 120.613 22.5348C121.024 22.7048 121.375 22.9928 121.621 23.3622C121.868 23.7317 122 24.166 122 24.6104C122 25.2062 121.763 25.7776 121.342 26.1989C120.921 26.6203 120.349 26.857 119.753 26.857ZM119.753 22.568C119.349 22.568 118.955 22.6878 118.619 22.9122C118.283 23.1366 118.021 23.4556 117.867 23.8288C117.712 24.202 117.672 24.6126 117.75 25.0088C117.829 25.405 118.024 25.7689 118.309 26.0545C118.595 26.3402 118.959 26.5347 119.355 26.6135C119.751 26.6923 120.162 26.6518 120.535 26.4973C120.908 26.3427 121.227 26.0809 121.452 25.745C121.676 25.4092 121.796 25.0143 121.796 24.6104C121.794 24.0698 121.578 23.5518 121.195 23.1702C120.813 22.7885 120.294 22.5741 119.753 22.5741V22.568Z" fill="white"/>
<path d="M120.458 25.795L119.886 24.9965C119.818 25.0009 119.75 25.0009 119.682 24.9965H119.016V25.7848H118.763V23.3136H119.692C119.959 23.2979 120.223 23.3783 120.435 23.5403C120.523 23.6156 120.593 23.7098 120.64 23.8159C120.687 23.922 120.709 24.0372 120.705 24.153C120.714 24.3281 120.663 24.5009 120.56 24.6429C120.457 24.7848 120.308 24.8872 120.139 24.9332L120.752 25.7848L120.458 25.795ZM120.254 24.6207C120.316 24.5612 120.365 24.4899 120.398 24.4109C120.432 24.3319 120.449 24.247 120.449 24.1611C120.449 24.0753 120.432 23.9904 120.398 23.9114C120.365 23.8324 120.316 23.7611 120.254 23.7016C120.091 23.5831 119.891 23.526 119.69 23.5403H119.032V24.7841H119.682C119.884 24.7993 120.085 24.7413 120.247 24.6207H120.254Z" fill="white"/>
<path d="M22.6883 23.7771V15.6077C22.6884 15.4 22.6333 15.1961 22.5288 15.0168C22.4242 14.8374 22.2738 14.689 22.0931 14.5868C21.9124 14.4846 21.7077 14.4322 21.5001 14.435C21.2925 14.4379 21.0894 14.4958 20.9115 14.6028L0.56756 26.8713C0.428533 26.9552 0.308418 27.067 0.214802 27.1997C0.121186 27.3324 0.0561037 27.483 0.0236673 27.6421C-0.00876915 27.8012 -0.00785519 27.9654 0.0263514 28.1241C0.0605581 28.2828 0.127314 28.4328 0.222402 28.5644L4.34592 34.2483C4.51853 34.4858 4.77399 34.6499 5.06179 34.7082C5.34959 34.7664 5.64877 34.7145 5.90016 34.5628L22.1226 24.7819C22.2954 24.6773 22.4382 24.5298 22.5373 24.3537C22.6364 24.1777 22.6884 23.9791 22.6883 23.7771Z" fill="#F44336"/>
<path d="M22.6884 10.6039V2.43446C22.6884 2.22683 22.6334 2.0229 22.5288 1.84354C22.4242 1.66417 22.2739 1.5158 22.0931 1.41359C21.9124 1.31138 21.7078 1.25901 21.5002 1.26183C21.2926 1.26464 21.0894 1.32255 20.9115 1.42962L1.22524 13.2998C1.08652 13.3838 0.966774 13.4957 0.873596 13.6284C0.780419 13.7612 0.715843 13.9118 0.683965 14.0708C0.652088 14.2298 0.653605 14.3937 0.68842 14.5521C0.723234 14.7105 0.790587 14.8599 0.886205 14.9909L5.00768 20.6748C5.17969 20.913 5.43503 21.0779 5.72299 21.1365C6.01094 21.1952 6.31042 21.1433 6.56192 20.9913L22.1226 11.6087C22.2954 11.504 22.4382 11.3566 22.5373 11.1805C22.6364 11.0045 22.6885 10.8059 22.6884 10.6039Z" fill="white"/>
<path d="M19.8552 39.3215L22.1222 37.9552C22.295 37.8505 22.4378 37.703 22.5369 37.527C22.636 37.3509 22.6881 37.1523 22.688 36.9503V28.7809C22.688 28.5733 22.633 28.3693 22.5284 28.19C22.4238 28.0106 22.2735 27.8622 22.0927 27.76C21.912 27.6578 21.7074 27.6054 21.4998 27.6083C21.2921 27.6111 21.089 27.669 20.9111 27.7761L14.5226 31.6279C14.3835 31.7118 14.2634 31.8236 14.1698 31.9564C14.0762 32.0891 14.0112 32.2399 13.9789 32.3991C13.9467 32.5583 13.9478 32.7224 13.9824 32.8811C14.0169 33.0398 14.084 33.1897 14.1795 33.3211L18.301 39.009C18.4739 39.2462 18.7295 39.4099 19.0173 39.4678C19.3051 39.5257 19.6041 39.4735 19.8552 39.3215Z" fill="white"/>
</svg>
