<svg width="444" height="304" viewBox="0 0 444 304" fill="none" xmlns="http://www.w3.org/2000/svg">
<rect x="25.4805" y="0.80542" width="415.2" height="202.402" rx="12.4768" fill="#D8EBFF"/>
<g filter="url(#filter0_d_2463_5826)">
<rect x="44.8906" y="38.9296" width="376.384" height="216.265" rx="12.4768" fill="white"/>
</g>
<rect x="319.379" y="18.828" width="86.6445" height="6.2384" rx="3.1192" fill="white"/>
<rect x="88.5547" y="96.4604" width="133.086" height="7.62471" rx="3.81236" fill="#E7E7E7"/>
<rect x="327.695" y="99.2328" width="54.7593" height="8.31787" rx="4.15894" fill="#353535"/>
<rect x="88.5547" y="83.2905" width="133.086" height="8.31787" rx="4.15894" fill="#E7E7E7"/>
<rect x="327.695" y="83.2905" width="54.7593" height="8.31787" rx="4.15894" fill="#E7E7E7"/>
<rect x="88.5547" y="108.938" width="133.086" height="8.31787" rx="4.15894" fill="#E7E7E7"/>
<rect x="327.695" y="115.87" width="54.7593" height="8.31787" rx="4.15894" fill="#E7E7E7"/>
<rect x="88.5547" y="122.108" width="75.554" height="7.62471" rx="3.81236" fill="#292929"/>
<rect x="327.695" y="132.506" width="31.192" height="8.31787" rx="4.15894" fill="#E7E7E7"/>
<circle cx="52.5118" cy="22.2926" r="6.2384" fill="#FE5151"/>
<circle cx="69.84" cy="22.2926" r="6.2384" fill="#FFAC2F"/>
<circle cx="87.172" cy="22.2926" r="6.2384" fill="#3FD28C"/>
<line x1="267.43" y1="171.921" x2="390.358" y2="171.921" stroke="#F1F1F1" stroke-width="0.693156"/>
<line x1="265.672" y1="195.667" x2="388.6" y2="195.667" stroke="#F1F1F1" stroke-width="0.693156"/>
<line x1="265.672" y1="160.047" x2="388.6" y2="160.047" stroke="#F1F1F1" stroke-width="0.693156"/>
<line x1="265.672" y1="183.794" x2="388.6" y2="183.794" stroke="#F1F1F1" stroke-width="0.693156"/>
<line x1="265.672" y1="148.173" x2="388.6" y2="148.173" stroke="#F1F1F1" stroke-width="0.693156"/>
<line x1="274.8" y1="136.647" x2="274.8" y2="202.693" stroke="#F1F1F1" stroke-width="0.693156"/>
<line x1="316.944" y1="136.647" x2="316.944" y2="202.693" stroke="#F1F1F1" stroke-width="0.693156"/>
<line x1="359.089" y1="136.647" x2="359.089" y2="202.693" stroke="#F1F1F1" stroke-width="0.693156"/>
<line x1="288.847" y1="135.905" x2="288.847" y2="201.951" stroke="#F1F1F1" stroke-width="0.693156"/>
<line x1="330.995" y1="135.905" x2="330.995" y2="201.951" stroke="#F1F1F1" stroke-width="0.693156"/>
<line x1="373.143" y1="135.905" x2="373.143" y2="201.951" stroke="#F1F1F1" stroke-width="0.693156"/>
<line x1="302.897" y1="135.905" x2="302.897" y2="201.951" stroke="#F1F1F1" stroke-width="0.693156"/>
<line x1="345.042" y1="135.905" x2="345.042" y2="201.951" stroke="#F1F1F1" stroke-width="0.693156"/>
<line x1="387.186" y1="135.905" x2="387.186" y2="201.951" stroke="#F1F1F1" stroke-width="0.693156"/>
<path d="M330.56 178.46C295.962 166.043 273.084 190.188 264.933 205.473C264.454 206.371 265.125 207.422 266.143 207.422H389.23C389.988 207.422 390.604 206.841 390.608 206.083C390.646 196.936 390.352 144.014 378.32 144.014C365.15 144.014 366.67 191.419 330.56 178.46Z" fill="url(#paint0_linear_2463_5826)"/>
<path d="M254.875 130.041V217.418H401.649" stroke="#2562FF" stroke-width="1.42017"/>
<circle cx="305.885" cy="172.087" r="14.2097" fill="white"/>
<ellipse cx="305.889" cy="172.434" rx="9.3576" ry="9.70418" fill="#5C5CE9"/>
<rect x="211.52" y="169.806" width="10.0481" height="45.3285" rx="5.02403" fill="#EEEEEE"/>
<rect x="211.52" y="189.869" width="10.0481" height="25.265" rx="5.02403" fill="#5C5CE9"/>
<rect x="190.945" y="169.806" width="10.0481" height="45.3285" rx="5.02403" fill="#EEEEEE"/>
<rect x="190.945" y="200.273" width="10.0481" height="14.8618" rx="5.02403" fill="#5C5CE9"/>
<rect x="170.367" y="169.806" width="10.0481" height="45.3285" rx="5.02403" fill="#EEEEEE"/>
<rect x="170.367" y="180.211" width="10.0481" height="34.9252" rx="5.02403" fill="#5C5CE9"/>
<rect x="149.793" y="169.806" width="10.0481" height="45.3285" rx="5.02403" fill="#EEEEEE"/>
<rect x="149.793" y="184.668" width="10.0481" height="30.4667" rx="5.02403" fill="#5C5CE9"/>
<rect x="129.215" y="169.806" width="10.0481" height="45.3285" rx="5.02403" fill="#EEEEEE"/>
<rect x="129.215" y="189.869" width="10.0481" height="25.265" rx="5.02403" fill="#5C5CE9"/>
<rect x="108.645" y="169.806" width="10.0481" height="45.3285" rx="5.02403" fill="#EEEEEE"/>
<rect x="108.645" y="177.98" width="10.0481" height="37.1545" rx="5.02403" fill="#5C5CE9"/>
<rect x="88.0703" y="169.806" width="10.0481" height="45.3285" rx="5.02403" fill="#EEEEEE"/>
<rect x="88.0703" y="196.556" width="10.0481" height="18.5772" rx="5.02403" fill="#5C5CE9"/>
<defs>
<filter id="filter0_d_2463_5826" x="0.52865" y="20.2144" width="442.926" height="282.808" filterUnits="userSpaceOnUse" color-interpolation-filters="sRGB">
<feFlood flood-opacity="0" result="BackgroundImageFix"/>
<feColorMatrix in="SourceAlpha" type="matrix" values="0 0 0 0 0 0 0 0 0 0 0 0 0 0 0 0 0 0 127 0" result="hardAlpha"/>
<feOffset dx="-11.0905" dy="14.5563"/>
<feGaussianBlur stdDeviation="16.6357"/>
<feComposite in2="hardAlpha" operator="out"/>
<feColorMatrix type="matrix" values="0 0 0 0 0.941667 0 0 0 0 0.900905 0 0 0 0 0.898507 0 0 0 0.25 0"/>
<feBlend mode="multiply" in2="BackgroundImageFix" result="effect1_dropShadow_2463_5826"/>
<feBlend mode="normal" in="SourceGraphic" in2="effect1_dropShadow_2463_5826" result="shape"/>
</filter>
<linearGradient id="paint0_linear_2463_5826" x1="327.273" y1="130.844" x2="327.273" y2="207.422" gradientUnits="userSpaceOnUse">
<stop stop-color="#FFE279"/>
<stop offset="1" stop-color="#FFDC60"/>
</linearGradient>
</defs>
</svg>
