<svg width="89" height="89" viewBox="0 0 89 89" fill="none" xmlns="http://www.w3.org/2000/svg">
<circle opacity="0.8" cx="44.4794" cy="44.4774" r="34.0735" stroke="#238FFF" stroke-width="2.72588"/>
<circle cx="44.4734" cy="44.4773" r="41.3425" stroke="#238FFF" stroke-width="4.54313"/>
<path d="M48.8705 57.5707C45.4283 57.5707 41.9849 57.5707 38.5427 57.5707C38.5111 57.5522 38.4818 57.5225 38.4478 57.515C36.7841 57.1574 35.7636 55.9013 35.7601 54.0982C35.7472 47.4191 35.7461 40.74 35.7601 34.0609C35.7648 32.0226 37.111 30.6068 39.0383 30.5932C42.1677 30.5722 45.2983 30.587 48.4277 30.5883C49.2138 30.5883 49.9168 30.8308 50.5366 31.3593C51.2021 31.9261 51.5196 32.6896 51.7141 33.5337C51.7141 40.5444 51.7141 47.5552 51.7141 54.566C51.4961 55.1154 51.345 55.7095 51.0474 56.2045C50.5553 57.0237 49.7493 57.3839 48.8705 57.5707ZM43.7224 54.1848C44.607 54.1897 45.3182 53.4509 45.3276 52.5203C45.3358 51.5958 44.6246 50.8384 43.7435 50.8335C42.8636 50.8285 42.1443 51.5735 42.1384 52.4992C42.1326 53.4249 42.8426 54.1811 43.7224 54.1848Z" fill="#238FFF"/>
</svg>
