<svg width="25" height="26" viewBox="0 0 25 26" fill="none" xmlns="http://www.w3.org/2000/svg">
<circle cx="12.4158" cy="13.177" r="12.322" fill="#F0F8FF"/>
<g clip-path="url(#clip0_0_9829)">
<path d="M16.3786 11.2917C16.3786 12.9463 16.3786 14.6011 16.3786 16.2557C16.3746 16.2652 16.3691 16.2741 16.3668 16.284C16.2773 16.6556 16.0218 16.8587 15.6412 16.8587C13.4921 16.8589 11.3427 16.8589 9.19359 16.8587C8.7579 16.8587 8.46124 16.5616 8.46103 16.1255C8.46082 14.543 8.46103 12.9608 8.46103 11.3785C8.46103 11.3512 8.46103 11.324 8.46103 11.2917C11.107 11.2917 13.7427 11.2917 16.3786 11.2917ZM13.3473 12.24C13.346 12.1092 13.2667 12.0134 13.1601 11.9917C13.0485 11.9689 12.945 12.0295 12.8926 12.1518C12.4354 13.2178 11.9784 14.284 11.5221 15.3504C11.4609 15.4936 11.5082 15.6287 11.6351 15.6811C11.7592 15.7326 11.8869 15.6743 11.9468 15.5349C12.4042 14.4689 12.861 13.4029 13.3171 12.3365C13.3332 12.2989 13.3417 12.2584 13.3473 12.24ZM10.2418 13.8435C10.2716 13.819 10.2945 13.7993 10.3181 13.7805C10.5994 13.5553 10.8816 13.3312 11.1622 13.1048C11.2744 13.0141 11.2915 12.8734 11.208 12.7697C11.1264 12.668 10.9868 12.6528 10.8769 12.7399C10.492 13.0459 10.1078 13.3529 9.72515 13.6617C9.60388 13.7597 9.60305 13.9258 9.72412 14.0235C10.1086 14.3342 10.4937 14.6441 10.8839 14.9476C10.932 14.9849 11.0139 14.9984 11.0773 14.9926C11.1715 14.9839 11.232 14.9151 11.2531 14.8209C11.275 14.723 11.2397 14.6435 11.1632 14.5821C10.9304 14.3951 10.6967 14.209 10.4637 14.0224C10.392 13.965 10.3205 13.9072 10.2418 13.8435ZM14.5986 13.8423C14.5672 13.8683 14.5457 13.8867 14.5238 13.9043C14.2445 14.128 13.9646 14.3511 13.6857 14.5753C13.5673 14.6703 13.5458 14.8073 13.6301 14.9147C13.7138 15.0215 13.8551 15.0327 13.9732 14.9385C14.3499 14.6385 14.7261 14.3381 15.1012 14.0363C15.2403 13.9245 15.2394 13.7609 15.0998 13.6485C14.7246 13.3469 14.3484 13.0465 13.9718 12.7465C13.8565 12.6548 13.7185 12.6645 13.6338 12.767C13.5466 12.8724 13.5656 13.0133 13.6811 13.1073C13.7809 13.1887 13.8819 13.2684 13.9825 13.3488C14.1852 13.5111 14.3877 13.6735 14.5986 13.8423Z" fill="#238FFF"/>
<path d="M16.3763 9.5752C16.3763 9.99272 16.3763 10.4102 16.3763 10.8278C13.7386 10.8278 11.1011 10.8278 8.46105 10.8278C8.46105 10.4131 8.46043 10.0088 8.46208 9.60454C8.46229 9.56653 8.47303 9.5281 8.48295 9.49091C8.56373 9.18764 8.83105 8.97341 9.14527 8.9732C11.3279 8.97155 13.5107 8.97237 15.6933 8.97237C15.6958 8.97237 15.6985 8.97237 15.701 8.97258C15.9728 8.98911 16.1757 9.11575 16.3003 9.35787C16.3352 9.42542 16.3515 9.50248 16.3763 9.5752ZM14.5131 9.89996C14.2867 9.89996 14.0602 9.89955 13.8338 9.90017C13.6836 9.90058 13.5789 9.9952 13.5776 10.1299C13.5764 10.2648 13.6814 10.3635 13.8295 10.3638C14.2798 10.3644 14.73 10.3644 15.1804 10.3638C15.3293 10.3635 15.4336 10.2654 15.4326 10.1303C15.4316 9.9954 15.327 9.90079 15.1769 9.90037C14.9556 9.89955 14.7343 9.89996 14.5131 9.89996ZM9.63014 9.90017C9.50495 9.90223 9.40124 10.0086 9.40227 10.1338C9.4033 10.259 9.50867 10.3638 9.63386 10.3638C9.76215 10.3638 9.86875 10.2545 9.86565 10.1262C9.86255 10.0008 9.75554 9.8981 9.63014 9.90017ZM10.7936 10.1289C10.792 10.0037 10.6862 9.89955 10.5608 9.90017C10.4356 9.90079 10.3307 10.0057 10.3303 10.1309C10.3299 10.2592 10.4389 10.3664 10.5668 10.3635C10.6922 10.3609 10.7951 10.2541 10.7936 10.1289ZM11.7214 10.132C11.7216 10.0066 11.6173 9.9012 11.4919 9.90017C11.3667 9.89893 11.2603 10.0028 11.2583 10.1278C11.256 10.2561 11.3636 10.3646 11.4917 10.3635C11.6169 10.3625 11.7212 10.2574 11.7214 10.132Z" fill="#238FFF"/>
</g>
<defs>
<clipPath id="clip0_0_9829">
<rect width="10.0393" height="10" fill="white" transform="translate(7.39844 8.17725)"/>
</clipPath>
</defs>
</svg>
