<svg width="25" height="25" viewBox="0 0 25 25" fill="none" xmlns="http://www.w3.org/2000/svg">
<circle cx="12.322" cy="12.322" r="12.322" fill="#F0F8FF"/>
<path d="M14.2052 17.3223C12.9298 17.3223 11.6539 17.3223 10.3785 17.3223C10.3668 17.3154 10.3559 17.3044 10.3434 17.3016C9.72691 17.1691 9.3488 16.7037 9.3475 16.0356C9.34272 13.5608 9.34229 11.086 9.3475 8.61126C9.34923 7.85603 9.84803 7.33146 10.5622 7.32641C11.7217 7.31862 12.8816 7.32412 14.0411 7.32458C14.3324 7.32458 14.5929 7.41445 14.8226 7.61025C15.0691 7.82027 15.1868 8.10319 15.2588 8.41592C15.2588 11.0136 15.2588 13.6112 15.2588 16.2089C15.1781 16.4125 15.1221 16.6326 15.0118 16.816C14.8295 17.1196 14.5308 17.253 14.2052 17.3223ZM12.2977 16.0677C12.6255 16.0695 12.889 15.7958 12.8925 15.4509C12.8955 15.1084 12.632 14.8278 12.3056 14.8259C11.9795 14.8241 11.713 15.1002 11.7108 15.4431C11.7086 15.7861 11.9717 16.0663 12.2977 16.0677Z" fill="#238FFF"/>
</svg>
