<svg width="16" height="23" viewBox="0 0 16 23" fill="none" xmlns="http://www.w3.org/2000/svg">
<g clip-path="url(#clip0_0_15173)">
<path d="M12.1845 22.03C9.3804 22.03 6.57538 22.03 3.77131 22.03C3.74554 22.0148 3.72168 21.9907 3.694 21.9846C2.33873 21.6933 1.50744 20.67 1.50457 19.2012C1.49408 13.7603 1.49312 8.31943 1.50457 2.87857C1.50839 1.21818 2.60501 0.064883 4.17503 0.0537936C6.72427 0.0366554 9.27446 0.0487529 11.8237 0.049761C12.4641 0.049761 13.0368 0.247354 13.5417 0.677825C14.0838 1.13955 14.3424 1.76156 14.5008 2.4491C14.5008 8.16015 14.5008 13.8712 14.5008 19.5822C14.3233 20.0298 14.2002 20.5137 13.9578 20.917C13.5569 21.5844 12.9003 21.8777 12.1845 22.03ZM7.99078 19.2717C8.71136 19.2758 9.29069 18.6739 9.29832 17.9158C9.30501 17.1627 8.72568 16.5458 8.00796 16.5417C7.29119 16.5377 6.70518 17.1446 6.70041 17.8987C6.69564 18.6527 7.27401 19.2687 7.99078 19.2717Z" fill="#6696F3"/>
</g>
<defs>
<clipPath id="clip0_0_15173">
<rect width="14.9899" height="21.9852" fill="white" transform="translate(0.503906 0.0446777)"/>
</clipPath>
</defs>
</svg>
