<svg width="76" height="79" viewBox="0 0 76 79" fill="none" xmlns="http://www.w3.org/2000/svg">
<path d="M29.2462 0.416748C25.6544 0.416748 22.781 3.2902 22.781 6.88201C22.781 10.4738 25.6544 13.3473 29.2462 13.3473C32.838 13.3473 35.7115 10.4738 35.7115 6.88201C35.7115 3.2902 32.838 0.416748 29.2462 0.416748ZM49.6118 3.2902C49.6118 10.2728 52.3857 16.9695 57.3231 21.9069C62.2609 26.8443 68.9573 29.6182 75.9398 29.6182V24.8411C70.2243 24.8411 64.7425 22.5705 60.7007 18.529C56.6595 14.4874 54.3889 9.00588 54.3889 3.2902H49.6118ZM59.166 3.2902C59.166 12.5571 66.6729 20.064 75.9398 20.064V15.2509C69.3309 15.2509 63.9791 9.89913 63.9791 3.2902H59.166ZM68.7562 3.2902C68.7562 5.19541 69.5131 7.02261 70.8603 8.3698C72.2076 9.71699 74.0348 10.4738 75.9398 10.4738V3.2902H68.7562ZM21.7753 14.1734C21.1646 14.1734 20.554 14.2811 19.9794 14.4607L0.511719 20.5309V39.2083H6.97698V26.0264L14.5557 23.6558L0.511719 78.7185H6.97698L17.2855 49.5887L25.6544 60.7592V78.7185H32.1197V55.6948L23.1761 39.3879L25.7981 29.0794L29.6772 35.6165H47.2053V29.1513H34.2029L27.0193 17.1905C25.9418 15.3946 24.0022 14.1734 21.7753 14.1734Z" fill="black"/>
</svg>
