<svg width="76" height="76" viewBox="0 0 76 76" fill="none" xmlns="http://www.w3.org/2000/svg">
<g clip-path="url(#clip0_0_7769)">
<mask id="mask0_0_7769" style="mask-type:luminance" maskUnits="userSpaceOnUse" x="0" y="0" width="76" height="76">
<path d="M75.027 0.441895H0.300781V75.1695H75.027V0.441895Z" fill="white"/>
</mask>
<g mask="url(#mask0_0_7769)">
<path d="M0.300781 25.936V24.6168C0.411746 24.4922 0.359184 24.3397 0.375245 24.199C0.657038 21.8655 2.20617 20.2707 4.52913 19.8793C6.98059 19.4674 9.29479 18.7082 11.2586 17.0958C12.2208 16.3043 13.0369 15.3632 13.9144 14.4852C16.8448 11.5478 20.419 9.97937 24.4634 9.29924C26.4126 8.9709 28.3749 8.85071 30.3329 8.78622C31.8747 8.73491 33.4312 8.90055 34.9759 9.08963C38.137 9.47367 41.1695 10.2989 44.1042 11.5228C44.443 11.665 44.8474 11.8746 44.7613 11.1696C44.4444 8.62205 45.6067 6.86163 47.7208 5.6245C48.429 5.20968 49.0218 4.68786 49.4335 3.96962C49.727 3.45806 49.9504 2.92598 50.0263 2.33086C50.1431 1.41621 50.5899 1.15237 51.4469 1.56279C55.046 3.28656 57.8216 5.79893 59.1867 9.68768C61.3958 15.9715 58.5852 23.044 52.6646 26.0679C51.7039 26.5589 50.7111 26.9357 49.6715 27.2039C49.4656 27.2567 49.2627 27.2874 49.0524 27.2655C54.4079 28.2578 60.1956 25.5373 62.8019 20.3455C63.4385 19.0775 63.856 17.7217 64.0327 16.3028C64.0794 15.932 64.0955 15.5479 64.5262 15.4101C64.9905 15.2621 65.2212 15.5904 65.4884 15.8924C69.6452 20.602 72.3784 26.0723 74.1115 32.0835C74.716 34.1781 74.8825 36.3255 74.9598 38.489C74.9686 38.7499 74.8795 39.0241 75.0299 39.2732V43.9623C74.8766 44.748 74.8722 45.5512 74.8328 46.3442C74.6868 49.3007 73.6823 52.0066 72.4923 54.6553C71.7229 56.3673 70.8512 58.0324 69.762 59.5701C69.635 59.7489 69.5255 59.9453 69.3678 60.0948C68.9823 60.4613 68.5677 60.3323 68.4567 59.8163C68.4056 59.5774 68.3998 59.3282 68.4304 59.0863C68.6845 57.1061 68.3998 55.1507 68.1764 53.1924C68.1676 53.1191 68.1662 53.0458 68.1676 53.0238C67.0696 58.05 64.8372 62.5559 61.4703 66.5062C59.9927 68.2388 58.3443 69.7749 56.5367 71.1484C56.2841 71.3404 56.0272 71.5236 55.7483 71.6731C55.5249 71.7933 55.2811 71.8915 55.0693 71.6995C54.8168 71.4694 54.9511 71.1953 55.0869 70.9637C55.43 70.3744 55.8198 69.8145 56.16 69.2208C57.4785 66.9239 58.4669 64.4922 59.1619 61.9388C59.2656 61.5606 59.3882 61.1927 59.5518 60.8394C58.9298 62.1762 58.0055 63.3049 57.0769 64.4262C54.224 67.8738 50.7709 70.562 46.7674 72.5262C43.5728 74.0931 40.2351 75.147 36.6272 75.0957C36.5294 75.0957 36.4331 75.0943 36.3571 75.169H35.4811C35.3453 74.6472 35.7892 74.5578 36.0856 74.4083C37.8741 73.5068 39.543 72.4207 41.1286 71.1997C42.9858 69.7676 44.662 68.1479 46.1425 66.2204C43.8779 67.0588 41.6236 67.6847 39.3108 68.0995C38.9736 68.1596 38.6363 68.1801 38.2976 68.205C38.0639 68.2226 37.8493 68.1816 37.7457 67.9456C37.6259 67.6744 37.7705 67.4722 37.9705 67.3109C38.4626 66.9137 38.975 66.5443 39.4554 66.131C43.218 62.893 45.2738 58.7873 45.8184 53.8549C45.979 52.4053 45.8184 50.9864 45.7819 49.9061C45.7001 50.8852 45.2051 52.1018 44.6488 53.2745C41.736 59.4044 36.9236 63.0748 30.2497 64.1477C27.4639 64.5948 24.6854 64.2723 21.9901 63.3474C20.9038 62.9751 19.8452 62.5588 18.8422 62.0003C18.5764 61.8523 18.3268 61.6867 18.3311 61.3481C18.337 60.967 18.6334 60.8131 18.9327 60.6929C19.2685 60.558 19.6437 60.5419 20.0613 60.3469C19.5634 59.6741 19.0057 59.0805 18.5881 58.3784C17.7223 56.9272 17.147 55.3794 17.0755 53.6937C16.9543 50.8413 18.591 48.345 21.3637 47.7983C22.2806 47.618 23.1625 47.7792 23.9947 48.1574C24.8095 48.5268 25.0767 49.3887 24.7949 50.5056C24.7116 50.8383 24.5525 51.1432 24.4459 51.4686C24.1466 52.3833 24.3057 53.2071 24.9584 53.915C25.7862 54.815 26.8375 55.2782 28.0275 55.4556C28.5721 55.5377 28.9663 55.2958 29.267 54.859C29.8379 54.0308 30.2468 53.1191 30.6234 52.1913C30.6965 52.011 30.7563 51.8233 30.8439 51.6489C30.9563 51.4247 31.0892 51.196 31.3827 51.2385C31.6908 51.2825 31.8265 51.5155 31.8499 51.8102C31.9025 52.458 31.9244 53.1103 32.1434 53.852C32.8033 53.2159 33.2297 52.5196 33.6443 51.816C33.8166 51.5229 33.9509 51.2062 34.113 50.9043C34.5306 50.126 34.8854 49.9633 35.7819 50.1142C36.6477 50.2593 37.3398 50.7357 38.0508 51.3499C37.3573 47.6913 35.8958 44.4797 33.6312 41.6581C29.8496 36.947 24.9131 34.2265 18.9531 33.5303C16.7003 33.2664 14.389 33.2943 12.1332 33.8425C11.6499 33.9597 11.2951 34.1796 11.0308 34.5988C10.6804 35.1558 10.3095 35.7011 9.87882 36.1995C9.63207 36.4838 9.34444 36.7242 8.92978 36.5923C8.4976 36.456 8.45963 36.0822 8.43773 35.7055C8.41437 35.2965 8.45671 34.8847 8.39393 34.4493C8.07126 34.5959 7.98511 34.9066 7.76464 35.0913C7.24632 35.5267 6.54403 35.342 6.60243 34.7073C6.72654 33.3822 6.05052 32.749 5.0022 32.1935C3.99183 31.6584 3.44723 30.6705 3.09097 29.6078C2.94058 29.1578 2.67339 28.8764 2.28501 28.6257C1.29217 27.9866 0.384005 27.2611 0.305161 25.9345L0.300781 25.936Z" fill="#DF234E"/>
<path d="M44.9583 0.441895C45.903 0.762903 46.8257 1.12642 47.5134 1.89596C47.7558 2.16713 48.0025 2.44563 48.1792 2.75931C48.6625 3.62413 48.572 4.09904 47.8215 4.73226C47.3557 5.12363 46.8564 5.47249 46.3804 5.85213C44.9306 7.01011 44.202 8.50082 44.3378 10.3829C44.348 10.5251 44.3378 10.6702 44.3378 10.9472C43.3771 9.4741 43.3683 8.06694 44.0034 6.60848C45.1452 3.98911 44.9379 2.83553 42.9609 0.789288C43.0996 0.497596 43.4793 0.683751 43.6428 0.44043H44.9568L44.9583 0.441895Z" fill="#DF234E"/>
</g>
</g>
<defs>
<clipPath id="clip0_0_7769">
<rect width="74.7554" height="74.7554" fill="white" transform="translate(0.308594 0.441895)"/>
</clipPath>
</defs>
</svg>
