<svg width="79" height="79" viewBox="0 0 79 79" fill="none" xmlns="http://www.w3.org/2000/svg">
<g clip-path="url(#clip0_0_7830)">
<path d="M41.5186 0.381947C40.8544 0.343945 40.1734 0.568915 39.5273 0.251221H41.4989C41.543 0.274022 41.5597 0.301383 41.5506 0.333304C41.5414 0.366746 41.5308 0.383467 41.5171 0.383467L41.5186 0.381947Z" fill="#353535"/>
<path d="M41.5159 0.381947C41.5052 0.339385 41.4991 0.295303 41.4961 0.251221H43.3158C43.3386 0.289222 43.3462 0.328744 43.3386 0.372826L41.5159 0.381947Z" fill="#7F7F7F"/>
<path d="M78.4446 33.0452C77.9278 29.6813 76.9473 26.4572 75.5853 23.338C73.6944 19.0043 71.0677 15.1646 67.7828 11.7901C64.1316 8.04006 59.8815 5.11696 55.0401 3.10287C51.2445 1.52352 47.3379 0.365226 43.1759 0.328744C42.6165 0.328744 42.0572 0.328744 41.4978 0.328744C40.8426 0.284662 40.1814 0.418428 39.5308 0.251221H36.1942C33.6709 0.410828 31.1993 0.854688 28.7793 1.59344C20.7291 4.04836 14.059 8.53864 8.92577 15.2148C4.30476 21.2251 1.47592 27.9712 1.00925 35.6035C0.840526 38.3503 0.843566 41.1061 1.07158 43.8499C1.32239 46.8672 2.12499 49.769 3.16775 52.5963C5.03744 57.6627 7.84804 62.1591 11.5753 66.0718C15.0137 69.6834 19.0251 72.5017 23.5427 74.5978C27.1437 76.2699 30.9135 77.3735 34.8642 77.8204C37.4331 78.1107 40.0111 77.9314 42.5846 77.9648C43.6943 77.98 44.8039 77.8751 45.8999 77.6942C49.9402 77.0254 53.8164 75.8534 57.46 73.9533C58.4025 73.4623 58.4906 73.2267 57.834 72.3512C56.212 70.1881 54.6129 68.0068 52.991 65.8438C48.8063 60.2636 44.6945 54.6332 40.8441 48.8144C37.6231 43.9472 34.3367 39.1224 31.0336 34.3114C30.8618 34.0621 30.6946 33.8083 30.4681 33.6016C30.2325 33.3857 30.0699 33.4313 29.9802 33.7384C29.93 33.9101 29.9224 34.088 29.9285 34.2643C30.0136 37.3713 29.7187 40.4707 29.7613 43.5793C29.813 47.3688 29.7735 51.1599 29.7735 54.9509C29.7735 55.2033 29.7856 55.4571 29.7598 55.7079C29.6883 56.4011 29.2916 56.8328 28.6045 56.8951C27.9509 56.9544 27.2897 56.9574 26.636 56.8921C25.952 56.8252 25.5614 56.392 25.4899 55.6942C25.4641 55.4434 25.4762 55.1896 25.4762 54.9373C25.4762 45.5873 25.4762 36.2374 25.4762 26.8874C25.4762 26.6852 25.4778 26.4831 25.4808 26.2809C25.4884 25.6075 25.8775 25.1895 26.4552 24.9691C27.9585 24.396 29.6716 24.9569 30.5502 26.2687C36.5667 35.2554 42.4965 44.3013 48.443 53.3336C51.8327 58.4836 55.2696 63.6017 58.6335 68.7684C59.1579 69.5725 59.69 70.372 60.2326 71.164C60.7586 71.9316 60.979 71.9666 61.7755 71.4467C62.0081 71.2947 62.2315 71.129 62.4565 70.9649C64.9844 69.1377 67.2873 67.0674 69.3287 64.7007C73.2931 60.1085 76.0642 54.8932 77.6313 49.0333C78.1725 47.007 78.5343 44.955 78.6589 42.8618V35.4302C78.4902 34.6428 78.5677 33.8326 78.4461 33.0406L78.4446 33.0452ZM53.9882 51.1143C53.9882 51.3833 53.9882 51.6509 53.9882 51.9199L53.824 51.9549C52.3343 49.6763 50.8477 47.3977 49.3504 45.1237C49.1848 44.8729 49.1696 44.6084 49.1696 44.3287C49.1893 37.9657 49.2045 31.6011 49.2288 25.2381C49.2334 24.1589 49.7867 23.6284 50.8675 23.6162C51.4223 23.6101 51.9786 23.598 52.5335 23.6193C53.3984 23.6542 53.9487 24.1847 53.9547 25.0572C53.9897 29.4502 54.0171 33.8448 54.0216 38.2378C54.0262 42.5304 53.9988 46.8231 53.9867 51.1158L53.9882 51.1143Z" fill="black"/>
</g>
<defs>
<clipPath id="clip0_0_7830">
<rect width="77.8276" height="77.8276" fill="white" transform="translate(0.890625 0.251221)"/>
</clipPath>
</defs>
</svg>
