<svg width="76" height="82" viewBox="0 0 76 82" fill="none" xmlns="http://www.w3.org/2000/svg">
<path d="M37.9182 81.0818C35.2648 81.0808 32.6566 80.3939 30.3468 79.0877L8.0202 66.4566C5.66256 65.121 3.70081 63.1848 2.33457 60.8445C0.968335 58.5046 0.246374 55.8443 0.242188 53.1346V28.0968C0.245973 25.387 0.967716 22.7266 2.33399 20.3865C3.70027 18.0464 5.66226 16.1101 8.0202 14.7748L30.3468 2.14217C32.6566 0.835128 35.2656 0.148193 37.9196 0.148193C40.5737 0.148193 43.1826 0.835128 45.4927 2.14217L67.8191 14.7748C70.1765 16.1105 72.1379 18.0469 73.5037 20.387C74.8695 22.7271 75.591 25.3873 75.5943 28.0968V53.1346C75.5892 55.844 74.8669 58.5035 73.5011 60.8434C72.1353 63.1833 70.1744 65.1199 67.8177 66.4566L45.4913 79.0877C43.1808 80.3942 40.5723 81.0811 37.9182 81.0818Z" fill="#30E5E5"/>
<path d="M68.6206 28.0965V53.1329C68.6206 54.6094 68.2286 56.0593 67.4842 57.3341C66.7397 58.6093 65.6699 59.6635 64.3842 60.3889L42.0577 73.0219C40.796 73.735 39.3713 74.1099 37.9217 74.1099C36.4722 74.1099 35.0474 73.735 33.7857 73.0219L11.4591 60.3889C10.1734 59.6635 9.10366 58.6093 8.35927 57.3341C7.61489 56.0593 7.22262 54.6094 7.22266 53.1329V28.0965C7.22342 26.6213 7.61609 25.1727 8.36044 23.899C9.10482 22.6253 10.1742 21.5722 11.4591 20.8474L33.7857 8.21335C35.0474 7.4999 36.4722 7.125 37.9217 7.125C39.3713 7.125 40.796 7.4999 42.0577 8.21335L64.3842 20.8474C65.6692 21.5722 66.7386 22.6253 67.4831 23.899C68.2271 25.1727 68.6199 26.6213 68.6206 28.0965Z" fill="#1584E8"/>
<path d="M26.7541 28.0562C26.384 28.0562 26.0291 28.2032 25.7674 28.4649C25.5057 28.7266 25.3587 29.0815 25.3587 29.4516V45.8671L16.8467 28.8279C16.7084 28.5423 16.4771 28.3125 16.1907 28.1761C15.9043 28.0397 15.58 28.005 15.2712 28.0776C14.9624 28.1503 14.6876 28.3259 14.492 28.5757C14.2965 28.8255 14.1918 29.1344 14.1954 29.4516V51.7781C14.1954 52.1483 14.3424 52.5032 14.6041 52.7649C14.8658 53.0267 15.2207 53.1737 15.5908 53.1737C15.9609 53.1737 16.3158 53.0267 16.5775 52.7649C16.8392 52.5032 16.9862 52.1483 16.9862 51.7781V35.3626L25.5052 52.402C25.6211 52.6339 25.7994 52.829 26.02 52.9651C26.2406 53.1016 26.4948 53.1737 26.7541 53.1737C26.8621 53.1734 26.9697 53.161 27.075 53.1373C27.3811 53.0649 27.6537 52.8916 27.8488 52.6448C28.0438 52.398 28.1498 52.0926 28.1495 51.7781V29.4516C28.1495 29.0815 28.0025 28.7266 27.7408 28.4649C27.4791 28.2032 27.1242 28.0562 26.7541 28.0562Z" fill="white"/>
<path d="M44.8947 28.0566H33.7313C33.3611 28.0566 33.0062 28.2037 32.7448 28.4653C32.4831 28.727 32.3359 29.082 32.3359 29.452V51.7785C32.3359 52.1488 32.4831 52.5037 32.7448 52.7654C33.0062 53.0271 33.3611 53.1742 33.7313 53.1742C34.1015 53.1742 34.4565 53.0271 34.7182 52.7654C34.9799 52.5037 35.1266 52.1488 35.1266 51.7785V42.0108H40.7085C41.0784 42.0108 41.4333 41.8637 41.695 41.602C41.9567 41.3403 42.1038 40.9854 42.1038 40.6151C42.1038 40.2453 41.9567 39.8904 41.695 39.6287C41.4333 39.3669 41.0784 39.2199 40.7085 39.2199H35.1266V30.8475H44.8947C45.2646 30.8475 45.6195 30.7004 45.8812 30.4388C46.143 30.1771 46.29 29.8221 46.29 29.452C46.29 29.082 46.143 28.727 45.8812 28.4653C45.6195 28.2037 45.2646 28.0566 44.8947 28.0566Z" fill="white"/>
<path d="M60.2462 28.0566H49.0832C48.7129 28.0566 48.358 28.2037 48.0963 28.4653C47.8346 28.727 47.6875 29.082 47.6875 29.452C47.6875 29.8221 47.8346 30.1771 48.0963 30.4388C48.358 30.7004 48.7129 30.8475 49.0832 30.8475H53.2694V51.7785C53.2694 52.1488 53.4164 52.5037 53.6782 52.7654C53.9395 53.0271 54.2945 53.1742 54.6647 53.1742C55.0349 53.1742 55.3898 53.0271 55.6515 52.7654C55.9133 52.5037 56.06 52.1488 56.06 51.7785V30.8475H60.2462C60.6164 30.8475 60.9713 30.7004 61.233 30.4388C61.4948 30.1771 61.6418 29.8221 61.6418 29.452C61.6418 29.082 61.4948 28.727 61.233 28.4653C60.9713 28.2037 60.6164 28.0566 60.2462 28.0566Z" fill="white"/>
</svg>
