<svg width="58" height="59" viewBox="0 0 58 59" fill="none" xmlns="http://www.w3.org/2000/svg">
<path fill-rule="evenodd" clip-rule="evenodd" d="M29.2699 0.736816C44.9966 0.736816 57.7508 13.7149 57.7508 29.7174C57.7508 45.7199 44.9966 58.6974 29.2699 58.6974C13.5429 58.6979 0.789062 45.7199 0.789062 29.7174C0.789062 13.7149 13.5429 0.736816 29.2699 0.736816ZM46.4517 18.2124L17.9643 47.1996C21.2087 49.3773 25.0933 50.6462 29.2699 50.6462C40.6271 50.6462 49.8375 41.2742 49.8375 29.7178C49.8375 25.4679 48.5905 21.5147 46.4517 18.2124ZM12.0896 41.2214L40.5765 12.2342C37.333 10.0574 33.4466 8.78901 29.2699 8.78901C17.9128 8.78901 8.70243 18.1615 8.70243 29.7174C8.70289 33.9668 9.9494 37.92 12.0896 41.2214Z" fill="#238FFF"/>
</svg>
