<svg width="58" height="59" viewBox="0 0 58 59" fill="none" xmlns="http://www.w3.org/2000/svg">
<path d="M47.3598 26.4769C45.4905 25.9522 43.7173 25.6898 41.903 25.7451C39.3601 25.8141 36.9409 26.4078 34.6454 27.5125C34.2881 27.692 33.8482 27.7886 33.4496 27.7886C23.1818 27.8024 12.9141 27.8024 2.64633 27.8024C0.859435 27.8024 0.117188 27.0568 0.117188 25.2618C0.117188 17.985 0.117188 10.6945 0.117188 3.40388C0.117188 1.6917 0.87318 0.918457 2.56385 0.918457C16.7078 0.918457 30.8517 0.918457 44.9957 0.918457C46.6726 0.918457 47.4561 1.70551 47.4561 3.40388C47.4561 10.7083 47.4561 18.0126 47.4561 25.317C47.4561 25.676 47.4011 26.035 47.3598 26.4769ZM36.1299 12.4066C34.9341 10.4735 33.7932 8.65088 32.6524 6.81443C32.3774 6.37258 32.1163 5.91692 31.8139 5.48887C31.484 5.0194 30.9342 4.93656 30.4806 5.19891C30.0407 5.46126 29.8621 6.01357 30.0682 6.52446C30.1507 6.70397 30.2607 6.86966 30.3706 7.04917C31.7589 9.28605 33.1472 11.5367 34.563 13.7598C34.8379 14.1878 34.8654 14.4916 34.5767 14.9473C33.1197 17.2394 31.6902 19.5591 30.2607 21.865C29.8346 22.5554 29.917 23.1768 30.4531 23.5082C31.0029 23.8534 31.5665 23.6463 32.0063 22.9559C32.8036 21.6993 33.587 20.429 34.3705 19.1587C34.9478 18.2336 35.5114 17.3222 36.1299 16.3557C36.2811 16.5766 36.4048 16.7285 36.501 16.8942C37.312 18.1921 38.123 19.4901 38.9202 20.788C39.3738 21.5198 39.8274 22.2655 40.2948 22.9973C40.7071 23.6463 41.2844 23.8396 41.8067 23.522C42.3428 23.1906 42.439 22.5831 42.0542 21.9341C41.9579 21.7822 41.8617 21.6303 41.7655 21.4784C40.391 19.2692 39.0302 17.0599 37.6419 14.8644C37.422 14.5192 37.3945 14.2707 37.6282 13.8979C39.0439 11.6748 40.4322 9.42412 41.8205 7.18724C41.903 7.04917 41.9992 6.91109 42.0679 6.77301C42.4253 6.15165 42.3291 5.55791 41.8205 5.24033C41.2982 4.90894 40.7209 5.06083 40.336 5.68218C39.2913 7.33913 38.2742 8.99608 37.2433 10.653C36.8859 11.1915 36.5285 11.7577 36.1299 12.4066ZM27.8827 22.5278C27.8552 22.4312 27.8278 22.2517 27.7728 22.086C26.1096 16.7285 24.4327 11.3572 22.7695 5.99976C22.6183 5.46126 22.3296 5.07464 21.7386 5.06083C21.1613 5.06083 20.8451 5.41983 20.6802 5.95834C19.017 11.3434 17.3263 16.7147 15.6631 22.0998C15.4295 22.8592 15.6769 23.4115 16.3092 23.6048C16.9002 23.7843 17.3813 23.4668 17.6287 22.6935C18.1236 21.1194 18.6321 19.5453 19.0995 17.9712C19.2232 17.5708 19.4019 17.4465 19.8142 17.4465C21.0925 17.4741 22.3846 17.4741 23.6629 17.4465C24.1028 17.4327 24.2677 17.5984 24.3502 17.985C24.4464 18.3716 24.5839 18.7583 24.7076 19.1449C25.0924 20.3876 25.4773 21.6441 25.8897 22.8868C26.0683 23.453 26.5494 23.7291 27.0443 23.6325C27.5528 23.5496 27.8827 23.1354 27.8827 22.5278ZM9.38153 7.1182C9.38153 7.4634 9.38153 7.69814 9.38153 7.94668C9.38153 12.6552 9.38153 17.3499 9.38153 22.0584C9.38153 22.2379 9.38153 22.4174 9.38153 22.5969C9.40902 23.2182 9.83513 23.6601 10.3849 23.6601C10.9348 23.6739 11.3746 23.232 11.4296 22.6107C11.4433 22.4312 11.4296 22.2517 11.4296 22.0722C11.4296 17.3222 11.4296 12.5861 11.4296 7.83622C11.4296 7.60148 11.4296 7.36675 11.4296 7.1044C12.5292 7.1044 13.5326 7.1182 14.536 7.1044C15.0721 7.1044 15.402 6.78682 15.5119 6.28973C15.6082 5.80645 15.4157 5.40602 14.9621 5.1851C14.7697 5.08844 14.5085 5.06083 14.2749 5.04702C11.7045 5.03321 9.13412 5.03321 6.56374 5.04702C5.73902 5.04702 5.28543 5.41983 5.28543 6.08261C5.28543 6.74539 5.71153 7.1044 6.56374 7.1044C7.47093 7.1182 8.39187 7.1182 9.38153 7.1182Z" fill="#238FFF"/>
<path d="M42.3425 27.5264C50.8646 27.554 57.7785 34.5408 57.7372 43.1017C57.696 51.6212 50.7409 58.5666 42.26 58.5389C33.7516 58.5113 26.8515 51.5245 26.879 42.9636C26.9065 34.4303 33.8479 27.5126 42.3425 27.5264ZM43.7582 43.3226C43.9507 43.1155 44.0881 42.9774 44.2256 42.8394C46.1087 40.9477 48.0055 39.0422 49.8886 37.1505C50.0398 36.9986 50.2185 36.8467 50.3285 36.6672C50.6171 36.2254 50.5897 35.7835 50.2323 35.3831C49.9024 35.0103 49.3251 34.955 48.9127 35.245C48.734 35.3693 48.5828 35.535 48.4179 35.6869C46.521 37.5785 44.6379 39.484 42.7548 41.3757C42.6036 41.5276 42.4799 41.6381 42.26 41.8452C42.1088 41.6519 41.9713 41.5414 41.8476 41.4171C39.9783 39.5255 38.0952 37.6476 36.2258 35.7697C36.1158 35.6592 36.0059 35.535 35.8822 35.4245C35.3873 34.9688 34.7963 34.9412 34.3702 35.3555C33.9441 35.7835 33.9578 36.4049 34.4527 36.9158C36.3907 38.8765 38.3426 40.8234 40.2944 42.7703C40.4869 42.9636 40.6243 43.0879 40.8305 43.295C40.5281 43.6126 40.4869 43.6678 40.3357 43.8335C38.4525 45.7252 36.5557 47.6307 34.6726 49.5224C34.5214 49.6743 34.3427 49.8262 34.2327 50.0195C33.9716 50.4751 33.9991 50.917 34.3839 51.2898C34.7551 51.6626 35.2087 51.6902 35.6485 51.4141C35.8272 51.3036 35.9784 51.1241 36.1433 50.9722C38.0539 49.0667 39.9508 47.1474 41.8476 45.2419C41.9851 45.1038 42.0538 45.0624 42.3287 44.8001C42.5212 44.9934 42.6449 45.1453 42.7961 45.2972C44.6929 47.2165 46.6035 49.1219 48.5004 51.0412C48.6103 51.1517 48.7203 51.276 48.8577 51.3726C49.2976 51.704 49.8612 51.6626 50.2323 51.2898C50.5759 50.9308 50.6172 50.3785 50.3148 49.9642C50.191 49.7847 50.0261 49.6328 49.8612 49.4809C47.8543 47.4098 45.8338 45.3938 43.7582 43.3226Z" fill="#238FFF"/>
<path d="M19.9258 15.3478C20.5306 13.4147 21.0941 11.5783 21.6714 9.74183C21.7127 9.74183 21.7539 9.74184 21.7814 9.72803C22.3587 11.5783 22.936 13.4285 23.5271 15.334C22.3175 15.3478 21.1766 15.3478 19.9258 15.3478Z" fill="#238FFF"/>
</svg>
