<svg width="82" height="82" viewBox="0 0 82 82" fill="none" xmlns="http://www.w3.org/2000/svg">
<path d="M41.7159 80.4555C40.5833 80.4555 39.6126 80.1319 38.6418 79.6465L28.9338 73.9835C27.4776 73.1745 28.2866 72.851 28.6102 72.6892C30.5518 72.042 30.8754 71.8801 32.9788 70.7476C33.1406 70.5858 33.4642 70.7476 33.626 70.7476L41.0687 75.1161C41.3923 75.2779 41.7159 75.2779 41.8777 75.1161L71.0016 58.4508C71.3252 58.289 71.487 57.9654 71.487 57.6418V24.1493C71.487 23.8257 71.3252 23.5021 71.0016 23.3403L42.0395 6.67499C41.7159 6.51319 41.3923 6.51319 41.2305 6.67499L12.2684 23.3403C11.9448 23.5021 11.7831 23.8257 11.7831 24.1493V57.6418C11.7831 57.9654 11.9448 58.289 12.2684 58.4508L20.1966 62.9812C24.4034 65.0846 27.154 62.6576 27.154 60.0688V27.0617C27.154 26.5763 27.4776 26.2527 27.963 26.2527H31.6844C32.1698 26.2527 32.4934 26.5763 32.4934 27.0617V60.0688C32.4934 65.7318 29.4192 69.1296 23.918 69.1296C22.3 69.1296 21.0056 69.1296 17.2842 67.3498L9.67966 62.9812C7.73806 61.8486 6.60547 59.907 6.60547 57.6418V24.3111C6.60547 22.2077 7.73806 20.1043 9.67966 18.9717L38.6418 2.1446C40.4215 1.1738 42.8485 1.1738 44.7901 2.1446L73.7522 18.9717C75.6938 20.1043 76.8264 22.0459 76.8264 24.3111V57.8036C76.8264 59.907 75.6938 62.0104 73.7522 63.143L44.7901 79.8083C43.8193 80.2937 42.6867 80.4555 41.7159 80.4555ZM50.6149 57.48C37.8328 57.48 35.244 51.6552 35.244 46.8012C35.244 46.3158 35.5676 45.9922 36.053 45.9922H39.7744C40.2598 45.9922 40.5834 46.3158 40.5834 46.6394C41.2305 50.5226 42.8485 52.3024 50.6149 52.3024C56.7633 52.3024 59.3521 50.8462 59.3521 47.6102C59.3521 45.6686 58.7049 44.3743 49.1587 43.4035C41.2305 42.5945 36.3766 40.8147 36.3766 34.5045C36.3766 28.6797 41.3923 25.1201 49.6441 25.1201C58.8667 25.1201 63.5589 28.3561 64.0443 35.3135C64.0443 35.4753 64.0443 35.7989 63.8825 35.9607C63.7207 36.1225 63.5589 36.2843 63.2353 36.2843H59.5139C59.1903 36.2843 58.8667 35.9607 58.7049 35.6371C57.8959 31.5921 55.6307 30.2977 49.6441 30.2977C43.0103 30.2977 42.2013 32.5629 42.2013 34.3427C42.2013 36.4461 43.1721 37.0933 52.2329 38.2259C61.1319 39.3585 65.3387 41.1383 65.3387 47.2866C65.1769 53.7586 59.8375 57.48 50.6149 57.48Z" fill="#539E43"/>
</svg>
