<svg width="60" height="60" viewBox="0 0 60 60" fill="none" xmlns="http://www.w3.org/2000/svg">
<path d="M31.8391 59.5415C30.604 59.5415 29.3689 59.5415 28.1338 59.5415C28.0103 59.5107 27.8714 59.4645 27.7479 59.4491C26.4047 59.2489 25.0307 59.1257 23.703 58.8485C12.2322 56.5538 2.72203 46.6823 0.869406 35.1784C0.684143 34.0542 0.560635 32.93 0.40625 31.8211C0.40625 30.5891 0.40625 29.3571 0.40625 28.1251C0.591512 26.8161 0.730456 25.4917 0.977472 24.1981C3.18518 12.4169 13.0195 2.80721 24.83 0.86679C25.9261 0.681988 27.0377 0.558787 28.1338 0.404785C29.3689 0.404785 30.604 0.404785 31.8391 0.404785C32.0089 0.435586 32.1787 0.497182 32.3485 0.497182C35.0657 0.697385 37.7057 1.26719 40.2685 2.222C54.3176 7.44266 62.1758 22.119 58.7793 36.7954C56.1393 48.1915 46.6292 57.1544 35.0966 59.0795C34.0159 59.2797 32.9198 59.4029 31.8391 59.5415ZM38.3078 36.1486C38.2924 34.6856 37.7983 33.0532 36.7331 31.6055C35.0657 29.3571 32.8271 28.2021 30.0173 28.1251C27.4854 28.0635 25.4784 26.1847 25.3549 23.7514C25.2468 21.2104 27.1921 19.0082 29.6777 18.885C32.3022 18.7464 34.4791 20.7176 34.5871 23.3356C34.6334 24.5677 35.4054 25.3685 36.5015 25.3377C37.5668 25.3069 38.3696 24.4137 38.2615 23.197C38.1843 22.3192 38.0454 21.426 37.752 20.6098C36.8257 18.0842 35.0349 16.421 32.4875 15.5586C32.0089 15.4046 31.7928 15.1427 31.8236 14.6345C31.8545 14.1879 31.8391 13.7567 31.8236 13.3101C31.7928 12.2629 31.0054 11.4621 29.9865 11.4621C29.0138 11.4621 28.1956 12.2321 28.1338 13.2331C28.103 13.6489 28.0875 14.0801 28.1338 14.4959C28.1956 15.1274 27.9023 15.42 27.3156 15.6048C22.0047 17.3604 19.936 23.8438 23.2553 28.3407C24.9381 30.6045 27.223 31.7287 30.0482 31.7749C32.6573 31.8211 34.6489 33.931 34.5871 36.5336C34.5254 39.0284 32.3949 41.0458 29.8629 40.9996C27.3928 40.9534 25.4784 38.9976 25.3549 36.4258C25.3086 35.3016 24.4903 34.5008 23.4405 34.5316C22.437 34.5624 21.6342 35.4094 21.6651 36.4874C21.6805 37.011 21.7268 37.5346 21.8349 38.0274C22.5451 41.1228 24.4131 43.2173 27.4082 44.2491C27.9177 44.4339 28.1801 44.6957 28.1338 45.2501C28.103 45.6505 28.1184 46.0509 28.1338 46.4667C28.1493 47.5601 28.9366 48.3609 29.971 48.3763C30.9745 48.3917 31.7928 47.5601 31.8391 46.4821C31.8545 46.1433 31.8391 45.7891 31.8391 45.4503C31.8391 44.5263 31.8391 44.5263 32.7036 44.2183C36.0692 43.1095 38.2924 39.9986 38.3078 36.1486Z" fill="#238FFF"/>
</svg>
