<svg width="123" height="123" viewBox="0 0 123 123" fill="none" xmlns="http://www.w3.org/2000/svg">
<circle cx="61.4112" cy="61.3183" r="54.6767" fill="white" stroke="#238FFF" stroke-width="12.7816"/>
<path d="M54.0415 76.5955C53.445 76.5955 52.9764 76.4251 52.6355 76.0843C52.2947 75.7434 52.1243 75.289 52.1243 74.7209C52.1243 74.1244 52.2947 73.67 52.6355 73.3575C52.9764 73.0451 53.445 72.8889 54.0415 72.8889H59.2393V50.2229H61.4548L55.2345 54.1852C54.78 54.4408 54.3539 54.5402 53.9563 54.4834C53.5871 54.4266 53.2604 54.2704 52.9764 54.0148C52.7207 53.7591 52.5361 53.4467 52.4225 53.0775C52.3373 52.7082 52.3657 52.3248 52.5077 51.9271C52.6781 51.5295 52.9764 51.2028 53.4024 50.9472L59.2819 47.2405C59.7648 46.9565 60.2193 46.7293 60.6453 46.5589C61.0998 46.36 61.5258 46.2606 61.9235 46.2606C62.4063 46.2606 62.804 46.4026 63.1164 46.6867C63.4573 46.9423 63.6277 47.3826 63.6277 48.0074V72.8889H68.3995C69.0243 72.8889 69.5072 73.0451 69.848 73.3575C70.1889 73.67 70.3593 74.1244 70.3593 74.7209C70.3593 75.3174 70.1889 75.786 69.848 76.1269C69.5072 76.4393 69.0243 76.5955 68.3995 76.5955H54.0415Z" fill="#292930"/>
</svg>
