<svg xmlns="http://www.w3.org/2000/svg" fill="none" viewBox="0.64 0.96 22.16 15.56">
<g id="Group 1000002900">
<path id="Vector" d="M20.3448 0.956543H6.17969V16.5213H20.3448C20.9982 16.5213 21.6248 16.269 22.0868 15.82C22.5488 15.3709 22.8083 14.7618 22.8083 14.1267V3.35112C22.8083 2.71604 22.5488 2.10697 22.0868 1.6579C21.6248 1.20883 20.9982 0.956543 20.3448 0.956543ZM14.494 13.212C13.269 13.212 12.0941 12.739 11.2278 11.897C10.3616 11.0549 9.87494 9.91294 9.87494 8.72216C9.87494 6.49521 11.5446 4.65198 13.7322 4.29818C12.9049 4.67078 12.2334 5.30686 11.8288 6.10109C11.4243 6.89532 11.311 7.80004 11.5076 8.66542C11.7043 9.5308 12.1992 10.3049 12.9103 10.8596C13.6214 11.4143 14.5061 11.7162 15.4178 11.7154C16.1805 11.715 16.9271 11.5028 17.5698 11.1037C18.2125 10.7046 18.7245 10.1352 19.0453 9.46269C18.6813 11.5897 16.7851 13.212 14.494 13.212ZM17.6411 6.97173L16.8941 8.18219L16.766 6.77597L15.3507 6.45989L16.6871 5.90674L16.5596 4.50052L17.513 5.56551L18.8495 5.01236L18.103 6.22342L19.0564 7.28841L17.6411 6.97173Z" fill="#004600"/>
<path id="Vector_2" d="M3.10803 0.956543C2.45467 0.956543 1.82807 1.20883 1.36607 1.6579C0.904078 2.10697 0.644531 2.71604 0.644531 3.35112L0.644531 14.1267C0.644531 14.7618 0.904078 15.3709 1.36607 15.82C1.82807 16.269 2.45467 16.5213 3.10803 16.5213H6.18741V0.956543H3.10803Z" fill="#EEEEEE"/>
<path id="Vector_3" d="M18.8582 5.01184L17.5217 5.56499L16.5683 4.5L16.6958 5.90622L15.3594 6.45936L16.7747 6.77545L16.9028 8.18167L17.6498 6.97121L19.0651 7.28789L18.1117 6.2229L18.8582 5.01184Z" fill="white"/>
<path id="Vector_4" d="M15.4296 11.716C14.5178 11.7168 13.6332 11.4149 12.922 10.8602C12.2109 10.3056 11.7161 9.53145 11.5194 8.66607C11.3227 7.80069 11.4361 6.89597 11.8406 6.10174C12.2452 5.30751 12.9167 4.67143 13.7439 4.29883C11.5564 4.65323 9.88672 6.49645 9.88672 8.72281C9.88672 9.91359 10.3734 11.0556 11.2396 11.8976C12.1059 12.7396 13.2807 13.2127 14.5058 13.2127C16.7968 13.2127 18.6931 11.5897 19.0571 9.46334C18.7364 10.1359 18.2245 10.7054 17.5817 11.1045C16.939 11.5037 16.1923 11.7158 15.4296 11.716Z" fill="white"/>
</g>
</svg>