<svg width="43" height="43" viewBox="0 0 43 43" fill="none" xmlns="http://www.w3.org/2000/svg">
<path d="M0.819397 21.1674C0.819397 9.51929 10.262 0.0766602 21.9101 0.0766602H43.0008V42.2581H21.9101C10.262 42.2581 0.819397 32.8154 0.819397 21.1674Z" fill="#FF8179"/>
<circle cx="21.9102" cy="21.1672" r="12.6182" fill="white" stroke="#FFCAC2" stroke-width="0.999329"/>
<path d="M19.5743 15.5447C19.3278 14.9971 19.0683 14.986 18.8338 14.9764C18.6419 14.9681 18.4224 14.9688 18.2031 14.9688C17.9836 14.9688 17.627 15.0513 17.3256 15.3802C17.0238 15.7094 16.1736 16.5049 16.1736 18.123C16.1736 19.7412 17.3529 21.305 17.5174 21.5246C17.682 21.7438 19.7941 25.1706 23.1393 26.4889C25.9194 27.5845 26.4852 27.3666 27.0886 27.3116C27.6921 27.2569 29.0358 26.5163 29.31 25.7483C29.5843 24.9804 29.5843 24.3222 29.5021 24.1846C29.4198 24.0476 29.2003 23.9653 28.8712 23.8009C28.542 23.6364 26.924 22.8407 26.6223 22.731C26.3206 22.6213 26.1012 22.5666 25.8817 22.8959C25.6622 23.2247 25.032 23.9653 24.8399 24.1846C24.648 24.4045 24.4559 24.4318 24.1269 24.2673C23.7976 24.1023 22.7376 23.7555 21.4802 22.6351C20.5018 21.7634 19.8413 20.6868 19.6493 20.3575C19.4573 20.0287 19.6287 19.8505 19.7937 19.6866C19.9416 19.5392 20.123 19.3025 20.2877 19.1106C20.4518 18.9185 20.5065 18.7814 20.6163 18.5621C20.7261 18.3426 20.6711 18.1505 20.589 17.986C20.5065 17.8215 19.867 16.1949 19.5743 15.5447Z" fill="#FF8676"/>
</svg>
