<svg width="108" height="107" viewBox="0 0 108 107" fill="none" xmlns="http://www.w3.org/2000/svg">
<path d="M99.6856 60.8195C103.792 35.5165 86.6089 11.6753 61.3059 7.56879C36.0028 3.46227 12.1617 20.6454 8.05514 45.9485C3.94862 71.2515 21.1318 95.0927 46.4348 99.1992C71.7379 103.306 95.579 86.1225 99.6856 60.8195Z" fill="#BA5196"/>
<g filter="url(#filter0_d_2085_7594)">
<path d="M91.5775 59.5037C94.9573 38.6786 80.8151 19.0567 59.99 15.6769C39.1648 12.2971 19.5429 26.4393 16.1631 47.2645C12.7833 68.0896 26.9256 87.7115 47.7507 91.0913C68.5758 94.4711 88.1978 80.3289 91.5775 59.5037Z" fill="white"/>
</g>
<g clip-path="url(#clip0_2085_7594)">
<g clip-path="url(#clip1_2085_7594)">
<path d="M51.2569 55.6537C51.1255 55.6537 51.0183 55.6537 50.9112 55.6537C48.1906 55.6537 45.47 55.6547 42.7493 55.6527C41.8136 55.6517 41.3452 55.1683 41.3452 54.2005C41.3442 49.2904 41.3442 44.3803 41.3442 39.4712C41.3442 39.3493 41.3442 39.2275 41.3442 39.0826C50.0573 39.0826 58.7352 39.0826 67.4609 39.0826C67.4609 39.2275 67.4609 39.3603 67.4609 39.4921C67.4609 44.3893 67.4609 49.2864 67.4609 54.1835C67.4609 55.1753 66.9974 55.6527 66.0354 55.6527C63.3264 55.6537 60.6184 55.6537 57.9095 55.6527C57.7917 55.6527 57.6729 55.6417 57.5414 55.6358C57.5414 53.7251 57.5414 51.8383 57.5414 49.9096C57.779 49.9096 57.9952 49.9106 58.2104 49.9096C58.6768 49.9076 59.0361 49.7059 59.2455 49.2764C59.4568 48.8409 59.4266 48.4034 59.151 48.0039C58.8988 47.6374 58.6301 47.2838 58.3681 46.9252C57.3924 45.5898 56.4177 44.2534 55.4401 42.919C54.8101 42.0581 54.0009 42.0521 53.3758 42.905C52.1712 44.5481 50.9599 46.1851 49.7788 47.8451C49.5918 48.1078 49.4681 48.4724 49.4506 48.797C49.4195 49.3903 49.8888 49.8567 50.4692 49.9006C50.7204 49.9196 50.9745 49.9036 51.2559 49.9036C51.2569 51.8283 51.2569 53.7141 51.2569 55.6537Z" fill="#BA5196"/>
<path d="M54.3979 69.7019C52.394 69.7019 50.391 69.7029 48.3871 69.7019C47.423 69.7019 46.944 69.2214 46.942 68.2466C46.9391 66.229 46.9381 64.2105 46.942 62.1929C46.944 61.259 47.424 60.7656 48.3393 60.7646C52.3823 60.7616 56.4262 60.7606 60.4692 60.7646C61.3826 60.7656 61.8578 61.261 61.8597 62.2009C61.8636 64.2184 61.8636 66.237 61.8597 68.2546C61.8578 69.2124 61.3767 69.7009 60.4429 69.7019C58.4292 69.7029 56.4136 69.7019 54.3979 69.7019ZM58.2559 65.2322C57.8927 65.4809 57.5889 65.6847 57.289 65.8944C56.879 66.1801 56.7787 66.5317 57.0056 66.8673C57.2218 67.1869 57.5733 67.2268 57.9657 66.9632C58.5139 66.5956 59.0592 66.223 59.6016 65.8455C60.1323 65.4759 60.1381 64.9915 59.6152 64.626C59.0641 64.2404 58.5071 63.8639 57.9482 63.4893C57.5665 63.2336 57.1955 63.2876 56.993 63.6162C56.7933 63.9378 56.8868 64.2834 57.25 64.5401C57.5655 64.7648 57.8878 64.9805 58.2559 65.2322ZM50.6052 65.2692C50.6169 65.2242 50.6159 65.2063 50.6228 65.2013C50.9314 64.9825 51.243 64.7678 51.5498 64.5461C51.9276 64.2744 52.0172 63.9168 51.7942 63.5922C51.5848 63.2866 51.2294 63.2406 50.8613 63.4873C50.2927 63.8689 49.7259 64.2524 49.1651 64.6459C48.6743 64.9895 48.6743 65.4769 49.1621 65.8185C49.723 66.2111 50.2888 66.5976 50.8565 66.9801C51.2245 67.2288 51.576 67.1849 51.7893 66.8773C52.0142 66.5536 51.9266 66.1911 51.5498 65.9224C51.2362 65.6977 50.9139 65.4819 50.6052 65.2692ZM54.8897 62.7262C54.5411 62.8521 54.3405 63.4104 54.2314 63.749C53.8945 64.7878 53.5537 65.8245 53.2217 66.8653C53.0883 67.2838 53.2421 67.6393 53.5858 67.7492C53.9413 67.8641 54.2519 67.6803 54.3999 67.2648C54.4418 67.1479 54.4768 67.0291 54.5158 66.9112C54.8751 65.8015 55.2402 64.6939 55.5918 63.5822C55.6901 63.2716 55.5956 62.935 55.3045 62.7772C55.1468 62.6903 55.0095 62.6823 54.8897 62.7262Z" fill="#BA5196"/>
<path d="M41.3562 37.7553C41.3562 36.8414 41.3309 35.9464 41.365 35.0535C41.3864 34.4782 41.9015 34.0167 42.4848 33.9628C42.6055 33.9518 42.7272 33.9568 42.849 33.9568C50.5493 33.9568 58.2496 33.9568 65.95 33.9568C67.0143 33.9568 67.4622 34.4113 67.4631 35.492C67.4641 36.2381 67.4631 36.9832 67.4631 37.7553C58.7589 37.7553 50.0809 37.7553 41.3562 37.7553ZM64.3423 36.5058C64.7415 36.5058 65.1418 36.5118 65.541 36.5038C65.9548 36.4958 66.209 36.2581 66.2168 35.8875C66.2246 35.5199 65.9675 35.2413 65.5702 35.2353C64.7591 35.2233 63.9479 35.2223 63.1368 35.2353C62.7434 35.2413 62.4844 35.5289 62.4961 35.8935C62.5078 36.2471 62.759 36.4918 63.1436 36.5018C63.5438 36.5128 63.9431 36.5058 64.3423 36.5058ZM49.7167 36.5048C49.8258 36.5048 49.9349 36.5098 50.0439 36.5038C50.3984 36.4828 50.6525 36.2371 50.671 35.9035C50.6895 35.5629 50.4315 35.2732 50.0683 35.2363C49.9485 35.2243 49.8258 35.2313 49.7051 35.2313C49.1179 35.2313 48.8141 35.444 48.8043 35.8605C48.7946 36.289 49.1013 36.5058 49.7167 36.5048ZM46.629 36.5038C46.629 36.5048 46.629 36.5058 46.629 36.5058C46.7137 36.5058 46.7984 36.5088 46.8832 36.5058C47.296 36.4908 47.5492 36.2551 47.5541 35.8825C47.5589 35.5159 47.2999 35.2533 46.9017 35.2343C46.6962 35.2243 46.4888 35.2203 46.2843 35.2393C45.9289 35.2732 45.702 35.5369 45.7059 35.8815C45.7108 36.2301 45.9435 36.4758 46.3018 36.5018C46.4099 36.5108 46.52 36.5038 46.629 36.5038ZM43.4955 36.5048C43.6046 36.5048 43.7136 36.5098 43.8227 36.5038C44.1878 36.4818 44.4235 36.2501 44.4391 35.9035C44.4547 35.5429 44.219 35.2742 43.8461 35.2363C43.738 35.2253 43.6279 35.2313 43.5189 35.2313C42.8869 35.2313 42.5987 35.4271 42.5909 35.8605C42.5841 36.302 42.8694 36.5058 43.4955 36.5048Z" fill="#BA5196"/>
<path d="M50.7451 48.6324C51.9857 46.9344 53.1765 45.3053 54.4044 43.6254C55.6294 45.2874 56.8329 46.9194 58.0959 48.6324C57.7151 48.6324 57.4094 48.6304 57.1046 48.6324C56.4746 48.6363 56.2769 48.8361 56.2769 49.4853C56.275 52.6515 56.276 55.8177 56.276 58.9839C56.276 59.1307 56.276 59.2786 56.276 59.4544C55.0218 59.4544 53.8017 59.4544 52.5339 59.4544C52.5339 59.3015 52.5339 59.1557 52.5339 59.0099C52.5339 56.0055 52.5339 53.0011 52.5339 49.9977C52.5339 48.6483 52.5202 48.6343 51.2193 48.6324C51.0888 48.6324 50.9593 48.6324 50.7451 48.6324Z" fill="#BA5196"/>
</g>
</g>
<defs>
<filter id="filter0_d_2085_7594" x="7.76406" y="11.2777" width="92.2126" height="92.2127" filterUnits="userSpaceOnUse" color-interpolation-filters="sRGB">
<feFlood flood-opacity="0" result="BackgroundImageFix"/>
<feColorMatrix in="SourceAlpha" type="matrix" values="0 0 0 0 0 0 0 0 0 0 0 0 0 0 0 0 0 0 127 0" result="hardAlpha"/>
<feOffset dy="4"/>
<feGaussianBlur stdDeviation="3.95"/>
<feComposite in2="hardAlpha" operator="out"/>
<feColorMatrix type="matrix" values="0 0 0 0 0 0 0 0 0 0 0 0 0 0 0 0 0 0 0.25 0"/>
<feBlend mode="normal" in2="BackgroundImageFix" result="effect1_dropShadow_2085_7594"/>
<feBlend mode="normal" in="SourceGraphic" in2="effect1_dropShadow_2085_7594" result="shape"/>
</filter>
<clipPath id="clip0_2085_7594">
<rect width="37" height="38" fill="white" transform="translate(35.8853 33.2111)"/>
</clipPath>
<clipPath id="clip1_2085_7594">
<rect width="26.1176" height="35.7471" fill="white" transform="translate(41.3442 33.9556)"/>
</clipPath>
</defs>
</svg>
