<svg width="108" height="108" viewBox="0 0 108 108" fill="none" xmlns="http://www.w3.org/2000/svg">
<path d="M99.9795 46.4373C104.086 71.7404 86.9028 95.5815 61.5998 99.688C36.2968 103.795 12.4556 86.6114 8.34909 61.3084C4.24257 36.0053 21.4257 12.1642 46.7288 8.05765C72.0318 3.95113 95.873 21.1343 99.9795 46.4373Z" fill="#7456C9"/>
<g filter="url(#filter0_d_2085_7533)">
<path d="M91.8715 47.7532C95.2513 68.5783 81.109 88.2003 60.2839 91.5801C39.4588 94.9599 19.8368 80.8176 16.457 59.9925C13.0773 39.1674 27.2195 19.5454 48.0446 16.1656C68.8697 12.7859 88.4917 26.9281 91.8715 47.7532Z" fill="white"/>
</g>
<g clip-path="url(#clip0_2085_7533)">
<path d="M37.1792 61.8342C37.1792 56.5825 37.1792 51.3307 37.1792 46.0789C37.2937 45.67 37.3721 45.2464 37.5296 44.8537C38.1702 43.2554 39.8181 41.9455 42.0514 41.954C48.8703 41.9805 55.69 41.9634 62.5097 41.9643C63.5403 41.9643 64.5717 41.9497 65.6023 41.972C68.1465 42.0259 70.1663 44.0528 70.1723 46.5761C70.1835 51.4958 70.1775 56.4165 70.174 61.3363C70.1732 62.3493 69.8667 63.2725 69.2476 64.0768C68.2515 65.3705 66.9187 65.9557 65.282 65.954C57.5497 65.9438 49.8173 65.9489 42.085 65.9489C41.9558 65.9489 41.8276 65.9472 41.6984 65.9429C39.6829 65.8821 37.9291 64.5328 37.3703 62.6077C37.2954 62.3527 37.242 62.0918 37.1792 61.8342ZM51.0881 62.0986C51.5625 62.1038 51.8776 61.8565 52.0662 61.3277C53.2268 58.0644 54.3865 54.8011 55.5453 51.5369C56.0662 50.0704 56.5914 48.6064 57.1028 47.1365C57.3646 46.3844 56.8161 45.7042 56.0533 45.824C55.5936 45.8967 55.3775 46.2201 55.2328 46.6291C54.0102 50.0849 52.7816 53.539 51.5539 56.9932C51.1079 58.2484 50.6559 59.5018 50.216 60.7587C49.9757 61.4492 50.4011 62.0918 51.0881 62.0986ZM44.2546 54.2261C44.3476 54.1286 44.4251 54.043 44.5077 53.9617C46.0403 52.4379 47.5762 50.9157 49.1062 49.3885C49.528 48.9675 49.5401 48.3737 49.1527 47.9887C48.7713 47.6096 48.1737 47.6096 47.7674 48.0118C45.912 49.8488 44.0592 51.6892 42.2116 53.5339C41.8043 53.9403 41.7966 54.5042 42.2004 54.908C43.8724 56.5808 45.5521 58.2458 47.2301 59.9117C47.4471 60.1264 47.7114 60.23 48.0188 60.1966C48.4183 60.153 48.6998 59.9416 48.8332 59.5651C48.977 59.1604 48.8565 58.8113 48.5586 58.5153C47.2077 57.1728 45.856 55.8304 44.5052 54.4871C44.4234 54.4049 44.345 54.3202 44.2546 54.2261ZM63.1925 53.6717C62.9996 53.8351 62.8868 53.9172 62.7878 54.0148C61.2682 55.5224 59.7486 57.03 58.2341 58.5418C57.8278 58.9474 57.8192 59.5343 58.1963 59.9177C58.5725 60.301 59.176 60.3087 59.5816 59.9074C61.4387 58.0712 63.2906 56.2308 65.1382 54.3861C65.5481 53.9771 65.5644 53.4158 65.1606 53.0111C63.4826 51.329 61.8003 49.652 60.0973 47.9947C59.9216 47.8244 59.6005 47.7371 59.3431 47.7286C58.9453 47.7157 58.6603 47.9647 58.5234 48.3395C58.3762 48.7425 58.4924 49.0933 58.7912 49.391C60.142 50.7343 61.4929 52.0777 62.8463 53.4184C62.9299 53.5005 63.0358 53.5587 63.1925 53.6717Z" fill="#7154C3"/>
</g>
<defs>
<filter id="filter0_d_2085_7533" x="8.05801" y="11.7665" width="92.2126" height="92.2127" filterUnits="userSpaceOnUse" color-interpolation-filters="sRGB">
<feFlood flood-opacity="0" result="BackgroundImageFix"/>
<feColorMatrix in="SourceAlpha" type="matrix" values="0 0 0 0 0 0 0 0 0 0 0 0 0 0 0 0 0 0 127 0" result="hardAlpha"/>
<feOffset dy="4"/>
<feGaussianBlur stdDeviation="3.95"/>
<feComposite in2="hardAlpha" operator="out"/>
<feColorMatrix type="matrix" values="0 0 0 0 0 0 0 0 0 0 0 0 0 0 0 0 0 0 0.25 0"/>
<feBlend mode="normal" in2="BackgroundImageFix" result="effect1_dropShadow_2085_7533"/>
<feBlend mode="normal" in="SourceGraphic" in2="effect1_dropShadow_2085_7533" result="shape"/>
</filter>
<clipPath id="clip0_2085_7533">
<rect width="33" height="24" fill="white" transform="translate(37.1792 41.9541)"/>
</clipPath>
</defs>
</svg>
