<svg width="61" height="60" viewBox="0 0 61 60" fill="none" xmlns="http://www.w3.org/2000/svg">
<rect x="0.820312" width="60" height="60" rx="30" fill="white"/>
<path d="M30.3611 15.876C30.8954 15.9535 31.4297 16.0155 31.9641 16.1008C37.2997 17.031 41.6983 21.341 42.767 26.6664C43.3633 29.6276 43.0225 32.4803 41.768 35.2322C41.6751 35.4415 41.5744 35.4802 41.3576 35.4182C40.2734 35.1081 39.1815 34.8213 38.0741 34.5112C39.5842 31.7826 39.8785 28.9532 38.833 26.0231C38.0354 23.8138 36.6027 22.0929 34.5893 20.8914C30.4927 18.4651 25.3584 19.2558 22.1601 22.7751C18.9928 26.2634 18.7295 31.4803 21.5174 35.3329C24.2665 39.1236 29.7803 40.7902 34.5661 38.0306C34.8913 39.2166 35.2088 40.3948 35.5418 41.6196C35.1159 41.7979 34.7055 41.9917 34.2873 42.1467C26.9692 44.8831 18.9464 40.9685 16.6077 33.4958C16.3134 32.55 16.2127 31.5501 16.0269 30.5733C16.0114 30.4803 15.9959 30.3873 15.9727 30.2943C15.9727 29.7284 15.9727 29.1703 15.9727 28.6044C16.0191 28.2401 16.0578 27.8757 16.112 27.5114C16.5535 24.5425 17.8235 21.9844 19.9376 19.8604C21.9356 17.8604 24.3207 16.6046 27.1086 16.1008C27.6274 16.0078 28.154 15.9457 28.6806 15.876C29.2382 15.876 29.7957 15.876 30.3611 15.876Z" fill="#238FFF"/>
<path d="M43.0611 45.6424C43.0224 45.5882 42.9992 45.5261 42.9527 45.4796C41.6827 44.2083 40.4127 42.9293 39.1426 41.658C39.1117 41.627 39.0729 41.596 39.011 41.5417C38.6083 41.9681 38.2134 42.3867 37.7642 42.8673C37.1137 40.4642 36.4787 38.1542 35.8359 35.7744C38.1979 36.4178 40.5056 37.0535 42.8288 37.6891C42.3951 38.1154 41.9847 38.534 41.5433 38.9681C42.9295 40.3635 44.2847 41.7123 45.6631 43.0998C44.8035 43.9525 43.9594 44.7975 43.1076 45.6424C43.0998 45.6424 43.0766 45.6424 43.0611 45.6424Z" fill="#238FFF"/>
<path d="M36.2025 34.0071C35.2422 33.7436 34.2742 33.48 33.252 33.201C33.5231 34.2164 33.7864 35.1854 34.0497 36.1544C31.316 38.1621 26.6696 38.2706 23.5875 35.0149C20.606 31.8599 20.6602 26.8988 23.7114 23.7438C26.7316 20.6276 31.7265 20.4803 34.948 23.4105C38.2702 26.4414 38.2702 31.1467 36.2025 34.0071ZM28.6056 23.1314C28.6056 23.7205 28.5979 24.2787 28.6056 24.8445C28.6056 25.0073 28.5669 25.1004 28.4043 25.1701C27.2272 25.7205 26.5999 26.9298 26.8477 28.1468C27.1033 29.4336 28.1332 30.3018 29.4652 30.3561C30.0073 30.3793 30.4022 30.7591 30.4022 31.263C30.4022 31.7824 29.9995 32.1622 29.442 32.1622C28.6676 32.1622 27.8932 32.1622 27.1265 32.1622C27.0258 32.1622 26.9252 32.1622 26.8245 32.1622C26.8245 32.7824 26.8245 33.3637 26.8245 33.9761C27.4208 33.9761 28.0093 33.9761 28.6211 33.9761C28.6211 34.5963 28.6211 35.1854 28.6211 35.7823C29.1864 35.7823 29.713 35.7823 30.2473 35.7823C30.2938 35.7823 30.3403 35.7745 30.41 35.7668C30.41 35.2087 30.4177 34.6583 30.4022 34.1079C30.3945 33.9141 30.4487 33.8133 30.6423 33.7203C31.7497 33.2165 32.3847 31.9994 32.1679 30.8367C31.9278 29.5111 30.8978 28.6197 29.5504 28.5576C28.9851 28.5344 28.5979 28.1546 28.6056 27.6352C28.6134 27.1158 29.0083 26.7515 29.5814 26.7515C30.0615 26.7515 30.5494 26.7515 31.0295 26.7515C31.409 26.7515 31.7962 26.7515 32.1834 26.7515C32.1834 26.1313 32.1834 25.5422 32.1834 24.9298C31.5793 24.9298 30.9985 24.9298 30.3945 24.9298C30.3945 24.3174 30.3945 23.736 30.3945 23.1469C29.7982 23.1314 29.2251 23.1314 28.6056 23.1314Z" fill="#238FFF"/>
</svg>
