<svg width="89" height="89" viewBox="0 0 89 89" fill="none" xmlns="http://www.w3.org/2000/svg">
<rect width="89" height="89" fill="#1E1E1E"/>
<g id="Main Pages">
<path d="M-2930 -3982.79C-2930 -3983.89 -2929.11 -3984.79 -2928 -3984.79H23043C23044.1 -3984.79 23045 -3983.89 23045 -3982.79V17165.2C23045 17166.3 23044.1 17167.2 23043 17167.2H-2928C-2929.11 17167.2 -2930 17166.3 -2930 17165.2V-3982.79Z" fill="#6B6B6B"/>
<path d="M-2928 -3983.79H23043V-3985.79H-2928V-3983.79ZM23044 -3982.79V17165.2H23046V-3982.79H23044ZM23043 17166.2H-2928V17168.2H23043V17166.2ZM-2929 17165.2V-3982.79H-2931V17165.2H-2929ZM-2928 17166.2C-2928.55 17166.2 -2929 17165.8 -2929 17165.2H-2931C-2931 17166.9 -2929.66 17168.2 -2928 17168.2V17166.2ZM23044 17165.2C23044 17165.8 23043.6 17166.2 23043 17166.2V17168.2C23044.7 17168.2 23046 17166.9 23046 17165.2H23044ZM23043 -3983.79C23043.6 -3983.79 23044 -3983.34 23044 -3982.79H23046C23046 -3984.45 23044.7 -3985.79 23043 -3985.79V-3983.79ZM-2928 -3985.79C-2929.66 -3985.79 -2931 -3984.45 -2931 -3982.79H-2929C-2929 -3983.34 -2928.55 -3983.79 -2928 -3983.79V-3985.79Z" fill="white" fill-opacity="0.1"/>
<g id="Cloud Stafing " clip-path="url(#clip0_0_1)">
<rect width="1440" height="7224" transform="translate(-1104 -3549)" fill="white"/>
<g id="teams We Offer">
<g id="Frame 1000002632">
<g id="Group 1000003003">
<g id="Group 1000003098">
<g id="Group 1000002997">
<g id="Group 1000002990">
<circle id="Ellipse 2753" opacity="0.8" cx="44.5223" cy="44.5585" r="34.0735" stroke="#238FFF" stroke-width="2.72588"/>
<circle id="Ellipse 2755" cx="44.5164" cy="44.5584" r="41.3425" stroke="#238FFF" stroke-width="4.54313"/>
</g>
</g>
<path id="Vector" d="M36.7378 31.5669C35.7982 31.5669 34.8972 31.9376 34.2329 32.5974C33.5685 33.2573 33.1953 34.1522 33.1953 35.0854V54.031C33.1953 54.9641 33.5685 55.8591 34.2329 56.5189C34.8972 57.1788 35.7982 57.5495 36.7378 57.5495H47.1667L44.8156 55.2143C44.5879 54.9881 44.4072 54.7196 44.284 54.424C44.1607 54.1285 44.0973 53.8117 44.0973 53.4918C44.0973 53.172 44.1607 52.8552 44.284 52.5597C44.4072 52.2641 44.5879 51.9956 44.8156 51.7694C45.0433 51.5432 45.3137 51.3638 45.6113 51.2414C45.9088 51.119 46.2277 51.056 46.5498 51.056C46.8718 51.056 47.1907 51.119 47.4883 51.2414C47.7858 51.3638 48.0562 51.5432 48.2839 51.7694L49.8175 53.2927L54.6233 48.5194C54.7388 48.4047 54.8631 48.3029 54.995 48.2163V35.0854C54.995 34.1522 54.6217 33.2573 53.9574 32.5974C53.2931 31.9376 52.392 31.5669 51.4525 31.5669H36.7378ZM40.2802 38.8745C40.2802 39.2334 40.1367 39.5776 39.8811 39.8314C39.6256 40.0852 39.2791 40.2277 38.9177 40.2277C38.5564 40.2277 38.2098 40.0852 37.9543 39.8314C37.6988 39.5776 37.5552 39.2334 37.5552 38.8745C37.5552 38.5156 37.6988 38.1714 37.9543 37.9176C38.2098 37.6638 38.5564 37.5212 38.9177 37.5212C39.2791 37.5212 39.6256 37.6638 39.8811 37.9176C40.1367 38.1714 40.2802 38.5156 40.2802 38.8745ZM38.9177 45.9114C38.5564 45.9114 38.2098 45.7689 37.9543 45.5151C37.6988 45.2613 37.5552 44.9171 37.5552 44.5582C37.5552 44.1993 37.6988 43.8551 37.9543 43.6013C38.2098 43.3475 38.5564 43.2049 38.9177 43.2049C39.2791 43.2049 39.6256 43.3475 39.8811 43.6013C40.1367 43.8551 40.2802 44.1993 40.2802 44.5582C40.2802 44.9171 40.1367 45.2613 39.8811 45.5151C39.6256 45.7689 39.2791 45.9114 38.9177 45.9114ZM38.9177 51.5951C38.5564 51.5951 38.2098 51.4525 37.9543 51.1988C37.6988 50.945 37.5552 50.6008 37.5552 50.2419C37.5552 49.883 37.6988 49.5387 37.9543 49.285C38.2098 49.0312 38.5564 48.8886 38.9177 48.8886C39.2791 48.8886 39.6256 49.0312 39.8811 49.285C40.1367 49.5387 40.2802 49.883 40.2802 50.2419C40.2802 50.6008 40.1367 50.945 39.8811 51.1988C39.6256 51.4525 39.2791 51.5951 38.9177 51.5951ZM42.7327 38.0625H49.8175C50.0344 38.0625 50.2423 38.1481 50.3956 38.3004C50.5489 38.4526 50.635 38.6591 50.635 38.8745C50.635 39.0898 50.5489 39.2964 50.3956 39.4486C50.2423 39.6009 50.0344 39.6864 49.8175 39.6864H42.7327C42.5158 39.6864 42.3079 39.6009 42.1546 39.4486C42.0013 39.2964 41.9152 39.0898 41.9152 38.8745C41.9152 38.6591 42.0013 38.4526 42.1546 38.3004C42.3079 38.1481 42.5158 38.0625 42.7327 38.0625ZM41.9152 44.5582C41.9152 44.3428 42.0013 44.1363 42.1546 43.984C42.3079 43.8318 42.5158 43.7462 42.7327 43.7462H49.8175C50.0344 43.7462 50.2423 43.8318 50.3956 43.984C50.5489 44.1363 50.635 44.3428 50.635 44.5582C50.635 44.7735 50.5489 44.98 50.3956 45.1323C50.2423 45.2846 50.0344 45.3701 49.8175 45.3701H42.7327C42.5158 45.3701 42.3079 45.2846 42.1546 45.1323C42.0013 44.98 41.9152 44.7735 41.9152 44.5582ZM42.7327 49.4299H49.8175C50.0344 49.4299 50.2423 49.5155 50.3956 49.6677C50.5489 49.82 50.635 50.0265 50.635 50.2419C50.635 50.4572 50.5489 50.6637 50.3956 50.816C50.2423 50.9683 50.0344 51.0538 49.8175 51.0538H42.7327C42.5158 51.0538 42.3079 50.9683 42.1546 50.816C42.0013 50.6637 41.9152 50.4572 41.9152 50.2419C41.9152 50.0265 42.0013 49.82 42.1546 49.6677C42.3079 49.5155 42.5158 49.4299 42.7327 49.4299ZM50.3952 57.3113L56.9351 50.8156C57.0154 50.7413 57.0799 50.6517 57.1245 50.5521C57.1692 50.4525 57.1932 50.345 57.1952 50.2359C57.1971 50.1269 57.1769 50.0186 57.1358 49.9175C57.0947 49.8164 57.0335 49.7246 56.9559 49.6475C56.8782 49.5704 56.7858 49.5096 56.684 49.4687C56.5822 49.4279 56.4732 49.4079 56.3634 49.4098C56.2536 49.4117 56.1454 49.4356 56.0451 49.4799C55.9448 49.5243 55.8546 49.5883 55.7797 49.6681L49.8175 55.5899L47.1275 52.9181C46.9725 52.7746 46.7675 52.6966 46.5557 52.7003C46.344 52.704 46.1419 52.7892 45.9921 52.938C45.8423 53.0867 45.7565 53.2874 45.7528 53.4978C45.7491 53.7081 45.8277 53.9117 45.9721 54.0656L49.2398 57.3113C49.3931 57.4633 49.6009 57.5487 49.8175 57.5487C50.0342 57.5487 50.242 57.4633 50.3952 57.3113Z" fill="#238FFF"/>
</g>
</g>
</g>
</g>
</g>
</g>
<defs>
<clipPath id="clip0_0_1">
<rect width="1440" height="7224" fill="white" transform="translate(-1104 -3549)"/>
</clipPath>
</defs>
</svg>
