<svg width="58" height="59" viewBox="0 0 58 59" fill="none" xmlns="http://www.w3.org/2000/svg">
<path fill-rule="evenodd" clip-rule="evenodd" d="M23.1804 25.3253L27.1438 29.1689L33.972 22.1049C34.6488 21.4061 35.0706 20.8442 35.905 21.7177L38.6075 24.5367C39.4976 25.4291 39.4512 25.9533 38.6122 26.7843L28.6874 36.7097C26.9213 38.471 27.2319 38.5796 25.4379 36.7711L18.6329 29.8724C18.262 29.4616 18.2991 29.0461 18.7071 28.6353L21.8453 25.3205C22.3135 24.8153 22.6936 24.8483 23.1804 25.3253ZM43.3173 4.90784C42.6915 4.46398 41.9822 4.27039 41.2591 4.41676C40.5359 4.56314 39.924 4.95978 39.4883 5.57835L37.0453 9.08671C36.1785 8.69479 35.2746 8.39731 34.3104 8.15177C33.3462 7.90623 32.4422 7.70792 31.478 7.56154L30.7039 2.97187C30.5602 2.18331 30.1708 1.61197 29.6099 1.16811C28.9841 0.724252 28.3212 0.577874 27.5517 0.724252L21.9056 1.75834C21.1825 1.90472 20.6169 2.24942 20.1348 2.88687C19.6991 3.52433 19.509 4.19956 19.6527 4.98339L20.3759 9.17642C19.458 9.56834 18.6051 10.0122 17.7846 10.5363C16.9641 11.0274 16.1621 11.6176 15.4344 12.189L11.6054 9.50223C10.9796 9.05837 10.3167 8.86478 9.59355 9.01116C8.8704 9.15753 8.25851 9.55417 7.82277 10.1916L4.56397 14.9371C4.12822 15.5746 3.93817 16.297 4.08187 17.0336C4.22557 17.8222 4.61496 18.3935 5.24076 18.8374L8.68498 21.3258C8.30023 22.2088 8.00819 23.1296 7.76714 24.1117C7.52609 25.0939 7.3314 26.0147 7.18769 26.9968L2.68193 27.7854C-1.13777 28.5173 1.0224 34.0938 1.49059 36.7475C1.63429 37.4841 1.97269 38.0602 2.58458 38.5513C3.21038 38.9951 3.87327 39.1887 4.64277 39.0423L8.75915 38.3057C9.1439 39.2406 9.57964 40.1095 10.0942 40.9452C10.5763 41.781 11.1557 42.5979 11.7166 43.3865L9.079 47.2395C8.64326 47.877 8.4532 48.5522 8.5969 49.2888C8.74061 50.0254 9.12536 50.6487 9.73725 51.0926L14.4331 54.4498C15.0589 54.8937 15.7681 55.0401 16.4913 54.8937C17.2144 54.7473 17.8263 54.4026 18.3084 53.7793L20.756 50.2237C21.6228 50.6157 22.5268 50.9131 23.491 51.1587C24.4552 51.4042 25.3545 51.6025 26.3233 51.7489L27.0974 56.3386C27.2411 57.1271 27.6305 57.6985 28.1914 58.1423C28.8172 58.5862 29.4801 58.7326 30.2496 58.5862L35.8957 57.5521C36.6189 57.4057 37.1844 57.061 37.6665 56.4377C38.1022 55.8003 38.2923 55.1251 38.1486 54.3412L37.4255 50.1482C38.3433 49.7563 39.1962 49.3124 40.0167 48.7883C40.8372 48.2972 41.6438 47.7211 42.4133 47.1356L46.1959 49.8224C46.8217 50.2662 47.4846 50.4598 48.2541 50.3135C49.0283 50.1671 49.5892 49.7704 50.0249 49.1519L53.3208 44.3639C53.7565 43.7264 53.9002 43.004 53.7565 42.2674C53.6128 41.5308 53.2744 40.9075 52.6486 40.4164L49.1581 37.9752C49.5428 37.0922 49.8349 36.1714 50.0759 35.1893C50.317 34.2071 50.5116 33.2864 50.6553 32.3042L55.1611 31.5156C55.9353 31.3693 56.4962 30.9726 56.9319 30.3871C57.3676 29.7497 57.5113 29.0744 57.3676 28.2906L56.3525 22.5393C56.2087 21.8027 55.8704 21.2267 55.2585 20.7356C54.6327 20.2917 53.9698 20.0981 53.2003 20.2445L49.0839 20.9811C48.6991 20.0981 48.2634 19.2293 47.7488 18.3416C47.2668 17.4586 46.6873 16.6889 46.1264 15.9476L48.764 12.0473C49.1998 11.4099 49.3898 10.7346 49.2461 9.99803C49.1024 9.26141 48.713 8.63813 48.1058 8.19427L43.447 4.8559L43.3173 4.90784ZM26.1471 14.2619C28.1821 13.9219 30.245 13.9219 32.28 14.3988C34.2501 14.871 36.0441 15.6832 37.6804 16.8117C39.2519 17.9638 40.6472 19.4276 41.7782 21.1842C42.9093 22.9218 43.6186 24.8861 43.9477 26.959C44.2815 29.0319 44.2814 31.1332 43.8133 33.2061C43.3497 35.2129 42.5524 37.0402 41.4445 38.7071C40.3134 40.3078 38.8764 41.7291 37.1473 42.8812C35.4414 44.0334 33.513 44.7558 31.478 45.0911C29.443 45.431 27.3802 45.431 25.3452 44.9541C23.3751 44.4819 21.5811 43.6698 19.9448 42.5412C18.3733 41.3891 16.978 39.9253 15.8469 38.1688C14.7158 36.4311 14.0066 34.4668 13.6775 32.3939C13.3437 30.321 13.3437 28.2198 13.8119 26.1469C14.2755 24.1401 15.0728 22.3127 16.1807 20.6459C17.3118 19.0452 18.7488 17.6239 20.4778 16.4717C22.2069 15.3432 24.1075 14.5971 26.1471 14.2619Z" fill="#238FFF"/>
</svg>
