<svg width="53" height="54" viewBox="0 0 53 54" fill="none" xmlns="http://www.w3.org/2000/svg">
<path fill-rule="evenodd" clip-rule="evenodd" d="M21.2768 23.1387L24.9481 26.699L31.2729 20.1558C31.8998 19.5085 32.2905 18.988 33.0634 19.7972L35.5667 22.4083C36.3911 23.2349 36.3482 23.7204 35.571 24.4902L26.3779 33.6839C24.7419 35.3153 25.0296 35.4159 23.3679 33.7408L17.0646 27.3507C16.7211 26.9702 16.7554 26.5853 17.1333 26.2047L20.0402 23.1343C20.4739 22.6664 20.826 22.697 21.2768 23.1387ZM39.9292 4.22649C39.3495 3.81535 38.6926 3.63603 38.0228 3.77161C37.3529 3.9072 36.7861 4.2746 36.3825 4.84756L34.1197 8.09728C33.3167 7.73426 32.4794 7.45871 31.5863 7.23127C30.6932 7.00384 29.8559 6.82014 28.9628 6.68455L28.2457 2.43323C28.1126 1.70281 27.7519 1.17359 27.2324 0.76245C26.6527 0.351314 26.0387 0.215727 25.3259 0.351314L20.096 1.30917C19.4262 1.44476 18.9023 1.76405 18.4558 2.35451C18.0522 2.94497 17.8761 3.57042 18.0092 4.29647L18.6791 8.18039C17.8289 8.54341 17.0388 8.95455 16.2788 9.44003C15.5188 9.89491 14.776 10.4416 14.1019 10.9709L10.5552 8.48218C9.97548 8.07104 9.36147 7.89172 8.69163 8.0273C8.02179 8.16289 7.45501 8.53029 7.05139 9.12075L4.03283 13.5164C3.62921 14.1069 3.45316 14.7761 3.58627 15.4584C3.71938 16.1888 4.08006 16.718 4.65973 17.1291L7.85004 19.4341C7.49365 20.252 7.22314 21.1049 6.99986 22.0147C6.77658 22.9244 6.59624 23.7773 6.46314 24.687L2.28954 25.4175C-1.24858 26.0954 0.752347 31.2608 1.18602 33.7189C1.31913 34.4012 1.63258 34.9348 2.19937 35.3897C2.77903 35.8008 3.39305 35.9802 4.10582 35.8446L7.91874 35.1623C8.27513 36.0283 8.67875 36.833 9.15536 37.6072C9.60192 38.3814 10.1386 39.138 10.6582 39.8684L8.21502 43.4375C7.8114 44.0279 7.63535 44.6534 7.76846 45.3357C7.90157 46.018 8.25795 46.5953 8.82474 47.0065L13.1744 50.1162C13.7541 50.5274 14.411 50.6629 15.0808 50.5274C15.7507 50.3918 16.3175 50.0725 16.764 49.4951L19.0312 46.2017C19.8341 46.5647 20.6714 46.8403 21.5645 47.0677C22.4576 47.2951 23.2906 47.4788 24.188 47.6144L24.9051 51.8657C25.0382 52.5961 25.3989 53.1254 25.9185 53.5365C26.4981 53.9477 27.1121 54.0832 27.8249 53.9477L33.0548 52.9898C33.7246 52.8542 34.2485 52.5349 34.695 51.9576C35.0987 51.3671 35.2747 50.7417 35.1416 50.0156L34.4718 46.1317C35.3219 45.7687 36.112 45.3575 36.872 44.8721C37.632 44.4172 38.3791 43.8836 39.0919 43.3412L42.5957 45.8299C43.1753 46.241 43.7894 46.4204 44.5021 46.2848C45.2192 46.1492 45.7388 45.7818 46.1424 45.2088L49.1953 40.7738C49.5989 40.1834 49.732 39.5142 49.5989 38.8319C49.4658 38.1495 49.1523 37.5722 48.5727 37.1173L45.3394 34.8561C45.6958 34.0382 45.9663 33.1853 46.1896 32.2756C46.4129 31.3658 46.5932 30.5129 46.7263 29.6032L50.8999 28.8728C51.617 28.7372 52.1366 28.3698 52.5402 27.8274C52.9438 27.237 53.0769 26.6115 52.9438 25.8855L52.0034 20.5582C51.8703 19.8759 51.5569 19.3423 50.9901 18.8874C50.4104 18.4763 49.7964 18.2969 49.0836 18.4325L45.2707 19.1148C44.9143 18.2969 44.5107 17.4922 44.0341 16.6699C43.5875 15.852 43.0508 15.1391 42.5313 14.4524L44.9745 10.8396C45.3781 10.2492 45.5541 9.62373 45.421 8.94142C45.2879 8.25911 44.9272 7.68177 44.3647 7.27064L40.0494 4.17837L39.9292 4.22649ZM24.0249 12.891C25.9099 12.576 27.8206 12.576 29.7056 13.0178C31.5305 13.4552 33.1922 14.2075 34.7079 15.2528C36.1635 16.32 37.456 17.6759 38.5037 19.3029C39.5514 20.9125 40.2083 22.732 40.5132 24.6521C40.8223 26.5721 40.8223 28.5185 40.3886 30.4386C39.9593 32.2974 39.2207 33.9901 38.1945 35.534C37.1468 37.0167 35.8157 38.3332 34.2141 39.4004C32.634 40.4677 30.8478 41.1368 28.9628 41.4474C27.0778 41.7623 25.167 41.7623 23.282 41.3205C21.4572 40.8832 19.7955 40.1309 18.2797 39.0855C16.8241 38.0183 15.5317 36.6625 14.484 35.0354C13.4363 33.4259 12.7794 31.6064 12.4745 29.6863C12.1653 27.7662 12.1653 25.8199 12.599 23.8998C13.0284 22.0409 13.7669 20.3482 14.7932 18.8043C15.8408 17.3216 17.1719 16.0051 18.7735 14.9379C20.3751 13.8925 22.1356 13.2015 24.0249 12.891Z" fill="#238FFF"/>
</svg>
