<svg width="179" height="178" viewBox="0 0 179 178" fill="none" xmlns="http://www.w3.org/2000/svg">
<circle cx="89.5899" cy="89.1495" r="88.6192" fill="#F6FAFE"/>
<path fill-rule="evenodd" clip-rule="evenodd" d="M87.2768 85.1387L90.9481 88.699L97.2729 82.1558C97.8998 81.5085 98.2905 80.988 99.0634 81.7972L101.567 84.4083C102.391 85.2349 102.348 85.7204 101.571 86.4902L92.3779 95.6839C90.7419 97.3153 91.0296 97.4159 89.3679 95.7408L83.0646 89.3507C82.7211 88.9702 82.7554 88.5853 83.1333 88.2047L86.0402 85.1343C86.4739 84.6664 86.826 84.697 87.2768 85.1387ZM105.929 66.2265C105.35 65.8154 104.693 65.636 104.023 65.7716C103.353 65.9072 102.786 66.2746 102.383 66.8476L100.12 70.0973C99.3167 69.7343 98.4794 69.4587 97.5863 69.2313C96.6932 69.0038 95.8559 68.8201 94.9628 68.6846L94.2457 64.4332C94.1126 63.7028 93.7519 63.1736 93.2324 62.7624C92.6527 62.3513 92.0387 62.2157 91.3259 62.3513L86.096 63.3092C85.4262 63.4448 84.9023 63.764 84.4558 64.3545C84.0522 64.945 83.8761 65.5704 84.0092 66.2965L84.6791 70.1804C83.8289 70.5434 83.0388 70.9545 82.2788 71.44C81.5188 71.8949 80.776 72.4416 80.1019 72.9709L76.5552 70.4822C75.9755 70.071 75.3615 69.8917 74.6916 70.0273C74.0218 70.1629 73.455 70.5303 73.0514 71.1207L70.0328 75.5164C69.6292 76.1069 69.4532 76.7761 69.5863 77.4584C69.7194 78.1888 70.0801 78.718 70.6597 79.1291L73.85 81.4341C73.4937 82.252 73.2231 83.1049 72.9999 84.0147C72.7766 84.9244 72.5962 85.7773 72.4631 86.687L68.2895 87.4175C64.7514 88.0954 66.7523 93.2608 67.186 95.7189C67.3191 96.4012 67.6326 96.9348 68.1994 97.3897C68.779 97.8008 69.393 97.9802 70.1058 97.8446L73.9187 97.1623C74.2751 98.0283 74.6787 98.833 75.1554 99.6072C75.6019 100.381 76.1386 101.138 76.6582 101.868L74.215 105.437C73.8114 106.028 73.6353 106.653 73.7685 107.336C73.9016 108.018 74.258 108.595 74.8247 109.006L79.1744 112.116C79.7541 112.527 80.411 112.663 81.0808 112.527C81.7507 112.392 82.3175 112.072 82.764 111.495L85.0312 108.202C85.8341 108.565 86.6714 108.84 87.5645 109.068C88.4576 109.295 89.2906 109.479 90.188 109.614L90.9051 113.866C91.0382 114.596 91.3989 115.125 91.9185 115.537C92.4981 115.948 93.1121 116.083 93.8249 115.948L99.0548 114.99C99.7246 114.854 100.248 114.535 100.695 113.958C101.099 113.367 101.275 112.742 101.142 112.016L100.472 108.132C101.322 107.769 102.112 107.358 102.872 106.872C103.632 106.417 104.379 105.884 105.092 105.341L108.596 107.83C109.175 108.241 109.789 108.42 110.502 108.285C111.219 108.149 111.739 107.782 112.142 107.209L115.195 102.774C115.599 102.183 115.732 101.514 115.599 100.832C115.466 100.15 115.152 99.5722 114.573 99.1173L111.339 96.8561C111.696 96.0382 111.966 95.1853 112.19 94.2756C112.413 93.3658 112.593 92.5129 112.726 91.6032L116.9 90.8728C117.617 90.7372 118.137 90.3698 118.54 89.8274C118.944 89.237 119.077 88.6115 118.944 87.8855L118.003 82.5582C117.87 81.8759 117.557 81.3423 116.99 80.8874C116.41 80.4763 115.796 80.2969 115.084 80.4325L111.271 81.1148C110.914 80.2969 110.511 79.4922 110.034 78.6699C109.588 77.852 109.051 77.1391 108.531 76.4524L110.974 72.8396C111.378 72.2492 111.554 71.6237 111.421 70.9414C111.288 70.2591 110.927 69.6818 110.365 69.2706L106.049 66.1784L105.929 66.2265ZM90.0249 74.891C91.9099 74.576 93.8206 74.576 95.7056 75.0178C97.5305 75.4552 99.1922 76.2075 100.708 77.2528C102.164 78.32 103.456 79.6759 104.504 81.3029C105.551 82.9125 106.208 84.732 106.513 86.6521C106.822 88.5721 106.822 90.5185 106.389 92.4386C105.959 94.2974 105.221 95.9901 104.195 97.534C103.147 99.0167 101.816 100.333 100.214 101.4C98.634 102.468 96.8478 103.137 94.9628 103.447C93.0778 103.762 91.167 103.762 89.282 103.321C87.4572 102.883 85.7955 102.131 84.2797 101.086C82.8241 100.018 81.5317 98.6625 80.484 97.0354C79.4363 95.4259 78.7794 93.6064 78.4745 91.6863C78.1653 89.7662 78.1653 87.8199 78.599 85.8998C79.0284 84.0409 79.7669 82.3482 80.7932 80.8043C81.8408 79.3216 83.1719 78.0051 84.7735 76.9379C86.3751 75.8925 88.1356 75.2015 90.0249 74.891Z" fill="#238FFF"/>
</svg>
