<svg width="91" height="81" viewBox="0 0 91 81" fill="none" xmlns="http://www.w3.org/2000/svg">
<path d="M90.4293 40.0391C90.4293 34.0391 82.9748 28.4027 71.5202 24.9482C74.0657 13.3118 72.9748 4.03906 67.8839 1.12997C66.6112 0.402699 65.3384 0.0390625 63.7021 0.0390625V4.03906C64.6111 4.03906 65.1566 4.22088 65.7021 4.58452C68.2475 6.03906 69.3384 11.4936 68.4293 18.4027C68.2475 20.0391 67.8839 21.8572 67.5202 23.8572C63.8839 22.9482 60.0657 22.2209 55.8839 21.8572C53.3384 18.4027 50.793 15.3118 48.2475 12.7663C54.2475 7.31179 59.8839 4.22088 63.7021 4.22088V0.0390625C58.6111 0.0390625 52.0657 3.67543 45.3384 9.85724C38.793 3.67543 32.2475 0.0390625 27.1566 0.0390625V4.03906C30.9748 4.03906 36.6112 7.12997 42.6112 12.5845C40.0657 15.3118 37.5202 18.4027 34.9748 21.6754C30.793 22.0391 26.9748 22.7663 23.3384 23.6754C22.9748 21.8572 22.6112 20.0391 22.4293 18.4027C21.5202 11.4936 22.6112 6.03906 25.1566 4.58452C25.7021 4.22088 26.4293 4.03906 27.3384 4.03906V0.0390625C25.8839 0.0390625 24.4293 0.402699 23.1566 1.12997C18.0657 4.03906 16.793 13.3118 19.5202 24.9482C8.0657 28.4027 0.792969 34.0391 0.792969 40.0391C0.792969 46.0391 8.24751 51.6754 19.7021 55.13C17.1566 66.7663 18.2475 76.0391 23.3384 78.9482C24.6112 79.6754 25.8839 80.0391 27.5202 80.0391C32.6112 80.0391 39.1566 76.4027 45.8839 70.2209C52.6112 76.4027 59.1566 80.0391 64.2475 80.0391C65.7021 80.0391 67.1566 79.6754 68.4293 78.9482C73.5202 76.0391 74.793 66.7663 72.0657 55.13C82.9748 51.4936 90.4293 45.8572 90.4293 40.0391ZM66.6112 27.8572C65.8839 30.2209 65.1566 32.5845 64.0657 35.13C63.3384 33.6754 62.6112 32.2209 61.7021 30.7663C60.793 29.3118 59.8839 27.8572 59.1566 26.4027C61.7021 26.7663 64.2475 27.13 66.6112 27.8572ZM58.2475 47.3118C56.793 49.8572 55.3384 52.0391 53.8839 54.2209C51.1566 54.4027 48.4293 54.5845 45.7021 54.5845C42.9748 54.5845 40.2475 54.4027 37.5202 54.2209C36.0657 52.0391 34.4293 49.6754 33.1566 47.3118C31.7021 44.9482 30.4293 42.4027 29.3384 40.0391C30.4293 37.6754 31.7021 35.13 33.1566 32.7663C34.6111 30.2209 36.0657 28.0391 37.5202 25.8572C40.2475 25.6754 42.9748 25.4936 45.7021 25.4936C48.4293 25.4936 51.1566 25.6754 53.8839 25.8572C55.3384 28.0391 56.9748 30.4027 58.2475 32.7663C59.7021 35.13 60.9748 37.6754 62.0657 40.0391C60.793 42.4027 59.5202 44.9482 58.2475 47.3118ZM64.0657 44.9482C64.9748 47.3118 65.8839 49.8572 66.6112 52.2209C64.2475 52.7663 61.7021 53.3118 59.1566 53.6754C60.0657 52.2209 60.9748 50.7663 61.7021 49.3118C62.6112 47.8572 63.3384 46.4027 64.0657 44.9482ZM45.5202 64.4027C43.8839 62.5845 42.0657 60.7663 40.4293 58.5845C42.0657 58.5845 43.7021 58.7663 45.5202 58.7663C47.1566 58.7663 48.9748 58.7663 50.6112 58.5845C48.9748 60.7663 47.1566 62.5845 45.5202 64.4027ZM31.8839 53.6754C29.3384 53.3118 26.793 52.7663 24.4293 52.2209C25.1566 49.8572 25.8839 47.4936 26.9748 44.9482C27.7021 46.4027 28.4293 47.8572 29.3384 49.3118C30.2475 50.7663 30.9748 52.2209 31.8839 53.6754ZM45.5202 15.4936C47.1566 17.3118 48.9748 19.13 50.6112 21.3118C48.9748 21.3118 47.1566 21.3118 45.5202 21.3118C43.8839 21.3118 42.0657 21.3118 40.4293 21.4936C42.0657 19.3118 43.7021 17.3118 45.5202 15.4936ZM31.8839 26.4027C30.9748 27.8572 30.0657 29.3118 29.3384 30.7663C28.4293 32.2209 27.7021 33.6754 26.9748 35.13C26.0657 32.7663 25.1566 30.2209 24.4293 27.8572C26.793 27.3118 29.3384 26.7663 31.8839 26.4027ZM15.3384 49.3118C8.79297 46.5845 4.61115 42.9482 4.61115 40.0391C4.61115 37.13 8.79297 33.4936 15.3384 30.7663C16.9748 30.0391 18.6112 29.4936 20.4293 28.9482C21.5202 32.5845 22.793 36.2209 24.6112 40.0391C22.9748 43.8572 21.5202 47.4936 20.6112 51.13C18.6112 50.5845 16.9748 49.8572 15.3384 49.3118ZM25.1566 75.3118C22.6112 73.8572 21.5202 68.4027 22.4293 61.4936C22.6112 59.8572 22.9748 58.0391 23.3384 56.0391C26.9748 56.9482 30.793 57.6754 34.9748 58.0391C37.5202 61.4936 40.0657 64.5845 42.6112 67.13C36.6112 72.5845 30.9748 75.6754 27.1566 75.6754C26.4293 75.8573 25.7021 75.6754 25.1566 75.3118ZM68.6112 61.4936C69.5202 68.4027 68.4293 73.8572 65.8839 75.3118C65.3384 75.6754 64.6112 75.8572 63.8839 75.8572C60.0657 75.8572 54.4293 72.7663 48.4293 67.3118C50.9748 64.5845 53.5202 61.4936 56.0657 58.2209C60.2475 57.8572 64.0657 57.13 67.7021 56.2209C68.0657 58.0391 68.4293 59.6754 68.6112 61.4936ZM75.7021 49.3118C74.0657 50.0391 72.4293 50.5845 70.6112 51.13C69.5202 47.4936 68.2475 43.8572 66.4293 40.0391C68.0657 36.2209 69.5202 32.5845 70.4293 28.9482C72.2475 29.4936 73.8839 30.2209 75.5202 30.7663C82.0657 33.4936 86.2475 37.13 86.2475 40.0391C86.2475 42.9482 82.0657 46.5845 75.7021 49.3118Z" fill="#61DAFB"/>
<path d="M45.516 48.4031C50.1351 48.4031 53.8796 44.6585 53.8796 40.0394C53.8796 35.4203 50.1351 31.6758 45.516 31.6758C40.8969 31.6758 37.1523 35.4203 37.1523 40.0394C37.1523 44.6585 40.8969 48.4031 45.516 48.4031Z" fill="#61DAFB"/>
</svg>
