<svg width="30" height="26" viewBox="0 0 30 26" fill="none" xmlns="http://www.w3.org/2000/svg">
<g clip-path="url(#clip0_344_230)">
<path d="M30 12.4572C29.9273 12.5306 29.8452 12.5967 29.7828 12.6781C29.1685 13.4722 28.5565 14.2684 27.9291 15.0844C23.6162 11.7659 19.318 8.45992 15 5.13703C10.6952 8.44892 6.39628 11.7564 2.07094 15.0844C1.38258 14.1899 0.701566 13.3048 0 12.3934C5.00269 8.54432 9.98924 4.70846 14.9993 0.854248C17.1135 2.47974 19.227 4.10523 21.3926 5.77034V3.70601H25.7488C25.7488 3.82563 25.7488 3.93938 25.7488 4.05239C25.7488 5.65366 25.7524 7.2542 25.7444 8.85547C25.7436 9.05288 25.8068 9.17396 25.9623 9.29285C27.3119 10.3232 28.6548 11.3623 30 12.3985V12.4572Z" fill="#CD78AB"/>
<path d="M25.3049 25.9249H17.3888V18.1571H12.9784V25.9132H4.68433V25.6182C4.68433 22.2689 4.68212 18.9188 4.69093 15.5695C4.69093 15.4359 4.75258 15.2532 4.85091 15.1769C8.18702 12.5966 11.5305 10.0267 14.8732 7.45526C14.9106 7.42591 14.951 7.40022 15.006 7.36206C15.8595 8.01813 16.7093 8.67199 17.5591 9.32586C20.0813 11.2669 22.6043 13.2057 25.1215 15.1541C25.2183 15.229 25.3079 15.3853 25.3079 15.5042C25.3174 18.9122 25.3159 22.3202 25.3152 25.7283C25.3152 25.7855 25.3093 25.8427 25.3049 25.9242V25.9249Z" fill="#CD78AB"/>
</g>
<defs>
<clipPath id="clip0_344_230">
<rect width="30" height="25.0707" fill="white" transform="translate(0 0.854248)"/>
</clipPath>
</defs>
</svg>
