<svg width="21" height="22" viewBox="0 0 21 22" fill="none" xmlns="http://www.w3.org/2000/svg">
<path fill-rule="evenodd" clip-rule="evenodd" d="M8.33385 9.04191L9.78757 10.4517L12.292 7.86074C12.5403 7.60442 12.695 7.39832 13.001 7.71873L13.9923 8.75268C14.3187 9.08001 14.3017 9.27225 13.994 9.57707L10.3538 13.2176C9.70596 13.8636 9.81987 13.9034 9.16188 13.2401L6.66591 10.7097C6.52989 10.5591 6.54349 10.4067 6.69311 10.256L7.84418 9.04018C8.01591 8.85486 8.15533 8.86699 8.33385 9.04191ZM15.7197 1.55312C15.4902 1.39032 15.2301 1.31931 14.9648 1.373C14.6996 1.42669 14.4752 1.57217 14.3153 1.79905L13.4193 3.08586C13.1014 2.94211 12.7698 2.833 12.4162 2.74294C12.0625 2.65288 11.731 2.58014 11.3773 2.52645L11.0934 0.843032C11.0407 0.553803 10.8978 0.344241 10.6921 0.181441C10.4626 0.0186417 10.2194 -0.0350476 9.93719 0.0186417L7.86628 0.397931C7.60105 0.45162 7.39362 0.57805 7.21679 0.811858C7.05697 1.04567 6.98725 1.29333 7.03996 1.58083L7.3052 3.11877C6.96855 3.26251 6.65571 3.42531 6.35476 3.61756C6.05382 3.79768 5.75967 4.01416 5.49273 4.22373L4.08833 3.23827C3.85879 3.07547 3.61566 3.00446 3.35042 3.05815C3.08518 3.11184 2.86074 3.25732 2.70092 3.49113L1.50564 5.2317C1.34582 5.46551 1.27611 5.73049 1.32882 6.00067C1.38153 6.2899 1.52435 6.49946 1.75388 6.66226L3.01717 7.57498C2.87605 7.89885 2.76893 8.23657 2.68052 8.59681C2.5921 8.95705 2.52069 9.29477 2.46799 9.65501L0.815341 9.94424C-0.585666 10.2127 0.206651 12.2581 0.378377 13.2314C0.431085 13.5016 0.555203 13.7129 0.779636 13.893C1.00917 14.0558 1.25231 14.1268 1.53455 14.0731L3.04437 13.8029C3.18549 14.1459 3.34532 14.4645 3.53404 14.7711C3.71087 15.0776 3.9234 15.3772 4.12913 15.6665L3.16169 17.0797C3.00187 17.3135 2.93215 17.5612 2.98486 17.8314C3.03757 18.1015 3.17869 18.3302 3.40312 18.493L5.12548 19.7243C5.35501 19.8871 5.61515 19.9408 5.88039 19.8871C6.14563 19.8335 6.37006 19.707 6.54689 19.4784L7.44462 18.1743C7.76257 18.318 8.09412 18.4271 8.44777 18.5172C8.80142 18.6073 9.13127 18.68 9.48662 18.7337L9.77057 20.4171C9.82327 20.7063 9.9661 20.9159 10.1718 21.0787C10.4014 21.2415 10.6445 21.2952 10.9267 21.2415L12.9976 20.8622C13.2629 20.8085 13.4703 20.6821 13.6471 20.4535C13.807 20.2197 13.8767 19.972 13.824 19.6845L13.5587 18.1466C13.8954 18.0028 14.2082 17.84 14.5092 17.6478C14.8101 17.4677 15.106 17.2564 15.3882 17.0416L16.7756 18.0271C17.0051 18.1899 17.2483 18.2609 17.5305 18.2072C17.8145 18.1535 18.0202 18.008 18.18 17.7811L19.3889 16.025C19.5487 15.7912 19.6014 15.5262 19.5487 15.256C19.496 14.9858 19.3719 14.7572 19.1424 14.5771L17.8621 13.6817C18.0032 13.3578 18.1103 13.0201 18.1987 12.6599C18.2871 12.2996 18.3585 11.9619 18.4112 11.6017L20.0639 11.3124C20.3478 11.2588 20.5536 11.1133 20.7134 10.8985C20.8732 10.6647 20.9259 10.417 20.8732 10.1296L20.5009 8.02008C20.4481 7.7499 20.324 7.53861 20.0996 7.35849C19.8701 7.19569 19.6269 7.12468 19.3447 7.17837L17.8349 7.44855C17.6937 7.12468 17.5339 6.80601 17.3452 6.48041C17.1684 6.15654 16.9558 5.87424 16.7501 5.60233L17.7175 4.17177C17.8774 3.93796 17.9471 3.6903 17.8944 3.42012C17.8417 3.14994 17.6988 2.92133 17.4761 2.75853L15.7674 1.53407L15.7197 1.55312ZM9.42202 4.98404C10.1684 4.85934 10.925 4.85934 11.6714 5.03426C12.3941 5.20745 13.0521 5.50534 13.6522 5.91927C14.2286 6.34186 14.7404 6.87875 15.1553 7.52302C15.5701 8.16037 15.8303 8.88084 15.951 9.64115C16.0734 10.4015 16.0734 11.1722 15.9017 11.9325C15.7316 12.6685 15.4392 13.3388 15.0328 13.9502C14.618 14.5373 14.0909 15.0586 13.4567 15.4812C12.831 15.9037 12.1237 16.1687 11.3773 16.2917C10.6309 16.4164 9.87428 16.4164 9.12787 16.2415C8.40526 16.0683 7.74727 15.7704 7.14708 15.3565C6.57069 14.9339 6.05892 14.397 5.64406 13.7527C5.22919 13.1154 4.96906 12.3949 4.84834 11.6346C4.72592 10.8743 4.72592 10.1036 4.89765 9.34326C5.06767 8.6072 5.36011 7.93695 5.76647 7.32558C6.18134 6.73846 6.70841 6.21716 7.34261 5.79457C7.9768 5.38064 8.6739 5.107 9.42202 4.98404Z" fill="#F15353"/>
</svg>
