<svg width="60" height="60" viewBox="0 0 60 60" fill="none" xmlns="http://www.w3.org/2000/svg">
<g clip-path="url(#clip0_1322_7527)">
<path d="M34.2914 9.21967C34.1799 10.9304 34.07 12.6279 33.9585 14.3402C27.0608 12.5147 20.7928 13.8187 15.5334 18.8802C11.6155 22.6509 9.83283 27.3598 9.96731 32.8068C10.2231 43.1841 19.7006 51.5505 30.1177 50.5123C35.9593 49.93 40.5889 47.1746 43.8558 42.305C47.1177 37.4419 47.7294 32.1228 46.1698 26.5725C47.8868 26.4643 49.599 26.3577 51.3193 26.2494C51.5604 26.4102 51.8474 26.6742 52.1869 26.8153C53.3332 27.2893 54.4943 27.7305 55.6603 28.1569C55.9998 28.2816 56.1162 28.4522 56.113 28.8146C56.0949 30.9961 56.0933 33.1758 56.1146 35.3572C56.1179 35.7345 55.9752 35.8821 55.6472 36.0035C54.4074 36.4627 53.1709 36.9351 51.9507 37.4419C51.7342 37.5321 51.4997 37.7863 51.4374 38.011C50.847 40.1416 50.0188 42.1672 48.9184 44.0862C48.7954 44.3027 48.7774 44.6717 48.8725 44.9046C49.3743 46.1282 49.9139 47.337 50.4714 48.5359C50.6289 48.8738 50.5698 49.0755 50.3157 49.3265C48.7626 50.8584 47.2194 52.3985 45.6893 53.9534C45.4466 54.201 45.2547 54.2305 44.9496 54.0911C43.7475 53.54 42.5307 53.0218 41.3286 52.469C41.0235 52.3296 40.789 52.3165 40.4889 52.4985C38.5964 53.6434 36.5579 54.4487 34.4308 55.0457C34.1898 55.113 33.9159 55.359 33.8191 55.5886C33.314 56.7892 32.8483 58.0046 32.4022 59.2281C32.2726 59.5824 32.1234 59.7366 31.7183 59.7316C29.5371 59.7103 27.356 59.7136 25.1748 59.73C24.8321 59.7333 24.6713 59.6218 24.5549 59.3052C24.0973 58.0636 23.6316 56.8253 23.1248 55.605C23.0264 55.3688 22.7608 55.1064 22.523 55.0408C20.368 54.4553 18.3295 53.6073 16.396 52.4953C16.2091 52.387 15.886 52.3739 15.6859 52.4575C14.4477 52.9742 13.2177 53.5187 12.0009 54.0862C11.6598 54.2453 11.463 54.183 11.2121 53.9288C9.68031 52.3755 8.13874 50.8321 6.58404 49.3035C6.33804 49.0624 6.30196 48.8722 6.443 48.5654C7.00387 47.3452 7.55818 46.1216 8.07314 44.8816C8.1617 44.6668 8.14365 44.3223 8.02722 44.1206C6.93827 42.2197 6.07892 40.2269 5.54265 38.1012C5.44917 37.7306 5.28026 37.5157 4.90962 37.3812C3.68456 36.9384 2.47918 36.4463 1.25575 36.0002C0.914639 35.8755 0.80148 35.7017 0.80476 35.3392C0.82116 33.1791 0.8228 31.0174 0.80476 28.8573C0.80148 28.4735 0.908079 28.2882 1.28035 28.1537C2.52346 27.7043 3.75836 27.227 4.9785 26.7202C5.19498 26.63 5.42785 26.3725 5.48853 26.1477C6.08056 23.9959 6.92023 21.9539 8.03542 20.0185C8.15021 19.82 8.15677 19.4739 8.06658 19.2558C7.54998 18.0158 6.97599 16.8005 6.46104 15.5605C6.3856 15.3801 6.44136 15.034 6.5742 14.8995C8.12562 13.3102 9.69671 11.739 11.2858 10.1874C11.422 10.0545 11.7696 10.0037 11.95 10.0791C13.1899 10.5941 14.4051 11.1682 15.6449 11.6832C15.8614 11.7734 16.2091 11.7636 16.4075 11.6487C18.3246 10.5466 20.3402 9.68548 22.4853 9.14914C22.8526 9.05729 23.0232 8.87196 23.1478 8.53736C23.607 7.2974 24.099 6.06893 24.5615 4.83061C24.6681 4.54686 24.8042 4.42221 25.1289 4.42385C27.3511 4.43861 29.5732 4.43861 31.7938 4.42385C32.1152 4.42221 32.2562 4.53538 32.3628 4.82404C32.8138 6.04596 33.273 7.2646 33.7634 8.47012C33.8798 8.75714 34.1242 8.99005 34.2914 9.21967Z" fill="#238FFF"/>
<path d="M47.8818 24.5555C41.3334 24.567 35.9723 19.2102 35.9805 12.661C35.987 6.12829 41.3088 0.789572 47.8309 0.77153C54.3827 0.753488 59.7552 6.09713 59.7667 12.6397C59.7765 19.1954 54.4417 24.544 47.8818 24.5555ZM46.2385 13.6845C45.4103 12.8415 44.6051 12.005 43.7802 11.1865C42.9668 10.3796 41.8992 10.3337 41.1694 11.0537C40.4478 11.7655 40.4871 12.8677 41.2776 13.6648C42.4961 14.8949 43.7195 16.1234 44.9511 17.3404C45.8253 18.2031 46.8191 18.1982 47.6899 17.3224C49.9465 15.054 52.1982 12.7808 54.4433 10.5026C55.2863 9.64807 55.3191 8.59345 54.5549 7.84718C53.8333 7.14355 52.7656 7.20915 51.9473 8.02431C50.9945 8.97396 50.058 9.94002 49.1036 10.8864C48.1819 11.8032 47.2438 12.7053 46.2385 13.6845Z" fill="#238FFF"/>
<path d="M30.7163 27.106C30.6441 29.2629 30.5769 31.4197 30.4965 33.5765C30.4801 34.0013 30.4687 34.4408 30.3555 34.846C30.1029 35.7464 29.1436 36.3385 28.2268 36.2253C27.2887 36.1089 26.5343 35.3446 26.4835 34.3884C26.3966 32.7826 26.3376 31.1753 26.2802 29.5679C26.1703 26.5369 26.0686 23.5043 25.9669 20.4716C25.9194 19.0676 26.6918 18.2443 28.0858 18.2082C28.3908 18.2 28.6975 18.1983 29.0025 18.2147C30.2112 18.2836 31.0033 19.1201 30.9672 20.3306C30.8983 22.5891 30.8081 24.8476 30.7278 27.106C30.7228 27.106 30.7196 27.106 30.7163 27.106Z" fill="#238FFF"/>
<path d="M28.4874 45.9313C27.0623 45.9411 25.9061 44.8143 25.8946 43.4038C25.8815 41.9982 27.0262 40.8337 28.4399 40.8156C29.847 40.7976 31.0163 41.9441 31.0278 43.3546C31.0376 44.7766 29.9093 45.9215 28.4874 45.9313Z" fill="#238FFF"/>
</g>
<defs>
<clipPath id="clip0_1322_7527">
<rect width="58.9604" height="58.9604" fill="white" transform="translate(0.804688 0.771484)"/>
</clipPath>
</defs>
</svg>
