<svg width="58" height="58" viewBox="0 0 58 58" fill="none" xmlns="http://www.w3.org/2000/svg">
<path d="M31.7521 57.2842C29.8314 57.2842 27.9256 57.2842 26.0049 57.2842C25.4583 55.8399 24.9116 54.3956 24.3945 52.9513C24.2763 52.6271 24.0843 52.4945 23.774 52.4355C20.9669 51.846 18.3666 50.7702 15.9585 49.208C15.6482 49.0017 15.397 48.9722 15.0425 49.1343C13.7867 49.7091 12.5161 50.2544 11.2602 50.8291C10.9648 50.9618 10.7875 50.9618 10.5511 50.7112C9.42825 49.5617 8.29064 48.4269 7.15302 47.3069C6.91664 47.0858 6.87231 46.909 7.02005 46.5995C7.61102 45.332 8.15766 44.0499 8.73386 42.7824C8.86683 42.4877 8.85205 42.2519 8.67476 41.9719C7.10869 39.5402 6.00063 36.9022 5.40966 34.0578C5.35056 33.7631 5.2176 33.5862 4.92212 33.4831C3.59244 32.9967 2.27753 32.4662 0.947852 31.9651C0.667142 31.8619 0.548952 31.7293 0.563726 31.4198C0.5785 29.7987 0.5785 28.1776 0.563726 26.5564C0.563726 26.2469 0.667142 26.1143 0.947852 26.0111C2.26276 25.5248 3.56289 25.009 4.86302 24.5227C5.17328 24.4048 5.33579 24.2426 5.40966 23.9184C6.00063 21.0741 7.10869 18.4508 8.67476 16.0044C8.85205 15.7243 8.86683 15.4885 8.73386 15.1938C8.15766 13.9264 7.59625 12.6442 7.02005 11.362C6.87231 11.0526 6.93141 10.8757 7.15302 10.6546C8.29064 9.53459 9.42825 8.3998 10.5511 7.25027C10.7875 6.99974 10.9795 6.99973 11.2602 7.13237C12.5308 7.70713 13.8014 8.2819 15.1015 8.82719C15.3084 8.91562 15.6334 8.93035 15.7959 8.81245C18.2928 7.2208 20.9669 6.10075 23.8627 5.48177C24.0252 5.4523 24.232 5.33439 24.2763 5.20175C24.8673 3.69853 25.4287 2.18056 25.9902 0.662598C27.9108 0.662598 29.8167 0.662598 31.7373 0.662598C32.284 2.10688 32.8306 3.53641 33.3477 4.99543C33.4659 5.31966 33.658 5.45229 33.9682 5.51124C36.7901 6.10074 39.4051 7.19133 41.8133 8.7535C42.1088 8.94509 42.36 8.97457 42.6702 8.82719C43.9408 8.23769 45.2262 7.6924 46.4967 7.1029C46.7775 6.97026 46.94 6.99973 47.1616 7.2208C48.2992 8.38506 49.4368 9.51985 50.604 10.6546C50.8256 10.8757 50.8552 11.0378 50.7222 11.3178C50.1312 12.6 49.555 13.8969 49.0084 15.1938C48.9197 15.3854 48.9197 15.7096 49.0379 15.8865C50.6335 18.3771 51.7416 21.0593 52.3621 23.9479C52.3917 24.11 52.5099 24.3163 52.6428 24.3605C54.1498 24.95 55.6568 25.5101 57.1785 26.0701C57.1785 27.986 57.1785 29.9019 57.1785 31.8177C55.6715 32.3778 54.1498 32.9378 52.6428 33.5273C52.4951 33.5862 52.3769 33.822 52.3474 33.9989C51.7416 36.858 50.6188 39.496 49.0675 41.9571C48.9493 42.1487 48.9345 42.4877 49.0084 42.694C49.555 44.0057 50.1312 45.2878 50.7222 46.57C50.8552 46.85 50.8256 47.0121 50.604 47.2332C49.4516 48.368 48.2992 49.5175 47.1616 50.667C46.94 50.8881 46.7775 50.9028 46.4967 50.7849C45.2114 50.1954 43.9113 49.6207 42.6111 49.0606C42.4191 48.987 42.1236 48.9575 41.9611 49.0606C39.4495 50.667 36.7605 51.7871 33.85 52.4208C33.6875 52.4503 33.4807 52.5682 33.4364 52.7008C32.8749 54.263 32.3135 55.781 31.7521 57.2842ZM46.0092 28.9734C45.9944 19.5266 38.2971 11.8631 28.8564 11.8779C19.4156 11.8926 11.733 19.5856 11.7478 29.0176C11.7626 38.4496 19.4599 46.1279 28.9007 46.1279C38.3266 46.0984 46.024 38.4054 46.0092 28.9734Z" fill="#238FFF"/>
<path d="M28.8644 36.2335C26.4986 36.2335 24.1328 36.2462 21.7797 36.2335C20.0118 36.2208 18.7144 35.2185 18.3583 33.5945C18.1802 32.7951 18.2947 32.0085 18.7144 31.298C21.1565 27.073 23.5732 22.8353 26.0407 18.6231C27.3126 16.4662 30.4161 16.4535 31.688 18.6104C34.1683 22.8227 36.6231 27.0603 39.027 31.3234C40.2226 33.4422 38.8108 36.0432 36.3814 36.1827C34.4099 36.2969 32.413 36.2208 30.4288 36.2208C29.92 36.2335 29.3986 36.2335 28.8644 36.2335ZM29.7293 25.6774C29.7928 25.6774 29.8692 25.6774 29.9328 25.6774C29.9328 24.7258 29.9201 23.7742 29.9328 22.8227C29.9328 22.4293 29.8437 22.0995 29.4749 21.9092C28.61 21.4397 27.7451 21.9599 27.7832 22.9368C27.8468 24.84 27.9231 26.7431 27.9867 28.6463C28.0122 29.2553 28.3429 29.6232 28.8516 29.6232C29.3604 29.6232 29.7038 29.2426 29.7165 28.6336C29.742 27.644 29.7293 26.6543 29.7293 25.6774ZM28.8644 31.6025C28.2538 31.6025 27.7451 32.1227 27.7578 32.719C27.7705 33.328 28.2793 33.8102 28.9025 33.7975C29.5003 33.7848 29.9836 33.29 29.9836 32.7063C29.9836 32.11 29.4749 31.6025 28.8644 31.6025Z" fill="#238FFF"/>
</svg>
