<svg width="56" height="49" viewBox="0 0 56 49" fill="none" xmlns="http://www.w3.org/2000/svg">
<path d="M21.4506 23.7635C20.3209 24.4082 19.9279 25.8466 20.5726 26.9761C21.2174 28.1059 22.6558 28.4988 23.7853 27.8541L21.4506 23.7635ZM43.0404 16.8638C44.1702 16.219 44.5633 14.7806 43.9184 13.651C43.2737 12.5214 41.8352 12.1283 40.7057 12.7731L43.0404 16.8638ZM23.2213 23.5324C21.9643 23.1989 20.6748 23.9481 20.3415 25.2054C20.0082 26.4624 20.7572 27.7521 22.0146 28.0852L23.2213 23.5324ZM29.6073 30.098C30.8646 30.4312 32.154 29.6823 32.4871 28.425C32.8206 27.1677 32.0714 25.8784 30.8141 25.5452L29.6073 30.098ZM20.3449 25.1929C20.0047 26.4483 20.7465 27.7417 22.002 28.0818C23.2574 28.4221 24.5508 27.6801 24.8909 26.4247L20.3449 25.1929ZM26.9257 18.9167C27.2661 17.6615 26.5241 16.368 25.2687 16.0277C24.0136 15.6875 22.7198 16.4294 22.3798 17.6848L26.9257 18.9167ZM42.3901 12.5208C41.1212 12.2352 39.861 13.0324 39.5756 14.3014C39.2898 15.5703 40.0871 16.8305 41.356 17.1161L42.3901 12.5208ZM52.5191 19.628C53.788 19.9137 55.0481 19.1165 55.3339 17.8475C55.6193 16.5786 54.822 15.3184 53.5531 15.0329L52.5191 19.628ZM39.6142 14.1525C39.2462 15.4001 39.9596 16.7096 41.2072 17.0774C42.4548 17.4452 43.7642 16.732 44.1322 15.4844L39.6142 14.1525ZM47.4073 4.37468C47.775 3.12709 47.0616 1.81757 45.814 1.44977C44.5665 1.08201 43.257 1.79522 42.8893 3.04281L47.4073 4.37468ZM49.6104 24.433C49.6101 23.1323 48.5553 22.0782 47.2547 22.0782C45.9541 22.0785 44.8999 23.1333 44.9003 24.4339L49.6104 24.433ZM46.4986 30.1231L48.7704 30.7433L48.7717 30.7392L46.4986 30.1231ZM11.4863 41.8703L10.063 43.7468L10.0657 43.7487L11.4863 41.8703ZM34.9728 7.4441C36.103 8.08826 37.5411 7.69443 38.1852 6.56447C38.8295 5.4345 38.4354 3.9963 37.3056 3.35214L34.9728 7.4441ZM41.2734 24.4339C41.2738 23.1333 40.2196 22.0788 38.919 22.0782C37.6181 22.0779 36.5636 23.132 36.5633 24.433L41.2734 24.4339ZM30.8062 14.5816C31.936 15.2257 33.3742 14.8318 34.0186 13.7018C34.6626 12.5718 34.2685 11.1336 33.1387 10.4895L30.8062 14.5816ZM23.7853 27.8541L43.0404 16.8638L40.7057 12.7731L21.4506 23.7635L23.7853 27.8541ZM22.0146 28.0852L29.6073 30.098L30.8141 25.5452L23.2213 23.5324L22.0146 28.0852ZM24.8909 26.4247L26.9257 18.9167L22.3798 17.6848L20.3449 25.1929L24.8909 26.4247ZM41.356 17.1161L52.5191 19.628L53.5531 15.0329L42.3901 12.5208L41.356 17.1161ZM44.1322 15.4844L47.4073 4.37468L42.8893 3.04281L39.6142 14.1525L44.1322 15.4844ZM44.9003 24.4339C44.9006 26.1475 44.6735 27.8535 44.2255 29.5074L48.7717 30.7392C49.3288 28.6834 49.6107 26.5629 49.6104 24.433L44.9003 24.4339ZM44.2264 29.5033C42.8498 34.5485 39.5197 38.8376 34.9725 41.4212L37.2996 45.5162C42.9358 42.3136 47.0638 36.9971 48.7704 30.7433L44.2264 29.5033ZM34.9725 41.4212C27.9936 45.3988 19.3137 44.8373 12.9069 39.9922L10.0657 43.7487C17.9748 49.7303 28.6845 50.4264 37.2996 45.5162L34.9725 41.4212ZM12.9096 39.9941C10.8461 38.4287 9.11139 36.4721 7.80477 34.2357L3.7379 36.6119C5.35687 39.3827 7.50621 41.8071 10.063 43.7468L12.9096 39.9941ZM7.80477 34.2357C4.49001 28.5744 4.25824 21.6201 7.19041 15.7517L2.97818 13.644C-0.665564 20.9365 -0.381259 29.5768 3.7379 36.6119L7.80477 34.2357ZM7.19041 15.7517C8.93856 12.2635 11.6805 9.37445 15.0718 7.44514L12.7428 3.35111C8.54178 5.74101 5.14366 9.32292 2.97818 13.644L7.19041 15.7517ZM15.0718 7.44514C21.2391 3.92945 28.8057 3.92841 34.9728 7.4441L37.3056 3.35214C29.6924 -0.987824 20.3559 -0.98886 12.7428 3.35111L15.0718 7.44514ZM36.5633 24.433C36.563 25.4252 36.4311 26.4134 36.1711 27.3712L40.7164 28.6074C41.0854 27.2481 41.2728 25.8429 41.2734 24.4339L36.5633 24.433ZM36.1711 27.3712C35.3732 30.2984 33.4427 32.7844 30.8053 34.2838L33.133 38.3785C36.86 36.2598 39.5888 32.7436 40.7164 28.6074L36.1711 27.3712ZM30.8053 34.2838C26.7505 36.5946 21.7068 36.2693 17.9843 33.4542L15.1411 37.2094C20.3659 41.1603 27.4419 41.6216 33.133 38.3785L30.8053 34.2838ZM17.9843 33.4542C16.7867 32.546 15.7821 31.4128 15.0235 30.1153L10.9573 32.4927C12.0283 34.3246 13.45 35.9273 15.1411 37.2094L17.9843 33.4542ZM15.0235 30.1153C13.1045 26.8361 12.9702 22.8086 14.6673 19.4091L10.4542 17.3033C8.04634 22.1263 8.23458 27.84 10.9573 32.4927L15.0235 30.1153ZM14.6673 19.4091C15.6818 17.3822 17.2734 15.7038 19.243 14.582L16.9118 10.4892C14.1328 12.072 11.8856 14.4433 10.4542 17.3033L14.6673 19.4091ZM19.243 14.582C22.8266 12.5394 27.2224 12.5391 30.8062 14.5816L33.1387 10.4895C28.1092 7.6229 21.9411 7.62256 16.9118 10.4892L19.243 14.582Z" fill="#238FFF"/>
</svg>
