<svg width="61" height="60" viewBox="0 0 61 60" fill="none" xmlns="http://www.w3.org/2000/svg">
<rect x="0.820312" width="60" height="60" rx="30" fill="white"/>
<g clip-path="url(#clip0_2463_5720)">
<path d="M17.8203 39.061C18.1318 38.3567 18.8021 38.5589 19.3979 38.5198C19.3979 38.4089 19.3979 38.3111 19.3979 38.2198C19.3979 35.6637 19.3979 33.1142 19.3979 30.5581C19.3979 29.906 19.6688 29.6452 20.3526 29.6452C21.2667 29.6452 22.1807 29.6452 23.0948 29.6452C23.6703 29.6452 23.9682 29.9321 23.9682 30.4929C23.9682 33.062 23.9682 35.6311 23.9682 38.2068C23.9682 38.3046 23.9682 38.4024 23.9682 38.5132C24.4693 38.5132 24.9635 38.5132 25.4917 38.5132C25.4917 38.4285 25.4917 38.3437 25.4917 38.2589C25.4917 36.6549 25.4917 35.0573 25.4917 33.4533C25.4917 32.8599 25.776 32.5795 26.3854 32.5795C27.3063 32.5795 28.2271 32.5795 29.1547 32.5795C29.7776 32.5795 30.062 32.8534 30.062 33.4663C30.062 35.0573 30.062 36.6549 30.062 38.2459C30.062 38.3307 30.062 38.422 30.062 38.5198C30.5698 38.5198 31.0573 38.5198 31.5854 38.5198C31.5854 38.4285 31.5854 38.3372 31.5854 38.2394C31.5854 34.7117 31.5854 31.1776 31.5854 27.6499C31.5854 26.9783 31.8495 26.7175 32.5469 26.7175C33.4406 26.7175 34.3411 26.7175 35.2349 26.7175C35.8646 26.7175 36.149 26.9913 36.149 27.5912C36.149 31.1319 36.149 34.6661 36.149 38.2068C36.149 38.3046 36.149 38.4024 36.149 38.5132C36.6568 38.5132 37.151 38.5132 37.6724 38.5132C37.6724 38.4154 37.6724 38.3176 37.6724 38.2263C37.6724 33.2381 37.6724 28.2563 37.6724 23.2681C37.6724 22.5769 37.9365 22.3291 38.6474 22.3291C39.5344 22.3291 40.4214 22.3291 41.3151 22.3291C41.9651 22.3291 42.2427 22.5964 42.2427 23.2159C42.2427 28.2172 42.2427 33.2185 42.2427 38.2198C42.2427 38.3176 42.2427 38.4089 42.2427 38.5198C42.8385 38.5589 43.5021 38.3567 43.8203 39.061C43.8203 39.1914 43.8203 39.3218 43.8203 39.4522C43.6172 39.8761 43.2719 39.9934 42.7979 39.9934C34.8151 39.9869 26.8255 39.9869 18.8427 39.9934C18.3688 39.9934 18.0234 39.8695 17.8203 39.4522C17.8203 39.3218 17.8203 39.1914 17.8203 39.061Z" fill="#238FFF"/>
<path d="M40.2201 15C40.6738 15.0978 41.1139 15.2347 41.466 15.5542C42.143 16.1606 42.4003 16.904 42.1566 17.7647C41.8993 18.6646 41.2628 19.1927 40.3081 19.3623C39.7868 19.4536 39.3061 19.3492 38.8389 19.1145C38.7712 19.0819 38.6357 19.0819 38.5748 19.1275C37.7623 19.7013 36.9566 20.2817 36.1576 20.8685C36.1035 20.9076 36.0628 21.025 36.0831 21.0837C36.4217 22.3096 35.4941 23.6985 34.0045 23.7702C33.693 23.7832 33.3748 23.6985 33.0634 23.6267C32.9279 23.5941 32.8535 23.6007 32.7519 23.6919C31.8243 24.5853 30.9035 25.4786 29.9691 26.3654C29.8607 26.4697 29.8472 26.548 29.9014 26.6849C30.3686 27.8977 29.6982 29.1693 28.405 29.5475C27.1727 29.9061 25.8592 29.1693 25.5545 27.9369C25.5139 27.7804 25.48 27.6108 25.5003 27.4543C25.5342 27.2196 25.4326 27.1283 25.2363 27.037C24.6337 26.7632 24.0378 26.4697 23.4488 26.1763C23.3134 26.1111 23.2253 26.1241 23.1102 26.2089C22.3993 26.7501 21.6003 26.861 20.7743 26.5154C19.9144 26.1567 19.4675 25.4851 19.4066 24.5918C19.3456 23.7245 19.9482 22.8247 20.8081 22.4856C21.6884 22.14 22.7649 22.3748 23.3675 23.0334C23.7805 23.4898 23.9769 24.018 23.9701 24.6179C23.9701 24.6961 24.0446 24.8135 24.1123 24.8526C24.7488 25.1721 25.392 25.4786 26.042 25.7785C26.1165 25.8111 26.2587 25.8046 26.3264 25.7525C27.0238 25.2373 27.7821 25.1069 28.6149 25.4003C28.6826 25.4264 28.818 25.3938 28.8722 25.3417C29.8201 24.4418 30.7545 23.542 31.6889 22.6356C31.743 22.5834 31.7701 22.4465 31.743 22.3683C31.4316 21.4945 31.655 20.5425 32.3253 19.9752C33.104 19.3166 34.0654 19.2123 34.9863 19.6687C35.0607 19.7079 35.2029 19.7013 35.2706 19.6492C36.0764 19.0819 36.8753 18.5081 37.6675 17.9212C37.7217 17.8821 37.7759 17.7647 37.7555 17.706C37.4102 16.5128 38.304 15.1891 39.6446 15.0195C39.6649 15.0195 39.692 15 39.7123 14.9869C39.8816 15 40.0508 15 40.2201 15Z" fill="#238FFF"/>
</g>
<defs>
<clipPath id="clip0_2463_5720">
<rect width="26" height="25" fill="white" transform="translate(17.8203 15)"/>
</clipPath>
</defs>
</svg>
