<svg width="37" height="38" viewBox="0 0 37 38" fill="none" xmlns="http://www.w3.org/2000/svg">
<circle cx="18.6824" cy="18.9402" r="18.2039" fill="black"/>
<path d="M15.2702 25.3624C15.0893 25.173 14.9876 24.9161 14.9876 24.6482C14.9876 24.3804 15.0893 24.1235 15.2702 23.934L20.0481 18.9336L15.2702 13.9332C15.0944 13.7427 14.9971 13.4875 14.9993 13.2227C15.0015 12.9578 15.103 12.7044 15.282 12.5171C15.4609 12.3298 15.703 12.2236 15.9561 12.2213C16.2092 12.219 16.453 12.3208 16.635 12.5048L22.0953 18.2194C22.2763 18.4089 22.3779 18.6658 22.3779 18.9336C22.3779 19.2015 22.2763 19.4584 22.0953 19.6478L16.635 25.3624C16.454 25.5518 16.2086 25.6582 15.9526 25.6582C15.6967 25.6582 15.4512 25.5518 15.2702 25.3624Z" fill="white"/>
</svg>
