<svg width="88" height="88" viewBox="0 0 88 88" fill="none" xmlns="http://www.w3.org/2000/svg">
<rect width="88" height="88" fill="#1E1E1E"/>
<g id="Main Pages">
<path d="M-1398 -1445.79C-1398 -1446.89 -1397.11 -1447.79 -1396 -1447.79H24575C24576.1 -1447.79 24577 -1446.89 24577 -1445.79V19702.2C24577 19703.3 24576.1 19704.2 24575 19704.2H-1396C-1397.11 19704.2 -1398 19703.3 -1398 19702.2V-1445.79Z" fill="#6B6B6B"/>
<path d="M-1396 -1446.79H24575V-1448.79H-1396V-1446.79ZM24576 -1445.79V19702.2H24578V-1445.79H24576ZM24575 19703.2H-1396V19705.2H24575V19703.2ZM-1397 19702.2V-1445.79H-1399V19702.2H-1397ZM-1396 19703.2C-1396.55 19703.2 -1397 19702.8 -1397 19702.2H-1399C-1399 19703.9 -1397.66 19705.2 -1396 19705.2V19703.2ZM24576 19702.2C24576 19702.8 24575.6 19703.2 24575 19703.2V19705.2C24576.7 19705.2 24578 19703.9 24578 19702.2H24576ZM24575 -1446.79C24575.6 -1446.79 24576 -1446.34 24576 -1445.79H24578C24578 -1447.45 24576.7 -1448.79 24575 -1448.79V-1446.79ZM-1396 -1448.79C-1397.66 -1448.79 -1399 -1447.45 -1399 -1445.79H-1397C-1397 -1446.34 -1396.55 -1446.79 -1396 -1446.79V-1448.79Z" fill="white" fill-opacity="0.1"/>
<g id="landing page" clip-path="url(#clip0_0_1)">
<rect width="1440" height="9213" transform="translate(-1106 -1078.79)" fill="white"/>
<g id="Why IR Solutions">
<rect id="Rectangle 28663" x="-1106" y="-310.789" width="1442.98" height="601.931" fill="#001F3F"/>
<g id="Group 1000003098">
<g id="Group 1000002997">
<g id="Group 1000002990">
<circle id="Ellipse 2753" opacity="0.8" cx="44.2372" cy="44.1073" r="34.0735" stroke="#238FFF" stroke-width="2.72588"/>
<circle id="Ellipse 2755" cx="44.2312" cy="44.1072" r="41.3425" stroke="#238FFF" stroke-width="4.54313"/>
</g>
</g>
<path id="Vector" d="M36.5424 31.1162C35.6029 31.1162 34.7019 31.4869 34.0376 32.1467C33.3732 32.8066 33 33.7015 33 34.6347V53.5803C33 54.5135 33.3732 55.4084 34.0376 56.0682C34.7019 56.7281 35.6029 57.0988 36.5424 57.0988H46.9714L44.6203 54.7636C44.3926 54.5374 44.2119 54.2689 44.0887 53.9733C43.9654 53.6778 43.902 53.361 43.902 53.0412C43.902 52.7213 43.9654 52.4045 44.0887 52.109C44.2119 51.8135 44.3926 51.5449 44.6203 51.3187C44.848 51.0925 45.1184 50.9131 45.4159 50.7907C45.7135 50.6683 46.0324 50.6053 46.3545 50.6053C46.6765 50.6053 46.9954 50.6683 47.293 50.7907C47.5905 50.9131 47.8609 51.0925 48.0886 51.3187L49.6222 52.842L54.428 48.0688C54.5435 47.954 54.6678 47.8522 54.7996 47.7656V34.6347C54.7996 33.7015 54.4264 32.8066 53.7621 32.1467C53.0977 31.4869 52.1967 31.1162 51.2572 31.1162H36.5424ZM40.0849 38.4238C40.0849 38.7827 39.9413 39.1269 39.6858 39.3807C39.4303 39.6345 39.0838 39.7771 38.7224 39.7771C38.3611 39.7771 38.0145 39.6345 37.759 39.3807C37.5035 39.1269 37.3599 38.7827 37.3599 38.4238C37.3599 38.0649 37.5035 37.7207 37.759 37.4669C38.0145 37.2131 38.3611 37.0705 38.7224 37.0705C39.0838 37.0705 39.4303 37.2131 39.6858 37.4669C39.9413 37.7207 40.0849 38.0649 40.0849 38.4238ZM38.7224 45.4608C38.3611 45.4608 38.0145 45.3182 37.759 45.0644C37.5035 44.8106 37.3599 44.4664 37.3599 44.1075C37.3599 43.7486 37.5035 43.4044 37.759 43.1506C38.0145 42.8968 38.3611 42.7542 38.7224 42.7542C39.0838 42.7542 39.4303 42.8968 39.6858 43.1506C39.9413 43.4044 40.0849 43.7486 40.0849 44.1075C40.0849 44.4664 39.9413 44.8106 39.6858 45.0644C39.4303 45.3182 39.0838 45.4608 38.7224 45.4608ZM38.7224 51.1444C38.3611 51.1444 38.0145 51.0019 37.759 50.7481C37.5035 50.4943 37.3599 50.1501 37.3599 49.7912C37.3599 49.4323 37.5035 49.0881 37.759 48.8343C38.0145 48.5805 38.3611 48.4379 38.7224 48.4379C39.0838 48.4379 39.4303 48.5805 39.6858 48.8343C39.9413 49.0881 40.0849 49.4323 40.0849 49.7912C40.0849 50.1501 39.9413 50.4943 39.6858 50.7481C39.4303 51.0019 39.0838 51.1444 38.7224 51.1444ZM42.5373 37.6119H49.6222C49.839 37.6119 50.047 37.6974 50.2003 37.8497C50.3536 38.0019 50.4397 38.2085 50.4397 38.4238C50.4397 38.6392 50.3536 38.8457 50.2003 38.9979C50.047 39.1502 49.839 39.2358 49.6222 39.2358H42.5373C42.3205 39.2358 42.1126 39.1502 41.9593 38.9979C41.806 38.8457 41.7199 38.6392 41.7199 38.4238C41.7199 38.2085 41.806 38.0019 41.9593 37.8497C42.1126 37.6974 42.3205 37.6119 42.5373 37.6119ZM41.7199 44.1075C41.7199 43.8921 41.806 43.6856 41.9593 43.5334C42.1126 43.3811 42.3205 43.2955 42.5373 43.2955H49.6222C49.839 43.2955 50.047 43.3811 50.2003 43.5334C50.3536 43.6856 50.4397 43.8921 50.4397 44.1075C50.4397 44.3228 50.3536 44.5294 50.2003 44.6816C50.047 44.8339 49.839 44.9194 49.6222 44.9194H42.5373C42.3205 44.9194 42.1126 44.8339 41.9593 44.6816C41.806 44.5294 41.7199 44.3228 41.7199 44.1075ZM42.5373 48.9792H49.6222C49.839 48.9792 50.047 49.0648 50.2003 49.217C50.3536 49.3693 50.4397 49.5758 50.4397 49.7912C50.4397 50.0065 50.3536 50.213 50.2003 50.3653C50.047 50.5176 49.839 50.6031 49.6222 50.6031H42.5373C42.3205 50.6031 42.1126 50.5176 41.9593 50.3653C41.806 50.213 41.7199 50.0065 41.7199 49.7912C41.7199 49.5758 41.806 49.3693 41.9593 49.217C42.1126 49.0648 42.3205 48.9792 42.5373 48.9792ZM50.1999 56.8606L56.7398 50.365C56.8201 50.2906 56.8845 50.201 56.9292 50.1014C56.9739 50.0018 56.9979 49.8943 56.9999 49.7852C57.0018 49.6762 56.9816 49.5679 56.9405 49.4668C56.8994 49.3657 56.8382 49.2739 56.7606 49.1968C56.6829 49.1197 56.5905 49.0589 56.4887 49.0181C56.3869 48.9772 56.2779 48.9572 56.1681 48.9591C56.0583 48.961 55.9501 48.9849 55.8498 49.0293C55.7495 49.0736 55.6593 49.1376 55.5844 49.2174L49.6222 55.1393L46.9321 52.4674C46.7772 52.324 46.5722 52.2459 46.3604 52.2496C46.1486 52.2533 45.9466 52.3385 45.7968 52.4873C45.647 52.636 45.5612 52.8367 45.5575 53.0471C45.5538 53.2574 45.6324 53.461 45.7768 53.6149L49.0445 56.8606C49.1978 57.0127 49.4056 57.0981 49.6222 57.0981C49.8389 57.0981 50.0466 57.0127 50.1999 56.8606Z" fill="#238FFF"/>
</g>
</g>
</g>
</g>
<defs>
<clipPath id="clip0_0_1">
<rect width="1440" height="9213" fill="white" transform="translate(-1106 -1078.79)"/>
</clipPath>
</defs>
</svg>
