<svg width="80" height="88" viewBox="0 0 80 88" fill="none" xmlns="http://www.w3.org/2000/svg">
<g clip-path="url(#clip0_0_7840)">
<path d="M75.3731 31.5274C73.6115 31.5274 72.1703 32.713 71.6898 34.2938H65.8446V40.3009L62.0813 36.586L61.1204 37.5345V17.9324H71.6898C72.2503 19.9084 74.2521 21.173 76.334 20.6197C78.3358 20.0665 79.5369 18.0904 79.0564 16.0354C78.496 14.0594 76.4941 12.8738 74.4123 13.348C73.0511 13.6641 72.0101 14.6917 71.6898 16.0354H61.1204V0.148193H18.5222V16.0354H9.4741V10.8187C11.4759 10.2654 12.757 8.28939 12.1965 6.23433C11.6361 4.25832 9.63425 2.99366 7.55238 3.54695C5.55059 4.10023 4.34951 6.07625 4.82994 8.13131C5.15023 9.475 6.19117 10.5025 7.55238 10.8187V17.9324H18.4422V34.2938H7.95275C7.39224 32.3178 5.39045 31.0531 3.30858 31.6064C1.30679 32.1598 0.105711 34.1357 0.586142 36.1908C1.14664 38.1669 3.14844 39.3524 5.2303 38.8782C6.59152 38.562 7.63246 37.5345 7.95275 36.1908H18.5222V51.1295H13.3176V58.1642H7.95275C7.39224 56.1881 5.39045 54.9234 3.30858 55.4767C1.30679 56.03 0.105711 58.006 0.586142 60.0612C1.14664 62.0371 3.14844 63.3018 5.2303 62.7485C6.59152 62.4323 7.63246 61.4048 7.95275 60.0612H15.1591V53.0264H18.4422V66.1473H30.4529C31.0134 65.4359 31.654 64.8036 32.3746 64.2503H20.3639V12.7948H59.1987V39.3524L45.0259 53.4217L49.0295 57.3737L59.1987 47.3355V64.2503H47.1879C47.9085 64.8036 48.5491 65.4359 49.1096 66.1473H61.1204V54.3702H71.5297V62.4323C69.5279 62.9856 68.2468 64.9616 68.8072 67.0168C69.3677 68.9927 71.3695 70.1784 73.4514 69.7041C75.4532 69.1508 76.7343 67.1748 76.1738 65.1198C75.8535 63.776 74.8126 62.7485 73.4514 62.4323V52.5522H61.1204V45.4386L63.3624 43.1464H67.6862V36.1117H71.6097C72.1703 38.0877 74.172 39.2734 76.254 38.7992C78.2557 38.2459 79.4568 36.2699 78.9763 34.2148C78.576 32.6339 77.0546 31.4483 75.3731 31.5274ZM75.3731 15.0869C76.414 15.0869 77.2949 15.9564 77.2949 16.9839C77.2949 18.0114 76.414 18.8809 75.3731 18.8809C74.3322 18.8809 73.4514 18.0114 73.4514 16.9839C73.4514 15.9564 74.3322 15.0869 75.3731 15.0869ZM6.6716 7.18282C6.6716 6.1553 7.55238 5.28584 8.59331 5.28584C9.63425 5.28584 10.515 6.1553 10.515 7.18282C10.515 8.21036 9.63425 9.0798 8.59331 9.0798C7.55238 9.0798 6.6716 8.21036 6.6716 7.18282ZM4.26944 37.0602C3.22851 37.0602 2.34772 36.1908 2.34772 35.1632C2.34772 34.1357 3.22851 33.2663 4.26944 33.2663C5.31037 33.2663 6.19117 34.2148 6.19117 35.2423C6.19117 36.2699 5.31037 37.0602 4.26944 37.0602ZM4.26944 60.9305C3.22851 60.9305 2.34772 60.0612 2.34772 59.0335C2.34772 58.006 3.22851 57.1366 4.26944 57.1366C5.31037 57.1366 6.19117 58.006 6.19117 59.0335C6.19117 60.1402 5.31037 60.9305 4.26944 60.9305ZM74.4123 66.0683C74.4123 67.0958 73.5315 67.9652 72.4906 67.9652C71.4497 67.9652 70.5688 67.0958 70.5688 66.0683C70.5688 65.0406 71.4497 64.1713 72.4906 64.1713C73.5315 64.2503 74.4123 65.0406 74.4123 66.0683ZM20.3639 10.8978V2.04517H59.1987V10.8978H20.3639ZM62.6417 41.3285L61.2005 42.8302L49.0295 54.6864L47.6684 53.3426L59.6791 41.4865L59.9193 41.2494L61.1204 40.0638L62.0813 39.1153L63.4425 40.459L62.6417 41.3285ZM75.3731 37.0602C74.3322 37.0602 73.4514 36.1908 73.4514 35.1632C73.4514 34.1357 74.3322 33.2663 75.3731 33.2663C76.414 33.2663 77.2949 34.1357 77.2949 35.1632C77.2148 36.2699 76.414 37.0602 75.3731 37.0602Z" fill="#DC2E3D"/>
<path d="M52.5506 24.4922H27.0078V26.3892H52.5506V24.4922Z" fill="#DC2E3D"/>
<path d="M52.5506 31.5271H27.0078V33.4241H52.5506V31.5271Z" fill="#DC2E3D"/>
<path d="M52.5506 38.4819H27.0078V40.3789H52.5506V38.4819Z" fill="#DC2E3D"/>
<path d="M39.8193 53.8953H27.0078V55.7922H39.8193V53.8953Z" fill="#DC2E3D"/>
<path d="M56.8725 4.33667H51.1875V7.10309H56.8725V4.33667Z" fill="#DC2E3D"/>
<path d="M43.1016 59.27L48.6265 57.7683L44.6228 53.8162L43.1016 59.27Z" fill="#DC2E3D"/>
<path d="M42.8627 72.8654C43.263 72.3121 43.5833 71.6798 43.5833 70.9684C43.5833 69.3086 42.2221 67.9648 40.5406 67.9648C40.5406 67.4906 40.1402 67.0955 39.6598 67.0955C39.1793 67.0955 38.779 67.4906 38.779 67.9648H38.6989C38.6989 67.4906 38.2986 67.0955 37.8181 67.0955C37.3377 67.0955 36.9373 67.4906 36.9373 67.9648H36.0566C35.5761 67.9648 35.1758 68.3601 35.1758 68.8343C35.1758 69.1505 35.3359 69.3876 35.6562 69.5456V77.6869C35.416 77.8449 35.1758 78.0821 35.1758 78.3982C35.1758 78.8725 35.5761 79.2677 36.0566 79.2677H36.9373C36.9373 79.7419 37.3377 80.1372 37.8181 80.1372C38.2986 80.1372 38.6989 79.7419 38.6989 79.2677H38.779C38.779 79.7419 39.1793 80.1372 39.6598 80.1372C40.1402 80.1372 40.5406 79.7419 40.5406 79.2677H41.021C42.9427 79.2677 44.5442 77.6869 44.5442 75.7899C44.4641 74.5253 43.8235 73.4977 42.8627 72.8654ZM40.941 77.5288H37.3377V73.9719H40.941C41.9018 73.9719 42.7025 74.7624 42.7025 75.7109C42.7025 76.7384 41.9018 77.5288 40.941 77.5288ZM40.4605 69.6248C41.1812 69.6248 41.8218 70.2571 41.8218 70.9684C41.8218 71.6798 41.1812 72.3121 40.4605 72.3121H37.3377V69.6248H40.4605Z" fill="#DC2E3D"/>
<path d="M51.1914 66.0672C50.711 65.4348 50.2305 64.8025 49.67 64.1702C47.1878 61.6409 43.6647 60.0601 39.8212 60.0601C35.9778 60.0601 32.4546 61.6409 29.9724 64.1702C29.4118 64.7234 28.9314 65.3557 28.451 66.0672C27.0097 68.2012 26.1289 70.8095 26.1289 73.576C26.1289 81.0059 32.2944 87.092 39.8212 87.092C47.3479 87.092 53.5134 81.0059 53.5134 73.576C53.5134 70.8095 52.6327 68.2012 51.1914 66.0672ZM39.8212 85.4322C33.1752 85.4322 27.8104 80.1364 27.8104 73.576C27.8104 70.7305 28.8514 68.1222 30.5329 66.0672C31.0934 65.3557 31.7339 64.7234 32.4546 64.1702C34.4564 62.5894 37.0987 61.6409 39.8212 61.6409C42.5436 61.6409 45.1859 62.5894 47.1878 64.1702C47.9084 64.7234 48.549 65.3557 49.1095 66.0672C50.791 68.1222 51.8319 70.7305 51.8319 73.576C51.8319 80.1364 46.4671 85.4322 39.8212 85.4322Z" fill="#DC2E3D"/>
</g>
<defs>
<clipPath id="clip0_0_7840">
<rect width="78.8516" height="87.044" fill="white" transform="translate(0.394531 0.131104)"/>
</clipPath>
</defs>
</svg>
