<svg width="61" height="60" viewBox="0 0 61 60" fill="none" xmlns="http://www.w3.org/2000/svg">
<rect x="0.820312" width="60" height="60" rx="30" fill="white"/>
<path d="M17.9414 34.9974C18.0893 34.4513 18.4387 34.0602 18.8756 33.7298C19.0705 33.5815 19.2385 33.4061 19.4334 33.2578C19.7426 33.0151 19.9845 32.7656 20.0316 32.3138C20.092 31.8014 20.4617 31.444 20.9321 31.208C22.33 30.5067 23.728 29.792 25.1326 29.1042C25.5829 28.8817 25.9323 28.5783 26.1945 28.1467C26.7523 27.2365 27.3235 26.3397 27.9082 25.4429C27.9889 25.3215 28.1636 25.1732 28.2846 25.1799C28.4056 25.1867 28.5669 25.3485 28.6274 25.4833C30.153 28.5109 31.6651 31.5451 33.1773 34.5794C33.2512 34.7345 33.3587 34.9098 33.2109 35.0446C33.1034 35.139 32.9152 35.1997 32.7673 35.1862C31.6315 35.1121 30.4957 35.0177 29.3599 34.9368C29.1448 34.9233 28.9096 34.9233 28.7214 35.0042C28.2174 35.2065 27.7402 35.4559 27.2362 35.6987C27.6999 36.6225 28.1435 37.5125 28.587 38.4093C28.8693 38.9824 29.165 39.5488 29.4406 40.122C29.8909 41.0795 29.3734 42.1988 28.3787 42.4482C27.6058 42.6438 26.806 42.2729 26.4297 41.5177C25.7576 40.1827 25.0923 38.8476 24.4269 37.5125C24.3799 37.4181 24.3261 37.3237 24.2656 37.2158C24.1312 37.2765 24.0169 37.3372 23.896 37.3911C23.3516 37.6271 22.8207 37.5867 22.3099 37.29C22.2091 37.2293 22.0612 37.2023 21.947 37.2293C21.3824 37.3372 20.8179 37.4788 20.2533 37.5934C19.5342 37.735 18.842 37.4181 18.4925 36.7708C18.2909 36.3999 18.1296 36.0021 17.9481 35.6178C17.9414 35.402 17.9414 35.1997 17.9414 34.9974Z" fill="#238FFF"/>
<path d="M20.4492 29.5694C20.4492 26.933 20.4492 24.3168 20.4492 21.6938C28.1982 21.6938 35.927 21.6938 43.6962 21.6938C43.6962 21.7882 43.6962 21.8759 43.6962 21.9636C43.6962 27.378 43.6962 32.7993 43.6962 38.2137C43.6962 39.7713 42.6276 40.8502 41.0751 40.8502C37.8962 40.8502 34.724 40.8502 31.5451 40.8502C31.4645 40.8502 31.3771 40.8502 31.2696 40.8502C31.2897 39.7781 30.6849 38.9487 30.2615 38.0519C30.0397 37.5799 29.7977 37.1214 29.5491 36.6224C30.1136 36.6629 30.6446 36.7101 31.1755 36.7505C31.7535 36.791 32.3247 36.8584 32.9027 36.8719C34.0721 36.8989 34.9929 35.9549 34.9324 34.7884C34.9189 34.5052 34.8316 34.2018 34.7039 33.9455C33.1648 30.8371 31.6191 27.7354 30.0666 24.6405C29.3407 23.1907 27.4388 23.0964 26.5584 24.4651C25.9535 25.4024 25.3688 26.3531 24.7706 27.2971C24.7034 27.3983 24.6161 27.4994 24.5085 27.5533C23.2249 28.2074 21.9412 28.8547 20.6508 29.502C20.5971 29.5155 20.5299 29.5357 20.4492 29.5694ZM35.0601 29.1918C35.1004 29.1851 35.2146 29.1784 35.3087 29.1312C36.0883 28.7468 36.868 28.3625 37.6341 27.9579C38.0239 27.7489 38.1449 27.2702 37.9567 26.8858C37.7752 26.5015 37.3115 26.2924 36.9217 26.4745C36.1219 26.8521 35.3289 27.2499 34.5493 27.668C34.2133 27.8433 34.0923 28.2479 34.1998 28.6052C34.3073 28.9559 34.6299 29.1918 35.0601 29.1918ZM37.036 32.4958C37.036 32.4891 37.036 32.4823 37.036 32.4756C37.4527 32.4756 37.8761 32.4891 38.2927 32.4756C38.7565 32.4621 39.0925 32.0913 39.0925 31.6395C39.0925 31.1877 38.743 30.8169 38.286 30.8169C37.4594 30.8169 36.626 30.8169 35.7994 30.8371C35.302 30.8506 34.9458 31.2282 34.9593 31.6867C34.9727 32.1519 35.3356 32.4958 35.8397 32.4958C36.2295 32.4958 36.6327 32.4958 37.036 32.4958ZM35.2012 23.7909C35.1676 23.4133 34.9525 23.1031 34.6098 22.9817C34.267 22.8604 33.9108 22.9548 33.6689 23.2717C33.1716 23.919 32.6809 24.5663 32.1903 25.2203C31.8879 25.6182 31.9484 26.1239 32.3247 26.4071C32.7011 26.697 33.1917 26.6363 33.5009 26.2318C33.9982 25.5912 34.4955 24.9371 34.9727 24.2831C35.087 24.1415 35.134 23.9594 35.2012 23.7909Z" fill="#238FFF"/>
<path d="M20.4414 19.9948C20.4616 19.0846 20.8514 18.3968 21.5906 17.8978C22.0141 17.6146 22.4912 17.5 22.9953 17.5C29.0372 17.5 35.0791 17.5 41.1211 17.5C42.4585 17.5 43.4532 18.3631 43.6682 19.6779C43.6817 19.7791 43.6884 19.8735 43.6951 19.9948C35.9461 19.9948 28.2038 19.9948 20.4414 19.9948Z" fill="#238FFF"/>
<path d="M20.5742 39.2323C21.0312 39.1312 21.4277 39.0368 21.8243 38.9558C21.8848 38.9424 21.952 38.9828 22.0192 38.9963C22.409 39.0705 22.8055 39.1514 23.202 39.2053C23.3499 39.2255 23.4372 39.2458 23.5112 39.3941C23.7397 39.8729 23.9816 40.3381 24.2303 40.8438C23.0273 40.891 21.8512 40.9989 21.0043 39.9268C20.843 39.711 20.7288 39.4818 20.5742 39.2323Z" fill="#238FFF"/>
</svg>
