<svg width="49" height="49" viewBox="0 0 49 49" fill="none" xmlns="http://www.w3.org/2000/svg">
<circle cx="24.2979" cy="24.585" r="23.9854" fill="#F0F8FF"/>
<g clip-path="url(#clip0_0_10048)">
<path d="M24.9934 12.3313C25.4662 12.4351 25.9582 12.4867 26.4088 12.6511C28.7951 13.5231 30.2261 15.2227 30.5111 17.7523C30.8813 21.0392 28.6331 23.8826 25.357 24.3993C25.2034 24.4233 25.0474 24.4353 24.8884 24.4695C25.6396 24.6111 26.2504 24.973 26.6914 25.5948C27.1378 26.2237 27.2806 26.9247 27.1432 27.6832C26.908 28.9801 25.6678 29.9301 24.3196 29.8461C22.9888 29.7633 21.8836 28.6554 21.808 27.3267C21.7282 25.9224 22.6738 24.7534 24.139 24.4779C23.764 24.4101 23.4142 24.3591 23.0704 24.2817C20.6398 23.7368 18.7096 21.5355 18.475 19.0485C18.1882 16.0167 20.0044 13.3593 22.9312 12.5419C23.2816 12.4441 23.647 12.3991 24.0058 12.3301C24.3346 12.3313 24.664 12.3313 24.9934 12.3313ZM21.5812 18.3692C22.3438 19.132 23.1028 19.8911 23.839 20.6281C25.024 19.4434 26.23 18.2384 27.418 17.0513C27.1216 16.7542 26.8126 16.4446 26.4658 16.0971C25.5886 16.9745 24.6982 17.8657 23.779 18.7851C23.344 18.3476 22.9072 17.9089 22.4794 17.4786C22.174 17.7817 21.8668 18.0859 21.5812 18.3692Z" fill="#238FFF"/>
<path d="M13.0006 31.602C13.0534 31.4316 13.0888 31.2533 13.162 31.0919C13.5166 30.3117 14.1286 29.885 14.9842 29.8556C15.6946 29.8316 16.4062 29.8502 17.1172 29.8496C17.1976 29.8496 17.278 29.8496 17.3584 29.8412C15.6382 29.4817 14.947 28.0498 15.0814 26.8862C15.2482 25.4369 16.4236 24.425 17.8582 24.4599C19.2035 24.4929 20.3375 25.5791 20.4509 26.9438C20.5661 28.3319 19.6163 29.5316 18.1684 29.849C18.4732 29.849 18.7775 29.849 19.0325 29.849C18.8567 30.3021 18.6622 30.7426 18.5182 31.1993C18.4438 31.4364 18.4408 31.701 18.4384 31.9537C18.43 32.9865 18.4348 34.0199 18.4348 35.0528C18.4348 35.1344 18.4348 35.216 18.4348 35.3294C16.6156 35.3294 14.8078 35.3294 13 35.3294C13.0006 34.0877 13.0006 32.8449 13.0006 31.602Z" fill="#238FFF"/>
<path d="M35.9814 35.3215C34.1724 35.3215 32.3795 35.3215 30.5627 35.3215C30.5627 35.2321 30.5627 35.1516 30.5627 35.0718C30.5627 34.114 30.5471 33.1562 30.5675 32.1984C30.5849 31.3564 30.4091 30.5811 29.8811 29.8651C30.2153 29.8651 30.5225 29.8651 30.8297 29.8651C30.1181 29.6965 29.5241 29.3574 29.0867 28.7729C28.6505 28.1907 28.4579 27.5318 28.5707 26.8098C28.7951 25.3761 29.9327 24.4225 31.3439 24.4621C32.6711 24.4993 33.7812 25.543 33.9198 26.9107C34.0398 28.0917 33.3198 29.5014 31.6397 29.8513C32.3105 29.8513 32.9813 29.8627 33.6516 29.8477C34.2198 29.8351 34.7556 29.9113 35.2152 30.2792C35.6982 30.6651 35.9796 31.1686 35.9898 31.7843C36.009 32.9366 35.9964 34.0888 35.9964 35.2411C35.9958 35.2621 35.9886 35.2831 35.9814 35.3215Z" fill="#238FFF"/>
<path d="M19.7819 35.3194C19.7819 35.2425 19.7819 35.1771 19.7819 35.1117C19.7819 34.0561 19.7801 33.0011 19.7825 31.9454C19.7855 30.7242 20.6555 29.8552 21.8777 29.8516C22.5191 29.8498 23.1611 29.851 23.8187 29.851C23.8187 31.2019 23.8187 32.5318 23.8187 33.8773C24.2711 33.8773 24.7079 33.8773 25.1687 33.8773C25.1687 32.5426 25.1687 31.2079 25.1687 29.8894C25.9836 29.8894 26.7798 29.8276 27.5622 29.9056C28.4694 29.9962 29.1828 30.8292 29.2038 31.7426C29.2308 32.917 29.211 34.0927 29.2104 35.2678C29.2104 35.281 29.2008 35.2942 29.1912 35.3194C26.0694 35.3194 22.9439 35.3194 19.7819 35.3194Z" fill="#238FFF"/>
</g>
<defs>
<clipPath id="clip0_0_10048">
<rect width="23" height="23" fill="white" transform="translate(13 12.3311)"/>
</clipPath>
</defs>
</svg>
