<svg width="593" height="391" viewBox="0 0 593 391" fill="none" xmlns="http://www.w3.org/2000/svg">
<rect x="108.826" y="0.859375" width="321.998" height="58.0346" rx="25.9706" fill="#E6F2FD"/>
<path d="M394.787 17.708C392.843 17.708 390.943 18.2844 389.327 19.3644C387.711 20.4443 386.451 21.9793 385.707 23.7752C384.963 25.5711 384.769 27.5472 385.148 29.4537C385.527 31.3602 386.463 33.1115 387.838 34.486C389.212 35.8605 390.963 36.7965 392.87 37.1758C394.776 37.555 396.753 37.3604 398.548 36.6165C400.344 35.8726 401.879 34.6129 402.959 32.9966C404.039 31.3804 404.616 29.4802 404.616 27.5363C404.615 24.9297 403.58 22.43 401.737 20.5868C399.894 18.7437 397.394 17.7082 394.787 17.708V17.708Z" stroke="#768899" stroke-width="2" stroke-miterlimit="10"/>
<path d="M401.811 34.5566L407.967 40.7129" stroke="#768899" stroke-width="2" stroke-miterlimit="10" stroke-linecap="round"/>
<path d="M142.381 34.8765L141.751 32.8079H138.582L137.952 34.8765H135.967L139.034 26.1504H141.287L144.366 34.8765H142.381ZM141.311 31.2624L140.681 29.2414C140.641 29.1066 140.587 28.9342 140.52 28.7242C140.457 28.5102 140.391 28.2942 140.324 28.0763C140.26 27.8544 140.209 27.6622 140.169 27.4997C140.13 27.6622 140.074 27.8643 140.003 28.106C139.936 28.3438 139.87 28.5697 139.807 28.7837C139.743 28.9976 139.698 29.1502 139.67 29.2414L139.046 31.2624H141.311ZM147.427 34.9953C146.686 34.9953 146.082 34.7061 145.614 34.1275C145.151 33.545 144.919 32.691 144.919 31.5655C144.919 30.4282 145.155 29.5683 145.626 28.9858C146.098 28.3993 146.714 28.106 147.475 28.106C147.792 28.106 148.071 28.1496 148.313 28.2368C148.555 28.324 148.763 28.4409 148.937 28.5875C149.115 28.7341 149.266 28.8986 149.389 29.0809H149.448C149.424 28.9541 149.395 28.7678 149.359 28.5221C149.327 28.2725 149.312 28.0169 149.312 27.7553V25.6273H151.13V34.8765H149.74L149.389 34.0146H149.312C149.197 34.1968 149.052 34.3633 148.878 34.5139C148.707 34.6605 148.503 34.7774 148.265 34.8646C148.028 34.9518 147.748 34.9953 147.427 34.9953ZM148.063 33.5509C148.559 33.5509 148.907 33.4043 149.109 33.111C149.315 32.8138 149.424 32.368 149.436 31.7736V31.5774C149.436 30.9315 149.337 30.4381 149.139 30.0973C148.941 29.7526 148.572 29.5802 148.034 29.5802C147.633 29.5802 147.32 29.7526 147.094 30.0973C146.868 30.4421 146.756 30.9394 146.756 31.5893C146.756 32.2392 146.868 32.7286 147.094 33.0575C147.324 33.3865 147.647 33.5509 148.063 33.5509ZM160.831 28.106C161.584 28.106 162.153 28.3002 162.537 28.6885C162.926 29.0729 163.12 29.6911 163.12 30.5431V34.8765H161.301V30.9949C161.301 30.5194 161.22 30.1607 161.057 29.919C160.895 29.6773 160.643 29.5564 160.302 29.5564C159.823 29.5564 159.482 29.7288 159.28 30.0735C159.078 30.4143 158.977 30.9038 158.977 31.5418V34.8765H157.164V30.9949C157.164 30.6779 157.128 30.4124 157.057 30.1984C156.986 29.9844 156.877 29.8239 156.73 29.7169C156.583 29.6099 156.395 29.5564 156.165 29.5564C155.828 29.5564 155.563 29.6416 155.369 29.812C155.178 29.9784 155.042 30.2261 154.959 30.555C154.879 30.88 154.84 31.2782 154.84 31.7498V34.8765H153.027V28.2308H154.412L154.655 29.0809H154.756C154.891 28.851 155.06 28.6648 155.262 28.5221C155.468 28.3794 155.694 28.2744 155.939 28.2071C156.185 28.1397 156.435 28.106 156.688 28.106C157.176 28.106 157.588 28.1853 157.925 28.3438C158.265 28.5023 158.527 28.748 158.709 29.0809H158.87C159.068 28.7401 159.347 28.4924 159.708 28.3378C160.073 28.1833 160.447 28.106 160.831 28.106ZM166.799 28.2308V34.8765H164.986V28.2308H166.799ZM165.896 25.6273C166.165 25.6273 166.397 25.6907 166.591 25.8175C166.786 25.9403 166.883 26.1722 166.883 26.513C166.883 26.8498 166.786 27.0836 166.591 27.2144C166.397 27.3412 166.165 27.4046 165.896 27.4046C165.622 27.4046 165.389 27.3412 165.194 27.2144C165.004 27.0836 164.909 26.8498 164.909 26.513C164.909 26.1722 165.004 25.9403 165.194 25.8175C165.389 25.6907 165.622 25.6273 165.896 25.6273ZM172.482 28.106C173.191 28.106 173.762 28.3002 174.194 28.6885C174.626 29.0729 174.842 29.6911 174.842 30.5431V34.8765H173.029V30.9949C173.029 30.5194 172.942 30.1607 172.767 29.919C172.597 29.6773 172.327 29.5564 171.959 29.5564C171.404 29.5564 171.026 29.7446 170.824 30.1211C170.622 30.4976 170.52 31.0405 170.52 31.7498V34.8765H168.707V28.2308H170.092L170.336 29.0809H170.437C170.58 28.851 170.756 28.6648 170.966 28.5221C171.18 28.3794 171.416 28.2744 171.674 28.2071C171.935 28.1397 172.205 28.106 172.482 28.106ZM178.521 28.2308V34.8765H176.708V28.2308H178.521ZM177.618 25.6273C177.887 25.6273 178.119 25.6907 178.313 25.8175C178.507 25.9403 178.605 26.1722 178.605 26.513C178.605 26.8498 178.507 27.0836 178.313 27.2144C178.119 27.3412 177.887 27.4046 177.618 27.4046C177.344 27.4046 177.111 27.3412 176.916 27.2144C176.726 27.0836 176.631 26.8498 176.631 26.513C176.631 26.1722 176.726 25.9403 176.916 25.8175C177.111 25.6907 177.344 25.6273 177.618 25.6273ZM185.066 32.903C185.066 33.3547 184.959 33.7372 184.745 34.0502C184.535 34.3593 184.22 34.5951 183.8 34.7576C183.38 34.9161 182.857 34.9953 182.231 34.9953C181.767 34.9953 181.369 34.9656 181.036 34.9062C180.707 34.8467 180.374 34.7477 180.037 34.609V33.111C180.398 33.2735 180.784 33.4082 181.196 33.5152C181.612 33.6183 181.977 33.6698 182.29 33.6698C182.643 33.6698 182.894 33.6183 183.045 33.5152C183.199 33.4082 183.277 33.2695 183.277 33.0991C183.277 32.9882 183.245 32.8891 183.182 32.8019C183.122 32.7108 182.991 32.6097 182.789 32.4988C182.587 32.3839 182.27 32.2353 181.838 32.053C181.422 31.8786 181.079 31.7023 180.81 31.5239C180.544 31.3456 180.346 31.1356 180.215 30.8938C180.089 30.6482 180.025 30.3371 180.025 29.9606C180.025 29.3464 180.263 28.8847 180.739 28.5756C181.218 28.2625 181.858 28.106 182.659 28.106C183.071 28.106 183.463 28.1476 183.835 28.2308C184.212 28.3141 184.598 28.4468 184.995 28.6291L184.448 29.9368C184.119 29.7942 183.808 29.6773 183.514 29.5861C183.225 29.495 182.93 29.4494 182.629 29.4494C182.363 29.4494 182.163 29.4851 182.028 29.5564C181.894 29.6277 181.826 29.7367 181.826 29.8833C181.826 29.9903 181.86 30.0854 181.927 30.1687C181.999 30.2519 182.133 30.345 182.332 30.448C182.534 30.5471 182.829 30.6759 183.217 30.8344C183.594 30.989 183.921 31.1514 184.198 31.3218C184.475 31.4883 184.689 31.6963 184.84 31.946C184.991 32.1917 185.066 32.5107 185.066 32.903ZM189.28 33.5509C189.479 33.5509 189.671 33.5311 189.857 33.4915C190.047 33.4518 190.235 33.4023 190.422 33.3429V34.6922C190.227 34.7794 189.986 34.8507 189.696 34.9062C189.411 34.9656 189.098 34.9953 188.757 34.9953C188.361 34.9953 188.004 34.9319 187.687 34.8051C187.374 34.6744 187.127 34.4505 186.944 34.1334C186.766 33.8125 186.677 33.3666 186.677 32.796V29.5921H185.809V28.8253L186.808 28.219L187.331 26.8161H188.49V28.2308H190.35V29.5921H188.49V32.796C188.49 33.0496 188.561 33.2398 188.704 33.3666C188.85 33.4895 189.043 33.5509 189.28 33.5509ZM195.48 28.106C195.571 28.106 195.676 28.112 195.795 28.1238C195.918 28.1318 196.017 28.1437 196.092 28.1595L195.956 29.8596C195.896 29.8397 195.811 29.8259 195.7 29.8179C195.593 29.8061 195.5 29.8001 195.421 29.8001C195.187 29.8001 194.959 29.8298 194.737 29.8893C194.519 29.9487 194.323 30.0458 194.149 30.1805C193.974 30.3113 193.836 30.4857 193.733 30.7036C193.634 30.9176 193.584 31.1812 193.584 31.4942V34.8765H191.771V28.2308H193.144L193.412 29.3484H193.501C193.632 29.1225 193.794 28.9164 193.988 28.7302C194.186 28.5399 194.41 28.3894 194.66 28.2784C194.913 28.1635 195.187 28.106 195.48 28.106ZM200.022 28.0941C200.913 28.0941 201.597 28.2883 202.072 28.6767C202.548 29.065 202.786 29.6555 202.786 30.448V34.8765H201.519L201.169 33.9729H201.121C200.931 34.2107 200.737 34.4049 200.539 34.5555C200.341 34.7061 200.113 34.817 199.855 34.8884C199.598 34.9597 199.284 34.9953 198.916 34.9953C198.524 34.9953 198.171 34.9201 197.858 34.7695C197.549 34.6189 197.305 34.389 197.127 34.0799C196.948 33.7669 196.859 33.3706 196.859 32.8911C196.859 32.1857 197.107 31.6666 197.602 31.3337C198.098 30.9969 198.841 30.8106 199.831 30.775L200.985 30.7393V30.448C200.985 30.0993 200.893 29.8437 200.711 29.6812C200.529 29.5188 200.275 29.4375 199.95 29.4375C199.629 29.4375 199.314 29.4831 199.005 29.5742C198.696 29.6654 198.387 29.7803 198.078 29.919L197.477 28.6945C197.83 28.5082 198.224 28.3616 198.66 28.2546C199.1 28.1476 199.554 28.0941 200.022 28.0941ZM200.985 31.7974L200.283 31.8211C199.697 31.837 199.288 31.942 199.059 32.1362C198.833 32.3304 198.72 32.586 198.72 32.903C198.72 33.1804 198.801 33.3785 198.963 33.4974C199.126 33.6123 199.338 33.6698 199.6 33.6698C199.988 33.6698 200.315 33.5549 200.58 33.325C200.85 33.0952 200.985 32.7683 200.985 32.3442V31.7974ZM207.458 33.5509C207.656 33.5509 207.848 33.5311 208.034 33.4915C208.225 33.4518 208.413 33.4023 208.599 33.3429V34.6922C208.405 34.7794 208.163 34.8507 207.874 34.9062C207.589 34.9656 207.275 34.9953 206.935 34.9953C206.538 34.9953 206.182 34.9319 205.865 34.8051C205.552 34.6744 205.304 34.4505 205.122 34.1334C204.943 33.8125 204.854 33.3666 204.854 32.796V29.5921H203.986V28.8253L204.985 28.219L205.508 26.8161H206.667V28.2308H208.528V29.5921H206.667V32.796C206.667 33.0496 206.738 33.2398 206.881 33.3666C207.028 33.4895 207.22 33.5509 207.458 33.5509ZM211.761 28.2308V34.8765H209.948V28.2308H211.761ZM210.858 25.6273C211.127 25.6273 211.359 25.6907 211.553 25.8175C211.747 25.9403 211.845 26.1722 211.845 26.513C211.845 26.8498 211.747 27.0836 211.553 27.2144C211.359 27.3412 211.127 27.4046 210.858 27.4046C210.584 27.4046 210.351 27.3412 210.156 27.2144C209.966 27.0836 209.871 26.8498 209.871 26.513C209.871 26.1722 209.966 25.9403 210.156 25.8175C210.351 25.6907 210.584 25.6273 210.858 25.6273ZM215.251 34.8765L212.718 28.2308H214.615L215.899 32.0173C215.97 32.2392 216.025 32.473 216.065 32.7187C216.109 32.9644 216.138 33.1843 216.154 33.3785H216.202C216.214 33.1685 216.241 32.9446 216.285 32.7068C216.332 32.4691 216.394 32.2392 216.469 32.0173L217.747 28.2308H219.643L217.111 34.8765H215.251ZM223.341 28.106C223.955 28.106 224.484 28.2249 224.928 28.4627C225.372 28.6965 225.714 29.0373 225.956 29.4851C226.198 29.9329 226.319 30.4797 226.319 31.1257V32.0054H222.033C222.053 32.5166 222.205 32.9188 222.491 33.2121C222.78 33.5014 223.18 33.646 223.691 33.646C224.115 33.646 224.504 33.6024 224.856 33.5152C225.209 33.4281 225.572 33.2973 225.944 33.1229V34.5258C225.615 34.6882 225.271 34.8071 224.91 34.8824C224.553 34.9577 224.119 34.9953 223.608 34.9953C222.942 34.9953 222.352 34.8725 221.837 34.6268C221.326 34.3811 220.923 34.0066 220.63 33.5034C220.341 33.0001 220.196 32.366 220.196 31.6012C220.196 30.8245 220.327 30.1786 220.588 29.6634C220.854 29.1443 221.223 28.7559 221.694 28.4983C222.166 28.2368 222.715 28.106 223.341 28.106ZM223.353 29.3959C223 29.3959 222.707 29.5088 222.473 29.7347C222.243 29.9606 222.11 30.3153 222.075 30.7987H224.619C224.615 30.5293 224.565 30.2895 224.47 30.0795C224.379 29.8695 224.24 29.703 224.054 29.5802C223.872 29.4573 223.638 29.3959 223.353 29.3959ZM236.228 32.4631C236.228 32.9783 236.103 33.4261 235.853 33.8065C235.604 34.1869 235.239 34.4802 234.759 34.6863C234.284 34.8923 233.705 34.9953 233.024 34.9953C232.723 34.9953 232.427 34.9755 232.138 34.9359C231.853 34.8963 231.577 34.8388 231.312 34.7635C231.05 34.6843 230.801 34.5872 230.563 34.4723V32.7603C230.975 32.9426 231.403 33.1071 231.847 33.2537C232.291 33.4003 232.731 33.4736 233.166 33.4736C233.468 33.4736 233.709 33.434 233.892 33.3547C234.078 33.2755 234.213 33.1665 234.296 33.0278C234.379 32.8891 234.421 32.7306 234.421 32.5523C234.421 32.3343 234.347 32.1481 234.201 31.9935C234.054 31.839 233.852 31.6943 233.594 31.5596C233.341 31.4249 233.053 31.2802 232.733 31.1257C232.53 31.0306 232.31 30.9156 232.073 30.7809C231.835 30.6422 231.609 30.4738 231.395 30.2757C231.181 30.0775 231.005 29.8378 230.866 29.5564C230.731 29.2711 230.664 28.9303 230.664 28.534C230.664 28.0149 230.783 27.571 231.021 27.2025C231.258 26.834 231.597 26.5526 232.037 26.3584C232.481 26.1603 233.004 26.0612 233.606 26.0612C234.058 26.0612 234.488 26.1147 234.896 26.2217C235.308 26.3247 235.738 26.4753 236.186 26.6735L235.592 28.106C235.191 27.9435 234.833 27.8187 234.516 27.7315C234.199 27.6404 233.876 27.5948 233.547 27.5948C233.317 27.5948 233.121 27.6325 232.958 27.7078C232.796 27.7791 232.673 27.8821 232.59 28.0169C232.507 28.1476 232.465 28.3002 232.465 28.4746C232.465 28.6806 232.524 28.855 232.643 28.9976C232.766 29.1363 232.948 29.2711 233.19 29.4019C233.436 29.5326 233.741 29.6852 234.106 29.8596C234.549 30.0696 234.928 30.2895 235.241 30.5194C235.558 30.7452 235.802 31.0127 235.972 31.3218C236.142 31.627 236.228 32.0074 236.228 32.4631ZM240.401 28.106C241.015 28.106 241.544 28.2249 241.988 28.4627C242.431 28.6965 242.774 29.0373 243.016 29.4851C243.258 29.9329 243.379 30.4797 243.379 31.1257V32.0054H239.093C239.113 32.5166 239.265 32.9188 239.551 33.2121C239.84 33.5014 240.24 33.646 240.751 33.646C241.175 33.646 241.564 33.6024 241.916 33.5152C242.269 33.4281 242.632 33.2973 243.004 33.1229V34.5258C242.675 34.6882 242.33 34.8071 241.97 34.8824C241.613 34.9577 241.179 34.9953 240.668 34.9953C240.002 34.9953 239.412 34.8725 238.897 34.6268C238.385 34.3811 237.983 34.0066 237.69 33.5034C237.401 33.0001 237.256 32.366 237.256 31.6012C237.256 30.8245 237.387 30.1786 237.648 29.6634C237.914 29.1443 238.282 28.7559 238.754 28.4983C239.226 28.2368 239.774 28.106 240.401 28.106ZM240.412 29.3959C240.06 29.3959 239.766 29.5088 239.533 29.7347C239.303 29.9606 239.17 30.3153 239.134 30.7987H241.679C241.675 30.5293 241.625 30.2895 241.53 30.0795C241.439 29.8695 241.3 29.703 241.114 29.5802C240.932 29.4573 240.698 29.3959 240.412 29.3959ZM248.562 28.106C248.653 28.106 248.758 28.112 248.877 28.1238C249 28.1318 249.099 28.1437 249.174 28.1595L249.037 29.8596C248.978 29.8397 248.893 29.8259 248.782 29.8179C248.675 29.8061 248.582 29.8001 248.502 29.8001C248.269 29.8001 248.041 29.8298 247.819 29.8893C247.601 29.9487 247.405 30.0458 247.23 30.1805C247.056 30.3113 246.917 30.4857 246.814 30.7036C246.715 30.9176 246.666 31.1812 246.666 31.4942V34.8765H244.853V28.2308H246.226L246.493 29.3484H246.583C246.713 29.1225 246.876 28.9164 247.07 28.7302C247.268 28.5399 247.492 28.3894 247.742 28.2784C247.995 28.1635 248.269 28.106 248.562 28.106ZM251.962 34.8765L249.43 28.2308H251.326L252.61 32.0173C252.681 32.2392 252.737 32.473 252.776 32.7187C252.82 32.9644 252.85 33.1843 252.866 33.3785H252.913C252.925 33.1685 252.953 32.9446 252.996 32.7068C253.044 32.4691 253.105 32.2392 253.181 32.0173L254.459 28.2308H256.355L253.823 34.8765H251.962ZM259.125 28.2308V34.8765H257.312V28.2308H259.125ZM258.221 25.6273C258.491 25.6273 258.723 25.6907 258.917 25.8175C259.111 25.9403 259.208 26.1722 259.208 26.513C259.208 26.8498 259.111 27.0836 258.917 27.2144C258.723 27.3412 258.491 27.4046 258.221 27.4046C257.948 27.4046 257.714 27.3412 257.52 27.2144C257.33 27.0836 257.235 26.8498 257.235 26.513C257.235 26.1722 257.33 25.9403 257.52 25.8175C257.714 25.6907 257.948 25.6273 258.221 25.6273ZM263.732 34.9953C263.074 34.9953 262.513 34.8765 262.049 34.6387C261.586 34.397 261.233 34.0245 260.991 33.5212C260.75 33.0179 260.629 32.374 260.629 31.5893C260.629 30.7769 260.765 30.1152 261.039 29.604C261.316 29.0888 261.699 28.7103 262.186 28.4686C262.677 28.2269 263.246 28.106 263.892 28.106C264.352 28.106 264.748 28.1516 265.081 28.2427C265.418 28.3299 265.711 28.4349 265.961 28.5578L265.426 29.9606C265.14 29.8457 264.875 29.7526 264.629 29.6812C264.383 29.6059 264.138 29.5683 263.892 29.5683C263.575 29.5683 263.311 29.6436 263.101 29.7942C262.891 29.9408 262.735 30.1627 262.632 30.4599C262.529 30.7571 262.477 31.1296 262.477 31.5774C262.477 32.0173 262.533 32.3819 262.644 32.6712C262.755 32.9604 262.915 33.1764 263.125 33.3191C263.335 33.4578 263.591 33.5271 263.892 33.5271C264.268 33.5271 264.603 33.4776 264.897 33.3785C265.19 33.2755 265.475 33.1328 265.753 32.9505V34.502C265.475 34.6763 265.184 34.8012 264.879 34.8765C264.578 34.9557 264.195 34.9953 263.732 34.9953ZM270.038 28.106C270.653 28.106 271.182 28.2249 271.625 28.4627C272.069 28.6965 272.412 29.0373 272.654 29.4851C272.896 29.9329 273.016 30.4797 273.016 31.1257V32.0054H268.731C268.75 32.5166 268.903 32.9188 269.188 33.2121C269.478 33.5014 269.878 33.646 270.389 33.646C270.813 33.646 271.201 33.6024 271.554 33.5152C271.907 33.4281 272.269 33.2973 272.642 33.1229V34.5258C272.313 34.6882 271.968 34.8071 271.608 34.8824C271.251 34.9577 270.817 34.9953 270.306 34.9953C269.64 34.9953 269.05 34.8725 268.534 34.6268C268.023 34.3811 267.621 34.0066 267.328 33.5034C267.038 33.0001 266.894 32.366 266.894 31.6012C266.894 30.8245 267.025 30.1786 267.286 29.6634C267.552 29.1443 267.92 28.7559 268.392 28.4983C268.863 28.2368 269.412 28.106 270.038 28.106ZM270.05 29.3959C269.698 29.3959 269.404 29.5088 269.17 29.7347C268.941 29.9606 268.808 30.3153 268.772 30.7987H271.316C271.312 30.5293 271.263 30.2895 271.168 30.0795C271.077 29.8695 270.938 29.703 270.752 29.5802C270.569 29.4573 270.336 29.3959 270.05 29.3959ZM279.127 32.903C279.127 33.3547 279.02 33.7372 278.806 34.0502C278.596 34.3593 278.281 34.5951 277.861 34.7576C277.441 34.9161 276.918 34.9953 276.292 34.9953C275.828 34.9953 275.43 34.9656 275.097 34.9062C274.768 34.8467 274.435 34.7477 274.098 34.609V33.111C274.459 33.2735 274.845 33.4082 275.257 33.5152C275.673 33.6183 276.038 33.6698 276.351 33.6698C276.704 33.6698 276.955 33.6183 277.106 33.5152C277.261 33.4082 277.338 33.2695 277.338 33.0991C277.338 32.9882 277.306 32.8891 277.243 32.8019C277.183 32.7108 277.052 32.6097 276.85 32.4988C276.648 32.3839 276.331 32.2353 275.899 32.053C275.483 31.8786 275.14 31.7023 274.871 31.5239C274.605 31.3456 274.407 31.1356 274.277 30.8938C274.15 30.6482 274.086 30.3371 274.086 29.9606C274.086 29.3464 274.324 28.8847 274.8 28.5756C275.279 28.2625 275.919 28.106 276.72 28.106C277.132 28.106 277.524 28.1476 277.897 28.2308C278.273 28.3141 278.659 28.4468 279.056 28.6291L278.509 29.9368C278.18 29.7942 277.869 29.6773 277.576 29.5861C277.286 29.495 276.991 29.4494 276.69 29.4494C276.424 29.4494 276.224 29.4851 276.09 29.5564C275.955 29.6277 275.887 29.7367 275.887 29.8833C275.887 29.9903 275.921 30.0854 275.988 30.1687C276.06 30.2519 276.195 30.345 276.393 30.448C276.595 30.5471 276.89 30.6759 277.278 30.8344C277.655 30.989 277.982 31.1514 278.259 31.3218C278.537 31.4883 278.751 31.6963 278.901 31.946C279.052 32.1917 279.127 32.5107 279.127 32.903ZM282.063 31.9935H280.613L280.31 26.186H282.367L282.063 31.9935ZM280.286 34.0264C280.286 33.6539 280.387 33.3924 280.589 33.2418C280.795 33.0912 281.043 33.0159 281.332 33.0159C281.614 33.0159 281.855 33.0912 282.058 33.2418C282.264 33.3924 282.367 33.6539 282.367 34.0264C282.367 34.3831 282.264 34.6407 282.058 34.7992C281.855 34.9577 281.614 35.037 281.332 35.037C281.043 35.037 280.795 34.9577 280.589 34.7992C280.387 34.6407 280.286 34.3831 280.286 34.0264Z" fill="#768899"/>
<path d="M413.167 146.614C413.167 157.588 404.27 166.485 393.295 166.485C382.321 166.485 373.424 157.588 373.424 146.614C373.424 135.639 382.321 126.742 393.295 126.742C404.27 126.742 413.167 135.639 413.167 146.614Z" fill="#E6F2FD"/>
<rect x="424.088" y="123.064" width="168.91" height="50.673" rx="4.70959" fill="#E6F2FD"/>
<path d="M442.965 140.452H571.138M442.965 156.349H516.86" stroke="white" stroke-width="6.27946" stroke-linecap="round"/>
<path d="M231.083 298.026C231.083 309.001 239.98 317.898 250.955 317.898C261.929 317.898 270.826 309.001 270.826 298.026C270.826 287.052 261.929 278.155 250.955 278.155C239.98 278.155 231.083 287.052 231.083 298.026Z" fill="#DECAAF"/>
<rect width="141.09" height="50.673" rx="4.70959" transform="matrix(-1 0 0 1 220.15 275.174)" fill="#E6F2FD"/>
<rect width="186.795" height="53.6538" rx="4.70959" transform="matrix(-1 0 0 1 220.148 336.776)" fill="#E6F2FD"/>
<path d="M201.27 293.059H102.904M201.27 308.956H144.559" stroke="white" stroke-width="6.27946" stroke-linecap="round"/>
<path d="M201.27 355.655H60.18M201.27 371.553H93.962" stroke="white" stroke-width="6.27946" stroke-linecap="round"/>
<g filter="url(#filter0_d_0_23853)">
<rect x="22.6641" y="78.8853" width="336.039" height="166.615" rx="7.67707" fill="#238FFF"/>
</g>
<path d="M77.0806 111.276C78.2021 111.276 79.0204 111.518 79.5356 112.001C80.0507 112.481 80.3083 113.142 80.3083 113.986C80.3083 114.367 80.2509 114.731 80.1359 115.08C80.021 115.425 79.8328 115.732 79.5712 116.002C79.3137 116.271 78.9689 116.485 78.5369 116.643C78.105 116.798 77.572 116.875 76.938 116.875H76.1474V119.966H74.3047V111.276H77.0806ZM76.9855 112.786H76.1474V115.365H76.7537C77.0984 115.365 77.3976 115.32 77.6513 115.229C77.9049 115.138 78.101 114.995 78.2397 114.801C78.3784 114.607 78.4478 114.357 78.4478 114.052C78.4478 113.624 78.3289 113.307 78.0911 113.101C77.8534 112.891 77.4848 112.786 76.9855 112.786ZM85.5154 113.196C85.6066 113.196 85.7116 113.202 85.8305 113.214C85.9533 113.222 86.0524 113.234 86.1277 113.249L85.991 114.949C85.9315 114.93 85.8463 114.916 85.7354 114.908C85.6284 114.896 85.5353 114.89 85.456 114.89C85.2222 114.89 84.9943 114.92 84.7724 114.979C84.5545 115.039 84.3583 115.136 84.1839 115.27C84.0096 115.401 83.8709 115.576 83.7678 115.793C83.6688 116.007 83.6192 116.271 83.6192 116.584V119.966H81.8063V113.321H83.1794L83.4469 114.438H83.536C83.6668 114.212 83.8293 114.006 84.0234 113.82C84.2216 113.63 84.4455 113.479 84.6951 113.368C84.9488 113.253 85.2222 113.196 85.5154 113.196ZM93.3737 116.632C93.3737 117.186 93.2984 117.678 93.1478 118.106C93.0012 118.534 92.7852 118.896 92.4999 119.194C92.2185 119.487 91.8777 119.709 91.4775 119.859C91.0812 120.01 90.6334 120.085 90.1341 120.085C89.6665 120.085 89.2365 120.01 88.8442 119.859C88.4558 119.709 88.117 119.487 87.8277 119.194C87.5424 118.896 87.3205 118.534 87.162 118.106C87.0074 117.678 86.9302 117.186 86.9302 116.632C86.9302 115.895 87.0609 115.27 87.3225 114.759C87.584 114.248 87.9565 113.86 88.44 113.594C88.9235 113.329 89.5 113.196 90.1698 113.196C90.7919 113.196 91.3427 113.329 91.8222 113.594C92.3057 113.86 92.6842 114.248 92.9576 114.759C93.235 115.27 93.3737 115.895 93.3737 116.632ZM88.7788 116.632C88.7788 117.068 88.8264 117.434 88.9215 117.731C89.0166 118.028 89.1652 118.252 89.3673 118.403C89.5694 118.554 89.8329 118.629 90.1579 118.629C90.4789 118.629 90.7384 118.554 90.9366 118.403C91.1387 118.252 91.2853 118.028 91.3764 117.731C91.4715 117.434 91.5191 117.068 91.5191 116.632C91.5191 116.192 91.4715 115.827 91.3764 115.538C91.2853 115.245 91.1387 115.025 90.9366 114.878C90.7345 114.731 90.4709 114.658 90.146 114.658C89.6665 114.658 89.3178 114.823 89.0998 115.152C88.8858 115.48 88.7788 115.974 88.7788 116.632ZM96.6846 110.717V112.869C96.6846 113.119 96.6767 113.366 96.6608 113.612C96.6489 113.858 96.6331 114.048 96.6133 114.183H96.6846C96.859 113.909 97.0967 113.677 97.3979 113.487C97.6991 113.293 98.0894 113.196 98.5689 113.196C99.3139 113.196 99.9182 113.487 100.382 114.07C100.846 114.652 101.077 115.506 101.077 116.632C101.077 117.389 100.97 118.025 100.756 118.54C100.542 119.051 100.243 119.437 99.8588 119.699C99.4744 119.956 99.0286 120.085 98.5214 120.085C98.0339 120.085 97.6495 119.998 97.3682 119.824C97.0868 119.649 96.859 119.453 96.6846 119.235H96.5598L96.2566 119.966H94.8716V110.717H96.6846ZM97.9864 114.646C97.6694 114.646 97.4177 114.712 97.2315 114.842C97.0452 114.973 96.9085 115.169 96.8213 115.431C96.7381 115.692 96.6925 116.023 96.6846 116.424V116.62C96.6846 117.266 96.7797 117.761 96.9699 118.106C97.1601 118.447 97.5069 118.617 98.0102 118.617C98.3827 118.617 98.6779 118.445 98.8958 118.1C99.1178 117.755 99.2287 117.258 99.2287 116.608C99.2287 115.958 99.1178 115.469 98.8958 115.14C98.6739 114.811 98.3708 114.646 97.9864 114.646ZM104.388 119.966H102.575V110.717H104.388V119.966ZM109.037 113.196C109.651 113.196 110.18 113.315 110.624 113.553C111.068 113.786 111.41 114.127 111.652 114.575C111.894 115.023 112.015 115.57 112.015 116.216V117.095H107.729C107.749 117.606 107.901 118.009 108.187 118.302C108.476 118.591 108.876 118.736 109.387 118.736C109.811 118.736 110.2 118.692 110.552 118.605C110.905 118.518 111.268 118.387 111.64 118.213V119.616C111.311 119.778 110.967 119.897 110.606 119.972C110.249 120.048 109.815 120.085 109.304 120.085C108.638 120.085 108.048 119.962 107.533 119.717C107.022 119.471 106.619 119.096 106.326 118.593C106.037 118.09 105.892 117.456 105.892 116.691C105.892 115.914 106.023 115.268 106.284 114.753C106.55 114.234 106.919 113.846 107.39 113.588C107.862 113.327 108.411 113.196 109.037 113.196ZM109.049 114.486C108.696 114.486 108.403 114.599 108.169 114.825C107.939 115.05 107.806 115.405 107.771 115.889H110.315C110.311 115.619 110.261 115.379 110.166 115.169C110.075 114.959 109.936 114.793 109.75 114.67C109.568 114.547 109.334 114.486 109.049 114.486ZM121.294 113.196C122.047 113.196 122.615 113.39 123 113.778C123.388 114.163 123.582 114.781 123.582 115.633V119.966H121.763V116.085C121.763 115.609 121.682 115.251 121.519 115.009C121.357 114.767 121.105 114.646 120.765 114.646C120.285 114.646 119.944 114.819 119.742 115.163C119.54 115.504 119.439 115.994 119.439 116.632V119.966H117.626V116.085C117.626 115.768 117.59 115.502 117.519 115.288C117.448 115.074 117.339 114.914 117.192 114.807C117.045 114.7 116.857 114.646 116.627 114.646C116.291 114.646 116.025 114.731 115.831 114.902C115.641 115.068 115.504 115.316 115.421 115.645C115.341 115.97 115.302 116.368 115.302 116.84V119.966H113.489V113.321H114.874L115.118 114.171H115.219C115.353 113.941 115.522 113.755 115.724 113.612C115.93 113.469 116.156 113.364 116.402 113.297C116.647 113.23 116.897 113.196 117.15 113.196C117.638 113.196 118.05 113.275 118.387 113.434C118.728 113.592 118.989 113.838 119.172 114.171H119.332C119.53 113.83 119.81 113.582 120.17 113.428C120.535 113.273 120.909 113.196 121.294 113.196ZM128.754 119.966V111.276H130.596V119.966H128.754ZM134.745 120.085C134.004 120.085 133.4 119.796 132.932 119.217C132.469 118.635 132.237 117.781 132.237 116.655C132.237 115.518 132.473 114.658 132.944 114.076C133.416 113.489 134.032 113.196 134.793 113.196C135.11 113.196 135.389 113.239 135.631 113.327C135.873 113.414 136.081 113.531 136.255 113.677C136.433 113.824 136.584 113.988 136.707 114.171H136.766C136.743 114.044 136.713 113.858 136.677 113.612C136.646 113.362 136.63 113.107 136.63 112.845V110.717H138.449V119.966H137.058L136.707 119.104H136.63C136.515 119.287 136.37 119.453 136.196 119.604C136.025 119.75 135.821 119.867 135.583 119.954C135.346 120.042 135.066 120.085 134.745 120.085ZM135.381 118.641C135.877 118.641 136.225 118.494 136.428 118.201C136.634 117.904 136.743 117.458 136.754 116.863V116.667C136.754 116.021 136.655 115.528 136.457 115.187C136.259 114.842 135.891 114.67 135.352 114.67C134.951 114.67 134.638 114.842 134.412 115.187C134.187 115.532 134.074 116.029 134.074 116.679C134.074 117.329 134.187 117.818 134.412 118.147C134.642 118.476 134.965 118.641 135.381 118.641ZM143.085 113.196C143.699 113.196 144.228 113.315 144.672 113.553C145.116 113.786 145.459 114.127 145.701 114.575C145.942 115.023 146.063 115.57 146.063 116.216V117.095H141.777C141.797 117.606 141.95 118.009 142.235 118.302C142.524 118.591 142.925 118.736 143.436 118.736C143.86 118.736 144.248 118.692 144.601 118.605C144.954 118.518 145.316 118.387 145.689 118.213V119.616C145.36 119.778 145.015 119.897 144.654 119.972C144.298 120.048 143.864 120.085 143.353 120.085C142.687 120.085 142.096 119.962 141.581 119.717C141.07 119.471 140.668 119.096 140.375 118.593C140.085 118.09 139.941 117.456 139.941 116.691C139.941 115.914 140.071 115.268 140.333 114.753C140.598 114.234 140.967 113.846 141.439 113.588C141.91 113.327 142.459 113.196 143.085 113.196ZM143.097 114.486C142.744 114.486 142.451 114.599 142.217 114.825C141.987 115.05 141.855 115.405 141.819 115.889H144.363C144.359 115.619 144.31 115.379 144.214 115.169C144.123 114.959 143.985 114.793 143.798 114.67C143.616 114.547 143.382 114.486 143.097 114.486ZM151.312 113.196C152.021 113.196 152.592 113.39 153.024 113.778C153.456 114.163 153.672 114.781 153.672 115.633V119.966H151.859V116.085C151.859 115.609 151.772 115.251 151.597 115.009C151.427 114.767 151.157 114.646 150.789 114.646C150.234 114.646 149.856 114.834 149.653 115.211C149.451 115.587 149.35 116.13 149.35 116.84V119.966H147.537V113.321H148.922L149.166 114.171H149.267C149.41 113.941 149.586 113.755 149.796 113.612C150.01 113.469 150.246 113.364 150.503 113.297C150.765 113.23 151.034 113.196 151.312 113.196ZM158.338 118.641C158.536 118.641 158.728 118.621 158.914 118.581C159.105 118.542 159.293 118.492 159.479 118.433V119.782C159.285 119.869 159.043 119.941 158.754 119.996C158.469 120.055 158.156 120.085 157.815 120.085C157.419 120.085 157.062 120.022 156.745 119.895C156.432 119.764 156.184 119.54 156.002 119.223C155.823 118.902 155.734 118.456 155.734 117.886V114.682H154.866V113.915L155.865 113.309L156.388 111.906H157.547V113.321H159.408V114.682H157.547V117.886C157.547 118.139 157.619 118.33 157.761 118.456C157.908 118.579 158.1 118.641 158.338 118.641ZM162.641 113.321V119.966H160.829V113.321H162.641ZM161.738 110.717C162.007 110.717 162.239 110.781 162.433 110.907C162.628 111.03 162.725 111.262 162.725 111.603C162.725 111.94 162.628 112.173 162.433 112.304C162.239 112.431 162.007 112.494 161.738 112.494C161.465 112.494 161.231 112.431 161.037 112.304C160.846 112.173 160.751 111.94 160.751 111.603C160.751 111.262 160.846 111.03 161.037 110.907C161.231 110.781 161.465 110.717 161.738 110.717ZM168.223 114.682H166.654V119.966H164.841V114.682H163.842V113.808L164.841 113.321V112.833C164.841 112.267 164.936 111.827 165.126 111.514C165.32 111.197 165.592 110.975 165.941 110.848C166.293 110.717 166.709 110.652 167.189 110.652C167.541 110.652 167.862 110.681 168.152 110.741C168.441 110.796 168.677 110.86 168.859 110.931L168.395 112.263C168.257 112.219 168.106 112.179 167.944 112.144C167.781 112.108 167.595 112.09 167.385 112.09C167.131 112.09 166.945 112.168 166.826 112.322C166.711 112.473 166.654 112.667 166.654 112.905V113.321H168.223V114.682ZM171.076 113.321V119.966H169.263V113.321H171.076ZM170.173 110.717C170.442 110.717 170.674 110.781 170.868 110.907C171.062 111.03 171.16 111.262 171.16 111.603C171.16 111.94 171.062 112.173 170.868 112.304C170.674 112.431 170.442 112.494 170.173 112.494C169.899 112.494 169.666 112.431 169.471 112.304C169.281 112.173 169.186 111.94 169.186 111.603C169.186 111.262 169.281 111.03 169.471 110.907C169.666 110.781 169.899 110.717 170.173 110.717ZM175.677 120.085C175.019 120.085 174.459 119.966 173.995 119.729C173.531 119.487 173.179 119.114 172.937 118.611C172.695 118.108 172.574 117.464 172.574 116.679C172.574 115.867 172.711 115.205 172.984 114.694C173.262 114.179 173.644 113.8 174.132 113.558C174.623 113.317 175.192 113.196 175.838 113.196C176.297 113.196 176.694 113.241 177.026 113.333C177.363 113.42 177.657 113.525 177.906 113.648L177.371 115.05C177.086 114.936 176.82 114.842 176.575 114.771C176.329 114.696 176.083 114.658 175.838 114.658C175.521 114.658 175.257 114.733 175.047 114.884C174.837 115.031 174.68 115.253 174.577 115.55C174.474 115.847 174.423 116.219 174.423 116.667C174.423 117.107 174.478 117.472 174.589 117.761C174.7 118.05 174.861 118.266 175.071 118.409C175.281 118.548 175.536 118.617 175.838 118.617C176.214 118.617 176.549 118.567 176.842 118.468C177.135 118.365 177.421 118.223 177.698 118.04V119.592C177.421 119.766 177.129 119.891 176.824 119.966C176.523 120.046 176.141 120.085 175.677 120.085ZM181.966 113.184C182.858 113.184 183.541 113.378 184.017 113.767C184.492 114.155 184.73 114.745 184.73 115.538V119.966H183.464L183.113 119.063H183.066C182.876 119.301 182.681 119.495 182.483 119.645C182.285 119.796 182.057 119.907 181.8 119.978C181.542 120.05 181.229 120.085 180.86 120.085C180.468 120.085 180.115 120.01 179.802 119.859C179.493 119.709 179.25 119.479 179.071 119.17C178.893 118.857 178.804 118.46 178.804 117.981C178.804 117.276 179.051 116.756 179.547 116.424C180.042 116.087 180.785 115.9 181.776 115.865L182.929 115.829V115.538C182.929 115.189 182.838 114.934 182.656 114.771C182.473 114.609 182.22 114.527 181.895 114.527C181.574 114.527 181.259 114.573 180.95 114.664C180.641 114.755 180.331 114.87 180.022 115.009L179.422 113.784C179.775 113.598 180.169 113.451 180.605 113.344C181.045 113.237 181.498 113.184 181.966 113.184ZM182.929 116.887L182.228 116.911C181.641 116.927 181.233 117.032 181.003 117.226C180.777 117.42 180.664 117.676 180.664 117.993C180.664 118.27 180.746 118.468 180.908 118.587C181.071 118.702 181.283 118.76 181.544 118.76C181.932 118.76 182.259 118.645 182.525 118.415C182.794 118.185 182.929 117.858 182.929 117.434V116.887ZM189.402 118.641C189.6 118.641 189.793 118.621 189.979 118.581C190.169 118.542 190.357 118.492 190.544 118.433V119.782C190.349 119.869 190.108 119.941 189.818 119.996C189.533 120.055 189.22 120.085 188.879 120.085C188.483 120.085 188.126 120.022 187.809 119.895C187.496 119.764 187.249 119.54 187.066 119.223C186.888 118.902 186.799 118.456 186.799 117.886V114.682H185.931V113.915L186.93 113.309L187.453 111.906H188.612V113.321H190.472V114.682H188.612V117.886C188.612 118.139 188.683 118.33 188.826 118.456C188.972 118.579 189.165 118.641 189.402 118.641ZM193.706 113.321V119.966H191.893V113.321H193.706ZM192.802 110.717C193.072 110.717 193.304 110.781 193.498 110.907C193.692 111.03 193.789 111.262 193.789 111.603C193.789 111.94 193.692 112.173 193.498 112.304C193.304 112.431 193.072 112.494 192.802 112.494C192.529 112.494 192.295 112.431 192.101 112.304C191.911 112.173 191.816 111.94 191.816 111.603C191.816 111.262 191.911 111.03 192.101 110.907C192.295 110.781 192.529 110.717 192.802 110.717ZM201.653 116.632C201.653 117.186 201.578 117.678 201.427 118.106C201.281 118.534 201.065 118.896 200.78 119.194C200.498 119.487 200.157 119.709 199.757 119.859C199.361 120.01 198.913 120.085 198.414 120.085C197.946 120.085 197.516 120.01 197.124 119.859C196.735 119.709 196.397 119.487 196.107 119.194C195.822 118.896 195.6 118.534 195.442 118.106C195.287 117.678 195.21 117.186 195.21 116.632C195.21 115.895 195.341 115.27 195.602 114.759C195.864 114.248 196.236 113.86 196.72 113.594C197.203 113.329 197.78 113.196 198.449 113.196C199.072 113.196 199.622 113.329 200.102 113.594C200.585 113.86 200.964 114.248 201.237 114.759C201.515 115.27 201.653 115.895 201.653 116.632ZM197.058 116.632C197.058 117.068 197.106 117.434 197.201 117.731C197.296 118.028 197.445 118.252 197.647 118.403C197.849 118.554 198.113 118.629 198.437 118.629C198.758 118.629 199.018 118.554 199.216 118.403C199.418 118.252 199.565 118.028 199.656 117.731C199.751 117.434 199.799 117.068 199.799 116.632C199.799 116.192 199.751 115.827 199.656 115.538C199.565 115.245 199.418 115.025 199.216 114.878C199.014 114.731 198.751 114.658 198.426 114.658C197.946 114.658 197.597 114.823 197.379 115.152C197.165 115.48 197.058 115.974 197.058 116.632ZM206.926 113.196C207.635 113.196 208.206 113.39 208.638 113.778C209.07 114.163 209.286 114.781 209.286 115.633V119.966H207.473V116.085C207.473 115.609 207.386 115.251 207.211 115.009C207.041 114.767 206.771 114.646 206.403 114.646C205.848 114.646 205.469 114.834 205.267 115.211C205.065 115.587 204.964 116.13 204.964 116.84V119.966H203.151V113.321H204.536L204.78 114.171H204.881C205.024 113.941 205.2 113.755 205.41 113.612C205.624 113.469 205.86 113.364 206.117 113.297C206.379 113.23 206.648 113.196 206.926 113.196Z" fill="white"/>
<path d="M51.2207 121.52V120.641C51.2207 120.102 51.2959 119.626 51.4465 119.214C51.5971 118.794 51.8389 118.398 52.1717 118.025C52.5046 117.645 52.9445 117.256 53.4913 116.86C53.9827 116.511 54.375 116.198 54.6683 115.921C54.9695 115.643 55.1874 115.37 55.3222 115.101C55.4648 114.823 55.5361 114.51 55.5361 114.161C55.5361 113.646 55.3459 113.254 54.9655 112.984C54.5851 112.715 54.0541 112.58 53.3725 112.58C52.6909 112.58 52.0132 112.687 51.3395 112.901C50.6738 113.115 49.9961 113.397 49.3066 113.745L48.0108 111.142C48.8033 110.698 49.6633 110.341 50.5906 110.072C51.5179 109.794 52.5323 109.656 53.634 109.656C55.3301 109.656 56.6418 110.064 57.5691 110.88C58.5043 111.689 58.9719 112.719 58.9719 113.971C58.9719 114.637 58.8649 115.215 58.6509 115.707C58.4448 116.19 58.1278 116.642 57.6998 117.062C57.2798 117.474 56.7527 117.91 56.1187 118.37C55.6431 118.719 55.2786 119.012 55.0249 119.25C54.7713 119.487 54.597 119.725 54.5019 119.963C54.4147 120.193 54.3711 120.474 54.3711 120.807V121.52H51.2207ZM50.8402 125.586C50.8402 124.841 51.0423 124.318 51.4465 124.017C51.8587 123.716 52.354 123.565 52.9326 123.565C53.4953 123.565 53.9788 123.716 54.383 124.017C54.7951 124.318 55.0012 124.841 55.0012 125.586C55.0012 126.299 54.7951 126.815 54.383 127.132C53.9788 127.449 53.4953 127.607 52.9326 127.607C52.354 127.607 51.8587 127.449 51.4465 127.132C51.0423 126.815 50.8402 126.299 50.8402 125.586Z" fill="white"/>
<path d="M73.2109 139.728H269.78M73.2109 158.12H269.78M73.2109 177.17H195.882" stroke="white" stroke-width="3.74" stroke-linecap="round"/>
<g filter="url(#filter1_d_0_23853)">
<rect x="164.934" y="192.146" width="336.039" height="154.447" rx="7.67707" fill="white"/>
</g>
<path d="M260.294 228.281C261.083 228.281 261.732 228.376 262.244 228.567C262.759 228.757 263.141 229.044 263.391 229.428C263.641 229.813 263.765 230.298 263.765 230.885C263.765 231.281 263.69 231.628 263.539 231.925C263.389 232.222 263.191 232.474 262.945 232.68C262.699 232.886 262.434 233.054 262.149 233.185L264.705 236.972H262.66L260.585 233.637H259.604V236.972H257.762V228.281H260.294ZM260.163 229.791H259.604V232.139H260.199C260.809 232.139 261.245 232.038 261.507 231.836C261.772 231.63 261.905 231.329 261.905 230.932C261.905 230.52 261.762 230.227 261.477 230.053C261.195 229.878 260.758 229.791 260.163 229.791ZM271.695 233.637C271.695 234.192 271.62 234.683 271.469 235.111C271.322 235.539 271.106 235.902 270.821 236.199C270.54 236.492 270.199 236.714 269.799 236.865C269.402 237.015 268.955 237.091 268.455 237.091C267.988 237.091 267.558 237.015 267.165 236.865C266.777 236.714 266.438 236.492 266.149 236.199C265.864 235.902 265.642 235.539 265.483 235.111C265.329 234.683 265.251 234.192 265.251 233.637C265.251 232.9 265.382 232.276 265.644 231.765C265.905 231.253 266.278 230.865 266.761 230.599C267.245 230.334 267.821 230.201 268.491 230.201C269.113 230.201 269.664 230.334 270.143 230.599C270.627 230.865 271.005 231.253 271.279 231.765C271.556 232.276 271.695 232.9 271.695 233.637ZM267.1 233.637C267.1 234.073 267.148 234.439 267.243 234.737C267.338 235.034 267.486 235.258 267.689 235.408C267.891 235.559 268.154 235.634 268.479 235.634C268.8 235.634 269.06 235.559 269.258 235.408C269.46 235.258 269.607 235.034 269.698 234.737C269.793 234.439 269.84 234.073 269.84 233.637C269.84 233.197 269.793 232.833 269.698 232.543C269.607 232.25 269.46 232.03 269.258 231.883C269.056 231.737 268.792 231.664 268.467 231.664C267.988 231.664 267.639 231.828 267.421 232.157C267.207 232.486 267.1 232.979 267.1 233.637ZM275.006 236.972H273.193V227.722H275.006V236.972ZM279.654 230.201C280.268 230.201 280.797 230.32 281.241 230.558C281.685 230.792 282.028 231.132 282.27 231.58C282.511 232.028 282.632 232.575 282.632 233.221V234.101H278.346C278.366 234.612 278.519 235.014 278.804 235.307C279.093 235.597 279.494 235.741 280.005 235.741C280.429 235.741 280.817 235.698 281.17 235.61C281.523 235.523 281.885 235.393 282.258 235.218V236.621C281.929 236.783 281.584 236.902 281.223 236.978C280.867 237.053 280.433 237.091 279.922 237.091C279.256 237.091 278.665 236.968 278.15 236.722C277.639 236.476 277.237 236.102 276.944 235.599C276.654 235.095 276.51 234.461 276.51 233.696C276.51 232.92 276.64 232.274 276.902 231.759C277.168 231.239 277.536 230.851 278.008 230.594C278.479 230.332 279.028 230.201 279.654 230.201ZM279.666 231.491C279.313 231.491 279.02 231.604 278.786 231.83C278.557 232.056 278.424 232.41 278.388 232.894H280.932C280.928 232.624 280.879 232.385 280.784 232.175C280.692 231.965 280.554 231.798 280.368 231.675C280.185 231.553 279.951 231.491 279.666 231.491ZM289.944 228.281C290.732 228.281 291.382 228.376 291.893 228.567C292.408 228.757 292.791 229.044 293.041 229.428C293.29 229.813 293.415 230.298 293.415 230.885C293.415 231.281 293.34 231.628 293.189 231.925C293.039 232.222 292.84 232.474 292.595 232.68C292.349 232.886 292.084 233.054 291.798 233.185L294.354 236.972H292.309L290.235 233.637H289.254V236.972H287.411V228.281H289.944ZM289.813 229.791H289.254V232.139H289.849C290.459 232.139 290.895 232.038 291.156 231.836C291.422 231.63 291.555 231.329 291.555 230.932C291.555 230.52 291.412 230.227 291.127 230.053C290.845 229.878 290.407 229.791 289.813 229.791ZM298.046 230.201C298.66 230.201 299.189 230.32 299.633 230.558C300.077 230.792 300.419 231.132 300.661 231.58C300.903 232.028 301.024 232.575 301.024 233.221V234.101H296.738C296.758 234.612 296.91 235.014 297.196 235.307C297.485 235.597 297.885 235.741 298.396 235.741C298.82 235.741 299.209 235.698 299.561 235.61C299.914 235.523 300.277 235.393 300.649 235.218V236.621C300.32 236.783 299.975 236.902 299.615 236.978C299.258 237.053 298.824 237.091 298.313 237.091C297.647 237.091 297.057 236.968 296.542 236.722C296.03 236.476 295.628 236.102 295.335 235.599C295.046 235.095 294.901 234.461 294.901 233.696C294.901 232.92 295.032 232.274 295.293 231.759C295.559 231.239 295.927 230.851 296.399 230.594C296.871 230.332 297.419 230.201 298.046 230.201ZM298.057 231.491C297.705 231.491 297.412 231.604 297.178 231.83C296.948 232.056 296.815 232.41 296.779 232.894H299.324C299.32 232.624 299.27 232.385 299.175 232.175C299.084 231.965 298.945 231.798 298.759 231.675C298.577 231.553 298.343 231.491 298.057 231.491ZM306.486 239.896V237.108C306.486 236.942 306.492 236.776 306.504 236.609C306.52 236.439 306.54 236.272 306.564 236.11H306.486C306.316 236.383 306.08 236.615 305.779 236.805C305.482 236.995 305.089 237.091 304.602 237.091C303.853 237.091 303.247 236.801 302.783 236.223C302.323 235.64 302.094 234.786 302.094 233.661C302.094 232.904 302.201 232.27 302.415 231.759C302.629 231.243 302.926 230.855 303.306 230.594C303.691 230.332 304.134 230.201 304.638 230.201C305.125 230.201 305.519 230.296 305.821 230.487C306.126 230.673 306.373 230.903 306.564 231.176H306.611L306.772 230.326H308.305V239.896H306.486ZM305.25 235.67C305.583 235.67 305.846 235.605 306.041 235.474C306.239 235.343 306.381 235.147 306.469 234.885C306.556 234.62 306.603 234.289 306.611 233.893V233.673C306.611 233.027 306.512 232.533 306.314 232.193C306.116 231.848 305.751 231.675 305.22 231.675C304.788 231.675 304.467 231.848 304.257 232.193C304.047 232.537 303.942 233.035 303.942 233.685C303.942 234.346 304.049 234.844 304.263 235.177C304.477 235.505 304.806 235.67 305.25 235.67ZM316.3 230.326V236.972H314.909L314.666 236.122H314.57C314.428 236.348 314.249 236.532 314.035 236.674C313.821 236.817 313.586 236.922 313.328 236.99C313.071 237.057 312.803 237.091 312.526 237.091C312.05 237.091 311.636 237.007 311.283 236.841C310.931 236.671 310.655 236.407 310.457 236.05C310.263 235.694 310.166 235.23 310.166 234.659V230.326H311.979V234.208C311.979 234.683 312.064 235.042 312.234 235.284C312.405 235.525 312.676 235.646 313.049 235.646C313.417 235.646 313.707 235.563 313.917 235.396C314.127 235.226 314.273 234.978 314.356 234.653C314.444 234.325 314.487 233.924 314.487 233.453V230.326H316.3ZM320.015 230.326V236.972H318.202V230.326H320.015ZM319.112 227.722C319.381 227.722 319.613 227.786 319.807 227.913C320.001 228.036 320.099 228.267 320.099 228.608C320.099 228.945 320.001 229.179 319.807 229.31C319.613 229.436 319.381 229.5 319.112 229.5C318.838 229.5 318.605 229.436 318.41 229.31C318.22 229.179 318.125 228.945 318.125 228.608C318.125 228.267 318.22 228.036 318.41 227.913C318.605 227.786 318.838 227.722 319.112 227.722ZM325.633 230.201C325.724 230.201 325.829 230.207 325.948 230.219C326.071 230.227 326.17 230.239 326.245 230.255L326.108 231.955C326.049 231.935 325.964 231.921 325.853 231.913C325.746 231.901 325.652 231.895 325.573 231.895C325.339 231.895 325.112 231.925 324.89 231.984C324.672 232.044 324.475 232.141 324.301 232.276C324.127 232.407 323.988 232.581 323.885 232.799C323.786 233.013 323.736 233.276 323.736 233.589V236.972H321.923V230.326H323.297L323.564 231.444H323.653C323.784 231.218 323.946 231.012 324.141 230.825C324.339 230.635 324.563 230.485 324.812 230.374C325.066 230.259 325.339 230.201 325.633 230.201ZM330.192 230.201C330.806 230.201 331.335 230.32 331.779 230.558C332.223 230.792 332.566 231.132 332.807 231.58C333.049 232.028 333.17 232.575 333.17 233.221V234.101H328.884C328.904 234.612 329.056 235.014 329.342 235.307C329.631 235.597 330.031 235.741 330.543 235.741C330.967 235.741 331.355 235.698 331.708 235.61C332.06 235.523 332.423 235.393 332.795 235.218V236.621C332.466 236.783 332.122 236.902 331.761 236.978C331.404 237.053 330.971 237.091 330.459 237.091C329.794 237.091 329.203 236.968 328.688 236.722C328.177 236.476 327.775 236.102 327.481 235.599C327.192 235.095 327.047 234.461 327.047 233.696C327.047 232.92 327.178 232.274 327.44 231.759C327.705 231.239 328.074 230.851 328.545 230.594C329.017 230.332 329.566 230.201 330.192 230.201ZM330.204 231.491C329.851 231.491 329.558 231.604 329.324 231.83C329.094 232.056 328.961 232.41 328.926 232.894H331.47C331.466 232.624 331.416 232.385 331.321 232.175C331.23 231.965 331.091 231.798 330.905 231.675C330.723 231.553 330.489 231.491 330.204 231.491ZM336.748 237.091C336.007 237.091 335.403 236.801 334.935 236.223C334.472 235.64 334.24 234.786 334.24 233.661C334.24 232.523 334.476 231.664 334.947 231.081C335.419 230.494 336.035 230.201 336.796 230.201C337.113 230.201 337.392 230.245 337.634 230.332C337.876 230.419 338.084 230.536 338.258 230.683C338.436 230.829 338.587 230.994 338.71 231.176H338.769C338.746 231.049 338.716 230.863 338.68 230.617C338.648 230.368 338.633 230.112 338.633 229.851V227.722H340.452V236.972H339.061L338.71 236.11H338.633C338.518 236.292 338.373 236.458 338.199 236.609C338.028 236.756 337.824 236.873 337.586 236.96C337.349 237.047 337.069 237.091 336.748 237.091ZM337.384 235.646C337.88 235.646 338.228 235.499 338.431 235.206C338.637 234.909 338.746 234.463 338.757 233.869V233.673C338.757 233.027 338.658 232.533 338.46 232.193C338.262 231.848 337.894 231.675 337.355 231.675C336.954 231.675 336.641 231.848 336.415 232.193C336.19 232.537 336.077 233.035 336.077 233.685C336.077 234.334 336.19 234.824 336.415 235.153C336.645 235.482 336.968 235.646 337.384 235.646ZM342.092 236.122C342.092 235.749 342.193 235.488 342.395 235.337C342.601 235.186 342.849 235.111 343.138 235.111C343.42 235.111 343.661 235.186 343.864 235.337C344.07 235.488 344.173 235.749 344.173 236.122C344.173 236.478 344.07 236.736 343.864 236.894C343.661 237.053 343.42 237.132 343.138 237.132C342.849 237.132 342.601 237.053 342.395 236.894C342.193 236.736 342.092 236.478 342.092 236.122Z" fill="#333131"/>
<rect x="192.074" y="229.588" width="43.0573" height="40.2492" rx="6.49266" fill="#FFC164"/>
<path d="M223.037 258.605H204.161C203.687 258.605 203.303 258.228 203.303 257.763V242.599C203.303 242.134 203.687 241.756 204.161 241.756H223.037C223.511 241.756 223.895 242.134 223.895 242.599V257.763C223.895 258.228 223.511 258.605 223.037 258.605Z" stroke="black" stroke-width="1.62316" stroke-linecap="round" stroke-linejoin="round"/>
<path d="M207.988 253.925H219.221" stroke="black" stroke-width="1.62316" stroke-linecap="round" stroke-linejoin="round"/>
<path d="M207.988 250.181H219.221" stroke="black" stroke-width="1.62316" stroke-linecap="round" stroke-linejoin="round"/>
<path d="M207.988 246.437H219.221" stroke="black" stroke-width="1.62316" stroke-linecap="round" stroke-linejoin="round"/>
<path d="M256.668 256.733H453.237M256.668 275.126H453.237" stroke="#E9E9E9" stroke-width="9.73899" stroke-linecap="round"/>
<defs>
<filter id="filter0_d_0_23853" x="0.751347" y="68.3347" width="379.864" height="210.441" filterUnits="userSpaceOnUse" color-interpolation-filters="sRGB">
<feFlood flood-opacity="0" result="BackgroundImageFix"/>
<feColorMatrix in="SourceAlpha" type="matrix" values="0 0 0 0 0 0 0 0 0 0 0 0 0 0 0 0 0 0 127 0" result="hardAlpha"/>
<feOffset dy="11.3621"/>
<feGaussianBlur stdDeviation="10.9564"/>
<feComposite in2="hardAlpha" operator="out"/>
<feColorMatrix type="matrix" values="0 0 0 0 0.9125 0 0 0 0 0.9125 0 0 0 0 0.9125 0 0 0 1 0"/>
<feBlend mode="normal" in2="BackgroundImageFix" result="effect1_dropShadow_0_23853"/>
<feBlend mode="normal" in="SourceGraphic" in2="effect1_dropShadow_0_23853" result="shape"/>
</filter>
<filter id="filter1_d_0_23853" x="143.021" y="181.596" width="379.864" height="198.272" filterUnits="userSpaceOnUse" color-interpolation-filters="sRGB">
<feFlood flood-opacity="0" result="BackgroundImageFix"/>
<feColorMatrix in="SourceAlpha" type="matrix" values="0 0 0 0 0 0 0 0 0 0 0 0 0 0 0 0 0 0 127 0" result="hardAlpha"/>
<feOffset dy="11.3621"/>
<feGaussianBlur stdDeviation="10.9564"/>
<feComposite in2="hardAlpha" operator="out"/>
<feColorMatrix type="matrix" values="0 0 0 0 0.820833 0 0 0 0 0.820833 0 0 0 0 0.820833 0 0 0 1 0"/>
<feBlend mode="multiply" in2="BackgroundImageFix" result="effect1_dropShadow_0_23853"/>
<feBlend mode="normal" in="SourceGraphic" in2="effect1_dropShadow_0_23853" result="shape"/>
</filter>
</defs>
</svg>
