<svg width="47" height="63" viewBox="0 0 47 63" fill="none" xmlns="http://www.w3.org/2000/svg">
<path d="M11.8451 55.4565C9.59717 56.4557 7.40532 57.4217 5.22433 58.408C4.63839 58.6735 4.09042 58.7306 3.58586 58.2771C3.05237 57.7996 3.07769 57.2079 3.273 56.5682C4.72157 51.8341 6.1593 47.0962 7.60064 42.3603C7.98584 41.0919 8.37104 39.8218 8.77432 38.4908C8.41444 38.406 8.09254 38.3341 7.77244 38.2529C5.43411 37.6593 4.38158 36.085 4.74328 33.6626C4.89519 32.6413 5.09773 31.6274 5.30932 30.6171C5.52091 29.605 5.29486 28.7828 4.51179 28.0823C3.66544 27.3246 2.81908 26.5522 2.07761 25.6913C0.551275 23.9234 0.545849 22.1554 2.06857 20.3691C2.80461 19.5045 3.64916 18.7302 4.49733 17.9744C5.30571 17.2554 5.52634 16.4148 5.29847 15.3769C5.09231 14.4367 4.92231 13.4854 4.77221 12.5342C4.35084 9.84818 5.51368 8.17981 8.15041 7.71156C9.14867 7.53458 10.1578 7.40923 11.1669 7.30968C12.1417 7.21566 12.7782 6.73081 13.1851 5.8275C13.7006 4.68084 14.1997 3.51574 14.8399 2.44097C15.7513 0.90902 17.1077 0.319098 18.6268 0.711765C19.2742 0.879524 19.8963 1.17817 20.5004 1.48051C21.2472 1.85474 21.9688 2.28612 22.6922 2.70828C23.5078 3.18575 24.3126 3.18944 25.13 2.7175C25.8154 2.32115 26.4954 1.91004 27.2007 1.55056C27.783 1.25376 28.3798 0.966169 29.0001 0.778131C30.4432 0.34122 31.7345 0.700704 32.6152 1.94138C33.2681 2.86129 33.8413 3.88813 34.2175 4.95183C34.8324 6.69394 35.9572 7.45163 37.7277 7.45716C38.4855 7.459 39.2577 7.60464 40.0009 7.77977C42.4152 8.3531 43.4605 9.95511 43.0735 12.4531C42.918 13.4504 42.7245 14.4422 42.5237 15.4322C42.3248 16.4111 42.5129 17.2241 43.2815 17.9154C44.1441 18.6896 45.0031 19.4805 45.7591 20.358C47.2818 22.1259 47.2818 23.9252 45.7627 25.6821C45.0049 26.5577 44.1441 27.3486 43.2833 28.1247C42.5165 28.8142 42.3212 29.6272 42.5219 30.6061C42.7154 31.5499 42.9017 32.4975 43.0482 33.4488C43.4768 36.2398 42.3357 37.8547 39.6085 38.3543C39.4548 38.382 39.3029 38.4225 39.0678 38.4742C39.2794 39.1894 39.4801 39.8826 39.6899 40.5739C41.303 45.8814 42.9126 51.1888 44.5365 56.4926C44.7391 57.1507 44.8042 57.7628 44.2526 58.2697C43.6974 58.7804 43.1061 58.6366 42.4894 58.3564C40.35 57.3848 38.2033 56.4336 36.0006 55.4492C35.7312 55.8787 35.4635 56.2953 35.2031 56.7193C34.2012 58.3564 33.1921 59.9916 32.2047 61.6397C31.8466 62.237 31.4144 62.6425 30.6765 62.5301C29.9604 62.4213 29.6945 61.8848 29.5047 61.2617C27.7396 55.4492 25.9691 49.6384 24.2005 43.8277C24.1299 43.5973 24.0504 43.3705 23.9238 42.9907C23.7954 43.3447 23.714 43.5456 23.6507 43.7521C21.8874 49.5407 20.126 55.3293 18.3628 61.118C18.323 61.2488 18.2778 61.3797 18.238 61.5106C18.0626 62.0895 17.7063 62.4656 17.0968 62.5375C16.491 62.6093 16.057 62.3347 15.7423 61.8203C14.5885 59.927 13.4329 58.0338 12.2773 56.1423C12.1453 55.9322 12.0115 55.722 11.8451 55.4565ZM40.4458 12.0051C40.4838 10.8603 40.3518 10.6317 39.4837 10.4584C38.5777 10.2777 37.659 10.1468 36.7403 10.0712C34.5647 9.89059 32.9986 8.87481 32.1396 6.78612C31.8177 6.00263 31.4632 5.23204 31.0871 4.47436C30.4469 3.18206 30.1123 3.06777 28.8735 3.72221C28.0923 4.13331 27.3273 4.57576 26.5659 5.02188C24.7828 6.06531 23.0123 6.04872 21.2346 5.00529C20.4533 4.54626 19.6685 4.09276 18.8637 3.68165C17.7171 3.09358 17.3699 3.20787 16.7858 4.38219C16.2867 5.38505 15.8562 6.42295 15.3571 7.42766C14.6446 8.86191 13.4835 9.69517 11.9228 9.92746C10.8522 10.086 9.7744 10.1948 8.7056 10.3644C7.47766 10.5598 7.24256 10.8658 7.40713 12.1139C7.51745 12.9545 7.68744 13.7896 7.87914 14.6173C8.38189 16.7871 7.87733 18.6122 6.19185 20.0815C5.55889 20.6345 4.94582 21.2152 4.35627 21.8162C3.39417 22.7988 3.39236 23.2505 4.35446 24.2275C5.15199 25.0387 6.00739 25.7945 6.79768 26.613C7.8701 27.7228 8.24806 29.0778 7.99126 30.6061C7.81584 31.6477 7.59521 32.68 7.42522 33.7234C7.19373 35.1448 7.45234 35.4987 8.83219 35.7089C9.30058 35.7808 9.77259 35.8619 10.2428 35.8711C13.1327 35.932 15.1292 37.2445 16.0678 40.1001C16.2306 40.5979 16.4856 41.0661 16.7207 41.5362C17.3952 42.8838 17.7099 42.9871 19.0427 42.2792C19.8421 41.8533 20.6233 41.3943 21.4118 40.95C23.0901 40.0043 24.7665 40.0135 26.4411 40.9629C27.2097 41.398 27.9729 41.8422 28.7523 42.257C30.143 42.9981 30.4378 42.9004 31.1485 41.4459C31.6007 40.5205 32.0003 39.5692 32.4561 38.6474C33.165 37.2132 34.3115 36.3652 35.874 36.1255C37.1002 35.9375 38.3299 35.7771 39.5524 35.5817C40.2089 35.4766 40.5616 35.0784 40.4531 34.376C40.3029 33.4008 40.1727 32.4201 39.9521 31.4615C39.4421 29.2603 39.9575 27.4223 41.6629 25.9402C42.2977 25.3889 42.9107 24.8082 43.4967 24.2036C44.4262 23.245 44.428 22.7951 43.4967 21.8402C42.7172 21.042 41.8799 20.3027 41.0969 19.5082C39.9774 18.3707 39.5705 16.9881 39.84 15.4027C40.048 14.1804 40.274 12.9619 40.4458 12.0051Z" fill="#238FFF"/>
<path d="M24.2822 38.0355C16.3738 38.1756 9.59209 32.081 9.19604 23.6064C8.81265 15.4065 15.2182 8.36614 23.34 8.01403C31.4364 7.66376 38.2833 14.1511 38.6395 22.5095C38.9904 30.7463 32.5721 37.6871 24.2822 38.0355ZM20.4266 26.9634C19.7719 26.2223 19.1624 25.52 18.5385 24.8323C17.911 24.141 17.0936 24.0654 16.5131 24.624C15.938 25.1771 15.9488 25.944 16.5601 26.6464C17.4589 27.6769 18.3649 28.7019 19.2746 29.7213C20.0956 30.6412 20.8642 30.6339 21.6617 29.6808C22.9059 28.1949 24.1357 26.6961 25.3709 25.2029C27.333 22.8303 29.297 20.4595 31.2556 18.0851C31.8867 17.3201 31.8922 16.555 31.2918 16.0038C30.6895 15.4507 29.854 15.5687 29.2265 16.3227C27.6803 18.181 26.1449 20.0484 24.6041 21.9104C23.2297 23.5788 21.8498 25.2434 20.4266 26.9634Z" fill="#238FFF"/>
</svg>
