<svg width="21" height="22" viewBox="0 0 21 22" fill="none" xmlns="http://www.w3.org/2000/svg">
<path d="M10.1496 21.2484C7.31288 21.2484 4.47616 21.2484 1.64005 21.2484C1.62233 21.2394 1.60583 21.2266 1.5875 21.2227C0.683072 21.0341 0.157527 20.3643 0.157527 19.3898C0.156305 13.6314 0.155694 7.873 0.156916 2.11457C0.156916 1.01305 0.872513 0.263741 1.92421 0.263741C5.74297 0.262458 9.56172 0.262458 13.3805 0.265666C13.554 0.265666 13.7343 0.282987 13.9005 0.331744C14.6815 0.560772 15.1429 1.21963 15.1453 2.09661C15.1478 3.16926 15.1459 4.24126 15.1459 5.31391C15.1459 5.37357 15.1411 5.43259 15.138 5.50958C14.6002 5.50958 14.0747 5.5115 13.5491 5.50894C13.0548 5.50701 12.5738 5.58977 12.1289 5.81623C10.8291 6.47958 10.1569 7.57981 10.1533 9.09576C10.1435 13.1471 10.1496 17.1977 10.1496 21.2484ZM6.81178 19.4944C7.09716 19.4944 7.38316 19.5034 7.66854 19.4925C8.13786 19.4752 8.47763 19.1056 8.47824 18.6277C8.47886 18.1491 8.14031 17.7712 7.6722 17.7603C7.10755 17.7475 6.54228 17.7475 5.97763 17.7591C5.50219 17.7687 5.14959 18.1555 5.15387 18.6341C5.15815 19.1056 5.50647 19.4765 5.97396 19.4931C6.25323 19.5028 6.53312 19.4944 6.81178 19.4944Z" fill="#58C9E1"/>
<path d="M18.6599 21.248C16.8645 21.248 15.0684 21.248 13.273 21.248C13.2565 21.2383 13.2413 21.2229 13.2235 21.2191C12.3558 21.0337 11.8235 20.3825 11.8217 19.4478C11.815 15.9854 11.8143 12.5231 11.8217 9.06071C11.8241 8.0041 12.5257 7.27018 13.5315 7.26313C15.1638 7.25222 16.7966 7.25992 18.4289 7.26056C18.8389 7.26056 19.2056 7.3863 19.5289 7.66024C19.876 7.95406 20.0416 8.34989 20.143 8.78741C20.143 12.4217 20.143 16.056 20.143 19.6903C20.0293 19.9752 19.9505 20.2831 19.7953 20.5397C19.538 20.965 19.1176 21.1517 18.6599 21.248ZM15.9741 19.4934C16.4355 19.4959 16.8064 19.1129 16.8113 18.6305C16.8156 18.1513 16.4446 17.7587 15.9851 17.7561C15.5262 17.7535 15.1509 18.1397 15.1479 18.6196C15.1448 19.0995 15.5152 19.4914 15.9741 19.4934Z" fill="#58C9E1"/>
</svg>
