<svg width="53" height="53" viewBox="0 0 53 53" fill="none" xmlns="http://www.w3.org/2000/svg">
<path d="M12.7304 52.5258C8.93433 52.5258 5.13831 52.5258 1.34229 52.5258C0.516435 52.5258 0.342567 52.3235 0.487454 51.5141C1.63206 45.6608 6.70308 41.4695 12.6869 41.4117C18.5548 41.3539 23.7127 45.5163 24.9298 51.3118C24.9588 51.413 24.9588 51.5286 24.9733 51.6298C25.0892 52.309 24.9153 52.5114 24.2054 52.5114C23.5244 52.5114 22.8289 52.5114 22.148 52.5114C19.0184 52.5258 15.8744 52.5258 12.7304 52.5258Z" fill="#238FFF"/>
<path d="M40.0105 52.5259C36.2144 52.5259 32.4184 52.5259 28.6224 52.5259C27.7965 52.5259 27.6372 52.338 27.782 51.5142C28.6224 46.6003 32.911 42.3801 37.8661 41.5997C44.6758 40.5302 50.819 44.7214 52.2389 51.4275C52.4272 52.338 52.2823 52.5259 51.3406 52.5259C47.559 52.5259 43.792 52.5259 40.0105 52.5259Z" fill="#238FFF"/>
<path d="M19.4971 38.4344C21.2212 35.4283 21.1923 32.4799 19.4102 29.5605C23.0033 26.8145 29.1175 26.4821 33.3627 29.5316C31.5661 32.451 31.5227 35.4138 33.2613 38.4344C28.6539 38.4344 24.1045 38.4344 19.4971 38.4344Z" fill="#238FFF"/>
<path d="M40.0119 40.3423C36.5202 40.3278 33.7238 37.524 33.7383 34.0409C33.7528 30.5723 36.5926 27.754 40.0699 27.7829C43.5327 27.8118 46.3579 30.6735 46.329 34.1277C46.3 37.5529 43.4602 40.3423 40.0119 40.3423Z" fill="#238FFF"/>
<path d="M12.7139 40.3423C9.23664 40.3278 6.41135 37.5096 6.42584 34.0409C6.44033 30.5868 9.30908 27.754 12.7719 27.7829C16.2202 27.8118 19.0165 30.6157 19.0165 34.0698C19.0165 37.5385 16.2057 40.3423 12.7139 40.3423Z" fill="#238FFF"/>
<path d="M26.3886 26.2657C22.9258 26.2802 20.1005 23.4763 20.086 20.0366C20.0715 16.5391 22.9113 13.6919 26.3886 13.6919C29.8368 13.7063 32.6621 16.5246 32.6766 19.9499C32.6766 23.4474 29.8803 26.2657 26.3886 26.2657Z" fill="#238FFF"/>
<path d="M16.151 26.7859C13.8618 25.8176 11.645 25.7886 9.3558 26.7714C9.34131 26.5402 9.32682 26.3523 9.32682 26.1789C9.32682 23.9676 9.32682 21.7419 9.32682 19.5306C9.32682 18.6779 9.32682 18.6779 8.44302 18.6779C8.2112 18.6779 7.97938 18.6924 7.73307 18.6779C7.24046 18.6635 7.12455 18.4322 7.39983 18.0276C7.83449 17.4061 8.26916 16.7846 8.7183 16.1776C9.90637 14.5156 11.08 12.8535 12.268 11.1915C12.6737 10.6278 12.7896 10.6278 13.1953 11.2059C14.789 13.4316 16.3828 15.6718 17.9621 17.9119C18.078 18.0709 18.1069 18.2877 18.1794 18.4901C17.9765 18.5623 17.7592 18.6779 17.5564 18.6779C16.151 18.7068 16.151 18.6924 16.151 20.0943C16.151 22.1177 16.151 24.1266 16.151 26.15C16.151 26.3234 16.151 26.5257 16.151 26.7859Z" fill="#238FFF"/>
<path d="M36.6054 26.8001C36.6054 26.5255 36.6054 26.3232 36.6054 26.1353C36.6054 23.8662 36.5909 21.5972 36.6198 19.3137C36.6198 18.8223 36.4605 18.6199 35.9534 18.6633C35.6346 18.6922 35.3014 18.6777 34.9826 18.6633C34.548 18.6344 34.4321 18.432 34.6639 18.0707C34.8957 17.7239 35.142 17.3915 35.3883 17.059C36.7792 15.1079 38.1701 13.1568 39.561 11.1913C39.9667 10.6132 40.0826 10.6132 40.4883 11.1768C42.0821 13.4025 43.6758 15.6427 45.2551 17.8828C45.371 18.0563 45.3855 18.302 45.4579 18.5043C45.2551 18.5621 45.0667 18.6488 44.8639 18.6488C43.2556 18.6777 43.444 18.4465 43.444 20.1085C43.444 22.103 43.444 24.1119 43.444 26.1064C43.444 26.2943 43.444 26.4966 43.444 26.7568C41.1548 25.8173 38.9235 25.7884 36.6054 26.8001Z" fill="#238FFF"/>
<path d="M29.7836 12.7232C27.4799 11.7404 25.2776 11.7404 22.9739 12.7232C22.9739 12.0439 22.9739 11.4225 22.9739 10.801C22.9739 10.2952 22.9594 9.78933 22.9739 9.28349C22.9884 8.87881 22.829 8.67648 22.3944 8.70538C22.0901 8.71983 21.7714 8.73429 21.4671 8.70538C21.2932 8.69093 21.0325 8.64757 20.96 8.53195C20.9021 8.41633 20.989 8.15618 21.0904 8.01165C21.4961 7.40464 21.9452 6.79763 22.3654 6.20507C23.5535 4.54302 24.727 2.88096 25.9151 1.2189C26.3063 0.669703 26.4367 0.669698 26.8134 1.20445C28.4217 3.44461 30.0154 5.69922 31.6092 7.95384C31.7251 8.11282 31.7396 8.32961 31.7975 8.53195C31.6092 8.58976 31.4063 8.70538 31.218 8.70538C29.5952 8.74874 29.7836 8.45968 29.7691 10.2085C29.7836 11.0178 29.7836 11.8127 29.7836 12.7232Z" fill="#238FFF"/>
</svg>
