<svg width="123" height="123" viewBox="0 0 123 123" fill="none" xmlns="http://www.w3.org/2000/svg">
<circle cx="61.5713" cy="61.5315" r="54.6767" fill="white" stroke="#238FFF" stroke-width="12.7816"/>
<path d="M59.9108 77.1922C58.3202 77.1922 56.7012 76.9792 55.0538 76.5531C53.4064 76.0986 51.972 75.4312 50.7506 74.5507C50.2962 74.2666 49.9838 73.9258 49.8133 73.5281C49.6713 73.1021 49.6429 72.7186 49.7281 72.3778C49.8133 72.0085 49.9838 71.6961 50.2394 71.4405C50.5234 71.1848 50.8643 71.0428 51.2619 71.0144C51.6596 70.9576 52.0998 71.0712 52.5827 71.3553C53.804 72.0938 54.997 72.6334 56.1615 72.9743C57.326 73.2867 58.5332 73.4429 59.7829 73.4429C61.1463 73.4429 62.2966 73.2441 63.234 72.8464C64.1713 72.4488 64.8672 71.8665 65.3216 71.0996C65.8045 70.3327 66.0459 69.4096 66.0459 68.3303C66.0459 66.7113 65.5062 65.5042 64.4269 64.7089C63.376 63.8852 61.8422 63.4733 59.8255 63.4733H56.9284C56.2751 63.4733 55.7781 63.3171 55.4372 63.0047C55.0964 62.6638 54.926 62.1952 54.926 61.5987C54.926 61.0306 55.0964 60.5904 55.4372 60.2779C55.7781 59.9371 56.2751 59.7667 56.9284 59.7667H59.3995C60.6208 59.7667 61.6576 59.5678 62.5097 59.1702C63.3618 58.7441 64.0151 58.1619 64.4695 57.4234C64.9524 56.6565 65.1938 55.7334 65.1938 54.654C65.1938 53.2055 64.7109 52.0977 63.7452 51.3308C62.8079 50.5355 61.4303 50.1379 59.6125 50.1379C58.448 50.1379 57.3402 50.2941 56.2893 50.6065C55.2668 50.919 54.2017 51.4728 53.0939 52.2681C52.6679 52.5522 52.256 52.68 51.8584 52.6516C51.4891 52.5948 51.1625 52.4528 50.8785 52.2255C50.6228 51.9699 50.4382 51.6575 50.3246 51.2882C50.2394 50.919 50.2678 50.5355 50.4098 50.1379C50.5518 49.7402 50.8359 49.3994 51.2619 49.1154C52.4549 48.2349 53.804 47.5674 55.3094 47.1129C56.8148 46.6301 58.3628 46.3886 59.9534 46.3886C61.9416 46.3886 63.6458 46.7011 65.066 47.3259C66.5146 47.9508 67.6081 48.8455 68.3466 50.0101C69.1135 51.1746 69.4969 52.5664 69.4969 54.1854C69.4969 55.4067 69.2697 56.5145 68.8152 57.5086C68.3608 58.5027 67.7075 59.3548 66.8554 60.0649C66.0317 60.7466 65.0234 61.2294 63.8304 61.5135V61.0448C65.9039 61.3857 67.5087 62.2378 68.6448 63.6011C69.781 64.9361 70.349 66.6119 70.349 68.6285C70.349 70.3895 69.923 71.9233 69.0709 73.2299C68.2472 74.5081 67.0542 75.488 65.492 76.1697C63.9298 76.8513 62.0694 77.1922 59.9108 77.1922Z" fill="#292930"/>
</svg>
