<svg width="469" height="427" viewBox="0 0 469 427" fill="none" xmlns="http://www.w3.org/2000/svg">
<rect x="58.8203" y="183.496" width="355.043" height="112.194" rx="14.2017" fill="#D8EBFF"/>
<path d="M101.427 210.48C97.7756 210.48 94.2061 211.562 91.17 213.591C88.1339 215.62 85.7676 218.503 84.3702 221.877C82.9728 225.25 82.6072 228.962 83.3196 232.544C84.032 236.125 85.7903 239.415 88.3723 241.997C90.9543 244.579 94.244 246.337 97.8253 247.049C101.407 247.762 105.119 247.396 108.492 245.999C111.866 244.601 114.749 242.235 116.778 239.199C118.807 236.163 119.889 232.593 119.889 228.942C119.88 224.048 117.932 219.358 114.472 215.898C111.011 212.437 106.321 210.489 101.427 210.48ZM110.214 225.711L99.8116 235.652C99.5427 235.905 99.1868 236.045 98.8175 236.043C98.6371 236.045 98.4579 236.012 98.2903 235.945C98.1227 235.878 97.9701 235.779 97.8412 235.652L92.6398 230.682C92.4955 230.556 92.3782 230.402 92.2948 230.23C92.2115 230.057 92.1639 229.87 92.1548 229.679C92.1458 229.487 92.1755 229.296 92.2422 229.117C92.3089 228.937 92.4112 228.773 92.5429 228.634C92.6747 228.495 92.8331 228.385 93.0088 228.308C93.1845 228.232 93.3737 228.192 93.5652 228.191C93.7566 228.19 93.9463 228.228 94.1229 228.302C94.2994 228.376 94.4592 228.485 94.5925 228.622L98.8175 232.652L108.262 223.652C108.538 223.411 108.896 223.286 109.262 223.303C109.628 223.321 109.974 223.479 110.226 223.745C110.478 224.011 110.618 224.364 110.615 224.73C110.613 225.097 110.47 225.448 110.214 225.711Z" fill="#3FCD78"/>
<rect x="135.508" y="211.9" width="235.749" height="18.4622" rx="9.23112" fill="white"/>
<rect x="135.508" y="241.724" width="153.379" height="18.4622" rx="9.23112" fill="#238FFF"/>
<g filter="url(#filter0_d_2463_5808)">
<rect x="57.4023" y="52.8405" width="355.043" height="112.194" rx="14.2017" fill="white"/>
</g>
<path d="M100.009 79.8238C96.3576 79.8238 92.7882 80.9066 89.7521 82.9352C86.716 84.9639 84.3496 87.8473 82.9522 91.2208C81.5549 94.5944 81.1893 98.3065 81.9016 101.888C82.614 105.469 84.3724 108.759 86.9543 111.341C89.5363 113.923 92.826 115.681 96.4073 116.394C99.9886 117.106 103.701 116.74 107.074 115.343C110.448 113.946 113.331 111.579 115.36 108.543C117.389 105.507 118.471 101.938 118.471 98.286C118.462 93.3924 116.514 88.7019 113.054 85.2416C109.593 81.7813 104.903 79.8332 100.009 79.8238ZM108.796 95.0551L98.3937 104.996C98.1247 105.249 97.7688 105.389 97.3996 105.387C97.2191 105.389 97.0399 105.356 96.8723 105.289C96.7047 105.222 96.5521 105.123 96.4232 104.996L91.2218 100.026C91.0775 99.8999 90.9602 99.7461 90.8769 99.5738C90.7935 99.4014 90.7459 99.214 90.7369 99.0227C90.7278 98.8315 90.7575 98.6404 90.8242 98.4609C90.8909 98.2815 90.9932 98.1173 91.1249 97.9784C91.2567 97.8395 91.4152 97.7286 91.5908 97.6525C91.7665 97.5764 91.9558 97.5366 92.1472 97.5355C92.3387 97.5343 92.5284 97.572 92.7049 97.646C92.8815 97.7201 93.0412 97.8291 93.1745 97.9665L97.3996 101.996L106.844 92.9959C107.12 92.755 107.478 92.6301 107.844 92.6474C108.211 92.6648 108.556 92.8229 108.808 93.0888C109.06 93.3547 109.2 93.7078 109.197 94.0743C109.195 94.4407 109.052 94.7922 108.796 95.0551Z" fill="#3FCD78"/>
<rect x="134.09" y="81.244" width="235.749" height="18.4622" rx="9.23112" fill="#F1F1F1"/>
<rect x="134.09" y="111.068" width="153.379" height="18.4622" rx="9.23112" fill="#CDE6FF"/>
<rect x="110.659" y="314.862" width="353.623" height="110.773" rx="20.5925" stroke="#238FFF" stroke-width="1.42017" stroke-dasharray="5.68 5.68"/>
<path d="M152.556 341.136C148.905 341.136 145.335 342.218 142.299 344.247C139.263 346.276 136.896 349.159 135.499 352.533C134.102 355.906 133.736 359.618 134.449 363.2C135.161 366.781 136.919 370.071 139.501 372.653C142.083 375.235 145.373 376.993 148.954 377.705C152.536 378.418 156.248 378.052 159.621 376.655C162.995 375.257 165.878 372.891 167.907 369.855C169.935 366.819 171.018 363.249 171.018 359.598C171.009 354.704 169.061 350.014 165.6 346.553C162.14 343.093 157.45 341.145 152.556 341.136ZM161.343 356.367L150.941 366.308C150.672 366.561 150.316 366.701 149.946 366.699C149.766 366.701 149.587 366.668 149.419 366.601C149.252 366.534 149.099 366.435 148.97 366.308L143.769 361.338C143.624 361.212 143.507 361.058 143.424 360.886C143.34 360.713 143.293 360.526 143.284 360.335C143.275 360.143 143.304 359.952 143.371 359.773C143.438 359.593 143.54 359.429 143.672 359.29C143.804 359.151 143.962 359.04 144.138 358.964C144.313 358.888 144.503 358.848 144.694 358.847C144.886 358.846 145.075 358.884 145.252 358.958C145.428 359.032 145.588 359.141 145.721 359.278L149.946 363.308L159.391 354.308C159.667 354.067 160.025 353.942 160.391 353.959C160.757 353.977 161.103 354.135 161.355 354.401C161.607 354.667 161.747 355.02 161.744 355.386C161.742 355.753 161.599 356.104 161.343 356.367Z" fill="#2C2C2C"/>
<rect x="186.641" y="342.556" width="235.749" height="18.4622" rx="9.23112" fill="#238FFF"/>
<rect x="186.641" y="372.379" width="153.379" height="18.4622" rx="9.23112" fill="#D8EBFF"/>
<defs>
<filter id="filter0_d_2463_5808" x="0.902344" y="0.340515" width="468.043" height="225.194" filterUnits="userSpaceOnUse" color-interpolation-filters="sRGB">
<feFlood flood-opacity="0" result="BackgroundImageFix"/>
<feColorMatrix in="SourceAlpha" type="matrix" values="0 0 0 0 0 0 0 0 0 0 0 0 0 0 0 0 0 0 127 0" result="hardAlpha"/>
<feOffset dy="4"/>
<feGaussianBlur stdDeviation="28.25"/>
<feComposite in2="hardAlpha" operator="out"/>
<feColorMatrix type="matrix" values="0 0 0 0 0 0 0 0 0 0 0 0 0 0 0 0 0 0 0.15 0"/>
<feBlend mode="normal" in2="BackgroundImageFix" result="effect1_dropShadow_2463_5808"/>
<feBlend mode="normal" in="SourceGraphic" in2="effect1_dropShadow_2463_5808" result="shape"/>
</filter>
</defs>
</svg>
