<svg width="505" height="450" viewBox="0 0 505 450" fill="none" xmlns="http://www.w3.org/2000/svg">
<g filter="url(#filter0_i_2463_5777)">
<rect width="227.772" height="118.518" rx="19.4452" transform="matrix(0.99993 0.0117992 -0.013219 0.999913 42.207 77.9757)" fill="url(#paint0_linear_2463_5777)" fill-opacity="0.93"/>
</g>
<path d="M77.326 97.3106L75.7681 192.488M164.554 98.6638L162.996 193.841M121.611 97.9976L120.053 193.175M208.391 99.3439L206.834 194.521M98.7972 97.6437L97.2393 192.821M186.473 99.0038L184.915 194.181M143.082 98.3307L141.524 193.508M230.31 99.6839L228.752 194.861M57.9323 175.353L250.728 178.344M58.5985 134.645L251.394 137.636M58.2602 155.286L251.056 158.276M58.936 114.004L251.731 116.995" stroke="url(#paint1_linear_2463_5777)" stroke-width="0.516404"/>
<path d="M61.3402 102.491L60.7822 106.539L59.2437 106.506L60.4922 98.9399L63.4102 103.672L66.543 99.0707L67.4423 106.683L65.9037 106.65L65.5325 102.582L63.3584 105.923L61.3402 102.491ZM69.7191 105.255C69.7159 105.393 69.7476 105.514 69.814 105.619C69.8807 105.716 69.9718 105.794 70.0876 105.852C70.2104 105.903 70.3441 105.93 70.4886 105.933C70.6952 105.937 70.882 105.9 71.0491 105.821C71.2163 105.735 71.3534 105.614 71.4603 105.458C71.5674 105.295 71.6235 105.1 71.6288 104.873L71.7797 105.496C71.7727 105.799 71.6808 106.052 71.504 106.254C71.334 106.457 71.1136 106.607 70.8428 106.705C70.5788 106.803 70.3023 106.848 70.0132 106.842C69.7172 106.836 69.4432 106.771 69.1911 106.649C68.9391 106.526 68.7365 106.353 68.5833 106.129C68.437 105.899 68.3676 105.622 68.3751 105.298C68.3857 104.837 68.5559 104.476 68.8856 104.214C69.2153 103.953 69.6762 103.828 70.2682 103.841C70.571 103.848 70.8354 103.885 71.0611 103.951C71.2937 104.018 71.4882 104.098 71.6444 104.191C71.8007 104.284 71.9123 104.373 71.9792 104.457L71.965 105.076C71.7823 104.935 71.5747 104.827 71.3422 104.753C71.1167 104.679 70.8765 104.64 70.6218 104.634C70.4153 104.63 70.246 104.653 70.114 104.706C69.9821 104.751 69.884 104.821 69.8199 104.916C69.7558 105.004 69.7223 105.117 69.7191 105.255ZM69.2472 103.313L68.7725 102.394C69.0233 102.268 69.3291 102.151 69.6897 102.042C70.0505 101.925 70.4512 101.872 70.8918 101.882C71.2979 101.89 71.658 101.957 71.9719 102.081C72.2859 102.204 72.5297 102.382 72.7035 102.613C72.8774 102.837 72.9606 103.111 72.9532 103.434L72.8757 106.801L71.585 106.773L71.6561 103.685C71.6591 103.555 71.641 103.444 71.6017 103.354C71.5626 103.256 71.4991 103.176 71.411 103.112C71.3298 103.048 71.231 103.001 71.1146 102.971C70.9983 102.941 70.8678 102.924 70.7232 102.921C70.5029 102.917 70.2924 102.936 70.0917 102.98C69.891 103.024 69.7175 103.079 69.5714 103.144C69.4252 103.21 69.3172 103.266 69.2472 103.313ZM75.7986 102.112L75.6893 106.861L74.378 106.833L74.4873 102.083L75.7986 102.112ZM77.1605 103.536C77.0729 103.451 76.9814 103.387 76.886 103.344C76.7976 103.294 76.6846 103.267 76.5469 103.264C76.3817 103.261 76.2395 103.302 76.1205 103.389C76.0014 103.476 75.909 103.602 75.8432 103.766C75.7845 103.923 75.7525 104.115 75.7473 104.342L75.3841 103.962C75.3928 103.584 75.4728 103.251 75.624 102.965C75.7754 102.672 75.9701 102.443 76.2081 102.275C76.4462 102.102 76.6892 102.017 76.9371 102.023C77.1091 102.026 77.2702 102.061 77.4202 102.126C77.5771 102.191 77.7023 102.287 77.7959 102.413L77.1605 103.536ZM78.8138 98.8711L80.1045 98.899L79.9192 106.953L78.6285 106.925L78.8138 98.8711ZM81.7735 102.241L83.374 102.275L81.2844 104.193L83.4713 107.03L81.8811 106.995L79.6839 104.158L81.7735 102.241ZM86.5204 107.199C86.0041 107.188 85.5556 107.075 85.1749 106.86C84.7942 106.645 84.5013 106.353 84.2963 105.983C84.0983 105.607 84.0051 105.168 84.0167 104.665C84.0284 104.156 84.1417 103.721 84.3566 103.361C84.5786 102.994 84.8846 102.714 85.2747 102.523C85.6649 102.325 86.1216 102.232 86.6448 102.243C87.168 102.254 87.6097 102.36 87.9701 102.561C88.3376 102.755 88.6135 103.036 88.7978 103.405C88.9824 103.767 89.0688 104.203 89.057 104.712C89.0556 104.774 89.0507 104.84 89.0422 104.908C89.0406 104.977 89.0359 105.032 89.0281 105.073L84.7739 104.981L84.7929 104.155L87.8803 104.222L87.5079 104.689C87.5364 104.648 87.5618 104.594 87.584 104.526C87.6133 104.45 87.6285 104.389 87.6296 104.341C87.635 104.107 87.5948 103.906 87.5092 103.739C87.4303 103.572 87.3129 103.438 87.1568 103.339C87.0007 103.239 86.8159 103.187 86.6025 103.182C86.3409 103.176 86.1193 103.23 85.9376 103.343C85.763 103.45 85.6249 103.615 85.5233 103.84C85.4287 104.059 85.3742 104.333 85.3597 104.663C85.3524 104.98 85.391 105.249 85.4754 105.472C85.5667 105.694 85.704 105.866 85.8871 105.987C86.0703 106.108 86.2927 106.171 86.5543 106.177C86.8503 106.183 87.1028 106.134 87.3119 106.028C87.5279 105.915 87.7074 105.747 87.8503 105.523L89.0088 105.91C88.7507 106.352 88.4125 106.682 87.9943 106.9C87.5831 107.112 87.0918 107.211 86.5204 107.199ZM89.7679 102.414L92.7004 102.477L92.6745 103.603L89.742 103.539L89.7679 102.414ZM90.6216 100.779L91.9123 100.807L91.765 107.209L90.4743 107.181L90.6216 100.779ZM93.6507 100.659C93.6558 100.439 93.7391 100.261 93.9006 100.127C94.0622 99.9859 94.2532 99.9177 94.4735 99.9224C94.6938 99.9272 94.878 100.004 95.0261 100.151C95.1812 100.292 95.2563 100.473 95.2512 100.693C95.2463 100.907 95.163 101.084 95.0014 101.225C94.8466 101.366 94.6591 101.435 94.4388 101.43C94.2185 101.425 94.0309 101.349 93.8759 101.201C93.7209 101.053 93.6458 100.872 93.6507 100.659ZM93.753 102.5L95.054 102.528L94.9448 107.278L93.6437 107.249L93.753 102.5ZM99.7558 104.489C99.763 104.172 99.7066 103.93 99.5865 103.762C99.4664 103.594 99.2687 103.507 98.9933 103.502C98.8075 103.498 98.6413 103.535 98.4949 103.615C98.3486 103.687 98.2359 103.795 98.1568 103.938C98.0778 104.081 98.036 104.252 98.0314 104.452L97.9649 107.343L96.6225 107.314L96.7318 102.564L98.0741 102.593L98.0575 103.316C98.2082 103.051 98.4022 102.852 98.6394 102.719C98.8837 102.58 99.1745 102.514 99.5118 102.521C100.076 102.533 100.492 102.704 100.76 103.034C101.028 103.356 101.156 103.803 101.143 104.374L101.073 107.41L99.6892 107.38L99.7558 104.489ZM102.414 107.77L103.725 107.798C103.727 108.005 103.778 108.181 103.878 108.328C103.978 108.482 104.116 108.602 104.293 108.688C104.471 108.775 104.68 108.821 104.92 108.826C105.141 108.831 105.348 108.783 105.544 108.684C105.746 108.585 105.908 108.431 106.029 108.22C106.158 108.009 106.226 107.742 106.234 107.418L106.341 102.772L107.632 102.8L107.525 107.446C107.511 108.031 107.383 108.511 107.14 108.884C106.904 109.258 106.592 109.527 106.202 109.69C105.813 109.861 105.391 109.941 104.936 109.932C104.386 109.92 103.927 109.82 103.559 109.633C103.191 109.453 102.911 109.199 102.719 108.871C102.534 108.55 102.432 108.183 102.414 107.77ZM102.384 105.021C102.396 104.491 102.513 104.049 102.735 103.696C102.957 103.336 103.245 103.067 103.6 102.888C103.956 102.71 104.33 102.625 104.722 102.634C105.121 102.642 105.47 102.746 105.769 102.946C106.074 103.145 106.308 103.429 106.472 103.798C106.643 104.159 106.722 104.598 106.71 105.115C106.699 105.624 106.599 106.059 106.412 106.42C106.231 106.781 105.984 107.055 105.67 107.241C105.363 107.42 105.009 107.506 104.61 107.497C104.218 107.488 103.848 107.387 103.501 107.194C103.155 107.001 102.879 106.723 102.673 106.36C102.468 105.991 102.372 105.544 102.384 105.021ZM103.768 105.051C103.761 105.333 103.814 105.575 103.927 105.778C104.039 105.973 104.194 106.124 104.391 106.232C104.589 106.339 104.801 106.396 105.028 106.401C105.228 106.405 105.421 106.361 105.61 106.268C105.805 106.169 105.963 106.025 106.084 105.835C106.213 105.638 106.28 105.395 106.287 105.105C106.292 104.885 106.262 104.692 106.197 104.525C106.132 104.358 106.039 104.219 105.918 104.106C105.803 103.993 105.674 103.908 105.531 103.849C105.388 103.784 105.24 103.75 105.089 103.747C104.862 103.742 104.647 103.789 104.445 103.888C104.243 103.987 104.081 104.135 103.96 104.332C103.838 104.522 103.774 104.762 103.768 105.051ZM112.707 106.019C112.902 106.209 113.085 106.365 113.254 106.485C113.424 106.599 113.583 106.685 113.734 106.744C113.891 106.802 114.038 106.833 114.176 106.836C114.355 106.84 114.493 106.805 114.591 106.731C114.69 106.651 114.74 106.542 114.744 106.404C114.746 106.28 114.707 106.176 114.627 106.092C114.553 106 114.441 105.919 114.292 105.847C114.142 105.775 113.951 105.698 113.718 105.617C113.5 105.53 113.289 105.429 113.085 105.314C112.881 105.193 112.712 105.038 112.579 104.849C112.453 104.653 112.393 104.408 112.4 104.112C112.406 103.829 112.487 103.594 112.643 103.404C112.799 103.208 113.006 103.064 113.263 102.973C113.527 102.876 113.817 102.83 114.133 102.837C114.402 102.843 114.652 102.883 114.885 102.957C115.117 103.031 115.332 103.128 115.529 103.25C115.726 103.364 115.899 103.499 116.047 103.653L115.439 104.467C115.271 104.277 115.068 104.121 114.83 103.999C114.599 103.877 114.369 103.813 114.142 103.808C113.991 103.805 113.87 103.833 113.779 103.893C113.695 103.947 113.651 104.032 113.649 104.149C113.646 104.252 113.686 104.346 113.766 104.43C113.854 104.508 113.976 104.58 114.133 104.645C114.297 104.71 114.481 104.79 114.686 104.884C114.938 104.986 115.17 105.101 115.38 105.23C115.598 105.352 115.77 105.503 115.897 105.685C116.023 105.867 116.083 106.102 116.077 106.391C116.066 106.866 115.902 107.235 115.586 107.497C115.27 107.751 114.841 107.873 114.297 107.861C113.96 107.854 113.651 107.803 113.371 107.707C113.097 107.611 112.849 107.489 112.625 107.34C112.408 107.183 112.212 107.017 112.037 106.841L112.707 106.019ZM116.728 102.996L119.66 103.06L119.634 104.185L116.702 104.122L116.728 102.996ZM117.581 101.362L118.872 101.39L118.725 107.792L117.434 107.764L117.581 101.362ZM121.941 103.109L121.832 107.859L120.521 107.831L120.63 103.081L121.941 103.109ZM123.303 104.533C123.216 104.449 123.124 104.385 123.029 104.341C122.94 104.291 122.827 104.265 122.69 104.262C122.525 104.258 122.382 104.3 122.263 104.387C122.144 104.474 122.052 104.599 121.986 104.763C121.927 104.92 121.895 105.112 121.89 105.339L121.527 104.96C121.536 104.581 121.616 104.249 121.767 103.963C121.918 103.67 122.113 103.44 122.351 103.273C122.589 103.099 122.832 103.015 123.08 103.02C123.252 103.024 123.413 103.058 123.563 103.124C123.72 103.189 123.845 103.285 123.939 103.411L123.303 104.533ZM125.786 106.467C125.783 106.605 125.815 106.726 125.881 106.831C125.948 106.929 126.039 107.006 126.155 107.064C126.278 107.115 126.411 107.142 126.556 107.145C126.762 107.149 126.949 107.112 127.116 107.033C127.283 106.947 127.421 106.826 127.527 106.67C127.635 106.507 127.691 106.312 127.696 106.085L127.847 106.708C127.84 107.011 127.748 107.264 127.571 107.466C127.401 107.669 127.181 107.82 126.91 107.917C126.646 108.015 126.369 108.06 126.08 108.054C125.784 108.048 125.51 107.983 125.258 107.861C125.006 107.738 124.804 107.565 124.65 107.341C124.504 107.111 124.435 106.834 124.442 106.51C124.453 106.049 124.623 105.688 124.953 105.426C125.282 105.165 125.743 105.041 126.335 105.053C126.638 105.06 126.902 105.097 127.128 105.163C127.361 105.23 127.555 105.31 127.712 105.403C127.868 105.496 127.979 105.585 128.046 105.669L128.032 106.288C127.849 106.147 127.642 106.039 127.409 105.965C127.184 105.891 126.944 105.852 126.689 105.846C126.482 105.842 126.313 105.866 126.181 105.918C126.049 105.963 125.951 106.033 125.887 106.128C125.823 106.217 125.789 106.329 125.786 106.467ZM125.314 104.525L124.84 103.606C125.09 103.48 125.396 103.363 125.757 103.254C126.118 103.138 126.518 103.084 126.959 103.094C127.365 103.102 127.725 103.169 128.039 103.293C128.353 103.417 128.597 103.594 128.771 103.825C128.945 104.049 129.028 104.323 129.02 104.647L128.943 108.013L127.652 107.985L127.723 104.897C127.726 104.767 127.708 104.656 127.669 104.566C127.63 104.468 127.566 104.388 127.478 104.324C127.397 104.26 127.298 104.213 127.182 104.183C127.065 104.153 126.935 104.137 126.79 104.133C126.57 104.129 126.36 104.148 126.159 104.192C125.958 104.236 125.785 104.291 125.639 104.356C125.492 104.422 125.384 104.478 125.314 104.525ZM129.945 103.282L132.878 103.346L132.852 104.471L129.919 104.408L129.945 103.282ZM130.799 101.648L132.09 101.676L131.942 108.077L130.652 108.05L130.799 101.648ZM135.977 108.268C135.46 108.257 135.012 108.144 134.631 107.929C134.25 107.714 133.958 107.422 133.753 107.053C133.555 106.676 133.461 106.237 133.473 105.735C133.485 105.225 133.598 104.79 133.813 104.43C134.035 104.063 134.341 103.784 134.731 103.592C135.121 103.394 135.578 103.301 136.101 103.312C136.624 103.323 137.066 103.429 137.426 103.63C137.794 103.824 138.07 104.105 138.254 104.474C138.439 104.836 138.525 105.272 138.513 105.781C138.512 105.843 138.507 105.909 138.498 105.977C138.497 106.046 138.492 106.101 138.484 106.142L134.23 106.05L134.249 105.224L137.337 105.291L136.964 105.758C136.993 105.718 137.018 105.663 137.04 105.595C137.07 105.52 137.085 105.458 137.086 105.41C137.091 105.176 137.051 104.975 136.965 104.808C136.887 104.641 136.769 104.508 136.613 104.408C136.457 104.308 136.272 104.256 136.059 104.251C135.797 104.246 135.576 104.299 135.394 104.412C135.219 104.519 135.081 104.685 134.98 104.91C134.885 105.128 134.831 105.402 134.816 105.733C134.809 106.049 134.847 106.319 134.932 106.541C135.023 106.763 135.16 106.935 135.343 107.056C135.527 107.177 135.749 107.24 136.011 107.246C136.307 107.252 136.559 107.203 136.768 107.097C136.984 106.985 137.164 106.816 137.307 106.592L138.465 106.979C138.207 107.421 137.869 107.751 137.451 107.969C137.039 108.181 136.548 108.28 135.977 108.268ZM139.489 108.571L140.801 108.6C140.803 108.806 140.854 108.983 140.954 109.13C141.054 109.283 141.192 109.403 141.369 109.49C141.546 109.576 141.755 109.622 141.996 109.627C142.216 109.632 142.424 109.585 142.619 109.486C142.821 109.387 142.983 109.232 143.105 109.021C143.234 108.811 143.302 108.543 143.309 108.22L143.416 103.573L144.707 103.601L144.6 108.248C144.587 108.833 144.459 109.312 144.216 109.686C143.98 110.059 143.667 110.328 143.278 110.492C142.888 110.663 142.466 110.743 142.012 110.733C141.461 110.721 141.002 110.622 140.634 110.435C140.267 110.255 139.987 110.001 139.795 109.673C139.609 109.352 139.507 108.985 139.489 108.571ZM139.46 105.823C139.472 105.293 139.589 104.851 139.81 104.498C140.032 104.137 140.321 103.868 140.676 103.69C141.031 103.512 141.405 103.427 141.798 103.435C142.197 103.444 142.546 103.548 142.844 103.747C143.15 103.946 143.384 104.23 143.548 104.599C143.718 104.961 143.798 105.4 143.786 105.916C143.774 106.426 143.675 106.861 143.487 107.222C143.307 107.583 143.06 107.856 142.745 108.042C142.438 108.222 142.085 108.307 141.686 108.298C141.293 108.29 140.924 108.189 140.577 107.995C140.23 107.802 139.954 107.524 139.749 107.161C139.544 106.792 139.448 106.346 139.46 105.823ZM140.843 105.853C140.837 106.135 140.89 106.377 141.002 106.579C141.115 106.774 141.27 106.926 141.467 107.033C141.664 107.141 141.876 107.197 142.104 107.202C142.303 107.206 142.497 107.162 142.685 107.07C142.88 106.971 143.039 106.826 143.16 106.636C143.288 106.439 143.356 106.196 143.363 105.907C143.368 105.687 143.338 105.493 143.273 105.327C143.208 105.16 143.114 105.02 142.993 104.907C142.879 104.795 142.75 104.709 142.606 104.651C142.463 104.586 142.316 104.552 142.165 104.548C141.937 104.544 141.723 104.591 141.521 104.689C141.319 104.788 141.157 104.936 141.035 105.134C140.914 105.324 140.85 105.563 140.843 105.853ZM150.785 103.733L147.526 110.687L146.153 110.657L147.414 107.937L145.54 103.619L147.027 103.652L148.468 107.464L147.808 107.429L149.391 103.703L150.785 103.733Z" fill="black"/>
<path d="M223.693 105.711L223.724 104.379L226.909 103.777L226.74 111.128L225.305 111.097L225.438 105.294L223.693 105.711ZM234.21 108.955C234.2 109.382 234.112 109.748 233.947 110.055C233.781 110.361 233.562 110.611 233.289 110.805C233.016 110.999 232.713 111.14 232.38 111.229C232.048 111.319 231.706 111.359 231.355 111.352C230.914 111.342 230.52 111.282 230.171 111.171C229.829 111.061 229.529 110.92 229.272 110.749C229.014 110.571 228.788 110.38 228.593 110.176L229.311 109.045C229.479 109.221 229.661 109.38 229.858 109.522C230.061 109.664 230.272 109.779 230.49 109.866C230.709 109.947 230.918 109.989 231.117 109.993C231.427 110 231.69 109.958 231.906 109.866C232.128 109.774 232.3 109.64 232.421 109.464C232.542 109.28 232.606 109.055 232.612 108.786C232.618 108.525 232.554 108.303 232.421 108.121C232.294 107.939 232.118 107.801 231.893 107.707C231.675 107.605 231.435 107.552 231.174 107.546C230.981 107.542 230.778 107.555 230.563 107.585C230.349 107.608 230.128 107.655 229.899 107.725C229.677 107.79 229.441 107.888 229.19 108.02L230.275 103.973L234.209 104.058L234.179 105.339L231.34 105.277L230.872 106.755C231.053 106.662 231.244 106.601 231.444 106.571C231.652 106.534 231.862 106.518 232.075 106.522C232.468 106.531 232.827 106.635 233.153 106.835C233.479 107.035 233.738 107.316 233.929 107.678C234.127 108.034 234.221 108.459 234.21 108.955ZM235.225 105.743C235.233 105.399 235.319 105.091 235.484 104.819C235.655 104.548 235.884 104.336 236.17 104.183C236.456 104.024 236.774 103.948 237.125 103.956C237.483 103.964 237.798 104.053 238.07 104.224C238.348 104.389 238.564 104.61 238.716 104.889C238.868 105.168 238.94 105.479 238.932 105.824C238.924 106.154 238.838 106.459 238.673 106.737C238.508 107.009 238.283 107.225 237.997 107.384C237.718 107.543 237.399 107.619 237.041 107.611C236.69 107.604 236.376 107.514 236.097 107.343C235.819 107.172 235.6 106.946 235.441 106.668C235.289 106.382 235.217 106.074 235.225 105.743ZM236.34 105.768C236.337 105.905 236.365 106.037 236.424 106.162C236.483 106.28 236.567 106.375 236.676 106.446C236.784 106.518 236.914 106.555 237.066 106.558C237.217 106.561 237.345 106.53 237.45 106.463C237.562 106.397 237.65 106.306 237.715 106.19C237.779 106.067 237.813 105.937 237.817 105.8C237.82 105.655 237.792 105.523 237.733 105.405C237.673 105.287 237.589 105.192 237.481 105.121C237.379 105.043 237.253 105.002 237.101 104.999C236.95 104.996 236.818 105.031 236.707 105.104C236.595 105.17 236.507 105.262 236.442 105.377C236.377 105.493 236.343 105.623 236.34 105.768ZM239.833 109.748C239.841 109.411 239.927 109.106 240.092 108.834C240.264 108.556 240.492 108.34 240.778 108.188C241.064 108.029 241.383 107.953 241.734 107.961C242.092 107.968 242.407 108.058 242.678 108.229C242.957 108.393 243.172 108.618 243.324 108.904C243.476 109.183 243.548 109.491 243.54 109.828C243.532 110.165 243.446 110.47 243.281 110.742C243.117 111.014 242.891 111.229 242.605 111.389C242.326 111.548 242.008 111.624 241.65 111.616C241.299 111.608 240.984 111.519 240.706 111.347C240.427 111.176 240.208 110.951 240.05 110.672C239.898 110.393 239.825 110.085 239.833 109.748ZM240.948 109.772C240.945 109.91 240.973 110.041 241.032 110.167C241.092 110.285 241.175 110.38 241.284 110.451C241.393 110.522 241.523 110.559 241.674 110.563C241.825 110.566 241.954 110.534 242.058 110.468C242.17 110.401 242.258 110.31 242.323 110.194C242.388 110.072 242.422 109.942 242.425 109.804C242.428 109.659 242.4 109.528 242.341 109.41C242.282 109.291 242.198 109.197 242.089 109.125C241.988 109.054 241.861 109.017 241.71 109.014C241.558 109.011 241.427 109.042 241.315 109.109C241.203 109.175 241.115 109.266 241.05 109.382C240.986 109.497 240.952 109.628 240.948 109.772ZM241.427 104.214L242.78 104.244L237.348 111.357L235.995 111.328L241.427 104.214Z" fill="#008A37"/>
<path d="M249.899 104.675L253.306 108.959L246.471 108.952L249.899 104.675Z" fill="#008A37"/>
<path d="M99.6331 143.292C83.2603 133.845 64.7197 137.389 57.4959 140.342L56.9947 171.599L249.66 175.626L249.984 155.428C245.864 148.126 232.882 135.954 213.914 145.681C190.204 157.839 175.756 152.205 164.55 142.58C155.585 134.879 143.915 139.655 139.201 143.005C132.833 147.037 116.006 152.739 99.6331 143.292Z" fill="url(#paint2_linear_2463_5777)"/>
<path d="M57.496 140.336C64.7031 137.387 83.2009 133.848 99.5357 143.281C115.87 152.714 132.659 147.02 139.012 142.994C143.715 139.648 155.358 134.88 164.302 142.569C175.482 152.18 189.897 157.806 213.552 145.665C232.477 135.952 245.428 148.106 249.539 155.397" stroke="#24B8D2" stroke-width="1.03281" stroke-linecap="round" stroke-linejoin="round"/>
<path d="M133.394 148.07C95.7225 82.4237 58.8995 158.603 57.3935 158.576L57.2425 166.453C57.0489 176.549 65.0759 184.878 75.1712 185.057L231.057 187.828C241.152 188.007 249.493 179.969 249.686 169.874L250.218 142.163C230.831 174.07 219.72 166.916 216.588 159.351C209.296 144.018 189.804 119.651 170.165 144.85C150.526 170.05 137.468 157.497 133.394 148.07Z" fill="url(#paint3_linear_2463_5777)"/>
<path d="M57.5857 158.537C59.0881 158.564 95.8248 82.4657 133.404 148.04C137.468 157.456 150.495 169.995 170.088 144.823C189.68 119.651 209.125 143.99 216.398 159.307C219.523 166.864 230.607 174.009 249.948 142.137" stroke="#238FFF" stroke-width="1.03281" stroke-linecap="round" stroke-linejoin="round"/>
<g filter="url(#filter1_i_2463_5777)">
<rect width="185.168" height="90.6446" rx="19.4452" transform="matrix(0.999992 0.00412006 -0.00554003 0.999985 287.734 101.579)" fill="url(#paint4_linear_2463_5777)" fill-opacity="0.93"/>
</g>
<path d="M371.963 142.966L372.036 139.976L381.083 140.187C381.101 141.586 380.902 142.902 380.487 144.134C380.09 145.367 379.477 146.455 378.649 147.397C377.839 148.323 376.842 149.043 375.658 149.558C374.473 150.073 373.129 150.313 371.626 150.278C370.21 150.245 368.904 149.978 367.71 149.478C366.533 148.979 365.509 148.29 364.638 147.413C363.785 146.536 363.129 145.498 362.669 144.298C362.226 143.098 362.022 141.79 362.057 140.374C362.092 138.958 362.368 137.67 362.886 136.511C363.423 135.334 364.147 134.336 365.059 133.518C365.971 132.699 367.036 132.077 368.253 131.651C369.471 131.224 370.787 131.027 372.203 131.06C373.462 131.089 374.585 131.29 375.573 131.663C376.578 132.036 377.458 132.546 378.211 133.194C378.983 133.824 379.638 134.574 380.176 135.443L376.931 137.23C376.497 136.416 375.875 135.754 375.065 135.246C374.273 134.72 373.292 134.444 372.121 134.416C371.019 134.391 370.008 134.621 369.086 135.107C368.165 135.575 367.423 136.266 366.858 137.18C366.311 138.094 366.021 139.19 365.99 140.466C365.959 141.724 366.194 142.84 366.695 143.814C367.196 144.77 367.886 145.521 368.765 146.066C369.661 146.611 370.677 146.897 371.813 146.924C372.565 146.941 373.24 146.861 373.839 146.682C374.439 146.486 374.953 146.21 375.381 145.852C375.827 145.495 376.205 145.084 376.514 144.619C376.822 144.154 377.062 143.644 377.233 143.088L371.963 142.966ZM387.215 138.073L386.919 150.134L383.589 150.057L383.885 137.995L387.215 138.073ZM390.668 141.695C390.446 141.48 390.214 141.317 389.972 141.206C389.748 141.079 389.461 141.011 389.111 141.003C388.692 140.993 388.33 141.098 388.028 141.319C387.725 141.539 387.49 141.857 387.322 142.273C387.172 142.672 387.09 143.16 387.076 143.736L386.155 142.771C386.179 141.809 386.383 140.966 386.769 140.24C387.154 139.497 387.65 138.914 388.255 138.49C388.86 138.05 389.478 137.837 390.107 137.851C390.544 137.861 390.953 137.95 391.334 138.116C391.732 138.283 392.049 138.526 392.286 138.846L390.668 141.695ZM392.757 144.236C392.788 142.977 393.104 141.883 393.704 140.952C394.321 140.022 395.135 139.306 396.144 138.805C397.171 138.304 398.322 138.068 399.599 138.098C400.875 138.128 402.004 138.416 402.988 138.964C403.989 139.512 404.766 140.264 405.32 141.222C405.891 142.18 406.161 143.288 406.13 144.546C406.1 145.787 405.776 146.882 405.158 147.829C404.557 148.76 403.744 149.476 402.717 149.977C401.708 150.478 400.565 150.714 399.289 150.684C398.013 150.654 396.874 150.366 395.873 149.818C394.89 149.27 394.112 148.517 393.541 147.56C392.988 146.585 392.727 145.477 392.757 144.236ZM396.218 144.316C396.202 144.998 396.327 145.604 396.594 146.135C396.878 146.649 397.262 147.06 397.744 147.369C398.226 147.66 398.765 147.812 399.359 147.826C399.954 147.84 400.499 147.713 400.995 147.444C401.492 147.158 401.887 146.765 402.179 146.265C402.489 145.747 402.652 145.148 402.669 144.466C402.686 143.784 402.552 143.178 402.268 142.646C402.001 142.115 401.626 141.704 401.144 141.413C400.661 141.122 400.123 140.97 399.528 140.956C398.934 140.942 398.389 141.07 397.892 141.338C397.396 141.606 396.993 141.999 396.683 142.517C396.39 143.035 396.235 143.634 396.218 144.316ZM406.659 138.524L410.278 138.608L412.762 145.356L416.358 137.831L419.71 145.544L422.55 138.894L426.142 138.977L419.926 151.714L416.234 143.942L412.269 151.537L406.659 138.524Z" fill="black"/>
<path d="M364.488 158.164L363.833 162.862L362.047 162.82L363.51 154.039L366.889 159.539L370.534 154.202L371.564 163.041L369.778 163L369.355 158.277L366.825 162.152L364.488 158.164ZM373.911 161.381C373.907 161.541 373.943 161.681 374.02 161.803C374.097 161.917 374.203 162.007 374.337 162.074C374.48 162.134 374.635 162.165 374.803 162.169C375.043 162.175 375.259 162.132 375.454 162.04C375.648 161.941 375.807 161.801 375.932 161.62C376.056 161.431 376.122 161.204 376.128 160.941L376.302 161.664C376.294 162.016 376.187 162.309 375.981 162.544C375.783 162.78 375.527 162.954 375.212 163.066C374.906 163.179 374.585 163.231 374.249 163.224C373.905 163.216 373.587 163.14 373.295 162.998C373.003 162.855 372.768 162.654 372.59 162.394C372.421 162.126 372.341 161.804 372.35 161.429C372.363 160.893 372.562 160.474 372.945 160.171C373.328 159.868 373.863 159.725 374.551 159.741C374.902 159.749 375.209 159.792 375.471 159.87C375.741 159.948 375.967 160.041 376.148 160.149C376.329 160.258 376.458 160.361 376.536 160.458L376.518 161.178C376.306 161.013 376.066 160.887 375.796 160.801C375.534 160.715 375.255 160.668 374.96 160.662C374.72 160.656 374.523 160.683 374.37 160.744C374.217 160.796 374.103 160.878 374.028 160.988C373.954 161.09 373.915 161.221 373.911 161.381ZM373.366 159.125L372.817 158.057C373.108 157.912 373.464 157.776 373.882 157.65C374.302 157.516 374.767 157.455 375.278 157.467C375.75 157.478 376.168 157.555 376.532 157.7C376.896 157.844 377.179 158.051 377.38 158.319C377.582 158.58 377.678 158.898 377.669 159.273L377.572 163.181L376.074 163.146L376.162 159.562C376.166 159.41 376.145 159.282 376.1 159.177C376.055 159.064 375.981 158.97 375.879 158.896C375.785 158.822 375.67 158.767 375.535 158.732C375.4 158.697 375.248 158.677 375.081 158.673C374.825 158.668 374.58 158.69 374.347 158.74C374.114 158.791 373.913 158.854 373.743 158.93C373.573 159.006 373.448 159.071 373.366 159.125ZM380.675 157.736L380.539 163.25L379.017 163.214L379.152 157.701L380.675 157.736ZM382.253 159.392C382.152 159.293 382.045 159.219 381.935 159.169C381.832 159.11 381.701 159.079 381.541 159.075C381.349 159.071 381.184 159.119 381.046 159.22C380.908 159.321 380.8 159.466 380.723 159.656C380.655 159.838 380.617 160.061 380.611 160.325L380.19 159.884C380.201 159.444 380.294 159.058 380.47 158.727C380.647 158.387 380.873 158.12 381.15 157.927C381.427 157.725 381.709 157.628 381.996 157.635C382.196 157.639 382.383 157.68 382.557 157.756C382.739 157.832 382.884 157.943 382.993 158.09L382.253 159.392ZM383.881 153.973L385.38 154.007L385.15 163.357L383.651 163.322L383.881 153.973ZM387.311 157.89L389.169 157.933L386.74 160.156L389.273 163.453L387.427 163.41L384.882 160.112L387.311 157.89ZM392.513 163.648C391.914 163.634 391.394 163.502 390.952 163.252C390.51 163.002 390.171 162.662 389.933 162.233C389.704 161.796 389.597 161.285 389.611 160.702C389.626 160.111 389.758 159.606 390.008 159.188C390.267 158.762 390.622 158.439 391.076 158.217C391.529 157.988 392.059 157.881 392.667 157.895C393.274 157.909 393.787 158.033 394.205 158.266C394.631 158.492 394.951 158.819 395.164 159.248C395.378 159.669 395.477 160.175 395.463 160.766C395.461 160.838 395.455 160.914 395.445 160.994C395.443 161.073 395.438 161.137 395.428 161.185L390.49 161.07L390.513 160.111L394.098 160.195L393.664 160.736C393.698 160.689 393.727 160.626 393.753 160.546C393.787 160.459 393.805 160.388 393.806 160.332C393.813 160.06 393.767 159.827 393.668 159.633C393.576 159.439 393.44 159.284 393.259 159.168C393.078 159.052 392.864 158.991 392.616 158.985C392.312 158.978 392.055 159.04 391.844 159.171C391.641 159.294 391.48 159.486 391.362 159.747C391.252 160.001 391.188 160.319 391.171 160.702C391.161 161.07 391.206 161.383 391.303 161.641C391.409 161.899 391.568 162.099 391.78 162.24C391.993 162.381 392.251 162.454 392.555 162.462C392.898 162.47 393.191 162.412 393.434 162.29C393.685 162.16 393.894 161.965 394.06 161.705L395.405 162.156C395.104 162.669 394.711 163.051 394.225 163.304C393.747 163.549 393.177 163.663 392.513 163.648ZM395.993 158.092L399.397 158.171L399.365 159.477L395.96 159.398L395.993 158.092ZM396.987 156.196L398.485 156.231L398.302 163.662L396.804 163.628L396.987 156.196ZM400.204 156.055C400.21 155.799 400.307 155.593 400.495 155.438C400.683 155.274 400.905 155.196 401.16 155.201C401.416 155.207 401.63 155.296 401.801 155.468C401.981 155.632 402.068 155.842 402.062 156.098C402.056 156.346 401.959 156.551 401.771 156.715C401.591 156.879 401.373 156.957 401.117 156.952C400.862 156.946 400.644 156.857 400.464 156.684C400.285 156.512 400.198 156.303 400.204 156.055ZM400.319 158.192L401.83 158.227L401.694 163.741L400.184 163.706L400.319 158.192ZM406.985 160.506C406.994 160.138 406.929 159.857 406.79 159.662C406.65 159.467 406.421 159.365 406.101 159.358C405.886 159.353 405.693 159.397 405.522 159.489C405.353 159.573 405.221 159.697 405.129 159.863C405.037 160.029 404.989 160.228 404.983 160.459L404.9 163.816L403.342 163.78L403.478 158.266L405.036 158.302L405.015 159.141C405.191 158.833 405.416 158.603 405.692 158.449C405.976 158.288 406.313 158.212 406.705 158.221C407.36 158.236 407.843 158.435 408.154 158.818C408.464 159.193 408.611 159.712 408.595 160.375L408.508 163.9L406.902 163.862L406.985 160.506ZM409.765 164.313L411.287 164.348C411.289 164.588 411.348 164.793 411.464 164.964C411.579 165.142 411.74 165.282 411.945 165.383C412.151 165.483 412.393 165.537 412.673 165.543C412.929 165.549 413.17 165.495 413.397 165.38C413.631 165.266 413.82 165.086 413.962 164.842C414.112 164.597 414.191 164.287 414.2 163.912L414.333 158.518L415.831 158.553L415.699 163.947C415.682 164.626 415.532 165.182 415.25 165.615C414.975 166.049 414.612 166.36 414.159 166.549C413.707 166.747 413.217 166.839 412.689 166.827C412.05 166.812 411.517 166.696 411.091 166.478C410.664 166.268 410.34 165.973 410.117 165.592C409.902 165.219 409.785 164.793 409.765 164.313ZM409.735 161.122C409.75 160.506 409.887 159.994 410.145 159.584C410.403 159.166 410.739 158.854 411.151 158.648C411.564 158.442 411.998 158.344 412.454 158.354C412.917 158.365 413.322 158.486 413.668 158.718C414.023 158.95 414.294 159.281 414.484 159.709C414.681 160.129 414.773 160.639 414.758 161.238C414.743 161.83 414.627 162.335 414.409 162.753C414.199 163.172 413.911 163.489 413.546 163.705C413.189 163.912 412.779 164.011 412.315 164C411.86 163.989 411.431 163.871 411.029 163.646C410.626 163.421 410.306 163.098 410.069 162.676C409.832 162.247 409.72 161.729 409.735 161.122ZM411.342 161.159C411.333 161.487 411.395 161.768 411.525 162.003C411.655 162.23 411.835 162.406 412.063 162.531C412.292 162.656 412.538 162.722 412.802 162.728C413.034 162.733 413.259 162.683 413.478 162.576C413.704 162.461 413.888 162.293 414.03 162.073C414.179 161.844 414.258 161.562 414.266 161.227C414.273 160.971 414.238 160.746 414.163 160.553C414.088 160.359 413.98 160.197 413.839 160.066C413.706 159.935 413.557 159.835 413.391 159.767C413.225 159.691 413.054 159.651 412.878 159.647C412.614 159.641 412.365 159.695 412.13 159.81C411.896 159.924 411.708 160.096 411.566 160.325C411.425 160.545 411.35 160.823 411.342 161.159ZM420.269 157.324L420.307 155.778L426.54 155.923L426.502 157.469L424.237 157.417L424.068 164.261L422.354 164.221L422.522 157.377L420.269 157.324ZM427.862 158.832L427.726 164.346L426.204 164.311L426.34 158.797L427.862 158.832ZM429.44 160.488C429.339 160.39 429.233 160.315 429.122 160.265C429.02 160.206 428.888 160.175 428.729 160.172C428.537 160.167 428.372 160.215 428.233 160.316C428.095 160.417 427.987 160.562 427.911 160.752C427.842 160.935 427.805 161.158 427.798 161.421L427.377 160.98C427.388 160.54 427.482 160.155 427.658 159.823C427.834 159.483 428.06 159.217 428.337 159.023C428.614 158.822 428.896 158.724 429.184 158.731C429.384 158.736 429.571 158.776 429.745 158.852C429.927 158.928 430.072 159.039 430.18 159.186L429.44 160.488ZM432.02 162.731C432.016 162.89 432.052 163.031 432.129 163.153C432.206 163.267 432.312 163.357 432.446 163.424C432.589 163.483 432.744 163.515 432.912 163.519C433.152 163.524 433.369 163.482 433.563 163.39C433.757 163.291 433.916 163.15 434.041 162.969C434.165 162.78 434.231 162.554 434.237 162.29L434.412 163.014C434.403 163.366 434.296 163.659 434.09 163.894C433.892 164.129 433.636 164.303 433.322 164.416C433.015 164.529 432.694 164.581 432.358 164.573C432.015 164.566 431.697 164.49 431.404 164.347C431.112 164.205 430.877 164.003 430.7 163.743C430.53 163.476 430.45 163.154 430.459 162.778C430.473 162.243 430.671 161.824 431.054 161.521C431.437 161.218 431.973 161.074 432.66 161.09C433.011 161.099 433.318 161.142 433.58 161.22C433.85 161.298 434.076 161.391 434.257 161.499C434.438 161.607 434.568 161.71 434.645 161.808L434.627 162.527C434.416 162.363 434.175 162.237 433.905 162.151C433.643 162.065 433.365 162.018 433.069 162.011C432.829 162.006 432.633 162.033 432.479 162.094C432.326 162.146 432.212 162.227 432.137 162.338C432.063 162.44 432.024 162.571 432.02 162.731ZM431.476 160.475L430.926 159.407C431.218 159.262 431.573 159.126 431.992 159C432.411 158.866 432.876 158.805 433.387 158.817C433.859 158.827 434.277 158.905 434.641 159.05C435.005 159.194 435.288 159.4 435.489 159.669C435.691 159.929 435.787 160.248 435.778 160.623L435.682 164.531L434.183 164.496L434.271 160.912C434.275 160.76 434.254 160.632 434.209 160.527C434.164 160.414 434.09 160.32 433.988 160.246C433.894 160.172 433.779 160.117 433.644 160.082C433.509 160.047 433.358 160.027 433.19 160.023C432.934 160.017 432.69 160.04 432.456 160.09C432.223 160.141 432.022 160.204 431.852 160.28C431.682 160.356 431.557 160.421 431.476 160.475ZM436.794 159.04L440.246 159.12L440.214 160.426L436.762 160.346L436.794 159.04ZM440.134 156.838C440.057 156.717 439.967 156.635 439.865 156.592C439.77 156.542 439.675 156.516 439.579 156.514C439.459 156.511 439.354 156.54 439.265 156.602C439.183 156.656 439.117 156.751 439.066 156.886C439.014 157.02 438.986 157.192 438.981 157.399L438.804 164.603L437.306 164.568L437.491 157.017C437.502 156.593 437.582 156.239 437.733 155.955C437.884 155.671 438.105 155.456 438.397 155.311C438.688 155.158 439.042 155.086 439.458 155.096C439.705 155.101 439.916 155.138 440.091 155.206C440.265 155.266 440.411 155.342 440.529 155.432C440.654 155.523 440.752 155.609 440.822 155.691L440.134 156.838ZM440.704 159.13L444.156 159.211L444.124 160.517L440.672 160.437L440.704 159.13ZM444.044 156.929C443.967 156.808 443.877 156.725 443.774 156.683C443.68 156.633 443.584 156.607 443.489 156.604C443.369 156.602 443.264 156.631 443.174 156.693C443.093 156.747 443.027 156.842 442.976 156.976C442.924 157.111 442.896 157.282 442.891 157.49L442.714 164.694L441.215 164.659L441.401 157.108C441.412 156.684 441.492 156.33 441.643 156.046C441.794 155.762 442.015 155.547 442.307 155.402C442.598 155.249 442.952 155.177 443.367 155.186C443.615 155.192 443.826 155.229 444 155.297C444.175 155.357 444.321 155.432 444.439 155.523C444.564 155.614 444.662 155.7 444.732 155.782L444.044 156.929ZM445.062 157.097C445.068 156.841 445.165 156.635 445.353 156.48C445.541 156.316 445.762 156.238 446.018 156.243C446.274 156.249 446.488 156.338 446.659 156.51C446.839 156.674 446.926 156.884 446.92 157.14C446.914 157.388 446.817 157.593 446.629 157.757C446.449 157.921 446.231 157.999 445.975 157.994C445.719 157.988 445.502 157.899 445.322 157.726C445.142 157.554 445.056 157.345 445.062 157.097ZM445.177 159.234L446.687 159.269L446.552 164.783L445.041 164.748L445.177 159.234ZM449.442 162.092C449.435 162.412 449.5 162.693 449.637 162.936C449.775 163.179 449.963 163.371 450.199 163.513C450.443 163.654 450.713 163.729 451.009 163.735C451.249 163.741 451.482 163.71 451.707 163.644C451.933 163.569 452.135 163.47 452.314 163.346C452.501 163.214 452.645 163.062 452.745 162.888L452.706 164.482C452.51 164.654 452.255 164.788 451.94 164.884C451.634 164.973 451.278 165.013 450.87 165.003C450.287 164.99 449.762 164.858 449.297 164.607C448.839 164.357 448.48 164.012 448.219 163.575C447.966 163.129 447.846 162.623 447.86 162.055C447.874 161.48 448.018 160.979 448.293 160.554C448.575 160.129 448.951 159.802 449.42 159.573C449.898 159.344 450.428 159.236 451.011 159.25C451.419 159.259 451.773 159.32 452.075 159.431C452.384 159.534 452.632 159.671 452.82 159.844L452.781 161.438C452.689 161.26 452.549 161.105 452.36 160.972C452.18 160.832 451.979 160.724 451.757 160.646C451.535 160.569 451.312 160.528 451.088 160.523C450.792 160.516 450.519 160.582 450.268 160.72C450.025 160.85 449.828 161.033 449.678 161.27C449.529 161.506 449.45 161.78 449.442 162.092Z" fill="black"/>
<ellipse cx="327.262" cy="147.566" rx="25.1237" ry="25.1761" transform="rotate(21.7327 327.262 147.566)" fill="#A9D0FF"/>
<g filter="url(#filter2_d_2463_5777)">
<ellipse cx="327.266" cy="147.567" rx="13.0389" ry="13.0661" transform="rotate(21.7327 327.266 147.567)" fill="#238FFF"/>
<path d="M339.03 152.256C336.435 158.768 329.063 161.946 322.567 159.356C316.07 156.767 312.907 149.389 315.502 142.878C318.098 136.366 325.469 133.188 331.966 135.777C338.462 138.367 341.626 145.744 339.03 152.256Z" stroke="#CAD9FF" stroke-width="0.749393"/>
</g>
<path d="M88.0693 236.786L85.9517 446.64M280.395 238.563L278.277 448.416M185.711 237.688L183.593 447.542M377.05 239.455L374.932 449.309M135.41 237.224L133.293 447.077M328.722 239.009L326.605 448.863M233.052 238.126L230.934 447.979M425.378 239.902L423.26 449.755M46.393 409.11L471.479 413.036M47.2985 319.354L472.385 323.28M46.8383 364.864L471.925 368.79M47.7569 273.843L472.843 277.769" stroke="#E4B5A8" stroke-width="0.584198"/>
<path d="M77.5781 432.77L175.679 348.527L210.364 393.006L289.184 327.678L351.419 399.93L442.563 300.694" stroke="url(#paint5_linear_2463_5777)" stroke-width="11.3614" stroke-linecap="round"/>
<g filter="url(#filter3_d_2463_5777)">
<ellipse cx="290.214" cy="328.73" rx="17.1811" ry="17.217" transform="rotate(21.7327 290.214 328.73)" fill="white"/>
<path d="M303.535 334.04C300.593 341.421 292.242 345.015 284.89 342.085C277.538 339.154 273.95 330.801 276.892 323.42C279.834 316.039 288.185 312.445 295.537 315.375C302.889 318.306 306.477 326.659 303.535 334.04Z" stroke="#70A279" stroke-width="5.68069"/>
</g>
<g filter="url(#filter4_d_2463_5777)">
<ellipse cx="207.847" cy="394.058" rx="17.1811" ry="17.217" transform="rotate(21.7327 207.847 394.058)" fill="white"/>
<path d="M221.168 399.368C218.226 406.749 209.875 410.343 202.523 407.413C195.171 404.482 191.583 396.129 194.525 388.748C197.467 381.367 205.818 377.773 213.17 380.703C220.522 383.634 224.11 391.987 221.168 399.368Z" stroke="#BC9D82" stroke-width="5.68069"/>
</g>
<g filter="url(#filter5_d_2463_5777)">
<ellipse cx="354.124" cy="394.058" rx="17.1811" ry="17.217" transform="rotate(21.7327 354.124 394.058)" fill="white"/>
<path d="M367.445 399.368C364.503 406.749 356.153 410.343 348.801 407.413C341.449 404.482 337.86 396.129 340.802 388.748C343.745 381.367 352.095 377.773 359.447 380.703C366.799 383.634 370.387 391.987 367.445 399.368Z" stroke="#3DC39E" stroke-width="5.68069"/>
</g>
<g filter="url(#filter6_d_2463_5777)">
<ellipse cx="170.891" cy="350" rx="17.1561" ry="17.1919" transform="rotate(21.7327 170.891 350)" fill="white"/>
<path d="M184.189 355.301C181.253 362.669 172.916 366.257 165.577 363.332C158.238 360.406 154.656 352.067 157.593 344.699C160.53 337.331 168.866 333.743 176.205 336.669C183.545 339.594 187.126 347.933 184.189 355.301Z" stroke="#FF827A" stroke-width="5.68069"/>
</g>
<defs>
<filter id="filter0_i_2463_5777" x="40.8945" y="78.2038" width="228.812" height="120.739" filterUnits="userSpaceOnUse" color-interpolation-filters="sRGB">
<feFlood flood-opacity="0" result="BackgroundImageFix"/>
<feBlend mode="normal" in="SourceGraphic" in2="BackgroundImageFix" result="shape"/>
<feColorMatrix in="SourceAlpha" type="matrix" values="0 0 0 0 0 0 0 0 0 0 0 0 0 0 0 0 0 0 127 0" result="hardAlpha"/>
<feOffset dx="-1.45839" dy="1.45839"/>
<feComposite in2="hardAlpha" operator="arithmetic" k2="-1" k3="1"/>
<feColorMatrix type="matrix" values="0 0 0 0 1 0 0 0 0 1 0 0 0 0 1 0 0 0 1 0"/>
<feBlend mode="normal" in2="shape" result="effect1_innerShadow_2463_5777"/>
</filter>
<filter id="filter1_i_2463_5777" x="287.34" y="101.659" width="185.453" height="91.2462" filterUnits="userSpaceOnUse" color-interpolation-filters="sRGB">
<feFlood flood-opacity="0" result="BackgroundImageFix"/>
<feBlend mode="normal" in="SourceGraphic" in2="BackgroundImageFix" result="shape"/>
<feColorMatrix in="SourceAlpha" type="matrix" values="0 0 0 0 0 0 0 0 0 0 0 0 0 0 0 0 0 0 127 0" result="hardAlpha"/>
<feOffset dx="-1.45839" dy="1.45839"/>
<feComposite in2="hardAlpha" operator="arithmetic" k2="-1" k3="1"/>
<feColorMatrix type="matrix" values="0 0 0 0 1 0 0 0 0 1 0 0 0 0 1 0 0 0 1 0"/>
<feBlend mode="normal" in2="shape" result="effect1_innerShadow_2463_5777"/>
</filter>
<filter id="filter2_d_2463_5777" x="311.971" y="134.501" width="35.0865" height="35.8738" filterUnits="userSpaceOnUse" color-interpolation-filters="sRGB">
<feFlood flood-opacity="0" result="BackgroundImageFix"/>
<feColorMatrix in="SourceAlpha" type="matrix" values="0 0 0 0 0 0 0 0 0 0 0 0 0 0 0 0 0 0 127 0" result="hardAlpha"/>
<feOffset dx="2.24818" dy="5.24575"/>
<feGaussianBlur stdDeviation="2.24818"/>
<feComposite in2="hardAlpha" operator="out"/>
<feColorMatrix type="matrix" values="0 0 0 0 0.66125 0 0 0 0 0.717563 0 0 0 0 0.8625 0 0 0 1 0"/>
<feBlend mode="normal" in2="BackgroundImageFix" result="effect1_dropShadow_2463_5777"/>
<feBlend mode="normal" in="SourceGraphic" in2="effect1_dropShadow_2463_5777" result="shape"/>
</filter>
<filter id="filter3_d_2463_5777" x="270.48" y="311.513" width="44.5561" height="45.4544" filterUnits="userSpaceOnUse" color-interpolation-filters="sRGB">
<feFlood flood-opacity="0" result="BackgroundImageFix"/>
<feColorMatrix in="SourceAlpha" type="matrix" values="0 0 0 0 0 0 0 0 0 0 0 0 0 0 0 0 0 0 127 0" result="hardAlpha"/>
<feOffset dx="2.54332" dy="5.93442"/>
<feGaussianBlur stdDeviation="2.54332"/>
<feComposite in2="hardAlpha" operator="out"/>
<feColorMatrix type="matrix" values="0 0 0 0 0.875 0 0 0 0 0.73125 0 0 0 0 0.707292 0 0 0 1 0"/>
<feBlend mode="multiply" in2="BackgroundImageFix" result="effect1_dropShadow_2463_5777"/>
<feBlend mode="normal" in="SourceGraphic" in2="effect1_dropShadow_2463_5777" result="shape"/>
</filter>
<filter id="filter4_d_2463_5777" x="188.113" y="376.841" width="44.5561" height="45.4544" filterUnits="userSpaceOnUse" color-interpolation-filters="sRGB">
<feFlood flood-opacity="0" result="BackgroundImageFix"/>
<feColorMatrix in="SourceAlpha" type="matrix" values="0 0 0 0 0 0 0 0 0 0 0 0 0 0 0 0 0 0 127 0" result="hardAlpha"/>
<feOffset dx="2.54332" dy="5.93442"/>
<feGaussianBlur stdDeviation="2.54332"/>
<feComposite in2="hardAlpha" operator="out"/>
<feColorMatrix type="matrix" values="0 0 0 0 0.875 0 0 0 0 0.73125 0 0 0 0 0.707292 0 0 0 1 0"/>
<feBlend mode="multiply" in2="BackgroundImageFix" result="effect1_dropShadow_2463_5777"/>
<feBlend mode="normal" in="SourceGraphic" in2="effect1_dropShadow_2463_5777" result="shape"/>
</filter>
<filter id="filter5_d_2463_5777" x="334.39" y="376.841" width="44.5561" height="45.4544" filterUnits="userSpaceOnUse" color-interpolation-filters="sRGB">
<feFlood flood-opacity="0" result="BackgroundImageFix"/>
<feColorMatrix in="SourceAlpha" type="matrix" values="0 0 0 0 0 0 0 0 0 0 0 0 0 0 0 0 0 0 127 0" result="hardAlpha"/>
<feOffset dx="2.54332" dy="5.93442"/>
<feGaussianBlur stdDeviation="2.54332"/>
<feComposite in2="hardAlpha" operator="out"/>
<feColorMatrix type="matrix" values="0 0 0 0 0.875 0 0 0 0 0.73125 0 0 0 0 0.707292 0 0 0 1 0"/>
<feBlend mode="multiply" in2="BackgroundImageFix" result="effect1_dropShadow_2463_5777"/>
<feBlend mode="normal" in="SourceGraphic" in2="effect1_dropShadow_2463_5777" result="shape"/>
</filter>
<filter id="filter6_d_2463_5777" x="151.183" y="332.808" width="44.5053" height="45.4043" filterUnits="userSpaceOnUse" color-interpolation-filters="sRGB">
<feFlood flood-opacity="0" result="BackgroundImageFix"/>
<feColorMatrix in="SourceAlpha" type="matrix" values="0 0 0 0 0 0 0 0 0 0 0 0 0 0 0 0 0 0 127 0" result="hardAlpha"/>
<feOffset dx="2.54332" dy="5.93442"/>
<feGaussianBlur stdDeviation="2.54332"/>
<feComposite in2="hardAlpha" operator="out"/>
<feColorMatrix type="matrix" values="0 0 0 0 0.875 0 0 0 0 0.73125 0 0 0 0 0.707292 0 0 0 1 0"/>
<feBlend mode="multiply" in2="BackgroundImageFix" result="effect1_dropShadow_2463_5777"/>
<feBlend mode="normal" in="SourceGraphic" in2="effect1_dropShadow_2463_5777" result="shape"/>
</filter>
<linearGradient id="paint0_linear_2463_5777" x1="207.674" y1="43.2189" x2="16.75" y2="1.51584" gradientUnits="userSpaceOnUse">
<stop stop-color="#D8EAFE"/>
<stop offset="0.421875" stop-color="#D8EBFF"/>
<stop offset="1" stop-color="#D8EBFF" stop-opacity="0"/>
</linearGradient>
<linearGradient id="paint1_linear_2463_5777" x1="155.205" y1="97.7994" x2="154.599" y2="194.396" gradientUnits="userSpaceOnUse">
<stop stop-color="#DADADA"/>
<stop offset="1" stop-color="white" stop-opacity="0"/>
</linearGradient>
<linearGradient id="paint2_linear_2463_5777" x1="153.891" y1="138.447" x2="153.156" y2="173.609" gradientUnits="userSpaceOnUse">
<stop stop-color="#65D2E5"/>
<stop offset="1" stop-color="white" stop-opacity="0"/>
</linearGradient>
<linearGradient id="paint3_linear_2463_5777" x1="154.343" y1="122.347" x2="153.204" y2="186.444" gradientUnits="userSpaceOnUse">
<stop stop-color="#238FFF"/>
<stop offset="1" stop-color="white" stop-opacity="0"/>
</linearGradient>
<linearGradient id="paint4_linear_2463_5777" x1="168.829" y1="33.0546" x2="14.5292" y2="-2.76978" gradientUnits="userSpaceOnUse">
<stop stop-color="#D8EAFE"/>
<stop offset="0.421875" stop-color="#D8EBFF"/>
<stop offset="1" stop-color="#D8EBFF" stop-opacity="0"/>
</linearGradient>
<linearGradient id="paint5_linear_2463_5777" x1="384.521" y1="290.699" x2="84.3803" y2="375.912" gradientUnits="userSpaceOnUse">
<stop stop-color="#3DCF92"/>
<stop offset="1" stop-color="#FF8179"/>
</linearGradient>
</defs>
</svg>
