<svg width="48" height="47" viewBox="0 0 48 47" fill="none" xmlns="http://www.w3.org/2000/svg">
<path d="M44.0018 5.60813C44.0018 11.8088 44.0018 17.9501 44.0018 24.0661C42.9478 23.4564 41.9036 22.8673 40.8825 22.2416C40.761 22.1672 40.718 21.8928 40.7164 21.7104C40.7015 20.1206 40.705 18.5305 40.7008 16.9405C40.7003 16.7588 40.6847 16.5774 40.6748 16.3683C28.3104 16.3683 15.9901 16.3683 3.63248 16.3683C3.63248 24.6099 3.63248 32.8372 3.63248 41.1208C4.61021 41.1208 5.55983 41.1211 6.50945 41.1208C11.7366 41.1192 16.9638 41.1215 22.191 41.1074C22.5781 41.1065 22.7945 41.2084 22.9899 41.5611C23.3884 42.2805 23.8611 42.9592 24.3293 43.6957C16.3248 43.6957 8.35129 43.6957 0.322266 43.6957C0.322266 31.0267 0.322266 18.3564 0.322266 5.64685C2.2293 5.64685 4.1276 5.64685 6.10811 5.64685C6.10811 5.8853 6.10409 6.1139 6.10882 6.34249C6.1622 9.02344 8.33405 11.1526 11.0296 11.1681C13.7497 11.1838 15.9497 9.06732 16.0213 6.36596C16.0416 5.60202 16.0416 5.60977 16.7951 5.61047C20.4216 5.61423 24.0484 5.61305 27.6749 5.61517C27.8578 5.61517 28.0408 5.63066 28.2312 5.63934C28.2778 6.15075 28.2896 6.62343 28.3678 7.08484C28.7982 9.62097 31.085 11.357 33.7102 11.1573C36.1518 10.9714 38.1425 8.85492 38.2086 6.37253C38.2297 5.57949 38.0586 5.61564 38.9792 5.61399C40.4435 5.61165 41.9077 5.60953 43.372 5.60742C43.5723 5.60789 43.7724 5.60813 44.0018 5.60813Z" fill="#238FFF"/>
<path d="M23.0104 34.9126C22.9407 28.3655 28.3711 22.8821 34.9877 22.8184C41.6608 22.7541 47.2307 28.0804 47.2907 34.5829C47.3538 41.4104 42.031 46.9061 35.2934 46.9702C28.5461 47.034 23.0825 41.6707 23.0104 34.9126ZM44.2683 34.8941C44.212 29.8047 40.1374 25.7824 35.0822 25.8266C29.9956 25.8709 25.9793 29.9835 26.0407 35.0851C26.1 40.002 30.2694 44.0069 35.2742 43.9545C40.2257 43.9024 44.3219 39.776 44.2683 34.8941Z" fill="#238FFF"/>
<path d="M7.83051 4.72231C7.83004 4.18157 7.81516 3.64059 7.83288 3.10032C7.88815 1.40463 9.29298 0.0349426 10.9959 0.00255446C12.71 -0.0300684 14.1982 1.26851 14.2861 2.96044C14.3482 4.15669 14.3498 5.36162 14.2825 6.55717C14.1875 8.24816 12.6899 9.51904 10.9607 9.46553C9.25802 9.41296 7.88768 8.07355 7.83382 6.39476C7.81587 5.83782 7.83099 5.27971 7.83051 4.72231Z" fill="#238FFF"/>
<path d="M36.4809 4.72937C36.4816 5.30391 36.5062 5.87962 36.4769 6.45275C36.389 8.1651 34.923 9.50217 33.1903 9.4733C31.4614 9.44443 30.036 8.0569 30.0036 6.34338C29.9831 5.26213 29.9829 4.17995 30.0048 3.0987C30.0398 1.39738 31.49 0.0159531 33.2241 0.00398355C34.9421 -0.0077513 36.3895 1.31805 36.4759 3.00576C36.505 3.57912 36.4802 4.15483 36.4809 4.72937Z" fill="#238FFF"/>
<path d="M16.0153 19.5124C17.5028 19.5124 18.9107 19.5072 20.3184 19.5251C20.4053 19.5263 20.5634 19.7089 20.5645 19.8084C20.5808 21.1905 20.5756 22.5729 20.5756 24.0101C20.3347 24.0249 20.1389 24.0468 19.943 24.0475C18.7865 24.0507 17.6299 24.0498 16.4734 24.0482C16.2556 24.0479 16.0125 24.0916 16.0137 23.7433C16.0182 22.3598 16.0153 20.976 16.0153 19.5124Z" fill="#238FFF"/>
<path d="M7.86914 33.4351C9.37909 33.4351 10.8512 33.4351 12.3666 33.4351C12.3666 34.9259 12.3666 36.4007 12.3666 37.9147C10.8661 37.9147 9.3831 37.9147 7.86914 37.9147C7.86914 36.4246 7.86914 34.9611 7.86914 33.4351Z" fill="#238FFF"/>
<path d="M16.0151 33.4385C17.5623 33.4385 19.0333 33.4385 20.5444 33.4385C20.5444 34.9316 20.5444 36.3935 20.5444 37.9029C20.3906 37.9202 20.2461 37.9503 20.1015 37.9508C18.8762 37.9545 17.6507 37.9625 16.4258 37.9397C16.2872 37.9371 16.0347 37.7546 16.0328 37.6518C16.0063 36.2675 16.0151 34.8826 16.0151 33.4385Z" fill="#238FFF"/>
<path d="M12.4059 30.9581C10.8773 30.9581 9.40392 30.9581 7.88477 30.9581C7.88477 29.4856 7.88477 28.0119 7.88477 26.4662C8.51643 26.4662 9.13959 26.4664 9.76275 26.4662C10.5116 26.4657 11.2606 26.4521 12.0088 26.476C12.1437 26.4803 12.3874 26.6368 12.3889 26.7262C12.4132 28.125 12.4059 29.5245 12.4059 30.9581Z" fill="#238FFF"/>
<path d="M16.0165 30.9462C16.0165 29.5179 16.011 28.1371 16.0278 26.7566C16.029 26.6592 16.1927 26.4811 16.2827 26.4799C17.6887 26.4623 19.0952 26.4675 20.543 26.4675C20.543 27.9806 20.543 29.4397 20.543 30.946C19.051 30.9462 17.5703 30.9462 16.0165 30.9462Z" fill="#238FFF"/>
<path d="M24.2003 19.5366C25.7483 19.5366 27.22 19.5366 28.7646 19.5366C28.7646 20.5231 28.7738 21.4804 28.7516 22.4368C28.749 22.5433 28.5816 22.6679 28.4649 22.7463C27.9017 23.1244 27.3341 23.4962 26.7579 23.8543C26.6072 23.948 26.4227 24.0329 26.2505 24.0395C25.6899 24.0609 25.1268 24.0613 24.5672 24.0287C24.4398 24.0212 24.218 23.8499 24.2164 23.7511C24.193 22.3673 24.2003 20.9828 24.2003 19.5366Z" fill="#238FFF"/>
<path d="M36.9446 21.163C35.3992 21.163 33.9292 21.163 32.4141 21.163C32.4141 20.7152 32.4141 20.155 32.4141 19.5453C32.5494 19.5328 32.6959 19.5082 32.8423 19.5077C34.0492 19.5046 35.2561 19.5197 36.4625 19.4978C36.847 19.4908 36.9793 19.6135 36.9505 19.9898C36.9229 20.3538 36.9446 20.7216 36.9446 21.163Z" fill="#238FFF"/>
<path d="M35.1087 33.7497C35.5289 33.9884 35.9154 33.6845 36.3226 33.4812C37.8274 32.7295 39.3303 31.974 40.8381 31.2281C41.3188 30.9904 41.8352 31.092 42.1349 31.4544C42.4416 31.8247 42.4621 32.3587 42.1434 32.7145C42.0019 32.8724 41.8007 32.9895 41.6075 33.0876C40.0921 33.8558 38.5649 34.6014 37.0597 35.3886C36.7689 35.5407 36.5043 35.8082 36.3215 36.084C35.8878 36.7381 35.1007 37.0284 34.362 36.7397C33.6715 36.4698 33.2612 35.6911 33.4244 34.9603C33.5917 34.2125 34.2526 33.7124 35.1087 33.7497Z" fill="#238FFF"/>
</svg>
