<svg xmlns="http://www.w3.org/2000/svg" fill="none" viewBox="0.36 0.27 22.17 15.56">
<g id="Group 1000003181">
<path id="Vector" d="M22.5309 2.66331C22.5309 2.02823 22.2713 1.41916 21.8093 0.970086C21.3473 0.521016 20.7207 0.26873 20.0674 0.26873H2.82288C2.16951 0.26873 1.54291 0.521016 1.08092 0.970086C0.618922 1.41916 0.359375 2.02823 0.359375 2.66331V13.4389C0.359375 14.074 0.618922 14.6831 1.08092 15.1321C1.54291 15.5812 2.16951 15.8335 2.82288 15.8335H20.0674C20.7207 15.8335 21.3473 15.5812 21.8093 15.1321C22.2713 14.6831 22.5309 14.074 22.5309 13.4389V2.66331Z" fill="#E30917"/>
<path id="Vector_2" d="M10.2173 4.45844C9.23727 4.45844 8.29737 4.83687 7.60437 5.51048C6.91138 6.18408 6.52206 7.09769 6.52206 8.05031C6.52206 9.00294 6.91138 9.91654 7.60437 10.5901C8.29737 11.2638 9.23727 11.6422 10.2173 11.6422C11.0241 11.6422 11.7693 11.3878 12.3772 10.9609C11.9534 11.4295 11.4317 11.8049 10.8468 12.062C10.262 12.3192 9.62745 12.4522 8.98556 12.4521C7.78452 12.4521 6.63267 11.9884 5.78341 11.1629C4.93414 10.3374 4.45703 9.21775 4.45703 8.05031C4.45695 7.47221 4.57402 6.89974 4.80157 6.36562C5.02911 5.8315 5.36267 5.34617 5.78319 4.93736C6.20371 4.52855 6.70296 4.20426 7.25243 3.98301C7.80189 3.76175 8.39081 3.64788 8.98556 3.64788C10.3374 3.64788 11.5476 4.22677 12.3772 5.1397C11.7493 4.69653 10.9932 4.45804 10.2173 4.45844ZM12.6272 7.91262L14.13 7.57619L14.2655 6.08376L15.0587 7.36846L16.5614 7.03262L15.5489 8.16286L16.3416 9.44815L14.9232 8.86148L13.9107 9.99232L14.0462 8.4993L12.6272 7.91262Z" fill="#EEEEEE"/>
</g>
</svg>