<svg width="123" height="123" viewBox="0 0 123 123" fill="none" xmlns="http://www.w3.org/2000/svg">
<circle cx="61.7276" cy="61.236" r="54.6767" fill="white" stroke="#238FFF" stroke-width="12.7816"/>
<path d="M53.3354 76.5132C52.5685 76.5132 52.0146 76.3428 51.6738 76.0019C51.3329 75.6327 51.1625 75.1356 51.1625 74.5107C51.1625 74.1131 51.2619 73.7296 51.4608 73.3604C51.6596 72.9912 51.9436 72.6077 52.3129 72.2101L61.3878 62.4961C62.7795 61.0191 63.7737 59.6699 64.3701 58.4486C64.995 57.1988 65.3074 55.9491 65.3074 54.6993C65.3074 53.1087 64.8246 51.9016 63.8589 51.0779C62.8932 50.2542 61.473 49.8423 59.5984 49.8423C58.4622 49.8423 57.3687 50.0128 56.3178 50.3536C55.2668 50.6944 54.2159 51.2483 53.165 52.0152C52.7389 52.2992 52.3413 52.4271 51.972 52.3986C51.6028 52.3702 51.2761 52.2282 50.9921 51.9726C50.7365 51.717 50.5661 51.4045 50.4808 51.0353C50.3956 50.666 50.4098 50.2826 50.5234 49.8849C50.6371 49.4873 50.9069 49.1465 51.3329 48.8624C52.4975 47.9819 53.8467 47.3002 55.3804 46.8174C56.9142 46.3345 58.4764 46.0931 60.067 46.0931C62.1405 46.0931 63.8873 46.4197 65.3074 47.073C66.756 47.6979 67.8496 48.621 68.588 49.8423C69.3265 51.0637 69.6958 52.5549 69.6958 54.3159C69.6958 55.5088 69.497 56.6734 69.0993 57.8095C68.7301 58.9456 68.1478 60.1102 67.3525 61.3031C66.5856 62.4677 65.5773 63.7032 64.3275 65.0098L55.7213 74.0421V72.8065H69.2697C69.8946 72.8065 70.3775 72.9628 70.7183 73.2752C71.0591 73.5876 71.2296 74.0421 71.2296 74.6386C71.2296 75.235 71.0591 75.7037 70.7183 76.0445C70.3775 76.357 69.8946 76.5132 69.2697 76.5132H53.3354Z" fill="#292930"/>
</svg>
