<svg width="16" height="24" viewBox="0 0 16 24" fill="none" xmlns="http://www.w3.org/2000/svg">
<path d="M8.4597 0.28408C9.97522 0.439115 11.3893 1.39865 11.9781 2.76044C12.1019 3.04776 12.1922 3.34765 12.2544 3.65293C12.5681 5.20268 12.0658 6.52975 10.8559 7.60182C10.8161 7.63713 10.7756 7.67185 10.7358 7.70717C10.7308 7.71196 10.7289 7.72034 10.7177 7.74308C10.8783 7.80773 11.0414 7.86579 11.1976 7.93882C14.2473 9.35448 15.8687 11.6902 15.9863 14.9519C16.0317 16.2227 15.4927 17.2924 14.51 18.1465C14.4639 18.1866 14.4141 18.2226 14.3643 18.2585C14.3538 18.2657 14.3357 18.2627 14.3058 18.2657C14.1751 16.3645 13.348 14.8094 11.769 13.6529C10.5758 12.779 9.21217 12.3791 7.71781 12.445C4.43966 12.5892 1.84304 15.1111 1.68993 18.298C1.59595 18.2274 1.51691 18.1765 1.44782 18.1154C0.408426 17.1888 -0.0894882 16.0371 0.0132066 14.6813C0.265276 11.3663 2.0086 9.07374 5.18653 7.78917C5.21517 7.7778 5.24131 7.76164 5.27429 7.74488C5.07513 7.54615 4.86227 7.36298 4.68489 7.15228C3.62931 5.90003 3.34923 4.49215 3.93553 2.9873C4.60335 1.27355 6.38526 0.151793 8.28979 0.269714C8.34642 0.273306 8.40306 0.278095 8.4597 0.28408Z" fill="#E33694"/>
<path d="M7.53006 23.2459C7.24314 23.1866 6.95248 23.1411 6.67054 23.0663C4.39631 22.4593 2.93992 20.4175 3.10672 18.0807C3.25796 15.9623 5.08095 14.1228 7.32281 13.8271C9.94495 13.4811 12.4376 15.2427 12.8372 17.7251C13.2555 20.323 11.5296 22.6886 8.86883 23.1669C8.73253 23.1914 8.59747 23.2195 8.46178 23.2465C8.15121 23.2459 7.84064 23.2459 7.53006 23.2459ZM7.53753 18.4596C7.39936 18.3123 7.29044 18.174 7.15912 18.0591C6.87468 17.8107 6.4527 17.8269 6.19254 18.0836C5.92927 18.3434 5.91931 18.7415 6.18756 19.0139C6.48133 19.3119 6.78319 19.6029 7.09314 19.8854C7.38629 20.153 7.79707 20.1524 8.07403 19.8734C8.66344 19.279 9.24164 18.6745 9.81922 18.0693C9.98104 17.8999 10.0371 17.6916 9.97731 17.4647C9.91071 17.2127 9.74391 17.0415 9.48251 16.9769C9.21488 16.9104 8.97401 16.9757 8.78169 17.1732C8.37901 17.5868 7.97881 18.0028 7.53753 18.4596Z" fill="#E33694"/>
</svg>
