<svg width="82" height="82" viewBox="0 0 82 82" fill="none" xmlns="http://www.w3.org/2000/svg">
<path d="M40.5695 51.5071C47.5729 51.5071 53.2503 45.8297 53.2503 38.8263C53.2503 31.8229 47.5729 26.1455 40.5695 26.1455C33.5661 26.1455 27.8887 31.8229 27.8887 38.8263C27.8887 45.8297 33.5661 51.5071 40.5695 51.5071Z" stroke="#238FFF" stroke-width="2.43475" stroke-miterlimit="10"/>
<path d="M20.2168 63.9984C22.125 60.2399 25.0366 57.0831 28.6291 54.8781C32.2215 52.6731 36.3543 51.5059 40.5695 51.5059C44.7846 51.5059 48.9175 52.6731 52.5099 54.8781C56.1023 57.0831 59.014 60.2399 60.9221 63.9984" stroke="#238FFF" stroke-width="2.43475" stroke-linecap="round" stroke-linejoin="round"/>
<path d="M63.3965 23.6095C66.1979 23.6095 68.4689 21.3385 68.4689 18.5372C68.4689 15.7358 66.1979 13.4648 63.3965 13.4648C60.5952 13.4648 58.3242 15.7358 58.3242 18.5372C58.3242 21.3385 60.5952 23.6095 63.3965 23.6095Z" stroke="#238FFF" stroke-width="2.43475" stroke-linecap="round" stroke-linejoin="round"/>
<path d="M63.3945 13.4644V9.66016" stroke="#238FFF" stroke-width="2.43475" stroke-linecap="round" stroke-linejoin="round"/>
<path d="M58.9958 16.0008L55.7305 14.0986" stroke="#238FFF" stroke-width="2.43475" stroke-linecap="round" stroke-linejoin="round"/>
<path d="M58.9958 21.0732L55.7305 22.9754" stroke="#238FFF" stroke-width="2.43475" stroke-linecap="round" stroke-linejoin="round"/>
<path d="M63.3945 23.6094V27.4136" stroke="#238FFF" stroke-width="2.43475" stroke-linecap="round" stroke-linejoin="round"/>
<path d="M67.8047 21.0732L71.07 22.9754" stroke="#238FFF" stroke-width="2.43475" stroke-linecap="round" stroke-linejoin="round"/>
<path d="M67.8047 16.0008L71.07 14.0986" stroke="#238FFF" stroke-width="2.43475" stroke-linecap="round" stroke-linejoin="round"/>
<path d="M70.7768 37.7174C70.9306 38.9265 71.0047 40.1444 70.9987 41.3632C70.9987 47.3824 69.2138 53.2665 65.8697 58.2714C62.5255 63.2762 57.7724 67.177 52.2113 69.4804C46.6503 71.7839 40.531 72.3866 34.6274 71.2123C28.7238 70.038 23.301 67.1395 19.0448 62.8832C14.7885 58.6269 11.89 53.2041 10.7157 47.3005C9.54135 41.3969 10.144 35.2777 12.4475 29.7166C14.751 24.1555 18.6518 19.4024 23.6566 16.0583C28.6614 12.7142 34.5455 10.9293 40.5648 10.9293C41.5068 10.9233 42.4485 10.9656 43.3863 11.0561" stroke="#238FFF" stroke-width="2.43475" stroke-linecap="round" stroke-linejoin="round"/>
</svg>
