<svg width="89" height="89" viewBox="0 0 89 89" fill="none" xmlns="http://www.w3.org/2000/svg">
<g clip-path="url(#clip0_0_8202)">
<path d="M56.7675 42.122C57.2656 42.4136 57.7122 42.6765 58.1596 42.9384C58.964 43.4086 59.7702 43.876 60.5737 44.3497C61.2227 44.732 61.2235 45.308 60.5763 45.6866C59.4275 46.3595 58.2768 47.0297 57.1271 47.7008C57.0232 47.7609 56.922 47.8255 56.7853 47.909C56.8892 47.978 56.9646 48.0337 57.0445 48.0803C58.2236 48.7676 59.4026 49.4548 60.5825 50.1403C61.2129 50.5064 61.2218 51.0859 60.5914 51.4538C58.4837 52.6857 56.3742 53.913 54.2656 55.1422C51.8783 56.5338 49.4882 57.919 47.108 59.3214C46.7182 59.5511 46.3933 59.552 45.9991 59.3214C41.5484 56.715 37.0879 54.1212 32.6328 51.5193C32.465 51.4206 32.2866 51.3013 32.1783 51.1452C31.9448 50.8078 32.0877 50.4184 32.5059 50.1726C33.6742 49.488 34.8435 48.8071 36.0128 48.1243C36.114 48.0651 36.2134 48.0005 36.3466 47.9179C36.2143 47.8336 36.1167 47.7663 36.0146 47.7062C34.8551 47.0288 33.6947 46.3541 32.5369 45.6749C31.9101 45.3071 31.9128 44.7293 32.5432 44.3596C33.7018 43.6813 34.8622 43.0066 36.0217 42.3284C36.1238 42.2691 36.2205 42.2009 36.3564 42.1139C35.8414 41.8125 35.3656 41.5334 34.8897 41.2553C34.1137 40.8022 33.336 40.3509 32.56 39.8978C31.911 39.5192 31.9048 38.9432 32.5511 38.5655C37.0737 35.9277 41.599 33.2926 46.1207 30.6504C46.4341 30.4673 46.7138 30.4709 47.0236 30.6522C51.5462 33.2926 56.0715 35.9277 60.5941 38.5682C61.2244 38.936 61.2218 39.5192 60.5923 39.8889C59.3396 40.6246 58.0833 41.354 56.7675 42.122ZM34.0711 50.8087C34.2283 50.9038 34.3321 50.9684 34.4369 51.0294C38.3655 53.32 42.2968 55.6079 46.2201 57.9074C46.4749 58.0572 46.6543 58.0563 46.9082 57.9074C50.5519 55.7658 54.2026 53.6367 57.8516 51.5031C58.2298 51.2824 58.6062 51.0581 59.0128 50.8186C58.9054 50.7477 58.8344 50.6966 58.7607 50.6526C57.7397 50.047 56.7134 49.4503 55.7004 48.8322C55.4802 48.6976 55.3248 48.7003 55.1029 48.8313C52.4243 50.4041 49.7368 51.9616 47.0591 53.5344C46.6916 53.7506 46.3826 53.7515 46.0115 53.5326C43.356 51.9643 40.689 50.4157 38.0326 48.8501C37.7938 48.7093 37.6135 48.6734 37.3792 48.8447C37.1474 49.0143 36.8855 49.1426 36.6378 49.2897C35.7997 49.785 34.9616 50.2821 34.0711 50.8087ZM59.0395 45.0244C58.9179 44.9464 58.8379 44.8917 58.7554 44.8432C57.7175 44.2448 56.6743 43.6553 55.6444 43.0443C55.4385 42.9223 55.2973 42.9465 55.1046 43.0596C52.4269 44.6333 49.7422 46.1944 47.0662 47.7717C46.6996 47.9879 46.3924 47.9951 46.0195 47.7753C43.3445 46.1962 40.6588 44.6369 37.982 43.0605C37.7716 42.9367 37.6224 42.9367 37.4147 43.0614C36.5206 43.5979 35.6159 44.1156 34.7148 44.6413C34.5177 44.7562 34.3206 44.8728 34.0871 45.0101C34.2087 45.0908 34.286 45.1483 34.3685 45.1958C38.3451 47.5151 42.3226 49.8326 46.2956 52.1581C46.4945 52.2747 46.6356 52.2765 46.8354 52.159C50.7507 49.8658 54.6705 47.5815 58.5885 45.2945C58.727 45.2138 58.8646 45.1294 59.0395 45.0244Z" fill="#238FFF"/>
</g>
<circle opacity="0.8" cx="44.452" cy="44.518" r="34.0735" stroke="#238FFF" stroke-width="2.72588"/>
<circle cx="44.4539" cy="44.5178" r="41.3425" stroke="#238FFF" stroke-width="4.54313"/>
<defs>
<clipPath id="clip0_0_8202">
<rect width="29" height="28.9806" fill="white" transform="translate(32.0664 30.5151)"/>
</clipPath>
</defs>
</svg>
