<svg width="88" height="88" viewBox="0 0 88 88" fill="none" xmlns="http://www.w3.org/2000/svg">
<circle opacity="0.8" cx="43.62" cy="44.1073" r="34.0735" stroke="#238FFF" stroke-width="2.72588"/>
<circle cx="43.614" cy="44.1072" r="41.3425" stroke="#238FFF" stroke-width="4.54313"/>
<path d="M42.0872 42.5382C44.1698 42.5382 46.1672 41.7114 47.6398 40.2398C49.1124 38.7682 49.9397 36.7722 49.9397 34.691C49.9397 32.6098 49.1124 30.6138 47.6398 29.1421C46.1672 27.6705 44.1698 26.8438 42.0872 26.8438C40.0046 26.8438 38.0073 27.6705 36.5347 29.1421C35.0621 30.6138 34.2347 32.6098 34.2347 34.691C34.2347 36.7722 35.0621 38.7682 36.5347 40.2398C38.0073 41.7114 40.0046 42.5382 42.0872 42.5382ZM42.0872 42.5382C45.2486 42.5382 48.0112 43.731 49.9758 45.7132C51.1409 46.8932 52.0124 48.3302 52.5201 49.9083M42.0872 42.5382C35.8052 42.5382 31.0938 47.2465 31.0938 53.5243V61.3715H46.7987M48.3692 54.8175L54.9496 59.8021L65.6447 45.6771" stroke="#238FFF" stroke-width="3.13889"/>
</svg>
