<svg width="89" height="88" viewBox="0 0 89 88" fill="none" xmlns="http://www.w3.org/2000/svg">
<circle opacity="0.8" cx="44.4794" cy="44.2196" r="34.0735" stroke="#238FFF" stroke-width="2.72588"/>
<g clip-path="url(#clip0_0_8162)">
<path fill-rule="evenodd" clip-rule="evenodd" d="M41.6878 31.155C38.8862 31.9699 36.3954 33.6108 34.541 35.8634C32.6866 38.116 31.5546 40.8756 31.293 43.7815H37.9178C38.3019 39.3596 39.584 35.0624 41.6857 31.1529L41.6878 31.155ZM37.9178 46.3694H31.293C31.554 49.2754 32.6855 52.0352 34.5396 54.2882C36.3937 56.5412 38.8842 58.1826 41.6857 58.998C39.584 55.0885 38.3019 50.7913 37.9178 46.3694ZM45.0064 59.5507C42.4948 55.5706 40.9557 51.0549 40.5139 46.3694H50.9377C50.4959 51.0549 48.9569 55.5706 46.4452 59.5507C45.9659 59.574 45.4857 59.574 45.0064 59.5507ZM49.768 58.9959C52.5693 58.1806 55.0595 56.5396 56.9136 54.287C58.7676 52.0344 59.8993 49.2751 60.1608 46.3694H53.5359C53.1518 50.7913 51.8697 55.0885 49.768 58.998V58.9959ZM53.5359 43.7815H60.1608C59.8997 40.8754 58.7682 38.1157 56.9141 35.8627C55.06 33.6097 52.5696 31.9683 49.768 31.1529C51.8698 35.0624 53.1519 39.3595 53.5359 43.7815ZM45.0064 30.6001C45.4864 30.5766 45.9673 30.5766 46.4473 30.6001C48.9582 34.5805 50.4966 39.0961 50.9377 43.7815H40.516C40.9653 39.0675 42.5076 34.5481 45.0064 30.6001Z" fill="#238FFF"/>
</g>
<circle cx="44.4734" cy="44.2195" r="41.3425" stroke="#238FFF" stroke-width="4.54313"/>
<defs>
<clipPath id="clip0_0_8162">
<rect width="28.9837" height="28.9837" fill="white" transform="translate(31.2344 30.5835)"/>
</clipPath>
</defs>
</svg>
