<svg width="25" height="26" viewBox="0 0 25 26" fill="none" xmlns="http://www.w3.org/2000/svg">
<circle cx="12.322" cy="12.9661" r="12.322" fill="#F0F8FF"/>
<path d="M16.2848 11.0808C16.2848 12.7354 16.2848 14.3902 16.2848 16.0447C16.2809 16.0542 16.2753 16.0631 16.273 16.073C16.1836 16.4447 15.928 16.6478 15.5475 16.6478C13.3983 16.648 11.249 16.648 9.09984 16.6478C8.66415 16.6478 8.36749 16.3507 8.36728 15.9146C8.36707 14.3321 8.36728 12.7498 8.36728 11.1676C8.36728 11.1403 8.36728 11.113 8.36728 11.0808C11.0133 11.0808 13.6489 11.0808 16.2848 11.0808ZM13.2535 12.0291C13.2523 11.8983 13.173 11.8024 13.0664 11.7807C12.9548 11.758 12.8513 11.8185 12.7988 11.9408C12.3416 13.0068 11.8847 14.073 11.4283 15.1395C11.3672 15.2826 11.4145 15.4177 11.5413 15.4702C11.6655 15.5217 11.7931 15.4634 11.8531 15.3239C12.3104 14.2579 12.7672 13.1919 13.2234 12.1255C13.2395 12.0879 13.2479 12.0474 13.2535 12.0291ZM10.1481 13.6326C10.1778 13.608 10.2008 13.5884 10.2243 13.5696C10.5057 13.3444 10.7879 13.1203 11.0684 12.8938C11.1806 12.8031 11.1978 12.6625 11.1143 12.5587C11.0327 12.4571 10.893 12.4418 10.7831 12.529C10.3983 12.835 10.014 13.142 9.6314 13.4508C9.51013 13.5487 9.5093 13.7148 9.63037 13.8125C10.0148 14.1232 10.3999 14.4331 10.7902 14.7366C10.8383 14.774 10.9201 14.7874 10.9835 14.7816C11.0777 14.773 11.1383 14.7042 11.1593 14.61C11.1812 14.5121 11.1459 14.4325 11.0695 14.3712C10.8366 14.1842 10.603 13.9981 10.37 13.8115C10.2983 13.7541 10.2268 13.6962 10.1481 13.6326ZM14.5048 13.6314C14.4734 13.6574 14.452 13.6758 14.4301 13.6933C14.1507 13.9171 13.8708 14.1402 13.5919 14.3643C13.4735 14.4594 13.4521 14.5963 13.5363 14.7038C13.62 14.8106 13.7613 14.8217 13.8795 14.7275C14.2561 14.4276 14.6323 14.1272 15.0075 13.8253C15.1465 13.7136 15.1457 13.55 15.006 13.4376C14.6309 13.136 14.2547 12.8356 13.878 12.5356C13.7628 12.4439 13.6248 12.4536 13.5401 12.5561C13.4529 12.6614 13.4719 12.8023 13.5874 12.8963C13.6872 12.9777 13.7882 13.0575 13.8888 13.1378C14.0915 13.3002 14.2939 13.4626 14.5048 13.6314Z" fill="#238FFF"/>
<path d="M16.2826 9.36426C16.2826 9.78178 16.2826 10.1993 16.2826 10.6168C13.6448 10.6168 11.0073 10.6168 8.3673 10.6168C8.3673 10.2022 8.36668 9.7979 8.36833 9.3936C8.36854 9.35559 8.37928 9.31716 8.3892 9.27998C8.46998 8.9767 8.7373 8.76247 9.05152 8.76226C11.2341 8.76061 13.417 8.76144 15.5996 8.76144C15.6021 8.76144 15.6047 8.76144 15.6072 8.76164C15.8791 8.77817 16.082 8.90481 16.2065 9.14693C16.2414 9.21449 16.2578 9.29154 16.2826 9.36426ZM14.4193 9.68902C14.1929 9.68902 13.9665 9.68861 13.7401 9.68923C13.5899 9.68964 13.4851 9.78426 13.4839 9.91896C13.4827 10.0539 13.5876 10.1526 13.7357 10.1528C14.1861 10.1534 14.6363 10.1534 15.0866 10.1528C15.2356 10.1526 15.3399 10.0545 15.3389 9.91937C15.3378 9.78447 15.2333 9.68985 15.0831 9.68944C14.8618 9.68861 14.6406 9.68902 14.4193 9.68902ZM9.53639 9.68923C9.4112 9.6913 9.30749 9.79769 9.30852 9.92288C9.30955 10.0481 9.41492 10.1528 9.54011 10.1528C9.6684 10.1528 9.775 10.0435 9.7719 9.91524C9.7688 9.78984 9.66179 9.68716 9.53639 9.68923ZM10.6999 9.91792C10.6982 9.79273 10.5925 9.68861 10.4671 9.68923C10.3419 9.68985 10.2369 9.7948 10.2365 9.91999C10.2361 10.0483 10.3452 10.1555 10.4731 10.1526C10.5985 10.1499 10.7013 10.0431 10.6999 9.91792ZM11.6277 9.92102C11.6279 9.79562 11.5236 9.69026 11.3982 9.68923C11.273 9.68799 11.1666 9.7919 11.1645 9.91689C11.1622 10.0452 11.2699 10.1536 11.398 10.1526C11.5232 10.1516 11.6275 10.0464 11.6277 9.92102Z" fill="#238FFF"/>
</svg>
