<svg width="22" height="20" viewBox="0 0 22 20" fill="none" xmlns="http://www.w3.org/2000/svg">
<path d="M7.97921 0.7854V19.1479C3.93581 17.8778 0.988281 14.2488 0.988281 9.96667C0.988281 5.6845 3.93581 2.01925 7.97921 0.7854Z" fill="#FF0000"/>
<path d="M20.4925 13.1604C19.1321 16.8982 15.391 19.5837 11.0453 19.5837C9.98718 19.5837 8.96688 19.4385 7.98438 19.1119V13.1604H20.4925Z" fill="black"/>
<path d="M20.4925 6.77327H7.98438V0.785486C8.9291 0.495169 9.98718 0.313721 11.0453 0.313721C15.391 0.313721 19.1321 2.99915 20.4925 6.73698V6.77327Z" fill="#00732F"/>
<path d="M21.0593 9.96692C21.0593 11.0919 20.8704 12.1806 20.4925 13.1604H7.98438V6.77344H20.4925C20.8704 7.78955 21.0593 8.84194 21.0593 9.96692Z" fill="white"/>
</svg>
