<svg width="30" height="31" viewBox="0 0 30 31" fill="none" xmlns="http://www.w3.org/2000/svg">
<g clip-path="url(#clip0_344_224)">
<path d="M0 29.5675C0.253567 28.8131 0.500091 28.0563 0.760702 27.3042C1.34453 25.6192 1.9495 23.9444 2.79629 22.3651C3.62429 20.8202 5.43057 20.0924 7.08345 20.5072C8.78016 20.9337 9.99322 22.441 9.99244 24.2027C9.99244 25.6677 9.37026 26.819 8.0719 27.5578C6.81267 28.2746 5.46579 28.7912 4.10404 29.2685C3.08351 29.627 2.05202 29.9518 1.02601 30.2938C0.954791 30.3173 0.888269 30.3564 0.819399 30.3885H0.468004C0.312264 30.2312 0.156523 30.0754 0 29.9189C0 29.8015 0 29.6849 0 29.5675Z" fill="#CD9778"/>
<path d="M15.894 23.485C15.6968 23.6603 15.5301 23.8082 15.3634 23.9554C14.9526 24.3185 14.6606 24.3138 14.274 23.9272C12.3535 22.009 10.4345 20.0893 8.51477 18.1695C7.83154 17.4863 7.14676 16.8031 6.46431 16.1191C6.07457 15.7285 6.06675 15.4382 6.42753 15.0312C6.57545 14.8645 6.72336 14.6963 6.91119 14.4842C6.43927 14.4122 6.01431 14.3441 5.58779 14.2838C4.4483 14.1218 3.30881 13.9622 2.16932 13.8025C1.89541 13.7642 1.68566 13.6327 1.60114 13.3635C1.51349 13.0841 1.61679 12.8563 1.82419 12.6536C3.98655 10.5429 6.5371 9.13499 9.48599 8.4909C10.4337 8.28429 11.4167 8.23811 12.3817 8.10429C12.521 8.08472 12.6845 8.0182 12.7777 7.91802C16.1069 4.36495 20.1468 2.03588 24.873 0.894049C26.2911 0.552046 27.7342 0.383001 29.1954 0.391609C29.7737 0.395522 29.9968 0.611524 29.9999 1.18205C30.0171 4.29295 29.2509 7.22541 27.9542 10.0311C26.6198 12.9174 24.8057 15.4609 22.4539 17.6092C22.281 17.7672 22.2857 17.9425 22.2755 18.1359C22.0689 22.1162 20.5937 25.5535 17.849 28.4445C17.795 28.5008 17.7426 28.5603 17.6823 28.6088C17.4804 28.7708 17.2597 28.8499 17.003 28.7481C16.7526 28.6487 16.6219 28.4632 16.5843 28.1972C16.3699 26.6711 16.1507 25.1457 15.9332 23.6196C15.9293 23.5922 15.9183 23.5656 15.894 23.485ZM24.5427 8.97925C24.5474 7.26141 23.134 5.84644 21.4146 5.84644C19.7062 5.84644 18.3037 7.24106 18.2896 8.95108C18.2763 10.6674 19.6811 12.0886 21.4021 12.0988C23.1184 12.1089 24.538 10.6979 24.5427 8.97847V8.97925Z" fill="#CD9778"/>
</g>
<defs>
<clipPath id="clip0_344_224">
<rect width="30" height="29.9961" fill="white" transform="translate(0 0.391602)"/>
</clipPath>
</defs>
</svg>
