<svg width="72" height="72" viewBox="0 0 72 72" fill="none" xmlns="http://www.w3.org/2000/svg">
<circle cx="35.9935" cy="36.2283" r="35.6077" fill="#238FFF"/>
<path d="M29.8685 44.2415C28.9594 44.2415 28.1399 44.0555 27.4098 43.6836C26.6798 43.2979 26.053 42.7745 25.5296 42.1133C25.02 41.4522 24.6274 40.6739 24.3519 39.7786C24.0764 38.8695 23.9387 37.8915 23.9387 36.8447C23.9387 35.7978 24.0764 34.8267 24.3519 33.9314C24.6274 33.0223 25.02 32.2372 25.5296 31.576C26.053 30.9148 26.6798 30.3983 27.4098 30.0264C28.1399 29.6407 28.9594 29.4479 29.8685 29.4479C30.7776 29.4479 31.5972 29.6407 32.3272 30.0264C33.0573 30.3983 33.6771 30.9148 34.1868 31.576C34.7102 32.2372 35.1097 33.0223 35.3851 33.9314C35.6606 34.8267 35.7984 35.7978 35.7984 36.8447C35.7984 37.8915 35.6606 38.8695 35.3851 39.7786C35.1097 40.6739 34.7102 41.4522 34.1868 42.1133C33.6771 42.7745 33.0573 43.2979 32.3272 43.6836C31.5972 44.0555 30.7776 44.2415 29.8685 44.2415ZM29.8685 41.6795C30.3644 41.6795 30.8121 41.5624 31.2115 41.3282C31.611 41.0803 31.9484 40.7428 32.2239 40.3158C32.5132 39.875 32.7267 39.3585 32.8644 38.7662C33.016 38.1739 33.0917 37.5334 33.0917 36.8447C33.0917 36.1422 33.016 35.5017 32.8644 34.9232C32.7267 34.3309 32.5132 33.8212 32.2239 33.3942C31.9484 32.9534 31.611 32.616 31.2115 32.3818C30.8121 32.1339 30.3644 32.0099 29.8685 32.0099C29.3589 32.0099 28.9043 32.1339 28.5049 32.3818C28.1054 32.616 27.7679 32.9534 27.4925 33.3942C27.217 33.8212 27.0035 34.3309 26.852 34.9232C26.7142 35.5017 26.6453 36.1422 26.6453 36.8447C26.6453 37.5334 26.7142 38.1739 26.852 38.7662C27.0035 39.3585 27.217 39.875 27.4925 40.3158C27.7679 40.7428 28.1054 41.0803 28.5049 41.3282C28.9043 41.5624 29.3589 41.6795 29.8685 41.6795ZM42.5569 44.2415C42.0197 44.2415 41.4825 44.1657 40.9453 44.0142C40.4219 43.8627 39.9329 43.6285 39.4784 43.3117C39.0238 42.9949 38.6244 42.6023 38.28 42.134C37.9494 41.6519 37.7015 41.0803 37.5362 40.4191L39.9949 39.4687C40.1464 40.1574 40.4357 40.7084 40.8627 41.1216C41.3035 41.5348 41.8613 41.7414 42.5363 41.7414C42.8668 41.7414 43.1699 41.6863 43.4454 41.5761C43.7346 41.4522 43.9826 41.2869 44.1892 41.0803C44.4096 40.8737 44.5749 40.6326 44.6851 40.3571C44.809 40.0679 44.871 39.751 44.871 39.4067C44.871 39.0761 44.809 38.7731 44.6851 38.4976C44.5749 38.2083 44.4165 37.9604 44.2098 37.7538C44.0032 37.5334 43.7553 37.3681 43.466 37.2579C43.1905 37.1339 42.8806 37.0719 42.5363 37.0719C42.1093 37.0719 41.7305 37.1684 41.3999 37.3612C41.0693 37.5403 40.7869 37.7675 40.5528 38.043L37.9288 36.8447L38.7552 29.7784H46.7099V32.1545H41.0073L40.4701 35.4603L40.6354 35.5017C40.9109 35.2675 41.2484 35.0678 41.6478 34.9025C42.0473 34.7372 42.5294 34.6546 43.0941 34.6546C43.6864 34.6546 44.2512 34.7716 44.7884 35.0058C45.3256 35.2262 45.8008 35.543 46.214 35.9562C46.6272 36.3695 46.9578 36.8722 47.2058 37.4645C47.4537 38.043 47.5777 38.6904 47.5777 39.4067C47.5777 40.1092 47.4537 40.7566 47.2058 41.3489C46.9578 41.9412 46.6066 42.4508 46.152 42.8778C45.7112 43.3048 45.1809 43.6423 44.5611 43.8902C43.955 44.1244 43.287 44.2415 42.5569 44.2415Z" fill="white"/>
</svg>
