<svg width="72" height="72" viewBox="0 0 72 72" fill="none" xmlns="http://www.w3.org/2000/svg">
<circle cx="35.6077" cy="35.6077" r="35.6077" fill="#238FFF"/>
<path d="M30.3861 43.6205C29.477 43.6205 28.6574 43.4345 27.9274 43.0626C27.1973 42.677 26.5706 42.1535 26.0472 41.4924C25.5375 40.8312 25.145 40.053 24.8695 39.1576C24.594 38.2485 24.4562 37.2705 24.4562 36.2237C24.4562 35.1768 24.594 34.2058 24.8695 33.3104C25.145 32.4013 25.5375 31.6162 26.0472 30.955C26.5706 30.2939 27.1973 29.7773 27.9274 29.4054C28.6574 29.0197 29.477 28.8269 30.3861 28.8269C31.2952 28.8269 32.1148 29.0197 32.8448 29.4054C33.5748 29.7773 34.1947 30.2939 34.7043 30.955C35.2278 31.6162 35.6272 32.4013 35.9027 33.3104C36.1782 34.2058 36.3159 35.1768 36.3159 36.2237C36.3159 37.2705 36.1782 38.2485 35.9027 39.1576C35.6272 40.053 35.2278 40.8312 34.7043 41.4924C34.1947 42.1535 33.5748 42.677 32.8448 43.0626C32.1148 43.4345 31.2952 43.6205 30.3861 43.6205ZM30.3861 41.0585C30.882 41.0585 31.3296 40.9414 31.7291 40.7072C32.1285 40.4593 32.466 40.1218 32.7415 39.6948C33.0308 39.254 33.2443 38.7375 33.382 38.1452C33.5335 37.5529 33.6093 36.9124 33.6093 36.2237C33.6093 35.5212 33.5335 34.8807 33.382 34.3022C33.2443 33.7099 33.0308 33.2002 32.7415 32.7732C32.466 32.3325 32.1285 31.995 31.7291 31.7608C31.3296 31.5129 30.882 31.3889 30.3861 31.3889C29.8764 31.3889 29.4219 31.5129 29.0224 31.7608C28.623 31.995 28.2855 32.3325 28.01 32.7732C27.7345 33.2002 27.521 33.7099 27.3695 34.3022C27.2318 34.8807 27.1629 35.5212 27.1629 36.2237C27.1629 36.9124 27.2318 37.5529 27.3695 38.1452C27.521 38.7375 27.7345 39.254 28.01 39.6948C28.2855 40.1218 28.623 40.4593 29.0224 40.7072C29.4219 40.9414 29.8764 41.0585 30.3861 41.0585ZM37.9759 43.2899V40.8312C38.7886 40.0323 39.5393 39.2885 40.228 38.5998C40.5173 38.3105 40.8135 38.0144 41.1165 37.7113C41.4195 37.4083 41.7019 37.1259 41.9636 36.8642C42.2253 36.6025 42.4595 36.3683 42.6661 36.1617C42.8727 35.9413 43.0311 35.7691 43.1413 35.6452C43.3617 35.3835 43.5545 35.1493 43.7198 34.9427C43.8989 34.7361 44.0366 34.5363 44.1331 34.3435C44.2433 34.1369 44.3259 33.9372 44.381 33.7443C44.4361 33.5377 44.4636 33.3173 44.4636 33.0832C44.4636 32.6286 44.2846 32.236 43.9264 31.9054C43.5683 31.5611 43.0793 31.3889 42.4595 31.3889C41.8396 31.3889 41.3575 31.568 41.0132 31.9261C40.6688 32.2705 40.4347 32.663 40.3107 33.1038L37.852 32.0914C37.9622 31.7195 38.1412 31.3407 38.3892 30.955C38.6371 30.5556 38.9539 30.2043 39.3396 29.9013C39.7253 29.5845 40.1798 29.3297 40.7033 29.1368C41.2405 28.9302 41.8396 28.8269 42.5008 28.8269C43.2171 28.8269 43.8645 28.9371 44.443 29.1575C45.0215 29.3641 45.5105 29.6533 45.9099 30.0253C46.3094 30.3972 46.6193 30.8379 46.8397 31.3476C47.0601 31.8435 47.1703 32.3807 47.1703 32.9592C47.1703 33.8407 46.9499 34.6534 46.5091 35.3972C46.0821 36.1273 45.5587 36.8091 44.9389 37.4427L43.162 39.2196C42.6936 39.6879 42.1633 40.2114 41.571 40.7899L41.6537 40.9138H47.3769V43.2899H37.9759Z" fill="white"/>
</svg>
