<svg width="72" height="73" viewBox="0 0 72 73" fill="none" xmlns="http://www.w3.org/2000/svg">
<circle cx="35.9935" cy="36.4542" r="35.6077" fill="#238FFF"/>
<path d="M30.0199 44.4673C29.1108 44.4673 28.2912 44.2813 27.5611 43.9094C26.8311 43.5238 26.2044 43.0003 25.6809 42.3392C25.1713 41.678 24.7787 40.8998 24.5032 40.0044C24.2278 39.0953 24.09 38.1173 24.09 37.0705C24.09 36.0236 24.2278 35.0526 24.5032 34.1572C24.7787 33.2481 25.1713 32.463 25.6809 31.8018C26.2044 31.1407 26.8311 30.6241 27.5611 30.2522C28.2912 29.8665 29.1108 29.6737 30.0199 29.6737C30.929 29.6737 31.7485 29.8665 32.4786 30.2522C33.2086 30.6241 33.8285 31.1407 34.3381 31.8018C34.8615 32.463 35.261 33.2481 35.5365 34.1572C35.812 35.0526 35.9497 36.0236 35.9497 37.0705C35.9497 38.1173 35.812 39.0953 35.5365 40.0044C35.261 40.8998 34.8615 41.678 34.3381 42.3392C33.8285 43.0003 33.2086 43.5238 32.4786 43.9094C31.7485 44.2813 30.929 44.4673 30.0199 44.4673ZM30.0199 41.9053C30.5157 41.9053 30.9634 41.7882 31.3629 41.554C31.7623 41.3061 32.0998 40.9686 32.3753 40.5416C32.6645 40.1008 32.878 39.5843 33.0158 38.992C33.1673 38.3997 33.243 37.7592 33.243 37.0705C33.243 36.368 33.1673 35.7275 33.0158 35.149C32.878 34.5567 32.6645 34.047 32.3753 33.62C32.0998 33.1793 31.7623 32.8418 31.3629 32.6076C30.9634 32.3597 30.5157 32.2357 30.0199 32.2357C29.5102 32.2357 29.0557 32.3597 28.6562 32.6076C28.2567 32.8418 27.9193 33.1793 27.6438 33.62C27.3683 34.047 27.1548 34.5567 27.0033 35.149C26.8655 35.7275 26.7967 36.368 26.7967 37.0705C26.7967 37.7592 26.8655 38.3997 27.0033 38.992C27.1548 39.5843 27.3683 40.1008 27.6438 40.5416C27.9193 40.9686 28.2567 41.3061 28.6562 41.554C29.0557 41.7882 29.5102 41.9053 30.0199 41.9053ZM42.6669 44.4673C42.0884 44.4673 41.5306 44.3915 40.9934 44.24C40.4699 44.0885 39.9878 43.8612 39.5471 43.5582C39.1063 43.2414 38.7137 42.8488 38.3693 42.3805C38.0388 41.9122 37.7839 41.3681 37.6049 40.7482L40.1462 39.7358C40.3253 40.4245 40.6283 40.948 41.0553 41.3061C41.4823 41.6505 42.0195 41.8226 42.6669 41.8226C42.9562 41.8226 43.2317 41.7813 43.4934 41.6987C43.7551 41.6022 43.9824 41.4714 44.1752 41.3061C44.3681 41.1408 44.5196 40.948 44.6298 40.7276C44.7537 40.4934 44.8157 40.2317 44.8157 39.9424C44.8157 39.3364 44.5885 38.8612 44.1339 38.5168C43.6931 38.1724 43.0802 38.0003 42.295 38.0003H41.076V35.5415H42.1917C42.4672 35.5415 42.7358 35.5071 42.9975 35.4382C43.2592 35.3694 43.4865 35.2661 43.6793 35.1283C43.886 34.9768 44.0444 34.7908 44.1546 34.5705C44.2785 34.3363 44.3405 34.0677 44.3405 33.7647C44.3405 33.2963 44.1752 32.9175 43.8446 32.6283C43.5141 32.3252 43.0664 32.1737 42.5016 32.1737C41.8956 32.1737 41.4272 32.339 41.0967 32.6696C40.7799 32.9864 40.5595 33.3445 40.4355 33.744L37.9561 32.7316C38.0801 32.3872 38.266 32.036 38.514 31.6779C38.7619 31.3059 39.0718 30.9754 39.4437 30.6861C39.8294 30.3831 40.2771 30.142 40.7867 29.963C41.2964 29.7701 41.8818 29.6737 42.543 29.6737C43.2179 29.6737 43.8309 29.7701 44.3818 29.963C44.9466 30.1558 45.4287 30.4244 45.8281 30.7687C46.2276 31.0993 46.5375 31.4988 46.7579 31.9671C46.9783 32.4217 47.0885 32.9175 47.0885 33.4547C47.0885 33.868 47.0334 34.2399 46.9232 34.5705C46.8268 34.901 46.6959 35.1972 46.5306 35.4589C46.3653 35.7206 46.1725 35.9479 45.9521 36.1407C45.7455 36.3198 45.532 36.4644 45.3116 36.5746V36.7399C45.9728 37.0016 46.5169 37.4217 46.9439 38.0003C47.3846 38.5788 47.605 39.3088 47.605 40.1904C47.605 40.8102 47.4879 41.3819 47.2538 41.9053C47.0196 42.4149 46.6821 42.8626 46.2414 43.2483C45.8144 43.634 45.2978 43.9301 44.6918 44.1367C44.0857 44.3571 43.4107 44.4673 42.6669 44.4673Z" fill="white"/>
</svg>
