<svg width="178" height="178" viewBox="0 0 178 178" fill="none" xmlns="http://www.w3.org/2000/svg">
<circle cx="89.3164" cy="89.1495" r="88.6192" fill="#F6FAFE"/>
<g clip-path="url(#clip0_2398_2320)">
<g clip-path="url(#clip1_2398_2320)">
<path d="M62.375 101.964C62.375 93.1215 62.375 84.2792 62.375 75.4369C62.5637 74.7483 62.6928 74.0353 62.9525 73.374C64.0081 70.683 66.7239 68.4775 70.4044 68.4919C81.642 68.5365 92.8809 68.5077 104.12 68.5092C105.818 68.5092 107.518 68.4847 109.217 68.5221C113.409 68.6129 116.738 72.0256 116.748 76.2739C116.766 84.5573 116.756 92.842 116.751 101.125C116.749 102.831 116.244 104.385 115.224 105.74C113.582 107.918 111.386 108.903 108.689 108.9C95.9457 108.883 83.2028 108.892 70.4598 108.892C70.247 108.892 70.0355 108.889 69.8227 108.881C66.5011 108.779 63.6108 106.507 62.69 103.266C62.5665 102.837 62.4786 102.397 62.375 101.964ZM85.297 102.409C86.0788 102.418 86.5981 102.001 86.9089 101.111C88.8215 95.6166 90.7328 90.1222 92.6426 84.6264C93.501 82.1573 94.3665 79.6924 95.2093 77.2175C95.6407 75.9512 94.7368 74.806 93.4797 75.0076C92.722 75.1301 92.3659 75.6746 92.1275 76.3632C90.1127 82.1817 88.088 87.9974 86.0646 93.813C85.3297 95.9263 84.5847 98.0368 83.8597 100.153C83.4638 101.316 84.1648 102.397 85.297 102.409ZM74.0354 89.1542C74.1886 88.9899 74.3163 88.8459 74.4525 88.709C76.9781 86.1433 79.5094 83.5805 82.0308 81.0091C82.726 80.3003 82.7459 79.3006 82.1074 78.6523C81.4788 78.0141 80.4941 78.0141 79.8244 78.6912C76.7667 81.7841 73.7133 84.8828 70.6684 87.9887C69.9972 88.673 69.9845 89.6223 70.6499 90.3023C73.4054 93.1186 76.1736 95.922 78.939 98.7268C79.2966 99.0884 79.7322 99.2627 80.2387 99.2065C80.8971 99.1331 81.361 98.7772 81.581 98.1434C81.8179 97.462 81.6193 96.8742 81.1283 96.3758C78.9021 94.1155 76.6745 91.8552 74.4483 89.5935C74.3135 89.4552 74.1843 89.3126 74.0354 89.1542ZM105.245 88.2207C104.927 88.4958 104.741 88.6341 104.578 88.7983C102.074 91.3366 99.5695 93.8749 97.0737 96.4205C96.404 97.1033 96.3898 98.0915 97.0113 98.7369C97.6314 99.3823 98.626 99.3953 99.2943 98.7196C102.355 95.6281 105.407 92.5294 108.452 89.4235C109.127 88.7349 109.154 87.7899 108.489 87.1085C105.723 84.2763 102.951 81.4528 100.144 78.6624C99.8547 78.3757 99.3255 78.2288 98.9013 78.2144C98.2457 78.1928 97.7761 78.612 97.5505 79.243C97.3078 79.9215 97.4994 80.5121 97.9917 81.0134C100.218 83.2751 102.444 85.5369 104.675 87.7943C104.812 87.9325 104.987 88.0305 105.245 88.2207Z" fill="#238FFF"/>
</g>
</g>
<defs>
<clipPath id="clip0_2398_2320">
<rect width="55" height="60" fill="white" transform="translate(61.8164 59.1228)"/>
</clipPath>
<clipPath id="clip1_2398_2320">
<rect width="54.3843" height="40.4083" fill="white" transform="translate(62.375 68.4919)"/>
</clipPath>
</defs>
</svg>
