<svg width="39" height="33" viewBox="0 0 39 33" fill="none" xmlns="http://www.w3.org/2000/svg">
<g clip-path="url(#clip0_270_12898)">
<path d="M0 7.5327C0.185966 7.04044 0.563866 6.79878 1.05016 6.62773C6.85689 4.59006 12.6596 2.53945 18.4614 0.484872C18.8691 0.340673 19.25 0.339679 19.6558 0.482883C25.4814 2.54244 31.309 4.59702 37.1356 6.65458C37.965 6.94696 38.3091 7.57646 38.0157 8.24375C37.8397 8.64452 37.4886 8.8096 37.1048 8.94585C34.4784 9.87568 31.854 10.8105 29.2286 11.7433C26.0433 12.875 22.856 14.0027 19.6737 15.1434C19.254 15.2936 18.8701 15.2936 18.4485 15.1434C12.6059 13.057 6.76043 10.9785 0.911932 8.91005C0.465413 8.75192 0.178011 8.47546 0.000994473 8.05579V7.53469L0 7.5327Z" fill="#78A9CD"/>
<path d="M7.84654 13.7413C9.23085 14.2316 10.5366 14.693 11.8413 15.1575C13.8243 15.8625 15.8083 16.5646 17.7883 17.2797C18.6813 17.6029 19.5495 17.5621 20.4376 17.2429C23.5592 16.1201 26.6888 15.0162 29.8154 13.9064C29.9417 13.8617 30.069 13.8189 30.2431 13.7592C30.253 13.9094 30.2669 14.0258 30.2669 14.1421C30.2689 15.5682 30.255 16.9952 30.2729 18.4213C30.2828 19.1612 29.9974 19.741 29.4485 20.2104C28.5912 20.9433 27.5669 21.3491 26.5118 21.6812C23.7024 22.5673 20.8155 22.8507 17.8838 22.7274C15.318 22.619 12.801 22.2351 10.4202 21.2277C9.80068 20.9662 9.21792 20.5893 8.67096 20.1945C8.08621 19.7718 7.83262 19.1542 7.84257 18.4144C7.86146 17.0002 7.84853 15.5861 7.84853 14.1729C7.84853 14.0526 7.84853 13.9323 7.84853 13.7413H7.84654Z" fill="#78A9CD"/>
<path d="M33.1994 12.7021C33.9373 12.4396 34.6563 12.184 35.433 11.9075V12.3342C35.433 15.3245 35.435 18.3139 35.428 21.3043C35.428 21.535 35.4907 21.6772 35.6796 21.8254C36.866 22.7572 36.8402 24.4538 35.6557 25.3926C35.5364 25.4871 35.4429 25.6909 35.4419 25.8441C35.427 27.5436 35.437 29.2432 35.43 30.9427C35.427 31.7393 34.7906 32.2674 34.0576 32.0993C33.5395 31.981 33.2014 31.5345 33.2004 30.9447C33.1974 29.27 33.1944 27.5953 33.2044 25.9197C33.2064 25.6631 33.1437 25.499 32.9289 25.3319C31.7912 24.4508 31.7843 22.7463 32.919 21.8503C33.1447 21.6723 33.2034 21.4962 33.2024 21.2327C33.1954 18.5277 33.1984 15.8238 33.1984 13.1188V12.6991L33.1994 12.7021Z" fill="#78A9CD"/>
</g>
<defs>
<clipPath id="clip0_270_12898">
<rect width="38.1191" height="31.7565" fill="white" transform="translate(0 0.37561)"/>
</clipPath>
</defs>
</svg>
