<svg width="31" height="31" viewBox="0 0 31 31" fill="none" xmlns="http://www.w3.org/2000/svg">
<g clip-path="url(#clip0_345_206)">
<path d="M27.7834 30.0433C26.8774 29.909 26.2555 29.3583 25.6674 28.6961C22.6213 25.2608 19.5531 21.846 16.4922 18.4239C16.4276 18.352 16.36 18.2822 16.2903 18.2081C15.8263 18.6765 15.3689 19.1376 14.8946 19.6163C14.783 19.5113 14.7052 19.443 14.6325 19.3703C11.2126 15.9511 7.80811 12.5173 4.3684 9.11872C2.74216 7.51229 2.22235 5.57181 2.42792 3.37143C2.52997 2.28482 2.84274 1.2496 3.25022 0.240079C3.3141 0.0814927 3.39412 0.0389093 3.56446 0.0161492C4.16723 -0.0638782 4.58132 0.170331 5.01009 0.60057C13.1259 8.74501 21.2579 16.874 29.3935 24.9987C30.0176 25.622 30.5895 26.2541 30.7136 27.1711V27.6403C30.6974 27.6851 30.6739 27.7291 30.6673 27.7754C30.5704 28.4743 30.2679 29.0756 29.682 29.4655C29.3032 29.7181 28.848 29.8554 28.4273 30.044H27.7827L27.7834 30.0433Z" fill="#78CDBE"/>
<path d="M3.27934 30.0433C3.15673 30.0213 3.03412 29.9948 2.91077 29.978C1.03637 29.7276 0.059154 27.3664 1.20817 25.8584C1.32638 25.7035 1.45192 25.5522 1.58995 25.4142C4.28886 22.7116 6.98997 20.0105 9.69108 17.3101C9.75202 17.2492 9.81736 17.1941 9.86361 17.1516C11.1015 18.3923 12.3283 19.6214 13.5801 20.8761C13.5375 20.9202 13.4685 20.9958 13.3958 21.0692C10.73 23.7358 8.0619 26.401 5.39896 29.0705C4.86374 29.6072 4.25876 29.9824 3.47684 30.0029C3.42985 30.0044 3.38433 30.0294 3.33734 30.044H3.27861L3.27934 30.0433Z" fill="#78CDBE"/>
<path d="M24.4502 0.0807513C24.8584 0.489699 25.2578 0.889836 25.6601 1.29291C24.0963 2.85601 22.5185 4.4338 20.9613 5.99103C21.4055 6.43375 21.8107 6.83756 22.2278 7.25312C23.7718 5.7091 25.3503 4.12911 26.9105 2.56821C27.3312 2.98744 27.7364 3.39124 28.1557 3.80827C26.5918 5.37064 25.0118 6.94843 23.4421 8.51667C23.865 8.93957 24.2644 9.3397 24.6616 9.73764C26.2262 8.17307 27.8033 6.59528 29.3605 5.03731C29.8069 5.48884 30.2085 5.89412 30.6718 6.36254C30.6306 6.38823 30.5242 6.43008 30.45 6.5035C28.5764 8.37277 26.6858 10.2266 24.8422 12.126C23.8856 13.1113 22.7865 13.7192 21.4091 13.7999C21.3893 13.8014 21.3673 13.7977 21.3511 13.8058C20.8835 14.0503 20.6191 13.7574 20.3218 13.4549C19.2139 12.3257 18.0906 11.2112 16.9658 10.0974C16.83 9.96304 16.8043 9.85217 16.8512 9.66422C16.9342 9.33456 16.957 8.99096 17.0157 8.65543C17.1758 7.73475 17.5803 6.93374 18.2396 6.2715C20.2667 4.23704 22.299 2.20845 24.3298 0.178399C24.3702 0.138019 24.4179 0.105714 24.4494 0.0800171L24.4502 0.0807513Z" fill="#78CDBE"/>
</g>
<defs>
<clipPath id="clip0_345_206">
<rect width="30" height="30.0433" fill="white" transform="translate(0.714844)"/>
</clipPath>
</defs>
</svg>
