<svg width="178" height="178" viewBox="0 0 178 178" fill="none" xmlns="http://www.w3.org/2000/svg">
<circle cx="89.1426" cy="88.6155" r="88.6192" fill="#188AEC" fill-opacity="0.04"/>
<path d="M89.6952 54.4341C90.884 54.9457 91.3372 55.8449 91.2797 57.1318C91.21 58.6964 91.2692 60.2661 91.2605 61.8341C91.2535 63.1402 90.3314 64.1041 89.1374 64.0796C87.9574 64.0552 87.0876 63.114 87.0823 61.8324C87.0736 60.2644 87.1312 58.6946 87.0649 57.1301C87.0109 55.8467 87.4536 54.9422 88.6494 54.4358C88.998 54.4341 89.3466 54.4341 89.6952 54.4341Z" fill="#238FFF"/>
<path d="M122.639 88.4169C122.124 89.6025 121.227 90.0583 119.94 90.0024C118.375 89.9343 116.804 89.9919 115.236 89.9832C113.955 89.9762 113.013 89.1032 112.991 87.9245C112.968 86.7197 113.92 85.8117 115.236 85.8047C116.804 85.796 118.375 85.8571 119.94 85.7855C121.228 85.7279 122.123 86.1889 122.639 87.371C122.639 87.7202 122.639 88.0677 122.639 88.4169Z" fill="#238FFF"/>
<path d="M55.7051 87.371C56.2123 86.1766 57.1152 85.7313 58.3999 85.7872C59.9652 85.8553 61.5357 85.7977 63.1045 85.8047C64.4118 85.8117 65.3757 86.7284 65.353 87.9245C65.3304 89.1066 64.3909 89.9762 63.1079 89.9831C61.5392 89.9919 59.9687 89.9325 58.4051 90.0024C57.117 90.06 56.2193 89.6042 55.7068 88.4169C55.7051 88.0677 55.7051 87.7202 55.7051 87.371Z" fill="#238FFF"/>
<path d="M97.6515 108.778C91.9621 108.778 86.304 108.778 80.6111 108.778C80.2416 107 79.5147 105.42 78.1987 104.159C77.8065 103.784 77.369 103.456 76.9541 103.103C70.8655 97.9276 68.4479 91.3447 70.1631 83.5884C71.8329 76.0295 76.6892 71.088 84.1687 69.045C95.8683 65.8514 107.585 74.0878 108.598 86.1779C109.163 92.9267 106.736 98.5562 101.565 102.948C99.9227 104.341 98.5091 105.858 97.8833 107.973C97.8031 108.242 97.7282 108.511 97.6515 108.778ZM90.2486 75.3502C88.8141 75.3223 87.8223 76.1325 87.7734 77.374C87.7264 78.5945 88.7008 79.4903 90.1249 79.5322C94.1392 79.6509 97.4179 82.9389 97.5347 86.9637C97.5748 88.3501 98.4463 89.3087 99.6508 89.2913C100.892 89.2738 101.741 88.2733 101.716 86.8554C101.614 80.7126 96.3912 75.4725 90.2486 75.3502Z" fill="#238FFF"/>
<path d="M97.4257 113.036C97.4257 114.539 97.586 116.015 97.3891 117.441C97.0823 119.664 95.0481 121.309 92.7995 121.342C90.3819 121.379 87.9642 121.379 85.5466 121.342C83.2073 121.307 81.283 119.538 80.9483 117.049C80.774 115.742 80.8088 114.407 80.7461 113.034C86.378 113.036 91.9175 113.036 97.4257 113.036Z" fill="#238FFF"/>
<path d="M67.265 63.5956C67.5404 63.7458 68.1018 63.9256 68.4905 64.2906C69.7927 65.513 71.0409 66.7914 72.2909 68.0679C73.159 68.955 73.1555 70.2264 72.3205 71.0541C71.4959 71.8697 70.246 71.8924 69.3831 71.0524C68.0721 69.7758 66.7803 68.48 65.5008 67.1703C64.861 66.5154 64.7215 65.7209 65.0806 64.8791C65.4328 64.0531 66.1092 63.6742 67.265 63.5956Z" fill="#238FFF"/>
<path d="M113.476 65.983C113.329 66.2555 113.153 66.8195 112.79 67.2072C111.568 68.5082 110.291 69.7586 109.013 71.0072C108.115 71.8856 106.867 71.8874 106.028 71.0526C105.193 70.2214 105.19 68.9535 106.058 68.0681C107.323 66.7776 108.603 65.4993 109.895 64.2332C110.55 63.5906 111.342 63.4474 112.186 63.8036C113.008 64.1494 113.397 64.8217 113.476 65.983Z" fill="#238FFF"/>
<path d="M113.466 109.796C113.417 110.891 113.06 111.556 112.284 111.938C111.484 112.331 110.672 112.274 110.032 111.666C108.627 110.33 107.253 108.961 105.918 107.557C105.151 106.75 105.252 105.491 106.038 104.721C106.824 103.953 108.069 103.888 108.878 104.662C110.246 105.971 111.589 107.312 112.893 108.687C113.215 109.027 113.344 109.55 113.466 109.796Z" fill="#238FFF"/>
<path d="M72.9624 106.499C72.8124 106.778 72.6433 107.323 72.2929 107.695C71.0535 109.01 69.7634 110.28 68.4682 111.54C67.5826 112.403 66.3135 112.375 65.4854 111.525C64.687 110.704 64.6887 109.445 65.529 108.587C66.7946 107.295 68.0742 106.018 69.3642 104.752C70.0354 104.092 70.9053 103.947 71.7107 104.323C72.5248 104.7 72.8944 105.371 72.9624 106.499Z" fill="#238FFF"/>
</svg>
