<svg width="63" height="59" viewBox="0 0 63 59" fill="none" xmlns="http://www.w3.org/2000/svg">
<g clip-path="url(#clip0_2244_1048)">
<path d="M11.4432 28.8275C8.71361 28.8293 6.0224 28.1845 3.59003 26.9458V47.2558H19.2937V26.9458C16.8623 28.1844 14.1719 28.8293 11.4432 28.8275Z" fill="black"/>
<path d="M62.0061 18.3206C62.0061 12.0246 60.4942 7.71554 57.4704 5.3933C54.4466 3.07106 49.4377 1.90904 42.4438 1.90723H25.8809C28.1447 5.30891 29.133 9.40136 28.6712 13.4613C28.2095 17.5212 26.3273 21.2871 23.3574 24.0935V47.2697H39.0611V35.547H42.9197L45.4921 47.2561H61.4649L56.9972 31.8244C60.3364 29.116 62.0061 24.6147 62.0061 18.3206ZM42.8517 23.1608H38.9985V14.3043H42.4492C44.9328 14.3043 46.1737 15.7817 46.1719 18.7366C46.1701 21.6916 45.0633 23.1663 42.8517 23.1608Z" fill="black"/>
<path d="M11.4458 22.0161C17.2547 22.0161 21.9638 17.307 21.9638 11.498C21.9638 5.68907 17.2547 0.97998 11.4458 0.97998C5.63682 0.97998 0.927734 5.68907 0.927734 11.498C0.927734 17.307 5.63682 22.0161 11.4458 22.0161Z" fill="#238FFF"/>
<path d="M6.00895 50.9062C5.37668 50.9062 5.06054 51.1277 5.06054 51.5708C5.06054 51.7998 5.13522 51.9641 5.28457 52.0637C5.43393 52.1583 5.76251 52.2778 6.27032 52.4222C6.78311 52.5615 7.14405 52.7308 7.35315 52.93C7.56225 53.1241 7.6668 53.4328 7.6668 53.856C7.6668 54.3936 7.51246 54.7969 7.2038 55.0657C6.90011 55.3296 6.4844 55.4615 5.95667 55.4615C5.5335 55.4615 5.06552 55.4118 4.55273 55.3122L4.28389 55.2599L4.36604 54.5953C5.03814 54.6849 5.55092 54.7297 5.9044 54.7297C6.52174 54.7297 6.83041 54.4559 6.83041 53.9082C6.83041 53.6942 6.76071 53.5373 6.62131 53.4378C6.48191 53.3332 6.16826 53.2212 5.68037 53.1017C5.19247 52.9773 4.82904 52.808 4.59007 52.5939C4.3511 52.3798 4.23162 52.0413 4.23162 51.5783C4.23162 51.1153 4.38097 50.7668 4.67968 50.5328C4.98337 50.2938 5.40157 50.1743 5.93427 50.1743C6.31762 50.1743 6.77066 50.2192 7.29341 50.3088L7.55478 50.3536L7.48757 51.0257C6.79058 50.946 6.2977 50.9062 6.00895 50.9062ZM12.0278 54.2966C12.197 54.5903 12.5206 54.7372 12.9986 54.7372C13.4765 54.7372 13.7976 54.5928 13.9619 54.304C14.1312 54.0153 14.2158 53.5324 14.2158 52.8553C14.2158 52.1732 14.1287 51.6779 13.9544 51.3692C13.7852 51.0605 13.4665 50.9062 12.9986 50.9062C12.5306 50.9062 12.2095 51.0605 12.0352 51.3692C11.861 51.6779 11.7738 52.1707 11.7738 52.8478C11.7738 53.5199 11.8585 54.0028 12.0278 54.2966ZM14.6116 54.8342C14.3079 55.2524 13.7702 55.4615 12.9986 55.4615C12.2269 55.4615 11.6867 55.2524 11.3781 54.8342C11.0694 54.4111 10.9151 53.7489 10.9151 52.8478C10.9151 51.9467 11.0694 51.2771 11.3781 50.839C11.6917 50.4009 12.2319 50.1818 12.9986 50.1818C13.7653 50.1818 14.3029 50.4009 14.6116 50.839C14.9203 51.2721 15.0746 51.9417 15.0746 52.8478C15.0746 53.7539 14.9203 54.416 14.6116 54.8342ZM21.4838 55.3794H18.6162V50.264H19.4451V54.6401H21.4838V55.3794ZM25.4628 53.7439C25.4628 54.4061 25.8113 54.7372 26.5083 54.7372C27.2053 54.7372 27.5538 54.4061 27.5538 53.7439V50.264H28.3902V53.729C28.3902 54.3314 28.2309 54.772 27.9123 55.0508C27.5986 55.3246 27.1281 55.4615 26.5009 55.4615C25.8785 55.4615 25.4106 55.3246 25.0969 55.0508C24.7833 54.772 24.6264 54.3314 24.6264 53.729V50.264H25.4628V53.7439ZM31.6117 51.0033V50.264H35.3456V51.0033H33.9043V55.3794H33.068V51.0033H31.6117ZM38.6118 55.3794V50.264H39.4407V55.3794H38.6118ZM44.0824 54.2966C44.2516 54.5903 44.5752 54.7372 45.0532 54.7372C45.5311 54.7372 45.8522 54.5928 46.0165 54.304C46.1858 54.0153 46.2704 53.5324 46.2704 52.8553C46.2704 52.1732 46.1833 51.6779 46.009 51.3692C45.8398 51.0605 45.5211 50.9062 45.0532 50.9062C44.5852 50.9062 44.2641 51.0605 44.0898 51.3692C43.9156 51.6779 43.8285 52.1707 43.8285 52.8478C43.8285 53.5199 43.9131 54.0028 44.0824 54.2966ZM46.6662 54.8342C46.3625 55.2524 45.8248 55.4615 45.0532 55.4615C44.2815 55.4615 43.7413 55.2524 43.4327 54.8342C43.124 54.4111 42.9697 53.7489 42.9697 52.8478C42.9697 51.9467 43.124 51.2771 43.4327 50.839C43.7463 50.4009 44.2865 50.1818 45.0532 50.1818C45.8199 50.1818 46.3575 50.4009 46.6662 50.839C46.9749 51.2721 47.1292 51.9417 47.1292 52.8478C47.1292 53.7539 46.9749 54.416 46.6662 54.8342ZM50.6708 55.3794V50.264H52.1196L53.6729 54.6476H53.7849V50.264H54.6138V55.3794H53.1949L51.6043 50.9883H51.4997V55.3794H50.6708ZM59.8677 50.9062C59.2355 50.9062 58.9193 51.1277 58.9193 51.5708C58.9193 51.7998 58.994 51.9641 59.1434 52.0637C59.2927 52.1583 59.6213 52.2778 60.1291 52.4222C60.6419 52.5615 61.0028 52.7308 61.2119 52.93C61.421 53.1241 61.5256 53.4328 61.5256 53.856C61.5256 54.3936 61.3713 54.7969 61.0626 55.0657C60.7589 55.3296 60.3432 55.4615 59.8155 55.4615C59.3923 55.4615 58.9243 55.4118 58.4115 55.3122L58.1427 55.2599L58.2248 54.5953C58.8969 54.6849 59.4097 54.7297 59.7632 54.7297C60.3805 54.7297 60.6892 54.4559 60.6892 53.9082C60.6892 53.6942 60.6195 53.5373 60.4801 53.4378C60.3407 53.3332 60.0271 53.2212 59.5392 53.1017C59.0513 52.9773 58.6878 52.808 58.4489 52.5939C58.2099 52.3798 58.0904 52.0413 58.0904 51.5783C58.0904 51.1153 58.2398 50.7668 58.5385 50.5328C58.8422 50.2938 59.2604 50.1743 59.7931 50.1743C60.1764 50.1743 60.6295 50.2192 61.1522 50.3088L61.4136 50.3536L61.3464 51.0257C60.6494 50.946 60.1565 50.9062 59.8677 50.9062Z" fill="black"/>
</g>
<defs>
<clipPath id="clip0_2244_1048">
<rect width="61.3407" height="58.0042" fill="white" transform="translate(0.927734 0.97998)"/>
</clipPath>
</defs>
</svg>
