<svg width="178" height="178" viewBox="0 0 178 178" fill="none" xmlns="http://www.w3.org/2000/svg">
<circle cx="88.9688" cy="88.6155" r="88.6192" fill="#F6FAFE"/>
<path d="M90.5625 60.0907C96.2711 63.0329 101.981 65.9734 107.688 68.9208C109.907 70.0663 112.114 71.2344 114.338 72.3694C115.506 72.9648 116.219 73.8676 116.226 75.1877C116.233 76.5357 115.504 77.4436 114.319 78.06C106.751 82.001 99.1873 85.9542 91.6293 89.9179C90.5207 90.4994 89.4592 90.5518 88.3401 89.9563C80.8239 85.9612 73.3008 81.9783 65.7846 77.9867C64.3745 77.2376 63.7574 75.9734 64.0764 74.5294C64.2995 73.5219 64.9462 72.8636 65.8404 72.3956C70.3776 70.0122 74.9079 67.6182 79.4417 65.2295C82.0737 63.8431 84.704 62.4532 87.3413 61.0773C88.0124 60.7263 88.7062 60.419 89.3894 60.0924C89.7799 60.0907 90.1703 60.0907 90.5625 60.0907Z" fill="#238FFF"/>
<path d="M92.7037 110.241C92.7037 105.841 92.7298 101.442 92.6897 97.0418C92.674 95.397 93.3399 94.3179 94.7884 93.5374C101.637 89.853 108.461 86.1233 115.284 82.3919C116.326 81.8209 117.36 81.6253 118.446 82.1858C119.425 82.6922 119.981 83.5059 120.072 84.6182C120.094 84.8993 120.094 85.1839 120.094 85.4668C120.096 94.049 120.074 102.629 120.114 111.212C120.122 112.888 119.476 113.979 118.025 114.795C111.133 118.673 104.273 122.609 97.396 126.513C95.5519 127.561 93.4166 126.783 92.8571 124.859C92.7263 124.409 92.7089 123.915 92.7072 123.44C92.6984 119.039 92.7037 114.639 92.7037 110.241Z" fill="#238FFF"/>
<path d="M87.8987 110.242C87.8987 114.707 87.9039 119.172 87.897 123.637C87.8935 125.428 87.0132 126.596 85.4479 126.944C84.559 127.141 83.785 126.853 83.0285 126.42C80.1071 124.746 77.1788 123.081 74.2521 121.416C70.325 119.179 66.4082 116.925 62.4636 114.721C61.104 113.961 60.487 112.905 60.4922 111.337C60.5219 102.626 60.5044 93.9125 60.5079 85.2012C60.5097 83.2857 61.5485 81.9761 63.2777 81.8905C63.9313 81.8591 64.6704 82.0634 65.2543 82.3777C71.6427 85.8175 78.0085 89.2993 84.3794 92.7688C84.8762 93.0395 85.3625 93.3276 85.8715 93.5721C87.3043 94.2618 87.9231 95.388 87.9109 96.977C87.8761 101.4 87.8987 105.821 87.8987 110.242Z" fill="#238FFF"/>
</svg>
