<svg width="30" height="30" viewBox="0 0 30 30" fill="none" xmlns="http://www.w3.org/2000/svg">
<g clip-path="url(#clip0_345_193)">
<path d="M0 1.00515C0.275506 0.243736 0.833664 -0.0222426 1.61969 0.00157639C2.68837 0.034129 3.75943 0.00951605 4.82969 0.00951605C5.70306 0.00951605 6.08019 0.285816 6.35808 1.12186C6.70742 2.17228 7.05836 3.2227 7.41008 4.27311C7.62684 4.92178 7.86106 5.0909 8.54069 5.0909C15.1886 5.0909 21.8364 5.0909 28.4835 5.09249C28.6804 5.09249 28.8853 5.08772 29.0734 5.13536C29.8047 5.32035 30.1731 6.05636 29.9222 6.82333C29.4974 8.11988 29.0647 9.41325 28.6336 10.7074C27.9682 12.705 27.3005 14.7019 26.6336 16.6987C26.3724 17.4823 25.9849 17.765 25.1655 17.765C20.7963 17.765 16.4272 17.765 12.0588 17.765C11.2934 17.765 11.106 17.9095 10.9186 18.6447C10.8527 18.9035 10.7797 19.1608 10.7225 19.4212C10.6193 19.8896 10.8805 20.2469 11.3593 20.2985C11.4768 20.3112 11.5967 20.3057 11.7158 20.3057C16.6098 20.3057 21.5038 20.3057 26.3978 20.3088C26.6225 20.3088 26.8599 20.3192 27.0695 20.389C27.6467 20.5796 27.9698 21.1616 27.8801 21.7816C27.7975 22.347 27.3021 22.7916 26.7146 22.8273C26.6352 22.8321 26.5558 22.8321 26.4772 22.8321C21.4942 22.8321 16.5105 22.8337 11.5276 22.8321C9.87852 22.8313 8.58277 21.7944 8.2366 20.2104C8.12703 19.707 8.15641 19.206 8.28503 18.7106C8.8813 16.4192 8.84081 16.5851 8.10639 14.3938C6.86939 10.7003 5.64192 7.00356 4.40969 3.30844C4.21755 2.73202 3.96665 2.55338 3.35848 2.55259C2.76379 2.55259 2.16832 2.52798 1.57523 2.55815C0.791584 2.59785 0.258833 2.29455 0.000793966 1.54187V1.00674L0 1.00515Z" fill="#CBCD78"/>
<path d="M9.74933 29.1759C9.51114 29.0893 9.26263 29.0226 9.03555 28.9123C7.92638 28.3763 7.37299 27.129 7.70883 25.9508C8.05183 24.7463 9.16576 24.004 10.4504 24.1238C11.5834 24.2294 12.5782 25.2402 12.6648 26.3724C12.7632 27.6626 12.009 28.7606 10.7997 29.0877C10.7068 29.1131 10.6155 29.1457 10.5234 29.1751H9.75091L9.74933 29.1759Z" fill="#CBCD78"/>
<path d="M24.9671 29.1759C24.7289 29.0893 24.4804 29.0226 24.2533 28.9123C23.1442 28.3763 22.5908 27.129 22.9266 25.9508C23.2696 24.7463 24.3835 24.004 25.6682 24.1238C26.8012 24.2294 27.796 25.2402 27.8825 26.3724C27.981 27.6626 27.2267 28.7606 26.0175 29.0877C25.9246 29.1131 25.8333 29.1457 25.7412 29.1751H24.9687L24.9671 29.1759Z" fill="#CBCD78"/>
</g>
<defs>
<clipPath id="clip0_345_193">
<rect width="30" height="29.1759" fill="white"/>
</clipPath>
</defs>
</svg>
