<svg width="30" height="31" viewBox="0 0 30 31" fill="none" xmlns="http://www.w3.org/2000/svg">
<g clip-path="url(#clip0_270_12882)">
<path d="M0.000488281 22.7055C0.522221 22.1955 1.04474 21.6871 1.56412 21.1748C1.93254 20.8118 2.30018 20.4481 2.65999 20.0758C2.78515 19.9467 2.89622 19.8959 3.09021 19.9303C4.28073 20.1399 5.47438 20.3331 6.66881 20.5177C6.78223 20.5349 6.95118 20.4966 7.02706 20.4184C9.0608 18.3127 11.0867 16.1984 13.1126 14.0856C13.1384 14.0582 13.1588 14.0262 13.2073 13.9636C9.04906 11.4034 4.90258 8.8503 0.650503 6.23226C0.78426 6.15091 0.892205 6.11023 0.966514 6.03592C1.86058 5.14968 2.75542 4.26344 3.63462 3.36312C3.81062 3.18243 3.95298 3.15192 4.18921 3.23014C7.88592 4.46212 11.5858 5.68393 15.2848 6.90808C16.3674 7.26633 17.4515 7.61911 18.5286 7.99066C18.7719 8.07435 18.9221 8.04854 19.1075 7.85299C21.045 5.8169 22.9966 3.7949 24.9404 1.76429C25.5231 1.15651 26.2224 0.817816 27.0664 0.807647C28.235 0.793568 29.3051 1.478 29.7447 2.55666C30.2117 3.7026 30.049 4.78674 29.1839 5.67298C28.0598 6.82517 26.8732 7.91557 25.7124 9.03178C24.7769 9.93131 23.8437 10.8332 22.8988 11.7234C22.7385 11.8743 22.7142 11.9995 22.7823 12.2028C24.3764 17.0001 25.9612 21.8013 27.5584 26.5978C27.6374 26.8348 27.6124 26.9748 27.4309 27.1516C26.5298 28.0308 25.6444 28.9257 24.7574 29.8197C24.683 29.8948 24.6416 30.002 24.5579 30.1373C21.943 25.8923 19.393 21.7505 16.8219 17.5766C16.7303 17.6595 16.6529 17.7268 16.5794 17.798C14.5222 19.7699 12.4673 21.7442 10.4054 23.7115C10.2662 23.8437 10.2349 23.9696 10.2646 24.1487C10.4656 25.3408 10.6635 26.5329 10.8466 27.7281C10.8646 27.8454 10.809 28.0152 10.7261 28.0996C9.91418 28.9303 9.08896 29.747 8.26842 30.5691C8.20115 30.6363 8.14405 30.7138 8.08226 30.7865H8.02359C8.02203 30.7576 8.02828 30.7263 8.0189 30.7005C7.35402 28.7989 6.69071 26.8966 6.01488 24.9982C5.97812 24.8949 5.84436 24.7933 5.73329 24.7534C4.51461 24.3161 3.2928 23.8882 2.07021 23.4643C1.38187 23.2257 0.690395 22.9973 0.000488281 22.7642C0.000488281 22.7447 0.000488281 22.7251 0.000488281 22.7055Z" fill="#CD7878"/>
</g>
<defs>
<clipPath id="clip0_270_12882">
<rect width="30" height="29.9789" fill="white" transform="translate(0.000488281 0.807617)"/>
</clipPath>
</defs>
</svg>
