<svg width="43" height="43" viewBox="0 0 43 43" fill="none" xmlns="http://www.w3.org/2000/svg">
<path d="M0.819397 21.5721C0.819397 9.92408 10.262 0.481445 21.9101 0.481445H43.0008V42.6629H21.9101C10.262 42.6629 0.819397 33.2202 0.819397 21.5721Z" fill="#60D669"/>
<path d="M12.1403 21.4621C12.1397 23.5905 12.6962 25.6687 13.7544 27.5005L12.0391 33.7591L18.4483 32.0797C20.221 33.0441 22.2072 33.5494 24.2256 33.5495H24.2309C30.8938 33.5495 36.3177 28.1313 36.3205 21.4716C36.3218 18.2445 35.0653 15.21 32.7825 12.9269C30.5001 10.6441 27.4646 9.38624 24.2304 9.38477C17.5666 9.38477 12.1432 14.8027 12.1404 21.4621" fill="url(#paint0_linear_2240_2227)"/>
<path d="M11.7089 21.4583C11.7082 23.6632 12.2846 25.8158 13.3806 27.7131L11.6038 34.1961L18.2428 32.4565C20.072 33.4532 22.1316 33.9787 24.2273 33.9795H24.2327C31.1348 33.9795 36.7534 28.3664 36.7564 21.4683C36.7575 18.1252 35.4559 14.9816 33.0915 12.6168C30.7269 10.2523 27.5828 8.94913 24.2327 8.94775C17.3295 8.94775 11.7116 14.5601 11.7089 21.4583ZM15.6627 27.3864L15.4148 26.9931C14.3727 25.3373 13.8227 23.4239 13.8235 21.4591C13.8256 15.7255 18.495 11.0607 24.2367 11.0607C27.0172 11.0619 29.6303 12.1451 31.5958 14.1104C33.5611 16.0759 34.6426 18.6886 34.6419 21.4675C34.6393 27.2011 29.9699 31.8664 24.2327 31.8664H24.2286C22.3605 31.8654 20.5284 31.3641 18.9306 30.4167L18.5504 30.1914L14.6107 31.2236L15.6627 27.3864Z" fill="url(#paint1_linear_2240_2227)"/>
<path d="M21.1027 16.2256C20.8683 15.7049 20.6215 15.6944 20.3986 15.6853C20.2161 15.6774 20.0074 15.678 19.7989 15.678C19.5902 15.678 19.2511 15.7564 18.9645 16.0692C18.6776 16.3822 17.8692 17.1386 17.8692 18.6771C17.8692 20.2157 18.9906 21.7025 19.1469 21.9114C19.3034 22.1198 21.3117 25.378 24.4923 26.6315C27.1357 27.6731 27.6736 27.466 28.2473 27.4137C28.8211 27.3617 30.0988 26.6575 30.3594 25.9273C30.6203 25.1972 30.6203 24.5713 30.5421 24.4405C30.4639 24.3102 30.2552 24.232 29.9422 24.0757C29.6292 23.9193 28.0908 23.1627 27.804 23.0584C27.5171 22.9541 27.3085 22.9021 27.0998 23.2152C26.8911 23.5278 26.2919 24.232 26.1092 24.4405C25.9268 24.6496 25.7441 24.6756 25.4313 24.5192C25.1182 24.3623 24.1104 24.0325 22.9148 22.9673C21.9845 22.1384 21.3565 21.1148 21.1739 20.8017C20.9914 20.489 21.1544 20.3196 21.3113 20.1637C21.4519 20.0236 21.6243 19.7986 21.7809 19.6161C21.9369 19.4334 21.989 19.3031 22.0934 19.0946C22.1978 18.8858 22.1455 18.7032 22.0674 18.5468C21.989 18.3904 21.3809 16.8439 21.1027 16.2256Z" fill="white"/>
<defs>
<linearGradient id="paint0_linear_2240_2227" x1="1226.11" y1="2446.81" x2="1226.11" y2="9.38477" gradientUnits="userSpaceOnUse">
<stop stop-color="#1FAF38"/>
<stop offset="1" stop-color="#60D669"/>
</linearGradient>
<linearGradient id="paint1_linear_2240_2227" x1="1269.23" y1="2533.78" x2="1269.23" y2="8.94775" gradientUnits="userSpaceOnUse">
<stop stop-color="#F9F9F9"/>
<stop offset="1" stop-color="white"/>
</linearGradient>
</defs>
</svg>
