<svg width="146" height="141" viewBox="0 0 146 141" fill="none" xmlns="http://www.w3.org/2000/svg">
<path d="M144.815 121.985C143.251 119.624 141.626 117.304 140.021 114.974C138.036 112.093 136.057 112.256 134.585 115.46C134.187 116.328 133.888 116.736 132.868 116.12C129.621 114.164 126.327 112.287 123.022 110.426C122.325 110.031 122.135 109.569 122.166 108.8C122.285 105.667 120.887 103.354 118.168 101.854C117.559 101.517 117.243 101.17 117.243 100.432C117.263 89.7233 117.26 79.0114 117.246 68.3028C117.246 67.6021 117.488 67.2109 118.11 66.8299C122.132 64.3569 123.366 60.0912 121.2 56.3629C119.038 52.6415 114.622 51.5767 110.596 53.8695C109.96 54.2301 109.515 54.2471 108.903 53.8933C99.6998 48.5594 90.4863 43.2358 81.2695 37.9258C80.6235 37.555 80.2733 37.1536 80.3107 36.3338C80.4501 33.1362 79.0222 30.7652 76.2378 29.2583C75.517 28.8671 75.313 28.4044 75.3164 27.6493C75.3402 23.6251 75.347 19.6009 75.3164 15.5801C75.3096 14.6582 75.585 14.1854 76.5709 14.2636C77.0775 14.3044 77.5909 14.2908 78.0974 14.25C80.2665 14.0731 81.3069 12.2804 80.2087 10.3823C78.5632 7.54187 76.8327 4.74908 75.041 1.99712C73.8851 0.221435 71.8622 0.190819 70.7097 1.93589C68.8738 4.72527 67.1025 7.56228 65.4264 10.4503C64.3792 12.2532 65.4264 14.0357 67.4935 14.2296C67.7757 14.2568 68.0646 14.2874 68.34 14.2466C70.0059 14.0051 70.4343 14.7398 70.3833 16.3454C70.2643 20.0261 70.3187 23.7101 70.3663 27.3941C70.3799 28.3534 70.1011 28.9079 69.2206 29.3977C66.6333 30.8332 65.2734 33.092 65.3686 36.0786C65.4026 37.0889 65.032 37.5856 64.2025 38.0618C55.1692 43.2426 46.1495 48.4438 37.157 53.6892C36.2459 54.2199 35.6237 54.1722 34.7262 53.6518C31.0986 51.5495 26.6109 52.7435 24.5234 56.2711C22.3747 59.9041 23.4932 64.4453 27.1888 66.5952C28.1816 67.1735 28.4501 67.8096 28.4433 68.8777C28.3992 74.0347 28.4229 79.1917 28.4229 84.3486C28.4229 89.5634 28.406 94.7748 28.4399 99.9896C28.4467 100.935 28.1884 101.483 27.301 101.983C24.7274 103.432 23.3878 105.708 23.517 108.701C23.5578 109.637 23.2417 110.11 22.4529 110.552C19.4883 112.205 16.5644 113.937 13.6236 115.631C12.3952 116.338 11.4591 116.053 10.8154 114.777C9.74104 112.64 7.58217 112.321 6.22565 114.195C4.30136 116.855 2.44167 119.566 0.65337 122.318C-0.475364 124.053 0.374587 125.958 2.41447 126.298C5.65108 126.836 8.90129 127.292 12.1583 127.683C14.2696 127.938 15.5921 126.213 14.9393 124.189C14.7659 123.652 14.5688 123.104 14.2662 122.635C13.6508 121.669 14.0112 121.189 14.9155 120.682C18.2711 118.801 21.5961 116.862 24.911 114.906C25.6759 114.454 26.2709 114.42 27.0698 114.906C29.6673 116.491 32.3497 116.471 34.9302 114.872C35.7529 114.362 36.3309 114.488 37.0822 114.926C46.1359 120.182 55.1964 125.424 64.2739 130.639C65.0456 131.081 65.3686 131.544 65.3686 132.486C65.3754 136.915 68.663 140.266 72.8618 140.249C77.0673 140.232 80.2563 136.922 80.3073 132.438C80.3175 131.591 80.5657 131.135 81.3035 130.71C90.4319 125.468 99.54 120.199 108.641 114.906C109.413 114.457 109.998 114.416 110.797 114.913C113.33 116.481 115.978 116.484 118.511 114.971C119.459 114.403 120.095 114.505 120.955 115.015C123.821 116.726 126.732 118.362 129.621 120.036C131.124 120.904 131.555 122.148 130.913 123.767C129.941 126.227 131.315 128.013 133.905 127.649C136.873 127.23 139.841 126.812 142.809 126.376C145.393 125.999 146.253 124.155 144.819 121.985H144.815ZM70.4003 35.7997C70.4853 34.3914 71.6106 33.4253 73.0351 33.5308C74.4325 33.6362 75.3742 34.7724 75.2552 36.2113C75.1464 37.5312 74.0721 38.4496 72.7088 38.3952C71.3046 38.3374 70.3119 37.2216 70.4003 35.7997ZM39.3975 58.21C48.645 52.8456 57.9094 47.5117 67.1569 42.1473C67.7247 41.8173 68.1122 41.8649 68.6664 42.2119C71.4134 43.9502 74.2217 43.957 76.9687 42.2255C77.5977 41.8275 78.0057 41.8445 78.621 42.2017C87.8175 47.5355 97.0241 52.8626 106.255 58.1352C107.21 58.6829 107.251 59.3836 107.135 60.2783C107.377 61.1865 106.931 61.6696 106.132 62.122C97.0173 67.2585 87.9161 72.4257 78.8318 77.6099C78.1042 78.0249 77.5977 78.0181 76.8633 77.5588C74.2285 75.9192 71.5018 75.9056 68.8534 77.5248C68.1428 77.9602 67.6465 78.0623 66.8815 77.6269C57.7462 72.4121 48.5838 67.2415 39.4349 62.0471C38.0512 61.2614 38.0172 59.006 39.3975 58.2066V58.21ZM31.0442 111.011C29.7183 111.055 28.5725 109.946 28.5385 108.582C28.5011 107.198 29.5517 106.065 30.9048 106.021C32.2409 105.98 33.3833 107.082 33.4105 108.443C33.4377 109.827 32.3905 110.963 31.0442 111.011ZM30.8946 62.6186C29.5177 62.5744 28.4977 61.4757 28.5385 60.0708C28.5793 58.6693 29.6469 57.659 31.0476 57.6964C32.4041 57.7338 33.4547 58.8564 33.4105 60.2238C33.3663 61.6049 32.2545 62.6594 30.8946 62.6186ZM70.3391 108.28C70.3391 113.549 70.3493 118.818 70.3357 124.084C70.3289 126.121 68.4284 127.227 66.6639 126.21C57.5966 120.985 48.543 115.733 39.4655 110.525C38.7243 110.099 38.4728 109.637 38.483 108.79C38.5306 105.691 37.1774 103.327 34.4372 101.857C33.6654 101.442 33.4445 100.949 33.4479 100.122C33.4717 89.5838 33.4581 79.0488 33.4683 68.5104C33.4683 66.8197 35.5149 65.6291 36.9803 66.4557C46.0917 71.6059 55.193 76.7731 64.3079 81.9164C65.0116 82.3144 65.3924 82.7328 65.3584 83.6241C65.2428 86.7536 66.6503 89.094 69.3872 90.5397C70.2983 91.0193 70.3493 91.6486 70.3459 92.4685C70.3357 97.7377 70.3391 103.007 70.3391 108.273V108.28ZM72.8006 135.19C71.4678 135.173 70.3867 134.037 70.4003 132.666C70.4105 131.299 71.5256 130.183 72.8618 130.203C74.2013 130.224 75.279 131.357 75.262 132.727C75.245 134.095 74.1299 135.207 72.8006 135.19ZM72.8244 86.3216C71.4678 86.3216 70.4479 85.3521 70.3969 84.0153C70.3425 82.5797 71.3352 81.498 72.7496 81.4572C74.1809 81.4164 75.2416 82.4301 75.262 83.852C75.2824 85.2739 74.2455 86.325 72.8244 86.3216ZM111.242 101.864C108.512 103.333 107.135 105.674 107.176 108.78C107.186 109.616 106.945 110.099 106.2 110.528C97.0785 115.77 87.9807 121.053 78.8692 126.308C77.2611 127.234 75.3198 126.033 75.3164 124.114C75.2994 118.791 75.3096 113.47 75.3096 108.147C75.3096 102.993 75.3266 97.8431 75.296 92.6896C75.2892 91.652 75.4728 90.9683 76.5301 90.3934C79.063 89.0191 80.3719 86.7604 80.3005 83.8486C80.2767 82.8383 80.6575 82.3246 81.487 81.8586C90.5543 76.7526 99.6046 71.6127 108.662 66.4897C110.164 65.6393 112.201 66.7891 112.204 68.5138C112.218 79.0454 112.204 89.577 112.225 100.109C112.225 100.925 112.024 101.446 111.249 101.861L111.242 101.864ZM114.717 111.018C113.377 111.035 112.269 109.926 112.252 108.552C112.231 107.181 113.313 106.051 114.656 106.031C115.998 106.011 117.11 107.116 117.124 108.49C117.137 109.861 116.049 111.004 114.717 111.018ZM114.628 62.6186C113.262 62.5846 112.225 61.4825 112.248 60.0912C112.272 58.7271 113.381 57.6658 114.747 57.6998C116.145 57.7338 117.154 58.8019 117.124 60.2102C117.093 61.6015 116.002 62.656 114.628 62.6186Z" fill="black"/>
<path d="M48.8239 62.4701C46.5436 61.3022 46.5594 58.0376 48.8509 56.8918L70.7456 45.9439C71.6068 45.5133 72.6184 45.5036 73.4877 45.9175L96.621 56.9339C98.9591 58.0474 99.007 61.358 96.702 62.5386L74.2548 74.0354C73.3601 74.4936 72.2996 74.4936 71.4048 74.0354L48.8239 62.4701Z" fill="black"/>
<path d="M80.6511 90.6941C80.7104 89.725 81.2166 88.8385 82.0211 88.2949L102.494 74.4618C104.571 73.059 107.371 74.5464 107.371 77.0519L107.371 101.266C107.371 102.25 106.907 103.176 106.12 103.767L83.9955 120.361C81.8636 121.96 78.8368 120.329 78.9997 117.669L80.6511 90.6941Z" fill="black"/>
<path d="M64.1492 90.6941C64.0899 89.725 63.5837 88.8385 62.7792 88.2949L42.3058 74.4618C40.2298 73.059 37.4297 74.5464 37.4297 77.0519L37.4296 101.266C37.4296 102.25 37.8928 103.176 38.68 103.767L60.8048 120.361C62.9367 121.96 65.9635 120.329 65.8006 117.669L64.1492 90.6941Z" fill="black"/>
</svg>
