<svg width="189" height="123" viewBox="0 0 189 123" fill="none" xmlns="http://www.w3.org/2000/svg">
<path d="M13.4507 97.7703H13.4015H13.3964H13.3361L13.2759 97.7672C11.9446 97.6987 10.8491 98.1537 9.86062 99.1668L9.86028 99.1672C9.74168 99.2887 9.6232 99.4101 9.50486 99.5313C7.56031 101.523 5.65122 103.479 3.82008 105.497L13.4507 97.7703ZM13.4507 97.7703L13.4999 97.7683M13.4507 97.7703L13.4999 97.7683M13.4999 97.7683C14.4872 97.7268 15.3642 98.111 16.2877 99.0078C16.5342 99.248 16.7801 99.4872 17.0251 99.7256C18.9554 101.603 20.837 103.434 22.6246 105.353L22.6249 105.353M13.4999 97.7683L22.6249 105.353M22.6249 105.353C23.6902 106.497 24.1019 107.664 24.09 108.712M22.6249 105.353L24.09 108.712M24.09 108.712C24.0781 109.762 23.6368 110.938 22.5433 112.083L24.09 108.712ZM22.5432 112.083C20.528 114.194 18.4878 116.258 16.3823 118.23C15.2132 119.322 14.1505 119.693 13.2654 119.688C12.3785 119.683 11.313 119.298 10.1451 118.192C7.97178 116.128 5.85263 114.033 3.84708 111.86C2.82485 110.752 2.4327 109.651 2.43045 108.678C2.42821 107.704 2.8168 106.603 3.81997 105.497L22.5432 112.083Z" stroke="black" stroke-width="4.68901"/>
<path d="M177.086 97.8664L175.668 97.7763C174.662 97.7123 173.912 97.9909 173.426 98.4457C173.239 98.6211 173.053 98.7959 172.867 98.9702C170.281 101.397 167.791 103.734 165.579 106.291L177.086 97.8664ZM177.086 97.8664C177.717 98.0355 178.319 98.4086 178.934 99.0118L178.934 99.0123C179.332 99.4016 179.727 99.7868 180.119 100.169C181.776 101.786 183.388 103.357 184.928 105.009L177.086 97.8664ZM184.954 111.719C186.078 110.535 186.493 109.395 186.493 108.403C186.493 107.408 186.075 106.241 184.928 105.009L184.954 111.719ZM184.954 111.719C182.955 113.823 180.895 115.878 178.789 117.88L184.954 111.719ZM175.647 119.345C176.578 119.339 177.666 118.944 178.789 117.88L175.647 119.345ZM175.647 119.345C174.721 119.351 173.655 118.973 172.562 117.936L175.647 119.345ZM172.561 117.935C170.335 115.818 168.161 113.644 166.059 111.413L172.561 117.935ZM166.059 111.413C164.383 109.631 164.378 107.68 165.579 106.291L166.059 111.413Z" stroke="black" stroke-width="4.68901"/>
<path d="M70.1483 115.427C64.7877 115.406 61.6927 112.761 61.7888 108.655C61.8647 105.413 64.2921 102.718 67.5186 102.384C68.6817 102.263 69.8651 102.258 71.0383 102.303C74.9677 102.445 77.729 105.039 77.825 108.615C77.9211 112.246 75.3774 114.956 71.4631 115.366C70.8816 115.427 70.2899 115.422 70.1533 115.427H70.1483Z" fill="black"/>
<path d="M95.2366 102.298C96.1216 102.323 97.7146 102.227 99.1862 103.056C101.634 104.432 102.959 107.041 102.549 109.818C102.15 112.539 100.076 114.663 97.2999 115.209C95.803 115.502 94.2959 115.512 92.7889 115.34C88.9202 114.9 86.432 112.114 86.5939 108.452C86.7405 105.003 89.4765 102.48 93.2744 102.303C93.6941 102.283 94.1139 102.303 95.2366 102.303V102.298Z" fill="black"/>
<path d="M118.809 102.283C124.493 102.298 127.452 105.024 127.082 109.51C126.845 112.428 124.685 114.698 121.641 115.244C116.746 116.124 113.145 114.754 111.668 111.457C110.47 108.776 111.249 105.661 113.544 103.734C115.229 102.318 117.211 102.247 118.809 102.288V102.283Z" fill="black"/>
<path d="M46.0356 102.288C50.4151 102.288 53.2977 104.922 53.2572 108.892C53.2218 112.726 50.3392 115.36 46.1367 115.411C41.914 115.461 38.7381 112.67 38.6977 108.872C38.6572 105.064 41.7522 102.288 46.0356 102.288Z" fill="black"/>
<path d="M142.957 102.294C147.235 102.309 150.28 105.101 150.194 108.939C150.108 112.691 147.109 115.382 142.977 115.412C138.709 115.443 135.654 112.707 135.644 108.833C135.629 104.949 138.613 102.284 142.962 102.294H142.957Z" fill="black"/>
<path fill-rule="evenodd" clip-rule="evenodd" d="M102.08 35.7936C105.921 36.883 109.059 36.134 111.93 33.6929C115.161 30.9367 119 31.2199 121.543 34.2239C123.996 37.1166 123.743 41.3393 120.77 43.9488C113.664 50.1843 105.598 51.3929 96.7784 48.2777C96.4772 48.1727 96.1805 48.0571 95.8842 47.9417C95.6383 47.8459 95.3926 47.7502 95.1449 47.6607C95.1016 47.6453 95.0487 47.6563 94.9689 47.6731C94.9185 47.6836 94.8572 47.6965 94.7808 47.7063C94.5735 49.5117 94.7505 50.7001 97.0464 51.2867C106.771 53.7546 113.477 62.2102 113.887 72.1323C114.064 76.4006 111.677 79.445 107.909 79.7585C104.116 80.0771 101.269 77.4727 100.865 73.1943C100.602 70.4281 99.843 67.9501 97.805 65.9272C96.571 64.7034 95.9794 64.7944 95.1601 66.4329C91.6302 73.518 85.9207 77.8115 78.1023 79.2376C76.3576 79.5563 74.5825 79.7434 72.8428 79.2882C69.6467 78.4538 67.6997 75.5257 68.0335 72.2234C68.3673 68.9615 70.8706 66.5796 74.5471 66.3672C78.7243 66.1244 81.6878 64.2331 83.5236 60.4908C84.1911 59.1304 84.3226 57.8711 83.6247 56.4147C82.3857 53.8305 81.9154 51.0136 81.612 47.6658C79.1643 49.7291 78.5372 52.0908 78.3501 54.6902C78.0821 58.4021 75.594 61.042 72.2562 61.2291C68.2004 61.4516 65.2318 58.4224 65.2521 54.0884C65.2925 44.9097 71.2397 36.4288 80.0797 33.2124C82.0519 32.4943 82.6588 32.1909 80.9596 30.2692C74.0667 22.466 75.4422 10.703 83.8371 4.13378C91.8426 -2.1371 103.509 -0.463181 109.538 7.8255C115.621 16.1951 113.573 27.8974 105.062 33.6423C104.779 33.8331 104.472 33.9921 104.159 34.1545C103.427 34.5339 102.661 34.9312 102.08 35.7936ZM99.8178 18.4706C99.8026 15.4616 97.5876 13.2314 94.5785 13.196H94.5735C91.4886 13.1656 89.1168 15.3706 89.1269 18.2582C89.1421 21.1408 91.5038 23.4772 94.4572 23.5328C97.6078 23.5884 99.8329 21.4847 99.8178 18.4706Z" fill="black"/>
</svg>
