<svg width="150" height="138" viewBox="0 0 150 138" fill="none" xmlns="http://www.w3.org/2000/svg">
<path d="M105.717 0.594727L0 27.2391L24.9501 137.405L150 98.8166L105.717 0.594727ZM136.397 92.3859L119.589 97.4692L114.95 72.2013L111.174 73.1602L92.5471 26.8392L106.543 23.1272L136.397 92.3859ZM105.564 20.8567L91.6096 24.5071L86.9364 12.8859L100.617 9.38086L105.564 20.8567ZM84.3088 13.5592L88.9157 25.2117L37.8709 38.5638L36.8812 35.3479L14.1434 46.1262L10.783 32.3994L84.3088 13.5592ZM33.0498 123.666L21.5317 76.5891L68.5219 63.5789L83.5854 108.31L33.0498 123.666ZM80.3455 43.7522L17.7211 60.7409L14.1885 46.311L39.5165 44.1401L38.5512 41.1615L89.8427 27.5566L108.253 74.1234L104.338 75.3644L119.243 97.5741L101.94 102.807L80.3455 43.7522Z" fill="black"/>
<path d="M59.2114 91.6284L57.5947 85.5951C57.5537 85.4418 57.4727 85.3021 57.36 85.1903C57.2472 85.0785 57.1068 84.9987 56.9531 84.959C56.7994 84.9193 56.6379 84.9211 56.4852 84.9642C56.3324 85.0074 56.1938 85.0904 56.0837 85.2046L43.487 98.291C43.4009 98.3804 43.3343 98.4868 43.2914 98.6033C43.2485 98.7198 43.2303 98.844 43.2378 98.9679C43.2454 99.0918 43.2785 99.2128 43.3352 99.3233C43.3919 99.4338 43.4708 99.5313 43.5671 99.6097L47.7372 102.991C47.9117 103.133 48.1328 103.203 48.3569 103.189C48.5809 103.175 48.7916 103.078 48.9473 102.916L58.9924 92.4825C59.0993 92.371 59.1756 92.2338 59.2139 92.0842C59.2523 91.9346 59.2514 91.7776 59.2114 91.6284Z" fill="black"/>
<path d="M56.6044 81.8994L54.9877 75.8661C54.9467 75.7127 54.8657 75.573 54.753 75.4613C54.6402 75.3495 54.4998 75.2697 54.3461 75.2299C54.1924 75.1902 54.0309 75.192 53.8782 75.2352C53.7254 75.2784 53.5868 75.3613 53.4766 75.4756L41.2868 88.1377C41.201 88.2271 41.1347 88.3335 41.0922 88.4499C41.0496 88.5664 41.0317 88.6904 41.0396 88.8142C41.0476 88.9379 41.0811 89.0586 41.1382 89.1687C41.1952 89.2788 41.2745 89.3758 41.3711 89.4536L45.5396 92.8357C45.7138 92.9777 45.935 93.0489 46.1593 93.0352C46.3836 93.0215 46.5945 92.924 46.7501 92.762L56.3854 82.7534C56.4923 82.6419 56.5686 82.5048 56.6069 82.3551C56.6453 82.2055 56.6444 82.0486 56.6044 81.8994Z" fill="black"/>
<path d="M60.1952 103.669L61.5991 102.211C61.7059 102.099 61.7822 101.962 61.8206 101.813C61.859 101.663 61.8581 101.506 61.818 101.357L60.2014 95.3236C60.1604 95.1703 60.0794 95.0306 59.9666 94.9188C59.8539 94.807 59.7135 94.7272 59.5598 94.6875C59.4061 94.6478 59.2446 94.6496 59.0918 94.6927C58.9391 94.7359 58.8005 94.8189 58.6903 94.9331L54.7345 99.042C54.6484 99.1315 54.5818 99.2379 54.5389 99.3544C54.4961 99.471 54.4779 99.5952 54.4856 99.7191C54.4932 99.8431 54.5266 99.9641 54.5835 100.074C54.6404 100.185 54.7196 100.282 54.8162 100.36L58.9855 103.745C59.1602 103.886 59.3813 103.957 59.6053 103.943C59.8293 103.928 60.0398 103.831 60.1952 103.669Z" fill="black"/>
</svg>
