<svg width="173" height="149" viewBox="0 0 173 149" fill="none" xmlns="http://www.w3.org/2000/svg">
<path d="M31.6784 33.5791C31.6965 32.9872 31.9696 32.5509 32.513 32.3147C33.0714 32.0718 33.6012 32.1628 34.0388 32.584C34.7322 33.2512 35.4069 33.9394 36.0869 34.6208C41.4657 40.0115 46.8423 45.4051 52.2263 50.7913C52.7292 51.2937 53.0046 51.8345 52.7307 52.5385C52.3712 53.4637 51.1801 53.6938 50.4319 52.9688C49.5433 52.1068 48.678 51.2215 47.8037 50.3453C42.6372 45.1667 37.4708 39.9874 32.3029 34.8104C31.9591 34.4659 31.6492 34.1131 31.6784 33.5791Z" fill="black"/>
<path d="M34.742 54.0323C34.1086 54.021 33.6996 53.6818 33.4234 53.138C32.5918 51.4998 31.7573 49.8639 30.9235 48.2272C29.2453 44.9313 27.5672 41.6354 25.8869 38.3402C25.7375 38.0476 25.5349 37.7844 25.4951 37.4376C25.4058 36.6712 25.7563 36.0446 26.4182 35.8288C27.0997 35.6069 27.7601 35.8709 28.1218 36.5501C28.5917 37.4324 29.0345 38.3282 29.4878 39.2187C31.6327 43.427 33.7784 47.6345 35.9218 51.8436C36.2978 52.5814 36.1777 53.296 35.6133 53.7397C35.3574 53.9413 35.0632 54.0278 34.7412 54.0323H34.742Z" fill="black"/>
<path d="M53.5758 35.033C53.5645 36.2146 52.5333 36.8788 51.5824 36.4207C50.3239 35.8145 49.0885 35.1624 47.8442 34.5261C43.9791 32.5502 40.1156 30.5728 36.2513 28.5954C35.2216 28.0681 35.0204 26.9158 35.8325 26.1975C36.2768 25.8049 36.8742 25.759 37.5098 26.0817C38.6333 26.6518 39.7538 27.2287 40.8758 27.8018C44.7852 29.8003 48.693 31.8018 52.6054 33.7942C53.184 34.0891 53.572 34.493 53.5758 35.033Z" fill="black"/>
<path d="M35.581 17.7907C30.2548 12.467 24.933 7.13801 19.6269 1.79398C18.8659 1.02754 17.9909 0.795881 16.9664 0.922994C15.617 1.09072 14.3922 1.61723 13.2109 2.25054C10.8701 3.50663 8.81677 5.15008 6.93602 7.01466C4.69503 9.23575 2.72798 11.6652 1.37108 14.5437C0.862238 15.6245 0.475732 16.7445 0.433704 17.8313C0.4277 18.7677 0.667109 19.4657 1.27501 20.0441C2.10807 20.8377 2.9066 21.668 3.71939 22.4826C8.2524 27.0256 12.7862 31.5671 17.3162 36.1123C17.6689 36.4666 18.0622 36.7313 18.5552 36.8404C19.2052 36.9848 19.8491 36.9224 20.4878 36.7825C21.97 36.4576 23.3179 35.8032 24.5907 35.0044C28.6337 32.4652 31.9336 29.167 34.4643 25.1144C35.3942 23.6251 36.1672 22.0524 36.3653 20.266C36.4689 19.3281 36.2858 18.4932 35.5818 17.79L35.581 17.7907ZM34.447 22.0802C33.617 24.1313 32.3727 25.9245 30.9482 27.595C28.8768 30.0244 26.5571 32.1763 23.817 33.8416C22.6717 34.5373 21.4769 35.1248 20.1583 35.4241C19.9121 35.4805 19.6645 35.4941 19.3635 35.5129C19.2652 35.5076 19.1144 35.5076 18.9658 35.4903C18.5755 35.4459 18.3571 35.2428 18.2896 34.8547C18.1605 34.1124 18.3526 33.4106 18.5913 32.7231C19.3027 30.6758 20.4765 28.8954 21.8282 27.2287C23.9521 24.6082 26.3807 22.3171 29.2491 20.5233C30.4169 19.7929 31.6417 19.1754 32.9933 18.855C33.4076 18.7572 33.8286 18.7016 34.2564 18.767C34.7232 18.8385 34.9326 19.0618 34.9724 19.5334C35.0489 20.4345 34.7758 21.2664 34.4463 22.081L34.447 22.0802Z" fill="black"/>
<path d="M170.324 132.488C169.01 132.474 167.697 132.485 166.385 132.485C165.61 132.485 165.223 132.088 165.223 131.294C165.223 108.537 165.18 85.7809 165.269 63.0262C165.283 59.3923 163.123 56.4421 158.692 56.4823C143.196 56.624 127.698 56.5366 112.2 56.5366C96.527 56.5366 80.8558 56.5366 65.1828 56.5331C64.3 56.5331 63.4382 56.5803 62.6097 56.9248C60.3975 57.8481 59.1854 59.8015 59.1836 62.505C59.1819 82.9602 59.1836 103.414 59.1836 123.869C59.1836 126.462 59.1644 129.055 59.1959 131.649C59.2029 132.287 59.0365 132.523 58.3657 132.5C56.9364 132.453 55.5054 132.476 54.0761 132.49C52.5084 132.506 51.8341 133.23 51.9129 134.774C52.3245 142.871 58.5618 148.872 66.6751 148.878C97.0279 148.895 127.381 148.883 157.734 148.89C158.937 148.89 160.13 148.802 161.291 148.502C167.835 146.812 172.146 141.515 172.494 134.772C172.573 133.233 171.895 132.507 170.327 132.49L170.324 132.488ZM63.0581 61.2005C63.3927 60.5971 63.8656 60.2159 64.5802 60.1967C64.9586 60.1862 65.3386 60.1792 65.717 60.1792C96.7039 60.1792 127.693 60.1792 158.68 60.1792C159.03 60.1792 159.38 60.1722 159.73 60.1914C160.802 60.2526 161.494 60.9521 161.554 62.0346C161.571 62.3546 161.561 62.6747 161.561 62.9964C161.561 85.7756 161.561 108.557 161.561 131.336C161.561 132.099 161.186 132.482 160.436 132.483C144.359 132.483 128.281 132.483 112.205 132.483C96.1574 132.483 80.1096 132.483 64.0618 132.483C63.2502 132.483 62.8444 132.073 62.8444 131.252C62.8444 108.413 62.8444 85.5763 62.8444 62.7376C62.8444 62.2165 62.7884 61.6884 63.0581 61.2005ZM168.444 137.222C167.283 141.699 163.064 145.065 158.427 145.214C158.019 145.228 157.611 145.238 157.203 145.238C127.209 145.238 97.2154 145.228 67.2216 145.256C63.6957 145.259 60.7075 144.18 58.3271 141.559C57.0905 140.197 56.2918 138.598 55.8364 136.818C55.712 136.334 55.7979 136.085 56.3514 136.129C56.6124 136.15 56.8768 136.133 57.1396 136.133C75.4925 136.133 93.8436 136.133 112.196 136.133C130.665 136.133 149.135 136.133 167.604 136.133C168.353 136.133 168.634 136.496 168.446 137.222H168.444Z" fill="black"/>
<path d="M68.3424 120.924C68.3424 119.614 68.3319 118.304 68.3459 116.994C68.3599 115.746 69.0553 114.994 70.1623 114.99C71.271 114.989 71.9839 115.741 71.9962 116.98C72.0137 118.785 72.0487 120.592 71.9822 122.395C71.9506 123.232 72.2414 123.411 73.0191 123.388C74.825 123.334 76.6343 123.365 78.4419 123.374C79.7293 123.381 80.5526 124.096 80.5543 125.186C80.5561 126.279 79.7504 127.006 78.4419 127.015C75.7883 127.034 73.1347 127.036 70.4811 127.015C69.0238 127.004 68.3512 126.301 68.3407 124.853C68.3319 123.543 68.3389 122.234 68.3407 120.924H68.3424Z" fill="black"/>
<path d="M149.85 127.02C148.538 127.02 147.224 127.037 145.912 127.015C144.621 126.992 143.821 126.247 143.842 125.142C143.863 124.072 144.649 123.382 145.902 123.375C147.797 123.363 149.694 123.341 151.589 123.388C152.272 123.405 152.425 123.169 152.412 122.54C152.377 120.735 152.395 118.928 152.404 117.124C152.411 115.742 153.097 114.971 154.272 114.994C155.395 115.015 156.056 115.788 156.059 117.124C156.066 119.715 156.068 122.307 156.059 124.899C156.054 126.287 155.364 126.99 153.964 127.016C152.595 127.043 151.223 127.022 149.852 127.022L149.85 127.02Z" fill="black"/>
<path d="M74.4415 65.6616C75.8112 65.6616 77.1809 65.6494 78.5506 65.6651C79.754 65.6791 80.5684 66.4363 80.5562 67.4943C80.5457 68.5313 79.7767 69.2623 78.5962 69.278C76.6449 69.3042 74.6919 69.306 72.7389 69.2763C72.1627 69.2675 71.9823 69.4511 71.9928 70.0212C72.0225 71.8539 72.0103 73.6866 71.9998 75.5193C71.9928 76.8641 71.2641 77.6895 70.1309 77.665C69.0291 77.6405 68.346 76.8396 68.3425 75.5298C68.3355 72.9399 68.3338 70.3517 68.3425 67.7618C68.3478 66.3401 69.0064 65.6756 70.4199 65.6616C71.7598 65.6476 73.1015 65.6581 74.4415 65.6581V65.6616Z" fill="black"/>
<path d="M149.948 65.6615C151.318 65.6615 152.687 65.6475 154.057 65.6667C155.348 65.6842 156.049 66.3802 156.056 67.6743C156.07 70.3516 156.071 73.029 156.056 75.7063C156.049 76.871 155.318 77.6439 154.271 77.6684C153.192 77.6946 152.419 76.9007 152.407 75.6976C152.388 73.8054 152.382 71.915 152.41 70.0229C152.419 69.451 152.239 69.2692 151.663 69.2779C149.71 69.3076 147.757 69.3111 145.804 69.2779C144.381 69.2552 143.527 68.1377 143.945 66.8961C144.231 66.0462 144.865 65.6615 145.749 65.6632C145.807 65.6632 145.867 65.6615 145.924 65.6615C147.264 65.6615 148.606 65.6615 149.946 65.6615H149.948Z" fill="black"/>
<path d="M138.272 90.8593C133.271 83.3904 128.271 75.9215 123.27 68.4526C122.25 66.9312 121.497 66.7773 119.928 67.7706C110.634 73.6551 101.256 79.4085 92.0727 85.4662C90.2266 86.6833 88.3769 87.897 86.5308 89.1123C85.8337 89.5705 85.4886 90.2035 85.627 91.0447C85.7478 91.7792 86.2085 92.3528 86.9074 92.421C87.7429 92.5032 87.6973 92.9543 87.6973 93.5367C87.6868 98.7217 87.7131 103.907 87.6746 109.092C87.6658 110.209 87.9373 111.068 88.9269 111.68C89.5172 112.045 90.0374 112.526 90.5909 112.955C92.0885 114.112 93.5913 115.261 95.0819 116.428C95.6862 116.902 96.343 117.045 97.0437 116.753C97.7951 116.44 98.1121 115.804 98.1542 115.017C98.1699 114.726 98.1647 114.434 98.1647 114.142C98.1647 110.821 98.1647 107.5 98.1699 104.18C98.1699 103.928 98.0473 103.588 98.289 103.445C98.6078 103.256 98.797 103.63 99.0089 103.788C100.034 104.556 101.023 105.372 102.055 106.131C102.524 106.476 102.715 106.859 102.703 107.45C102.664 109.314 102.689 111.178 102.689 113.042H102.692C102.692 114.936 102.706 116.83 102.685 118.722C102.677 119.565 103.022 120.153 103.728 120.599C106.091 122.09 108.441 123.599 110.792 125.11C111.587 125.621 112.337 125.581 113.149 125.098C120.161 120.947 127.174 116.8 134.21 112.692C135.263 112.079 135.734 111.321 135.72 110.096C135.673 105.902 135.795 101.703 135.657 97.5133C135.601 95.8205 136.039 94.787 137.599 94.0316C139.079 93.3146 139.207 92.2531 138.274 90.8576L138.272 90.8593ZM110.121 119.859C110.121 119.945 110.093 120.028 110.051 120.273C108.849 119.507 107.753 118.806 106.653 118.108C106.283 117.874 106.364 117.503 106.364 117.162C106.36 113.579 106.339 109.996 106.374 106.414C106.385 105.358 106.024 104.587 105.183 103.949C102.682 102.044 100.205 100.107 97.7285 98.1709C97.0594 97.648 96.3536 97.3752 95.5443 97.7599C94.7334 98.1464 94.5057 98.8669 94.5092 99.7168C94.5197 103.24 94.5162 106.766 94.5039 110.29C94.5039 110.556 94.6756 110.933 94.3375 111.07C94.08 111.175 93.9066 110.832 93.6807 110.715C91.7697 109.723 91.1987 108.223 91.2828 106.045C91.4737 101.102 91.3546 96.1441 91.3301 91.1933C91.3266 90.5376 91.514 90.1458 92.0885 89.7839C94.2552 88.4198 96.3903 87.0068 98.515 85.5781C99.0352 85.2284 99.2857 85.2441 99.657 85.8072C103.017 90.9083 106.415 95.9849 109.802 101.067C109.998 101.362 110.137 101.654 110.137 102.032C110.126 107.974 110.128 113.917 110.124 119.859H110.121ZM132.036 108.922C132.04 109.471 131.903 109.818 131.394 110.115C125.796 113.395 120.213 116.702 114.624 119.999C113.789 120.492 113.78 120.481 113.78 119.492C113.78 115.676 113.78 111.86 113.78 108.044C113.78 107.791 113.78 107.535 113.78 107.117C115.02 107.915 115.961 107.35 116.931 106.752C121.662 103.833 126.403 100.934 131.148 98.0415C131.374 97.9033 131.611 97.564 131.916 97.7791C132.143 97.94 132.022 98.2705 132.022 98.5241C132.028 101.99 132.015 105.456 132.036 108.922ZM133.772 92.1534C129.46 94.8028 125.142 97.4399 120.825 100.082C119.287 101.023 117.74 101.952 116.218 102.919C115.743 103.221 115.503 103.165 115.188 102.688C111.021 96.3819 106.84 90.0864 102.642 83.8031C102.304 83.2977 102.43 83.0774 102.882 82.7941C108.671 79.1602 114.452 75.5176 120.227 71.8627C120.718 71.5514 120.986 71.5601 121.331 72.083C125.542 78.4292 129.777 84.7597 134.005 91.0954C134.117 91.2615 134.214 91.4399 134.296 91.5763C134.284 91.9628 133.977 92.0292 133.77 92.1552L133.772 92.1534Z" fill="black"/>
</svg>
