<svg width="104" height="156" viewBox="0 0 104 156" fill="none" xmlns="http://www.w3.org/2000/svg">
<path d="M49.1343 30.3548C49.1343 29.7349 49.0818 29.1151 49.1448 28.5058C49.3863 26.3071 48.8824 25.0726 46.4467 24.1031C41.0924 21.9838 38.3208 15.6685 39.6698 10.0844C41.0556 4.36776 46.1002 0.436595 51.9427 0.521364C57.7799 0.611431 62.5673 4.65386 63.7956 10.5453C64.961 16.1242 62.1263 22.0103 56.8298 24.2037C54.94 24.9879 54.2944 25.8832 54.5201 27.817C54.6723 29.1203 54.6566 30.4714 54.5201 31.78C54.3049 33.9151 54.5778 35.6635 56.6986 36.8502C57.8482 37.4966 58.5936 38.8529 58.6461 40.1668C58.73 42.1695 59.8691 43.0649 61.4177 43.8543C62.6618 44.4848 63.8534 45.2371 65.0292 46C67.2864 47.4623 69.2444 48.506 72.331 47.3086C76.2995 45.7722 80.4937 49.1153 80.8034 53.5233C80.9136 55.1021 81.4753 55.8597 82.7194 56.5379C84.7141 57.624 86.7036 58.7419 88.5828 60.024C90.4516 61.2955 92.0736 61.873 94.4935 60.9777C98.1838 59.6108 102.231 62.3922 103.003 66.2545C103.832 70.4082 101.344 74.1487 97.2704 74.8586C93.26 75.5579 89.3755 72.8347 89.0868 68.6651C88.9555 66.7314 88.1839 65.8996 86.6983 65.1207C84.9976 64.2307 83.3703 63.187 81.7482 62.1538C79.6905 60.8452 77.9215 59.9286 75.1341 61.0306C71.3441 62.53 67.1394 59.2293 66.8087 54.9855C66.6932 53.5233 66.1158 52.808 64.9872 52.167C62.7038 50.8742 60.4781 49.4914 58.2104 48.1722C56.1001 46.9484 54.6146 47.8384 54.5516 50.355C54.5254 51.4146 54.5883 52.4743 54.5411 53.5286C54.4414 55.8226 54.6093 57.6664 56.793 59.3988C60.0791 62.0055 59.7327 67.2294 56.3469 69.7725C54.8456 70.9009 54.3941 72.0082 54.5306 73.7089C54.6356 75.0228 54.6146 76.3579 54.5359 77.6772C54.4571 79.0759 54.6408 80.1673 56.0424 80.9673C57.6329 81.8732 58.7353 83.5051 58.7615 85.2693C58.7878 87.3514 59.8954 88.4164 61.2497 89.5713C63.3232 91.3303 65.3127 93.1846 67.3389 95.0019C69.4229 96.8721 71.1394 98.9436 74.6722 98.2178C77.3493 97.6668 80.0475 100.3 80.9083 102.96C81.8322 105.821 80.9241 108.899 78.5934 110.822C76.079 112.893 76.0107 118.949 78.4779 120.989C82.2364 124.099 82.2784 129.54 78.3624 132.337C77.0869 133.249 76.6932 134.144 76.7929 135.564C76.8769 136.793 76.8559 138.038 76.7929 139.267C76.7247 140.565 76.9714 141.466 78.2207 142.298C80.9713 144.141 81.9005 147.437 80.8874 150.467C79.9687 153.217 77.2181 155.214 74.289 155.257C71.2129 155.299 68.3888 153.334 67.4229 150.483C66.394 147.432 67.3022 144.205 70.0738 142.319C71.3021 141.482 71.5856 140.602 71.5069 139.294C71.4334 138.065 71.4281 136.82 71.5069 135.59C71.6013 134.171 71.2076 133.286 69.9373 132.359C66.0371 129.519 66.0003 123.924 69.8428 121.047C71.1342 120.083 71.6643 119.182 71.5173 117.625C71.3861 116.226 71.4334 114.801 71.5173 113.391C71.5751 112.401 71.2391 111.834 70.4045 111.278C67.7431 109.508 66.5673 106.981 67.2497 103.781C67.4911 102.652 67.1499 102.001 66.3363 101.291C63.3652 98.6946 60.4098 96.0668 57.5332 93.3648C56.5988 92.4853 55.9322 92.4906 54.8403 93.0946C52.9926 94.1171 50.8928 94.2548 49.0608 93.174C47.6488 92.3422 46.8456 92.5965 45.738 93.6508C43.0766 96.1992 40.3155 98.6469 37.5124 101.031C36.4625 101.921 36.1213 102.753 36.3733 104.157C36.8877 107.002 35.8903 109.45 33.4966 111.044C32.3785 111.791 31.9953 112.538 32.0898 113.805C32.1843 115.119 32.1791 116.454 32.0898 117.773C31.9953 119.188 32.3838 120.078 33.6436 120.994C37.3811 123.717 37.6646 129.196 34.0478 131.919C32.2316 133.286 32.0636 134.711 32.0846 136.592C32.1108 139.188 32.0006 141.418 34.5885 143.442C37.6646 145.842 37.0557 150.865 34.0898 153.503C31.1555 156.115 26.5151 155.765 24.0059 152.74C21.4128 149.614 21.796 145.19 24.8825 142.584C27.5912 140.295 27.6332 134.472 24.956 132.258C21.355 129.275 21.3078 123.887 25.1083 121.058C26.5413 119.993 26.8405 118.933 26.809 117.354C26.7565 114.525 27.1765 111.882 24.1424 109.789C21.7172 108.115 21.7382 104.485 23.1923 101.789C24.6043 99.1661 27.5334 97.5132 30.4363 98.1754C31.9691 98.5304 32.851 98.1118 33.8641 97.1635C36.1055 95.0654 38.452 93.0787 40.6987 90.9859C42.6882 89.1369 45.2656 87.7276 45.1973 84.3421C45.1711 83.1289 46.263 82.1858 47.1186 81.2852C47.801 80.5646 49.1553 80.4745 49.1343 79.0918C49.0923 76.448 49.1396 73.799 48.9558 71.1658C48.9243 70.6996 47.9165 70.3234 47.3811 69.8731C43.864 66.9115 43.7275 61.624 47.3706 58.869C48.8771 57.7299 49.2603 56.6014 49.1553 54.9167C49.0608 53.3325 49.1763 51.7431 49.1291 50.1537C49.0608 47.8649 47.4965 46.9484 45.5595 48.0504C43.8115 49.0411 42.116 50.1325 40.3627 51.1179C38.2473 52.3047 36.515 53.3749 36.0478 56.363C35.4336 60.2942 30.7933 62.3181 26.9035 60.7922C25.5755 60.273 24.6621 60.3525 23.5492 61.0889C21.9482 62.1538 20.2999 63.1658 18.6096 64.0717C16.153 65.3909 14.174 66.6307 13.6858 70.0374C13.1346 73.9261 8.53096 75.8811 4.77246 74.5937C1.08745 73.3327 -0.907281 69.0943 0.410294 65.3486C1.71737 61.6399 6.05329 59.4677 9.57558 61.1737C11.2344 61.979 12.2737 61.6558 13.565 60.8452C15.1188 59.8651 16.6831 58.8902 18.2999 58.0266C20.6149 56.7816 22.3051 55.5418 22.7146 52.3524C23.2973 47.8384 28.4311 45.6503 32.5098 47.7643C33.8116 48.4371 34.6462 48.4053 35.7696 47.653C37.3654 46.5881 39.0399 45.6238 40.7092 44.6755C42.8824 43.4357 45.2183 42.4291 45.3233 39.3085C45.3443 38.6251 45.99 37.8887 46.4992 37.3059C49.1186 34.2754 49.1343 34.2913 49.1448 30.3548H49.1343Z" fill="black"/>
</svg>
