<svg width="137" height="136" viewBox="0 0 137 136" fill="none" xmlns="http://www.w3.org/2000/svg">
<path d="M136.505 39.9693C136.505 39.3462 136.469 38.714 136.365 38.1C135.564 33.3743 131.655 30.084 126.807 30.0697C121.212 30.0529 115.616 30.0568 110.021 30.0801C109.447 30.0827 109.317 29.9311 109.319 29.365C109.343 23.9463 109.332 18.5289 109.335 13.1102C109.335 12.3084 109.256 11.5156 109.094 10.7318C107.889 4.90508 102.865 0.842666 96.8283 0.841371C76.0956 0.836189 55.3642 0.83878 34.6316 0.841371C34.2893 0.841371 33.9458 0.863393 33.6049 0.884119C27.333 1.25461 22.2408 6.41035 22.1045 12.7436C21.9835 18.3748 22.062 24.0111 22.0684 29.6449C22.0684 30.746 22.9021 31.5621 23.9288 31.553C24.9554 31.5426 25.7454 30.7252 25.7583 29.6112C25.7763 28.1007 25.7994 26.5877 25.7467 25.0785C25.7235 24.4334 25.9229 24.3142 26.5276 24.3142C52.4914 24.3311 78.4552 24.3285 104.418 24.3285C104.675 24.3285 104.935 24.3531 105.188 24.3233C105.604 24.2741 105.686 24.4593 105.681 24.8415C105.662 26.3092 105.677 27.7769 105.672 29.2446C105.668 30.1824 105.796 30.0659 104.853 30.0659C94.0468 30.0684 83.2411 30.0594 72.4354 30.071C66.8827 30.0775 62.7168 34.2954 62.7168 39.876C62.7168 58.118 62.7168 76.3587 62.7143 94.6007C62.7143 95.3378 62.758 96.0671 62.9163 96.7873C63.9133 101.334 67.7434 104.403 72.4367 104.404C83.2849 104.407 94.1343 104.408 104.982 104.393C105.509 104.393 105.677 104.52 105.662 105.068C105.621 106.404 105.624 107.745 105.662 109.082C105.675 109.581 105.516 109.688 105.044 109.687C78.8231 109.675 52.602 109.675 26.3822 109.69C25.8586 109.69 25.7505 109.526 25.7531 109.033C25.7724 105.298 25.7634 101.564 25.7634 97.8288C25.7634 96.4907 25.7827 95.1512 25.7557 93.8131C25.7261 92.3894 24.3881 91.5111 23.1466 92.0876C22.3245 92.4697 22.0581 93.1718 22.0581 94.045C22.0646 103.63 22.062 113.214 22.062 122.798C22.062 123.576 22.1238 124.35 22.2704 125.115C23.4283 131.134 28.4227 135.255 34.5788 135.256C55.3115 135.258 76.0429 135.257 96.7756 135.256C97.1615 135.256 97.5475 135.244 97.9322 135.225C98.6621 135.189 99.0266 134.834 99.0257 134.157C99.3748 134.745 99.9006 134.933 100.603 134.723C105.785 133.175 109.316 128.442 109.33 122.977C109.345 117.019 109.343 111.061 109.321 105.103C109.318 104.535 109.452 104.385 110.024 104.388C115.62 104.411 121.216 104.4 126.811 104.403C128.068 104.403 129.287 104.198 130.456 103.731C134.209 102.228 136.508 98.7395 136.509 94.4983C136.514 76.3211 136.513 58.1452 136.507 39.968L136.505 39.9693ZM104.972 20.6055C91.8983 20.5899 78.8244 20.5938 65.7505 20.5938C52.6766 20.5938 39.6028 20.5886 26.5289 20.6081C25.9268 20.6081 25.7338 20.4928 25.748 19.8477C25.793 17.7128 25.7608 15.5754 25.766 13.438C25.7801 8.37678 29.587 4.56697 34.62 4.56697C55.2819 4.56697 75.9425 4.56697 96.6045 4.56697C101.927 4.56697 105.671 8.33792 105.672 13.6983C105.672 15.7697 105.645 17.8424 105.689 19.9137C105.702 20.5135 105.513 20.6068 104.972 20.6055ZM105.581 123.421C105.318 128.162 101.631 131.517 96.8965 131.525C90.2515 131.535 83.6052 131.528 76.9602 131.528C62.8326 131.528 48.7051 131.53 34.5788 131.526C30.1042 131.526 26.5636 128.513 25.8638 124.114C25.7866 123.627 25.7724 123.126 25.7698 122.631C25.7608 119.803 25.7853 116.975 25.7505 114.148C25.7428 113.534 25.8805 113.36 26.5147 113.361C39.5706 113.382 52.6252 113.376 65.681 113.376C78.7575 113.376 91.8352 113.38 104.912 113.365C105.485 113.365 105.671 113.488 105.662 114.102C105.617 117.21 105.753 120.322 105.581 123.421ZM132.808 94.6292C132.807 98.1177 130.242 100.663 126.774 100.663C108.661 100.665 90.5474 100.665 72.4341 100.663C68.9566 100.663 66.4247 98.1164 66.4234 94.6214C66.4221 85.4914 66.4234 76.3613 66.4234 67.2325C66.4234 58.1245 66.4234 49.0164 66.4234 39.9071C66.4234 36.359 68.9309 33.8031 72.4418 33.8018C90.5551 33.7979 108.668 33.7966 126.782 33.8018C130.253 33.8018 132.808 36.3629 132.809 39.8488C132.816 58.1089 132.816 76.3678 132.809 94.6279L132.808 94.6292Z" fill="#231F20"/>
<path d="M51.1019 59.6064C51.0414 57.9975 50.2991 56.7721 48.9354 55.9326C48.3603 55.5777 47.7132 55.373 47.0634 55.2759C45.8116 55.088 44.9213 54.5517 44.6653 53.2188C44.6422 53.0957 44.5714 52.9765 44.5019 52.869C44.2935 52.5451 44.3102 52.2537 44.5109 51.9156C44.8725 51.3054 45.1928 50.6681 45.5157 50.0359C46.4729 48.1654 46.1732 46.1691 44.7001 44.6807C43.8831 43.8555 43.052 43.0433 42.2196 42.2337C41.6844 41.7129 41.0463 41.3748 40.3271 41.1818C38.818 40.7763 37.4517 41.1896 36.2616 42.0808C35.1089 42.9448 34.0217 43.0161 32.8047 42.2933C32.51 42.1184 32.2875 41.9824 32.1948 41.6287C31.998 40.8787 31.7677 40.1364 31.5297 39.398C30.8954 37.429 29.2679 36.2463 27.2198 36.2553C26.1262 36.2605 25.0339 36.2748 23.9404 36.2838C21.8562 36.3007 20.2493 37.5132 19.6472 39.5327C19.4259 40.2763 19.211 41.0225 19.0103 41.7725C18.9434 42.0225 18.8045 42.143 18.5832 42.2803C17.2452 43.1094 15.9522 43.2363 14.6811 42.1572C14.5846 42.0756 14.4572 42.0329 14.344 41.9707C12.3936 40.9149 10.3647 41.2206 8.8196 42.8101C8.07083 43.5809 7.3272 44.3594 6.58744 45.1393C5.15423 46.6497 4.89692 48.6758 5.90557 50.5075C6.26966 51.1681 6.63504 51.8275 7.01843 52.4765C7.15352 52.7032 7.12393 52.8858 7.06346 53.1358C6.68522 54.7033 5.81037 55.6956 4.14558 55.8523C3.97832 55.8679 3.81493 55.943 3.65283 55.9948C1.83494 56.5778 0.657751 58.0209 0.5574 59.9458C0.491787 61.214 0.554827 62.49 0.575412 63.7621C0.607576 65.7467 1.83623 67.3685 3.73131 67.9372C4.45049 68.1536 5.17095 68.3595 5.89656 68.5525C6.22849 68.6406 6.45235 68.7831 6.57586 69.1433C6.80487 69.8117 7.34007 70.4724 7.30147 71.1084C7.2603 71.7768 6.69422 72.4129 6.35715 73.0619C6.27738 73.2147 6.19247 73.365 6.11528 73.5179C5.23657 75.2524 5.5299 77.2784 6.88463 78.6619C7.69644 79.4923 8.53141 80.2993 9.36509 81.109C10.8356 82.5352 12.8323 82.806 14.6399 81.824C15.2999 81.4652 15.9471 81.0844 16.6045 80.7204C17.0483 80.4742 19.2432 81.2579 19.4323 81.7256C19.4722 81.8253 19.4953 81.9316 19.5275 82.0352C19.7565 82.7762 19.9675 83.5249 20.2197 84.2581C20.8269 86.0251 22.4261 87.1702 24.2826 87.1909C24.8615 87.1974 25.4405 87.1909 26.0194 87.1909C26.0194 87.1832 26.0194 87.1767 26.0194 87.1689C26.5984 87.1689 27.1773 87.1728 27.755 87.1689C29.8225 87.1508 31.4641 85.8981 32.0379 83.9019C32.2463 83.1765 32.4367 82.4458 32.6451 81.7204C32.7867 81.2269 34.8889 80.2307 35.3585 80.4289C35.4575 80.4703 35.5501 80.5247 35.6441 80.5766C36.268 80.9121 36.8856 81.2592 37.516 81.5805C39.339 82.5106 41.3383 82.1816 42.7728 80.7204C43.5563 79.9224 44.336 79.1192 45.1092 78.3109C46.4935 76.8639 46.7804 74.8146 45.8425 73.0489C45.4784 72.3636 45.0989 71.6874 44.7065 71.019C44.5521 70.756 44.5097 70.5371 44.6486 70.2418C44.8956 69.7171 45.1053 69.1718 45.2932 68.6212C45.3896 68.3388 45.5569 68.2119 45.8258 68.1341C46.5668 67.9191 47.304 67.6911 48.0386 67.4514C49.962 66.8232 51.1392 65.2065 51.1457 63.1662C51.1495 61.9796 51.1457 60.7917 51.1006 59.6051L51.1019 59.6064ZM46.6517 63.9875C45.6405 64.2712 44.6473 64.6184 43.6387 64.9073C42.8461 65.134 42.3392 65.612 42.1167 66.4151C41.804 67.5408 41.3563 68.6147 40.8263 69.6524C40.4493 70.3907 40.4879 71.0967 40.8932 71.8066C41.4155 72.7238 41.9044 73.6604 42.4486 74.5633C42.7535 75.0698 42.7329 75.4584 42.3007 75.8781C41.6214 76.5362 40.9575 77.2124 40.3297 77.921C39.891 78.4158 39.4831 78.4482 38.926 78.1192C38.0409 77.5945 37.1094 77.1489 36.2114 76.6463C35.4704 76.2305 34.7615 76.2279 34.0166 76.6463C33.0041 77.215 31.9414 77.6761 30.8272 78.0065C30.081 78.228 29.6295 78.7215 29.4236 79.4664C29.1251 80.5468 28.8061 81.622 28.5269 82.7075C28.3918 83.2347 28.1062 83.4459 27.5658 83.4381C26.5598 83.4239 25.5511 83.4472 24.545 83.4783C24.0291 83.4951 23.7654 83.2619 23.6264 82.7736C23.3383 81.758 22.996 80.7566 22.713 79.7397C22.4724 78.8731 21.9784 78.3251 21.092 78.0881C19.9932 77.7927 18.946 77.3406 17.9412 76.8017C17.2542 76.4338 16.5942 76.4442 15.9226 76.8251C14.9526 77.3769 13.9709 77.9093 13.0086 78.4728C12.5493 78.741 12.1903 78.7112 11.8108 78.3148C11.1418 77.6165 10.4496 76.9378 9.74205 76.2797C9.31492 75.882 9.22357 75.5076 9.52977 74.9765C10.0675 74.0438 10.5346 73.0722 11.0518 72.1266C11.4364 71.4232 11.448 70.7314 11.0646 70.0345C10.4818 68.9748 10.0058 67.8673 9.6417 66.7131C9.40626 65.9643 8.91094 65.5265 8.16989 65.3231C7.11621 65.0342 6.07025 64.7117 5.01399 64.4331C4.49938 64.2971 4.26522 64.0264 4.27166 63.4745C4.28324 62.5263 4.26008 61.5755 4.21248 60.6285C4.18031 59.9938 4.39645 59.6272 5.03844 59.4562C6.07282 59.1802 7.08662 58.824 8.11328 58.5183C8.85433 58.2981 9.33035 57.8356 9.54006 57.0817C9.85784 55.9339 10.312 54.8406 10.8678 53.7913C11.2563 53.0568 11.2306 52.3573 10.815 51.6422C10.2528 50.6733 9.72532 49.6849 9.16182 48.7172C8.92895 48.3169 8.97141 47.9995 9.29176 47.6757C10.0341 46.9269 10.7726 46.1756 11.4917 45.4061C11.8263 45.0486 12.1492 45.002 12.5737 45.239C13.5284 45.774 14.5061 46.2689 15.4595 46.8039C16.1992 47.2184 16.9055 47.2288 17.6517 46.8078C18.663 46.2365 19.7282 45.7805 20.8359 45.4307C21.5705 45.1989 22.0324 44.7234 22.2357 43.9682C22.5213 42.9073 22.8481 41.8567 23.1337 40.7945C23.2752 40.2659 23.5351 39.9926 24.1243 40.0069C25.1085 40.0302 26.0953 39.9978 27.0808 39.9628C27.6173 39.9434 27.9081 40.1688 28.0547 40.6882C28.3545 41.7453 28.7019 42.7894 29.0055 43.8452C29.2126 44.5641 29.6488 45.0382 30.3396 45.3077C31.5181 45.7675 32.6914 46.2404 33.8609 46.7236C34.5466 47.0073 35.1912 46.958 35.8306 46.5875C36.7775 46.0396 37.7398 45.5162 38.6829 44.9618C39.1139 44.7079 39.4664 44.7144 39.8318 45.0875C40.5394 45.809 41.2611 46.5176 41.9945 47.2119C42.3791 47.5759 42.4576 47.9283 42.1862 48.4102C41.6368 49.3856 41.1312 50.387 40.6063 51.3754C40.2435 52.0581 40.246 52.733 40.6217 53.4118C41.1968 54.452 41.6702 55.5375 42.006 56.6788C42.2338 57.4535 42.7291 57.9198 43.501 58.1271C44.556 58.4108 45.6006 58.7346 46.6582 59.0118C47.1985 59.153 47.4571 59.4445 47.425 60.0223C47.3967 60.5171 47.4185 61.0145 47.4185 61.5107H47.443C47.443 61.9848 47.4147 62.4628 47.4507 62.9343C47.497 63.5458 47.2127 63.8321 46.6543 63.9888L46.6517 63.9875Z" fill="#231F20"/>
<path d="M116.497 81.6168C119.496 81.6168 122.496 81.609 125.495 81.6194C126.97 81.6245 127.884 83.0365 127.244 84.3009C126.847 85.0833 126.167 85.3385 125.327 85.3372C119.627 85.3281 113.929 85.332 108.23 85.332C107.994 85.332 107.758 85.3398 107.522 85.3307C106.434 85.2906 105.649 84.4757 105.676 83.4187C105.702 82.3966 106.494 81.6233 107.563 81.6194C110.542 81.6103 113.519 81.6168 116.497 81.6168Z" fill="#231F20"/>
<path d="M82.6699 81.6168C85.6482 81.6168 88.6266 81.6129 91.6036 81.6181C92.5042 81.6194 93.1797 82.0922 93.4383 82.8681C93.684 83.6065 93.4524 84.4291 92.8567 84.9162C92.4927 85.2141 92.0694 85.3346 91.6036 85.3346C85.6264 85.3333 79.6491 85.3372 73.6705 85.3307C72.5795 85.3294 71.7638 84.512 71.7664 83.4757C71.769 82.4342 72.5782 81.6258 73.6705 81.6219C76.6694 81.6116 79.6697 81.6181 82.6686 81.6181L82.6699 81.6168Z" fill="#231F20"/>
<path d="M79.7636 89.6108C81.7551 89.6108 83.7467 89.5952 85.7383 89.6159C87.2294 89.6315 88.1248 91.0202 87.4867 92.3C87.1483 92.9788 86.5771 93.3286 85.8296 93.3299C81.7822 93.3377 77.7334 93.3441 73.6859 93.3286C72.5705 93.3247 71.7677 92.5164 71.7638 91.4878C71.7613 90.4256 72.5782 89.6237 73.722 89.6159C75.7354 89.6017 77.7488 89.6121 79.761 89.6121L79.7636 89.6108Z" fill="#231F20"/>
<path d="M113.669 89.6108C115.618 89.6108 117.567 89.6056 119.517 89.6133C120.77 89.6185 121.61 90.3906 121.593 91.4943C121.576 92.5863 120.761 93.3273 119.537 93.3286C115.617 93.3351 111.698 93.3364 107.778 93.3312C106.517 93.3299 105.676 92.5773 105.673 91.48C105.671 90.3686 106.503 89.6146 107.759 89.6108C109.73 89.6043 111.698 89.6095 113.669 89.6108Z" fill="#231F20"/>
<path d="M65.6991 14.4458C62.7194 14.4458 59.7398 14.4549 56.7589 14.4406C55.3758 14.4341 54.4868 13.2436 54.9152 11.9975C55.17 11.2539 55.709 10.8316 56.4848 10.7487C56.8451 10.7111 57.213 10.7254 57.5771 10.7254C63.108 10.7254 68.6388 10.7254 74.1697 10.7254C74.4051 10.7254 74.6418 10.7189 74.876 10.7396C75.8769 10.8303 76.5935 11.6037 76.5935 12.5791C76.5935 13.5947 75.8628 14.3849 74.831 14.4341C74.1041 14.4678 73.3733 14.4445 72.6451 14.4445C70.3293 14.4445 68.0148 14.4458 65.6991 14.4458Z" fill="#231F20"/>
<path d="M125.258 39.1972C108.152 39.1972 91.0466 39.1972 73.9394 39.1972C72.474 39.1972 71.7651 39.9097 71.7651 41.3748C71.7651 45.5409 71.7651 49.7056 71.7651 53.8716C71.7651 55.7293 72.3724 56.3329 74.2417 56.3329C82.666 56.3329 91.0903 56.3329 99.5146 56.3329C108.089 56.3329 116.664 56.3329 125.238 56.3329C126.744 56.3329 127.444 55.6308 127.446 54.1191C127.448 49.8882 127.448 45.6587 127.446 41.4279C127.446 39.9019 126.755 39.1985 125.258 39.1972ZM123.109 52.6073C115.265 52.5905 107.42 52.5957 99.5777 52.5957C91.7773 52.5957 83.9757 52.5892 76.1754 52.6099C75.6145 52.6112 75.4588 52.4855 75.4652 51.9052C75.4987 49.1006 75.4897 46.2948 75.4704 43.4902C75.4665 43.0329 75.6003 42.915 76.0467 42.915C91.7555 42.9254 107.464 42.9254 123.174 42.915C123.628 42.915 123.745 43.0459 123.743 43.4941C123.724 46.3207 123.721 49.1473 123.747 51.9739C123.752 52.4855 123.612 52.6099 123.11 52.6086L123.109 52.6073Z" fill="#231F20"/>
<path d="M127.446 62.0703C127.444 60.7283 126.704 59.9963 125.373 59.9951C122.437 59.9925 119.501 59.9951 116.565 59.9951C113.629 59.9951 110.693 59.9925 107.758 59.9951C106.404 59.9963 105.675 60.7075 105.672 62.0535C105.666 66.3905 105.666 70.7275 105.672 75.0646C105.673 76.3794 106.404 77.1036 107.709 77.1036C113.601 77.1061 119.495 77.1061 125.387 77.1036C126.722 77.1036 127.444 76.3768 127.446 75.0179C127.451 70.7029 127.449 66.3853 127.446 62.0703ZM123.128 73.6733C118.738 73.6565 114.347 73.6539 109.958 73.6759C109.452 73.6785 109.363 73.5101 109.366 73.0489C109.386 70.2457 109.39 67.4424 109.363 64.6391C109.358 64.1171 109.458 63.9474 110.014 63.9577C112.219 63.994 114.426 63.972 116.631 63.9733C118.831 63.9733 120.987 63.9875 123.184 63.9629C123.641 63.9577 123.745 64.0898 123.743 64.5368C123.722 67.3828 123.718 70.2301 123.744 73.0761C123.749 73.58 123.592 73.6772 123.128 73.6759V73.6733Z" fill="#231F20"/>
<path d="M93.5283 62.3449C93.527 60.9446 92.8272 60.2541 91.421 60.2541C85.571 60.2541 79.7211 60.2528 73.8712 60.2541C72.4907 60.2541 71.7677 60.9757 71.7664 62.3618C71.7638 66.6561 71.7638 70.9491 71.7664 75.2433C71.7677 76.6489 72.4753 77.3626 73.8545 77.3639C76.7685 77.3652 79.6825 77.3639 82.5978 77.3639C85.5556 77.3639 88.5121 77.3665 91.4698 77.3639C92.8284 77.3626 93.5283 76.6631 93.5296 75.2926C93.5335 70.9776 93.5322 66.6625 93.5296 62.3475L93.5283 62.3449ZM89.2506 73.672C84.857 73.6565 80.4647 73.6552 76.0712 73.6746C75.5797 73.6772 75.4652 73.5347 75.4691 73.0567C75.491 70.2301 75.491 67.4035 75.4691 64.5769C75.4652 64.1041 75.5707 63.9525 76.066 63.959C78.2725 63.9875 80.4802 63.972 82.6879 63.972C84.8956 63.972 87.102 63.9862 89.3097 63.9616C89.7678 63.9564 89.872 64.0911 89.8694 64.5368C89.8488 67.3854 89.8449 70.2327 89.872 73.0813C89.8771 73.5956 89.7034 73.6733 89.2506 73.672Z" fill="#231F20"/>
<path d="M65.7106 116.362C62.4132 116.343 59.6459 119.124 59.6484 122.457C59.651 125.816 62.3476 128.526 65.7016 128.542C69.0454 128.557 71.7432 125.843 71.7458 122.464C71.7484 119.1 69.0608 116.383 65.7106 116.362ZM65.6952 124.825C64.428 124.82 63.3653 123.747 63.3601 122.468C63.3563 121.193 64.4164 120.111 65.6849 120.096C66.956 120.08 68.0264 121.141 68.0393 122.426C68.0522 123.757 67.0036 124.829 65.6952 124.825Z" fill="#231F20"/>
<path d="M25.7891 49.7587C19.0669 49.7652 13.6531 55.2681 13.6634 62.0846C13.6737 68.8207 19.139 74.2912 25.8522 74.2834C32.5937 74.2757 38.0551 68.7339 38.0358 61.9213C38.0165 55.2215 32.5075 49.7522 25.7891 49.7587ZM25.7364 70.5643C21.1563 70.5475 17.3494 66.66 17.3545 62.0068C17.361 57.3058 21.2232 53.4545 25.9023 53.483C30.5172 53.5128 34.3318 57.3744 34.3189 62.0042C34.3061 66.7493 30.4632 70.5812 25.7364 70.5643Z" fill="#231F20"/>
</svg>
