<svg width="157" height="146" viewBox="0 0 157 146" fill="none" xmlns="http://www.w3.org/2000/svg">
<path d="M117.891 58.4273C117.371 64.0969 119.538 68.8596 123.574 72.7838C109.815 84.9157 80.1052 82.8738 72.351 60.6689C72.7245 62.3915 72.9736 64.1539 73.5169 65.8251C74.0659 67.5249 74.9093 69.1276 75.6111 70.7475C63.6459 83.062 34.1233 85.2123 23.9014 63.19C24.3881 68.1751 27.0879 72.0366 30.3934 75.5672C24.9881 79.5542 16.1924 77.8773 11.4267 72.4473C10.5551 71.4548 9.88155 70.2969 9.04953 69.2702C8.60239 68.717 8.08733 67.9413 7.49869 67.8329C3.73479 67.137 0.916105 65.3175 0.157665 61.3648C-0.623415 57.3322 1.61229 54.7142 4.33475 53.1114C3.88195 52.0505 3.15746 51.1664 3.19143 50.3165C3.51971 40.9908 12.8021 33.5987 21.2695 35.1445C23.2391 31.4997 24.7447 27.7866 27.054 24.678C29.8274 20.942 33.9648 19.1624 38.6853 19.3336C39.6079 19.3678 40.5021 20.1207 41.4587 20.5656C45.7207 6.7624 56.2652 0.18023 70.5737 0.00341279C84.8256 -0.167701 95.5796 6.08936 101.109 20.2234C100.691 18.1757 100.266 16.128 99.7567 13.6526C108.281 11.2912 116.55 12.1582 124.434 16.2022C132.528 20.3545 137.769 26.874 139.405 36.7187C139.801 35.4924 139.988 34.9277 140.163 34.3745C148.767 36 152.819 44.0139 151.325 56.8816C152.021 55.5469 152.48 54.6685 152.938 53.7902C156.034 55.2503 157.517 58.2106 156.838 61.5872C156.198 64.7814 153.017 67.3994 149.536 67.7758C148.619 67.8728 147.504 68.1922 146.904 68.8253C142.28 73.6736 136.801 75.9094 130.275 73.9359C123.761 71.9681 120.031 67.1598 118.429 60.5891C118.254 59.8647 118.067 59.146 117.88 58.4216L117.891 58.4273Z" fill="black"/>
<path d="M115.01 106.75L116.646 108.894C111.23 113.047 96.457 112.91 92.1214 108.626C95.9023 108.096 99.5813 107.68 103.221 107.024C105.151 106.676 107.092 106.105 108.881 105.301C110.862 104.411 110.833 103.077 108.835 102.124C107.319 101.4 105.666 100.858 104.019 100.538C87.7519 97.407 71.4568 96.8253 55.156 100.316C53.8655 100.59 52.5354 100.829 51.3525 101.377C50.2261 101.896 49.2809 102.797 48.2508 103.533C49.3205 104.337 50.2827 105.541 51.477 105.86C54.7428 106.733 58.1105 107.24 61.4386 107.862C62.4291 108.045 63.4366 108.136 64.5233 108.278C61.8121 113.412 47.4018 113.726 41.9059 108.912C42.438 108.193 42.9813 107.469 43.5247 106.738C40.1117 108.296 36.6761 108.398 33.3876 106.858C31.4689 105.963 29.8331 105.198 27.5239 105.398C24.1505 105.695 21.5978 102.894 21.8865 100.054C22.1638 97.3386 25.2542 95.0742 28.4238 95.5134C29.8728 95.713 30.8519 95.6845 32.1481 94.6407C35.0517 92.3079 39.5457 92.4562 43.7511 94.7377C43.0153 93.5627 42.5172 92.7585 41.9116 91.7945C45.5793 89.302 49.3545 88.7829 53.4297 90.534C56.3163 86.4615 70.1946 86.9805 75.498 91.3952C79.0525 86.4729 92.9818 85.8683 98.7493 90.4598C98.4607 89.6784 98.2512 89.108 97.9286 88.2411C100.504 88.5662 103.102 88.0186 104.624 90.8876C108.626 88.646 112.622 89.1708 116.675 91.8173C116.063 92.6786 115.548 93.4087 114.744 94.538C119.527 92.3934 123.71 92.1196 127.559 95.6046C127.938 95.9526 128.957 95.6275 129.67 95.5533C132.194 95.2852 134.611 95.8385 135.788 98.1314C136.445 99.4034 136.473 101.548 135.845 102.826C134.696 105.147 132.262 105.586 129.743 105.512C128.691 105.484 127.468 105.729 126.58 106.276C123.478 108.187 119.091 108.341 114.999 106.75H115.01ZM112.837 102.078C113.216 98.5193 107.251 96.2321 99.4172 97.2645C103.94 99.1866 109.622 97.4356 112.837 102.078ZM45.483 102.307C48.9017 97.5211 54.5164 99.2323 59.2029 97.1161C50.3167 96.7226 46.0377 98.3254 45.483 102.307ZM36.0648 98.7817L35.4196 97.9318C34.3894 98.9071 33.1556 99.757 32.4481 100.932C32.2103 101.331 33.3084 102.546 33.8008 103.385C34.1347 103.339 34.4687 103.299 34.8026 103.253C32.4084 100.687 34.7234 99.9224 36.0648 98.7817ZM122.997 97.9204C122.782 98.1314 122.567 98.3368 122.357 98.5478C123.574 99.8483 126.172 100.624 124.321 103.35C125.278 102.523 126.364 101.257 126.11 100.864C125.351 99.6943 124.072 98.8729 122.997 97.9147V97.9204Z" fill="black"/>
<path d="M73.1944 145.775C73.7264 139.991 74.4509 134.259 74.7112 128.504C74.8754 124.922 74.349 121.306 74.1113 117.701C74.083 117.262 73.9132 116.828 73.3755 116.4C72.7359 126.2 72.102 135.999 71.4568 145.843H59.084C63.5611 139.94 66.1477 133.426 67.4551 126.559C69.0116 118.38 69.9738 110.069 70.936 101.787C71.1681 99.8081 71.6832 99.135 73.5849 99.2149C76.0017 99.3176 78.4242 99.2377 81.2429 99.2377V145.769H73.1887L73.1944 145.775Z" fill="black"/>
<path d="M86.5068 110.509C85.72 122.213 86.3992 133.888 87.6727 145.73C86.8181 145.809 86.0936 145.906 85.3691 145.941C84.622 145.975 83.8749 145.946 83.0881 145.946V99.5231C83.8522 99.4033 84.2032 99.295 84.5541 99.295C90.6952 99.295 90.7348 99.295 91.0518 105.449C91.4932 114.045 93.0101 122.407 96.2476 130.403C98.6305 136.284 101.789 141.611 107.494 145.701H89.5745C88.7765 133.985 87.984 122.27 87.186 110.56L86.5068 110.509Z" fill="black"/>
<path d="M64.2742 81.3339C68.5645 78.1341 72.4529 75.2309 76.6469 72.0995C78.2827 74.8316 81.8654 76.1834 81.956 81.2541C82.0522 86.6784 77.8978 87.3514 75.5262 90.1234C73.6358 88.7831 71.6944 87.397 69.7304 86.0395C69.5719 85.9312 69.2606 85.9825 69.0399 86.0395C66.0231 86.7981 65.1571 86.2449 64.6138 83.1705C64.4836 82.4347 64.3421 81.6932 64.2742 81.3339Z" fill="black"/>
<path d="M49.6546 145.678C58.5295 138.805 61.9764 129.291 64.0706 119.224C65.2196 113.68 65.5422 107.942 65.9781 102.278C66.1422 100.116 66.8554 99.3575 69.3401 99.8253C68.9552 103.63 68.859 107.531 68.1119 111.296C66.4026 119.943 64.3763 128.527 62.4575 137.128C62.316 137.773 62.0727 138.406 61.7953 139.005C57.9352 147.269 59.3842 146.129 49.6546 145.684V145.678Z" fill="black"/>
<path d="M83.275 85.5831V78.5446C86.3201 79.8907 89.2633 81.1912 92.4102 82.5829C92.263 83.5412 92.1102 84.5336 91.9461 85.5831H83.275Z" fill="black"/>
<path d="M112.831 102.078C109.616 97.4354 103.928 99.1864 99.4115 97.2642C107.251 96.2318 113.211 98.5191 112.831 102.078Z" fill="black"/>
<path d="M45.4773 102.301C46.032 98.3195 50.3166 96.7167 59.1972 97.1103C54.505 99.2264 48.896 97.5153 45.4773 102.301Z" fill="black"/>
<path d="M36.0592 98.7757C34.7177 99.9165 32.4028 100.681 34.797 103.247C34.463 103.293 34.1291 103.333 33.7952 103.379C33.3084 102.535 32.2047 101.32 32.4424 100.926C33.1499 99.7511 34.3838 98.9012 35.4139 97.9258L36.0592 98.7757Z" fill="black"/>
<path d="M122.991 97.9147C124.067 98.8729 125.346 99.6943 126.104 100.864C126.353 101.251 125.267 102.523 124.316 103.35C126.166 100.624 123.569 99.8483 122.352 98.5478C122.567 98.3368 122.782 98.1314 122.991 97.9204V97.9147Z" fill="black"/>
</svg>
